<svg width="106" height="292" viewBox="0 0 106 292" fill="none" xmlns="http://www.w3.org/2000/svg">
<path d="M50.8099 24.4398C50.3356 28.211 50.3525 32.0677 50.8599 35.9029C50.8599 35.9029 29.1884 37.6747 23.8516 33.0589C18.5147 28.4432 16.1279 2.88708 27.8699 1.21933C39.6119 -0.448569 53.4949 8.95468 50.8099 24.4398Z" fill="#263238"/>
<path d="M41.5664 4.07267C47.0341 7.5525 48.6034 12.5636 48.5389 16.1941C47.8702 21.0973 46.099 24.5702 44.7241 29.3368L31.0857 0.667969C34.2618 1.26559 35.6891 0.64001 41.5664 4.07267Z" fill="#263238"/>
<path d="M24.1134 1.9679C13.7542 5.58864 9.8251 11.9021 10.465 19.0609C11.105 26.2197 20.0802 34.0235 21.5442 34.3418L26.1258 35.0963C26.1258 35.0963 19.3794 25.4574 20.8061 22.3139C22.2328 19.1705 23.6515 18.8892 23.6515 18.8892L24.1134 1.9679Z" fill="#263238"/>
<path d="M34.5718 1.59724C29.2453 -0.762483 24.0269 2.04026 20.9854 3.98711C17.6581 6.69718 15.701 10.639 15.6077 14.8187C15.6144 18.7263 15.6227 23.4629 18.1018 25.4955C19.491 26.6729 21.3336 27.2373 23.1792 27.0506L43.3483 9.18543C41.1447 5.98333 38.1241 3.37164 34.5718 1.59724Z" fill="#263238"/>
<path d="M35.2054 54.427C33.6551 55.9626 32.2357 55.4531 30.1616 54.6452C17.8193 50.4212 21.46 44.7173 21.46 44.7173C23.7955 42.0868 23.8926 38.9447 23.0313 34.1566C23.0143 34.017 23.0077 33.8763 23.0116 33.7359C23.0187 33.0967 23.2322 32.4755 23.623 31.957C24.651 30.513 26.7082 30.1399 28.2177 31.1235L28.2218 31.1263L33.7464 32.6271C33.7616 32.6996 33.777 32.7722 33.7941 32.8538C33.8138 35.4734 33.7394 37.5073 33.7611 39.1071C33.8013 39.2975 33.7656 39.5026 33.7754 39.6895C33.8156 39.8798 33.8007 40.0903 33.801 40.2789C33.9374 42.4703 37.8184 45.6821 39.3992 46.4435C40.3577 46.9663 40.4665 49.2506 35.2054 54.427Z" fill="#E1BFB9"/>
<path opacity="0.2" d="M33.7232 32.556C33.7266 32.6367 33.7435 32.7163 33.773 32.7918C33.7925 35.4114 33.7183 37.4451 33.7399 39.0452C33.7295 39.2394 33.7343 39.434 33.7542 39.6275C33.766 39.8316 33.7924 40.0346 33.833 40.2351C29.6347 39.1499 25.885 36.86 23.0889 33.6736C23.0928 33.0438 23.2891 32.429 23.6529 31.904C24.6667 30.451 26.7172 30.0553 28.2405 31.019L33.7232 32.556Z" fill="black"/>
<path d="M18.8115 15.909C19.0392 24.9429 18.9262 28.7583 23.4211 33.6569C30.1899 41.0135 41.4997 39.0295 44.0884 30.1599C46.3505 22.1741 45.6451 8.76874 36.7352 4.63735C27.825 0.505814 18.5914 6.86413 18.8115 15.909Z" fill="#E1BFB9"/>
<path d="M14.6432 23.6535C15.6018 25.6024 17.3201 26.9144 18.9536 27.447C21.4106 28.2479 23.0407 24.4911 22.3927 22.0182C21.809 19.7921 19.4677 18.1634 16.9848 18.4419C14.5387 18.7163 13.5472 21.4255 14.6432 23.6535Z" fill="#E1BFB9"/>
<path opacity="0.2" d="M19.9882 23.7807H19.9851C19.8757 23.7792 19.7881 23.6928 19.7897 23.5878C19.8028 22.7695 19.4702 21.9624 18.8762 21.3734C18.2822 20.7847 17.4501 20.4383 16.5948 20.4223C16.4855 20.4201 16.3979 20.3337 16.4002 20.2287C16.4025 20.1237 16.5126 20.0432 16.6026 20.0425C17.5626 20.0603 18.4954 20.4494 19.1615 21.1096C19.8277 21.7703 20.2014 22.6757 20.1867 23.5937C20.1851 23.6976 20.0967 23.7807 19.9882 23.7807Z" fill="black"/>
<path d="M31.1211 19.7786C31.0845 20.742 31.5596 21.5729 32.1821 21.6345C32.8044 21.6962 33.3383 20.9656 33.3747 20.0024C33.4113 19.0393 32.9365 18.2083 32.3141 18.1466C31.6919 18.0848 31.1578 18.8153 31.1211 19.7786Z" fill="#263238"/>
<path d="M40.4719 20.4928C40.4385 21.4263 40.9145 22.2332 41.5348 22.295C42.1552 22.3565 42.6852 21.6499 42.7187 20.716C42.7521 19.7827 42.2761 18.9758 41.6557 18.9142C41.0353 18.8522 40.5052 19.5594 40.4719 20.4928Z" fill="#263238"/>
<path d="M29.4328 16.2807C29.5525 16.3031 29.6779 16.2793 29.7788 16.2039C31.3512 15.0255 32.9563 15.6104 32.9748 15.6173C33.2127 15.7044 33.4706 15.5921 33.547 15.3585C33.6228 15.1252 33.4896 14.8632 33.2492 14.772C33.1652 14.741 31.1511 14.0048 29.1999 15.468C29.0055 15.6137 28.9773 15.897 29.1368 16.1003C29.2141 16.1981 29.3207 16.2596 29.4328 16.2807Z" fill="#263238"/>
<path d="M44.0104 16.1919C44.1085 16.1688 44.1939 16.1072 44.2445 16.0111C44.3487 15.8123 44.2657 15.5429 44.0598 15.4096C41.9939 14.0719 40.3111 14.8306 40.24 14.8646C40.04 14.958 39.9717 15.2118 40.0878 15.4323C40.2031 15.6522 40.4589 15.7548 40.6589 15.6627C40.7242 15.6321 42.0395 15.0646 43.682 16.1286C43.7883 16.1973 43.9067 16.2166 44.0104 16.1919Z" fill="#263238"/>
<path d="M37.9673 19.849C37.9673 19.849 39.156 23.3613 40.6459 25.61C40.9062 26.003 40.6783 26.5286 40.2097 26.6527C39.0034 26.972 37.6658 26.4904 37.6658 26.4904L37.9673 19.849Z" fill="#CD877B"/>
<path d="M31.9539 18.1582L34.172 17.8386C34.172 17.8386 32.8476 19.2982 31.9539 18.1582Z" fill="#263238"/>
<path d="M41.4299 18.9182L43.6482 18.5986C43.6482 18.5986 42.324 20.0581 41.4299 18.9182Z" fill="#263238"/>
<path d="M37.0533 28.972C36.2714 29.8135 35.2228 31.5118 35.2228 31.5118C35.0446 31.4488 34.8668 31.3855 34.6926 31.3137C32.3016 30.3991 31.5082 29.219 31.3538 28.1882C31.2717 27.6241 31.3882 27.1006 31.5388 26.6948C31.7077 26.2239 31.9405 25.9249 31.9405 25.9249C32.9051 27.1342 35.0655 28.1512 36.2433 28.648C36.734 28.8609 37.0533 28.972 37.0533 28.972Z" fill="#263238"/>
<path d="M36.2433 28.648L35.6832 29.3835C33.4334 28.5169 31.9709 27.6178 31.5388 26.6948C31.7077 26.2239 31.9405 25.9249 31.9405 25.9249C32.9051 27.1342 35.0655 28.1512 36.2433 28.648Z" fill="white"/>
<path d="M34.6926 31.3136C32.3015 30.399 31.5081 29.219 31.3538 28.1881C32.156 28.5298 33.0834 29.0273 33.7983 29.7071C34.3471 30.2248 34.5904 30.7934 34.6926 31.3136Z" fill="#DE5753"/>
<path d="M22.0852 18.1059C22.0852 18.1059 27.4709 12.2004 27.629 7.15579C27.629 7.15579 46.9246 3.02806 45.1722 18.9692C45.1722 18.9692 49.3204 5.17932 33.546 2.95459C17.7717 0.729865 14.5517 20.439 21.7118 27.2955C21.7394 27.2244 18.754 21.8057 22.0852 18.1059Z" fill="#263238"/>
<path d="M40.72 4.91635C42.7989 6.8186 44.1906 9.30496 44.6931 12.0148C44.6965 13.9804 41.9017 15.4058 41.9017 15.4058L38.478 11.1247L38.4846 14.8902C32.889 14.3118 29.6496 11.4754 27.7278 7.37634L30.8377 2.04272C30.8377 2.04272 38.8607 3.37995 40.72 4.91635Z" fill="#263238"/>
<path d="M20.8772 45.1981L9.61914 49.8921L20.3632 98.6659C20.3632 98.6659 56.7231 99.0346 57.7509 98.6659C58.7788 98.2972 58.5218 71.3789 56.5946 62.8978C54.6674 54.4167 49.3998 46.9189 49.3998 46.9189L37.3023 44.4133C37.3023 44.4133 36.8087 54.4167 20.8772 45.1981Z" fill="#423881"/>
<path opacity="0.75" d="M20.8079 45.2281L9.56226 49.949L20.4338 98.6969C20.4338 98.6969 56.7945 98.9787 57.8214 98.6075C58.8483 98.2363 58.521 71.3187 56.5716 62.8423C54.6222 54.3658 49.3349 46.8807 49.3349 46.8807L37.231 44.4041C37.231 44.4041 36.7635 54.4086 20.8079 45.2281Z" fill="white"/>
<path d="M11.1129 49.4998C11.1129 49.6227 -2.89139 51.4664 0.577503 66.5849C4.04649 81.7033 4.70674 80.7803 4.70674 80.7803L21.5198 74.2055L15.2242 56.26L11.1129 49.4998Z" fill="#423881"/>
<path opacity="0.75" d="M11.0549 49.5535C11.0552 49.6764 -2.94424 51.5536 0.564288 66.6637C4.07274 81.7738 4.7306 80.8492 4.7306 80.8492L21.5264 74.2342L15.1839 56.3039L11.0549 49.5535Z" fill="white"/>
<path d="M67.1487 64.4962C67.1487 64.4962 61.1709 50.8328 56.8743 48.9968C52.5778 47.1609 49.3999 46.9183 49.3999 46.9183C49.3999 46.9183 57.4426 68.6775 57.413 68.3943C57.3835 68.1111 67.1487 64.4962 67.1487 64.4962Z" fill="#423881"/>
<path opacity="0.75" d="M67.13 64.416C67.13 64.416 61.1164 50.7669 56.8151 48.9413C52.5138 47.1157 49.3352 46.8807 49.3352 46.8807C49.3352 46.8807 57.4349 68.6206 57.4045 68.3374C57.3743 68.0542 67.13 64.416 67.13 64.416Z" fill="white"/>
<path opacity="0.3" d="M20.5172 74.5976L22.5221 73.655L16.3738 59.5375C16.3738 59.5375 23.8982 73.7234 25.3086 76.6429C26.719 79.5624 26.8158 78.8552 26.8158 78.8552L22.3279 77.5666L20.5172 74.5976Z" fill="black"/>
<path d="M61.5328 100.387C61.5328 100.387 69.3622 111.891 71.7666 126.136C74.1709 140.382 78.9618 181.46 80.0547 189.638C81.1476 197.816 89.9222 279.895 89.9222 279.895L73.5287 282.006C73.5287 282.006 56.9504 204.137 55.7207 199.229C54.4411 194.121 44.2463 141.078 44.2463 141.078C44.2463 141.078 45.6103 187.698 45.974 197.101C46.3434 206.653 46.0452 281.16 46.0452 281.16H31.1816C31.1816 281.16 23.0231 209.5 21.7116 197.628C20.4001 185.757 14.3912 149.24 13.9065 134.029C13.9065 134.029 12.3448 121.551 18.2531 108.736C19.174 106.739 23.6902 100.387 23.6902 100.387C23.6902 100.387 43.6067 111.908 61.5328 100.387Z" fill="#263238"/>
<path d="M71.6045 264.21L79.0235 283.367L85.7479 281.288L83.4285 261.068L71.6045 264.21Z" fill="#263238"/>
<path d="M78.2982 291.425L84.3954 291.382C84.3954 291.382 85.6231 290.746 86.3478 290.824C87.0701 290.904 89.5844 291.344 89.5844 291.344L105.775 291.227C105.641 290.579 105.476 290.002 105.29 289.49C105.063 288.867 104.801 288.339 104.512 287.894C103.496 286.335 102.123 285.787 100.634 285.708C98.3659 285.589 91.1954 281.084 91.1954 281.084C91.1954 281.084 88.6005 280.237 88.4393 277.602C88.3781 276.614 86.8436 275.419 86.117 275.325C84.6347 275.131 83.8184 276.034 83.6141 277.452L83.3786 279.098L79.9548 278.613C79.9548 278.613 76.4626 276.963 76.6443 278.589C76.7482 279.517 77.3657 283.649 77.7581 286.928C77.8503 287.692 77.9361 288.415 78.0115 289.049L78.0132 289.05C78.1812 290.458 78.2982 291.425 78.2982 291.425Z" fill="#263238"/>
<g opacity="0.2">
<path d="M105.775 291.227L89.5842 291.344C89.5842 291.344 87.0698 290.904 86.3476 290.824C85.6229 290.746 84.3953 291.382 84.3953 291.382L78.2979 291.425C78.2979 291.425 78.181 290.458 78.0129 289.05L105.29 289.49C105.476 290.002 105.64 290.579 105.775 291.227Z" fill="white"/>
</g>
<path d="M94.761 282.749C94.6854 282.68 94.5696 282.673 94.4824 282.729C94.0833 282.987 93.749 283.35 93.5232 283.803C93.4044 284.042 93.7693 284.269 93.8894 284.028C94.0899 283.625 94.3823 283.304 94.731 283.078C94.8475 283.003 94.8657 282.846 94.7643 282.752L94.761 282.749Z" fill="#423881"/>
<path d="M93.4673 282.033C93.3917 281.963 93.2758 281.956 93.1888 282.013C92.7895 282.271 92.4552 282.633 92.2296 283.086C92.1106 283.325 92.4755 283.553 92.5956 283.311C92.7962 282.909 93.0885 282.588 93.4373 282.362C93.5539 282.286 93.572 282.13 93.4705 282.036L93.4673 282.033Z" fill="#423881"/>
<path d="M92.1336 281.365C92.058 281.295 91.9422 281.288 91.8551 281.345C91.4558 281.603 91.1215 281.965 90.8959 282.419C90.7768 282.657 91.1418 282.885 91.2619 282.643C91.4624 282.24 91.7547 281.92 92.1035 281.694C92.2201 281.618 92.2382 281.462 92.137 281.368L92.1336 281.365Z" fill="#423881"/>
<path d="M45.4924 260.984L42.5224 281.831L35.4206 282.174L33.1211 262.077L45.4924 260.984Z" fill="#263238"/>
<path d="M29.3742 291.51H45.2592C45.2592 291.51 45.6057 290.871 45.2096 289.172C45.1494 288.908 45.0705 288.617 44.9678 288.299C44.9624 288.283 44.9588 288.268 44.9533 288.252C44.8048 287.782 44.6342 287.203 44.4529 286.579C43.7253 284.035 42.8693 280.711 42.8693 280.711C42.8693 280.711 40.2265 275.298 37.1344 276.649C34.4218 277.835 35.0653 281.228 35.0653 281.228C35.0653 281.228 34.7994 283.22 32.7429 284.976C31.471 286.062 30.2064 286.902 29.5978 288.252C29.4841 288.504 29.3944 288.773 29.3303 289.064C29.323 289.099 29.3155 289.136 29.3101 289.172C29.1835 289.823 29.1909 290.586 29.3742 291.51Z" fill="#263238"/>
<g opacity="0.2">
<path d="M45.2096 289.172C45.6057 290.871 45.2592 291.51 45.2592 291.51H29.3742C29.1909 290.585 29.1835 289.823 29.3101 289.172H45.2096Z" fill="white"/>
</g>
<path d="M35.7044 282.08C36.5978 281.414 37.7701 281.5 38.5738 282.25C38.7898 282.452 39.1216 282.135 38.9053 281.933C37.9022 280.997 36.4702 280.945 35.3729 281.762C35.1352 281.94 35.4691 282.255 35.7044 282.08Z" fill="#423881"/>
<path d="M35.2562 283.499C36.1497 282.833 37.322 282.919 38.1255 283.669C38.3416 283.871 38.6735 283.554 38.4571 283.352C37.4541 282.416 36.0221 282.364 34.9246 283.182C34.687 283.359 35.0209 283.674 35.2562 283.499Z" fill="#423881"/>
<path d="M34.8058 284.804C35.6991 284.138 36.8713 284.224 37.6751 284.974C37.891 285.176 38.223 284.859 38.0064 284.657C37.0035 283.721 35.5715 283.669 34.4743 284.486C34.2364 284.664 34.5704 284.979 34.8058 284.804Z" fill="#423881"/>
<path d="M22.142 101.432L20.501 104.825L24.2139 109.367C24.2139 109.367 29.5317 185.609 30.742 186.054C31.9523 186.499 80.9229 184.54 83.1573 183.382C83.1573 183.382 79.6195 156.038 77.9437 147.755C76.2679 139.472 71.5162 120.927 66.6101 108.938C62.6865 99.3504 59.0753 95.1166 59.0753 95.1166L22.142 101.432Z" fill="#423881"/>
<path d="M60.3807 139.122C60.3807 139.122 54.2374 119.651 54.6871 119.866C55.1369 120.082 62.158 136.432 62.158 136.432L60.3807 139.122Z" fill="#D6D6D6"/>
<path d="M55.5313 147.617L55.4198 147.265L58.5938 146.343L58.4166 145.785L55.2425 146.707L55.1308 146.355L58.3049 145.433L58.1276 144.874L54.9536 145.797L54.842 145.445L58.016 144.523L57.8387 143.964L54.6647 144.886L54.5531 144.535L57.7272 143.613L57.5499 143.054L54.3758 143.976L54.2642 143.625L57.4383 142.703L57.261 142.144L54.087 143.066L53.9753 142.714L57.1493 141.792L56.9721 141.234L53.798 142.156L53.6864 141.804L56.8605 140.882L56.6832 140.324L53.5091 141.246L53.3976 140.894L56.5716 139.972L56.3943 139.414L53.2203 140.336L53.1086 139.984L56.2827 139.062L56.1054 138.503L52.9314 139.426L52.8197 139.074L55.9938 138.152L55.8165 137.593L52.6425 138.515L52.5309 138.164L55.7049 137.242L55.5276 136.683L52.3536 137.605L52.242 137.254L55.416 136.332L55.2387 135.773L52.0648 136.695L51.9531 136.343L55.1271 135.421L54.9499 134.863L51.7758 135.785L51.6642 135.433L54.8382 134.511L54.661 133.953L51.4869 134.875L51.3754 134.523L54.5493 133.601L54.3721 133.043L51.198 133.965L51.0865 133.613L54.2605 132.691L54.0832 132.132L50.9092 133.055L50.7975 132.703L53.9716 131.781L53.7943 131.222L50.6203 132.144L50.5087 131.793L53.6827 130.871L53.5054 130.312L50.3314 131.234L50.2198 130.883L53.3938 129.96L53.2165 129.402L50.0425 130.324L49.9309 129.972L53.1049 129.05L52.9276 128.492L49.7536 129.414L49.642 129.062L52.816 128.14L52.6388 127.582L49.4647 128.504L49.3531 128.152L52.5271 127.23L52.3499 126.672L49.1758 127.594L49.0643 127.242L52.2383 126.32L52.0609 125.761L48.887 126.683L48.7753 126.332L51.9494 125.41L51.7721 124.851L48.5981 125.773L48.4864 125.422L51.6605 124.5L51.4832 123.941L48.3092 124.863L48.1975 124.512L51.3716 123.589L51.1943 123.031L48.0203 123.953L47.9087 123.601L51.0827 122.679L50.9054 122.121L47.7314 123.043L47.6198 122.691L50.7938 121.769L50.6054 121.175L45.6262 122.622C44.8701 122.841 44.4852 123.738 44.7663 124.623L52.1101 147.76C52.3912 148.646 53.232 149.186 53.9879 148.966L58.9672 147.52L58.7054 146.695L55.5313 147.617Z" fill="#D6D6D6"/>
<path d="M39.9756 134.437C39.9756 134.437 42.2532 157.661 45.9848 160.471C49.7164 163.28 72.2687 162.344 72.8405 158.598C73.4123 154.852 68.188 131.815 68.188 131.815C68.188 131.815 61.9535 135.748 39.9756 134.437Z" fill="#423881"/>
<path opacity="0.3" d="M39.9756 134.437C39.9756 134.437 42.2532 157.661 45.9848 160.471C49.7164 163.28 72.2687 162.344 72.8405 158.598C73.4123 154.852 68.188 131.815 68.188 131.815C68.188 131.815 61.9535 135.748 39.9756 134.437Z" fill="black"/>
<g opacity="0.3">
<path d="M48.4771 144.625C50.6342 147.267 53.221 149.576 56.5976 150.472C59.9743 151.368 63.65 151.2 66.9216 149.999C60.5018 149.291 54.2191 147.461 48.4771 144.625Z" fill="black"/>
</g>
<path d="M22.5222 65.1455L25.3087 104.067L60.3811 103.247L56.0983 61.6201L22.5222 65.1455Z" fill="#423881"/>
<path d="M43.2786 46.3484C43.2786 46.3484 51.7005 54.2314 53.3428 66.2036H56.2746C56.2746 66.2036 52.9012 51.2126 45.5602 45.0601C45.5602 45.0601 43.1937 44.184 43.2786 46.3484Z" fill="#423881"/>
<path opacity="0.3" d="M22.1418 101.432C22.1418 101.432 25.4208 104.771 38.7585 102.174C52.0961 99.5763 58.3084 93.2789 58.3084 93.2789L22.1418 101.432Z" fill="black"/>
<path d="M11.9405 48.9237C11.9405 48.9237 23.1271 56.6551 25.3085 68.3971H29.2029C29.2029 68.3971 24.722 53.6943 14.971 47.6601C14.971 47.6601 11.8276 46.8009 11.9405 48.9237Z" fill="#423881"/>
<path d="M6.02881 80.2629C6.02881 80.2629 14.1858 99.1871 21.5195 101.292C28.8532 103.397 59.1387 92.9356 59.1387 92.9356L56.2747 85.0392L29.1939 89.2575C29.1939 89.2575 20.6164 74.5584 20.5172 74.5972C20.4179 74.6361 6.02881 80.2629 6.02881 80.2629Z" fill="#E1BFB9"/>
<path d="M65.4997 64.9148C65.4997 64.9148 73.9499 78.2506 75.571 84.6756C77.1921 91.1006 73.0262 93.4269 70.5354 94.3132C68.0445 95.1994 27.7065 89.0513 27.7065 89.0513L32.4683 82.37L59.624 82.3285L56.8872 68.3943L65.4997 64.9148Z" fill="#E1BFB9"/>
<path d="M76.8628 53.4761C76.7023 53.8179 67.2527 56.6611 62.9752 57.0834C58.6977 57.5059 53.2425 59.0656 46.175 67.0809C46.175 67.0809 46.1897 71.8315 50.3797 74.8327C50.3797 74.8327 56.1916 76.0245 62.8683 72.3192C69.545 68.6138 79.6895 59.8159 79.6895 59.8159L81.9108 58.3254L87.5092 59.9789L80.8188 46.2314L78.9712 52.3686L76.8628 53.4761Z" fill="#263238"/>
<path d="M65.9922 69.1188C65.8208 69.2527 64.5741 71.5399 65.0436 72.7585C65.5131 73.9771 69.9679 78.7696 70.7265 82.3773C71.4851 85.9851 73.6847 88.5508 73.6847 88.5508L68.877 90.8599L61.2077 75.5728C61.2077 75.5728 60.1485 73.8688 58.7893 73.4741C57.4301 73.0794 65.9922 69.1188 65.9922 69.1188Z" fill="#263238"/>
<g opacity="0.3">
<path d="M56.2746 85.0392C56.2746 85.0392 55.8223 77.3868 56.3048 76.9428C56.7873 76.4988 60.9673 74.5876 60.9673 74.5876L61.9923 75.3144C61.9923 75.3144 65.4121 72.977 66.2736 72.4002C67.1349 71.8234 69.7706 71.8825 68.4344 74.9294C68.4344 74.9294 69.6717 75.0808 69.4595 76.7778C69.2473 78.4748 68.868 79.1837 68.868 79.1837C68.868 79.1837 70.4467 80.5992 69.6507 82.6937C68.8549 84.7882 67.9689 85.863 67.1435 86.8918C66.4494 87.757 60.9227 90.0578 58.8072 91.3969L56.2746 85.0392Z" fill="black"/>
</g>
<path d="M55.8906 85.9723C55.8906 85.9723 56.1538 78.9254 56.6363 78.4814C57.1187 78.0374 61.2681 75.6174 61.2681 75.6174L62.3238 76.853C62.3238 76.853 65.7436 74.5155 66.605 73.9387C67.4664 73.362 70.1021 73.421 68.7658 76.468C68.7658 76.468 70.0031 76.6194 69.7909 78.3164C69.5788 80.0134 69.1994 80.7222 69.1994 80.7222C69.1994 80.7222 70.7781 82.1377 69.9822 84.2323C69.1863 86.3267 68.3003 87.4015 67.4749 88.4304C66.7809 89.2955 61.2541 91.5964 59.1387 92.9356L55.8906 85.9723Z" fill="#E1BFB9"/>
<path opacity="0.3" d="M32.0539 83.066C31.7386 83.1187 24.0649 77.9539 22.3161 78.2707C20.5673 78.5874 16.3738 80.3939 16.3738 80.3939C16.3738 80.3939 16.9491 81.7738 18.0382 81.6169C19.1273 81.46 22.1593 80.7106 22.1593 80.7106L24.1794 81.7894L21.0573 81.9871L17.0278 84.8356C17.0278 84.8356 18.1337 86.2674 19.1127 85.5072C20.0919 84.7469 22.5595 84.0243 22.5595 84.0243L24.7886 84.5599C24.7886 84.5599 22.2079 85.0901 21.318 85.4127C20.4281 85.7352 18.2406 87.2816 18.2406 87.2816C18.2406 87.2816 19.0882 88.7938 20.5839 87.8728C22.0795 86.9518 24.1136 86.7739 24.1136 86.7739L25.8303 86.9226C25.8303 86.9226 23.5069 87.5093 22.4407 88.4332C21.3744 89.3572 20.7647 90.5034 20.7647 90.5034C20.7647 90.5034 21.2419 91.7667 23.1721 90.1638C25.1023 88.561 27.9452 88.96 28.5738 89.1286L32.0539 83.066Z" fill="black"/>
<path d="M33.7453 82.4897C33.43 82.5423 24.563 77.1401 22.8142 77.4569C21.0654 77.7736 16.8718 79.5801 16.8718 79.5801C16.8718 79.5801 17.4472 80.96 18.5363 80.8031C19.6255 80.6462 22.6574 79.8967 22.6574 79.8967L24.6775 80.9755L21.5553 81.1734L17.5258 84.0218C17.5258 84.0218 18.6317 85.4536 19.6108 84.6934C20.5899 83.9331 23.0575 83.2104 23.0575 83.2104L25.2867 83.7461C25.2867 83.7461 22.706 84.2762 21.8161 84.5989C20.9261 84.9215 18.7387 86.4678 18.7387 86.4678C18.7387 86.4678 19.5863 87.98 21.0819 87.0589C22.5776 86.1379 24.6117 85.9601 24.6117 85.9601L26.3284 86.1088C26.3284 86.1088 24.005 86.6954 22.9387 87.6194C21.8725 88.5434 21.2627 89.6896 21.2627 89.6896C21.2627 89.6896 21.74 90.9529 23.6702 89.35C25.6004 87.7472 28.5652 89.0887 29.1939 89.2574L33.7453 82.4897Z" fill="#E1BFB9"/>
<path opacity="0.3" d="M28.48 89.0213C28.48 89.0213 30.8122 89.9219 32.5518 89.7771C34.2914 89.6324 56.2746 85.0394 56.2746 85.0394C56.2746 85.0394 34.7132 90.7925 32.2352 90.5403C29.7571 90.2881 28.48 89.0213 28.48 89.0213Z" fill="black"/>
</svg>
