<svg width="162" height="316" viewBox="0 0 162 316" fill="none" xmlns="http://www.w3.org/2000/svg">
<path d="M96.5649 288.366L97.7395 270.607L80.9927 272.501C80.9927 272.501 81.4561 282.091 81.8225 287.524C82.0273 290.734 78.5896 296.812 78.5896 296.812C78.5896 296.812 86.5858 301.653 90.7671 299.72C94.9484 297.786 97.039 291.379 96.9528 289.998C96.8666 288.616 96.5649 288.366 96.5649 288.366Z" fill="#B16668"/>
<path d="M121.006 296.063L117.848 278.5L135.619 276.422V293.208C135.619 293.208 137.225 299.299 136.05 301.43C134.875 303.561 123.043 305.245 122.04 303.732C121.038 302.219 121.006 296.063 121.006 296.063Z" fill="#B16668"/>
<path d="M131.621 141.079C134.606 179.229 134.854 223.852 134.854 223.852C135.112 226.76 137.634 236.337 138.087 250.703C138.287 262.553 137.956 271.213 137.175 283.027C131.375 286.453 125.939 285.88 118.448 285.31C118.448 285.31 112.816 259.911 109.798 239.073C106.328 215.091 102.891 198.634 102.891 198.634L101.166 221.524C101.691 228.916 101.886 236.338 101.748 243.757C101.285 254.149 97.4376 280.394 97.4376 280.394C97.4376 280.394 88.2021 287.367 80.9387 280.71C80.9387 280.71 76.4556 232.745 75.8844 219.564C74.699 192.398 75.5288 168.126 75.7551 141.118L131.621 141.079Z" fill="#295F2B"/>
<path opacity="0.2" d="M102.858 198.608L98.9142 165.917C98.9142 165.917 90.53 164.601 86.1655 159.918C86.1655 159.918 89.0213 166.167 96.9421 168.456L100.832 193.122L101.123 221.498L102.858 198.608Z" fill="black"/>
<path d="M0.481041 125.661C1.34317 124.806 1.67722 124.885 1.67722 124.885C1.40781 124.108 1.82812 121.951 4.12353 121.254C4.12353 121.254 3.04585 119.451 6.49435 117.833C10.3631 116.005 14.6953 116.202 17.0769 116.242C17.9822 116.242 18.8228 115.571 17.7667 114.926C16.3549 114.124 14.6953 113.755 13.5746 112.374C13.242 111.988 12.9907 111.509 12.8418 110.979C12.7326 110.447 12.7627 109.885 12.928 109.374C13.2728 108.256 14.8139 108.743 15.6975 108.993C19.1999 109.993 22.5083 109.716 25.7197 111.913C26.7974 112.611 28.4678 113.689 29.6209 113.387C36.5179 111.611 54.2022 103.757 58.8038 101.1C65.8085 90.7201 69.5804 80.4721 74.4406 70.8424C78.5357 62.7124 82.8678 60.7785 86.5211 59.7261L90.0881 89.2993C90.0881 89.2993 80.0983 105.086 74.6453 114.045C72.3284 117.833 69.8174 119.636 63.7825 121.451C53.8573 124.424 45.6564 125.727 35.7635 127.95C32.4572 128.532 29.2505 129.767 26.2693 131.607C25.0262 132.405 23.653 132.854 22.2497 132.923C18.8012 132.923 16.3441 131.989 13.3483 131.91C10.9772 131.778 8.60133 131.941 6.25726 132.396C4.2636 132.581 3.44461 131.936 3.18597 130.699C2.92733 129.463 5.34128 128.647 5.34128 128.647C4.15845 128.911 2.94628 128.911 1.76346 128.647C0.416389 128.002 -0.370308 126.516 0.481041 125.661Z" fill="#B16668"/>
<path d="M9.57642 132.133C8.66286 132.181 7.75244 132.296 6.84995 132.475C5.64298 132.725 4.32822 133.08 3.43377 131.752C3.21772 131.427 3.0797 131.035 3.03504 130.62C3.03713 130.402 3.08352 130.189 3.17004 129.998C3.25657 129.807 3.38051 129.646 3.53075 129.528C3.73902 129.328 3.96712 129.16 4.20968 129.029H2.88418C2.09856 129.077 1.32747 128.757 0.728872 128.134C0.398775 127.831 0.157005 127.407 0.039156 126.924C-0.0201645 126.649 -0.0119343 126.359 0.0628033 126.09C0.137541 125.821 0.275494 125.585 0.459457 125.411C0.780516 125.122 1.12329 124.871 1.48321 124.661C1.38027 124.132 1.44983 123.576 1.67718 123.109C1.88982 122.638 2.18406 122.229 2.53933 121.911C2.95796 121.528 3.43947 121.258 3.95105 121.122C3.87617 120.772 3.88622 120.403 3.97996 120.06C4.0737 119.716 4.2471 119.414 4.47909 119.188C4.91263 118.707 5.40307 118.308 5.93394 118.004C7.2671 117.263 8.6778 116.749 10.126 116.478C12.4843 116.165 14.8599 116.095 17.2278 116.268C14.8654 116.217 12.503 116.371 10.1584 116.728C8.73513 117.017 7.35038 117.539 6.04171 118.281C5.52134 118.585 5.04174 118.985 4.61919 119.465C4.40866 119.654 4.25539 119.923 4.18327 120.23C4.11115 120.537 4.12423 120.865 4.22047 121.162C4.41735 121.475 4.68214 121.715 4.98494 121.855C5.28773 121.994 5.61644 122.028 5.93394 121.951C6.34345 121.951 8.39101 121.53 8.81129 121.49C10.7304 121.272 12.663 121.303 14.5767 121.583C12.653 121.448 10.7233 121.528 8.81129 121.819C8.40178 121.819 6.39733 122.253 5.96626 122.306C5.60399 122.389 5.23016 122.352 4.88344 122.199C4.53673 122.047 4.22975 121.784 3.99417 121.438C3.50917 121.561 3.05491 121.822 2.66864 122.201C2.35816 122.491 2.09806 122.853 1.90351 123.266C1.80601 123.461 1.7423 123.679 1.71635 123.905C1.6904 124.131 1.70275 124.362 1.75263 124.582C1.85724 124.822 2.01208 125.024 2.20138 125.167C2.39067 125.31 2.60765 125.39 2.83028 125.398C3.33079 125.482 3.83849 125.482 4.33899 125.398C5.35845 125.138 6.39225 124.971 7.43189 124.898C8.47638 124.825 9.52336 124.825 10.5678 124.898L13.6823 125.148L10.5571 125.016C9.52072 125.001 8.48447 125.058 7.45343 125.187C6.41853 125.307 5.39207 125.518 4.38211 125.819C3.85713 125.944 3.32076 125.984 2.78717 125.937C2.55227 125.925 2.3217 125.856 2.1089 125.734C1.89609 125.612 1.70535 125.44 1.54787 125.227C1.2066 125.414 0.881676 125.644 0.577984 125.911C-0.0362797 126.371 0.276241 127.41 0.847399 127.937C1.38792 128.504 2.08617 128.796 2.79795 128.752C3.53076 128.752 4.36057 128.752 5.20114 128.621C6.66675 128.621 6.97927 128.502 8.43411 128.621C9.88894 128.739 11.3761 128.765 12.8202 128.989C11.3653 128.844 9.89972 128.844 8.43411 128.844C6.96849 128.844 6.67753 128.844 5.20114 129.055C4.62858 129.247 4.08601 129.554 3.59541 129.963C3.35832 130.186 3.1536 130.462 3.18593 130.765C3.23038 131.114 3.34518 131.444 3.52 131.725C4.28513 132.909 5.51364 132.62 6.69906 132.383C7.60815 132.212 8.52732 132.133 9.44711 132.146C10.7071 132.067 11.9696 132.067 13.2297 132.146C12.0128 132.068 10.7936 132.063 9.57642 132.133Z" fill="#9A4A4D"/>
<path d="M27.2605 123.424C24.7711 125.227 20.7946 123.24 18.6393 120.951C20.6868 124.582 23.8336 126.634 27.2605 123.424Z" fill="#9A4A4D"/>
<path d="M86.7581 59.2787C76.154 61.4493 74.3866 66.6852 70.4963 74.8546C66.6059 83.0241 58.933 100.166 58.933 100.166L47.9948 106.349C50.2674 108.382 51.9538 111.242 52.8119 114.518C53.48 117.838 53.6733 121.274 53.3831 124.674C53.3831 124.674 63.9441 122.819 67.5866 121.109C71.2291 119.399 73.2443 117.833 76.5635 112.387C79.8827 106.941 90.573 89.3782 90.573 89.3782L86.7581 59.2787Z" fill="#D6D6D6"/>
<path d="M113.301 56.174C116.426 56.9633 130.769 60.8309 135.102 63.1594C135.102 63.1594 136.6 81.9979 133.636 98.771C132.695 105.929 132.08 113.145 131.793 120.385C131.254 131.423 131.944 136.987 132.073 146.525C132.073 146.525 118.398 156.747 96.3599 154.721C79.042 153.129 76.2185 144.657 76.2185 144.657C76.3048 111.69 76.5849 106.388 77.1453 91.0225C77.9212 70.066 81.0572 63.2515 84.7859 59.6733L98.332 56.3844L113.301 56.174Z" fill="#D6D6D6"/>
<path d="M118.581 9.74875C118.522 7.95457 117.937 6.24608 116.932 4.93389C113.193 -0.196707 106.468 -0.420354 101.026 0.303192C96.7803 0.882028 90.7885 3.03951 88.2237 7.1966C86.0684 10.617 84.2041 15.5371 87.6741 19.76C88.6117 20.9045 88.2776 23.9434 89.9372 23.5224C91.9093 23.0357 93.8275 22.5752 95.8428 22.2069L105.078 20.7598C107.988 20.3009 110.7 18.7147 112.816 16.2343C112.816 16.2343 118.581 9.7619 118.581 9.74875Z" fill="#37474F"/>
<path d="M118.581 9.7489C118.581 9.7489 121.362 10.0909 122.623 14.498C123.981 19.2734 123.237 23.1542 121.157 30.7449C119.282 37.5594 118.323 40.9929 117.601 43.0057C117.103 44.2512 116.236 45.2198 115.176 45.7157L114.81 37.4541L114.68 31.6789C114.68 31.6789 110.51 27.8638 109.906 23.7857C109.12 18.5235 111.167 15.6425 111.167 15.6425L118.581 9.7489Z" fill="#455A64"/>
<path d="M121.308 39.243C120.932 39.6623 120.486 39.9775 120.001 40.167C119.516 40.3565 119.003 40.4157 118.497 40.3408C117.992 40.2658 117.505 40.0584 117.072 39.7327C116.638 39.407 116.267 38.9707 115.984 38.4536L117.169 55.8451C114.13 61.5808 104.949 59.7917 103.16 65.5932C102.567 61.2651 98.4182 61.1335 98.7846 56.0424L98.5368 52.1747C97.4928 52.266 96.4448 52.266 95.4008 52.1747C92.1678 51.8984 89.3336 50.3198 88.1159 46.3206C87.3972 43.6081 86.9839 40.789 86.8873 37.9406C86.7903 32.81 87.0059 29.7185 87.1352 26.5349C87.243 23.9827 86.7041 21.6674 87.0166 19.01C87.2645 16.9841 87.8357 14.7345 89.312 13.7479C92.9869 11.1168 96.7263 14.011 102.244 15.958C104.518 16.7604 109.885 16.6815 111.242 15.7606C109.54 18.3917 110.068 26.0744 113.01 28.916C113.406 29.688 113.918 30.3619 114.518 30.9025C115.758 31.9944 116.512 28.7845 117.407 27.4821C117.853 26.9621 118.389 26.5723 118.977 26.3418C119.564 26.1113 120.186 26.0461 120.797 26.1512C121.408 26.2562 121.991 26.5288 122.503 26.9484C123.015 27.368 123.443 27.9238 123.754 28.574C125.554 32.3627 124.174 36.4409 121.308 39.243Z" fill="#B16668"/>
<path d="M98.4941 52.2275C102.013 52.0066 105.471 51.0267 108.71 49.3333C111.092 47.8467 113.021 43.6765 113.473 39.6772C113.678 42.8345 112.881 48.5571 109.303 51.254C105.725 53.9508 101.382 54.5033 98.6557 54.8454L98.4941 52.2275Z" fill="#9A4A4D"/>
<path d="M102.32 21.3519L105.552 23.7725C105.812 23.239 105.89 22.6023 105.769 21.9996C105.648 21.3968 105.338 20.876 104.906 20.5494C104.475 20.2403 103.962 20.1512 103.478 20.3015C102.993 20.4517 102.577 20.8292 102.32 21.3519Z" fill="#37474F"/>
<path d="M89.2257 22.97L92.6958 20.9177C92.5908 20.6403 92.4413 20.3915 92.2562 20.1857C92.0712 19.98 91.8542 19.8215 91.6182 19.7198C91.3822 19.618 91.1318 19.575 90.882 19.5932C90.6321 19.6114 90.3877 19.6905 90.1633 19.8258C89.7017 20.0967 89.3451 20.5772 89.1699 21.1648C88.9947 21.7523 89.0148 22.4002 89.2257 22.97Z" fill="#37474F"/>
<path d="M104.001 26.8639C104.012 27.3641 103.861 27.8497 103.581 28.2145C103.3 28.5793 102.912 28.7937 102.503 28.8109C102.294 28.8406 102.083 28.8176 101.882 28.7433C101.681 28.669 101.494 28.5449 101.334 28.3789C101.174 28.2129 101.044 28.0085 100.951 27.7783C100.859 27.5482 100.806 27.2972 100.797 27.0411C100.787 26.785 100.821 26.5292 100.895 26.2897C100.97 26.0502 101.085 25.832 101.232 25.6488C101.378 25.4655 101.555 25.3212 101.749 25.2247C101.944 25.1282 102.153 25.0816 102.363 25.0879C102.772 25.0626 103.173 25.2346 103.479 25.5668C103.786 25.8989 103.973 26.3648 104.001 26.8639Z" fill="#263238"/>
<path d="M92.6959 26.864C92.7075 27.3642 92.5565 27.8498 92.2759 28.2146C91.9952 28.5794 91.6077 28.7938 91.198 28.811C90.9955 28.8252 90.7927 28.7905 90.6013 28.7089C90.4099 28.6272 90.2335 28.5003 90.0823 28.3353C89.9312 28.1703 89.8082 27.9705 89.7204 27.7474C89.6326 27.5243 89.5817 27.2822 89.5707 27.035C89.5521 26.5291 89.6989 26.0349 89.9788 25.6611C90.2588 25.2874 90.6488 25.0646 91.0632 25.042C91.4777 25.0193 91.8825 25.1985 92.1887 25.5402C92.4949 25.8819 92.6773 26.3581 92.6959 26.864Z" fill="#263238"/>
<path d="M97.6426 24.1538L96.899 35.9936L91.5107 34.0466C92.9191 30.2279 95.0151 26.8464 97.6426 24.1538Z" fill="#9A4A4D"/>
<path d="M101.059 38.046L94.6897 39.4931C94.8396 40.5216 95.3173 41.4357 96.0183 42.0349C96.7193 42.6341 97.5862 42.8697 98.4292 42.6899C98.8539 42.6014 99.2598 42.4101 99.6231 42.1274C99.9864 41.8447 100.3 41.4762 100.545 41.0436C100.79 40.611 100.961 40.1229 101.05 39.6082C101.138 39.0934 101.141 38.5623 101.059 38.046Z" fill="#9A4A4D"/>
<path d="M100.272 39.2562C100.533 39.2229 100.797 39.2229 101.059 39.2562C100.973 40.09 100.672 40.8688 100.199 41.4792C99.7265 42.0897 99.1063 42.5 98.4291 42.6503C98.0723 42.7215 97.7083 42.7215 97.3515 42.6503C97.3822 41.7325 97.7041 40.8653 98.2491 40.2319C98.7941 39.5985 99.5195 39.2486 100.272 39.2562Z" fill="#F28F8F"/>
<path d="M98.7631 67.4087C97.5688 65.967 96.7321 64.143 96.3492 62.1466C96.1229 59.9233 99.1942 59.5155 99.1942 59.5155L100.854 63.3174L98.7631 67.4087Z" fill="#263238"/>
<path d="M99.6251 71.8553C96.3921 80.7221 94.5709 105.099 94.5709 105.099L98.6121 121.149L105.337 106.914C105.337 106.914 103.451 83.2348 103.451 72.5657L99.6251 71.8553Z" fill="#263238"/>
<path d="M100.854 63.3174C101.806 63.9974 102.898 64.3264 104 64.2646L105.434 67.8955L103.429 72.5656C103.429 72.5656 100.595 72.7892 99.625 71.8552L98.7629 67.4087C98.7629 67.4087 99.8621 64.1856 100.854 63.3174Z" fill="#37474F"/>
<path d="M104 64.2646L109.852 60.5942L112.622 64.3435L105.401 67.8955C104.97 67.4461 104.622 66.8899 104.381 66.2639C104.139 65.638 104.01 64.9564 104 64.2646Z" fill="#263238"/>
<path d="M119.928 58.1341C119.928 58.1341 118.506 63.5936 108.408 69.9739C107.083 67.5928 105.854 63.7383 103.958 64.2645C103.536 64.3196 103.11 64.2884 102.697 64.1724C102.997 63.359 103.422 62.6224 103.947 62.0018C105.132 60.6862 110.283 59.5154 113.344 56.9896C114.714 56.0056 115.96 54.7824 117.04 53.3587L116.911 51.7932C117.73 51.8458 119.002 55.4504 119.928 58.1341Z" fill="#BEBEBE"/>
<path d="M101.91 63.8963C101.569 63.7475 101.237 63.5672 100.918 63.357C99.4421 62.3966 97.2868 64.4226 95.9828 67.1852C94.4544 64.2366 93.832 60.722 94.2262 57.266C94.2262 57.266 95.4009 55.5953 96.3815 54.4508C97.003 53.7389 97.7898 53.2794 98.6338 53.1353L98.817 56.0557C98.8129 57.3742 99.1694 58.6567 99.83 59.6998C100.86 60.805 101.586 62.2701 101.91 63.8963Z" fill="#BEBEBE"/>
<path d="M75.4534 113.44C75.8737 96.7717 77.1022 88.1023 79.2683 79.4461C81.2156 71.8724 84.3892 64.8534 88.6008 58.8053L94.1076 57.3845C90.7787 63.8868 88.3127 70.9907 86.8011 78.4331L115.079 81.0642L120.467 58.2396L126.437 59.884C123.084 75.1104 121.275 90.7816 121.049 106.546C121.049 109.269 121.114 112.15 121.275 115.176C122.622 125.306 131.782 121.07 131.782 121.07L131.567 130.068C130.311 131.561 128.677 132.489 126.933 132.699C125.446 137.04 126.567 156.076 127.202 168.376C127.838 180.677 128.625 195.121 129.918 204.054C90.1203 213.263 74.4511 200.541 74.4511 200.541C74.4511 200.541 74.4512 171.336 74.796 148.025C75.1732 126.332 75.2379 121.556 75.4534 113.44Z" fill="#455A64"/>
<path d="M119.971 153.524C119.971 153.524 93.8922 155.221 78.7619 153.524L77.9859 186.097C77.9859 186.097 94.0754 192.109 121.189 187.307L119.971 153.524Z" fill="#37474F"/>
<path d="M109.303 188.82H108.57L107.32 153.958H108.053L109.303 188.82Z" fill="#263238"/>
<path d="M125.759 199.12C119.263 200.618 112.678 201.462 106.07 201.646C91.4137 201.804 82.0596 199.752 77.986 197.7L78.3201 196.687C83.9563 199.515 106.016 202.435 125.597 198.002L125.759 199.12ZM117.353 91.1147L105.8 89.957L106.188 84.4976L117.698 85.55L117.353 91.1147Z" fill="#37474F"/>
<path d="M101.651 104.257C101.856 105.225 102.115 106.174 102.427 107.099C102.538 107.463 102.752 107.766 103.031 107.954C104.044 108.506 105.035 110.269 105.606 112.782C106.479 116.636 106.037 120.82 104.615 122.122C104.372 122.349 104.079 122.482 103.774 122.504L102.503 122.583C101.252 122.648 99.8839 120.701 99.1726 117.57C98.3751 114.084 98.6554 110.348 99.7653 108.69L99.8515 108.572C99.9837 108.359 100.07 108.109 100.102 107.844C100.134 107.58 100.111 107.31 100.035 107.059L99.6468 105.481L100.369 104.336L101.651 104.257ZM103.02 120.307C103.893 119.333 104.098 116.36 103.494 113.611C103.314 112.755 103.027 111.938 102.643 111.19C102.422 110.724 102.116 110.328 101.748 110.032C100.875 111.006 100.671 113.979 101.274 116.728C101.458 117.582 101.745 118.398 102.125 119.149C102.352 119.609 102.657 120.004 103.02 120.307Z" fill="#423881"/>
<path opacity="0.4" d="M101.651 104.257C101.856 105.225 102.115 106.174 102.427 107.099C102.538 107.463 102.752 107.766 103.031 107.954C104.044 108.506 105.035 110.269 105.606 112.782C106.479 116.636 106.037 120.82 104.615 122.122C104.372 122.349 104.079 122.482 103.774 122.504L102.503 122.583C101.252 122.648 99.8839 120.701 99.1726 117.57C98.3751 114.084 98.6554 110.348 99.7653 108.69L99.8515 108.572C99.9837 108.359 100.07 108.109 100.102 107.844C100.134 107.58 100.111 107.31 100.035 107.059L99.6468 105.481L100.369 104.336L101.651 104.257ZM103.02 120.307C103.893 119.333 104.098 116.36 103.494 113.611C103.314 112.755 103.027 111.938 102.643 111.19C102.422 110.724 102.116 110.328 101.748 110.032C100.875 111.006 100.671 113.979 101.274 116.728C101.458 117.582 101.745 118.398 102.125 119.149C102.352 119.609 102.657 120.004 103.02 120.307Z" fill="black"/>
<path d="M102.427 107.099C102.538 107.463 102.752 107.766 103.031 107.954C104.044 108.506 105.035 110.269 105.606 112.782C106.479 116.636 106.037 120.82 104.615 122.122C103.192 123.424 101.328 121.346 100.444 117.491C99.6576 114.018 99.9378 110.269 101.048 108.612L101.134 108.493C101.266 108.28 101.352 108.03 101.384 107.765C101.416 107.501 101.393 107.231 101.317 106.98L100.918 105.402L101.651 104.257C101.856 105.225 102.115 106.174 102.427 107.099ZM101.845 109.94C100.897 110.795 100.638 113.887 101.274 116.728C101.458 117.582 101.745 118.398 102.125 119.149C102.804 120.464 103.602 120.885 104.205 120.333C105.154 119.465 105.423 116.386 104.776 113.532C104.597 112.676 104.31 111.859 103.925 111.111C103.246 109.835 102.449 109.375 101.845 109.94Z" fill="#423881"/>
<path d="M100.918 105.402L101.317 106.98C101.393 107.231 101.416 107.501 101.384 107.765C101.352 108.03 101.266 108.28 101.134 108.493C101.107 108.539 101.074 108.579 101.037 108.612C99.9591 110.269 99.6574 114.018 100.455 117.491C101.155 120.596 102.502 122.543 103.742 122.504L102.502 122.583C101.252 122.661 99.8837 120.701 99.1724 117.57C98.3749 114.097 98.6552 110.348 99.7651 108.69L99.8513 108.572C99.9835 108.359 100.07 108.109 100.102 107.844C100.134 107.58 100.111 107.31 100.035 107.059L99.6466 105.481L100.369 104.336L101.651 104.257L100.918 105.402Z" fill="#423881"/>
<path opacity="0.2" d="M100.918 105.402L101.317 106.98C101.393 107.231 101.416 107.501 101.384 107.765C101.352 108.03 101.266 108.28 101.134 108.493C101.107 108.539 101.074 108.579 101.037 108.612C99.9591 110.269 99.6574 114.018 100.455 117.491C101.155 120.596 102.502 122.543 103.742 122.504L102.502 122.583C101.252 122.661 99.8837 120.701 99.1724 117.57C98.3749 114.097 98.6552 110.348 99.7651 108.69L99.8513 108.572C99.9835 108.359 100.07 108.109 100.102 107.844C100.134 107.58 100.111 107.31 100.035 107.059L99.6466 105.481L100.369 104.336L101.651 104.257L100.918 105.402Z" fill="black"/>
<path opacity="0.2" d="M100.918 105.402L99.6467 105.481L100.369 104.336L101.651 104.257L100.918 105.402Z" fill="black"/>
<path d="M89.9909 69.0137H90.8854C91.8876 69.0137 92.933 70.4739 94.5387 74.8678C97.1166 82.5039 99.3578 90.3031 101.252 98.2318C100.8 100.234 100.853 102.357 101.403 104.323L100.681 105.467H99.776C99.776 105.467 91.7152 76.7753 89.9909 69.0137Z" fill="#423881"/>
<path opacity="0.4" d="M89.9909 69.0137H90.8854C91.8876 69.0137 92.933 70.4739 94.5387 74.8678C97.1166 82.5039 99.3578 90.3031 101.252 98.2318C100.8 100.234 100.853 102.357 101.403 104.323L100.681 105.467H99.776C99.776 105.467 91.7152 76.7753 89.9909 69.0137Z" fill="white"/>
<path d="M101.457 104.27C100.907 102.304 100.854 100.182 101.306 98.1791C99.4117 90.2504 97.1706 82.4513 94.5926 74.8152C92.9869 70.4213 91.9416 68.9216 90.9393 68.9611C92.6097 76.7228 100.735 105.415 100.735 105.415L101.457 104.27Z" fill="#423881"/>
<path opacity="0.7" d="M101.457 104.27C100.907 102.304 100.854 100.182 101.306 98.1791C99.4117 90.2504 97.1706 82.4513 94.5926 74.8152C92.9869 70.4213 91.9416 68.9216 90.9393 68.9611C92.6097 76.7228 100.735 105.415 100.735 105.415L101.457 104.27Z" fill="white"/>
<path opacity="0.1" d="M101.285 98.0871C101.058 97.1662 100.821 96.1927 100.573 95.2061L98.2025 96.3769C98.6659 98.0608 99.097 99.5868 99.4634 100.889H100.541C100.571 100.737 100.629 100.594 100.709 100.472C100.789 100.349 100.89 100.249 101.004 100.179C101.004 99.4879 101.102 98.8023 101.295 98.1529L101.285 98.0871Z" fill="black"/>
<path d="M107.46 95.2982C108.361 95.3569 109.211 95.8264 109.841 96.6138C110.969 97.9244 111.865 99.5025 112.475 101.251C113.084 103 113.395 104.882 113.387 106.783C113.322 109.414 112.579 110.585 111.533 110.664L110.251 110.743C109.259 110.808 107.999 109.874 106.802 108.283C105.786 106.939 104.976 105.384 104.41 103.691C104.244 103.148 103.995 102.648 103.677 102.218L102.082 100.218L102.535 98.5607L103.817 98.4818H103.882V98.3766C104.27 96.548 105.067 95.4429 106.145 95.3771L107.46 95.2982ZM106.037 99.1659C105.899 101.131 106.368 103.088 107.352 104.652C107.7 105.317 108.097 105.942 108.537 106.52C109.127 107.368 109.863 108.047 110.693 108.506C110.876 108.322 111.124 107.927 111.156 106.599C111.114 104.395 110.569 102.249 109.583 100.402C109.199 99.6477 108.723 98.969 108.171 98.3897C107.801 97.9864 107.374 97.6697 106.91 97.4557C106.449 97.8667 106.136 98.4795 106.037 99.1659Z" fill="#423881"/>
<path opacity="0.2" d="M107.46 95.2982C108.361 95.3569 109.211 95.8264 109.841 96.6138C110.969 97.9244 111.865 99.5025 112.475 101.251C113.084 103 113.395 104.882 113.387 106.783C113.322 109.414 112.579 110.585 111.533 110.664L110.251 110.743C109.259 110.808 107.999 109.874 106.802 108.283C105.786 106.939 104.976 105.384 104.41 103.691C104.244 103.148 103.995 102.648 103.677 102.218L102.082 100.218L102.535 98.5607L103.817 98.4818H103.882V98.3766C104.27 96.548 105.067 95.4429 106.145 95.3771L107.46 95.2982ZM106.037 99.1659C105.899 101.131 106.368 103.088 107.352 104.652C107.7 105.317 108.097 105.942 108.537 106.52C109.127 107.368 109.863 108.047 110.693 108.506C110.876 108.322 111.124 107.927 111.156 106.599C111.114 104.395 110.569 102.249 109.583 100.402C109.199 99.6477 108.723 98.969 108.171 98.3897C107.801 97.9864 107.374 97.6697 106.91 97.4557C106.449 97.8667 106.136 98.4795 106.037 99.1659Z" fill="black"/>
<path opacity="0.2" d="M103.354 100.087L102.071 100.166L102.535 98.508L103.817 98.4291L103.354 100.087Z" fill="black"/>
<path d="M105.197 98.2712C105.046 98.9947 104.636 99.2973 104.291 98.9158L103.882 98.4553V98.3501C104.27 96.5215 105.067 95.4164 106.145 95.3507L107.417 95.2717C106.371 95.3638 105.574 96.482 105.197 98.2712ZM112.471 106.48C112.471 107.796 112.191 108.203 112.007 108.388C111.818 108.542 111.598 108.631 111.371 108.648C111.144 108.664 110.917 108.606 110.714 108.48C110.897 108.296 111.145 107.901 111.178 106.572C111.139 104.37 110.598 102.224 109.615 100.376C109.224 99.6236 108.745 98.9455 108.192 98.3632C107.823 97.9599 107.395 97.6432 106.932 97.4292L107.136 97.324C107.559 97.2219 107.997 97.2569 108.405 97.4254C108.813 97.5938 109.179 97.89 109.464 98.2843C110.019 98.863 110.499 99.5417 110.887 100.297C111.879 102.146 112.428 104.297 112.471 106.506V106.48Z" fill="#423881"/>
<path opacity="0.4" d="M105.197 98.2712C105.046 98.9947 104.636 99.2973 104.291 98.9158L103.882 98.4553V98.3501C104.27 96.5215 105.067 95.4164 106.145 95.3507L107.417 95.2717C106.371 95.3638 105.574 96.482 105.197 98.2712ZM112.471 106.48C112.471 107.796 112.191 108.203 112.007 108.388C111.818 108.542 111.598 108.631 111.371 108.648C111.144 108.664 110.917 108.606 110.714 108.48C110.897 108.296 111.145 107.901 111.178 106.572C111.139 104.37 110.598 102.224 109.615 100.376C109.224 99.6236 108.745 98.9455 108.192 98.3632C107.823 97.9599 107.395 97.6432 106.932 97.4292L107.136 97.324C107.559 97.2219 107.997 97.2569 108.405 97.4254C108.813 97.5938 109.179 97.89 109.464 98.2843C110.019 98.863 110.499 99.5417 110.887 100.297C111.879 102.146 112.428 104.297 112.471 106.506V106.48Z" fill="black"/>
<path d="M108.074 108.151C107.061 106.807 106.255 105.252 105.692 103.56C105.53 103.016 105.277 102.518 104.949 102.1L103.354 100.1L103.817 98.4292L104.291 98.9554C104.636 99.3369 105.046 99.0343 105.197 98.3108C105.822 95.3114 107.578 94.2458 109.841 96.5743C110.969 97.8849 111.865 99.463 112.475 101.212C113.084 102.96 113.395 104.843 113.387 106.743C113.247 111.887 110.553 111.427 108.074 108.151ZM112.471 106.507C112.429 104.303 111.884 102.157 110.897 100.31C110.51 99.5551 110.03 98.8763 109.475 98.2976C109.189 97.9033 108.824 97.6072 108.416 97.4387C108.008 97.2702 107.57 97.2352 107.147 97.3373C106.859 97.5117 106.61 97.7695 106.422 98.0882C106.235 98.407 106.113 98.7769 106.07 99.1659C105.931 101.131 106.4 103.088 107.384 104.652C107.733 105.317 108.129 105.942 108.57 106.52C109.928 108.335 111.361 109.151 112.029 108.414C112.191 108.23 112.438 107.835 112.471 106.507Z" fill="#295F2B"/>
<path d="M86.305 78.5382C89.8397 81.7876 102.556 97.1399 103.666 98.4818L103.213 100.126H102.319C101.925 99.7232 101.46 99.4353 100.961 99.2842C100.714 99.4045 100.495 99.5991 100.325 99.8499H99.4308C95.3815 95.6736 91.6386 91.0737 88.2448 86.1025C86.0894 82.7874 85.3997 80.6036 85.3997 78.4856L86.305 78.5382Z" fill="#423881"/>
<path opacity="0.4" d="M86.305 78.5382C89.8397 81.7876 102.556 97.1399 103.666 98.4818L103.213 100.126H102.319C101.925 99.7232 101.46 99.4353 100.961 99.2842C100.714 99.4045 100.495 99.5991 100.325 99.8499H99.4308C95.3815 95.6736 91.6386 91.0737 88.2448 86.1025C86.0894 82.7874 85.3997 80.6036 85.3997 78.4856L86.305 78.5382Z" fill="white"/>
<path d="M103.666 98.429L103.213 100.073C102.136 98.9947 101.058 98.7579 100.325 99.8498C96.2785 95.6701 92.5358 91.0705 89.1392 86.1024C87.1563 82.9846 86.3912 80.8403 86.305 78.867V78.5381C89.8397 81.7875 102.556 97.1398 103.666 98.4816V98.429Z" fill="#423881"/>
<g opacity="0.8">
<path d="M103.666 98.429L103.213 100.073C102.136 98.9947 101.058 98.7579 100.325 99.8498C96.2785 95.6701 92.5358 91.0705 89.1392 86.1024C87.1563 82.9846 86.3912 80.8403 86.305 78.867V78.5381C89.8397 81.7875 102.556 97.1398 103.666 98.4816V98.429Z" fill="white"/>
</g>
<path opacity="0.2" d="M86.3053 78.5381V78.9196C86.3701 80.0957 86.6344 81.2425 87.0812 82.2874C86.4562 79.9063 86.8873 79.7221 88.9025 81.998C90.9177 84.2738 102.481 96.9556 102.481 96.9556C99.0109 92.8248 89.3228 81.2612 86.3053 78.5381Z" fill="#423881"/>
<path d="M99.6899 95.4297C99.7588 95.4376 99.8252 95.4656 99.8833 95.5114C99.9414 95.5572 99.9897 95.6194 100.024 95.6928C100.122 95.9012 100.178 96.1353 100.188 96.3755C100.197 96.6157 100.159 96.8552 100.078 97.0741C100.053 97.1544 100.011 97.2249 99.9559 97.2782C99.9009 97.3315 99.835 97.3655 99.7654 97.3767H99.4528C99.3826 97.3752 99.3141 97.3497 99.2551 97.3032C99.1961 97.2567 99.1489 97.1911 99.1188 97.1136C99.0268 96.9144 98.974 96.6919 98.9647 96.4636C98.9553 96.2352 98.9897 96.0074 99.0649 95.798C99.0875 95.7161 99.129 95.644 99.1844 95.5903C99.2399 95.5366 99.3069 95.5037 99.3774 95.4955L99.6899 95.4297Z" fill="#263238"/>
<path d="M99.4526 97.1135C99.3653 96.8989 99.3198 96.6625 99.3198 96.4229C99.3198 96.1833 99.3653 95.9469 99.4526 95.7322C99.4771 95.6517 99.5212 95.5822 99.579 95.5331C99.6368 95.4841 99.7055 95.4578 99.7759 95.4578C99.8463 95.4578 99.915 95.4841 99.9728 95.5331C100.031 95.5822 100.075 95.6517 100.099 95.7322C100.197 95.9407 100.254 96.1747 100.263 96.4149C100.272 96.6552 100.235 96.8947 100.153 97.1135C99.9376 97.4687 99.6897 97.4819 99.4526 97.1135Z" fill="#37474F"/>
<path d="M103.139 102.678C101.641 101.955 98.2675 100.745 96.8989 99.6526C95.1208 98.2187 95.3794 95.706 96.6834 95.8902C98.7201 96.1796 104.162 98.0214 105.682 98.2976C107.201 98.5739 108.915 99.4553 112.363 101.85L107.826 107.112C107.826 107.112 104.647 103.402 103.139 102.678Z" fill="#9A4A4D"/>
<path d="M120.887 128.187C131.664 132.686 141.535 139.106 151.256 138.645C160.728 138.198 163.034 134.238 160.06 120.557C158.185 111.94 151.148 86.7736 147.635 78.1042C143.906 68.8954 140.091 65.0541 130.662 63.6333C127.741 70.6583 128.765 88.0365 131.438 95.8376C133.938 103.126 137.225 112.94 137.225 112.94C137.225 112.94 125.122 110.743 122.137 109.624C119.152 108.506 115.995 104.81 114.023 102.599C112.05 100.389 108.57 101.994 107.266 102.442C102.955 103.902 102.147 104.862 101.295 105.717C101.047 105.989 100.858 106.332 100.747 106.716C100.636 107.1 100.606 107.512 100.66 107.914C99.5174 108.269 97.7823 108.493 97.8039 110.835C97.7723 111.466 97.8122 112.099 97.9224 112.716C97.634 112.816 97.3852 113.04 97.222 113.347C96.4029 114.86 98.5367 119.32 99.7006 120.307C100.194 120.628 100.74 120.812 101.299 120.846C101.858 120.88 102.416 120.763 102.934 120.504C104.087 120.122 103.397 118.754 103.397 118.754L105.046 118.623C108.904 121.149 109.831 125.99 114.648 126.621C116.78 126.758 118.884 127.285 120.887 128.187Z" fill="#B16668"/>
<path d="M156.676 105.77C156.676 105.77 150.663 84.0897 147.322 75.8545C143.982 67.6192 142.322 64.6198 130.08 61.3835C127.731 64.4356 126.965 84.2739 129.53 92.3644C132.095 100.455 136.847 112.637 136.847 112.637L125.586 110.742C125.586 110.742 129.002 114.255 128.302 121.267C127.601 128.279 124.196 130.305 124.196 130.305C124.196 130.305 135.878 136.172 140.415 137.527C144.951 138.882 153.756 140.605 158.358 137.211C162.959 133.817 161.86 128.818 161.235 124.714C160.61 120.609 156.676 105.77 156.676 105.77Z" fill="#D6D6D6"/>
<path d="M100.692 107.125L105.714 105.954L100.671 108.019C100.636 107.722 100.643 107.419 100.692 107.125ZM97.8367 111.966L103.796 110.966L97.9337 112.808C97.881 112.531 97.8486 112.249 97.8367 111.966ZM100.768 116.597C101.467 116.59 102.165 116.538 102.859 116.439C102.859 116.439 102.956 116.952 103.742 117.754C104.15 118.117 104.575 118.45 105.014 118.754L103.365 118.886C102.883 118.303 102.233 117.972 101.555 117.965C101.275 117.949 101 118.057 100.779 118.267C100.545 118.502 100.363 118.805 100.251 119.149C100.299 118.761 100.446 118.402 100.671 118.123C100.832 117.925 101.039 117.792 101.264 117.741L100.822 116.899C100.506 116.861 100.195 116.777 99.895 116.649C99.5473 116.515 99.2374 116.264 99.0005 115.926C99.2776 116.186 99.5974 116.37 99.9381 116.465C100.251 116.504 100.531 116.557 100.768 116.597Z" fill="#9A4A4D"/>
<path opacity="0.1" d="M147.937 119.32C146.611 116.623 141.298 113.229 136.891 112.545L135.953 110.124C143.723 111.427 146.676 114.965 147.937 119.32Z" fill="black"/>
<path d="M94.7761 315.126L85.1729 315.043C85.1729 315.043 83.2391 313.822 82.0977 313.973C80.9601 314.125 77 314.97 77 314.97L51.499 314.746C51.7108 313.501 51.9698 312.394 52.263 311.412C52.6201 310.215 53.0327 309.202 53.489 308.347C55.0887 305.354 57.2509 304.303 59.5964 304.151C63.1688 303.921 74.4626 295.275 74.4626 295.275C74.4626 295.275 78.5497 293.649 78.8036 288.59C78.8999 286.694 81.3168 284.399 82.4613 284.219C84.7959 283.846 86.0816 285.58 86.4034 288.301L86.7743 291.462L92.1669 290.531C92.1669 290.531 97.6672 287.363 97.3811 290.485C97.2173 292.267 96.2449 300.198 95.6268 306.492C95.4816 307.959 95.3465 309.347 95.2277 310.565L95.2251 310.566C94.9604 313.269 94.7761 315.126 94.7761 315.126Z" fill="#263238"/>
<path d="M51.4997 314.746L77.0004 314.969C77.0004 314.969 80.9608 314.125 82.0983 313.973C83.2396 313.822 85.1732 315.043 85.1732 315.043L94.7767 315.127C94.7767 315.127 94.9609 313.269 95.2256 310.566L52.2635 311.412C51.9703 312.394 51.7113 313.501 51.4997 314.746Z" fill="#808080"/>
<path d="M68.847 298.471C68.9661 298.337 69.1485 298.324 69.2857 298.432C69.9144 298.928 70.4409 299.624 70.7965 300.494C70.9837 300.953 70.4089 301.389 70.2197 300.926C69.9039 300.152 69.4434 299.537 68.8943 299.102C68.7108 298.958 68.682 298.657 68.8417 298.477L68.847 298.471Z" fill="#96FFA0"/>
<path d="M70.8845 297.096C71.0037 296.962 71.1862 296.949 71.3232 297.057C71.9522 297.552 72.4787 298.248 72.8341 299.118C73.0214 299.577 72.4467 300.013 72.2575 299.55C71.9416 298.777 71.4812 298.161 70.9318 297.727C70.7482 297.582 70.7197 297.281 70.8795 297.101L70.8845 297.096Z" fill="#96FFA0"/>
<path d="M72.9853 295.813C73.1044 295.679 73.2868 295.666 73.424 295.775C74.053 296.27 74.5794 296.966 74.9348 297.836C75.1223 298.295 74.5475 298.731 74.3583 298.268C74.0425 297.494 73.5821 296.879 73.0327 296.445C72.8491 296.3 72.8206 295.999 72.9801 295.819L72.9853 295.813Z" fill="#96FFA0"/>
<path d="M111.695 314.982H140.305C140.305 314.982 140.929 313.581 140.215 309.851C140.107 309.27 139.965 308.631 139.78 307.935C139.77 307.9 139.764 307.866 139.754 307.831C139.486 306.799 139.179 305.529 138.852 304.159C137.542 298.574 136 291.277 136 291.277C136 291.277 131.04 282.913 125.471 285.881C120.585 288.483 120.321 291.587 120.321 291.587C120.321 291.587 121.466 296.784 117.762 300.641C115.472 303.024 113.194 304.868 112.098 307.831C111.893 308.385 111.732 308.974 111.616 309.613C111.603 309.69 111.59 309.771 111.58 309.851C111.352 311.28 111.365 312.954 111.695 314.982Z" fill="#263238"/>
<path d="M140.215 309.851C140.929 313.581 140.305 314.982 140.305 314.982H111.695C111.365 312.953 111.352 311.279 111.58 309.851H140.215Z" fill="#808080"/>
<path d="M123.096 294.282C124.705 292.82 126.816 293.01 128.264 294.656C128.653 295.098 129.25 294.403 128.861 293.959C127.054 291.905 124.475 291.79 122.499 293.586C122.071 293.975 122.672 294.667 123.096 294.282Z" fill="#96FFA0"/>
<path d="M122.289 297.398C123.898 295.936 126.009 296.125 127.457 297.772C127.846 298.214 128.443 297.519 128.054 297.075C126.247 295.021 123.668 294.906 121.692 296.701C121.264 297.09 121.865 297.783 122.289 297.398Z" fill="#96FFA0"/>
<path d="M121.478 300.262C123.087 298.8 125.198 298.99 126.645 300.636C127.034 301.078 127.632 300.383 127.242 299.94C125.436 297.885 122.857 297.771 120.881 299.566C120.452 299.955 121.054 300.647 121.478 300.262Z" fill="#96FFA0"/>
</svg>
