<svg width="509" height="509" viewBox="0 0 509 509" fill="none" xmlns="http://www.w3.org/2000/svg">
<path d="M242 7.21688C249.735 2.75106 259.265 2.75106 267 7.21688L462.403 120.033C470.138 124.499 474.903 132.752 474.903 141.684V367.316C474.903 376.248 470.138 384.501 462.403 388.967L267 501.783C259.265 506.249 249.735 506.249 242 501.783L46.5965 388.967C38.8615 384.501 34.0965 376.248 34.0965 367.316V141.684C34.0965 132.752 38.8615 124.499 46.5965 120.033L242 7.21688Z" fill="#60AB67"/>
<path d="M319.955 388.671C308.116 381.83 288.913 381.83 277.067 388.671C271.143 392.092 268.214 396.574 268.214 401.049C268.214 401.516 268.214 403.512 268.214 404.043C268.302 408.453 271.256 412.848 277.067 416.212C288.913 423.045 308.116 423.045 319.955 416.212C325.814 412.831 328.768 408.413 328.808 403.979C328.808 403.463 328.808 401.468 328.808 400.985C328.8 396.526 325.846 392.075 319.955 388.671Z" fill="#BDFFC3"/>
<path opacity="0.65" d="M319.955 388.671C308.116 381.83 288.913 381.83 277.067 388.671C271.143 392.092 268.214 396.574 268.214 401.049C268.214 401.516 268.214 403.512 268.214 404.043C268.302 408.453 271.256 412.848 277.067 416.212C288.913 423.045 308.116 423.045 319.955 416.212C325.814 412.831 328.768 408.413 328.808 403.979C328.808 403.463 328.808 401.468 328.808 400.985C328.8 396.526 325.846 392.075 319.955 388.671Z" fill="white"/>
<path d="M298.514 418.562C315.263 418.562 328.84 410.721 328.84 401.049C328.84 391.377 315.263 383.536 298.514 383.536C281.766 383.536 268.189 391.377 268.189 401.049C268.189 410.721 281.766 418.562 298.514 418.562Z" fill="#BDFFC3"/>
<path opacity="0.85" d="M298.514 418.562C315.263 418.562 328.84 410.721 328.84 401.049C328.84 391.377 315.263 383.536 298.514 383.536C281.766 383.536 268.189 391.377 268.189 401.049C268.189 410.721 281.766 418.562 298.514 418.562Z" fill="white"/>
<path d="M302.426 398.361V287.064H293.887V398.361C293.861 398.775 293.964 399.187 294.184 399.539C294.403 399.891 294.727 400.166 295.11 400.325C296.05 400.801 297.088 401.049 298.141 401.049C299.193 401.049 300.231 400.801 301.171 400.325C301.56 400.171 301.891 399.899 302.116 399.546C302.342 399.194 302.45 398.779 302.426 398.361Z" fill="#BDFFC3"/>
<path opacity="0.7" d="M302.426 398.361V287.064H293.887V398.361C293.861 398.775 293.964 399.187 294.184 399.539C294.403 399.891 294.727 400.166 295.11 400.325C296.05 400.801 297.088 401.049 298.141 401.049C299.193 401.049 300.231 400.801 301.171 400.325C301.56 400.171 301.891 399.899 302.116 399.546C302.342 399.194 302.45 398.779 302.426 398.361Z" fill="white"/>
<path d="M325.806 272.408C310.732 263.708 286.29 263.7 271.215 272.408C263.682 276.762 259.948 282.46 259.948 288.166V295.168C259.948 300.874 263.707 306.58 271.215 310.926C286.29 319.634 310.732 319.634 325.806 310.926C333.347 306.58 337.073 300.874 337.073 295.168V288.166C337.105 282.46 333.347 276.762 325.806 272.408Z" fill="#455A64"/>
<path d="M325.806 269.004C310.732 260.304 286.29 260.304 271.216 269.004C263.683 273.358 259.948 279.064 259.948 284.762V291.764C259.948 297.47 263.707 303.176 271.216 307.53C286.29 316.23 310.732 316.23 325.806 307.53C333.347 303.176 337.073 297.47 337.073 291.764V284.762C337.105 279.064 333.347 273.358 325.806 269.004Z" fill="#BDFFC3"/>
<path opacity="0.5" d="M298.515 307.047C319.832 307.047 337.113 297.07 337.113 284.762C337.113 272.454 319.832 262.477 298.515 262.477C277.197 262.477 259.916 272.454 259.916 284.762C259.916 297.07 277.197 307.047 298.515 307.047Z" fill="white"/>
<path d="M322.458 355.754C316.824 352.535 309.75 350.66 302.426 350.169V351.642C309.476 352.125 316.309 353.927 321.742 357.05C327.794 360.551 331.134 365.154 331.134 370.016C331.134 374.877 327.794 379.488 321.742 382.989C316.341 386.112 309.508 387.914 302.426 388.389C299.575 388.593 296.712 388.58 293.863 388.349C287.054 387.794 280.487 386.007 275.272 382.989C269.212 379.488 265.88 374.885 265.88 370.016C265.88 365.146 269.212 360.551 275.272 357.05C280.487 354.032 287.054 352.221 293.863 351.69V350.225C286.781 350.772 279.948 352.64 274.547 355.754C268.004 359.537 264.407 364.607 264.407 370.016C264.44 372.811 265.359 375.525 267.031 377.766C269.041 380.452 271.604 382.675 274.547 384.285C279.972 387.424 286.805 389.275 293.863 389.822C295.4 389.951 296.945 390.007 298.491 390.007C299.802 390.007 301.114 389.967 302.426 389.878C309.75 389.387 316.848 387.528 322.458 384.285C328.993 380.502 332.59 375.432 332.59 370.016C332.59 364.599 329.017 359.537 322.458 355.754Z" fill="#BDFFC3"/>
<path d="M415.206 219.138L411.294 221.391L323.441 170.632L327.344 168.37L415.206 219.138Z" fill="#BDFFC3"/>
<path opacity="0.2" d="M415.206 219.138L411.294 221.391L323.441 170.632L327.344 168.37L415.206 219.138Z" fill="black"/>
<path d="M314.636 176.233L420.067 237.117V148.137L314.636 87.2455V176.233ZM323.425 102.996L411.294 153.699V221.375L323.425 170.672V102.996Z" fill="#BDFFC3"/>
<path d="M323.425 170.672L327.328 168.411V105.241L323.425 102.987V170.672Z" fill="#BDFFC3"/>
<path opacity="0.4" d="M323.425 170.672L327.328 168.411V105.241L323.425 102.987V170.672Z" fill="black"/>
<path d="M314.636 87.2615L318.54 85L423.986 145.884L420.083 148.137L314.636 87.2615Z" fill="#BDFFC3"/>
<path opacity="0.2" d="M314.636 87.2615L318.54 85L423.986 145.884L420.083 148.137L314.636 87.2615Z" fill="black"/>
<path d="M423.986 145.884L420.083 148.137V237.117L423.986 234.864V145.884Z" fill="#BDFFC3"/>
<path opacity="0.4" d="M423.986 145.884L420.083 148.137V237.117L423.986 234.864V145.884Z" fill="black"/>
<path d="M416.606 157.979C419.158 155.427 419.158 151.289 416.606 148.737C414.054 146.185 409.916 146.185 407.364 148.737C404.812 151.289 404.812 155.427 407.364 157.979C409.916 160.531 414.054 160.531 416.606 157.979Z" fill="#BDFFC3"/>
<path d="M418.331 173.766C419.16 170.253 416.984 166.733 413.472 165.904C409.959 165.075 406.439 167.251 405.61 170.763C404.781 174.276 406.957 177.796 410.469 178.625C413.982 179.454 417.502 177.278 418.331 173.766Z" fill="#BDFFC3"/>
<path d="M416.608 195.814C419.16 193.262 419.16 189.124 416.608 186.572C414.055 184.02 409.918 184.02 407.366 186.572C404.813 189.124 404.813 193.262 407.366 195.814C409.918 198.366 414.055 198.366 416.608 195.814Z" fill="#BDFFC3"/>
<path d="M418.333 211.609C419.162 208.096 416.986 204.576 413.474 203.747C409.961 202.918 406.441 205.094 405.612 208.606C404.783 212.119 406.959 215.639 410.471 216.468C413.984 217.297 417.504 215.121 418.333 211.609Z" fill="#BDFFC3"/>
<path d="M416.605 233.574C419.157 231.022 419.157 226.884 416.605 224.332C414.053 221.78 409.915 221.78 407.363 224.332C404.811 226.884 404.811 231.022 407.363 233.574C409.915 236.126 414.053 236.126 416.605 233.574Z" fill="#BDFFC3"/>
<path d="M322.458 98.4915C323.287 94.9788 321.112 91.459 317.599 90.63C314.086 89.8009 310.567 91.9764 309.737 95.4891C308.908 99.0018 311.084 102.522 314.597 103.351C318.109 104.18 321.629 102.004 322.458 98.4915Z" fill="#BDFFC3"/>
<path d="M320.728 121.339C323.28 118.787 323.28 114.649 320.728 112.097C318.176 109.545 314.038 109.545 311.486 112.097C308.934 114.649 308.934 118.787 311.486 121.339C314.038 123.891 318.176 123.891 320.728 121.339Z" fill="#BDFFC3"/>
<path d="M322.458 137.942C323.287 134.429 321.111 130.909 317.599 130.08C314.086 129.251 310.566 131.427 309.737 134.939C308.908 138.452 311.084 141.972 314.596 142.801C318.109 143.63 321.629 141.454 322.458 137.942Z" fill="#BDFFC3"/>
<path d="M320.724 159.982C323.276 157.43 323.276 153.292 320.724 150.74C318.172 148.188 314.034 148.188 311.482 150.74C308.93 153.292 308.93 157.43 311.482 159.982C314.034 162.534 318.172 162.534 320.724 159.982Z" fill="#BDFFC3"/>
<path d="M320.734 178.825C323.287 176.273 323.287 172.135 320.734 169.583C318.182 167.031 314.045 167.031 311.492 169.583C308.94 172.135 308.94 176.273 311.492 178.825C314.045 181.377 318.182 181.377 320.734 178.825Z" fill="#BDFFC3"/>
<path d="M338.44 107.885C339.269 104.372 337.093 100.852 333.581 100.023C330.068 99.1943 326.548 101.37 325.719 104.882C324.89 108.395 327.066 111.915 330.578 112.744C334.091 113.573 337.611 111.398 338.44 107.885Z" fill="#BDFFC3"/>
<path d="M348.068 122.319C351.678 122.319 354.603 119.393 354.603 115.784C354.603 112.175 351.678 109.249 348.068 109.249C344.459 109.249 341.533 112.175 341.533 115.784C341.533 119.393 344.459 122.319 348.068 122.319Z" fill="#BDFFC3"/>
<path d="M366.547 131.216C369.882 129.835 371.465 126.012 370.084 122.677C368.703 119.343 364.88 117.759 361.546 119.14C358.211 120.522 356.628 124.344 358.009 127.679C359.39 131.013 363.213 132.597 366.547 131.216Z" fill="#BDFFC3"/>
<path d="M386.373 136.065C387.202 132.553 385.026 129.033 381.513 128.204C378.001 127.375 374.481 129.55 373.652 133.063C372.823 136.576 374.998 140.095 378.511 140.924C382.024 141.753 385.543 139.578 386.373 136.065Z" fill="#BDFFC3"/>
<path d="M400.621 148.582C403.173 146.03 403.173 141.893 400.621 139.34C398.069 136.788 393.931 136.788 391.379 139.34C388.827 141.893 388.827 146.03 391.379 148.582C393.931 151.134 398.069 151.134 400.621 148.582Z" fill="#BDFFC3"/>
<path d="M338.438 185.588C339.267 182.075 337.092 178.556 333.579 177.727C330.067 176.897 326.547 179.073 325.718 182.586C324.889 186.098 327.064 189.618 330.577 190.447C334.09 191.276 337.609 189.101 338.438 185.588Z" fill="#BDFFC3"/>
<path d="M352.687 198.111C355.239 195.559 355.239 191.421 352.687 188.869C350.135 186.317 345.997 186.317 343.445 188.869C340.893 191.421 340.893 195.559 343.445 198.111C345.997 200.663 350.135 200.663 352.687 198.111Z" fill="#BDFFC3"/>
<path d="M366.546 208.921C369.88 207.539 371.464 203.717 370.082 200.382C368.701 197.048 364.878 195.464 361.544 196.845C358.21 198.227 356.626 202.049 358.007 205.384C359.388 208.718 363.211 210.302 366.546 208.921Z" fill="#BDFFC3"/>
<path d="M384.654 216.897C387.206 214.345 387.206 210.207 384.654 207.655C382.102 205.103 377.964 205.103 375.412 207.655C372.86 210.207 372.86 214.345 375.412 216.897C377.964 219.449 382.102 219.449 384.654 216.897Z" fill="#BDFFC3"/>
<path d="M400.628 226.294C403.18 223.741 403.18 219.604 400.628 217.052C398.076 214.499 393.938 214.499 391.386 217.052C388.834 219.604 388.834 223.741 391.386 226.294C393.938 228.846 398.076 228.846 400.628 226.294Z" fill="#BDFFC3"/>
<g opacity="0.8">
<path d="M416.607 157.979C419.159 155.427 419.159 151.289 416.607 148.737C414.054 146.185 409.917 146.185 407.365 148.737C404.812 151.289 404.812 155.427 407.365 157.979C409.917 160.531 414.054 160.531 416.607 157.979Z" fill="white"/>
<path d="M418.331 173.766C419.16 170.253 416.985 166.733 413.472 165.904C409.959 165.075 406.439 167.251 405.61 170.763C404.781 174.276 406.957 177.796 410.469 178.625C413.982 179.454 417.502 177.278 418.331 173.766Z" fill="white"/>
<path d="M416.608 195.814C419.16 193.262 419.16 189.124 416.608 186.572C414.056 184.02 409.918 184.02 407.366 186.572C404.814 189.124 404.814 193.262 407.366 195.814C409.918 198.366 414.056 198.366 416.608 195.814Z" fill="white"/>
<path d="M418.333 211.609C419.162 208.096 416.986 204.576 413.474 203.747C409.961 202.918 406.441 205.094 405.612 208.606C404.783 212.119 406.959 215.639 410.471 216.468C413.984 217.297 417.504 215.121 418.333 211.609Z" fill="white"/>
<path d="M416.605 233.574C419.157 231.022 419.157 226.884 416.605 224.332C414.053 221.78 409.915 221.78 407.363 224.332C404.811 226.884 404.811 231.022 407.363 233.574C409.915 236.126 414.053 236.126 416.605 233.574Z" fill="white"/>
<path d="M322.458 98.4915C323.287 94.9788 321.112 91.4591 317.599 90.63C314.087 89.8009 310.567 91.9765 309.738 95.4892C308.909 99.0019 311.084 102.522 314.597 103.351C318.11 104.18 321.629 102.004 322.458 98.4915Z" fill="white"/>
<path d="M320.728 121.339C323.28 118.787 323.28 114.649 320.728 112.097C318.176 109.545 314.038 109.545 311.486 112.097C308.934 114.649 308.934 118.787 311.486 121.339C314.038 123.891 318.176 123.891 320.728 121.339Z" fill="white"/>
<path d="M322.458 137.942C323.287 134.429 321.112 130.909 317.599 130.08C314.086 129.251 310.566 131.427 309.737 134.939C308.908 138.452 311.084 141.972 314.596 142.801C318.109 143.63 321.629 141.454 322.458 137.942Z" fill="white"/>
<path d="M320.724 159.982C323.276 157.43 323.276 153.292 320.724 150.74C318.172 148.188 314.034 148.188 311.482 150.74C308.93 153.292 308.93 157.43 311.482 159.982C314.034 162.534 318.172 162.534 320.724 159.982Z" fill="white"/>
<path d="M320.735 178.825C323.287 176.273 323.287 172.135 320.735 169.583C318.183 167.031 314.045 167.031 311.493 169.583C308.941 172.135 308.941 176.273 311.493 178.825C314.045 181.377 318.183 181.377 320.735 178.825Z" fill="white"/>
<path d="M338.44 107.885C339.269 104.372 337.094 100.852 333.581 100.023C330.068 99.1943 326.549 101.37 325.72 104.882C324.89 108.395 327.066 111.915 330.579 112.744C334.091 113.573 337.611 111.398 338.44 107.885Z" fill="white"/>
<path d="M348.069 122.319C351.678 122.319 354.604 119.393 354.604 115.784C354.604 112.175 351.678 109.249 348.069 109.249C344.459 109.249 341.534 112.175 341.534 115.784C341.534 119.393 344.459 122.319 348.069 122.319Z" fill="white"/>
<path d="M366.548 131.216C369.882 129.835 371.465 126.012 370.084 122.677C368.703 119.343 364.88 117.759 361.546 119.14C358.211 120.522 356.628 124.344 358.009 127.679C359.39 131.013 363.213 132.597 366.548 131.216Z" fill="white"/>
<path d="M386.373 136.065C387.202 132.553 385.026 129.033 381.514 128.204C378.001 127.375 374.481 129.55 373.652 133.063C372.823 136.576 374.999 140.095 378.511 140.924C382.024 141.753 385.544 139.578 386.373 136.065Z" fill="white"/>
<path d="M400.622 148.582C403.174 146.03 403.174 141.893 400.622 139.34C398.069 136.788 393.932 136.788 391.38 139.34C388.828 141.893 388.828 146.03 391.38 148.582C393.932 151.134 398.069 151.134 400.622 148.582Z" fill="white"/>
<path d="M338.439 185.588C339.268 182.075 337.092 178.556 333.579 177.727C330.067 176.897 326.547 179.073 325.718 182.586C324.889 186.098 327.064 189.618 330.577 190.447C334.09 191.276 337.61 189.101 338.439 185.588Z" fill="white"/>
<path d="M352.687 198.111C355.239 195.559 355.239 191.421 352.687 188.869C350.135 186.317 345.997 186.317 343.445 188.869C340.893 191.421 340.893 195.559 343.445 198.111C345.997 200.663 350.135 200.663 352.687 198.111Z" fill="white"/>
<path d="M366.546 208.921C369.88 207.539 371.464 203.717 370.083 200.382C368.701 197.048 364.879 195.464 361.544 196.845C358.21 198.227 356.626 202.049 358.007 205.384C359.389 208.718 363.211 210.302 366.546 208.921Z" fill="white"/>
<path d="M384.654 216.897C387.206 214.345 387.206 210.207 384.654 207.655C382.102 205.103 377.964 205.103 375.412 207.655C372.86 210.207 372.86 214.345 375.412 216.897C377.964 219.449 382.102 219.449 384.654 216.897Z" fill="white"/>
<path d="M400.628 226.294C403.18 223.741 403.18 219.604 400.628 217.052C398.076 214.499 393.938 214.499 391.386 217.052C388.834 219.604 388.834 223.741 391.386 226.294C393.938 228.846 398.076 228.846 400.628 226.294Z" fill="white"/>
</g>
<g opacity="0.05">
<path d="M411.986 159.896C413.335 159.896 414.651 159.48 415.754 158.703C416.857 157.926 417.692 156.827 418.145 155.556C418.598 154.286 418.647 152.906 418.285 151.606C417.923 150.307 417.168 149.151 416.123 148.298C417.443 150.125 417.451 154.093 414.183 156.395C411.125 158.535 405.395 156.346 405.451 153.361C405.451 155.094 406.139 156.756 407.365 157.982C408.591 159.207 410.253 159.896 411.986 159.896Z" fill="black"/>
<path d="M411.986 178.817C413.335 178.815 414.65 178.396 415.752 177.618C416.853 176.84 417.688 175.741 418.14 174.471C418.593 173.2 418.642 171.821 418.281 170.521C417.92 169.222 417.166 168.066 416.123 167.211C417.443 169.046 417.451 173.014 414.183 175.316C411.125 177.457 405.395 175.268 405.451 172.274C405.45 173.132 405.618 173.983 405.946 174.777C406.274 175.571 406.755 176.292 407.362 176.9C407.969 177.508 408.69 177.99 409.483 178.319C410.277 178.647 411.127 178.817 411.986 178.817Z" fill="black"/>
<path d="M411.986 197.738C413.335 197.736 414.65 197.317 415.752 196.539C416.853 195.761 417.688 194.662 418.14 193.392C418.593 192.121 418.642 190.742 418.281 189.442C417.92 188.143 417.166 186.987 416.123 186.132C417.443 187.959 417.451 191.935 414.183 194.237C411.125 196.378 405.395 194.181 405.451 191.195C405.45 192.054 405.618 192.904 405.946 193.698C406.274 194.492 406.755 195.213 407.362 195.821C407.969 196.429 408.69 196.911 409.483 197.24C410.277 197.569 411.127 197.738 411.986 197.738Z" fill="black"/>
<path d="M411.986 216.659C413.335 216.657 414.65 216.239 415.752 215.461C416.853 214.683 417.688 213.583 418.14 212.313C418.593 211.042 418.642 209.663 418.281 208.364C417.92 207.064 417.166 205.908 416.123 205.054C417.443 206.88 417.451 210.856 414.183 213.158C411.125 215.299 405.395 213.102 405.451 210.116C405.45 210.975 405.618 211.825 405.946 212.619C406.274 213.413 406.755 214.134 407.362 214.742C407.969 215.35 408.69 215.832 409.483 216.161C410.277 216.49 411.127 216.659 411.986 216.659Z" fill="black"/>
<path d="M411.986 235.491C413.335 235.492 414.651 235.076 415.754 234.299C416.857 233.522 417.692 232.422 418.145 231.152C418.599 229.881 418.647 228.502 418.285 227.202C417.923 225.903 417.168 224.747 416.123 223.894C417.427 225.721 417.427 229.697 414.208 231.991C411.149 234.139 405.419 231.942 405.475 228.956C405.475 230.685 406.161 232.344 407.381 233.569C408.601 234.794 410.257 235.485 411.986 235.491Z" fill="black"/>
<path d="M316.109 103.535C317.458 103.536 318.774 103.119 319.877 102.342C320.98 101.565 321.815 100.466 322.268 99.1953C322.721 97.9247 322.77 96.5451 322.408 95.2456C322.046 93.9461 321.291 92.7906 320.246 91.9375C321.566 93.7644 321.574 97.7321 318.306 100.034C315.248 102.175 309.518 99.9856 309.566 96.9917C309.566 98.727 310.255 100.391 311.482 101.618C312.71 102.845 314.374 103.535 316.109 103.535Z" fill="black"/>
<path d="M316.109 123.261C317.458 123.259 318.773 122.84 319.875 122.062C320.976 121.284 321.811 120.185 322.264 118.914C322.716 117.644 322.766 116.265 322.404 114.965C322.043 113.666 321.289 112.51 320.246 111.655C321.566 113.482 321.574 117.458 318.306 119.76C315.248 121.901 309.518 119.711 309.566 116.718C309.566 118.453 310.255 120.117 311.482 121.344C312.71 122.571 314.374 123.261 316.109 123.261Z" fill="black"/>
<path d="M316.109 142.987C317.458 142.985 318.773 142.566 319.875 141.788C320.976 141.01 321.811 139.911 322.264 138.64C322.716 137.37 322.766 135.991 322.404 134.691C322.043 133.392 321.289 132.236 320.246 131.381C321.566 133.208 321.574 137.184 318.306 139.486C315.248 141.626 309.518 139.429 309.566 136.443C309.566 137.303 309.735 138.154 310.064 138.947C310.393 139.741 310.875 140.463 311.482 141.07C312.09 141.678 312.811 142.16 313.605 142.489C314.399 142.817 315.25 142.987 316.109 142.987Z" fill="black"/>
<path d="M316.109 161.908C317.458 161.906 318.773 161.487 319.875 160.709C320.976 159.931 321.811 158.832 322.264 157.561C322.716 156.291 322.766 154.912 322.404 153.612C322.043 152.313 321.289 151.157 320.246 150.302C321.566 152.129 321.574 156.105 318.306 158.407C315.248 160.548 309.518 158.35 309.566 155.365C309.566 157.1 310.255 158.764 311.482 159.991C312.71 161.218 314.374 161.908 316.109 161.908Z" fill="black"/>
<path d="M316.109 180.74C317.458 180.741 318.774 180.324 319.877 179.547C320.98 178.77 321.815 177.671 322.268 176.401C322.721 175.13 322.77 173.751 322.408 172.451C322.046 171.152 321.291 169.996 320.246 169.143C321.566 170.97 321.574 174.938 318.306 177.239C315.248 179.388 309.518 177.191 309.566 174.205C309.568 175.939 310.258 177.601 311.485 178.827C312.712 180.052 314.375 180.74 316.109 180.74Z" fill="black"/>
<path d="M332.117 112.927C333.463 112.921 334.775 112.5 335.872 111.72C336.97 110.941 337.8 109.841 338.249 108.572C338.698 107.303 338.744 105.926 338.382 104.63C338.019 103.334 337.264 102.181 336.221 101.33C337.549 103.157 337.549 107.124 334.282 109.426C331.231 111.575 325.501 109.378 325.549 106.392C325.551 107.252 325.721 108.104 326.052 108.899C326.383 109.693 326.867 110.415 327.477 111.022C328.087 111.629 328.811 112.11 329.607 112.437C330.403 112.763 331.256 112.93 332.117 112.927Z" fill="black"/>
<path d="M348.068 122.319C349.42 122.326 350.741 121.915 351.849 121.14C352.956 120.366 353.797 119.267 354.254 117.995C354.711 116.723 354.763 115.34 354.402 114.038C354.04 112.735 353.284 111.577 352.237 110.722C353.557 112.549 353.565 116.524 350.297 118.818C347.239 120.967 341.509 118.77 341.557 115.784C341.559 117.512 342.245 119.17 343.465 120.394C344.685 121.618 346.34 122.31 348.068 122.319Z" fill="black"/>
<path d="M364.044 131.711C365.392 131.712 366.709 131.295 367.811 130.518C368.914 129.741 369.749 128.642 370.203 127.372C370.656 126.101 370.705 124.721 370.343 123.422C369.981 122.123 369.225 120.967 368.18 120.114C369.508 121.941 369.508 125.917 366.241 128.21C363.19 130.359 357.46 128.162 357.508 125.176C357.508 126.034 357.677 126.884 358.006 127.677C358.334 128.47 358.816 129.19 359.423 129.797C360.029 130.404 360.75 130.885 361.543 131.214C362.336 131.542 363.185 131.711 364.044 131.711Z" fill="black"/>
<path d="M380.027 141.111C381.376 141.11 382.691 140.691 383.793 139.913C384.894 139.135 385.729 138.036 386.181 136.765C386.634 135.495 386.683 134.115 386.322 132.816C385.961 131.517 385.207 130.361 384.164 129.506C385.484 131.333 385.492 135.309 382.224 137.602C379.166 139.751 373.436 137.554 373.492 134.568C373.491 135.427 373.659 136.278 373.987 137.072C374.315 137.865 374.796 138.587 375.403 139.194C376.01 139.802 376.731 140.284 377.524 140.613C378.318 140.942 379.168 141.111 380.027 141.111Z" fill="black"/>
<path d="M396.002 150.503C397.353 150.506 398.672 150.09 399.777 149.313C400.882 148.536 401.718 147.435 402.172 146.163C402.625 144.89 402.674 143.508 402.31 142.207C401.946 140.907 401.187 139.75 400.139 138.898C401.467 140.725 401.475 144.701 398.2 147.003C395.149 149.143 389.419 146.946 389.467 143.96C389.467 145.694 390.156 147.357 391.381 148.584C392.606 149.811 394.269 150.501 396.002 150.503Z" fill="black"/>
<path d="M332.117 190.631C333.466 190.632 334.782 190.215 335.885 189.438C336.987 188.662 337.823 187.562 338.276 186.292C338.729 185.021 338.778 183.642 338.416 182.342C338.054 181.043 337.298 179.887 336.253 179.034C337.581 180.861 337.581 184.837 334.314 187.13C331.264 189.279 325.533 187.082 325.582 184.096C325.582 184.954 325.751 185.804 326.079 186.597C326.408 187.39 326.889 188.11 327.496 188.717C328.103 189.324 328.823 189.805 329.616 190.134C330.409 190.462 331.259 190.631 332.117 190.631Z" fill="black"/>
<path d="M348.068 200.032C349.42 200.036 350.739 199.623 351.846 198.847C352.953 198.072 353.792 196.972 354.249 195.7C354.706 194.429 354.758 193.046 354.398 191.744C354.037 190.441 353.283 189.282 352.237 188.426C353.557 190.253 353.565 194.229 350.297 196.523C347.239 198.671 341.509 196.474 341.557 193.488C341.557 195.218 342.242 196.878 343.462 198.104C344.682 199.33 346.338 200.023 348.068 200.032Z" fill="black"/>
<path d="M364.044 209.424C365.394 209.426 366.713 209.011 367.818 208.233C368.923 207.456 369.759 206.355 370.213 205.083C370.667 203.81 370.715 202.429 370.351 201.128C369.987 199.827 369.228 198.671 368.18 197.818C369.508 199.645 369.508 203.621 366.241 205.923C363.19 208.063 357.46 205.866 357.508 202.88C357.508 204.614 358.197 206.277 359.422 207.504C360.647 208.731 362.31 209.421 364.044 209.424Z" fill="black"/>
<path d="M380.027 218.816C381.376 218.817 382.692 218.4 383.795 217.623C384.898 216.846 385.733 215.747 386.186 214.476C386.639 213.206 386.688 211.826 386.326 210.527C385.964 209.227 385.209 208.072 384.164 207.218C385.484 209.045 385.492 213.013 382.224 215.315C379.166 217.456 373.436 215.267 373.492 212.273C373.491 213.132 373.659 213.982 373.987 214.776C374.315 215.57 374.796 216.291 375.403 216.899C376.01 217.507 376.731 217.989 377.524 218.318C378.318 218.646 379.168 218.816 380.027 218.816Z" fill="black"/>
<path d="M396.002 228.208C397.351 228.209 398.668 227.792 399.77 227.015C400.873 226.238 401.708 225.139 402.162 223.868C402.615 222.598 402.664 221.218 402.302 219.919C401.939 218.619 401.184 217.464 400.139 216.611C401.467 218.438 401.475 222.405 398.2 224.707C395.149 226.856 389.419 224.659 389.467 221.673C389.47 223.405 390.159 225.066 391.384 226.292C392.609 227.517 394.27 228.206 396.002 228.208Z" fill="black"/>
</g>
<path d="M289.783 387.858L288.744 387.681C288.744 384.389 288.994 381.387 288.205 379.818L289.815 375.794L289.783 387.858Z" fill="#263238"/>
<path d="M292.68 372.953C292.398 375.207 291.07 377.492 290.885 381.935C290.744 383.826 290.744 385.725 290.885 387.617L289.791 387.882V375.81L292.68 372.953Z" fill="#263238"/>
<path d="M266.773 390.353C266.824 390.965 267.066 391.545 267.465 392.011C268.021 392.454 269.791 393.951 275.594 393.725C281.397 393.5 283.441 392.116 285.461 390.353C287.481 388.591 288.093 383.866 288.431 381.637C289.091 377.315 290.942 375.078 292.672 372.929C292.965 372.221 293.04 371.442 292.889 370.692C292.889 370.692 288.109 370.321 285.928 375.585C283.747 380.848 281.992 386.957 277.284 388.333C273.835 389.263 270.322 389.938 266.773 390.353Z" fill="#37474F"/>
<path d="M269.815 385.379C268.012 386.868 266.66 387.52 266.781 388.937C266.902 390.353 268.391 391.037 269.59 391.415C272.415 392.325 275.642 392.043 278.491 391.592C281.34 391.142 284.559 389.87 285.831 387.182C286.171 386.384 286.417 385.55 286.563 384.695C287.016 381.872 287.805 379.114 288.913 376.478C289.347 375.372 289.886 374.31 290.523 373.307C291.328 372.245 292.237 371.086 292.398 369.742C292.535 368.615 291.706 367.014 290.611 365.291V365.251C289.378 363.306 288.813 361.011 289.002 358.716L289.807 348.487L276.873 351.304L278.563 362.748C279.014 365.742 277.871 368.905 277.163 371.778C276.383 374.982 275.215 378.079 273.686 381.001C273.333 381.753 272.872 382.45 272.318 383.07C271.538 383.896 270.702 384.668 269.815 385.379Z" fill="#FFA8A7"/>
<path d="M292.221 367.408C291.513 366.289 290.652 365.428 290.072 364.277C289.493 364.992 289.024 365.79 288.68 366.643C287.159 369.509 286.789 374.056 285.292 378.547C284.173 381.919 282.378 383.681 279.932 384.55C278.4 385.094 276.757 385.246 275.151 384.993C272.157 384.518 272.898 382.369 272.898 382.369C272.181 383.311 268.914 385.774 267.103 386.973C265.96 387.729 266.089 389.387 266.797 390.369C267.602 391.11 270.435 392.929 277.646 392.027C284.044 391.222 285.598 388.317 286.233 387.005C286.909 385.069 287.394 383.072 287.682 381.041C288.087 378.814 288.888 376.676 290.048 374.732C290.201 374.49 290.346 374.265 290.483 374.072C290.925 373.444 291.449 372.76 292.036 372.076C292.495 371.545 292.841 371.271 292.986 370.788C293.09 370.202 293.077 369.601 292.945 369.021C292.814 368.44 292.568 367.892 292.221 367.408Z" fill="#455A64"/>
<path d="M270.475 373.806L269.429 373.661C269.332 370.37 269.501 367.36 268.672 365.814L270.129 361.79L270.475 373.806Z" fill="#263238"/>
<path d="M272.93 358.805C272.713 361.058 271.449 363.384 271.393 367.826C271.306 369.722 271.362 371.621 271.562 373.508L270.475 373.806L270.129 361.734L272.93 358.805Z" fill="#263238"/>
<path d="M247.554 376.977C247.629 377.576 247.884 378.137 248.287 378.587C248.858 379.005 250.701 380.381 256.456 379.987C262.21 379.593 264.262 378.225 266.226 376.406C268.19 374.587 268.64 369.838 268.946 367.601C269.485 363.263 271.264 360.978 272.93 358.748C273.201 358.028 273.254 357.245 273.083 356.495C273.083 356.495 268.294 356.269 266.266 361.589C264.238 366.909 262.669 373.074 258.001 374.587C254.582 375.638 251.09 376.437 247.554 376.977Z" fill="#37474F"/>
<path d="M250.444 371.907C248.689 373.452 247.353 374.136 247.522 375.553C247.691 376.969 249.196 377.597 250.395 377.967C253.244 378.772 256.464 378.41 259.304 377.879C262.145 377.347 265.316 375.979 266.548 373.259C266.863 372.453 267.085 371.613 267.208 370.756C267.564 367.928 268.259 365.153 269.276 362.491C269.689 361.37 270.209 360.292 270.829 359.271C271.57 358.185 272.439 357.002 272.6 355.65C272.705 354.523 271.795 352.946 270.685 351.255V351.215C269.387 349.312 268.748 347.037 268.866 344.736L269.389 334.483L256.552 337.702L258.572 349.09C259.103 352.076 258.057 355.271 257.429 358.161C256.733 361.38 255.653 364.503 254.21 367.464C253.869 368.222 253.427 368.931 252.898 369.573C252.132 370.404 251.312 371.183 250.444 371.907Z" fill="#FFA8A7"/>
<path d="M272.318 353.292C271.521 352.308 270.775 351.284 270.081 350.225C269.525 350.961 269.08 351.775 268.761 352.64C267.32 355.553 267.079 360.1 265.719 364.639C264.697 368.036 262.95 369.855 260.536 370.796C259.02 371.381 257.383 371.58 255.771 371.376C252.761 370.989 253.446 368.816 253.446 368.816C252.753 369.782 249.558 372.333 247.812 373.589C246.693 374.394 246.87 376.044 247.611 376.993C248.415 377.709 251.321 379.408 258.5 378.337C264.874 377.355 266.339 374.394 266.934 373.066C267.55 371.11 267.976 369.099 268.206 367.062C268.547 364.823 269.288 362.664 270.395 360.688C270.532 360.438 270.677 360.213 270.805 360.012C271.232 359.376 271.731 358.676 272.302 357.976C272.745 357.428 273.107 357.171 273.22 356.656C273.301 356.063 273.263 355.46 273.108 354.883C272.953 354.305 272.685 353.764 272.318 353.292Z" fill="#455A64"/>
<path d="M326.53 265.109C325.653 261.517 324.314 258.054 322.546 254.807C310.241 260.658 297.887 260.489 285.485 256.513C286.008 258.968 281.912 261.012 270.797 266.976C262.894 271 254.443 275.998 249.985 280.352C247.691 282.597 247.57 285.06 248.713 292.279C250.242 302.049 256.528 337.807 256.528 337.807C264.954 340.801 269.292 335.827 269.292 335.827C269.292 335.827 270.612 322.789 271.707 312.278C272.289 305.707 271.247 299.093 268.672 293.019C268.672 293.019 294.257 287.201 303.81 285.229C319.738 281.929 328.623 279.893 326.53 265.109Z" fill="#37474F"/>
<path d="M326.554 265.294C326.551 265.224 326.551 265.154 326.554 265.084C325.677 261.493 324.338 258.03 322.571 254.783C310.265 260.634 297.911 260.465 285.509 256.489C285.735 258.903 284.254 259.33 284.889 262.477C285.928 267.863 288.914 272.679 293.276 276.006C285.863 283.249 275.803 293.575 271.24 299.216C269.976 300.786 268.753 304.045 269.493 308.536C271.103 318.298 277.316 354.064 277.316 354.064C285.767 356.326 289.437 353.05 289.437 353.05C289.437 353.05 291.4 339.046 292.471 328.536C293.053 321.964 292.011 315.35 289.437 309.276C289.437 309.276 304.124 301.558 312.977 295.901C326.764 287.064 329.597 277.326 326.554 265.294Z" fill="#455A64"/>
<path d="M293.252 276.006C293.252 276.006 301.098 268.505 305.404 266.404C305.404 266.404 294.942 270.549 289.05 276.223L293.252 276.006Z" fill="#37474F"/>
<path d="M282.7 212.603C281.091 217.029 278.29 235.886 277.493 241.286C277.356 242.234 276.964 243.127 276.358 243.87C275.312 245.157 273.204 247.741 269.244 252.634C266.781 255.676 264.182 259.435 262.29 261.873C256.616 269.205 256.109 274.146 257.365 278.396C259.441 285.446 263.65 283.305 265.526 277.857C266.289 275.569 267.372 273.401 268.745 271.418C268.647 272.616 268.714 273.821 268.946 275C269.453 276.891 270.926 277.261 271.618 277.14C272.157 277.036 271.811 275.724 272.367 273.575C273.171 270.509 273.727 269.374 273.598 265.398C273.569 264.645 273.803 263.906 274.258 263.306C277.598 259.04 281.34 255.258 284.535 251.893C286.904 249.379 288.438 246.194 288.93 242.775L294.273 205.754C289.412 205.971 284.761 206.784 282.7 212.603Z" fill="#FFA8A7"/>
<path d="M323.005 209.383L310.644 206.277L300.656 205.472L295.022 205.746C290.773 212.184 276.954 221.745 285.284 236.079C286.145 242.204 285.694 249.382 285.453 256.505C296.342 260.907 307.432 264.626 322.515 254.799C320.969 251.813 318.579 250.493 318.853 247.032L323.682 233.874C323.682 233.874 314.338 225.512 323.005 209.383Z" fill="#FFA8A7"/>
<path d="M320.977 251.708C320.245 250.541 318.74 248.755 318.885 247.016L322.031 238.413L319.738 228.755C319.41 227.207 318.76 225.746 317.83 224.466C316.312 219.107 316.217 213.445 317.557 208.039L314.136 207.162C310.235 215.255 303.55 221.672 295.304 225.238L295.094 224.868C294.402 223.427 292.64 217.158 297.678 205.552L294.217 205.681C294.217 205.681 284.004 216.425 282.467 221.15C281.469 224.232 280.254 229.85 284.881 236.53C285.026 240.151 284.881 242.686 285.002 249.696C285.064 251.714 284.951 253.734 284.664 255.732C284.246 258.783 283.223 271.265 305.364 268.271C312.583 267.207 319.518 264.718 325.766 260.948C324.43 257.74 322.829 254.649 320.977 251.708Z" fill="#BDFFC3"/>
<path opacity="0.1" d="M296.905 236.667C296.905 236.667 300.422 240.731 307.609 239.242C314.796 237.753 316.019 232.232 316.019 232.232C316.019 232.232 316.728 239.242 308.132 240.988C299.658 242.711 296.905 236.667 296.905 236.667Z" fill="black"/>
<path d="M307.166 158.165C295.617 157.505 286.555 163.099 285.919 175.267C285.412 184.925 295.344 197.923 303.03 198.06L306.7 198.277C311.761 198.567 316.731 196.835 320.516 193.462C324.301 190.089 326.592 185.351 326.884 180.29C327.046 177.541 326.665 174.788 325.761 172.188C324.857 169.587 323.449 167.191 321.617 165.135C319.785 163.08 317.566 161.406 315.086 160.21C312.607 159.014 309.915 158.319 307.166 158.165Z" fill="#263238"/>
<path d="M329.009 169.111C325.613 172.467 322.136 170.125 318.547 166.519C314.957 162.914 312.687 159.413 316.076 156.057C319.464 152.701 325.114 152.902 328.679 156.507C332.244 160.113 332.405 165.755 329.009 169.111Z" fill="#263238"/>
<path d="M314.804 160.041C314.12 160.18 313.409 160.043 312.826 159.658C312.243 159.273 311.838 158.672 311.698 157.988C311.558 157.304 311.696 156.593 312.081 156.01C312.465 155.427 313.066 155.021 313.75 154.882L314.804 160.041Z" fill="#263238"/>
<path d="M320.124 185.303C319.662 184.795 319.085 184.404 318.442 184.163C317.799 183.921 317.107 183.836 316.425 183.915C315.742 183.993 315.088 184.233 314.517 184.615C313.945 184.996 313.473 185.508 313.138 186.108C313.138 186.108 311.617 183.267 306.74 180.974C299.98 177.811 296.978 173.811 294 168.33C291.899 169.891 287.73 174.044 287.626 185.69C287.537 195.589 290.241 198.366 291.787 199.211C293.332 200.056 296.463 199.879 299.521 199.637L299.231 205.673C299.231 205.673 293.646 213.601 295.819 219.186C306.144 217.254 312.156 207.17 312.156 207.17L313.235 193.488C313.235 193.488 314.844 195.364 318.064 192.989C320.744 191.01 321.895 187.428 320.124 185.303Z" fill="#FFA8A7"/>
<path opacity="0.4" d="M308.116 188.692C308.118 189.281 307.945 189.858 307.618 190.349C307.291 190.84 306.826 191.223 306.282 191.449C305.737 191.676 305.138 191.735 304.56 191.621C303.981 191.506 303.45 191.222 303.033 190.805C302.616 190.388 302.332 189.857 302.218 189.279C302.103 188.7 302.163 188.101 302.389 187.556C302.615 187.012 302.998 186.547 303.489 186.22C303.98 185.894 304.557 185.72 305.147 185.722C305.934 185.724 306.688 186.038 307.244 186.594C307.801 187.151 308.114 187.905 308.116 188.692Z" fill="#F28F8F"/>
<path opacity="0.4" d="M287.698 188.772C287.959 188.85 288.23 188.891 288.503 188.893C288.882 188.913 289.261 188.856 289.617 188.725C289.973 188.594 290.299 188.392 290.574 188.131C290.849 187.87 291.069 187.556 291.218 187.208C291.368 186.859 291.446 186.484 291.446 186.104C291.446 185.725 291.368 185.349 291.218 185.001C291.069 184.652 290.849 184.338 290.574 184.077C290.299 183.816 289.973 183.614 289.617 183.483C289.261 183.352 288.882 183.295 288.503 183.316C288.23 183.317 287.958 183.361 287.698 183.444C287.698 184.161 287.65 184.893 287.642 185.666C287.618 186.8 287.642 187.847 287.698 188.772Z" fill="#F28F8F"/>
<path d="M299.521 199.613C302.74 199.468 307.311 199.549 309.468 196.643C309.468 196.643 309.468 198.156 307.384 199.661C305.299 201.166 299.384 201.593 299.384 201.593L299.521 199.613Z" fill="#F28F8F"/>
<path d="M313.138 186.084L312.189 189.738C311.394 189.512 310.718 188.988 310.298 188.277C309.879 187.565 309.749 186.72 309.935 185.915L311.287 180.08L314.249 181.062L313.138 186.084Z" fill="#263238"/>
<path d="M300.285 191.67L296.704 192.547C296.751 192.787 296.845 193.015 296.982 193.217C297.119 193.42 297.295 193.593 297.5 193.726C297.705 193.859 297.935 193.949 298.176 193.991C298.416 194.033 298.663 194.027 298.901 193.971C299.384 193.84 299.798 193.528 300.056 193.099C300.314 192.67 300.396 192.158 300.285 191.67Z" fill="#B16668"/>
<path d="M296.849 181.457L296.1 189.376L292.012 187.798L296.849 181.457Z" fill="#F28F8F"/>
<path d="M300.004 182.575C300.234 182.052 300.627 181.619 301.125 181.338C301.623 181.058 302.198 180.947 302.764 181.022C303.307 181.004 303.84 181.176 304.27 181.508C304.7 181.84 305.001 182.311 305.122 182.841C304.811 183.256 304.404 183.59 303.936 183.814C303.468 184.039 302.953 184.146 302.434 184.128C301.938 184.07 301.462 183.9 301.041 183.631C300.62 183.362 300.265 183.001 300.004 182.575Z" fill="#F28F8F"/>
<path d="M300.004 182.575C300.14 183.126 300.461 183.614 300.914 183.957C301.367 184.3 301.923 184.477 302.491 184.458C303.048 184.539 303.617 184.423 304.097 184.129C304.578 183.835 304.94 183.382 305.122 182.849C304.384 183.436 303.456 183.733 302.513 183.685C301.57 183.636 300.678 183.244 300.004 182.583V182.575Z" fill="#263238"/>
<path d="M305.122 182.841C305.324 182.878 305.532 182.872 305.732 182.823C305.931 182.775 306.119 182.685 306.281 182.559C306.281 182.559 306.161 183.718 304.535 183.573L305.122 182.841Z" fill="#263238"/>
<path d="M289.01 180.885C289.302 180.396 289.741 180.012 290.264 179.788C290.787 179.564 291.368 179.511 291.923 179.638C292.467 179.667 292.983 179.891 293.377 180.267C293.771 180.643 294.017 181.148 294.072 181.69C293.719 182.07 293.279 182.36 292.79 182.534C292.301 182.707 291.777 182.76 291.263 182.688C290.776 182.578 290.319 182.359 289.929 182.047C289.538 181.734 289.224 181.337 289.01 180.885Z" fill="#F28F8F"/>
<path d="M289.01 180.885C289.071 181.431 289.325 181.937 289.727 182.312C290.128 182.687 290.65 182.906 291.199 182.929C291.748 183.078 292.33 183.037 292.852 182.812C293.374 182.587 293.804 182.191 294.072 181.69C293.278 182.199 292.323 182.397 291.392 182.245C290.459 182.098 289.611 181.614 289.01 180.885Z" fill="#263238"/>
<path d="M289.01 180.909C288.803 180.91 288.599 180.867 288.41 180.782C288.221 180.698 288.052 180.574 287.916 180.418C287.916 180.418 287.827 181.585 289.445 181.738L289.01 180.909Z" fill="#263238"/>
<path d="M289.855 177.046L293.075 176.772C293.067 176.561 293.016 176.353 292.925 176.162C292.834 175.97 292.706 175.8 292.547 175.66C292.388 175.52 292.202 175.413 292.001 175.347C291.8 175.281 291.587 175.257 291.376 175.276C290.945 175.32 290.546 175.529 290.263 175.858C289.98 176.187 289.834 176.612 289.855 177.046Z" fill="#263238"/>
<path d="M339.238 248.747C337.935 242.743 335.214 232.425 332.502 221.729C329.556 210.164 326.828 210.059 319.738 208.756C312.623 212.369 319.738 230.485 319.738 230.485L325.806 251.499C321.975 258.3 318.804 265.398 314.354 270.758C313.589 271.676 312.213 271.643 311.022 271.772C307.802 272.11 306.619 272.786 303.827 273.825C301.646 274.629 300.229 274.412 300.189 274.992C300.133 275.732 300.672 277.237 302.708 277.559C303.966 277.678 305.234 277.619 306.475 277.382C304.53 279.021 302.362 280.376 300.036 281.406C294.547 283.949 292.753 288.585 300.35 290.001C304.937 290.854 310.048 289.792 317.114 283.072C320.132 280.211 322.907 277.104 325.412 273.784C331.729 265.108 340.059 253.777 339.238 248.747Z" fill="#FFA8A7"/>
<path d="M322.088 164.403C322.088 164.403 322.241 160.588 320.366 160.451C318.49 160.314 316.615 161.94 317.002 162.93C317.388 163.92 319.818 165.401 319.818 165.401C319.818 165.401 316.068 164.539 316.221 166.576C316.374 168.612 317.138 169.256 318.257 169.079C319.376 168.901 320.873 167.469 320.873 167.469C320.873 167.469 319.038 169.883 319.738 170.913C320.438 171.944 322.571 172.523 323.311 171.573C324.052 170.624 322.949 167.767 322.949 167.767C322.949 167.767 324.519 170.567 325.806 169.698C326.327 169.393 326.753 168.949 327.037 168.417C327.322 167.884 327.453 167.283 327.416 166.68C327.311 165.739 323.335 165.674 323.335 165.674C323.335 165.674 327.52 165.304 326.973 163.566C326.426 161.827 324.736 160.274 323.754 160.548C322.772 160.821 322.088 164.403 322.088 164.403Z" fill="#FAFAFA"/>
<path d="M321.782 167.509C322.546 167.509 323.166 166.889 323.166 166.125C323.166 165.36 322.546 164.741 321.782 164.741C321.017 164.741 320.398 165.36 320.398 166.125C320.398 166.889 321.017 167.509 321.782 167.509Z" fill="#BDFFC3"/>
<path d="M209.455 206.478C207.242 207.098 204.345 204.023 202.454 201.866C190.607 188.362 186.929 184.362 181.738 175.614L182.953 157.538C191.347 157.28 195.83 165.473 200.401 173.183C203.658 178.906 207.217 184.451 211.065 189.794C211.065 189.794 228.698 176.813 233.712 173.915C238.726 171.018 244.038 171.3 249.004 171.775C253.969 172.249 256.448 172.644 257.688 173.915C258.299 174.551 259.442 177.135 259.08 177.618C258.002 179.082 253.978 178.937 253.978 178.937C253.374 180.528 252.311 181.904 250.924 182.89C249.537 183.876 247.888 184.427 246.187 184.475C240.103 184.756 238.807 184.024 237.294 184.821C235.781 185.617 218.171 204.031 209.455 206.478Z" fill="#FFA8A7"/>
<path d="M196.369 195.669L183.492 178.696C183.492 178.696 176.643 165.175 181.496 157.28C181.496 157.28 189.882 156.668 194.373 162.777C198.083 167.855 207.25 183.34 210.993 189.561L225.045 179.654C225.045 179.654 224.505 185.287 232.022 189.657C228.778 193.5 225.169 197.02 221.246 200.168C214.485 205.705 210.582 207.935 208.441 207.412C205.882 206.719 199.443 199.87 196.369 195.669Z" fill="#D6D6D6"/>
<path d="M210.968 189.561C210.968 189.561 207.628 192.313 206.944 194.921C206.885 193.619 207.148 192.322 207.709 191.146C208.271 189.969 209.114 188.949 210.163 188.177L210.968 189.561Z" fill="#BEBEBE"/>
<path d="M244.803 175.243L244.561 175.662L243.845 175.404C243.845 175.404 243.941 178.261 240.159 179.485C241.05 179.569 241.946 179.378 242.726 178.937C242.559 179.26 242.491 179.625 242.531 179.986C242.571 180.347 242.717 180.688 242.951 180.965C242.8 181.283 242.739 181.635 242.776 181.985C242.813 182.335 242.946 182.667 243.161 182.945C243.399 183.275 243.729 183.527 244.11 183.671C244.491 183.814 244.905 183.841 245.302 183.75C245.302 183.75 242.726 183.026 243.692 181.006C243.49 180.774 243.344 180.499 243.267 180.201C243.19 179.904 243.183 179.592 243.247 179.291C243.311 178.991 243.444 178.709 243.636 178.469C243.828 178.229 244.073 178.036 244.352 177.907C244.269 177.588 244.269 177.253 244.352 176.933L253.446 180.024C253.64 179.682 253.804 179.324 253.937 178.953C253.937 178.953 254.331 178.953 254.903 178.953L255.088 177.923L244.803 175.243Z" fill="#F28F8F"/>
<path d="M261.084 178.189C260.4 177.923 259.233 180.885 259.917 181.151L234.968 172.225C233.237 171.541 235.032 167.002 236.763 167.686L261.084 178.189Z" fill="#455A64"/>
<path d="M251.587 178.189L259.917 181.167C259.233 180.901 260.4 177.947 261.084 178.205L252.963 174.704C251.635 174.165 250.291 177.666 251.587 178.189Z" fill="#BDFFC3"/>
<path opacity="0.1" d="M234.372 169.996C234.115 170.97 234.219 171.936 234.943 172.225L259.893 181.151C259.579 181.03 259.651 180.346 259.893 179.662L234.372 169.996Z" fill="black"/>
<path d="M265.06 177.159C263.616 177.058 262.175 177.391 260.923 178.117C260.512 178.49 260.193 178.953 259.989 179.469C259.786 179.985 259.703 180.541 259.748 181.094C260.161 182.48 260.979 183.711 262.098 184.627C262.972 185.481 263.981 186.186 265.084 186.712L266.927 182.213L268.705 177.69C267.529 177.308 266.296 177.129 265.06 177.159Z" fill="#455A64"/>
<path d="M263.957 184.74C263.841 183.544 264.009 182.337 264.448 181.218C264.887 180.099 265.585 179.099 266.484 178.302C268.206 176.941 269.872 177.593 270.194 179.766C270.312 180.963 270.144 182.17 269.705 183.289C269.266 184.409 268.567 185.408 267.667 186.205C265.953 187.565 264.287 186.913 263.957 184.74Z" fill="#37474F"/>
<path d="M232.899 174.382C234.96 172.942 237.374 170.278 242.082 169.996C246.79 169.714 249.47 168.636 250.493 169.481C251.515 170.326 249.623 173.255 247.08 173.835C243.571 174.64 243.676 176.113 242.404 176.74C242.042 176.925 232.899 174.382 232.899 174.382Z" fill="#FFA8A7"/>
<path d="M159.694 362.321H149.312V380.832H159.694V362.321Z" fill="#FFA8A7"/>
<path d="M182.196 363.199L192.691 363.569L193.214 343.763L182.196 343.384V363.199Z" fill="#FFA8A7"/>
<path d="M148.281 210.969C148.281 220.425 149.682 296.568 149.682 296.568C149.456 299.289 147.01 304.311 147.533 314.765C148.257 328.97 149.215 370.788 149.215 370.788C150.848 371.627 152.65 372.083 154.486 372.12C156.321 372.158 158.141 371.777 159.806 371.005C159.806 371.005 167.524 314.21 169.223 300.134C170.711 287.844 175.114 252.586 175.114 252.586L179.677 295.184C178.575 300.357 178.18 305.655 178.502 310.934C178.945 317.445 182.003 355.843 182.003 355.843C182.003 355.843 186.486 359.006 192.989 356.72C192.989 356.72 198.397 301.188 198.51 295.184C198.638 288.375 195.347 210.864 195.347 210.864L148.281 210.969Z" fill="#BDFFC3"/>
<path opacity="0.4" d="M148.281 210.969C148.281 220.425 149.682 296.568 149.682 296.568C149.456 299.289 147.01 304.311 147.533 314.765C148.257 328.97 149.215 370.788 149.215 370.788C150.848 371.627 152.65 372.083 154.486 372.12C156.321 372.158 158.141 371.777 159.806 371.005C159.806 371.005 167.524 314.21 169.223 300.134C170.711 287.844 175.114 252.586 175.114 252.586L179.677 295.184C178.575 300.357 178.18 305.655 178.502 310.934C178.945 317.445 182.003 355.843 182.003 355.843C182.003 355.843 186.486 359.006 192.989 356.72C192.989 356.72 198.397 301.188 198.51 295.184C198.638 288.375 195.347 210.864 195.347 210.864L148.281 210.969Z" fill="black"/>
<path d="M159.694 375.496V373.951C160.684 374.402 164.289 385.009 168.402 388.92C171.677 392.035 176.144 395.625 177.255 399.093C178.438 402.699 171.034 404.727 167.975 404.123C164.426 403.471 158.261 400.864 156.708 398.449C155.155 396.035 154.438 392.47 153.183 390.699C151.927 388.929 147.734 385.508 147.058 383.456C146.68 382.329 147.123 379.858 147.646 377.774C148.129 375.866 148.652 373.75 149.255 373.943V375.118C150.012 375.995 152.096 376.856 154.446 376.953C156.024 377.017 159.702 376.703 159.694 375.496Z" fill="#37474F"/>
<path d="M192.804 360.197C193.351 360.197 193.794 361.002 194.993 362.378C196.449 363.987 201.142 366.836 203.484 368.06C207.419 370.112 215.057 373.267 218.517 374.885C220.674 375.899 220.578 378.619 218.34 380.164C216.103 381.709 210.719 382.828 204.24 381.315C200.715 380.51 196.321 377.967 193.214 377.291C190.373 376.663 182.558 376.365 180.41 374.828C178.261 373.291 179.122 369.999 179.734 367.174C180.394 364.084 181.222 359.279 182.196 359.488V360.551C183.46 362.539 189.971 363.352 192.747 361.887L192.804 360.197Z" fill="#37474F"/>
<path opacity="0.2" d="M175.541 248.328C180.149 246.787 184.337 244.198 187.774 240.763C187.774 240.763 186.792 245.592 177.641 250.38L179.251 291.756L175.114 252.586L175.541 248.328Z" fill="black"/>
<path d="M151.034 160.346C151.034 160.346 145.247 161.425 145.77 175.485L147.718 200.168C147.718 211.782 147.557 222.228 147.501 230.799C148.476 231.831 149.693 232.603 151.042 233.045L152.652 223.065L154.752 234.888C168.434 239.161 188.771 235.781 196.964 229.616C196.53 221.109 195.854 189.947 194.904 174.833C194.22 163.968 191.894 158.479 181.222 157.28L168.072 157.859L159.042 158.664L151.034 160.346Z" fill="#FAFAFA"/>
<path d="M180.667 221.27C187.106 219.806 193.93 215.081 196.248 210.719C196.248 210.719 196.087 205.585 195.894 199.742C190.057 202.889 184.413 206.383 178.993 210.204C168.53 217.625 152.515 212.675 152.515 212.675L149.682 193.48C149.682 193.48 154.969 177.851 153.955 169.521L145.77 171.453C145.698 172.676 145.674 174.02 145.77 175.525L147.718 200.209C147.718 211.822 147.557 222.268 147.501 230.84C148.476 231.871 149.693 232.643 151.042 233.085L152.652 223.105L154.752 234.928C162.8 237.431 173.078 237.342 181.882 235.532C177.142 235.789 168.933 235.894 163.879 233.978C161.843 233.321 160.094 231.987 158.923 230.198C157.752 228.408 157.228 226.272 157.44 224.144C157.44 224.144 169.939 223.725 180.667 221.27Z" fill="#BEBEBE"/>
<path d="M164.04 130.262C164.04 138.158 170.229 142.335 177.81 142.335C185.391 142.335 191.339 138.56 192.997 130.834C196.031 116.717 185.391 114.48 177.81 114.48C170.229 114.48 164.04 122.367 164.04 130.262Z" fill="#263238"/>
<path d="M162.43 130.15L160.619 132.13L159.678 121.281C159.678 121.281 158.165 120.903 156.563 123.414C155.187 125.562 154.881 130.383 157.038 136.041C157.038 136.041 159.139 146.343 159.984 148.033C160.53 149.07 161.46 149.852 162.575 150.214L162.43 130.15Z" fill="#263238"/>
<path d="M158.221 123.373L153.392 123.462C153.353 123.144 153.38 122.822 153.473 122.516C153.565 122.21 153.721 121.927 153.929 121.684C154.137 121.442 154.394 121.245 154.683 121.108C154.972 120.971 155.286 120.895 155.606 120.886C156.272 120.904 156.908 121.168 157.391 121.628C157.874 122.087 158.17 122.709 158.221 123.373Z" fill="#263238"/>
<path d="M157.625 122.214L154.02 118.754C154.229 118.504 154.489 118.302 154.781 118.159C155.074 118.016 155.394 117.937 155.719 117.925C156.045 117.914 156.369 117.971 156.671 118.093C156.973 118.215 157.246 118.399 157.472 118.633C157.942 119.102 158.219 119.731 158.247 120.394C158.275 121.057 158.053 121.707 157.625 122.214Z" fill="#263238"/>
<path d="M162.189 136.516C161.384 137.015 160.257 135.421 159.283 134.351C158.309 133.28 155.259 132.274 153.649 135.783C152.04 139.292 154.808 142.673 157.062 143.888C159.975 145.497 162.438 142.375 162.438 142.375L162.784 159.276C164.659 162.173 168.708 161.634 171.436 162.777C173.408 163.582 173.923 166.278 174.977 167.171C176.587 163.147 177.713 161.36 176.917 158.841V153.876C176.917 153.876 180.852 154.495 182.776 154.189C185.995 153.674 188.128 151.083 188.94 147.445C190.325 141.288 190.896 136.814 190.647 127.92C190.268 115.623 174.373 112.999 166.84 117.957C159.307 122.914 162.189 136.516 162.189 136.516Z" fill="#FFA8A7"/>
<path d="M174.953 167.179C173.987 165.706 174.358 162.527 172.861 161.843C171.098 161.038 163.967 158.97 162.648 153.948V152.459C162.648 152.459 161.843 152.387 161.304 153.546L158.986 158.688C159.146 160.178 159.618 161.617 160.371 162.912C161.124 164.207 162.141 165.329 163.356 166.205C165.661 167.906 168.396 168.929 171.251 169.159C171.251 169.159 171.806 163.96 172.498 163.879C173.191 163.799 173.311 166.431 174.953 167.179Z" fill="#BEBEBE"/>
<path d="M174.953 167.179C175.336 166.147 175.553 165.06 175.597 163.96C175.597 162.761 175.597 162.012 176.128 161.296C176.604 160.579 176.869 159.742 176.893 158.881C176.893 158.213 176.893 154.519 176.893 154.519C177.206 154.504 177.516 154.585 177.781 154.752C178.046 154.919 178.253 155.164 178.373 155.453C178.84 156.362 180.039 159.075 180.289 159.702C180.538 160.33 181.223 163.453 180.482 165.586C180.169 166.694 179.54 167.687 178.671 168.443C178.671 168.443 178.671 163.71 177.231 163.461C176.788 163.356 176.402 166.052 174.953 167.179Z" fill="#BEBEBE"/>
<path d="M167.17 128.79C167.006 129.572 166.703 130.319 166.277 130.995C165.609 132.033 164.571 132.894 164.305 134.101C164.223 134.844 164.21 135.593 164.265 136.339C164.291 136.712 164.216 137.086 164.048 137.42C163.879 137.755 163.623 138.037 163.307 138.238C161.698 138.987 161.513 136.234 159.283 134.351C158.607 133.788 158.527 132.435 158.39 131.623C158.14 130.15 158.004 128.645 157.891 127.148C157.794 125.884 157.666 124.597 157.666 123.325C157.605 121.892 157.718 120.457 158.004 119.051C158.937 115.39 162.221 113.337 165.754 112.46C168.828 111.695 172.031 111.736 175.186 111.454C178.341 111.172 181.625 110.52 184.112 108.597C184.659 108.178 185.375 107.671 185.963 108.034C186.138 108.173 186.279 108.351 186.375 108.553C186.471 108.755 186.52 108.977 186.518 109.201C186.695 110.718 186.502 112.257 185.955 113.683C186.439 113.88 186.957 113.978 187.48 113.971C188.002 113.964 188.518 113.853 188.997 113.643C189.971 113.289 190.88 112.742 191.878 112.444C192.013 112.39 192.161 112.373 192.305 112.396C192.406 112.432 192.498 112.489 192.577 112.562C192.656 112.636 192.719 112.724 192.763 112.822C193.42 113.926 193.811 115.167 193.906 116.448C194.001 117.729 193.797 119.014 193.311 120.202C192.433 122.311 189.625 123.896 187.572 124.653C184.729 125.55 181.736 125.873 178.768 125.603C175.082 125.409 171.581 123.687 167.879 123.566C167.733 123.546 167.586 123.583 167.468 123.671C167.424 123.729 167.393 123.795 167.377 123.866C167.36 123.937 167.358 124.01 167.372 124.082C167.507 125.653 167.439 127.235 167.17 128.79Z" fill="#263238"/>
<path d="M176.876 153.884C176.876 153.884 169.746 152.387 167.219 151.01C165.739 150.198 164.539 148.958 163.774 147.453C164.159 148.962 164.834 150.38 165.762 151.63C167.589 154.045 176.876 155.839 176.876 155.839V153.884Z" fill="#F28F8F"/>
<path d="M176.418 135.011C176.421 135.206 176.386 135.4 176.314 135.581C176.242 135.763 176.135 135.928 175.998 136.068C175.862 136.208 175.7 136.319 175.52 136.396C175.341 136.473 175.148 136.514 174.953 136.516C174.756 136.502 174.564 136.449 174.388 136.36C174.212 136.271 174.055 136.148 173.926 135.999C173.798 135.849 173.7 135.676 173.638 135.488C173.577 135.301 173.553 135.103 173.569 134.906C173.555 134.706 173.583 134.506 173.651 134.317C173.719 134.129 173.826 133.957 173.965 133.813C174.104 133.668 174.272 133.554 174.457 133.479C174.643 133.403 174.842 133.367 175.042 133.374C175.243 133.38 175.439 133.428 175.62 133.515C175.8 133.602 175.961 133.726 176.09 133.879C176.22 134.031 176.316 134.21 176.372 134.402C176.429 134.594 176.444 134.796 176.418 134.995V135.011Z" fill="#263238"/>
<path d="M174.301 129.24L171.194 130.914C170.991 130.471 170.961 129.967 171.11 129.503C171.259 129.038 171.576 128.646 171.999 128.403C172.204 128.298 172.428 128.236 172.657 128.221C172.887 128.206 173.117 128.239 173.333 128.318C173.55 128.396 173.747 128.519 173.914 128.678C174.08 128.837 174.212 129.028 174.301 129.24Z" fill="#263238"/>
<path d="M176.232 144.942L179.492 146.222C179.428 146.446 179.318 146.654 179.17 146.833C179.021 147.013 178.837 147.16 178.63 147.265C178.422 147.37 178.195 147.431 177.962 147.444C177.73 147.457 177.497 147.422 177.279 147.341C176.834 147.146 176.479 146.791 176.285 146.347C176.091 145.902 176.072 145.4 176.232 144.942Z" fill="#F28F8F"/>
<path d="M189.399 131.164L186.26 129.466C186.345 129.249 186.476 129.054 186.643 128.892C186.81 128.731 187.011 128.608 187.23 128.532C187.45 128.455 187.683 128.427 187.914 128.449C188.146 128.472 188.369 128.544 188.57 128.661C188.993 128.902 189.312 129.291 189.465 129.753C189.618 130.216 189.594 130.718 189.399 131.164Z" fill="#263238"/>
<path d="M188.345 135.164C188.348 135.346 188.315 135.527 188.248 135.696C188.181 135.865 188.081 136.019 187.953 136.15C187.826 136.28 187.674 136.384 187.507 136.455C187.339 136.526 187.159 136.563 186.977 136.564C186.608 136.537 186.265 136.366 186.022 136.087C185.779 135.808 185.657 135.444 185.681 135.075C185.674 134.892 185.705 134.709 185.772 134.539C185.839 134.368 185.94 134.213 186.07 134.083C186.199 133.953 186.354 133.851 186.524 133.784C186.695 133.716 186.877 133.684 187.061 133.691C187.244 133.697 187.424 133.74 187.589 133.819C187.755 133.898 187.903 134.01 188.023 134.148C188.144 134.286 188.234 134.448 188.29 134.622C188.345 134.797 188.364 134.981 188.345 135.164Z" fill="#263238"/>
<path d="M181.464 133.82L181.368 142.85L186.526 141.82L181.464 133.82Z" fill="#F28F8F"/>
<path d="M207.508 180.024L182.462 185.601L177.681 205.754L179.017 206.856L204.401 200.683L208.844 181.126L207.508 180.024Z" fill="#455A64"/>
<path d="M183.798 186.704L182.462 185.601L177.681 205.754L179.017 206.856L183.798 186.704Z" fill="#37474F"/>
<path d="M179.017 206.856L183.798 186.704L208.843 181.126L204.401 200.683L179.017 206.856Z" fill="#263238"/>
<path d="M204.401 200.683L193.142 208.627L173.786 212.675L179.017 206.856L204.401 200.683Z" fill="#37474F"/>
<path d="M136.185 220.184C144.129 221.053 152.282 220.498 160.241 219.902C170.824 219.097 184.482 217.166 192.007 210.341C193.476 208.952 194.536 207.187 195.073 205.239C195.666 203.091 195.8 200.842 195.468 198.639C195.41 197.798 195.06 197.003 194.478 196.394C194.008 196.076 193.461 195.89 192.895 195.856C192.328 195.822 191.763 195.941 191.258 196.201C187.677 197.617 185.906 201.553 182.406 203.21C181.73 203.532 180.402 204.015 179.718 203.476C179.033 202.937 178.848 201.464 178.856 200.563C178.946 199.598 178.881 198.625 178.663 197.681C178.553 197.133 178.316 196.617 177.971 196.176C177.581 195.742 177.052 195.457 176.474 195.372C176.35 195.34 176.22 195.34 176.096 195.372C175.621 195.573 175.645 196.329 175.565 196.74C175.322 197.866 174.986 198.97 174.559 200.039C173.802 202.052 172.522 204.385 170.671 205.617C169.209 206.472 167.536 206.899 165.843 206.848H165.408C162.269 206.848 158.913 206.639 156.024 206.486C152 206.269 147.855 205.85 143.815 205.633L151.477 178.865L150.471 160.644C141.449 163.437 139.767 162.205 134.133 183.324C128.499 204.442 126.89 207.693 126.528 211.242C126.165 214.792 127.043 219.178 136.185 220.184Z" fill="#FFA8A7"/>
<path d="M151.034 160.346C147.907 160.257 144.833 161.162 142.253 162.931C139.673 164.699 137.72 167.241 136.676 170.189C133.723 178.374 129.433 195.669 128.137 201.432C126.745 207.669 125.151 216.538 126.528 217.939C129.578 221.013 132.322 220.763 138.117 221.077C143.372 221.367 162.446 219.749 162.446 219.749C162.446 219.749 159.155 214.285 163.356 206.872L144.394 205.408C144.394 205.408 151.686 182.326 151.823 182.028C151.96 181.73 157.263 169.859 151.034 160.346Z" fill="#D6D6D6"/>
<path d="M144.362 205.424C141.736 205.007 139.061 205.007 136.435 205.424C136.435 205.424 138.439 203.452 144.998 203.283L144.362 205.424Z" fill="#BEBEBE"/>
</svg>
