<svg width="506" height="433" viewBox="0 0 506 433" fill="none" xmlns="http://www.w3.org/2000/svg">
<g filter="url(#filter0_d_2273_10386)">
<path d="M90.9382 409.777C81.1521 419.678 65.0529 419.747 56.3212 408.905C30.9182 377.363 13.4244 339.916 5.5294 299.761C-4.00539 251.266 0.888208 200.999 19.5914 155.318C38.2945 109.636 69.9672 70.5915 110.604 43.1211C151.241 15.6508 199.017 0.988525 247.891 0.988525C296.765 0.988526 344.541 15.6508 385.178 43.1211C425.815 70.5915 457.488 109.636 476.191 155.318C494.894 200.999 499.788 251.266 490.253 299.761C482.358 339.916 464.864 377.363 439.461 408.905C430.729 419.747 414.63 419.678 404.844 409.777L354.189 358.53C344.563 348.791 344.812 333.221 352.372 321.804C361.549 307.946 367.988 292.328 371.236 275.81C376.088 251.13 373.598 225.548 364.079 202.299C354.561 179.05 338.442 159.179 317.76 145.199C297.079 131.219 272.764 123.756 247.891 123.756C223.018 123.756 198.703 131.219 178.022 145.199C157.341 159.179 141.221 179.05 131.703 202.299C122.184 225.548 119.694 251.13 124.546 275.81C127.794 292.328 134.233 307.946 143.41 321.804C150.97 333.221 151.22 348.791 141.593 358.53L90.9382 409.777Z" fill="#BDFFC3"/>
</g>
<path d="M362.811 346.027L374.345 352.767C374.185 348.603 373.832 342.407 374.395 338.242C377.882 312.745 387.694 304.348 392.364 291.94C397.279 278.868 391.281 274.67 383.493 277.015C376.554 279.115 366.507 289.509 363.331 308.53C361.273 321.168 361.609 334.936 362.811 346.027Z" fill="#295F2B"/>
<path opacity="0.65" d="M362.811 346.027L374.345 352.767C374.185 348.603 373.832 342.407 374.395 338.242C377.882 312.745 387.694 304.348 392.364 291.94C397.279 278.868 391.281 274.67 383.493 277.015C376.554 279.115 366.507 289.509 363.331 308.53C361.273 321.168 361.609 334.936 362.811 346.027Z" fill="white"/>
<path d="M368.926 349.597L370.077 350.277C365.952 320.53 375.958 294.778 385.913 284.129C385.959 284.082 385.997 284.027 386.022 283.965C386.047 283.904 386.06 283.838 386.06 283.772C386.06 283.706 386.047 283.64 386.022 283.579C385.997 283.517 385.959 283.462 385.913 283.415C385.817 283.319 385.687 283.264 385.551 283.264C385.416 283.264 385.286 283.319 385.19 283.415C375.269 294.081 365.23 320.029 368.926 349.597Z" fill="white"/>
<path d="M371.102 350.914L377.587 354.705C381.032 344.43 384.577 340.316 388.979 333.559C392.986 327.406 397.64 323.598 400.118 319.281C402.311 315.448 403.957 310.637 400.698 307.731C395.515 303.099 388.744 308.003 384.09 313.298C380.083 317.836 371.993 330.024 371.102 350.914Z" fill="#295F2B"/>
<path opacity="0.3" d="M371.102 350.914L377.587 354.705C381.032 344.43 384.577 340.316 388.979 333.559C392.986 327.406 397.64 323.598 400.118 319.281C402.311 315.448 403.957 310.637 400.698 307.731C395.515 303.099 388.744 308.003 384.09 313.298C380.083 317.836 371.993 330.024 371.102 350.914Z" fill="white"/>
<path d="M373.765 352.427L374.706 352.98C377.428 336.729 388.34 317.93 395.12 313.493C395.177 313.455 395.227 313.406 395.266 313.349C395.304 313.292 395.332 313.227 395.346 313.159C395.36 313.091 395.36 313.021 395.347 312.953C395.335 312.885 395.309 312.82 395.271 312.762C395.235 312.703 395.188 312.653 395.132 312.613C395.076 312.573 395.013 312.545 394.946 312.531C394.88 312.517 394.811 312.516 394.744 312.53C394.677 312.543 394.613 312.57 394.557 312.609C387.542 317.216 376.655 335.922 373.765 352.427Z" fill="white"/>
<path d="M184.303 73.7524L114.737 114.386V222.944L184.303 182.31V73.7524Z" fill="#FAFAFA"/>
<path d="M112.082 221.389L114.737 222.944V114.386L112.082 112.839V221.389Z" fill="#37474F"/>
<path d="M184.303 73.7524L181.649 72.2056L112.082 112.839L114.737 114.386L184.303 73.7524Z" fill="#455A64"/>
<g opacity="0.1">
<path d="M114.737 125.401V131.699L126.716 107.383L122.356 109.933L114.737 125.401Z" fill="#295F2B"/>
<path d="M141.829 98.5526L132.605 103.949L114.737 140.198V153.533L141.829 98.5526Z" fill="#295F2B"/>
<path d="M159.471 88.2517L155.111 90.8014L114.737 172.715V179.013L159.471 88.2517Z" fill="#295F2B"/>
<path d="M184.303 158.122L167.578 192.076L176.793 186.687L184.303 171.457V158.122Z" fill="#295F2B"/>
<path d="M184.303 90.3425L120.399 219.63L124.767 217.08L184.303 96.6147V90.3425Z" fill="#295F2B"/>
<path d="M184.303 73.7524L169.106 82.6254L114.728 192.917V215.576L184.303 74.4663V73.7524Z" fill="#295F2B"/>
<path d="M184.303 115.474L138.024 209.337L153.725 200.167L184.303 138.15V115.474Z" fill="#295F2B"/>
</g>
<g opacity="0.3">
<path d="M182.951 76.1151V181.503L116.081 220.556V115.168L182.951 76.0726M184.303 73.7099L114.737 114.386V222.944L184.303 182.31V73.7524V73.7099Z" fill="#295F2B"/>
</g>
<path d="M281.55 284.103L273.376 279.327L281.55 276.497V284.103Z" fill="black"/>
<path d="M231.952 305.453V313.077L196.619 292.433V284.817L231.952 305.453Z" fill="black"/>
<path d="M192.527 192.841L227.861 213.485V307.85L192.527 287.206V192.841Z" fill="#263238"/>
<path d="M227.861 213.485L289.724 177.356V271.72L227.861 307.85V213.485Z" fill="#37474F"/>
<path d="M289.724 177.356L254.391 156.975L192.527 192.841L227.861 213.485L289.724 177.356Z" fill="#455A64"/>
<path d="M231.952 267.241L285.641 235.897V269.332L231.952 300.685V267.241Z" fill="#263238"/>
<path d="M231.952 313.077L236.043 310.688V303.073L231.952 305.453V313.077Z" fill="#37474F"/>
<path d="M281.55 284.104L285.641 281.715V274.109L281.55 276.497V284.104Z" fill="#37474F"/>
<path d="M231.952 215.873L285.641 184.52V206.618L231.952 237.962V215.873Z" fill="#455A64"/>
<path d="M236.186 233.245V232.565C236.233 232.197 236.191 231.822 236.062 231.474C235.933 231.126 235.722 230.815 235.447 230.568C235.287 230.491 235.11 230.46 234.934 230.476C234.758 230.492 234.59 230.557 234.447 230.662L233.876 230.993V220.59L234.069 220.48C235.212 219.808 236.186 217.701 236.186 215.873V215.644L236.379 215.533L281.407 189.246V189.917C281.359 190.287 281.4 190.662 281.527 191.012C281.654 191.361 281.864 191.674 282.138 191.923C282.299 191.996 282.475 192.025 282.65 192.009C282.825 191.992 282.993 191.931 283.138 191.83L283.718 191.49V201.892L283.524 202.003C282.374 202.674 281.407 204.791 281.407 206.618V206.839L281.214 206.949L236.186 233.245ZM235.069 229.684C235.338 229.682 235.603 229.756 235.833 229.897C236.164 230.122 236.437 230.424 236.629 230.777C236.822 231.13 236.929 231.525 236.942 231.928L280.626 206.431C280.642 205.49 280.855 204.563 281.252 203.711C281.649 202.86 282.22 202.104 282.928 201.493V192.747C282.526 192.857 282.098 192.802 281.735 192.594C281.415 192.363 281.151 192.06 280.965 191.71C280.778 191.359 280.674 190.97 280.66 190.572L236.934 216.069C236.919 217.011 236.706 217.939 236.307 218.791C235.909 219.642 235.335 220.398 234.624 221.007V229.718C234.77 229.686 234.92 229.674 235.069 229.684Z" fill="#37474F"/>
<path d="M253.744 210.68C253.744 211.335 255.701 210.731 258.104 209.329L259.481 208.479C261.892 207.077 263.841 205.402 263.841 204.74V203.55L253.761 209.44L253.744 210.68Z" fill="#263238"/>
<path d="M231.952 241.591L285.641 210.247V232.344L231.952 263.689V241.591Z" fill="#455A64"/>
<path d="M236.186 258.972V258.275C236.235 257.906 236.193 257.531 236.064 257.183C235.935 256.834 235.723 256.523 235.447 256.278C235.288 256.201 235.111 256.169 234.936 256.184C234.76 256.199 234.592 256.261 234.447 256.363L233.876 256.703V246.317L234.069 246.206C235.212 245.535 236.186 243.427 236.186 241.591V241.37L236.379 241.26L281.407 214.93V215.61C281.358 215.978 281.398 216.353 281.526 216.701C281.653 217.049 281.864 217.361 282.138 217.607C282.298 217.683 282.474 217.716 282.649 217.701C282.825 217.686 282.994 217.624 283.138 217.522L283.718 217.182V227.585L283.524 227.695C282.374 228.367 281.407 230.475 281.407 232.302V232.531L281.214 232.642L236.186 258.972ZM235.069 255.411C235.337 255.41 235.601 255.48 235.833 255.615C236.158 255.842 236.425 256.144 236.613 256.495C236.802 256.847 236.906 257.238 236.917 257.637L280.601 232.14C280.616 231.199 280.828 230.272 281.225 229.42C281.622 228.569 282.194 227.813 282.903 227.202V218.465C282.502 218.578 282.073 218.526 281.71 218.321C281.388 218.089 281.124 217.785 280.938 217.432C280.751 217.08 280.648 216.689 280.635 216.29L236.909 241.787C236.893 242.729 236.68 243.657 236.281 244.508C235.883 245.36 235.309 246.116 234.598 246.725V255.428C234.754 255.403 234.912 255.397 235.069 255.411Z" fill="#37474F"/>
<path d="M253.744 236.364C253.744 237.027 255.701 236.424 258.104 235.013L259.481 234.214C261.892 232.803 263.841 231.129 263.841 230.475V229.276L253.761 235.175L253.744 236.364Z" fill="#263238"/>
<path opacity="0.2" d="M285.641 269.332L257.012 252.615L231.952 267.241V300.685L285.641 269.332Z" fill="black"/>
<path opacity="0.2" d="M235.842 181.656C237.765 182.787 237.765 184.614 235.842 185.736C234.761 186.293 233.565 186.584 232.351 186.584C231.138 186.584 229.942 186.293 228.861 185.736C226.928 184.614 226.928 182.787 228.861 181.656C229.943 181.103 231.139 180.814 232.351 180.814C233.564 180.814 234.759 181.103 235.842 181.656Z" fill="black"/>
<path d="M236.589 183.11V178.953H228.096V183.11C228.1 183.522 228.219 183.925 228.439 184.272C228.658 184.619 228.971 184.897 229.34 185.073C230.272 185.551 231.302 185.8 232.347 185.8C233.392 185.8 234.422 185.551 235.354 185.073C235.721 184.895 236.031 184.617 236.249 184.27C236.468 183.923 236.585 183.521 236.589 183.11Z" fill="#295F2B"/>
<path d="M228.096 183.109C228.1 183.522 228.219 183.925 228.439 184.272C228.658 184.619 228.971 184.897 229.34 185.073C230.272 185.551 231.302 185.8 232.347 185.8C233.392 185.8 234.422 185.551 235.354 185.073C235.721 184.895 236.031 184.617 236.249 184.27C236.468 183.923 236.585 183.521 236.589 183.109" fill="#295F2B"/>
<path opacity="0.15" d="M235.354 183.73C234.422 184.208 233.392 184.457 232.347 184.457C231.302 184.457 230.272 184.208 229.34 183.73C228.97 183.555 228.657 183.278 228.437 182.93C228.217 182.583 228.099 182.179 228.096 181.767V182.107C228.1 182.518 228.218 182.92 228.438 183.266C228.658 183.612 228.971 183.888 229.34 184.061C230.272 184.539 231.302 184.788 232.347 184.788C233.392 184.788 234.422 184.539 235.354 184.061C235.721 183.886 236.031 183.609 236.25 183.264C236.468 182.918 236.586 182.517 236.589 182.107V181.784C236.583 182.192 236.464 182.591 236.246 182.935C236.028 183.279 235.719 183.554 235.354 183.73Z" fill="black"/>
<path d="M226.945 152.114C226.956 151.912 227.015 151.716 227.116 151.541C227.216 151.367 227.357 151.219 227.525 151.111L237.177 145.467C237.488 145.289 237.749 145.467 237.749 145.807V148.289L226.945 154.587V152.114Z" fill="#295F2B"/>
<path d="M238.076 178.953L237.782 148.289L226.945 154.587L226.618 178.945C226.666 179.454 226.847 179.941 227.142 180.356C227.437 180.771 227.836 181.1 228.298 181.308C229.552 181.953 230.94 182.29 232.347 182.29C233.754 182.29 235.142 181.953 236.396 181.308C236.858 181.102 237.257 180.775 237.552 180.361C237.847 179.947 238.028 179.462 238.076 178.953Z" fill="#295F2B"/>
<path opacity="0.35" d="M238.076 178.953L237.782 148.289L226.945 154.587L226.618 178.945C226.666 179.454 226.847 179.941 227.142 180.356C227.437 180.771 227.836 181.1 228.298 181.308C229.552 181.953 230.94 182.29 232.347 182.29C233.754 182.29 235.142 181.953 236.396 181.308C236.858 181.102 237.257 180.775 237.552 180.361C237.847 179.947 238.028 179.462 238.076 178.953Z" fill="white"/>
<path d="M235.321 163.256C236.245 162.72 237.001 163.154 237.001 164.233C236.97 164.821 236.801 165.394 236.509 165.903C236.217 166.413 235.81 166.846 235.321 167.165C234.397 167.709 233.641 167.267 233.641 166.188C233.673 165.6 233.843 165.028 234.134 164.519C234.426 164.009 234.833 163.577 235.321 163.256Z" fill="#295F2B"/>
<path d="M232.087 169.97C231.717 169.97 231.423 170.14 231.423 170.395C231.423 170.65 231.717 170.888 232.087 170.896C233.545 170.959 234.994 170.631 236.287 169.944C236.745 169.741 237.142 169.418 237.437 169.009C237.732 168.6 237.915 168.119 237.967 167.616V166.672C237.92 167.179 237.74 167.663 237.444 168.074C237.148 168.486 236.749 168.809 236.287 169.01C234.996 169.702 233.546 170.034 232.087 169.97Z" fill="#295F2B"/>
<path opacity="0.2" d="M251.509 173.285C253.441 174.407 253.441 176.234 251.509 177.364C250.427 177.918 249.231 178.206 248.019 178.206C246.806 178.206 245.61 177.918 244.528 177.364C242.596 176.234 242.596 174.407 244.528 173.285C245.609 172.727 246.805 172.437 248.019 172.437C249.232 172.437 250.428 172.727 251.509 173.285Z" fill="black"/>
<path d="M252.257 174.704V170.539H243.764V174.704C243.767 175.115 243.886 175.517 244.106 175.863C244.326 176.209 244.638 176.485 245.007 176.659C245.941 177.137 246.972 177.386 248.019 177.386C249.065 177.386 250.097 177.137 251.03 176.659C251.395 176.482 251.704 176.205 251.921 175.859C252.138 175.514 252.254 175.113 252.257 174.704Z" fill="#295F2B"/>
<path d="M243.764 174.704C243.767 175.115 243.886 175.517 244.106 175.863C244.326 176.209 244.638 176.485 245.007 176.659C245.941 177.137 246.972 177.386 248.019 177.386C249.065 177.386 250.097 177.137 251.03 176.659C251.395 176.482 251.704 176.205 251.921 175.859C252.138 175.514 252.254 175.113 252.257 174.704" fill="#295F2B"/>
<path opacity="0.15" d="M251.03 175.316C250.097 175.794 249.065 176.043 248.019 176.043C246.972 176.043 245.941 175.794 245.007 175.316C244.638 175.142 244.326 174.867 244.106 174.521C243.886 174.175 243.767 173.773 243.764 173.361V173.693C243.766 174.105 243.885 174.509 244.105 174.856C244.325 175.204 244.638 175.481 245.007 175.656C245.941 176.134 246.972 176.383 248.019 176.383C249.065 176.383 250.097 176.134 251.03 175.656C251.395 175.477 251.704 175.198 251.92 174.851C252.137 174.504 252.254 174.103 252.257 173.693V173.361C252.254 173.771 252.138 174.171 251.921 174.516C251.704 174.862 251.395 175.139 251.03 175.316Z" fill="black"/>
<path d="M242.621 143.708C242.631 143.506 242.688 143.309 242.787 143.133C242.886 142.957 243.025 142.808 243.192 142.697L252.845 137.062C253.164 136.875 253.416 137.062 253.416 137.402V139.883L242.621 146.19V143.708Z" fill="#295F2B"/>
<path d="M253.744 170.539L253.416 139.883L242.621 146.19L242.293 170.539C242.34 171.05 242.52 171.539 242.815 171.956C243.11 172.373 243.51 172.703 243.974 172.911C245.231 173.552 246.619 173.886 248.027 173.886C249.435 173.886 250.823 173.552 252.08 172.911C252.541 172.7 252.937 172.37 253.229 171.953C253.522 171.536 253.699 171.048 253.744 170.539Z" fill="#F0F0F0"/>
<path d="M250.988 154.85C251.912 154.315 252.668 154.748 252.668 155.828C252.636 156.416 252.467 156.987 252.175 157.497C251.883 158.006 251.476 158.439 250.988 158.76C250.064 159.295 249.308 158.862 249.308 157.782C249.341 157.195 249.51 156.623 249.802 156.113C250.094 155.604 250.5 155.171 250.988 154.85Z" fill="#295F2B"/>
<path d="M247.754 161.556C247.384 161.556 247.09 161.735 247.09 161.989C247.09 162.244 247.384 162.482 247.754 162.491C249.214 162.555 250.664 162.223 251.954 161.531C252.413 161.33 252.811 161.01 253.106 160.602C253.402 160.194 253.584 159.713 253.635 159.21V158.267C253.586 158.773 253.405 159.256 253.109 159.667C252.814 160.078 252.415 160.402 251.954 160.604C250.662 161.29 249.213 161.619 247.754 161.556Z" fill="#295F2B"/>
<path d="M89.9531 285.038L125.287 305.674V339.339L89.9531 318.694V285.038Z" fill="#263238"/>
<path d="M125.287 305.674L227.86 245.968V279.633L125.287 339.339V305.674Z" fill="#37474F"/>
<path d="M227.86 245.968L192.527 225.588L89.9531 285.038L125.287 305.674L227.86 245.968Z" fill="#455A64"/>
<path d="M148.103 260.366C147.073 260.394 146.053 260.157 145.138 259.677L120.448 245.229C120.239 245.123 120.056 244.972 119.91 244.787C120.061 244.607 120.243 244.457 120.448 244.345L169.609 215.635C170.534 215.182 171.548 214.947 172.575 214.947C173.602 214.947 174.616 215.182 175.54 215.635L200.23 230.084C200.437 230.196 200.622 230.346 200.776 230.526C200.622 230.705 200.437 230.855 200.23 230.968L151.069 259.677C150.154 260.158 149.133 260.394 148.103 260.366Z" fill="#F0F0F0"/>
<path d="M200.818 230.526C200.664 230.705 200.479 230.855 200.272 230.968V257.272L175.582 242.824C174.666 242.346 173.647 242.109 172.617 242.135V214.938C173.647 214.908 174.668 215.145 175.582 215.627L200.272 230.075C200.48 230.19 200.665 230.343 200.818 230.526Z" fill="#E0E0E0"/>
<path d="M148.103 287.554C147.073 287.582 146.053 287.345 145.138 286.866L120.448 272.417C120.239 272.311 120.056 272.16 119.91 271.975C120.061 271.795 120.243 271.645 120.448 271.533L169.609 242.824C170.534 242.371 171.548 242.135 172.575 242.135C173.602 242.135 174.616 242.371 175.54 242.824L200.23 257.272C200.437 257.385 200.622 257.534 200.776 257.714C200.622 257.893 200.437 258.043 200.23 258.156L151.069 286.866C150.154 287.346 149.133 287.583 148.103 287.554Z" fill="#F5F5F5"/>
<path d="M202.994 256.881C202.886 257.33 202.678 257.748 202.387 258.104C202.096 258.461 201.729 258.746 201.314 258.938L152.178 287.648C150.915 288.297 149.519 288.635 148.103 288.635C146.687 288.635 145.291 288.297 144.029 287.648L119.331 273.242C118.869 273.031 118.471 272.7 118.176 272.284C117.881 271.868 117.7 271.38 117.65 270.87C117.65 270.021 117.65 245.688 117.65 244.821C117.696 245.333 117.876 245.823 118.171 246.242C118.466 246.66 118.867 246.991 119.331 247.201L144.012 261.649C145.304 262.342 146.751 262.682 148.212 262.635C148.212 267.054 148.212 283.33 148.212 288.659C149.594 288.671 150.957 288.335 152.178 287.682L201.339 258.963C201.751 258.764 202.114 258.473 202.401 258.113C202.687 257.752 202.89 257.331 202.994 256.881Z" fill="#E0E0E0"/>
<path d="M203.028 256.575C202.978 257.086 202.796 257.574 202.502 257.992C202.207 258.41 201.809 258.742 201.347 258.955L152.186 287.673C150.965 288.327 149.602 288.663 148.221 288.65C148.221 283.322 148.221 267.046 148.221 262.626C149.604 262.641 150.968 262.302 152.186 261.641L162.595 255.564L164.636 254.374C164.636 258.139 165.678 260.961 167.383 262.575C169.114 263.102 171.189 262.788 173.415 261.488C178.833 258.317 183.328 250.439 184.235 242.926L186.612 241.532L201.331 232.931C201.777 232.726 202.165 232.411 202.459 232.015C202.753 231.618 202.942 231.152 203.011 230.662C203.028 232.2 203.019 255.725 203.028 256.575Z" fill="#F0F0F0"/>
<path d="M201.339 228.146L176.649 213.698C175.387 213.048 173.991 212.71 172.575 212.71C171.159 212.71 169.763 213.048 168.5 213.698L119.331 242.441C118.855 242.626 118.446 242.953 118.158 243.377C117.87 243.802 117.715 244.306 117.715 244.821C117.715 245.336 117.87 245.84 118.158 246.264C118.446 246.689 118.855 247.016 119.331 247.201L144.012 261.649C145.274 262.298 146.67 262.637 148.086 262.637C149.503 262.637 150.899 262.298 152.161 261.649L162.569 255.572L164.611 254.382L162.393 253.09L151.052 259.72C150.126 260.167 149.113 260.399 148.086 260.399C147.06 260.399 146.047 260.167 145.121 259.72L120.431 245.271C120.222 245.165 120.039 245.014 119.893 244.829C120.043 244.65 120.225 244.503 120.431 244.396L169.592 215.678C170.517 215.225 171.531 214.99 172.558 214.99C173.585 214.99 174.599 215.225 175.523 215.678L200.213 230.126C200.42 230.239 200.605 230.389 200.759 230.568C200.605 230.748 200.42 230.897 200.213 231.01L184.378 240.257L186.596 241.549L201.322 232.948C201.798 232.763 202.206 232.436 202.495 232.012C202.783 231.587 202.938 231.083 202.938 230.568C202.938 230.053 202.783 229.549 202.495 229.125C202.206 228.7 201.798 228.373 201.322 228.188L201.339 228.146Z" fill="#FAFAFA"/>
<path d="M186.612 241.506C186.612 249.699 181.69 259.21 175.616 262.754C172.339 264.675 169.391 264.454 167.375 262.55C169.105 263.077 171.18 262.762 173.406 261.462C178.825 258.292 183.319 250.413 184.227 242.9C184.34 242.01 184.396 241.112 184.395 240.214L186.604 241.506H186.612Z" fill="#E6E6E6"/>
<path d="M148.607 213.647C148.325 213.516 148.014 213.464 147.706 213.495C147.397 213.526 147.102 213.64 146.852 213.825C146.129 214.302 145.528 214.944 145.097 215.7C144.667 216.457 144.419 217.305 144.373 218.177C144.34 218.49 144.389 218.807 144.518 219.094C144.647 219.381 144.849 219.627 145.104 219.808L145.65 220.123C145.931 220.255 146.242 220.31 146.551 220.28C146.86 220.25 147.155 220.137 147.406 219.953C148.135 219.479 148.742 218.838 149.18 218.082C149.618 217.326 149.874 216.476 149.926 215.601C149.958 215.288 149.907 214.972 149.779 214.685C149.651 214.399 149.449 214.152 149.195 213.969L148.607 213.647Z" fill="#37474F"/>
<path d="M144.39 217.786C144.39 217.922 144.39 218.049 144.39 218.176C144.356 218.49 144.406 218.806 144.535 219.094C144.663 219.381 144.866 219.627 145.121 219.808L145.667 220.123C145.948 220.255 146.259 220.31 146.568 220.28C146.877 220.25 147.172 220.137 147.423 219.953L147.742 219.732L144.39 217.786Z" fill="#263238"/>
<path d="M144.919 218.499C144.919 220.097 146.037 220.752 147.44 219.953C148.168 219.479 148.776 218.838 149.214 218.082C149.652 217.326 149.907 216.476 149.96 215.601C149.96 213.995 148.843 213.349 147.44 214.148C146.71 214.62 146.101 215.261 145.663 216.017C145.225 216.774 144.97 217.624 144.919 218.499Z" fill="#455A64"/>
<path d="M150.413 220.48C150.528 220.534 150.654 220.556 150.78 220.544C150.905 220.532 151.025 220.487 151.128 220.412C151.421 220.218 151.666 219.957 151.841 219.65C152.016 219.343 152.117 218.998 152.136 218.644C152.15 218.518 152.13 218.391 152.078 218.275C152.027 218.16 151.945 218.061 151.842 217.99L148.145 215.831C148.03 215.78 147.903 215.761 147.778 215.774C147.653 215.788 147.534 215.833 147.431 215.907C147.137 216.101 146.893 216.362 146.718 216.669C146.543 216.976 146.442 217.321 146.423 217.675C146.409 217.801 146.428 217.928 146.48 218.044C146.532 218.159 146.614 218.258 146.717 218.329L150.413 220.48Z" fill="#455A64"/>
<path opacity="0.1" d="M152.144 218.389L147.7 215.839C147.617 215.86 147.537 215.895 147.465 215.941C147.385 215.989 147.31 216.043 147.238 216.103L152.102 218.933H152.152C152.157 218.857 152.157 218.78 152.152 218.703C152.164 218.599 152.161 218.493 152.144 218.389Z" fill="white"/>
<path d="M151.161 220.412C151.29 220.333 151.408 220.239 151.514 220.131L149.405 218.899C148.641 218.448 147.095 217.641 146.986 217.038C146.951 216.807 146.986 216.572 147.087 216.362C147.187 216.153 147.348 215.979 147.549 215.865L147.465 215.907C147.171 216.101 146.927 216.362 146.751 216.669C146.576 216.976 146.475 217.321 146.457 217.675C146.442 217.801 146.462 217.928 146.514 218.044C146.566 218.159 146.648 218.258 146.751 218.329L150.447 220.48C150.561 220.534 150.688 220.556 150.813 220.544C150.939 220.532 151.059 220.487 151.161 220.412Z" fill="#37474F"/>
<path d="M156.294 221.049C156.301 220.85 156.239 220.654 156.118 220.497L156.059 220.446H156.017C155.231 219.643 154.388 218.899 153.497 218.219C152.522 217.65 152.186 218.219 151.816 218.024C151.701 217.973 151.575 217.954 151.449 217.967C151.324 217.98 151.205 218.026 151.102 218.1C150.809 218.294 150.564 218.555 150.389 218.862C150.214 219.169 150.113 219.514 150.094 219.868C150.08 219.994 150.1 220.121 150.151 220.236C150.203 220.352 150.285 220.45 150.388 220.522C150.733 220.726 151.06 221.687 152.068 222.222C153.077 222.757 154.194 222.689 154.589 222.902C154.703 222.956 154.829 222.979 154.955 222.967C155.08 222.955 155.201 222.909 155.303 222.834C155.595 222.639 155.838 222.378 156.013 222.071C156.188 221.764 156.29 221.42 156.311 221.066L156.294 221.049Z" fill="#455A64"/>
<path opacity="0.1" d="M155.614 221.075C155.702 221.103 155.797 221.107 155.888 221.088C155.979 221.069 156.064 221.026 156.134 220.964C156.108 220.844 156.057 220.731 155.983 220.633L155.933 220.573H155.891C155.538 220.361 154.479 219.069 153.371 218.347C153.119 218.163 152.833 218.033 152.53 217.964C152.362 217.964 152.236 218.041 152.11 218.058C152.466 218.126 152.803 218.269 153.101 218.476C153.399 218.684 153.651 218.953 153.841 219.264C154.302 219.985 154.905 220.602 155.614 221.075Z" fill="white"/>
<path d="M155.219 222.825C154.607 222.522 153.965 222.286 153.303 222.12C152.839 221.911 152.432 221.59 152.117 221.186C151.802 220.782 151.589 220.306 151.497 219.8C151.363 218.865 151.564 218.032 152.068 218.024C152.005 218.043 151.938 218.043 151.875 218.024C151.76 217.973 151.633 217.954 151.508 217.967C151.383 217.98 151.264 218.026 151.161 218.1C150.867 218.294 150.623 218.555 150.448 218.862C150.273 219.169 150.172 219.514 150.153 219.868C150.139 219.994 150.158 220.121 150.21 220.236C150.262 220.352 150.344 220.45 150.447 220.522C150.791 220.726 151.119 221.687 152.127 222.222C153.135 222.757 154.253 222.69 154.647 222.902C154.751 222.953 154.866 222.976 154.981 222.968C155.096 222.961 155.207 222.923 155.303 222.859L155.219 222.825Z" fill="#37474F"/>
<path d="M155.109 226.038C155.124 226.188 155.177 226.332 155.264 226.455C155.351 226.577 155.469 226.674 155.605 226.735C155.977 226.927 156.389 227.028 156.806 227.028C157.224 227.028 157.636 226.927 158.008 226.735C158.144 226.674 158.262 226.577 158.349 226.455C158.436 226.332 158.489 226.188 158.503 226.038V224.653C158.489 224.503 158.436 224.359 158.349 224.236C158.262 224.114 158.144 224.017 158.008 223.956C157.636 223.763 157.224 223.663 156.806 223.663C156.389 223.663 155.977 223.763 155.605 223.956C155.469 224.017 155.351 224.114 155.264 224.236C155.177 224.359 155.124 224.503 155.109 224.653V226.038Z" fill="#37474F"/>
<path d="M158.503 224.653C158.489 224.503 158.436 224.359 158.349 224.236C158.262 224.114 158.144 224.017 158.008 223.956C157.636 223.763 157.224 223.663 156.806 223.663C156.389 223.663 155.977 223.763 155.605 223.956C155.46 224.005 155.333 224.099 155.244 224.225C155.154 224.351 155.106 224.502 155.106 224.657C155.106 224.812 155.154 224.963 155.244 225.089C155.333 225.215 155.46 225.309 155.605 225.358C155.977 225.551 156.389 225.651 156.806 225.651C157.224 225.651 157.636 225.551 158.008 225.358C158.145 225.296 158.264 225.198 158.351 225.074C158.438 224.95 158.491 224.804 158.503 224.653Z" fill="#455A64"/>
<path d="M158.226 224.551V223.701C158.229 223.102 158.074 222.513 157.779 221.993C157.484 221.474 157.059 221.043 156.546 220.743L156.042 220.446C155.927 220.386 155.798 220.359 155.67 220.368C155.541 220.377 155.417 220.421 155.311 220.497C155.018 220.691 154.774 220.952 154.599 221.259C154.424 221.566 154.322 221.911 154.303 222.265C154.288 222.392 154.307 222.52 154.359 222.637C154.411 222.754 154.493 222.854 154.597 222.927L154.958 223.14C155.089 223.214 155.198 223.323 155.274 223.455C155.349 223.586 155.388 223.736 155.387 223.888V224.585C155.4 224.711 155.445 224.832 155.519 224.935C155.593 225.038 155.692 225.12 155.807 225.171C156.12 225.33 156.465 225.413 156.815 225.413C157.165 225.413 157.51 225.33 157.823 225.171C157.941 225.116 158.041 225.029 158.112 224.919C158.183 224.809 158.223 224.682 158.226 224.551Z" fill="#455A64"/>
<path opacity="0.1" d="M158.075 223.709C158.069 223.119 157.91 222.54 157.616 222.031C157.321 221.521 156.9 221.098 156.395 220.803L155.605 220.344L155.051 220.667L156.025 221.245C156.468 221.503 156.837 221.875 157.095 222.322C157.353 222.769 157.491 223.277 157.495 223.794V225.239C157.6 225.207 157.701 225.164 157.798 225.112C157.896 225.057 157.984 224.985 158.058 224.899L158.075 223.709Z" fill="white"/>
<path d="M156.034 220.412C155.926 220.363 155.808 220.342 155.69 220.353C155.572 220.363 155.459 220.404 155.362 220.471C155.16 220.589 154.983 220.745 154.841 220.93C154.69 221.116 154.565 221.322 154.471 221.542C154.375 221.76 154.316 221.993 154.295 222.231C154.283 221.987 154.323 221.743 154.412 221.517C154.499 221.287 154.621 221.072 154.773 220.879C154.927 220.685 155.119 220.526 155.336 220.412C155.447 220.356 155.566 220.322 155.689 220.31C155.812 220.305 155.933 220.341 156.034 220.412Z" fill="#37474F"/>
<path d="M156.134 223.718C156.179 223.458 156.137 223.19 156.015 222.956C155.894 222.723 155.699 222.536 155.462 222.426C155.025 222.171 154.479 221.695 154.622 221.211C154.437 221.519 154.333 221.87 154.32 222.231C154.305 222.358 154.324 222.486 154.376 222.603C154.428 222.72 154.51 222.82 154.614 222.893L154.975 223.106C155.106 223.18 155.215 223.289 155.29 223.421C155.366 223.552 155.405 223.702 155.404 223.854V224.551C155.416 224.677 155.462 224.798 155.536 224.901C155.609 225.004 155.709 225.085 155.824 225.137C156.136 225.296 156.482 225.379 156.832 225.379C157.182 225.379 157.527 225.296 157.84 225.137C157.615 225.196 157.379 225.201 157.152 225.153C156.925 225.104 156.711 225.003 156.529 224.857C156.378 224.712 156.264 224.534 156.195 224.336C156.127 224.138 156.106 223.926 156.134 223.718Z" fill="#37474F"/>
<path d="M155.798 225.129C156.01 225.229 156.238 225.293 156.47 225.316C156.702 225.35 156.936 225.35 157.168 225.316C157.402 225.29 157.628 225.215 157.831 225.095C157.936 225.045 158.026 224.971 158.095 224.877C158.164 224.784 158.209 224.675 158.226 224.559C158.23 224.681 158.195 224.8 158.125 224.899C158.056 225.001 157.967 225.087 157.865 225.154C157.656 225.281 157.425 225.365 157.184 225.401C156.945 225.439 156.701 225.439 156.462 225.401C156.224 225.359 155.998 225.267 155.798 225.129Z" fill="#37474F"/>
<path d="M156.68 214.394C156.68 214.214 156.61 214.041 156.484 213.914C156.358 213.786 156.187 213.715 156.008 213.715C155.894 213.717 155.782 213.746 155.681 213.8C155.084 214.148 154.068 215.074 153.807 215.236C153.78 215.254 153.758 215.279 153.745 215.309C153.731 215.34 153.727 215.373 153.732 215.406C153.736 215.5 153.763 215.591 153.81 215.673C153.857 215.754 153.922 215.823 154.001 215.873C154.029 215.893 154.063 215.904 154.097 215.904C154.132 215.904 154.166 215.893 154.194 215.873C154.488 215.72 155.765 215.304 156.344 214.964C156.444 214.906 156.527 214.823 156.586 214.723C156.645 214.624 156.677 214.51 156.68 214.394Z" fill="#295F2B"/>
<path opacity="0.25" d="M155.454 214.122C155.454 214.122 155.412 214.199 155.454 214.224C155.496 214.25 155.521 214.275 155.614 214.275H155.992C156.1 214.28 156.209 214.262 156.311 214.224C156.554 214.105 156.311 213.859 156.126 213.842C156 213.83 155.873 213.849 155.756 213.898C155.639 213.947 155.535 214.024 155.454 214.122Z" fill="white"/>
<path opacity="0.2" d="M155.824 214.93C155.151 215.164 154.497 215.448 153.866 215.78C153.9 215.826 153.943 215.863 153.992 215.89C154.02 215.91 154.054 215.921 154.089 215.921C154.123 215.921 154.157 215.91 154.185 215.89C154.479 215.737 155.756 215.321 156.336 214.981C156.441 214.922 156.528 214.835 156.588 214.731C156.649 214.626 156.681 214.507 156.68 214.386C156.683 214.259 156.648 214.135 156.58 214.029C156.672 214.284 156.563 214.726 155.824 214.93Z" fill="black"/>
<path d="M153.723 215.414C153.728 215.508 153.755 215.6 153.801 215.681C153.848 215.763 153.914 215.831 153.992 215.882C154.143 215.975 154.261 215.882 154.261 215.729C154.257 215.635 154.23 215.543 154.183 215.462C154.136 215.38 154.071 215.312 153.992 215.261C153.841 215.168 153.723 215.244 153.723 215.414Z" fill="#295F2B"/>
<path opacity="0.3" d="M153.723 215.414C153.728 215.508 153.755 215.6 153.801 215.681C153.848 215.763 153.914 215.831 153.992 215.882C154.143 215.975 154.261 215.882 154.261 215.729C154.257 215.635 154.23 215.543 154.183 215.462C154.136 215.38 154.071 215.312 153.992 215.261C153.841 215.168 153.723 215.244 153.723 215.414Z" fill="black"/>
<path d="M152.094 219.179C152.105 219.301 152.148 219.417 152.219 219.516C152.29 219.614 152.386 219.692 152.497 219.74C152.797 219.895 153.13 219.976 153.467 219.976C153.804 219.976 154.137 219.895 154.437 219.74C154.548 219.692 154.644 219.614 154.715 219.516C154.786 219.417 154.829 219.301 154.841 219.179V217.157C154.828 217.034 154.785 216.918 154.714 216.818C154.643 216.718 154.548 216.638 154.437 216.587C154.137 216.432 153.804 216.351 153.467 216.351C153.13 216.351 152.797 216.432 152.497 216.587C152.386 216.638 152.291 216.718 152.22 216.818C152.15 216.918 152.106 217.034 152.094 217.157V219.179Z" fill="#37474F"/>
<path d="M152.774 216.451C152.669 216.483 152.568 216.526 152.472 216.579C152.361 216.63 152.266 216.709 152.195 216.809C152.125 216.909 152.081 217.026 152.068 217.148V219.179C152.08 219.301 152.123 219.417 152.194 219.516C152.265 219.614 152.361 219.692 152.472 219.74C152.568 219.796 152.669 219.841 152.774 219.876V216.451Z" fill="#263238"/>
<path d="M154.815 217.148C154.803 217.026 154.759 216.909 154.689 216.809C154.618 216.709 154.523 216.63 154.412 216.579C154.112 216.424 153.779 216.343 153.442 216.343C153.105 216.343 152.772 216.424 152.472 216.579C152.355 216.62 152.254 216.697 152.182 216.799C152.111 216.901 152.073 217.023 152.073 217.148C152.073 217.273 152.111 217.395 152.182 217.497C152.254 217.599 152.355 217.676 152.472 217.718C152.772 217.873 153.105 217.954 153.442 217.954C153.779 217.954 154.112 217.873 154.412 217.718C154.523 217.666 154.618 217.587 154.689 217.487C154.759 217.387 154.803 217.27 154.815 217.148Z" fill="#455A64"/>
<path d="M152.547 217.004C152.554 217.084 152.581 217.161 152.627 217.227C152.673 217.292 152.735 217.344 152.808 217.378C153.004 217.478 153.222 217.531 153.442 217.531C153.662 217.531 153.88 217.478 154.076 217.378C154.15 217.345 154.213 217.293 154.261 217.227C154.308 217.162 154.337 217.084 154.345 217.004V215.406C154.336 215.326 154.306 215.251 154.259 215.187C154.211 215.123 154.149 215.072 154.076 215.04C153.88 214.938 153.663 214.884 153.442 214.884C153.221 214.884 153.004 214.938 152.808 215.04C152.736 215.073 152.675 215.124 152.629 215.188C152.583 215.252 152.555 215.327 152.547 215.406V217.004Z" fill="#37474F"/>
<path d="M152.774 215.066C152.711 215.098 152.656 215.146 152.616 215.206C152.577 215.265 152.553 215.334 152.547 215.406V217.004C152.553 217.076 152.577 217.146 152.617 217.207C152.656 217.268 152.71 217.318 152.774 217.352V215.066Z" fill="#263238"/>
<path d="M154.345 215.406C154.336 215.326 154.306 215.251 154.259 215.187C154.211 215.123 154.149 215.072 154.076 215.04C153.88 214.938 153.663 214.884 153.442 214.884C153.221 214.884 153.004 214.938 152.808 215.04C152.732 215.067 152.666 215.117 152.619 215.183C152.572 215.249 152.547 215.329 152.547 215.41C152.547 215.491 152.572 215.571 152.619 215.637C152.666 215.703 152.732 215.753 152.808 215.78C153.004 215.881 153.222 215.933 153.442 215.933C153.662 215.933 153.88 215.881 154.076 215.78C154.15 215.747 154.213 215.695 154.261 215.63C154.308 215.564 154.337 215.487 154.345 215.406Z" fill="#455A64"/>
<path d="M153.043 216.443C153.037 216.349 153.009 216.258 152.962 216.177C152.916 216.096 152.851 216.027 152.774 215.975C152.746 215.955 152.712 215.944 152.677 215.944C152.643 215.944 152.609 215.955 152.581 215.975C152.278 216.128 151.01 216.545 150.43 216.885C150.348 216.925 150.275 216.981 150.215 217.051C150.155 217.121 150.11 217.202 150.082 217.29C150.055 217.378 150.045 217.471 150.054 217.563C150.063 217.655 150.09 217.744 150.134 217.824C150.178 217.905 150.238 217.976 150.31 218.033C150.382 218.09 150.464 218.131 150.552 218.155C150.641 218.178 150.733 218.183 150.823 218.169C150.913 218.155 151 218.123 151.077 218.075C151.682 217.726 152.69 216.8 152.959 216.638C152.99 216.617 153.015 216.588 153.03 216.553C153.044 216.518 153.049 216.48 153.043 216.443Z" fill="#295F2B"/>
<path opacity="0.25" d="M150.245 217.293C150.238 217.356 150.243 217.42 150.261 217.481C150.278 217.543 150.307 217.6 150.346 217.65C150.389 217.696 150.444 217.73 150.505 217.748C150.565 217.766 150.63 217.767 150.691 217.752C150.714 217.747 150.736 217.736 150.755 217.722C150.774 217.707 150.789 217.688 150.8 217.667C150.812 217.631 150.812 217.592 150.8 217.556L150.724 217.471C150.657 217.382 150.614 217.276 150.598 217.165C150.606 217.123 150.606 217.08 150.598 217.038C150.472 216.851 150.262 217.106 150.245 217.293Z" fill="white"/>
<path opacity="0.2" d="M152.934 216.63C152.959 216.61 152.98 216.584 152.993 216.554C153.006 216.525 153.012 216.492 153.009 216.46C153.017 216.415 153.017 216.369 153.009 216.324C152.422 216.713 151.86 217.142 151.329 217.607C150.766 218.126 150.338 218.007 150.161 217.803C150.204 217.882 150.261 217.951 150.33 218.008C150.399 218.064 150.478 218.106 150.563 218.132C150.648 218.157 150.738 218.165 150.826 218.155C150.914 218.145 150.999 218.118 151.077 218.075C151.682 217.726 152.69 216.8 152.959 216.638L152.934 216.63Z" fill="black"/>
<path d="M153.908 215.193C153.777 215.086 153.615 215.026 153.446 215.023C153.302 215.025 153.162 215.07 153.043 215.151H152.984C152.833 215.287 152.858 215.457 153.051 215.576C153.181 215.646 153.325 215.682 153.471 215.682C153.618 215.682 153.762 215.646 153.891 215.576C153.937 215.554 153.977 215.521 154.006 215.479C154.036 215.437 154.054 215.389 154.059 215.338C154.045 215.305 154.025 215.275 153.999 215.25C153.973 215.225 153.942 215.206 153.908 215.193Z" fill="#295F2B"/>
<path opacity="0.25" d="M153.606 215.142L153.74 215.185C153.694 215.151 153.643 215.125 153.589 215.108H153.539C153.539 215.108 153.589 215.142 153.606 215.142Z" fill="white"/>
<path opacity="0.2" d="M153.715 215.219C153.645 215.211 153.575 215.211 153.505 215.219V215.1H153.387V215.219C153.315 215.21 153.241 215.21 153.169 215.219V215.312C153.241 215.304 153.315 215.304 153.387 215.312V215.491H153.505V215.312C153.575 215.304 153.645 215.304 153.715 215.312V215.219Z" fill="black"/>
<path opacity="0.2" d="M153.506 215.074H153.387V215.117H153.506V215.074Z" fill="black"/>
<path d="M134.838 221.729C134.557 221.596 134.246 221.542 133.938 221.572C133.629 221.602 133.334 221.715 133.083 221.899C132.353 222.372 131.745 223.013 131.307 223.769C130.869 224.525 130.614 225.376 130.562 226.251C130.529 226.564 130.579 226.881 130.707 227.168C130.836 227.455 131.038 227.702 131.293 227.882L131.839 228.197C132.12 228.329 132.431 228.384 132.74 228.354C133.049 228.324 133.344 228.211 133.595 228.027C134.326 227.555 134.935 226.914 135.373 226.158C135.811 225.402 136.065 224.551 136.115 223.675C136.148 223.363 136.097 223.048 135.968 222.763C135.84 222.478 135.638 222.232 135.384 222.052L134.838 221.729Z" fill="#455A64"/>
<path d="M130.621 225.826C130.613 225.956 130.613 226.086 130.621 226.217C130.587 226.53 130.637 226.847 130.766 227.134C130.895 227.421 131.097 227.668 131.352 227.848L131.898 228.163C132.179 228.295 132.49 228.35 132.799 228.32C133.108 228.29 133.403 228.177 133.654 227.993L133.982 227.78L130.621 225.826Z" fill="#263238"/>
<path d="M131.151 226.54C131.151 228.146 132.259 228.792 133.671 227.993C134.401 227.521 135.01 226.88 135.449 226.124C135.887 225.368 136.141 224.517 136.191 223.641C136.191 222.035 135.082 221.389 133.671 222.188C132.942 222.661 132.334 223.302 131.896 224.058C131.458 224.815 131.202 225.665 131.151 226.54Z" fill="#37474F"/>
<path d="M139.988 225.035C139.821 225.305 139.733 225.618 139.733 225.936C139.733 226.255 139.821 226.567 139.988 226.837L139.375 228.435C139.052 228.614 138.768 228.857 138.538 229.149C138.309 229.441 138.139 229.776 138.039 230.135L136.821 230.849L136.157 230.466C135.913 230.486 135.679 230.577 135.485 230.73L132.301 228.877L131.697 228.027C131.863 227.757 131.952 227.445 131.952 227.126C131.952 226.807 131.863 226.495 131.697 226.225L132.301 224.636C132.626 224.457 132.912 224.215 133.143 223.923C133.373 223.631 133.544 223.295 133.646 222.936L134.864 222.222L135.527 222.613C135.771 222.585 136.003 222.491 136.199 222.341L139.375 224.202L139.988 225.035Z" fill="#455A64"/>
<path d="M138.039 230.109C138.246 229.387 138.726 228.776 139.375 228.409L139.988 226.82C139.821 226.55 139.733 226.238 139.733 225.919C139.733 225.601 139.821 225.288 139.988 225.018L139.375 224.168C138.812 224.568 138.266 224.517 138.039 224.049L136.821 224.755C136.616 225.478 136.136 226.089 135.485 226.455L134.872 228.052C135.039 228.323 135.127 228.635 135.127 228.953C135.127 229.272 135.039 229.584 134.872 229.854L135.485 230.704C136.048 230.305 136.586 230.347 136.821 230.823L138.039 230.109Z" fill="#37474F"/>
<path d="M138.056 227.066C138.056 226.659 137.779 226.489 137.426 226.693C137.243 226.814 137.091 226.977 136.981 227.169C136.872 227.361 136.808 227.576 136.796 227.797C136.796 228.205 137.081 228.367 137.426 228.163C137.61 228.044 137.763 227.883 137.872 227.692C137.982 227.501 138.045 227.287 138.056 227.066Z" fill="black"/>
<path d="M137.896 226.973C137.885 227.193 137.822 227.408 137.713 227.598C137.603 227.789 137.45 227.951 137.266 228.069C137.217 228.105 137.161 228.13 137.101 228.141C137.042 228.153 136.981 228.152 136.922 228.137C136.879 228.092 136.846 228.039 136.824 227.981C136.803 227.922 136.793 227.86 136.796 227.797C136.808 227.576 136.872 227.361 136.981 227.169C137.091 226.977 137.243 226.814 137.426 226.693C137.531 226.626 137.658 226.605 137.779 226.633C137.86 226.726 137.903 226.848 137.896 226.973Z" fill="#295F2B"/>
<path opacity="0.1" d="M135.485 230.704L134.872 229.854L131.697 227.993L132.301 228.843L135.485 230.704ZM134.872 228.027L135.485 226.429L132.301 224.576L131.697 226.166L134.872 228.027ZM138.039 224.041L134.864 222.18L133.646 222.893L136.821 224.746L138.039 224.041Z" fill="white"/>
<path d="M162.368 205.581C162.087 205.448 161.776 205.394 161.467 205.424C161.158 205.454 160.863 205.567 160.612 205.751C159.891 206.229 159.291 206.872 158.86 207.628C158.43 208.384 158.181 209.231 158.134 210.102C158.1 210.416 158.15 210.732 158.279 211.019C158.407 211.307 158.61 211.553 158.865 211.734L159.411 212.049C159.691 212.183 160.003 212.238 160.312 212.208C160.621 212.178 160.916 212.065 161.166 211.879C161.888 211.401 162.489 210.758 162.919 210.002C163.35 209.246 163.598 208.398 163.645 207.527C163.677 207.216 163.627 206.902 163.5 206.617C163.373 206.332 163.174 206.086 162.922 205.904L162.368 205.581Z" fill="#455A64"/>
<path d="M158.151 209.745C158.151 209.881 158.151 210.009 158.151 210.136C158.117 210.45 158.167 210.766 158.295 211.053C158.424 211.341 158.626 211.587 158.881 211.768L159.428 212.083C159.708 212.217 160.019 212.272 160.329 212.242C160.638 212.212 160.933 212.099 161.183 211.913C161.292 211.845 161.402 211.777 161.502 211.7L158.151 209.745Z" fill="#263238"/>
<path d="M158.68 210.459C158.68 212.066 159.797 212.712 161.2 211.913C161.922 211.435 162.522 210.792 162.953 210.036C163.383 209.28 163.632 208.432 163.678 207.561C163.678 205.955 162.569 205.309 161.2 206.108C160.472 206.582 159.864 207.223 159.426 207.979C158.988 208.735 158.732 209.585 158.68 210.459Z" fill="#37474F"/>
<path d="M167.517 208.981C167.351 209.251 167.262 209.563 167.262 209.881C167.262 210.2 167.351 210.512 167.517 210.782L166.913 212.38C166.589 212.558 166.303 212.801 166.074 213.093C165.844 213.385 165.675 213.72 165.577 214.08L164.35 214.794L163.695 214.411C163.448 214.431 163.212 214.522 163.015 214.675L159.839 212.822L159.226 211.972C159.393 211.702 159.481 211.39 159.481 211.071C159.481 210.753 159.393 210.441 159.226 210.17L159.839 208.581C160.162 208.402 160.447 208.159 160.676 207.867C160.906 207.575 161.075 207.24 161.175 206.881L162.393 206.167L163.057 206.558C163.299 206.531 163.531 206.44 163.729 206.295L166.913 208.148L167.517 208.981Z" fill="#455A64"/>
<path d="M165.577 214.029C165.675 213.669 165.844 213.334 166.074 213.042C166.303 212.75 166.589 212.507 166.913 212.329L167.517 210.731C167.351 210.461 167.262 210.149 167.262 209.83C167.262 209.512 167.351 209.2 167.517 208.93L166.913 208.08C166.341 208.479 165.804 208.428 165.577 207.961L164.35 208.675C164.252 209.034 164.083 209.37 163.853 209.662C163.624 209.954 163.339 210.196 163.015 210.374L162.41 211.972C162.577 212.242 162.665 212.554 162.665 212.873C162.665 213.192 162.577 213.504 162.41 213.774L163.015 214.624C163.586 214.224 164.124 214.275 164.35 214.743L165.577 214.029Z" fill="#37474F"/>
<path d="M165.594 210.986C165.594 210.578 165.308 210.417 164.964 210.612C164.779 210.733 164.626 210.895 164.516 211.088C164.407 211.28 164.344 211.496 164.334 211.717C164.334 212.125 164.611 212.287 164.964 212.091C165.146 211.969 165.297 211.805 165.407 211.613C165.516 211.422 165.58 211.207 165.594 210.986Z" fill="black"/>
<path d="M165.434 210.893C165.422 211.113 165.358 211.327 165.249 211.517C165.139 211.708 164.987 211.869 164.804 211.989C164.753 212.025 164.696 212.05 164.635 212.062C164.574 212.073 164.511 212.072 164.451 212.057C164.371 211.963 164.329 211.841 164.334 211.717C164.346 211.496 164.41 211.281 164.519 211.089C164.628 210.897 164.781 210.734 164.964 210.612C165.016 210.579 165.074 210.557 165.134 210.547C165.195 210.536 165.257 210.539 165.316 210.553C165.398 210.646 165.44 210.768 165.434 210.893Z" fill="#295F2B"/>
<path opacity="0.1" d="M163.015 214.624L162.41 213.774L159.226 211.913L159.839 212.763L163.015 214.624ZM162.41 211.947L163.015 210.349L159.839 208.496L159.226 210.085L162.41 211.947ZM165.577 207.961L162.393 206.099L161.175 206.813L164.35 208.675L165.577 207.961Z" fill="white"/>
<path d="M323.999 343.979L325.15 329.471L308.626 331.027C308.626 331.027 309.088 338.871 309.466 343.308C309.676 345.925 306.265 350.906 306.265 350.906C306.265 350.906 314.153 354.858 318.287 353.285C322.42 351.713 324.47 346.486 324.386 345.33C324.302 344.175 323.999 343.979 323.999 343.979Z" fill="#FFBDA7"/>
<path d="M284.742 367.683C284.482 367.683 284.121 370.385 285.582 371.516C287.263 372.825 292.068 374.915 298.419 374.066C304.77 373.216 308.181 371.354 310.701 369.34C313.221 367.326 316.758 364.47 319.622 363.85C322.285 363.272 325.175 362.107 326.024 361.3C326.872 360.493 326.713 357.051 326.713 357.051L284.742 367.683Z" fill="#263238"/>
<path d="M323.999 343.954C324.225 343.956 324.443 344.035 324.618 344.178C324.794 344.322 324.916 344.521 324.965 344.744C325.175 345.696 325.419 348.441 325.856 349.988C326.461 352.147 326.897 356.566 326.57 358.325C326.242 360.085 321.899 361.36 319.127 362.379C315.898 363.735 312.884 365.562 310.18 367.802C307.214 370.139 300.939 372.604 296.823 372.621C291.917 372.621 286.389 371.21 285.062 369.102C283.474 366.484 282.298 363.442 289.531 360.212C290.9 359.6 295.697 356.872 297.335 355.886C301.762 353.209 304.896 350.787 306.87 346.104C307.037 345.522 307.4 345.017 307.895 344.676C308.342 344.49 308.833 344.443 309.306 344.54C310.524 344.684 315.355 345.254 316.464 345.738C317.573 346.223 318.833 346.656 318.824 347.821C318.805 348.229 318.717 348.632 318.564 349.01C318.48 349.257 318.413 349.571 318.639 349.707C318.866 349.843 319.127 349.707 319.32 349.529C320.023 348.841 320.669 348.097 321.252 347.302C321.588 346.892 321.968 346.521 322.386 346.197C322.812 345.966 323.224 345.711 323.621 345.432C324.092 345.016 323.982 344.506 323.999 343.954Z" fill="#455A64"/>
<path d="M310.18 367.802C311.442 366.797 312.755 365.858 314.111 364.989C314.111 364.989 305.618 369.935 302.14 367.768C299.906 366.374 300.939 364.632 300.989 364.079C301.04 363.527 293.143 359.711 290.976 359.498C290.379 359.813 289.875 360.068 289.564 360.212C282.331 363.442 283.507 366.484 285.095 369.102C286.389 371.21 290.405 372.825 296.73 372.757C300.872 372.714 307.214 370.139 310.18 367.802Z" fill="#37474F"/>
<path d="M301.569 362.464C297.066 364.164 299.007 365.014 300.275 365.125C301.544 365.235 309.096 361.045 313.717 357.561C318.513 353.931 321.521 349.979 323.302 348.645C323.966 348.152 324.68 347.54 325.318 346.945C325.192 346.01 325.083 345.169 324.99 344.718C324.938 344.496 324.814 344.297 324.637 344.154C324.461 344.011 324.242 343.931 324.016 343.928C324.016 344.481 324.108 344.99 323.672 345.407C323.275 345.685 322.862 345.941 322.437 346.172C322.019 346.496 321.638 346.866 321.303 347.277C320.72 348.071 320.074 348.816 319.37 349.503C315.456 354.254 306.064 360.722 301.569 362.464Z" fill="#37474F"/>
<path d="M300.586 364.513C300.69 364.513 300.791 364.477 300.872 364.411C300.915 364.377 300.951 364.334 300.977 364.286C301.004 364.237 301.02 364.184 301.024 364.129C301.029 364.074 301.023 364.018 301.005 363.966C300.987 363.913 300.959 363.865 300.922 363.824C299.637 362.379 293.555 358.971 290.236 359.354C290.18 359.356 290.125 359.37 290.074 359.394C290.023 359.419 289.978 359.454 289.941 359.497C289.904 359.54 289.876 359.59 289.859 359.644C289.842 359.699 289.836 359.756 289.842 359.813C289.85 359.87 289.869 359.925 289.899 359.974C289.928 360.024 289.967 360.067 290.013 360.101C290.06 360.135 290.112 360.16 290.168 360.173C290.223 360.186 290.281 360.188 290.337 360.178C293.437 359.838 299.217 363.212 300.242 364.36C300.285 364.409 300.338 364.448 300.398 364.474C300.457 364.5 300.521 364.514 300.586 364.513Z" fill="#263238"/>
<path d="M304.501 362.192C304.605 362.193 304.706 362.157 304.787 362.09C304.83 362.057 304.866 362.014 304.892 361.966C304.918 361.917 304.934 361.864 304.939 361.808C304.944 361.753 304.937 361.698 304.92 361.645C304.902 361.593 304.874 361.545 304.837 361.504C303.552 360.059 297.47 356.66 294.151 357.034C294.095 357.037 294.041 357.051 293.99 357.076C293.94 357.101 293.895 357.136 293.858 357.179C293.821 357.222 293.793 357.271 293.776 357.325C293.758 357.379 293.752 357.436 293.756 357.492C293.765 357.55 293.784 357.605 293.813 357.654C293.843 357.704 293.882 357.747 293.928 357.781C293.974 357.815 294.027 357.839 294.082 357.853C294.138 357.866 294.196 357.868 294.252 357.858C297.352 357.518 303.132 360.892 304.157 362.039C304.2 362.088 304.253 362.127 304.312 362.154C304.372 362.18 304.436 362.193 304.501 362.192Z" fill="#263238"/>
<path d="M308.424 360C308.525 359.998 308.623 359.962 308.701 359.898C308.746 359.865 308.784 359.824 308.812 359.776C308.84 359.727 308.857 359.674 308.863 359.618C308.868 359.563 308.862 359.506 308.844 359.453C308.827 359.401 308.798 359.352 308.76 359.311C307.466 357.866 301.384 354.458 298.066 354.841C298.01 354.845 297.955 354.861 297.905 354.887C297.855 354.913 297.811 354.948 297.775 354.992C297.739 355.036 297.712 355.086 297.696 355.14C297.679 355.195 297.674 355.252 297.68 355.308C297.698 355.423 297.761 355.525 297.853 355.594C297.946 355.662 298.062 355.691 298.175 355.674C301.275 355.325 307.046 358.699 308.071 359.847C308.116 359.896 308.171 359.935 308.232 359.961C308.292 359.988 308.358 360.001 308.424 360Z" fill="#263238"/>
<path d="M312.045 357.501C312.148 357.504 312.249 357.471 312.33 357.408C312.374 357.374 312.41 357.331 312.436 357.283C312.462 357.234 312.478 357.181 312.483 357.126C312.488 357.07 312.481 357.015 312.464 356.962C312.446 356.91 312.418 356.862 312.381 356.821C311.096 355.368 304.997 351.968 301.695 352.342C301.639 352.346 301.584 352.362 301.534 352.388C301.483 352.414 301.438 352.449 301.402 352.493C301.365 352.536 301.337 352.587 301.32 352.641C301.302 352.695 301.296 352.753 301.3 352.81C301.319 352.924 301.381 353.027 301.474 353.095C301.567 353.163 301.682 353.192 301.796 353.175C304.896 352.835 310.676 356.209 311.7 357.357C311.743 357.406 311.796 357.444 311.856 357.47C311.916 357.495 311.98 357.505 312.045 357.501Z" fill="#263238"/>
<path d="M315.598 355.011C315.698 355.009 315.795 354.976 315.876 354.917C315.921 354.882 315.957 354.838 315.984 354.787C316.01 354.736 316.026 354.681 316.029 354.623C316.032 354.566 316.023 354.509 316.002 354.455C315.982 354.402 315.95 354.354 315.909 354.314C314.128 352.257 307.769 349.427 304.451 349.809C304.395 349.813 304.341 349.827 304.291 349.852C304.241 349.877 304.196 349.912 304.16 349.955C304.124 349.998 304.097 350.048 304.08 350.102C304.064 350.156 304.058 350.212 304.064 350.268C304.083 350.383 304.145 350.485 304.238 350.554C304.331 350.622 304.446 350.651 304.56 350.634C307.542 350.302 313.633 353.022 315.212 354.841C315.259 354.898 315.318 354.943 315.385 354.972C315.452 355.002 315.525 355.015 315.598 355.011Z" fill="#263238"/>
<path d="M348.109 350.277L344.993 335.922L362.517 334.222V347.94C362.517 347.94 364.096 352.929 362.937 354.662C361.777 356.396 350.117 357.781 349.101 356.549C348.084 355.317 348.109 350.277 348.109 350.277Z" fill="#FFBDA7"/>
<path d="M348.177 381.196C348.504 385.607 349.302 388.48 351.1 390.945C352.898 393.409 356.258 393.953 359.652 392.925C363.046 391.897 367.389 389.525 368.33 385.607C369.271 381.689 369.061 379.106 368.263 375.052L348.177 381.196Z" fill="#263238"/>
<path d="M362.534 347.94C363.936 347.94 363.332 353.889 364.214 359.838C365.129 366.162 367.305 368.635 368.112 373.811C369.044 379.76 368.708 382.429 366.356 386.228C364.004 390.027 355.645 394.251 351.47 389.398C348.067 385.437 347.891 380.763 348.109 374.763C348.387 368.558 348.63 364.19 348.311 359.524C348.009 355.07 346.883 351.067 348.093 350.472C348.193 351.118 348.294 351.943 348.395 352.589C348.471 353.073 348.63 355.487 349.42 355.453C349.479 354.888 349.479 354.318 349.42 353.753C349.377 353.494 349.388 353.229 349.452 352.974C349.516 352.72 349.63 352.482 349.79 352.274C350.483 351.779 351.265 351.424 352.091 351.229C353.469 350.88 355.914 350.481 357.317 350.251C358.014 350.141 358.711 350.056 359.417 350.013C360.008 349.953 360.605 349.979 361.189 350.09C361.349 350.121 361.499 350.186 361.631 350.282C361.763 350.377 361.873 350.5 361.954 350.642C362.026 350.861 362.052 351.093 362.029 351.322C362.033 351.734 362.095 352.144 362.214 352.538C362.265 352.708 362.408 352.912 362.609 352.852C362.682 352.82 362.743 352.766 362.783 352.698C362.824 352.629 362.842 352.549 362.836 352.47C362.836 351.747 362.727 351.229 362.685 350.396C362.685 350.013 362.584 349.486 362.576 349.095C362.567 348.705 362.567 348.365 362.534 347.94Z" fill="#455A64"/>
<path d="M367.75 372.111C367.893 372.961 368.758 378.613 367.003 379.76C365.113 381.026 364.029 376.615 364.029 376.615C364.029 376.615 359.551 375.765 353.108 378.791C353.452 379.692 352.469 382.828 350.68 382.327C348.891 381.825 348.16 375.323 348.16 375.238C347.933 380.992 348.16 385.514 351.52 389.355C355.72 394.208 364.062 389.993 366.406 386.185C368.75 382.378 369.095 379.683 368.162 373.768C367.994 373.199 367.876 372.646 367.75 372.111Z" fill="#37474F"/>
<path d="M363.525 377.066C363.567 379.224 365.978 378.307 366.045 375.238C366.112 372.17 364.18 365.082 364.163 359.821C364.062 352.606 363.92 347.923 362.483 347.923C362.483 347.999 362.483 348.067 362.483 348.144L362.685 351.161C362.738 351.587 362.768 352.015 362.777 352.444C362.844 356.855 362.542 365.405 363.004 369.442C363.333 371.97 363.506 374.516 363.525 377.066Z" fill="#37474F"/>
<path d="M353.822 378.698C353.201 376.234 352.735 373.733 352.427 371.21C351.915 367.249 349.907 359.311 348.907 354.994C348.638 354.211 348.469 353.397 348.403 352.572C348.303 351.968 348.219 351.22 348.126 350.591C348.122 350.546 348.122 350.501 348.126 350.455C347.286 350.897 347.404 354.322 347.782 356.107C348.16 357.892 348.622 359.804 349.101 362.362C350.336 367.419 350.159 374.916 350.974 377.822C351.789 380.729 354.292 380.788 353.822 378.698Z" fill="#37474F"/>
<path d="M352.931 379.004C352.997 378.992 353.059 378.969 353.116 378.936C356.462 377.285 360.208 376.648 363.903 377.1C364.035 377.119 364.171 377.092 364.285 377.022C364.4 376.953 364.488 376.845 364.533 376.717C364.549 376.658 364.552 376.595 364.542 376.534C364.531 376.473 364.507 376.415 364.472 376.365C364.437 376.314 364.39 376.273 364.337 376.242C364.284 376.212 364.224 376.194 364.163 376.19C360.21 375.683 356.198 376.369 352.629 378.162C352.571 378.187 352.52 378.224 352.477 378.271C352.435 378.318 352.403 378.373 352.383 378.433C352.363 378.493 352.356 378.557 352.362 378.62C352.369 378.683 352.388 378.745 352.419 378.8C352.476 378.88 352.554 378.942 352.645 378.979C352.736 379.015 352.836 379.023 352.931 379.004Z" fill="#263238"/>
<path d="M351.73 374.397L351.898 374.346C355.675 372.605 359.838 371.896 363.97 372.289C364.103 372.304 364.237 372.273 364.35 372.2C364.463 372.128 364.549 372.018 364.592 371.89C364.604 371.829 364.603 371.766 364.589 371.706C364.575 371.645 364.549 371.589 364.511 371.54C364.474 371.49 364.426 371.45 364.372 371.421C364.318 371.392 364.258 371.375 364.197 371.371C359.831 370.942 355.43 371.693 351.444 373.547C351.386 373.571 351.332 373.607 351.288 373.653C351.243 373.698 351.209 373.753 351.186 373.812C351.163 373.872 351.152 373.936 351.155 374C351.158 374.064 351.173 374.127 351.201 374.185C351.258 374.269 351.339 374.334 351.434 374.372C351.528 374.41 351.631 374.419 351.73 374.397Z" fill="#263238"/>
<path d="M363.6 367.853C363.697 367.838 363.788 367.798 363.864 367.737C363.941 367.676 364.001 367.596 364.037 367.504C364.058 367.446 364.065 367.384 364.059 367.323C364.053 367.262 364.034 367.203 364.003 367.15C363.971 367.097 363.929 367.052 363.878 367.017C363.827 366.983 363.77 366.961 363.71 366.952C357.417 365.567 351.234 368.881 350.974 369.026C350.916 369.05 350.863 369.087 350.82 369.133C350.777 369.179 350.744 369.234 350.723 369.295C350.702 369.355 350.695 369.419 350.7 369.482C350.706 369.546 350.725 369.608 350.756 369.663C350.838 369.767 350.954 369.837 351.084 369.862C351.213 369.887 351.347 369.865 351.461 369.799C351.52 369.799 357.527 366.552 363.382 367.844C363.454 367.86 363.528 367.863 363.6 367.853Z" fill="#263238"/>
<path d="M363.206 363.663C363.301 363.651 363.391 363.614 363.468 363.556C363.545 363.498 363.605 363.421 363.642 363.331C363.664 363.273 363.673 363.211 363.669 363.149C363.664 363.088 363.646 363.028 363.615 362.974C363.584 362.92 363.542 362.874 363.492 362.839C363.441 362.804 363.384 362.78 363.323 362.77C358.895 361.847 354.286 362.581 350.352 364.836C350.296 364.863 350.245 364.902 350.205 364.951C350.164 364.999 350.134 365.056 350.118 365.118C350.101 365.179 350.097 365.243 350.108 365.306C350.118 365.369 350.141 365.429 350.176 365.482C350.264 365.582 350.384 365.647 350.516 365.664C350.647 365.681 350.78 365.65 350.89 365.575C350.949 365.575 356.552 362.175 362.996 363.671C363.065 363.683 363.137 363.68 363.206 363.663Z" fill="#263238"/>
<path d="M362.752 358.98C362.845 358.968 362.933 358.932 363.008 358.875C363.083 358.818 363.142 358.743 363.18 358.657C363.204 358.599 363.214 358.537 363.211 358.474C363.207 358.412 363.19 358.351 363.16 358.297C363.13 358.242 363.089 358.195 363.038 358.158C362.988 358.122 362.93 358.098 362.87 358.087C356.384 356.456 350.05 360.119 349.79 360.28C349.732 360.306 349.681 360.343 349.64 360.391C349.598 360.438 349.568 360.495 349.55 360.555C349.533 360.616 349.528 360.68 349.538 360.743C349.547 360.805 349.57 360.865 349.605 360.918C349.687 361.022 349.805 361.091 349.935 361.113C350.065 361.135 350.199 361.108 350.31 361.037C350.369 360.994 356.493 357.459 362.517 358.971C362.593 358.995 362.674 358.998 362.752 358.98Z" fill="#263238"/>
<path d="M358.577 223.582C361.525 254.765 361.786 291.251 361.786 291.251C362.038 293.614 364.524 301.45 364.928 313.196C365.132 322.89 364.851 332.588 364.088 342.254C358.361 345.041 351.869 345.781 345.673 344.353C345.673 344.353 340.019 320.734 337.046 303.668C333.626 284.061 330.233 270.607 330.233 270.607L328.552 289.305C328.552 289.305 329.502 300.549 329.124 307.484C328.662 315.983 324.923 337.435 324.923 337.435C324.923 337.435 315.808 343.129 308.643 337.69C308.643 337.69 304.224 298.475 303.653 287.699C302.485 265.491 303.308 245.645 303.535 223.573L358.577 223.582Z" fill="#37474F"/>
<path opacity="0.2" d="M330.191 270.607L326.301 243.878C326.301 243.878 318.026 242.798 313.7 238.974C313.7 238.974 316.522 244.073 324.344 245.96L328.183 266.128L328.468 289.322L330.191 270.607Z" fill="black"/>
<path d="M229.222 210.969C230.062 210.272 230.398 210.332 230.398 210.332C230.129 209.703 230.549 207.944 232.809 207.374C232.809 207.374 231.775 205.895 235.144 204.57C238.967 203.074 243.243 203.244 245.586 203.269C246.485 203.269 247.267 202.717 246.267 202.232C244.881 201.586 243.243 201.28 242.125 200.15C241.805 199.834 241.56 199.447 241.411 199.02C241.296 198.583 241.326 198.12 241.495 197.702C241.831 196.784 243.352 197.184 244.225 197.396C247.687 198.246 250.946 197.983 254.113 199.776C255.13 200.354 256.827 201.229 257.961 200.983C264.765 199.53 282.205 193.113 286.75 190.929C293.664 182.43 297.411 174.075 302.182 166.222C306.215 159.576 310.491 157.986 314.095 157.137L317.589 181.316C317.589 181.316 307.744 194.226 302.359 201.535C300.074 204.638 297.596 206.116 291.648 207.595C281.852 210.026 273.763 211.088 264.001 212.907C260.735 213.378 257.568 214.389 254.626 215.899C253.396 216.536 252.042 216.89 250.66 216.936C247.3 216.936 244.83 216.179 241.89 216.086C239.547 215.975 237.199 216.109 234.884 216.485C232.926 216.638 232.112 216.111 231.86 215.1C231.607 214.089 233.977 213.4 233.977 213.4C233.977 213.4 231.456 213.783 230.448 213.4C229.154 212.882 228.373 211.675 229.222 210.969Z" fill="#FFBDA7"/>
<path d="M238.194 216.264C237.29 216.303 236.39 216.396 235.497 216.545C234.304 216.749 232.977 217.029 232.137 215.95C231.928 215.684 231.792 215.367 231.742 215.032C231.744 214.852 231.79 214.675 231.877 214.518C231.963 214.36 232.087 214.227 232.238 214.131C232.446 213.971 232.672 213.834 232.91 213.723C232.456 213.723 232.002 213.723 231.599 213.723C230.814 213.762 230.044 213.501 229.44 212.992C229.117 212.738 228.877 212.392 228.751 211.998C228.697 211.772 228.707 211.535 228.782 211.315C228.856 211.095 228.991 210.901 229.171 210.757C229.49 210.52 229.83 210.315 230.188 210.145C230.084 209.715 230.15 209.26 230.373 208.879C230.577 208.493 230.864 208.159 231.213 207.901C231.624 207.588 232.096 207.368 232.599 207.255C232.527 206.969 232.539 206.668 232.631 206.388C232.723 206.108 232.893 205.86 233.12 205.674C233.563 205.268 234.065 204.93 234.607 204.672C235.926 204.071 237.319 203.651 238.748 203.422C241.075 203.169 243.419 203.115 245.754 203.261C243.424 203.215 241.094 203.34 238.782 203.635C237.376 203.87 236.009 204.296 234.716 204.901C234.202 205.15 233.729 205.477 233.313 205.87C233.104 206.026 232.953 206.247 232.881 206.499C232.81 206.751 232.823 207.02 232.918 207.264C233.108 207.525 233.365 207.727 233.662 207.848C233.958 207.97 234.283 208.006 234.598 207.952C235.001 207.952 237.018 207.612 237.429 207.57C239.323 207.398 241.229 207.426 243.117 207.655C241.219 207.54 239.315 207.606 237.429 207.85C237.026 207.893 235.043 208.199 234.623 208.241C234.266 208.309 233.897 208.28 233.554 208.156C233.212 208.032 232.908 207.818 232.674 207.536C232.196 207.642 231.748 207.857 231.364 208.165C231.059 208.392 230.804 208.681 230.616 209.015C230.522 209.169 230.46 209.342 230.434 209.522C230.408 209.701 230.419 209.885 230.465 210.06C230.57 210.262 230.729 210.431 230.923 210.548C231.117 210.665 231.339 210.726 231.565 210.723C232.061 210.778 232.562 210.761 233.052 210.672C234.061 210.461 235.083 210.321 236.11 210.255C237.139 210.182 238.171 210.168 239.202 210.213L242.276 210.417L239.193 210.306C238.169 210.295 237.146 210.343 236.127 210.451C235.108 210.546 234.097 210.716 233.103 210.961C232.583 211.067 232.052 211.102 231.523 211.063C231.292 211.053 231.065 210.995 230.856 210.895C230.646 210.794 230.459 210.652 230.305 210.476C229.968 210.629 229.647 210.817 229.348 211.037C228.743 211.42 229.054 212.27 229.617 212.686C230.146 213.157 230.836 213.401 231.54 213.366C232.254 213.366 233.086 213.315 233.909 213.256C235.363 213.205 235.665 213.154 237.11 213.205C238.555 213.256 240.008 213.324 241.436 213.511C240 213.383 238.555 213.392 237.11 213.4C236.052 213.401 234.995 213.458 233.943 213.57C233.375 213.72 232.837 213.97 232.355 214.31C232.242 214.379 232.146 214.474 232.076 214.588C232.006 214.702 231.963 214.83 231.952 214.964C231.992 215.25 232.108 215.521 232.288 215.746C233.036 216.715 234.245 216.485 235.413 216.29C236.313 216.144 237.224 216.078 238.135 216.094C239.375 216.031 240.617 216.031 241.856 216.094C240.633 216.089 239.411 216.146 238.194 216.264Z" fill="#F0997A"/>
<path d="M255.634 209.142C253.181 210.621 249.274 208.989 247.099 207.119C249.148 210.043 252.257 211.768 255.634 209.142Z" fill="#F0997A"/>
<path d="M314.338 156.703C303.871 158.479 302.132 162.754 298.293 169.452C294.454 176.149 286.885 190.147 286.885 190.147L276.098 195.246C278.342 196.907 280.007 199.246 280.853 201.926C281.505 204.639 281.696 207.444 281.416 210.221C281.416 210.221 291.833 208.709 295.428 207.306C299.024 205.904 301.006 204.638 304.283 200.184C307.559 195.731 318.06 181.367 318.06 181.367L314.338 156.703Z" fill="#E0E0E0"/>
<path d="M340.507 154.187C343.581 154.833 357.737 157.995 362.013 159.899C362.013 159.899 363.491 175.29 360.568 189.016C359.896 192.169 359.14 199.997 358.745 206.686C358.215 215.703 358.904 220.284 359.022 228.044C359.022 228.044 345.539 236.407 323.789 234.75C306.719 233.449 303.921 226.523 303.921 226.523C304.014 199.572 304.283 195.238 304.845 182.676C305.61 165.542 308.701 159.967 312.406 157.051L325.763 154.357L340.507 154.187Z" fill="#F0F0F0"/>
<path d="M345.934 118.041C345.934 118.041 348.639 118.245 350.411 121.602C351.302 123.302 351.94 126.37 349.504 135.2C348.567 138.637 347.12 141.91 345.211 144.906C344.638 145.883 343.719 146.603 342.64 146.921L342.825 140.121L343.077 135.413C343.077 135.413 339.221 131.962 338.877 128.614C338.448 124.254 340.171 121.815 340.171 121.815L345.934 118.041Z" fill="#455A64"/>
<path d="M346.866 118.279C347.337 117.82 345.522 115.109 345.245 114.743C341.884 110.264 335.424 107.944 330.023 108.123C327.91 108.154 325.826 108.617 323.894 109.483C321.963 110.349 320.224 111.6 318.782 113.163C317.622 114.48 316.743 116.026 316.201 117.704C315.658 119.381 315.465 121.154 315.632 122.911C315.775 124.211 315.96 126.362 317.615 126.158C319.58 125.911 321.504 125.69 323.495 125.588L332.736 125.121C335.626 124.98 338.396 123.908 340.641 122.061L346.866 118.279Z" fill="#37474F"/>
<path d="M349.092 142.11C345.841 144.354 343.917 141.048 343.917 141.048V155.309C340.557 159.737 331.644 157.553 329.468 162.108C329.182 158.539 325.1 158.105 325.789 153.992V150.805C324.755 150.784 323.724 150.684 322.705 150.507C319.564 150.023 317.606 148.569 316.674 145.212C316.002 142.93 315.53 140.592 315.262 138.226C315.044 134.708 315.909 131.537 316.245 128.954C316.514 126.871 316.136 124.951 316.623 122.809C316.985 121.177 317.699 119.409 319.228 118.653C322.999 116.809 326.494 119.503 331.761 121.492C333.937 122.341 339.221 122.69 340.616 122.053C338.776 124.05 338.793 130.356 341.498 132.923C341.844 133.57 342.305 134.146 342.859 134.623C344.01 135.617 344.951 133.067 345.917 132.073C346.883 131.079 350.52 130.195 352.083 133.475C353.645 136.756 352.1 140.036 349.092 142.11Z" fill="#FFBDA7"/>
<path d="M325.831 150.813C329.955 150.813 333.626 150.286 336.063 149.275C338.499 148.264 340.658 145.025 341.364 141.796C341.364 144.345 340.213 148.986 336.516 150.898C332.82 152.811 328.51 152.887 325.822 152.963L325.831 150.813Z" fill="#F28F8F"/>
<path d="M339.969 130.331C340.035 132.436 339.772 134.539 339.188 136.56C338.828 137.939 338.194 139.229 337.323 140.351C336.901 140.933 336.423 141.472 335.895 141.957C335.244 142.482 334.553 142.954 333.828 143.368C333.337 143.667 332.826 143.931 332.299 144.158C331.623 144.44 330.91 144.62 330.182 144.694C329.635 144.795 329.071 144.757 328.542 144.584C328.012 144.41 327.534 144.106 327.149 143.7C327.044 143.515 326.901 143.356 326.729 143.232C326.587 143.165 326.432 143.131 326.276 143.13L324.982 143.02C324.855 142.986 324.722 142.986 324.596 143.02C324.352 143.122 324.302 143.368 324.142 143.547C323.96 143.724 323.742 143.86 323.504 143.946C323.014 144.125 322.495 144.209 321.975 144.192C319.975 144.192 317.984 143.649 316.724 141.991C315.747 140.598 315.237 138.923 315.271 137.215C314.54 139.255 314.7 143.215 315.12 145.314C315.314 146.496 315.775 147.615 316.467 148.587C317.16 149.558 318.064 150.355 319.11 150.915C325.948 154.374 333.786 152.615 338.146 150.201C339.541 149.406 340.711 148.263 341.546 146.881C342.381 145.499 342.853 143.924 342.918 142.306C343.371 134.495 344.741 133.807 344.741 133.807L339.969 130.331Z" fill="#455A64"/>
<path d="M332.156 125.818L335.651 127.262C335.837 126.789 335.831 126.26 335.635 125.791C335.438 125.321 335.067 124.949 334.601 124.755C334.372 124.66 334.126 124.613 333.878 124.615C333.631 124.617 333.386 124.669 333.158 124.768C332.931 124.867 332.725 125.01 332.553 125.191C332.381 125.371 332.246 125.584 332.156 125.818Z" fill="#37474F"/>
<path d="M318.656 126.71L322.201 125.316C322.117 125.082 321.987 124.868 321.818 124.686C321.65 124.504 321.448 124.358 321.223 124.256C320.998 124.155 320.756 124.1 320.51 124.095C320.264 124.091 320.019 124.136 319.79 124.228C319.32 124.412 318.938 124.773 318.726 125.237C318.514 125.7 318.489 126.228 318.656 126.71Z" fill="#37474F"/>
<path d="M333.971 129.94C333.949 130.348 333.77 130.731 333.471 131.006C333.172 131.281 332.778 131.426 332.375 131.41C332.08 131.391 331.797 131.285 331.561 131.105C331.325 130.925 331.147 130.678 331.049 130.396C330.951 130.114 330.938 129.81 331.01 129.52C331.082 129.23 331.237 128.968 331.456 128.767C331.674 128.565 331.946 128.434 332.238 128.388C332.53 128.342 332.829 128.385 333.097 128.51C333.366 128.635 333.592 128.837 333.747 129.092C333.902 129.346 333.98 129.641 333.971 129.94Z" fill="#263238"/>
<path d="M322.672 129.625C322.633 130.02 322.446 130.386 322.15 130.647C321.855 130.908 321.472 131.046 321.079 131.032C320.687 131.018 320.314 130.853 320.037 130.571C319.761 130.29 319.6 129.912 319.589 129.515C319.628 129.119 319.814 128.754 320.11 128.493C320.406 128.232 320.789 128.094 321.181 128.108C321.574 128.122 321.946 128.287 322.223 128.569C322.5 128.85 322.66 129.228 322.672 129.625Z" fill="#263238"/>
<path d="M328.099 126.693L326.83 136.373L321.639 134.487C323.186 131.431 325.394 128.767 328.099 126.693Z" fill="#F0997A"/>
<path d="M327.46 140.478L323.26 140.708C323.27 140.988 323.334 141.264 323.451 141.519C323.567 141.774 323.733 142.003 323.938 142.192C324.143 142.381 324.383 142.527 324.645 142.621C324.906 142.715 325.184 142.755 325.461 142.739C326.019 142.7 326.541 142.442 326.914 142.019C327.288 141.597 327.484 141.044 327.46 140.478Z" fill="#B16668"/>
<path d="M326.872 141.056C327.043 141.068 327.211 141.096 327.376 141.141C327.26 141.578 327.01 141.968 326.664 142.254C326.317 142.541 325.891 142.71 325.444 142.739C325.217 142.75 324.99 142.721 324.772 142.654C324.851 142.165 325.113 141.726 325.505 141.428C325.896 141.13 326.386 140.997 326.872 141.056Z" fill="#F28F8F"/>
<path d="M323.268 136.798C321.823 137.181 320.488 138.439 318.95 138.362C318.757 138.366 318.566 138.322 318.394 138.235C318.221 138.148 318.072 138.019 317.959 137.861C317.873 137.701 317.824 137.524 317.816 137.342C317.769 137.051 317.819 136.752 317.959 136.492C318.033 136.363 318.148 136.263 318.285 136.209C318.423 136.155 318.574 136.15 318.715 136.195C318.307 135.985 317.833 135.946 317.396 136.085C316.959 136.225 316.594 136.533 316.38 136.943C316.165 137.402 316.066 137.908 316.093 138.415C316.119 138.923 316.27 139.415 316.531 139.849C316.891 140.361 317.359 140.786 317.9 141.094C318.442 141.401 319.045 141.582 319.664 141.626C321.095 141.752 322.532 141.481 323.823 140.844C324.205 140.643 324.601 140.47 325.007 140.325C325.382 140.241 325.77 140.24 326.144 140.324C326.519 140.408 326.87 140.574 327.175 140.81C327.848 141.236 328.582 141.554 329.35 141.753C331.19 142.136 332.963 142.144 334.492 140.827C334.732 140.638 334.949 140.421 335.139 140.181C335.35 139.832 335.47 139.435 335.489 139.026C335.509 138.618 335.425 138.211 335.248 137.844C335.099 137.551 334.888 137.296 334.629 137.098C334.37 136.899 334.071 136.762 333.752 136.696C333.917 136.903 334.007 137.161 334.007 137.427C334.007 137.693 333.917 137.951 333.752 138.158C333.587 138.365 333.377 138.529 333.137 138.638C332.898 138.747 332.637 138.798 332.375 138.787C331.848 138.765 331.333 138.629 330.863 138.388C330.191 138.073 329.552 137.657 328.88 137.334C327.149 136.514 325.193 136.316 323.335 136.773L323.268 136.798Z" fill="#37474F"/>
<path d="M326.167 163.349C326.167 163.349 324.058 161.267 323.789 159.1C323.562 157.281 326.595 156.932 326.595 156.932L328.233 160.043L326.167 163.349Z" fill="#263238"/>
<path d="M327.015 166.978C323.806 174.237 322.033 194.175 322.033 194.175L325.99 207.281L332.627 195.637C332.627 195.637 330.77 176.251 330.77 167.59L327.015 166.978Z" fill="#263238"/>
<path d="M328.233 160.009C329.171 160.565 330.248 160.833 331.333 160.783L332.744 163.749L330.77 167.565C330.77 167.565 327.973 167.743 327.015 166.978L326.175 163.349C326.175 163.349 327.25 160.715 328.233 160.009Z" fill="#37474F"/>
<path d="M331.333 160.783L337.104 157.782L339.818 160.851L332.711 163.749C332.287 163.381 331.945 162.926 331.707 162.415C331.47 161.904 331.342 161.347 331.333 160.783Z" fill="#263238"/>
<path d="M347.042 155.768C347.042 155.768 345.64 160.23 335.676 165.44C334.374 163.494 333.156 160.341 331.291 160.774C330.875 160.826 330.454 160.8 330.048 160.698C330.34 160.034 330.757 159.434 331.274 158.93C332.45 157.893 337.524 156.899 340.515 154.833C343.506 152.768 343.926 152.046 343.926 152.046V150.779C344.766 150.822 346.152 153.567 347.042 155.768Z" fill="#E0E0E0"/>
<path d="M329.266 160.477C328.93 160.357 328.604 160.21 328.292 160.035H328.25C326.788 159.253 324.663 160.885 323.378 163.162C321.872 160.755 321.259 157.885 321.647 155.063L323.915 152.589C324.638 152.734 325.805 152.844 325.805 152.844V154.026C325.997 155.134 326.452 156.179 327.133 157.068C327.99 157.986 328.83 158.573 329.266 160.477Z" fill="#E0E0E0"/>
<path d="M303.174 200.983C303.585 187.385 304.803 180.262 306.937 173.191C308.858 166.992 311.986 161.244 316.136 156.287L321.58 155.131C318.293 160.432 315.857 166.226 314.363 172.299L342.262 174.458L347.572 155.76L353.452 157.111C350.157 169.559 348.383 182.369 348.168 195.255C348.168 197.481 348.227 199.844 348.387 202.309C349.722 210.595 358.762 207.136 358.762 207.136L358.543 214.488C357.299 215.7 355.685 216.449 353.965 216.613C352.503 220.165 353.612 235.727 354.242 245.773C354.872 255.819 355.636 267.641 356.913 274.95C317.657 282.531 302.199 272.077 302.199 272.077C302.199 272.077 302.199 248.195 302.544 229.149C302.905 211.53 302.964 207.612 303.174 200.983Z" fill="#455A64"/>
<path d="M347.084 233.704C347.084 233.704 321.353 235.09 306.433 233.704L305.669 260.323C305.669 260.323 321.538 265.236 348.286 261.318L347.084 233.704Z" fill="#37474F"/>
<path d="M336.567 262.601L335.844 262.643L334.601 234.155H335.332L336.567 262.601Z" fill="#263238"/>
<path d="M352.629 270.174C333.307 273.769 311.558 271.372 306.005 269.069L305.669 269.919C309.693 271.618 318.917 273.267 333.391 273.14C339.904 272.976 346.391 272.268 352.789 271.023L352.629 270.174ZM344.841 178.214L333.492 177.364L333.106 181.826L344.472 182.727L344.841 178.214Z" fill="#37474F"/>
<path d="M343.397 199.317C343.189 199.693 342.902 200.018 342.556 200.269C341.188 201.426 339.622 202.319 337.936 202.904C336.837 203.17 335.705 203.273 334.576 203.21C332.17 203.128 329.782 202.763 327.46 202.122C324.663 201.365 321.832 200.167 320.017 197.872C319.522 197.252 320.194 196.334 320.807 196.02C321.585 195.704 322.444 195.656 323.251 195.884C323.393 195.941 323.546 195.959 323.697 195.935C323.82 195.885 323.932 195.81 324.024 195.714C324.501 195.378 325.053 195.165 325.63 195.096C326.207 195.026 326.792 195.101 327.334 195.314C328.435 195.663 329.434 196.3 330.527 196.699C330.683 196.768 330.852 196.8 331.022 196.793C331.211 196.744 331.389 196.664 331.551 196.555C332.246 196.22 333.035 196.148 333.778 196.351C334.51 196.557 335.226 196.818 335.92 197.133C337.271 197.664 338.682 198.023 340.12 198.204C340.826 198.289 343.481 197.906 343.481 198.901C343.482 199.044 343.453 199.186 343.397 199.317Z" fill="#F0997A"/>
<path d="M375.109 215.678C383.821 215.338 385.946 212.321 383.208 201.901C381.486 195.323 375.009 176.157 371.774 169.545C368.347 162.533 364.835 159.601 356.174 158.547C353.486 163.893 354.435 177.143 356.888 183.084C359.182 188.642 362.206 196.173 362.206 196.173C360.627 195.935 359.056 195.68 357.476 195.425C356.099 195.195 354.721 194.966 353.343 194.711C351.965 194.456 350.436 194.43 349.143 193.674C348.252 193.164 347.463 192.509 346.564 191.974C344.589 190.827 342.254 190.393 340.355 189.127C339.515 188.583 338.734 187.86 337.76 187.827C337.667 187.813 337.572 187.831 337.491 187.877C337.421 187.946 337.373 188.035 337.356 188.132C337.216 188.75 337.219 189.392 337.364 190.009C337.51 190.625 337.795 191.199 338.196 191.685C339.024 192.641 340.007 193.446 341.103 194.065C341.893 194.549 342.783 195.297 342.565 196.198C342.406 196.621 342.11 196.978 341.725 197.209C339.021 199.119 335.78 200.093 332.484 199.989C330.826 199.961 329.179 199.727 327.578 199.292C325.831 198.816 324.268 197.872 322.479 197.524C321.453 197.286 320.388 197.286 319.362 197.524C318.69 197.711 317.925 198.263 318.102 198.943C318.204 199.22 318.381 199.462 318.614 199.64C321.385 202.154 324.661 204.03 328.216 205.139C335.475 207.391 343.439 206.176 350.571 208.87C357.543 211.505 364.575 214.921 372.094 215.542C373.095 215.651 374.102 215.697 375.109 215.678Z" fill="#FFBDA7"/>
<path d="M361.433 195.578C361.433 195.578 357.535 186.535 355.174 180.364C352.814 174.194 353.637 160.196 355.788 157.867C365.869 159.482 368.389 161.437 371.497 167.828C374.605 174.22 380.091 190.623 380.091 190.623C383.527 201 385.619 207.672 384.569 210.952C383.519 214.233 381.746 216.46 374.11 216.145C366.473 215.831 354.225 211.046 354.225 211.046C356.591 208.637 358.004 205.436 358.199 202.045C358.409 196.538 355.88 195.136 355.88 195.136L361.433 195.578Z" fill="#E0E0E0"/>
<path opacity="0.1" d="M372.052 200.983C370.842 198.935 365.482 196.105 361.433 195.578L360.593 193.682C367.759 194.668 370.892 197.634 372.052 200.983Z" fill="black"/>
<path d="M274.258 377.669C273.502 373.335 270.284 369.119 264.597 365.771C251.483 358.121 230.212 358.121 217.09 365.771C211.403 369.094 208.185 373.309 207.429 377.669H207.253V381.817C207.253 386.84 210.529 391.863 217.09 395.687C230.212 403.336 251.483 403.336 264.597 395.687C271.158 391.854 274.442 386.84 274.442 381.817V377.669H274.258Z" fill="#37474F"/>
<path d="M217.09 391.54C230.212 399.189 251.483 399.189 264.597 391.54C277.71 383.891 277.719 371.456 264.597 363.79C251.475 356.124 230.212 356.141 217.09 363.79C203.968 371.439 203.968 383.882 217.09 391.54Z" fill="#455A64"/>
<path d="M233.657 334.316V375.561C233.657 376.641 234.354 377.712 235.757 378.536C237.333 379.345 239.076 379.766 240.843 379.766C242.611 379.766 244.354 379.345 245.93 378.536C247.333 377.686 248.039 376.641 248.039 375.561V334.341L233.657 334.316Z" fill="#263238"/>
<path d="M248.039 335.013H233.657V352.614L238.966 355.716C239.715 356.151 240.564 356.38 241.427 356.38C242.291 356.38 243.14 356.151 243.889 355.716L248.039 353.294V335.013Z" fill="black"/>
<path d="M281.902 277.916C282.044 277.976 282.167 278.075 282.257 278.201C282.348 278.326 282.402 278.475 282.415 278.63V283.585C282.402 283.74 282.348 283.889 282.257 284.015C282.167 284.14 282.044 284.239 281.902 284.299L272.821 289.602C272.44 289.799 272.018 289.902 271.59 289.902C271.162 289.902 270.741 289.799 270.36 289.602L241.36 272.664C241.218 272.604 241.096 272.505 241.005 272.379C240.915 272.253 240.86 272.105 240.848 271.95V266.995C240.859 266.838 240.913 266.688 241.003 266.561C241.094 266.433 241.217 266.333 241.36 266.273L250.433 260.969C250.815 260.776 251.237 260.676 251.664 260.676C252.091 260.676 252.512 260.776 252.894 260.969L281.902 277.916Z" fill="#37474F"/>
<path d="M270.36 284.622L241.36 267.683C241.225 267.621 241.107 267.525 241.017 267.405C240.928 267.285 240.869 267.144 240.848 266.995V271.907C240.859 272.064 240.913 272.214 241.003 272.342C241.094 272.469 241.217 272.569 241.36 272.63L270.36 289.568C270.729 289.767 271.142 289.869 271.561 289.866V284.919C271.142 284.921 270.73 284.819 270.36 284.622Z" fill="#263238"/>
<path d="M272.821 284.622L281.902 279.319C282.043 279.254 282.164 279.153 282.254 279.026C282.344 278.9 282.399 278.751 282.415 278.596C282.402 278.441 282.348 278.292 282.257 278.167C282.167 278.041 282.044 277.942 281.902 277.882L252.903 260.969C252.521 260.776 252.099 260.676 251.672 260.676C251.245 260.676 250.824 260.776 250.441 260.969L241.369 266.273C241.226 266.333 241.102 266.433 241.011 266.561C240.921 266.688 240.867 266.838 240.856 266.995C240.869 267.15 240.923 267.299 241.014 267.424C241.104 267.55 241.227 267.649 241.369 267.709L270.36 284.622C270.742 284.815 271.163 284.915 271.59 284.915C272.018 284.915 272.439 284.815 272.821 284.622Z" fill="#455A64"/>
<path d="M288.572 323.632V326.386L244.342 352.215C243.481 352.716 242.505 352.98 241.511 352.98C240.518 352.98 239.542 352.716 238.68 352.215L194.45 326.386V323.632H288.572Z" fill="#37474F"/>
<path d="M222.5 303.32C223.214 302.903 223.806 302.303 224.218 301.581C224.629 300.859 224.845 300.04 224.844 299.206V282.429C224.844 281.197 224.004 280.687 222.929 281.29L214.99 285.761C214.432 286.115 213.966 286.599 213.631 287.173C213.297 287.746 213.103 288.393 213.066 289.058V306.056C213.071 306.897 212.852 307.723 212.434 308.45C212.016 309.176 211.414 309.776 210.689 310.187L215.427 307.408L222.5 303.32Z" fill="#263238"/>
<path d="M223.643 303.872C224.357 303.455 224.95 302.856 225.363 302.134C225.776 301.412 225.994 300.593 225.995 299.759V282.973C225.995 281.749 225.155 281.273 224.08 281.834L216.133 286.322C215.576 286.679 215.113 287.165 214.779 287.74C214.446 288.315 214.254 288.962 214.217 289.628V306.626C214.222 307.468 214.004 308.295 213.586 309.023C213.168 309.751 212.565 310.352 211.84 310.765L216.578 307.986L223.643 303.872Z" fill="#37474F"/>
<path d="M194.459 323.632L238.622 349.444C239.494 349.958 240.485 350.228 241.495 350.228C242.504 350.228 243.495 349.958 244.368 349.444L288.564 323.632C288.564 320.233 286.758 312.898 283.86 311.207L279.886 308.895C279.651 308.742 279.407 308.606 279.147 308.453L246.804 289.577C245.191 288.629 243.36 288.13 241.495 288.13C239.63 288.13 237.798 288.629 236.185 289.577L199.138 311.207L199.054 311.275L198.961 311.343C196.189 313.026 194.459 320.318 194.459 323.632Z" fill="#295F2B"/>
<path opacity="0.15" d="M288.572 323.632C288.572 320.233 286.766 312.898 283.868 311.207L279.895 308.895C285.456 312.21 287.732 314.428 283.851 316.697L244.502 339.704C243.6 340.229 242.577 340.504 241.537 340.503V350.192C242.575 350.194 243.595 349.919 244.494 349.393L288.572 323.632Z" fill="black"/>
<path opacity="0.3" d="M238.537 339.704C231.111 335.353 211.705 323.998 203.851 319.451C195.643 314.691 198.214 311.938 198.978 311.343C196.198 313.043 194.459 320.301 194.459 323.632L238.537 349.393C239.441 349.922 240.468 350.197 241.511 350.192V340.503C240.468 340.508 239.441 340.233 238.537 339.704Z" fill="black"/>
<path d="M226.65 209.261L223.248 207.791C221.266 206.941 218.737 207.196 216.124 208.717L187.931 225.188C182.672 228.248 179.068 235.319 179.867 240.988L187.881 297.625L191.292 299.104L238.504 271.508L230.498 214.93C230.095 212.057 228.65 210.102 226.65 209.261Z" fill="#37474F"/>
<path d="M235.547 250.626L230.506 214.93C230.103 212.083 228.658 210.128 226.659 209.287L223.256 207.816C221.274 206.966 218.745 207.221 216.133 208.743L187.94 225.214C185.183 226.915 182.967 229.381 181.555 232.319L235.547 250.626Z" fill="#455A64"/>
<path d="M226.65 209.27C224.668 208.42 222.139 208.666 219.527 210.187L191.342 226.659C186.083 229.727 182.479 236.798 183.277 242.458L191.292 299.07L199.482 302.555L246.695 274.959L238.68 218.355C238.285 215.567 236.891 213.638 234.95 212.771C234.135 212.44 227.44 209.601 226.65 209.27Z" fill="#295F2B"/>
<path opacity="0.3" d="M184.957 233.755C183.547 236.42 182.962 239.452 183.277 242.458L191.292 299.07L199.482 302.555L246.695 274.959L243.738 254.076L184.957 233.755Z" fill="black"/>
<path opacity="0.2" d="M238.68 218.389C238.285 215.601 236.891 213.672 234.95 212.805C234.11 212.44 227.44 209.601 226.65 209.27C224.668 208.42 222.139 208.666 219.527 210.187L191.342 226.659C188.584 228.355 186.368 230.818 184.957 233.755L243.763 254.11L238.68 218.389Z" fill="white"/>
<path d="M199.482 302.589L191.468 245.951C190.628 240.282 194.274 233.203 199.524 230.143L227.701 213.681C232.959 210.612 237.865 212.729 238.663 218.389L246.678 274.993L199.482 302.589Z" fill="#295F2B"/>
<path d="M223.996 311.742C224.138 311.802 224.26 311.901 224.351 312.027C224.441 312.153 224.496 312.301 224.508 312.456V317.411C224.493 317.566 224.437 317.715 224.347 317.842C224.257 317.968 224.136 318.069 223.996 318.134L214.915 323.437C214.532 323.63 214.111 323.73 213.684 323.73C213.257 323.73 212.835 323.63 212.453 323.437L183.454 306.49C183.312 306.43 183.189 306.331 183.099 306.205C183.008 306.08 182.954 305.931 182.941 305.776V300.821C182.954 300.666 183.008 300.517 183.099 300.392C183.189 300.266 183.312 300.167 183.454 300.107L192.535 294.821C192.914 294.624 193.335 294.521 193.761 294.521C194.188 294.521 194.608 294.624 194.988 294.821L223.996 311.742Z" fill="#37474F"/>
<path d="M212.453 318.482L183.454 301.543C183.315 301.485 183.195 301.391 183.105 301.27C183.015 301.149 182.958 301.006 182.941 300.855V305.776C182.954 305.931 183.008 306.08 183.099 306.205C183.189 306.331 183.312 306.43 183.454 306.49L212.453 323.437C212.824 323.633 213.236 323.732 213.654 323.726V318.779C213.236 318.785 212.822 318.683 212.453 318.482Z" fill="#263238"/>
<path d="M214.915 318.482L223.996 313.179C224.145 313.129 224.275 313.032 224.367 312.903C224.459 312.775 224.509 312.62 224.509 312.46C224.509 312.301 224.459 312.146 224.367 312.017C224.275 311.889 224.145 311.792 223.996 311.742L194.988 294.821C194.608 294.624 194.188 294.521 193.761 294.521C193.335 294.521 192.914 294.624 192.535 294.821L183.454 300.124C183.312 300.184 183.189 300.283 183.099 300.409C183.008 300.534 182.954 300.683 182.941 300.838C182.952 300.995 183.006 301.145 183.097 301.272C183.187 301.4 183.311 301.5 183.454 301.56L212.453 318.499C212.835 318.693 213.258 318.793 213.686 318.79C214.114 318.787 214.535 318.682 214.915 318.482Z" fill="#455A64"/>
<path d="M213.1 190.045L211.42 189.433C210.948 189.292 210.451 189.258 209.965 189.333C209.479 189.408 209.015 189.59 208.606 189.866L185.781 203.193C183.697 204.408 182.278 207.153 182.605 209.321L183.722 216.97C183.762 217.436 183.931 217.881 184.208 218.255C184.486 218.63 184.862 218.917 185.293 219.086L186.974 219.715C187.439 219.85 187.927 219.882 188.406 219.809C188.884 219.736 189.341 219.559 189.746 219.29L212.579 205.955C214.671 204.74 216.091 201.994 215.763 199.836L214.646 192.187C214.607 191.72 214.442 191.274 214.17 190.896C213.897 190.519 213.527 190.224 213.1 190.045Z" fill="#455A64"/>
<path d="M185.411 217.573L184.294 209.924C183.958 207.765 185.386 205.02 187.469 203.805L210.294 190.47C212.386 189.254 214.343 190.019 214.671 192.17L215.788 199.819C216.116 201.977 214.696 204.723 212.604 205.938L189.788 219.273C187.696 220.505 185.739 219.74 185.411 217.573Z" fill="#37474F"/>
<path d="M214.041 190.41C213.571 190.27 213.076 190.235 212.591 190.308C212.107 190.382 211.644 190.562 211.235 190.835L188.41 204.162C186.327 205.385 184.899 208.122 185.226 210.289L186.344 217.939C186.384 218.407 186.553 218.856 186.83 219.234C187.107 219.612 187.483 219.905 187.914 220.08L193.039 221.925C193.501 222.054 193.986 222.081 194.46 222.005C194.934 221.928 195.386 221.75 195.786 221.483L218.611 208.131C220.694 206.907 222.122 204.17 221.786 202.003L220.677 194.354C220.637 193.885 220.468 193.437 220.191 193.058C219.914 192.68 219.538 192.387 219.106 192.212C218.527 192.025 214.604 190.623 214.041 190.41Z" fill="#295F2B"/>
<path opacity="0.2" d="M214.041 190.41C213.571 190.27 213.076 190.235 212.591 190.308C212.107 190.382 211.644 190.562 211.235 190.835L188.41 204.162C186.327 205.385 184.899 208.122 185.226 210.289L186.344 217.939C186.384 218.407 186.553 218.856 186.83 219.234C187.107 219.612 187.483 219.905 187.914 220.08L193.039 221.925C193.501 222.054 193.986 222.081 194.46 222.005C194.934 221.928 195.386 221.75 195.786 221.483L218.611 208.131C220.694 206.907 222.122 204.17 221.786 202.003L220.677 194.354C220.637 193.885 220.468 193.437 220.191 193.058C219.914 192.68 219.538 192.387 219.106 192.212C218.527 192.025 214.604 190.623 214.041 190.41Z" fill="white"/>
<path d="M199.718 211.819L185.965 206.779C185.357 207.84 185.098 209.07 185.226 210.289L186.344 217.939C186.384 218.407 186.553 218.856 186.83 219.234C187.107 219.612 187.483 219.905 187.914 220.08L193.039 221.925C193.501 222.054 193.986 222.081 194.46 222.005C194.934 221.928 195.386 221.75 195.786 221.483L200.432 217.114L199.718 211.819Z" fill="#295F2B"/>
<path opacity="0.3" d="M199.718 211.819L185.965 206.779C185.357 207.84 185.098 209.07 185.226 210.289L186.344 217.939C186.384 218.407 186.553 218.856 186.83 219.234C187.107 219.612 187.483 219.905 187.914 220.08L193.039 221.925C193.501 222.054 193.986 222.081 194.46 222.005C194.934 221.928 195.386 221.75 195.786 221.483L200.432 217.114L199.718 211.819Z" fill="black"/>
<path d="M191.418 219.791L190.3 212.142C189.973 209.983 191.392 207.238 193.476 206.023L216.301 192.688C218.392 191.473 220.35 192.237 220.677 194.388L221.795 202.037C222.122 204.196 220.703 206.941 218.611 208.156L195.778 221.508C193.703 222.723 191.745 221.959 191.418 219.791Z" fill="#295F2B"/>
<path d="M316.666 85.6256C312.516 79.5233 301.419 74.4493 287.709 74.3219C275.233 74.2029 260.045 77.9084 256.256 90.0365C253.013 100.38 262.977 109.984 273.326 112.032C277.44 112.853 281.618 113.3 285.81 113.366C287.725 116.995 292.228 119.222 295.614 119.452C294.161 117.652 293.366 115.401 293.362 113.077C296.594 112.779 299.798 112.234 302.948 111.446C320.95 106.899 321.303 92.4673 316.666 85.6256Z" fill="#295F2B"/>
<path opacity="0.4" d="M316.666 85.6256C312.516 79.5233 301.419 74.4493 287.709 74.3219C275.233 74.2029 260.045 77.9084 256.256 90.0365C253.013 100.38 262.977 109.984 273.326 112.032C277.44 112.853 281.618 113.3 285.81 113.366C287.725 116.995 292.228 119.222 295.614 119.452C294.161 117.652 293.366 115.401 293.362 113.077C296.594 112.779 299.798 112.234 302.948 111.446C320.95 106.899 321.303 92.4673 316.666 85.6256Z" fill="white"/>
<path d="M271.638 96.7508C273.285 96.7508 274.62 95.4 274.62 93.7336C274.62 92.0673 273.285 90.7165 271.638 90.7165C269.991 90.7165 268.656 92.0673 268.656 93.7336C268.656 95.4 269.991 96.7508 271.638 96.7508Z" fill="white"/>
<path d="M287.398 96.7508C289.045 96.7508 290.38 95.4 290.38 93.7336C290.38 92.0673 289.045 90.7165 287.398 90.7165C285.751 90.7165 284.416 92.0673 284.416 93.7336C284.416 95.4 285.751 96.7508 287.398 96.7508Z" fill="white"/>
<path d="M303.158 90.725C302.567 90.725 301.991 90.9021 301.5 91.234C301.009 91.5659 300.627 92.0377 300.402 92.5895C300.176 93.1413 300.118 93.7484 300.233 94.3339C300.349 94.9194 300.634 95.457 301.052 95.8786C301.47 96.3002 302.002 96.5869 302.581 96.7023C303.16 96.8178 303.76 96.7568 304.305 96.5272C304.85 96.2975 305.315 95.9095 305.641 95.4122C305.968 94.9149 306.142 94.3307 306.14 93.7336C306.141 93.3375 306.065 92.945 305.915 92.579C305.765 92.2129 305.546 91.8804 305.268 91.6006C304.991 91.3209 304.662 91.0995 304.3 90.9492C303.937 90.7989 303.549 90.7227 303.158 90.725Z" fill="white"/>
<defs>
<filter id="filter0_d_2273_10386" x="0.781128" y="0.988525" width="506.22" height="428.134" filterUnits="userSpaceOnUse" color-interpolation-filters="sRGB">
<feFlood flood-opacity="0" result="BackgroundImageFix"/>
<feColorMatrix in="SourceAlpha" type="matrix" values="0 0 0 0 0 0 0 0 0 0 0 0 0 0 0 0 0 0 127 0" result="hardAlpha"/>
<feOffset dx="8" dy="8"/>
<feGaussianBlur stdDeviation="2"/>
<feComposite in2="hardAlpha" operator="out"/>
<feColorMatrix type="matrix" values="0 0 0 0 0 0 0 0 0 0 0 0 0 0 0 0 0 0 0.25 0"/>
<feBlend mode="normal" in2="BackgroundImageFix" result="effect1_dropShadow_2273_10386"/>
<feBlend mode="normal" in="SourceGraphic" in2="effect1_dropShadow_2273_10386" result="shape"/>
</filter>
</defs>
</svg>
