<svg width="48" height="69" viewBox="0 0 48 69" fill="none" xmlns="http://www.w3.org/2000/svg">
<path d="M35.1329 41.7081L25.1329 51.7081C25.04 51.801 24.9297 51.8748 24.8083 51.9251C24.6869 51.9754 24.5568 52.0013 24.4254 52.0013C24.2939 52.0013 24.1638 51.9754 24.0424 51.9251C23.921 51.8748 23.8107 51.801 23.7179 51.7081L13.7179 41.7081C13.5302 41.5204 13.4248 41.2659 13.4248 41.0006C13.4248 40.7352 13.5302 40.4807 13.7179 40.2931C13.9055 40.1054 14.16 40 14.4254 40C14.6907 40 14.9452 40.1054 15.1329 40.2931L24.4254 49.5868L33.7179 40.2931C33.8108 40.2001 33.9211 40.1264 34.0425 40.0762C34.1639 40.0259 34.294 40 34.4254 40C34.5568 40 34.6869 40.0259 34.8083 40.0762C34.9297 40.1264 35.04 40.2001 35.1329 40.2931C35.2258 40.386 35.2995 40.4963 35.3498 40.6177C35.4 40.7391 35.4259 40.8692 35.4259 41.0006C35.4259 41.132 35.4 41.2621 35.3498 41.3835C35.2995 41.5048 35.2258 41.6151 35.1329 41.7081Z" fill="#8F93EC"/>
<path d="M1.05688 67V60.872H1.06488L4.33687 65.512L3.84088 65.4L7.10488 60.872H7.12088V67H5.96088V63.488L6.03288 64.088L4.04088 66.92H4.02488L1.97688 64.088L2.17688 63.536V67H1.05688ZM9.93081 67.096C9.60548 67.096 9.30948 67.032 9.04281 66.904C8.78148 66.7707 8.57348 66.568 8.41881 66.296C8.26415 66.024 8.18681 65.6773 8.18681 65.256C8.18681 64.8613 8.26681 64.52 8.42681 64.232C8.58681 63.944 8.79748 63.7227 9.05881 63.568C9.32015 63.408 9.59748 63.328 9.89081 63.328C10.2375 63.328 10.4988 63.3867 10.6748 63.504C10.8561 63.616 11.0055 63.7413 11.1228 63.88L11.0748 64.016L11.1788 63.504H12.2188V67H11.0988V66.24L11.1868 66.48C11.1761 66.48 11.1441 66.512 11.0908 66.576C11.0375 66.6347 10.9575 66.7067 10.8508 66.792C10.7495 66.872 10.6215 66.9413 10.4668 67C10.3175 67.064 10.1388 67.096 9.93081 67.096ZM10.2508 66.184C10.3841 66.184 10.5041 66.1653 10.6108 66.128C10.7175 66.0853 10.8108 66.0267 10.8908 65.952C10.9708 65.872 11.0401 65.7733 11.0988 65.656V64.8C11.0561 64.6827 10.9921 64.584 10.9068 64.504C10.8215 64.4187 10.7201 64.3547 10.6028 64.312C10.4855 64.264 10.3548 64.24 10.2108 64.24C10.0508 64.24 9.90148 64.2827 9.76281 64.368C9.62948 64.448 9.52281 64.56 9.44281 64.704C9.36281 64.848 9.32281 65.0133 9.32281 65.2C9.32281 65.3867 9.36548 65.5547 9.45081 65.704C9.53615 65.8533 9.64815 65.9707 9.78681 66.056C9.93081 66.1413 10.0855 66.184 10.2508 66.184ZM13.3729 63.504H14.4929V67H13.3729V63.504ZM13.3489 62.264C13.3489 62.0987 13.4129 61.9627 13.5409 61.856C13.6742 61.7493 13.8155 61.696 13.9649 61.696C14.1142 61.696 14.2502 61.7493 14.3729 61.856C14.5009 61.9627 14.5649 62.0987 14.5649 62.264C14.5649 62.4293 14.5009 62.5653 14.3729 62.672C14.2502 62.7733 14.1142 62.824 13.9649 62.824C13.8155 62.824 13.6742 62.7733 13.5409 62.672C13.4129 62.5653 13.3489 62.4293 13.3489 62.264ZM16.7823 67.072C16.4943 67.072 16.225 67.0213 15.9743 66.92C15.729 66.8187 15.521 66.6773 15.3503 66.496L15.8143 65.88C15.985 66.0347 16.1423 66.1467 16.2863 66.216C16.4356 66.28 16.569 66.312 16.6863 66.312C16.777 66.312 16.857 66.304 16.9263 66.288C17.001 66.2667 17.0596 66.2373 17.1023 66.2C17.145 66.1573 17.1663 66.104 17.1663 66.04C17.1663 65.9493 17.129 65.8773 17.0543 65.824C16.985 65.7707 16.8943 65.728 16.7823 65.696C16.6703 65.6587 16.5503 65.6213 16.4223 65.584C16.1023 65.4827 15.8703 65.336 15.7263 65.144C15.5876 64.9467 15.5183 64.7333 15.5183 64.504C15.5183 64.328 15.5636 64.152 15.6543 63.976C15.7503 63.7947 15.8996 63.6453 16.1023 63.528C16.3103 63.4053 16.577 63.344 16.9023 63.344C17.1956 63.344 17.4436 63.3733 17.6463 63.432C17.849 63.4907 18.041 63.5867 18.2223 63.72L17.7983 64.376C17.697 64.296 17.5823 64.2293 17.4543 64.176C17.3316 64.1173 17.217 64.0853 17.1103 64.08C17.0143 64.0747 16.9316 64.0853 16.8623 64.112C16.7983 64.1387 16.7476 64.1733 16.7103 64.216C16.673 64.2587 16.6543 64.304 16.6543 64.352C16.649 64.4533 16.6863 64.5333 16.7663 64.592C16.8516 64.6507 16.9583 64.696 17.0863 64.728C17.2143 64.76 17.3396 64.7973 17.4623 64.84C17.633 64.8933 17.7796 64.9653 17.9023 65.056C18.025 65.1467 18.1183 65.256 18.1823 65.384C18.2516 65.5067 18.2863 65.656 18.2863 65.832C18.2863 66.0453 18.2303 66.248 18.1183 66.44C18.0116 66.6267 17.8463 66.7787 17.6223 66.896C17.4036 67.0133 17.1236 67.072 16.7823 67.072ZM21.346 67L24.002 60.88H24.066L26.722 67H25.378L23.682 62.696L24.522 62.12L22.49 67H21.346ZM23.162 64.872H24.93L25.338 65.848H22.802L23.162 64.872ZM29.6923 67.096C29.399 67.096 29.151 67.048 28.9483 66.952C28.751 66.8507 28.5776 66.72 28.4283 66.56L28.5163 66.32V67H27.3963V60.688H28.5083V64.104V63.744C28.647 63.6267 28.831 63.528 29.0603 63.448C29.2896 63.368 29.551 63.328 29.8443 63.328C30.1483 63.328 30.4256 63.4 30.6763 63.544C30.927 63.688 31.127 63.8987 31.2763 64.176C31.431 64.448 31.5083 64.7813 31.5083 65.176C31.5083 65.5707 31.423 65.912 31.2523 66.2C31.087 66.488 30.8656 66.7093 30.5883 66.864C30.311 67.0187 30.0123 67.096 29.6923 67.096ZM29.4443 66.152C29.6096 66.152 29.7616 66.1093 29.9003 66.024C30.0443 65.9387 30.159 65.8213 30.2443 65.672C30.3296 65.5227 30.3723 65.3547 30.3723 65.168C30.3723 64.9813 30.3296 64.816 30.2443 64.672C30.159 64.528 30.0443 64.416 29.9003 64.336C29.7616 64.2507 29.6096 64.208 29.4443 64.208C29.3003 64.208 29.1643 64.232 29.0363 64.28C28.9136 64.3227 28.807 64.3867 28.7163 64.472C28.631 64.552 28.5643 64.6507 28.5163 64.768V65.624C28.5803 65.7413 28.655 65.84 28.7403 65.92C28.831 65.9947 28.935 66.0533 29.0523 66.096C29.1696 66.1333 29.3003 66.152 29.4443 66.152ZM33.8605 67.096C33.5352 67.096 33.2392 67.032 32.9725 66.904C32.7112 66.7707 32.5032 66.568 32.3485 66.296C32.1938 66.024 32.1165 65.6773 32.1165 65.256C32.1165 64.8613 32.1965 64.52 32.3565 64.232C32.5165 63.944 32.7272 63.7227 32.9885 63.568C33.2498 63.408 33.5272 63.328 33.8205 63.328C34.1672 63.328 34.4285 63.3867 34.6045 63.504C34.7858 63.616 34.9352 63.7413 35.0525 63.88L35.0045 64.016L35.1085 63.504H36.1485V67H35.0285V66.24L35.1165 66.48C35.1058 66.48 35.0738 66.512 35.0205 66.576C34.9672 66.6347 34.8872 66.7067 34.7805 66.792C34.6792 66.872 34.5512 66.9413 34.3965 67C34.2472 67.064 34.0685 67.096 33.8605 67.096ZM34.1805 66.184C34.3138 66.184 34.4338 66.1653 34.5405 66.128C34.6472 66.0853 34.7405 66.0267 34.8205 65.952C34.9005 65.872 34.9698 65.7733 35.0285 65.656V64.8C34.9858 64.6827 34.9218 64.584 34.8365 64.504C34.7512 64.4187 34.6498 64.3547 34.5325 64.312C34.4152 64.264 34.2845 64.24 34.1405 64.24C33.9805 64.24 33.8312 64.2827 33.6925 64.368C33.5592 64.448 33.4525 64.56 33.3725 64.704C33.2925 64.848 33.2525 65.0133 33.2525 65.2C33.2525 65.3867 33.2952 65.5547 33.3805 65.704C33.4658 65.8533 33.5778 65.9707 33.7165 66.056C33.8605 66.1413 34.0152 66.184 34.1805 66.184ZM37.3026 63.504H38.4226V67H37.3026V63.504ZM37.2786 62.264C37.2786 62.0987 37.3426 61.9627 37.4706 61.856C37.6039 61.7493 37.7452 61.696 37.8946 61.696C38.0439 61.696 38.1799 61.7493 38.3026 61.856C38.4306 61.9627 38.4946 62.0987 38.4946 62.264C38.4946 62.4293 38.4306 62.5653 38.3026 62.672C38.1799 62.7733 38.0439 62.824 37.8946 62.824C37.7452 62.824 37.6039 62.7733 37.4706 62.672C37.3426 62.5653 37.2786 62.4293 37.2786 62.264ZM41.16 64.616L41.824 63.504H42.936L41.552 65.424L41.16 64.616ZM43.128 67H41.776L39.08 63.504H40.456L43.128 67ZM41.016 65.88L40.232 67H39.12L40.504 65.128L41.016 65.88ZM43.4368 65.208C43.4368 64.8507 43.5195 64.5307 43.6848 64.248C43.8555 63.9653 44.0928 63.744 44.3968 63.584C44.7008 63.4187 45.0501 63.336 45.4448 63.336C45.8448 63.336 46.1915 63.4187 46.4848 63.584C46.7781 63.744 47.0021 63.9653 47.1568 64.248C47.3168 64.5307 47.3968 64.8507 47.3968 65.208C47.3968 65.5653 47.3168 65.888 47.1568 66.176C47.0021 66.4587 46.7781 66.6827 46.4848 66.848C46.1915 67.0133 45.8395 67.096 45.4288 67.096C45.0448 67.096 44.7008 67.0213 44.3968 66.872C44.0981 66.7227 43.8635 66.5067 43.6928 66.224C43.5221 65.9413 43.4368 65.6027 43.4368 65.208ZM44.5648 65.216C44.5648 65.3973 44.6021 65.5627 44.6768 65.712C44.7515 65.856 44.8528 65.9707 44.9808 66.056C45.1088 66.1413 45.2528 66.184 45.4128 66.184C45.5888 66.184 45.7408 66.1413 45.8688 66.056C45.9968 65.9707 46.0955 65.856 46.1648 65.712C46.2341 65.5627 46.2688 65.3973 46.2688 65.216C46.2688 65.0293 46.2341 64.864 46.1648 64.72C46.0955 64.576 45.9968 64.4613 45.8688 64.376C45.7408 64.2907 45.5888 64.248 45.4128 64.248C45.2528 64.248 45.1088 64.2907 44.9808 64.376C44.8528 64.4613 44.7515 64.576 44.6768 64.72C44.6021 64.864 44.5648 65.0293 44.5648 65.216Z" fill="#8F93EC"/>
<path d="M25.5 1H21.5C19.2464 1.00232 17.0857 1.89859 15.4922 3.49215C13.8986 5.08571 13.0023 7.24637 13 9.5V21.5C13.0023 23.7536 13.8986 25.9143 15.4922 27.5078C17.0857 29.1014 19.2464 29.9977 21.5 30H25.5C27.7536 29.9977 29.9143 29.1014 31.5078 27.5078C33.1014 25.9143 33.9977 23.7536 34 21.5V9.5C33.9977 7.24637 33.1014 5.08571 31.5078 3.49215C29.9143 1.89859 27.7536 1.00232 25.5 1ZM31 9.5V12H25V4H25.5C26.9582 4.00165 28.3562 4.58165 29.3873 5.61274C30.4184 6.64383 30.9983 8.04182 31 9.5ZM21.5 4H22V12H16V9.5C16.0017 8.04182 16.5816 6.64383 17.6127 5.61274C18.6438 4.58165 20.0418 4.00165 21.5 4ZM25.5 27H21.5C20.0418 26.9983 18.6438 26.4184 17.6127 25.3873C16.5816 24.3562 16.0017 22.9582 16 21.5V15H31V21.5C30.9983 22.9582 30.4184 24.3562 29.3873 25.3873C28.3562 26.4184 26.9582 26.9983 25.5 27Z" fill="#8F93EC"/>
</svg>
