<svg width="1564" height="855" viewBox="0 0 1564 855" fill="none" xmlns="http://www.w3.org/2000/svg">
<g filter="url(#filter0_d_2336_5246)">
<path d="M452.465 412.216C452.465 412.216 391.359 448.003 370.321 457.702C349.282 467.401 315.363 473.904 262.517 498.238C209.671 522.573 133.415 605.025 150.443 653.183C167.471 701.342 216.77 689.181 246.809 668.363C276.848 647.545 289.701 628.58 334.242 578.764C393.719 511.916 433.555 468.765 433.555 468.765L459.854 416.734L452.465 412.216ZM352.689 520.012C325.836 541.597 300.793 565.143 277.739 590.48C249.144 622.323 246.412 638.055 225.558 651.828C208.724 663.017 185.167 658.815 184.557 634.197C183.946 609.58 200.892 575.294 244.46 540.005C273.234 512.466 312.638 497.155 355.412 496.893C364.468 498.17 371.579 504.559 352.689 520.012Z" fill="#31335F"/>
<path d="M618.566 624.989C623.947 582.911 583.287 559.248 572.704 528.352C562.121 497.456 535.621 434.864 535.621 434.864L492.664 486.79C492.664 486.79 497.024 542.024 499.024 565.271C501.023 588.517 477.253 621.93 465.177 646.832C453.102 671.733 455.333 720.025 521.04 716.037C546.988 715.178 570.802 705.683 588.539 689.124C606.275 672.565 616.87 649.937 618.566 624.989ZM528.847 685.825C503.466 686.988 487.808 670.571 494.355 649.371C498.8 637.899 506.429 628.111 516.484 620.976C526.539 613.841 538.673 609.607 551.683 608.693C577.064 607.531 592.472 624.034 586.175 645.148C581.795 656.681 574.267 666.573 564.312 673.874C554.356 681.175 542.309 685.64 529.328 686.839L528.847 685.825Z" fill="#31335F"/>
<path d="M446.985 420.596L865.31 152.09L871.449 165.026C871.449 165.026 869.634 185.76 776.016 257.415C682.398 329.07 439.205 480.95 439.205 480.95L420.982 469.566L446.985 420.596Z" fill="#BEBEBE"/>
<path opacity="0.2" d="M439.846 479.841L433.105 465.638L417.836 456.181L424.457 470.131L439.846 479.841Z" fill="#D6D6D6"/>
<path d="M440.361 406.644L865.344 149.711C865.344 149.711 863.649 170.698 769.911 242.1C676.173 313.501 432.98 465.381 432.98 465.381L414.757 453.998L440.361 406.644Z" fill="#FAFAFA"/>
<path d="M436.868 399.886C436.868 399.886 375.762 435.672 354.724 445.371C333.685 455.07 299.766 461.573 246.92 485.908C194.074 510.242 117.818 592.694 134.846 640.853C151.874 689.012 201.173 676.851 231.212 656.033C261.251 635.215 274.104 616.25 318.645 566.433C378.122 499.585 417.959 456.434 417.959 456.434L444.257 404.404L436.868 399.886ZM337.092 507.682C310.239 529.267 285.196 552.812 262.142 578.15C233.547 609.992 230.815 625.725 209.962 639.497C193.127 650.687 169.57 646.484 168.96 621.867C168.349 597.249 185.295 562.964 228.863 527.675C257.637 500.136 297.042 484.825 339.815 484.562C348.871 485.839 355.982 492.228 337.092 507.682Z" fill="#423881"/>
<path d="M682.731 92.7666C678.448 124.91 669.343 155.755 655.691 184.37C634.976 221.151 533.261 437.22 533.261 437.22L491.804 488.623L470.109 484.658L466.582 415.83C466.582 415.83 596.946 204.257 625.615 159.678C654.284 115.098 684.879 82.5585 682.731 92.7666Z" fill="#BEBEBE"/>
<path d="M463.983 470.541L485.679 474.506L486.595 487.488L470.604 484.491L463.983 470.541Z" fill="#070707"/>
<path d="M676.112 78.8194C671.829 110.963 662.724 141.808 649.072 170.423C628.357 207.204 526.643 423.274 526.643 423.274L485.186 474.676L463.37 470.457L459.843 401.629C459.843 401.629 590.327 190.311 618.876 145.478C647.425 100.644 677.659 67.3431 676.112 78.8194Z" fill="#FAFAFA"/>
<path d="M611.081 612.876C616.462 570.799 575.803 547.135 565.22 516.24C554.636 485.344 528.136 422.752 528.136 422.752L485.179 474.677C485.179 474.677 489.539 529.912 491.539 553.158C493.538 576.405 469.768 609.818 457.693 634.719C445.617 659.621 447.848 707.913 513.555 703.925C539.503 703.066 563.317 693.57 581.054 677.012C598.791 660.453 609.385 637.825 611.081 612.876ZM521.362 673.713C495.981 674.875 480.323 658.459 486.87 637.258C491.316 625.786 498.944 615.998 508.999 608.863C519.055 601.729 531.188 597.494 544.198 596.581C569.579 595.419 584.987 611.922 578.69 633.036C574.311 644.569 566.782 654.461 556.827 661.762C546.872 669.063 534.825 673.528 521.843 674.727L521.362 673.713Z" fill="#423881"/>
<path d="M513.908 402.584C511.964 406.351 509.021 409.48 505.342 411.692C501.662 413.903 497.361 415.127 492.823 415.255C483.119 415.682 476.729 410.814 478.572 404.26C480.516 400.492 483.459 397.363 487.139 395.152C490.818 392.941 495.119 391.717 499.657 391.589C509.972 391.836 516.001 395.942 513.908 402.584Z" fill="#D6D6D6"/>
</g>
<g filter="url(#filter1_d_2336_5246)">
<path d="M927.693 393.707C927.693 360.465 956.942 327.223 1014.92 301.698C1131.13 250.845 1319.69 250.845 1435.9 301.698C1494.14 327.223 1523.13 361.059 1523.13 393.707V591.577C1523.13 625.017 1494.14 658.259 1435.9 683.785C1319.69 734.637 1131.13 734.637 1014.92 683.785C956.942 658.259 927.693 624.424 927.693 591.577V393.707Z" fill="#00CF5F"/>
<path opacity="0.2" d="M927.693 393.707C927.693 360.465 956.942 327.223 1014.92 301.698C1131.13 250.845 1319.69 250.845 1435.9 301.698C1494.14 327.223 1523.13 361.059 1523.13 393.707V591.577C1523.13 625.017 1494.14 658.259 1435.9 683.785C1319.69 734.637 1131.13 734.637 1014.92 683.785C956.942 658.259 927.693 624.424 927.693 591.577V393.707Z" fill="black"/>
<path opacity="0.15" d="M1042.34 291.21V693.678C1032.68 690.314 1023.54 686.95 1014.92 683.191C997.678 675.664 981.791 666.487 967.648 655.884V329.399C981.801 318.861 997.689 309.75 1014.92 302.291C1023.54 297.938 1032.68 294.574 1042.34 291.21Z" fill="white"/>
<path opacity="0.15" d="M1120.17 712.873C1105.54 710.301 1091.18 707.333 1077.34 703.969V280.923C1091.18 277.559 1105.54 274.394 1120.17 272.019V712.873Z" fill="white"/>
<path opacity="0.2" d="M932.919 368.973C951.331 350.108 974.948 334.51 1002.13 323.265C1117.03 273.204 1298.02 269.84 1422.06 312.976V295.365C1426.77 297.146 1431.47 298.927 1435.91 300.905C1494.14 326.431 1523.13 360.266 1523.13 392.915V461.774V590.191C1523.13 623.631 1494.14 656.873 1435.91 682.399C1319.69 733.251 1131.14 733.251 1014.92 682.399C995.515 673.97 977.904 663.363 962.691 650.937C1018.06 690.511 1155.95 711.683 1258.32 696.447C1360.69 681.211 1422.85 631.546 1422.85 596.325V529.049C1298.8 572.383 1117.82 568.624 1002.91 518.76C972.611 506.851 946.748 489.365 927.696 467.908V394.102C927.605 385.565 929.369 377.075 932.919 368.973Z" fill="#00CF5F"/>
<path opacity="0.15" d="M1472.99 606.419V321.486C1487.8 330.021 1499.96 340.91 1508.63 353.387C1517.29 365.864 1522.24 379.627 1523.13 393.709V591.579C1523.13 625.019 1494.14 658.261 1435.91 683.786C1400.6 698.405 1362.42 708.627 1322.83 714.06C1434.86 691.107 1472.99 633.131 1472.99 606.419Z" fill="black"/>
<path opacity="0.3" d="M1418.93 672.902C1357.89 692.971 1292.07 703.326 1225.54 703.326C1159.01 703.326 1093.19 692.971 1032.15 672.902C925.342 632.141 925.342 566.25 1032.15 525.687C1093.15 505.526 1158.99 495.12 1225.54 495.12C1292.09 495.12 1357.93 505.526 1418.93 525.687C1525.74 566.844 1525.74 632.141 1418.93 672.902Z" fill="#00CF5F"/>
<path d="M920.376 360.467C920.376 326.235 950.148 292.003 1009.69 266.082C1128.78 213.845 1323.08 213.845 1441.12 266.082C1500.93 292.003 1530.7 325.444 1530.7 360.467V417.453C1530.7 451.487 1500.93 485.718 1441.12 511.837C1322.03 563.877 1127.73 563.877 1009.69 511.837C950.148 485.718 920.376 451.487 920.376 417.453V360.467Z" fill="#E0E0E0"/>
<path opacity="0.1" d="M1152.55 547.056C1303.5 547.056 1383.15 510.45 1407.44 480.176C1425.72 457.223 1428.85 460.389 1428.85 417.847C1428.85 417.847 1445.83 321.88 1442.69 321.485C1439.56 321.089 1478.73 315.153 1508.24 310.404C1522.46 324.972 1530.32 342.545 1530.7 360.662V417.649C1530.7 451.683 1500.93 485.915 1441.12 512.033C1352.29 546.643 1251.21 558.91 1152.55 547.056Z" fill="black"/>
<g opacity="0.1">
<path d="M1442.43 511.042C1447.91 508.667 1452.09 505.897 1457.05 503.325V418.637H1442.43V511.042Z" fill="black"/>
<path d="M1385.76 530.635L1401.17 527.271V440.604H1386.54L1385.76 530.635Z" fill="black"/>
<path d="M1255.96 549.632H1270.59V460.789H1255.96V549.632Z" fill="black"/>
<path d="M1502.23 472.459V388.76H1487.61V484.331C1492.88 480.665 1497.77 476.696 1502.23 472.459Z" fill="black"/>
<path d="M1523.39 445.55C1527.94 436.573 1530.42 427.067 1530.7 417.452V360.466C1530.42 353.763 1529.02 347.114 1526.52 340.679H1523.39V445.55Z" fill="black"/>
<path d="M1322.82 543.296C1327.78 543.296 1332.74 542.307 1337.44 541.515V453.463H1322.82V543.296Z" fill="black"/>
<path d="M946.753 470.876C951.203 475.245 956.093 479.346 961.378 483.144V393.905H946.753V470.876Z" fill="black"/>
<path d="M1119.64 542.307C1124.34 542.307 1129.3 543.494 1134.26 544.088V454.255H1119.64V542.307Z" fill="black"/>
<path d="M1187.28 549.233H1201.9V459.797H1187.28V549.233Z" fill="black"/>
<path d="M920.376 417.454C920.631 427.007 923.107 436.451 927.689 445.353V350.969H922.465C921.515 354.1 920.818 357.272 920.376 360.467V417.454Z" fill="black"/>
<path d="M1055.65 528.256C1060.36 529.641 1065.58 530.631 1070.28 531.818V441.985H1055.65V528.256Z" fill="black"/>
<path d="M997.678 505.304C1001.86 507.481 1004.99 509.657 1009.69 511.834H1012.3V422.792H997.678V505.304Z" fill="black"/>
</g>
<path d="M1441.13 454.846C1322.82 507.479 1128.78 507.479 1009.44 454.846C890.087 402.212 890.348 318.118 1009.44 266.078C1128.52 214.038 1322.82 213.84 1440.86 266.078C1558.91 318.315 1560.47 402.608 1441.13 454.846Z" fill="#EBEBEB"/>
<path d="M1368 579.906C1254.92 606.816 1110.5 599.693 1014.92 557.745C956.942 532.219 927.693 498.384 927.693 465.537V549.83C927.693 583.27 956.681 616.512 1014.92 641.839C1110.5 683.788 1254.66 690.911 1367.74 664.001L1368 579.906Z" fill="#00CF5F"/>
<path opacity="0.6" d="M1368 579.906C1254.92 606.816 1110.5 599.693 1014.92 557.745C956.942 532.219 927.693 498.384 927.693 465.537V549.83C927.693 583.27 956.681 616.512 1014.92 641.839C1110.5 683.788 1254.66 690.911 1367.74 664.001L1368 579.906Z" fill="white"/>
<path d="M993.241 446.934C891.129 394.499 896.352 315.548 1009.69 266.081C1073.86 239.841 1145.7 226.233 1218.62 226.507C1257.62 231.098 1295.27 240.807 1329.87 255.198C1434.33 299.917 1434.33 388.958 1329.87 433.281C1238.99 474.042 1096.14 478.198 993.241 446.934Z" fill="#F5F5F5"/>
<path d="M1507.19 411.714C1507.19 411.714 1407.95 487.3 1216.27 483.343C1024.58 479.385 947.798 400.039 937.874 375.503C932.737 361.005 932.434 345.766 936.992 331.157C941.551 316.548 950.828 303.026 963.99 291.805C950.989 300.419 940.441 310.95 932.987 322.754C925.534 334.559 921.332 347.39 920.638 360.466V417.452C920.638 425.961 914.631 455.839 976.525 494.423C956.547 477.214 943.894 455.834 940.224 433.084V408.548C940.224 408.548 1008.12 494.621 1216.53 494.621C1424.93 494.621 1496.75 424.575 1507.19 411.714Z" fill="white"/>
</g>
<defs>
<filter id="filter0_d_2336_5246" x="132.418" y="76.538" width="751.031" height="651.732" filterUnits="userSpaceOnUse" color-interpolation-filters="sRGB">
<feFlood flood-opacity="0" result="BackgroundImageFix"/>
<feColorMatrix in="SourceAlpha" type="matrix" values="0 0 0 0 0 0 0 0 0 0 0 0 0 0 0 0 0 0 127 0" result="hardAlpha"/>
<feOffset dx="8" dy="8"/>
<feGaussianBlur stdDeviation="2"/>
<feComposite in2="hardAlpha" operator="out"/>
<feColorMatrix type="matrix" values="0 0 0 0 0 0 0 0 0 0 0 0 0 0 0 0 0 0 0.25 0"/>
<feBlend mode="normal" in2="BackgroundImageFix" result="effect1_dropShadow_2336_5246"/>
<feBlend mode="normal" in="SourceGraphic" in2="effect1_dropShadow_2336_5246" result="shape"/>
</filter>
<filter id="filter1_d_2336_5246" x="920.022" y="226.503" width="622.679" height="507.421" filterUnits="userSpaceOnUse" color-interpolation-filters="sRGB">
<feFlood flood-opacity="0" result="BackgroundImageFix"/>
<feColorMatrix in="SourceAlpha" type="matrix" values="0 0 0 0 0 0 0 0 0 0 0 0 0 0 0 0 0 0 127 0" result="hardAlpha"/>
<feOffset dx="8" dy="8"/>
<feGaussianBlur stdDeviation="2"/>
<feComposite in2="hardAlpha" operator="out"/>
<feColorMatrix type="matrix" values="0 0 0 0 0 0 0 0 0 0 0 0 0 0 0 0 0 0 0.25 0"/>
<feBlend mode="normal" in2="BackgroundImageFix" result="effect1_dropShadow_2336_5246"/>
<feBlend mode="normal" in="SourceGraphic" in2="effect1_dropShadow_2336_5246" result="shape"/>
</filter>
</defs>
</svg>
