<svg width="167" height="168" viewBox="0 0 167 168" fill="none" xmlns="http://www.w3.org/2000/svg">
<g filter="url(#filter0_d_161_101)">
<circle cx="54.3555" cy="100" r="50" fill="#8F93EC"/>
</g>
<g filter="url(#filter1_d_161_101)">
<circle cx="104.355" cy="135" r="25" fill="#BEBEBE"/>
</g>
<circle cx="163.855" cy="2.5" r="2.5" fill="#BEBEBE"/>
<circle cx="163.855" cy="97.5" r="2.5" fill="#BEBEBE"/>
<circle cx="68.8555" cy="97.5" r="2.5" fill="#BEBEBE"/>
<circle cx="68.8555" cy="50.5" r="2.5" fill="#BEBEBE"/>
<circle cx="163.855" cy="50.5" r="2.5" fill="#BEBEBE"/>
<circle cx="115.855" cy="2.5" r="2.5" fill="#BEBEBE"/>
<circle cx="68.8555" cy="2.5" r="2.5" fill="#BEBEBE"/>
<circle cx="115.855" cy="97.5" r="2.5" fill="#BEBEBE"/>
<circle cx="115.855" cy="50.5" r="2.5" fill="#BEBEBE"/>
<circle cx="91.8555" cy="2.5" r="2.5" fill="#BEBEBE"/>
<circle cx="139.855" cy="2.5" r="2.5" fill="#BEBEBE"/>
<circle cx="163.855" cy="26.5" r="2.5" fill="#BEBEBE"/>
<circle cx="163.855" cy="74.5" r="2.5" fill="#BEBEBE"/>
<circle cx="139.855" cy="97.5" r="2.5" fill="#BEBEBE"/>
<circle cx="91.8555" cy="97.5" r="2.5" fill="#BEBEBE"/>
<circle cx="68.8555" cy="74.5" r="2.5" fill="#BEBEBE"/>
<circle cx="91.8555" cy="50.5" r="2.5" fill="#BEBEBE"/>
<circle cx="91.8555" cy="26.5" r="2.5" fill="#BEBEBE"/>
<circle cx="115.855" cy="26.5" r="2.5" fill="#BEBEBE"/>
<circle cx="139.855" cy="26.5" r="2.5" fill="#BEBEBE"/>
<circle cx="139.855" cy="74.5" r="2.5" fill="#BEBEBE"/>
<circle cx="115.855" cy="74.5" r="2.5" fill="#BEBEBE"/>
<circle cx="91.8555" cy="74.5" r="2.5" fill="#BEBEBE"/>
<circle cx="139.855" cy="50.5" r="2.5" fill="#BEBEBE"/>
<circle cx="68.8555" cy="26.5" r="2.5" fill="#BEBEBE"/>
<defs>
<filter id="filter0_d_161_101" x="0.355469" y="50" width="108" height="108" filterUnits="userSpaceOnUse" color-interpolation-filters="sRGB">
<feFlood flood-opacity="0" result="BackgroundImageFix"/>
<feColorMatrix in="SourceAlpha" type="matrix" values="0 0 0 0 0 0 0 0 0 0 0 0 0 0 0 0 0 0 127 0" result="hardAlpha"/>
<feOffset dy="4"/>
<feGaussianBlur stdDeviation="2"/>
<feComposite in2="hardAlpha" operator="out"/>
<feColorMatrix type="matrix" values="0 0 0 0 0 0 0 0 0 0 0 0 0 0 0 0 0 0 0.25 0"/>
<feBlend mode="normal" in2="BackgroundImageFix" result="effect1_dropShadow_161_101"/>
<feBlend mode="normal" in="SourceGraphic" in2="effect1_dropShadow_161_101" result="shape"/>
</filter>
<filter id="filter1_d_161_101" x="75.3555" y="110" width="58" height="58" filterUnits="userSpaceOnUse" color-interpolation-filters="sRGB">
<feFlood flood-opacity="0" result="BackgroundImageFix"/>
<feColorMatrix in="SourceAlpha" type="matrix" values="0 0 0 0 0 0 0 0 0 0 0 0 0 0 0 0 0 0 127 0" result="hardAlpha"/>
<feOffset dy="4"/>
<feGaussianBlur stdDeviation="2"/>
<feComposite in2="hardAlpha" operator="out"/>
<feColorMatrix type="matrix" values="0 0 0 0 0 0 0 0 0 0 0 0 0 0 0 0 0 0 0.25 0"/>
<feBlend mode="normal" in2="BackgroundImageFix" result="effect1_dropShadow_161_101"/>
<feBlend mode="normal" in="SourceGraphic" in2="effect1_dropShadow_161_101" result="shape"/>
</filter>
</defs>
</svg>
