<svg width="446" height="439" viewBox="0 0 446 439" fill="none" xmlns="http://www.w3.org/2000/svg">
<path d="M65.3218 218.371C-21.7739 268.655 -21.7739 350.237 65.3218 400.475C152.417 450.712 293.633 450.759 380.692 400.475C467.751 350.19 467.788 268.655 380.692 218.371C293.596 168.087 152.399 168.087 65.3218 218.371Z" fill="#7F5DE2"/>
<path d="M341.812 257.548C325.343 248.041 300.685 246.151 280.951 251.868C237.435 239.216 183.011 243.357 146.679 264.335C115.621 282.262 105.847 307.832 117.355 330.563C108.134 331.808 99.3273 334.51 92.1162 338.669C71.5433 350.546 71.5433 369.809 92.1162 381.686C112.689 393.563 146.043 393.563 166.615 381.686C171.027 379.268 174.884 375.955 177.939 371.958C221.215 384.13 274.865 379.851 310.819 359.094C338.723 342.984 349.438 320.705 342.974 299.856C362.366 287.933 361.979 269.195 341.812 257.548Z" fill="#31335F"/>
<path d="M349.964 274.626C338.382 245.017 321.987 216.901 310.598 202.497C293.502 184.405 258.691 187.319 242.111 193.23L257.852 276.738C257.852 289.86 277.263 300.502 301.193 300.502C325.786 300.28 351.191 289.196 349.964 274.626Z" fill="#303030"/>
<path d="M331.401 306.163C339.986 268.651 314.803 241.061 306.55 231.793C282.574 204.876 268.309 184.764 232.272 195.489C201.224 204.148 172.333 217.519 151.004 228.04C147.68 229.704 144.535 231.703 141.617 234.006C136.462 237.981 133.087 245.81 132.146 251.407C129.149 269.306 127.536 285 126.614 298.288C126.428 299.754 126.329 301.229 126.318 302.705C124.308 320.18 128.587 331.153 150.156 343.611C193.284 368.509 257.474 368.666 298.896 346.922C321.166 335.22 331.272 316.095 331.401 306.163Z" fill="#070707"/>
<path d="M244.334 197.573L239.511 193.746C237.197 194.198 234.808 194.779 232.3 195.526C210.363 201.639 189.532 210.105 171.661 218.266C184.755 232.005 219.086 252.237 249.507 240.028C283.682 226.27 244.334 197.573 244.334 197.573Z" fill="#303030"/>
<path d="M150.986 228.04C118.905 243.809 109.96 249.987 104.04 283.092C100.112 305.048 91.13 348.609 90.4108 353.773C89.6915 358.937 94.92 367.015 102.537 371.414C117.761 380.202 150.064 379.621 165.924 369.754C173.302 365.189 176.372 359.334 177.34 352.805L183.795 312.019C183.795 312.019 185.63 246.898 150.986 228.04Z" fill="#303030"/>
<path d="M184.431 25.1612C184.127 23.3809 183.645 21.6356 182.993 19.9511C177.027 4.41312 159.442 2.02479 144.798 3.70307C130.459 5.3537 117.355 13.4132 112.422 27.4481C107.193 42.3313 109.13 61.1798 123.109 70.6685C136.407 79.6962 151.963 75.4452 163.942 66.3437C171.088 60.9031 177.46 54.2084 181.296 46.0567C184.449 39.5747 185.543 32.2831 184.431 25.1612Z" fill="#37474F"/>
<path d="M166.571 61.0046C161.554 63.1439 156.427 64.896 150.95 65.0251C145.644 65.1873 140.384 63.9906 135.67 61.5486C130.386 58.7822 126.393 54.1716 123.111 49.2566C119.468 44.074 117.107 38.1009 116.222 31.8282C115.822 28.5369 116.041 25.1998 116.868 21.989C117.449 19.7759 118.131 17.2031 120.141 15.8937C120.907 15.4176 121.778 15.1358 122.677 15.073C125.35 15.0381 128.003 15.5268 130.488 16.5115C133.205 17.4991 135.753 18.9021 138.04 20.6704C142.964 24.4235 146.616 29.5413 149.64 34.8713C149.908 35.3508 150.184 34.7053 150.018 34.3825C147.086 28.5362 143.324 22.9019 138.141 18.8077C135.731 16.8782 133.029 15.3437 130.137 14.2615C127.269 13.2195 123.682 12.0207 120.639 13.1919C117.818 14.28 116.121 17.7288 115.245 20.4122C114.281 23.4394 113.894 26.6203 114.101 29.7903C114.646 36.2581 116.757 42.496 120.252 47.9656C123.562 53.3877 127.721 58.5886 133.162 62.0189C138.026 65.0371 143.596 66.7285 149.318 66.9247C155.478 67.1829 162.357 66.0026 167.309 62.1204C167.65 61.7884 167.078 60.7833 166.571 61.0046Z" fill="#455A64"/>
<path d="M137.679 72.4298C136.299 72.9646 134.864 73.345 133.4 73.564C131.945 73.695 130.478 73.6362 129.038 73.3888C125.557 72.7856 122.219 71.5344 119.199 69.7003C113.915 66.4913 109.904 61.4011 109.176 55.1398C109.111 54.6142 108.595 54.6603 108.604 55.1398C108.724 62.1388 113.344 68.105 119.116 71.646C121.529 73.1331 124.14 74.2724 126.871 75.0302C119.768 75.5334 112.731 73.3773 107.128 68.981C109.139 73.7116 113.39 78.9493 118.406 80.0467C124.548 81.4206 130.652 79.3274 132.985 75.9432C132.985 75.9432 132.985 75.8878 132.985 75.8602C135.085 75.9616 137.171 75.4626 138.997 74.4216C140.021 73.7393 138.665 72.1163 137.679 72.4298Z" fill="#37474F"/>
<path d="M186.166 21.2236C185.908 18.8537 185.308 16.5335 184.386 14.3353C182.775 10.6945 180.174 7.57932 176.88 5.34448C169.595 0.291175 160.539 -0.603297 151.982 0.733799C146.086 1.67796 140.35 3.4409 134.941 5.97153C134.692 6.09141 134.821 6.75534 135.125 6.70002C139.957 5.72255 144.633 4.09959 149.474 3.12213C154.008 2.09236 158.672 1.76272 163.306 2.14467C170.369 2.91004 177.839 6.22973 181.573 12.5556C182.767 14.6364 183.582 16.9125 183.98 19.2779C184.205 20.5364 184.344 21.8089 184.395 23.0864C184.395 23.7042 184.395 24.3128 184.395 24.9306C184.395 25.9819 184.828 26.8579 184.884 27.9091C184.884 28.2595 185.548 29.0341 185.677 28.3518C185.806 27.6694 186.166 27.0976 186.313 26.4429C186.404 25.8604 186.425 25.2692 186.378 24.6817C186.368 23.5474 186.295 22.3855 186.166 21.2236Z" fill="#37474F"/>
<path d="M166.985 34.484C166.328 37.8093 165.168 41.0151 163.545 43.9912C163.287 44.5168 162.844 43.816 162.964 43.4564C163.916 40.294 164.567 37.0492 164.91 33.7647C165.291 30.7006 165.26 27.5993 164.818 24.5434C163.545 15.4695 157.81 6.38651 148.883 3.33425C148.385 3.15904 147.878 3.00228 147.371 2.87318C142.811 1.74443 138 2.23331 133.76 4.25638C131.598 5.26956 129.663 6.70924 128.071 8.48898C127.794 8.81173 127.517 9.13448 127.278 9.47567C125.867 10.3206 124.517 11.2635 123.239 12.2974C123.841 10.869 124.589 9.50627 125.47 8.23079C127.179 5.79806 129.451 3.81446 132.091 2.449C136.761 0.0630859 142.12 -0.606019 147.233 0.55862C149.586 1.09967 151.841 2.00176 153.918 3.23281C156.624 4.83738 159.022 6.91071 161 9.35579C164.69 13.8604 166.939 19.3707 167.455 25.1704C167.699 28.2822 167.541 31.4125 166.985 34.484Z" fill="#455A64"/>
<path d="M114.848 22.0997C110.633 25.5024 108.005 30.8784 106.438 35.9317C104.632 41.6796 104.004 47.7329 104.593 53.7289C105.193 59.4185 107.249 65.0896 111.224 69.313C115.577 73.8408 121.543 76.4657 127.822 76.6163C130.673 76.6824 133.517 76.3028 136.25 75.4913C136.951 75.2885 137.652 75.0487 138.344 74.7813C141.783 73.5087 145.426 71.646 147.888 68.852C148.321 68.3724 147.519 67.2843 146.966 67.6347C144.199 69.313 141.58 71.2403 138.556 72.5313C136.27 73.5256 133.86 74.202 131.391 74.5415C130.699 74.6337 130.007 74.7075 129.325 74.7352C123.479 75.0118 117.337 73.1399 113.16 68.8888C105.608 61.1429 105.672 48.4543 108.245 38.652C109.021 35.5046 110.186 32.4659 111.712 29.6059L114.848 22.0997Z" fill="#455A64"/>
<path opacity="0.2" d="M184.432 25.1612C184.127 23.3809 183.645 21.6356 182.993 19.9511C182.694 19.1541 182.349 18.3751 181.96 17.6181H181.518C178.02 17.9151 174.617 18.9024 171.503 20.5228C165.971 23.2892 161.406 26.4891 158.151 31.736C154.641 37.0417 152.287 43.0271 151.244 49.3027C145.601 51.6541 139.081 54.3652 135.116 59.0128C131.531 63.1169 129.367 68.2691 128.947 73.7024C140.787 78.3131 153.678 74.1081 163.988 66.3253C164.818 65.6982 165.629 65.0528 166.432 64.3888C168.663 61.8622 170.867 59.3079 173.108 56.8181C174.952 54.7248 176.925 52.6685 178.853 50.6029C179.774 49.1458 180.606 47.6337 181.342 46.0752C184.484 39.5828 185.562 32.2844 184.432 25.1612Z" fill="#070707"/>
<path d="M309.473 131.096C308.79 127.03 308.089 123.608 305.203 120.455C304.393 119.49 303.37 118.726 302.215 118.223C301.28 117.918 300.304 117.753 299.32 117.734C296.616 117.555 293.901 117.675 291.224 118.094C291.617 120.164 292.513 122.105 293.833 123.747C296.156 126.297 298.125 129.147 299.689 132.221C300.837 134.396 301.675 136.721 302.179 139.128C302.641 141.735 302.777 144.39 302.584 147.031C302.584 147.399 303.156 148.091 303.341 147.473C304.061 144.927 304.308 142.27 304.069 139.635C303.909 136.768 303.328 133.941 302.345 131.244C300.951 127.724 298.772 124.57 295.973 122.022L296.849 122.115C299.535 122.44 302.097 123.432 304.302 125.001C306.507 126.569 308.285 128.665 309.473 131.096Z" fill="#455A64"/>
<path d="M179.849 186.692C179.619 180.347 170.407 177.212 166.875 168.055C161.917 163.46 157.536 158.279 153.827 152.628C148.561 144.844 144.301 136.426 141.147 127.574C126.227 114.378 121.635 65.9011 155.901 53.9042C168.913 14.6489 215.112 14.2523 239.65 18.4942C257.807 21.6479 268.688 30.15 272.708 38.6152C277.393 44.0097 280.593 47.9195 283.479 52.6593C306.311 64.7393 299.985 95.5017 287.638 106.807L179.849 186.692Z" fill="#37474F"/>
<path d="M259.281 25.4655C255.119 21.8705 250.409 18.963 245.329 16.8528C240.316 14.6707 235.05 13.1219 229.653 12.2421C218.642 10.4663 207.358 11.5556 196.89 15.405C193.938 16.4926 191.071 17.7995 188.314 19.3149C186.924 20.071 185.563 20.8794 184.229 21.7401C183.679 22.0918 183.15 22.4735 182.643 22.8835C182.024 23.4116 181.542 24.0826 181.241 24.8385C181.103 25.1243 181.241 25.7606 181.674 25.7053C184.312 25.0874 186.396 23.3907 188.71 22.0167C191.041 20.7057 193.452 19.5445 195.931 18.5403C200.65 16.5664 205.583 15.146 210.629 14.3077C221.368 12.5813 232.37 13.6548 242.572 17.4245C245.187 18.3823 247.74 19.5002 250.217 20.7718C253.306 22.3579 256.155 24.276 259.078 26.1295C259.41 26.3047 259.466 25.6315 259.281 25.4655Z" fill="#37474F"/>
<path d="M310.017 68.0036C305.997 61.0599 298.998 56.4677 291.51 53.9963C289.512 53.3263 287.465 52.8145 285.387 52.4656C284.213 52.2525 283.027 52.1078 281.837 52.0322C281.174 51.998 280.51 52.0289 279.854 52.1244C279.012 52.2879 278.207 52.6002 277.475 53.0465C276.359 53.6183 277.936 54.9646 278.72 54.8908C280.497 54.9149 282.271 55.0535 284.031 55.3058C285.663 55.5916 287.296 55.942 288.9 56.3847C292.19 57.2887 295.337 58.6482 298.251 60.4236C303.957 63.7968 308.31 69.0531 310.561 75.2884C312.103 79.5385 312.422 84.1355 311.483 88.558C311.483 88.7424 311.631 88.9821 311.741 88.7332C314.757 82.0661 313.613 74.2188 310.017 68.0036Z" fill="#37474F"/>
<path d="M177.645 175.746C177.715 175.384 177.643 175.008 177.444 174.698C177.245 174.387 176.934 174.165 176.575 174.077C174.003 173.293 170.794 174.39 168.497 175.561C166.21 176.728 164.189 178.354 162.559 180.338C159.212 184.469 157.902 190.113 160.466 195C160.576 195.221 160.705 194.871 160.669 194.751C159.396 190.316 162.19 185.318 165.132 182.127C166.497 180.625 168.117 179.377 169.918 178.439C170.51 178.14 171.127 177.893 171.762 177.701L171.55 177.959C168.766 181.361 167.136 185.558 166.893 189.947C166.672 196.005 169.705 202.211 174.925 205.291C172.341 196.738 173.051 187.527 176.917 179.471C177.527 178.331 177.781 177.033 177.645 175.746Z" fill="#37474F"/>
<path d="M209.006 27.5034C207.392 27.153 205.769 26.8856 204.137 26.6735C200.773 26.2517 197.379 26.1282 193.994 26.3046C187.17 26.655 180.088 28.0475 174.048 31.3395C173.91 31.4133 173.91 31.7913 174.103 31.736C180.66 29.6704 187.216 27.9184 194.114 27.5864C197.626 27.4097 201.146 27.5424 204.635 27.9829C206.252 28.1858 207.863 28.4563 209.467 28.7944C211.035 29.1264 212.63 29.7165 214.225 29.9102C214.696 29.9655 214.53 29.1448 214.225 28.988C212.549 28.2931 210.797 27.7949 209.006 27.5034Z" fill="#455A64"/>
<path d="M183.048 42.5803C185.814 42.9953 188.405 43.8344 191.107 44.4246C191.78 44.5629 191.541 43.5025 191.107 43.3457C186.128 40.902 179.903 40.3303 174.426 40.5055C173.817 40.5055 173.199 40.5608 172.581 40.607C174.232 40.192 175.892 39.8324 177.57 39.5742C182.135 38.8918 186.644 39.1869 191.218 38.9194C191.476 38.9194 191.43 38.3569 191.218 38.3016C186.709 37.0106 181.757 37.3795 177.164 38.0803C174.981 38.4195 172.824 38.9125 170.71 39.5557C168.914 39.9736 167.191 40.6607 165.601 41.5936C163.849 41.9809 161.756 42.5158 160.455 43.7699C160.225 44.1664 160.004 44.5721 159.782 44.9779C159.838 45.2545 160.013 45.5127 160.262 45.4021C161.418 44.7788 162.613 44.2306 163.84 43.7607C164.983 43.4102 166.163 43.1428 167.335 42.9031C172.5 41.8766 177.805 41.7612 183.011 42.5619L183.048 42.5803Z" fill="#455A64"/>
<path d="M145.785 61.1798C146.32 60.0732 147.021 59.0496 147.629 57.9707C146.524 58.6923 145.458 59.4743 144.439 60.313C143.795 61.736 143.261 63.2065 142.843 64.7116C141.944 67.896 141.631 71.2175 141.921 74.5139C142.591 81.5121 145.588 88.0837 150.433 93.1779C150.765 93.5283 150.866 92.8275 150.7 92.5969C146.845 87.3223 143.858 81.1901 143.323 74.5784C143.082 71.5413 143.36 68.4855 144.144 65.5415C144.545 64.0369 145.095 62.5759 145.785 61.1798Z" fill="#455A64"/>
<path d="M210.104 65.9841C209.215 66.072 208.338 66.248 207.485 66.5097C206.602 66.7012 205.709 66.8428 204.811 66.9339C203.111 67.1017 201.396 67.0428 199.711 66.7587C198.12 66.4869 196.571 66.0128 195.1 65.3478C194.363 65.0158 193.662 64.6378 192.952 64.2597C192.03 63.7894 191.237 63.1992 190.342 62.7658C189.798 62.4984 189.512 63.2177 189.734 63.6142C190.656 65.2556 192.648 66.4912 194.289 67.3027C196.101 68.1333 198.023 68.6956 199.997 68.9718C201.753 69.2208 203.535 69.2208 205.29 68.9718C205.967 68.8703 206.637 68.7349 207.3 68.5661C204.165 70.6409 200.283 70.9359 196.456 70.4103C194.371 70.1399 192.326 69.6134 190.37 68.8427C188.038 67.8172 185.763 66.666 183.555 65.3939C183.067 65.1357 183.196 66.021 183.362 66.2054C186.635 69.8386 192.03 71.6091 196.751 72.1993C201.057 72.7433 207.356 72.5589 209.209 67.9298C209.751 67.7647 210.232 67.444 210.592 67.0076C210.641 66.9098 210.667 66.8021 210.668 66.6927C210.669 66.5834 210.645 66.4752 210.598 66.3766C210.551 66.2779 210.482 66.1912 210.396 66.1232C210.31 66.0552 210.21 66.0076 210.104 65.9841Z" fill="#455A64"/>
<path d="M240.553 69.7372C238.755 64.3796 234.78 59.5107 230.695 55.7023C228.542 53.6945 226.187 51.9146 223.669 50.3908C221.193 48.7261 218.461 47.4799 215.581 46.7023C214.927 46.564 215.148 47.5691 215.581 47.7719C218.232 48.9274 220.821 50.2201 223.337 51.6449C225.68 53.0819 227.887 54.7302 229.93 56.5691C227.722 55.044 225.35 53.7726 222.857 52.7791C217.474 50.596 211.784 49.2644 205.991 48.8324C205.549 48.8324 205.705 49.5978 206.047 49.6715C211.579 50.9994 217.168 51.8662 222.479 53.9871C227.05 55.7668 231.239 58.4056 234.817 61.7607C235.14 62.1665 235.463 62.5722 235.739 62.978C237.408 65.2188 238.736 67.6347 240.184 70.0046C240.433 70.4011 240.645 70.0138 240.553 69.7372Z" fill="#455A64"/>
<path d="M270.596 45.5772C269.548 43.7326 268.209 42.0697 266.631 40.653C264.889 38.9364 262.864 37.5327 260.646 36.5034C260.01 36.2545 260.203 37.361 260.461 37.5915C261.992 38.9748 263.79 40.0536 265.303 41.4645C266.908 42.9363 268.23 44.6896 269.203 46.6377C271.131 50.6029 271.195 55.1306 272.366 59.3263C272.449 59.6306 272.855 59.898 272.938 59.4369C273.684 54.6853 272.862 49.8199 270.596 45.5772ZM265.727 47.8088C262.847 43.4227 258.941 39.8049 254.348 37.2688C253.426 36.7708 253.25 38.0987 253.96 38.486C258.371 40.9329 262.103 44.4376 264.823 48.6848C267.665 53.0607 269.481 58.0226 270.135 63.1992C270.135 63.4667 270.43 63.3652 270.43 63.1347C270.434 60.3208 270.011 57.5225 269.176 54.8355C268.329 52.3562 267.17 49.995 265.727 47.8088Z" fill="#455A64"/>
<path d="M293.252 60.5343C293.178 60.2485 292.911 60.2946 292.874 60.5343C292.45 63.771 291.878 67.0354 290.237 69.9125C288.544 72.93 286.014 75.3929 282.952 77.0037C282.417 77.2803 282.952 78.433 283.487 78.184C289.859 75.2977 294.986 67.6717 293.252 60.5343Z" fill="#455A64"/>
<path d="M145.157 134.462C139.803 130.918 135.606 125.881 133.087 119.975C130.403 113.566 129.905 106.577 130.542 99.6882C131.078 94.9365 131.987 90.2344 133.262 85.6256C133.336 85.3582 133.031 84.9525 132.884 85.3398C128.08 98.932 127.277 115.411 136.37 127.463C138.609 130.591 141.608 133.098 145.084 134.748C145.24 134.858 145.259 134.526 145.157 134.462Z" fill="#37474F"/>
<path d="M142.511 126.061C140.349 125.18 138.356 123.932 136.619 122.373C135.826 121.58 135.134 120.658 134.424 119.8C133.714 118.942 132.875 118.029 132.174 117.034C129.78 113.858 127.989 110.27 126.89 106.447C125.84 102.399 125.676 98.1724 126.409 94.0552C127.143 89.938 128.757 86.0277 131.141 82.5918C132.446 80.7027 133.869 78.8979 135.402 77.1881C136.978 75.3991 138.896 73.6563 139.736 71.3879C139.948 70.8253 139.256 70.0231 138.684 70.2997C136.542 71.4778 134.635 73.0409 133.059 74.9104C131.418 76.6652 129.879 78.5125 128.449 80.4432C125.533 84.304 123.511 88.7637 122.529 93.5007C120.758 102.408 123.073 112.192 129.389 118.832C131.217 120.697 133.334 122.254 135.66 123.442C137.822 124.701 140.101 125.748 142.465 126.568C142.686 126.716 142.686 126.153 142.511 126.061Z" fill="#37474F"/>
<path d="M290.653 92.3572C294.212 105 294.978 118.177 295.808 131.262C297.965 165.003 287.379 185.474 270.486 193.893C264.492 196.89 259.595 198.504 248.253 198.062L248.788 212.392C248.788 212.392 260.979 223.955 247.515 230.013C221.898 241.549 187.798 222.895 180.937 214.448L178.65 155.155C177.811 162.31 166.469 166.663 155.698 157.423C150.876 142.586 142.788 127.417 152.01 120.427C154.598 118.375 157.804 117.259 161.107 117.259C164.409 117.259 167.615 118.375 170.204 120.427C173.726 123.286 174.123 124.457 176.529 127.693C177.388 128.941 178.642 129.864 180.089 130.312C186.387 131.419 189.605 125.702 189.946 121.607C190.018 119.947 189.891 118.285 189.568 116.655C189.181 114.175 188.268 111.178 189.854 108.992C198.633 96.8756 204.479 86.2434 206.453 71.4155C206.637 70.0599 206.868 68.5568 207.937 67.7269C208.387 67.3912 208.902 67.1525 209.45 67.0261C211.773 66.3806 213.645 66.8509 215.905 67.2382C224.466 68.7848 233.194 69.194 241.863 68.4554C251.01 67.5794 260.361 65.7536 267.812 60.3775C268.734 59.732 269.72 59.0035 270.808 59.2248C271.606 59.5143 272.295 60.0424 272.782 60.7371C283.608 72.1532 288.873 86.0498 290.653 92.3572Z" fill="#FFA8A7"/>
<path d="M225.204 146.438C230.766 140.49 230.454 131.159 224.506 125.597C218.558 120.035 209.227 120.347 203.665 126.295C198.103 132.243 198.416 141.574 204.363 147.136C210.311 152.698 219.642 152.386 225.204 146.438Z" fill="#F28F8F"/>
<path d="M277.595 132.415C277.73 136.322 279.41 140.016 282.266 142.686C285.122 145.355 288.921 146.782 292.829 146.653C293.865 146.618 294.894 146.472 295.899 146.219C296.171 141.236 296.14 136.241 295.807 131.262C295.512 126.651 295.226 122.041 294.821 117.375C293.836 117.212 292.839 117.148 291.842 117.181C287.933 117.313 284.237 118.992 281.565 121.849C278.894 124.705 277.466 128.506 277.595 132.415Z" fill="#F28F8F"/>
<path d="M290.652 92.3572C293.963 103.377 295.042 114.922 295.881 126.347C298.288 150.987 294.959 182.791 269.784 194.585C261.78 198.016 256.801 198.486 248.252 198.071C256.773 198.172 261.642 197.508 269.517 194.004C294.147 181.943 297.135 150.802 295.106 126.412C294.442 114.977 293.557 103.487 290.652 92.3665V92.3572Z" fill="#F28F8F"/>
<path d="M248.253 198.062C214.41 195.59 190.804 181.758 186.368 168.848C186.368 168.848 188.572 184.525 199.665 192.759C219.5 207.458 248.539 207.062 248.539 207.062L248.253 198.062Z" fill="#F28F8F"/>
<path d="M258.572 160.687L236.975 154.721C236.515 156.102 236.342 157.563 236.468 159.013C236.593 160.464 237.015 161.873 237.706 163.155C238.397 164.436 239.343 165.562 240.486 166.464C241.63 167.365 242.945 168.023 244.352 168.396C247.258 169.159 250.346 168.786 252.987 167.354C255.628 165.922 257.625 163.539 258.572 160.687Z" fill="#B16668"/>
<path d="M249.156 168.636C247.547 168.902 245.9 168.82 244.325 168.396C242.38 167.87 240.625 166.8 239.267 165.312C237.908 163.824 237.001 161.98 236.652 159.996C239.383 159.928 242.064 160.728 244.311 162.281C246.558 163.833 248.254 166.059 249.156 168.636Z" fill="#F28F8F"/>
<path d="M281.255 98.9136L265.708 94.9577C265.923 93.9356 266.342 92.9677 266.942 92.1129C267.542 91.258 268.31 90.534 269.198 89.9846C270.086 89.4353 271.077 89.0722 272.109 88.9173C273.142 88.7625 274.196 88.819 275.206 89.0837C277.293 89.6169 279.09 90.9406 280.219 92.7749C281.348 94.6092 281.72 96.8105 281.255 98.9136Z" fill="#263238"/>
<path d="M214.3 103.958L228.639 96.3132C228.181 95.3594 227.533 94.5087 226.735 93.8126C225.938 93.1166 225.008 92.5896 224.001 92.2637C222.994 91.9378 221.931 91.8197 220.877 91.9166C219.823 92.0136 218.8 92.3234 217.869 92.8275C215.957 93.8682 214.52 95.6052 213.855 97.6778C213.191 99.7505 213.35 101.999 214.3 103.958Z" fill="#263238"/>
<path d="M226.122 114.959C224.743 115.201 223.477 115.876 222.507 116.885C221.537 117.895 220.913 119.187 220.727 120.575C220.139 121.205 219.434 121.715 218.652 122.078C218.075 122.349 217.439 122.472 216.803 122.433C216.166 122.394 215.55 122.196 215.01 121.856C215.311 122.404 215.731 122.877 216.238 123.242C216.745 123.608 217.327 123.856 217.942 123.968C218.576 124.073 219.223 124.057 219.851 123.922C220.274 123.847 220.686 123.72 221.077 123.544C222.046 125.222 224.434 121.949 227.606 121.377C231.202 120.731 234.439 123.811 233.794 120.243C233.637 119.392 233.315 118.58 232.844 117.854C232.374 117.128 231.765 116.501 231.053 116.011C230.34 115.52 229.538 115.174 228.692 114.994C227.846 114.814 226.972 114.802 226.122 114.959Z" fill="#263238"/>
<path d="M278.406 112.487C279.805 112.505 281.163 112.967 282.283 113.805C283.403 114.644 284.228 115.816 284.64 117.153C285.32 117.68 286.097 118.069 286.927 118.297C287.542 118.472 288.191 118.49 288.815 118.348C289.439 118.206 290.017 117.909 290.496 117.485C290.288 118.075 289.952 118.61 289.512 119.054C289.071 119.497 288.538 119.837 287.95 120.049C287.357 120.247 286.732 120.338 286.106 120.316C285.674 120.309 285.243 120.25 284.824 120.141C284.151 121.985 281.256 119.118 278.028 119.071C274.34 119.016 271.693 122.594 271.739 118.961C271.773 117.221 272.493 115.565 273.741 114.353C274.99 113.14 276.666 112.47 278.406 112.487Z" fill="#263238"/>
<path d="M303.72 95.9996C302.752 95.9443 301.737 95.9074 300.695 95.889C290.939 95.6584 278.297 96.3593 270.91 99.1533C261.689 102.667 258.618 106.014 253.344 106.447C247.7 106.872 243.809 104.059 233.352 102.095C225.052 100.546 211.562 101.892 201.335 103.69C200.238 103.893 199.177 104.087 198.163 104.29C196.411 104.64 194.723 107.056 195.12 109.62C195.516 112.183 197.803 114.129 198.809 115.245C199.376 115.918 199.813 116.69 200.1 117.522C201.612 121.506 203.096 129.252 205.632 133.42C206.865 135.519 208.449 137.391 210.317 138.953C214.78 142.641 220.82 143.609 226.519 143.158C239.641 142.18 244.5 135.781 247.128 129.399C249.757 123.018 248.051 114.396 254.072 113.944C254.446 113.903 254.823 113.903 255.197 113.944C259.808 114.59 260.038 122.585 263.441 128.099C264.764 130.317 266.426 132.314 268.365 134.019C271.265 136.469 274.828 138 278.601 138.418C280.742 138.691 282.907 138.728 285.056 138.529C297.32 137.514 300.852 130.322 302.42 125.831C303.987 121.34 303.932 113.502 304.504 109.334C304.613 108.526 304.931 107.76 305.426 107.111C306.78 105.328 307.536 103.162 307.584 100.924C307.427 98.2773 305.389 96.055 303.72 95.9996ZM243.2 123.83C242.828 127.085 241.55 130.172 239.512 132.738C236.976 135.762 232.762 138.27 225.68 138.741C218.598 139.211 214.125 136.693 211.294 133.577C209.137 131.033 207.538 128.064 206.601 124.862C205.153 120.658 203.087 112.312 205.144 110.237C207.2 108.163 212.963 105.719 222.821 105.866C228.159 105.857 233.449 106.871 238.405 108.854C239.583 109.305 240.657 109.992 241.559 110.874C243.781 113.354 243.763 118.961 243.2 123.83ZM299.948 117.541C299.45 120.943 298.611 128.274 292.073 131.963C289.879 133.156 287.455 133.867 284.964 134.047C277.245 134.785 272.561 132.074 269.712 128.763C268.049 126.768 266.795 124.465 266.023 121.985C264.538 117.292 263.432 111.777 264.999 109.002C266.567 106.226 273.474 102.768 280.325 101.403C281.902 101.09 283.387 100.869 284.779 100.73C288.492 100.271 292.259 100.585 295.845 101.652C296.759 101.935 297.624 102.358 298.408 102.906C300.732 104.64 300.419 113.17 299.902 117.541H299.948Z" fill="#263238"/>
<path d="M200.099 114.442L189.956 119.376L175.626 126.43C174.489 124.642 173.118 123.013 171.55 121.589L189.015 112.598L198.974 107.489L200.099 114.442Z" fill="#263238"/>
<path d="M273.851 140.327L254.32 148.626L249.101 120.556C249.737 116.997 250.677 114.101 254.08 113.898C254.362 113.875 254.646 113.875 254.928 113.898C256.363 114.899 257.708 116.022 258.949 117.255C263.135 121.321 270.863 132.636 273.851 140.327Z" fill="#F28F8F"/>
<path d="M245.689 71.2588C245.273 70.4951 244.798 69.7645 244.269 69.0733C244.828 69.0275 245.388 69.1427 245.883 69.4053C249.942 71.2021 253.47 74.0114 256.131 77.5637C258.792 81.116 260.496 85.2923 261.08 89.6922C262.876 86.3777 263.683 82.6169 263.404 78.8572C263.206 76.2994 262.301 73.847 260.79 71.7739C259.279 69.7009 257.221 68.089 254.846 67.1184C250.466 65.1358 245.809 63.1624 241.014 63.6143C237.012 63.9831 239.723 67.5149 241.014 69.0456C241.88 70.06 242.64 71.1599 243.283 72.3284C244.447 74.4414 245.245 76.7361 245.643 79.1154C246.322 84.0517 245.294 89.0716 242.729 93.3439C242.49 93.7589 243.061 94.7455 243.486 94.266C245.245 92.1601 246.561 89.7201 247.353 87.0926C248.145 84.4652 248.398 81.7047 248.096 78.977C247.813 76.2704 246.995 73.6469 245.689 71.2588Z" fill="#37474F"/>
<path d="M205.392 77.7967C205.392 77.6031 205.042 77.2158 204.857 77.5201C204.184 78.6174 203.935 79.8807 203.105 80.9688C202.473 81.8482 201.74 82.6499 200.92 83.3572C198.877 85.066 196.544 86.3935 194.031 87.2763C191.254 88.2991 188.356 88.9562 185.409 89.2312C179.814 89.8564 174.158 88.8475 169.124 86.3265C168.94 86.6031 169.217 86.9627 169.475 87.1748C176.686 93.1134 187.917 92.1359 196.023 88.7886C198.528 87.8456 200.813 86.3987 202.736 84.5375C204.405 82.8316 205.899 80.2588 205.392 77.7967Z" fill="#455A64"/>
<path d="M193.901 139.414C193.219 135.347 192.518 131.926 189.632 128.772C188.81 127.808 187.779 127.045 186.616 126.541C185.678 126.235 184.699 126.07 183.712 126.052C181.011 125.872 178.299 125.993 175.625 126.412C176.018 128.481 176.914 130.423 178.234 132.064C180.554 134.617 182.523 137.467 184.09 140.539C185.238 142.714 186.076 145.038 186.579 147.446C187.033 150.054 187.169 152.707 186.985 155.348C186.985 155.717 187.548 156.409 187.741 155.791C188.462 153.245 188.709 150.588 188.47 147.953C188.307 145.086 187.723 142.258 186.736 139.561C185.35 136.041 183.173 132.886 180.374 130.34L181.25 130.432C183.94 130.755 186.508 131.745 188.717 133.314C190.927 134.883 192.709 136.98 193.901 139.414Z" fill="#455A64"/>
<path d="M166.874 168.055C159.248 145.076 165.168 86.1235 183.657 62.3877C234.9 37.8036 271.72 40.5516 283.505 52.6592C281.597 47.2832 277.807 42.5157 272.735 38.6059C262.407 22.6806 222.34 20.4767 199.951 30.528C190.056 34.9819 183.786 40.1089 174.73 54.9922C173.679 56.6982 171.198 58.2658 169.741 59.6767C168.109 61.2719 166.496 62.8949 164.937 64.564C161.944 67.7164 159.139 71.0418 156.537 74.523C151.509 81.2 147.606 88.6538 144.982 96.5897C141.662 106.853 139.92 118.887 141.091 129.621C141.435 134.054 142.94 138.318 145.452 141.986C146.937 144.006 148.809 145.675 150.063 147.87C151.317 150.064 152.018 152.683 152.913 155.127C155.218 161.204 161.009 165.676 166.874 168.055Z" fill="#8F93EC"/>
<path opacity="0.2" d="M220.929 42.3036C222.814 39.0863 224.318 35.6606 225.411 32.0956C226.356 29.6717 227.018 27.1468 227.384 24.571C220.057 24.8944 212.802 26.1589 205.797 28.3333C204.958 28.7114 204.128 29.1079 203.317 29.5413C200.255 31.1643 197.424 33.2298 194.326 34.7329C192.73 35.5167 191.08 36.1622 189.42 36.7893C184.597 40.653 180.199 46.0752 174.73 55.0107C173.679 56.7166 171.199 58.2843 169.742 59.6951C168.109 61.2904 166.496 62.9134 164.937 64.5824C161.945 67.7348 159.139 71.0602 156.537 74.5415C156.315 74.8366 156.103 75.1409 155.891 75.4636C161.252 74.6747 166.273 72.3567 170.35 68.7874C170.837 68.2699 171.456 67.8939 172.139 67.6993C172.798 67.6624 173.456 67.7858 174.057 68.0589C175.782 68.6511 177.602 68.9138 179.424 68.8335C180.684 66.5827 182.105 64.4255 183.675 62.3785C192.91 57.9106 202.44 54.0779 212.197 50.9072C215.675 48.679 218.65 45.7486 220.929 42.3036Z" fill="#070707"/>
<path opacity="0.1" d="M268.271 36.6971C269.83 37.3057 271.37 37.9973 272.882 38.7258L272.734 38.6059C272.105 37.6559 271.392 36.7641 270.604 35.9409C270.272 35.8211 269.95 35.6735 269.618 35.5628C266.308 34.3952 262.918 33.4706 259.474 32.7964C251.931 31.3118 244.093 31.2841 236.421 31.5147C236.282 31.5147 236.246 31.8282 236.421 31.8374C243.688 32.0887 250.933 32.8033 258.109 33.9768C261.577 34.5494 264.981 35.4605 268.271 36.6971Z" fill="#070707"/>
<path opacity="0.1" d="M152.737 107.065C148.574 116.364 146.527 126.471 146.743 136.657C146.798 139.146 146.964 141.636 147.232 144.107C148.308 145.268 149.28 146.52 150.137 147.851C150.737 148.899 151.237 150.002 151.63 151.143C151.63 150.931 151.529 150.719 151.492 150.507C150.559 145.77 150.056 140.959 149.989 136.131C149.829 126.537 150.996 116.967 153.456 107.692C153.576 107.287 153.032 106.429 152.737 107.065Z" fill="#070707"/>
<path opacity="0.1" d="M154.176 139.746C152.147 135.817 151.53 131.345 150.847 126.974C150.757 125.643 150.294 124.365 149.51 123.286C148.814 122.635 148.047 122.066 147.223 121.589C144.982 119.947 143.83 117.227 143.055 114.562C142.547 112.827 142.162 111.058 141.902 109.269C140.709 115.988 140.436 122.838 141.091 129.63C141.437 134.06 142.941 138.321 145.453 141.986C146.937 144.006 148.809 145.675 150.063 147.87C151.317 150.064 152.018 152.683 152.913 155.127C155.144 161.204 160.935 165.676 166.8 168.037C165.16 162.573 164.185 156.932 163.895 151.235C163.268 150.581 162.623 149.944 161.987 149.308C159.109 146.394 156.076 143.434 154.176 139.746Z" fill="#070707"/>
<path d="M140.962 51.5435C131.516 54.2892 123.427 60.4484 118.268 68.8243C117.963 69.2509 117.776 69.7501 117.724 70.272C117.724 74.5876 128.043 75.9708 130.994 76.3397C137.768 77.123 144.631 76.4502 151.124 74.3663C157.073 72.4553 162.7 69.6574 167.815 66.0671C169.659 64.7853 172.232 63.4851 173.034 61.2904C174.076 58.4595 172.112 56.5138 169.982 54.9369C162.319 49.275 149.833 48.9707 140.962 51.5435Z" fill="#8F93EC"/>
<path opacity="0.2" d="M140.962 51.5435C131.516 54.2892 123.427 60.4484 118.268 68.8243C117.963 69.2509 117.776 69.7501 117.724 70.272C117.724 74.5876 128.043 75.9708 130.994 76.3397C137.768 77.123 144.631 76.4502 151.124 74.3663C157.073 72.4553 162.7 69.6574 167.815 66.0671C169.659 64.7853 172.232 63.4851 173.034 61.2904C174.076 58.4595 172.112 56.5138 169.982 54.9369C162.319 49.275 149.833 48.9707 140.962 51.5435Z" fill="#070707"/>
<path opacity="0.2" d="M168.801 59.1141C167.566 56.9102 163.711 57.2698 161.618 57.3252C157.594 57.4359 153.585 57.8707 149.63 58.6254C146.449 59.2985 142.447 59.7873 139.782 61.8252C138.749 62.6182 138.057 64.0568 138.86 65.2463C140.095 66.9892 142.65 67.3027 144.549 66.7217C146.984 65.984 149.51 65.3385 151.926 64.4717C157.588 62.443 162.807 59.9164 168.801 59.1141Z" fill="#070707"/>
<path opacity="0.3" d="M146.025 51.8754C145.561 51.6269 145.038 51.5119 144.512 51.5435C139.467 52.4463 134.681 54.4486 130.496 57.4083C126.342 60.0373 122.827 63.5592 120.205 67.7177C119.716 68.52 118.831 69.8755 119.366 70.8438C119.577 71.2012 119.856 71.5144 120.187 71.7659C121.063 72.6065 122.089 73.2758 123.211 73.7393C123.462 73.8621 123.741 73.9141 124.019 73.8897C124.297 73.8654 124.563 73.7655 124.788 73.6009C125.074 73.2874 125.065 72.7434 124.604 72.061C124.279 71.5075 124.088 70.8862 124.045 70.246C124.001 69.6059 124.107 68.9645 124.355 68.3724C124.857 67.1875 125.587 66.1129 126.503 65.2095C129.067 62.5351 131.89 60.1225 134.931 58.0076C136.651 56.7688 138.45 55.6444 140.317 54.6418C142.161 53.6552 144.107 52.9912 145.942 52.023" fill="#8F93EC"/>
<path d="M199.48 24.8568C207.679 19.4237 217.604 17.2316 227.329 18.7062C227.854 18.7364 228.359 18.9155 228.786 19.2226C232.096 21.989 226.462 30.777 224.839 33.2667C221.061 38.9412 216.116 43.7447 210.334 47.357C205.026 50.6573 199.254 53.144 193.21 54.734C191.034 55.3242 188.387 56.44 186.183 55.6562C183.361 54.6234 183.131 51.8754 183.315 49.2012C183.952 39.6848 191.808 29.9931 199.48 24.8568Z" fill="#8F93EC"/>
<path opacity="0.1" d="M199.48 24.8568C207.679 19.4237 217.604 17.2316 227.329 18.7062C227.854 18.7364 228.359 18.9155 228.786 19.2226C232.096 21.989 226.462 30.777 224.839 33.2667C221.061 38.9412 216.116 43.7447 210.334 47.357C205.026 50.6573 199.254 53.144 193.21 54.734C191.034 55.3242 188.387 56.44 186.183 55.6562C183.361 54.6234 183.131 51.8754 183.315 49.2012C183.952 39.6848 191.808 29.9931 199.48 24.8568Z" fill="#070707"/>
<path opacity="0.2" d="M187.271 50.9902C186.349 48.6295 189.115 45.9 190.536 44.36C193.224 41.3622 196.151 38.5868 199.287 36.0608C201.859 34.0597 204.819 31.321 208.093 30.611C209.366 30.3343 210.915 30.7308 211.274 32.1509C211.8 34.2165 210.352 36.3651 208.72 37.444C206.59 38.8272 204.46 40.3395 202.265 41.6213C197.092 44.5905 191.753 46.942 187.271 50.9902Z" fill="#070707"/>
<path opacity="0.3" d="M196.457 28.9327C196.571 28.4201 196.823 27.9483 197.185 27.5679C201.131 24.2982 205.75 21.9399 210.713 20.6611C215.405 19.1883 220.366 18.7788 225.236 19.4623C226.159 19.6191 227.763 19.822 228.16 20.8455C228.284 21.2321 228.331 21.6395 228.298 22.0443C228.374 23.2571 228.223 24.4734 227.855 25.6314C227.569 26.3323 227.136 26.7103 226.73 26.738C226.325 26.7657 225.891 26.3968 225.67 25.6038C225.456 24.9961 225.105 24.4464 224.642 23.9983C224.179 23.5502 223.619 23.2158 223.005 23.0218C221.777 22.6408 220.486 22.5061 219.206 22.6253C215.509 22.8466 211.845 23.4429 208.269 24.405C206.215 24.9218 204.195 25.5654 202.22 26.3323C200.283 27.0884 198.531 28.1765 196.576 28.9419" fill="#8F93EC"/>
<path d="M176.271 47.486C177.314 46.8784 178.494 46.5424 179.701 46.5086C180.748 46.5188 181.777 46.7746 182.707 47.2555C183.652 47.7352 184.444 48.4699 184.994 49.3764C186.368 51.359 187.76 53.4338 188.203 55.8313C188.456 57.3696 188.29 58.9478 187.72 60.399C187.15 61.8501 186.199 63.1203 184.966 64.0752C184.447 64.4711 183.868 64.7823 183.251 64.9974C182.436 65.2732 181.57 65.3645 180.715 65.2648C177.663 64.7668 175.431 62.3232 173.559 59.8611C171.872 57.6479 170.516 54.7432 171.503 52.1336C172.175 50.5602 173.332 49.2422 174.804 48.3713C175.293 48.0485 175.773 47.7534 176.271 47.486Z" fill="#8F93EC"/>
<path opacity="0.2" d="M176.271 47.486C177.314 46.8784 178.494 46.5424 179.701 46.5086C180.748 46.5188 181.777 46.7746 182.707 47.2555C183.652 47.7352 184.444 48.4699 184.994 49.3764C186.368 51.359 187.76 53.4338 188.203 55.8313C188.456 57.3696 188.29 58.9478 187.72 60.399C187.15 61.8501 186.199 63.1203 184.966 64.0752C184.447 64.4711 183.868 64.7823 183.251 64.9974C182.436 65.2732 181.57 65.3645 180.715 65.2648C177.663 64.7668 175.431 62.3232 173.559 59.8611C171.872 57.6479 170.516 54.7432 171.503 52.1336C172.175 50.5602 173.332 49.2422 174.804 48.3713C175.293 48.0485 175.773 47.7534 176.271 47.486Z" fill="#070707"/>
<path opacity="0.2" d="M181.693 50.944C181.173 49.371 180.169 48.0025 178.825 47.0342L178.364 46.6838C177.634 46.8573 176.93 47.1271 176.271 47.486C175.773 47.7535 175.293 48.0578 174.804 48.4082C173.332 49.2791 172.175 50.5971 171.503 52.1705C170.516 54.7801 171.872 57.7033 173.559 59.898C175.404 62.3601 177.663 64.8037 180.715 65.3017C181.355 65.3868 182.006 65.3524 182.633 65.2003C181.628 64.8384 180.758 64.175 180.143 63.3007C178.991 61.5025 179.599 59.1326 180.402 57.15C181.204 55.1674 182.2 53.0188 181.693 50.944Z" fill="#070707"/>
<path d="M172.638 66.9431C174.401 67.2657 176.215 67.1806 177.94 66.6942C179.5 66.3561 181.018 65.849 182.468 65.1819C180.753 64.7157 179.244 63.6901 178.18 62.2679C176.391 59.7781 177.091 57.2423 178.18 54.6511C179.424 51.5896 180.522 47.6152 176.289 46.3518C173.735 45.6141 170.314 46.942 168.562 48.8416C163.757 54.0701 164.928 65.1173 172.638 66.9431Z" fill="#8F93EC"/>
<path opacity="0.1" d="M172.638 66.9431C174.401 67.2657 176.215 67.1806 177.94 66.6942C179.5 66.3561 181.018 65.849 182.468 65.1819C180.753 64.7157 179.244 63.6901 178.18 62.2679C176.391 59.7781 177.091 57.2423 178.18 54.6511C179.424 51.5896 180.522 47.6152 176.289 46.3518C173.735 45.6141 170.314 46.942 168.562 48.8416C163.757 54.0701 164.928 65.1173 172.638 66.9431Z" fill="#070707"/>
<path d="M133.612 35.2848L139.767 33.9564L141.145 26.346L142.511 33.9564L148.667 35.2972L142.543 37.0477L141.145 44.2236L139.735 37.0477L133.612 35.2848Z" fill="#F9D669"/>
<path d="M116.675 227.234L122.446 226.034L123.737 219.236L125.018 226.034L130.789 227.234L125.048 228.8L123.737 235.232L122.416 228.8L116.675 227.234Z" fill="#F9D669"/>
<path d="M345.321 191.008L355.323 188.891L357.544 176.895L359.782 188.891L369.785 191.008L359.834 193.772L357.544 205.122L355.272 193.772L345.321 191.008Z" fill="#F9D669"/>
<path d="M82.8018 245.126L91.2488 243.373L93.152 233.35L95.0291 243.373L103.502 245.126L95.0812 247.435L93.152 256.873L91.2227 247.435L82.8018 245.126Z" fill="#F9D669"/>
<path d="M110.088 109.148L115.848 107.884L117.145 100.679L118.425 107.884L124.202 109.148L118.461 110.812L117.145 117.616L115.83 110.812L110.088 109.148Z" fill="#F9D669"/>
<path d="M194.772 42.3418L199.394 41.3587L200.418 35.7553L201.456 41.3587L206.063 42.3418L201.47 43.6361L200.418 48.9283L199.365 43.6361L194.772 42.3418Z" fill="#F9D669"/>
<path d="M327.443 291.675L334.751 290.132L336.37 281.338L338.012 290.132L345.321 291.701L338.035 293.732L336.37 302.038L334.729 293.732L327.443 291.675Z" fill="#F9D669"/>
<path d="M298.274 121.844L302.121 121.072L302.985 116.675L303.837 121.072L307.684 121.844L303.861 122.86L302.985 127.025L302.109 122.86L298.274 121.844Z" fill="#F9D669"/>
<path d="M331.207 79.038L339.68 77.3527L341.557 67.7468L343.46 77.3527L351.907 79.038L343.486 81.2569L341.557 90.3291L339.627 81.2569L331.207 79.038Z" fill="#F9D669"/>
<path d="M192.89 342.027L201.748 340.272L203.711 330.266L205.7 340.272L214.531 342.027L205.728 344.339L203.711 353.789L201.694 344.339L192.89 342.027Z" fill="#F9D669"/>
<path d="M369.299 236.962C369.482 236.962 369.657 236.881 369.786 236.737C369.915 236.592 369.988 236.397 369.988 236.192C369.988 235.988 369.915 235.792 369.786 235.648C369.657 235.504 369.482 235.422 369.299 235.422C369.117 235.422 368.942 235.504 368.813 235.648C368.684 235.792 368.611 235.988 368.611 236.192C368.611 236.397 368.684 236.592 368.813 236.737C368.942 236.881 369.117 236.962 369.299 236.962Z" fill="#F9D669"/>
<path d="M182.755 268.807C182.898 268.751 183.023 268.646 183.111 268.508C183.2 268.369 183.247 268.203 183.247 268.033C183.247 267.862 183.2 267.696 183.111 267.557C183.023 267.419 182.898 267.314 182.755 267.259C182.583 267.278 182.425 267.368 182.309 267.511C182.194 267.654 182.13 267.84 182.13 268.033C182.13 268.225 182.194 268.411 182.309 268.554C182.425 268.697 182.583 268.787 182.755 268.807Z" fill="#F9D669"/>
<path d="M107.89 151.283C108.034 151.227 108.158 151.123 108.247 150.984C108.335 150.845 108.383 150.679 108.383 150.509C108.383 150.339 108.335 150.173 108.247 150.034C108.158 149.895 108.034 149.791 107.89 149.735C107.719 149.755 107.56 149.845 107.445 149.988C107.329 150.131 107.266 150.317 107.266 150.509C107.266 150.702 107.329 150.887 107.445 151.03C107.56 151.173 107.719 151.263 107.89 151.283Z" fill="#F9D669"/>
<path d="M341.671 154.485C341.853 154.485 342.028 154.404 342.157 154.26C342.286 154.116 342.359 153.92 342.359 153.716C342.359 153.511 342.286 153.316 342.157 153.171C342.028 153.027 341.853 152.946 341.671 152.946C341.488 152.946 341.313 153.027 341.184 153.171C341.055 153.316 340.982 153.511 340.982 153.716C340.982 153.92 341.055 154.116 341.184 154.26C341.313 154.404 341.488 154.485 341.671 154.485Z" fill="#F9D669"/>
<path d="M312.767 156.222C312.897 156.222 313.022 156.164 313.114 156.061C313.206 155.958 313.257 155.819 313.257 155.673C313.257 155.527 313.206 155.388 313.114 155.285C313.022 155.182 312.897 155.124 312.767 155.124C312.637 155.124 312.512 155.182 312.42 155.285C312.328 155.388 312.276 155.527 312.276 155.673C312.276 155.819 312.328 155.958 312.42 156.061C312.512 156.164 312.637 156.222 312.767 156.222Z" fill="#F9D669"/>
<path d="M252.01 50.0176C252.129 50.0013 252.239 49.9369 252.318 49.8365C252.397 49.7362 252.441 49.6069 252.441 49.4729C252.441 49.339 252.397 49.2097 252.318 49.1093C252.239 49.009 252.129 48.9446 252.01 48.9283C251.891 48.9446 251.782 49.009 251.703 49.1093C251.623 49.2097 251.58 49.339 251.58 49.4729C251.58 49.6069 251.623 49.7362 251.703 49.8365C251.782 49.9369 251.891 50.0013 252.01 50.0176Z" fill="#F9D669"/>
<path d="M178.193 112.829C178.312 112.813 178.422 112.749 178.501 112.648C178.58 112.548 178.624 112.419 178.624 112.285C178.624 112.151 178.58 112.021 178.501 111.921C178.422 111.821 178.312 111.756 178.193 111.74C178.075 111.756 177.965 111.821 177.886 111.921C177.806 112.021 177.763 112.151 177.763 112.285C177.763 112.419 177.806 112.548 177.886 112.648C177.965 112.749 178.075 112.813 178.193 112.829Z" fill="#F9D669"/>
<path d="M293.85 56.9712C294.183 56.9434 294.495 56.7756 294.722 56.5014C294.95 56.2272 295.076 55.8669 295.076 55.4928C295.076 55.1187 294.95 54.7585 294.722 54.4843C294.495 54.2101 294.183 54.0423 293.85 54.0145C293.516 54.0423 293.204 54.2101 292.977 54.4843C292.749 54.7585 292.623 55.1187 292.623 55.4928C292.623 55.8669 292.749 56.2272 292.977 56.5014C293.204 56.7756 293.516 56.9434 293.85 56.9712Z" fill="#F9D669"/>
<path d="M155.242 194.176C155.576 194.148 155.888 193.98 156.115 193.706C156.343 193.432 156.469 193.072 156.469 192.698C156.469 192.324 156.343 191.963 156.115 191.689C155.888 191.415 155.576 191.247 155.242 191.219C154.909 191.247 154.597 191.415 154.37 191.689C154.142 191.963 154.016 192.324 154.016 192.698C154.016 193.072 154.142 193.432 154.37 193.706C154.597 193.98 154.909 194.148 155.242 194.176Z" fill="#F9D669"/>
</svg>
