<svg width="17" height="17" viewBox="0 0 17 17" fill="none" xmlns="http://www.w3.org/2000/svg">
<path d="M17 10.5403V15.98C17 16.2506 16.8925 16.51 16.7012 16.7013C16.51 16.8925 16.2505 17 15.98 17H1.02C0.749479 17 0.490038 16.8925 0.298751 16.7013C0.107464 16.51 0 16.2506 0 15.98V10.5403C0 10.2698 0.107464 10.0104 0.298751 9.81909C0.490038 9.62781 0.749479 9.52035 1.02 9.52035C1.29052 9.52035 1.54996 9.62781 1.74125 9.81909C1.93254 10.0104 2.04 10.2698 2.04 10.5403V14.9601H14.96V10.5403C14.96 10.2698 15.0675 10.0104 15.2588 9.81909C15.45 9.62781 15.7095 9.52035 15.98 9.52035C16.2505 9.52035 16.51 9.62781 16.7012 9.81909C16.8925 10.0104 17 10.2698 17 10.5403ZM5.82165 5.14221L7.48 3.48564V10.5403C7.48 10.8108 7.58746 11.0702 7.77875 11.2615C7.97004 11.4528 8.22948 11.5603 8.5 11.5603C8.77052 11.5603 9.02996 11.4528 9.22125 11.2615C9.41254 11.0702 9.52 10.8108 9.52 10.5403V3.48564L11.1783 5.14476C11.2732 5.23964 11.3859 5.3149 11.5098 5.36624C11.6338 5.41759 11.7667 5.44402 11.9008 5.44402C12.035 5.44402 12.1679 5.41759 12.2919 5.36624C12.4158 5.3149 12.5285 5.23964 12.6233 5.14476C12.7182 5.04988 12.7935 4.93725 12.8448 4.81329C12.8962 4.68933 12.9226 4.55647 12.9226 4.42229C12.9226 4.28812 12.8962 4.15526 12.8448 4.0313C12.7935 3.90734 12.7182 3.7947 12.6233 3.69983L9.22335 0.29999C9.12859 0.204903 9.01599 0.129457 8.892 0.0779783C8.76802 0.0264992 8.6351 0 8.50085 0C8.3666 0 8.23368 0.0264992 8.1097 0.0779783C7.98571 0.129457 7.87311 0.204903 7.77835 0.29999L4.37835 3.69983C4.28347 3.7947 4.20821 3.90734 4.15686 4.0313C4.10551 4.15526 4.07908 4.28812 4.07908 4.42229C4.07908 4.69327 4.18673 4.95315 4.37835 5.14476C4.56997 5.33637 4.82986 5.44402 5.10085 5.44402C5.37184 5.44402 5.63173 5.33637 5.82335 5.14476L5.82165 5.14221Z" fill="#FAFAFA"/>
</svg>
