<svg width="89" height="116" viewBox="0 0 89 116" fill="none" xmlns="http://www.w3.org/2000/svg">
<path d="M60.7916 64.0282C62.5093 68.7733 65.498 88.9875 66.3482 94.7765C66.4947 95.7928 66.9132 96.7496 67.5591 97.5459C68.6756 98.9263 70.9257 101.696 75.1511 106.941C77.7791 110.202 80.5531 114.231 82.5714 116.845C88.6261 124.705 89.1671 130.002 87.8274 134.558C85.6116 142.115 81.12 139.82 79.1189 133.98C78.3048 131.527 77.1482 129.203 75.6836 127.078C75.7885 128.361 75.7162 129.653 75.4689 130.917C74.9278 132.944 73.3562 133.341 72.6176 133.212C72.0422 133.1 72.4115 131.693 71.8189 129.39C70.9601 126.103 70.3675 124.886 70.5049 120.624C70.5353 119.818 70.2864 119.025 69.8007 118.381C66.2366 113.809 62.243 109.754 58.8335 106.147C56.3061 103.451 54.6685 100.038 54.1443 96.3726L48.4417 56.6863C53.629 56.9192 58.593 57.7906 60.7916 64.0282Z" fill="#FFA8A7"/>
<path d="M17.7823 60.5772L30.9738 57.2471L41.6314 56.3843L47.6432 56.6776C52.1778 63.5796 66.9239 73.829 58.0351 89.1945C57.1161 95.76 57.5971 103.456 57.8547 111.091C46.2348 115.81 34.4005 119.796 18.3061 109.262C19.9551 106.061 22.5058 104.646 22.2138 100.936L17.0608 86.8306C17.0608 86.8306 27.0318 77.8667 17.7823 60.5772Z" fill="#FFA8A7"/>
<path d="M19.9455 105.949C20.7271 104.698 22.3331 102.783 22.1785 100.919L18.8205 91.6965L21.2681 81.3435C21.6177 79.6845 22.3116 78.1177 23.3035 76.7451C24.925 71.0009 25.0255 64.9315 23.5955 59.1365L27.2455 58.1961C31.4091 66.8716 38.543 73.7505 47.3424 77.5733L47.5657 77.1765C48.3043 75.6321 50.1851 68.9114 44.8089 56.4706L48.5018 56.6086C48.5018 56.6086 59.4003 68.1263 61.0407 73.1906C62.1056 76.4949 63.4024 82.5169 58.4642 89.6776C58.3096 93.56 58.4642 96.2776 58.3354 103.792C58.2695 105.955 58.3902 108.121 58.6961 110.263C59.1427 113.533 60.2334 126.914 36.6067 123.704C28.9039 122.564 21.5026 119.894 14.8355 115.853C16.2612 112.414 17.9702 109.101 19.9455 105.949Z" fill="#969AFF"/>
<path opacity="0.1" d="M45.6328 89.8243C45.6328 89.8243 41.8798 94.1812 34.2105 92.5851C26.5412 90.989 25.2358 85.0706 25.2358 85.0706C25.2358 85.0706 24.48 92.5851 33.6522 94.4573C42.6956 96.3035 45.6328 89.8243 45.6328 89.8243Z" fill="black"/>
<path d="M34.6835 5.67216C47.0073 4.9647 56.6776 10.9608 57.3561 24.0055C57.8971 34.3584 47.2993 48.2918 39.0976 48.4384L35.1816 48.6714C29.7796 48.9824 24.4764 47.1259 20.4373 43.51C16.3983 39.8941 13.9541 34.8149 13.6423 29.389C13.4688 26.4429 13.8768 23.4915 14.8412 20.7038C15.8057 17.9161 17.3086 15.3471 19.2633 13.1439C21.2171 10.9407 23.5858 9.1466 26.2318 7.86448C28.8778 6.58226 31.7497 5.83728 34.6835 5.67216Z" fill="#263238"/>
<path d="M11.3754 17.4055C14.9996 21.0031 18.7098 18.4925 22.5401 14.6274C26.3705 10.7623 28.7923 7.0094 25.1767 3.41176C21.561 -0.18589 15.5321 0.0297959 11.7275 3.89489C7.92293 7.75999 7.75117 13.8078 11.3754 17.4055Z" fill="#263238"/>
<path d="M26.5332 7.68236C27.2632 7.83222 28.0224 7.68468 28.6441 7.27203C29.2659 6.85947 29.6996 6.21569 29.8482 5.48236C29.9976 4.74902 29.8508 3.98618 29.4403 3.36164C29.0289 2.7371 28.3882 2.30202 27.6582 2.15216L26.5332 7.68236Z" fill="#263238"/>
<path d="M20.8559 34.7639C21.3489 34.219 21.9638 33.7998 22.65 33.5409C23.337 33.2821 24.0748 33.1911 24.803 33.2754C25.5313 33.3596 26.2295 33.6168 26.8393 34.0257C27.4491 34.4345 27.9532 34.9833 28.3105 35.6267C28.3105 35.6267 29.9337 32.5812 35.1381 30.1224C42.3519 26.7318 45.5553 22.4439 48.733 16.5686C50.9745 18.2424 55.4232 22.6941 55.5348 35.178C55.6293 45.7898 52.7437 48.7663 51.0947 49.6722C49.4458 50.5781 46.105 50.3882 42.8414 50.1294L43.1506 56.6C43.1506 56.6 49.1108 65.0981 46.792 71.0855C35.7737 69.0149 29.3582 58.2047 29.3582 58.2047L28.2074 43.538C28.2074 43.538 26.4898 45.5482 23.0545 43.0031C20.1946 40.8808 18.9665 37.0416 20.8559 34.7639Z" fill="#FFA8A7"/>
<path opacity="0.4" d="M33.6694 38.3961C33.6677 39.0281 33.8523 39.6465 34.201 40.1728C34.5497 40.6991 35.0461 41.1095 35.6266 41.3522C36.2081 41.5949 36.847 41.6588 37.4645 41.536C38.082 41.413 38.6488 41.1088 39.0937 40.6619C39.5387 40.2149 39.8414 39.6453 39.9638 39.0254C40.0861 38.4053 40.0225 37.7627 39.7809 37.1792C39.5394 36.5955 39.1307 36.097 38.6069 35.7469C38.0829 35.3968 37.4671 35.2108 36.8385 35.2126C35.9985 35.2148 35.1938 35.551 34.5995 36.1475C34.0061 36.744 33.6711 37.5525 33.6694 38.3961Z" fill="#F28F8F"/>
<path opacity="0.4" d="M55.4592 38.4824C55.1805 38.5661 54.8913 38.6097 54.6003 38.6118C54.1962 38.6336 53.7917 38.5724 53.4117 38.4321C53.0318 38.2917 52.6844 38.0751 52.3905 37.7953C52.0967 37.5156 51.8627 37.1787 51.7028 36.805C51.5428 36.4314 51.4603 36.0291 51.4603 35.6224C51.4603 35.2157 51.5428 34.8133 51.7028 34.4397C51.8627 34.0661 52.0967 33.7291 52.3905 33.4494C52.6844 33.1697 53.0318 32.953 53.4117 32.8127C53.7917 32.6723 54.1962 32.6111 54.6003 32.6329C54.892 32.6346 55.1817 32.6811 55.4592 32.771C55.4592 33.5388 55.5108 34.3239 55.5194 35.1522C55.5451 36.3686 55.5193 37.4902 55.4592 38.4824Z" fill="#F28F8F"/>
<path d="M42.8433 50.1035C39.408 49.9482 34.5299 50.0345 32.2283 46.92C32.2283 46.92 32.2283 48.5419 34.4526 50.1553C36.677 51.7686 42.9893 52.2259 42.9893 52.2259L42.8433 50.1035Z" fill="#F28F8F"/>
<path d="M28.3109 35.6008L29.3243 39.5176C30.1719 39.2749 30.8942 38.7142 31.3417 37.9513C31.7891 37.1886 31.9274 36.2822 31.729 35.4196L30.2862 29.1647L27.1257 30.2173L28.3109 35.6008Z" fill="#263238"/>
<path d="M42.0249 41.5882L45.8467 42.5286C45.7969 42.7858 45.696 43.0303 45.5501 43.2475C45.4041 43.4646 45.2161 43.65 44.9973 43.7926C44.7785 43.9351 44.5333 44.0318 44.2764 44.0771C44.0194 44.1223 43.7561 44.115 43.5021 44.0557C42.9865 43.9154 42.5448 43.5802 42.2695 43.1204C41.9943 42.6605 41.9066 42.1116 42.0249 41.5882Z" fill="#B16668"/>
<path d="M45.693 30.64L46.4917 39.1294L50.8545 37.4384L45.693 30.64Z" fill="#F28F8F"/>
<path d="M42.3262 31.8392C42.0805 31.2789 41.6607 30.8137 41.1295 30.5135C40.5984 30.2133 39.9847 30.0942 39.3804 30.1741C38.801 30.1555 38.233 30.3398 37.7741 30.6955C37.3146 31.0512 36.9934 31.5561 36.8637 32.1239C37.1961 32.5693 37.6306 32.9273 38.1297 33.1677C38.6291 33.408 39.179 33.5235 39.7325 33.5043C40.262 33.4415 40.7703 33.2591 41.2195 32.9707C41.6687 32.6824 42.0471 32.2955 42.3262 31.8392Z" fill="#F28F8F"/>
<path d="M42.3262 31.8392C42.1809 32.4302 41.8381 32.9531 41.355 33.3206C40.872 33.688 40.2781 33.8778 39.6724 33.858C39.0774 33.9447 38.471 33.8197 37.9579 33.5047C37.4451 33.1895 37.0578 32.7041 36.8637 32.1326C37.6521 32.7622 38.6428 33.0808 39.6487 33.0283C40.6546 32.976 41.6068 32.5561 42.3262 31.8478V31.8392Z" fill="#263238"/>
<path d="M36.8651 32.1239C36.6487 32.1635 36.4271 32.1571 36.2141 32.1051C36.0011 32.0531 35.8019 31.9566 35.6284 31.822C35.6284 31.822 35.7564 33.0643 37.4912 32.909L36.8651 32.1239Z" fill="#263238"/>
<path d="M54.0576 30.0275C53.7464 29.5033 53.2779 29.0917 52.7194 28.8515C52.161 28.6113 51.5411 28.5548 50.9488 28.6902C50.3682 28.7222 49.8182 28.9615 49.3977 29.3648C48.9773 29.7682 48.7141 30.3091 48.6556 30.8902C49.0324 31.298 49.5017 31.6084 50.0236 31.7946C50.5455 31.9809 51.1045 32.0377 51.653 31.96C52.1736 31.8425 52.6607 31.6074 53.0774 31.2726C53.4941 30.9377 53.8293 30.5119 54.0576 30.0275Z" fill="#F28F8F"/>
<path d="M54.0576 30.0275C53.9926 30.6127 53.7214 31.1551 53.293 31.557C52.8646 31.9589 52.3072 32.1936 51.7216 32.2188C51.1363 32.3787 50.5144 32.3343 49.9574 32.0929C49.4006 31.8516 48.9416 31.4276 48.6556 30.8902C49.5031 31.4364 50.5218 31.6484 51.5156 31.4855C52.5116 31.3275 53.4158 30.8089 54.0576 30.0275Z" fill="#263238"/>
<path d="M54.0576 30.0533C54.2784 30.0545 54.4969 30.0081 54.6984 29.9174C54.8999 29.8266 55.0796 29.6935 55.2256 29.5271C55.2256 29.5271 55.3201 30.778 53.5939 30.942L54.0576 30.0533Z" fill="#263238"/>
<path d="M53.1571 25.9122L49.7218 25.6188C49.7303 25.392 49.7846 25.1693 49.8814 24.9642C49.9782 24.759 50.1155 24.5759 50.285 24.4257C50.4545 24.2757 50.6527 24.1617 50.8674 24.091C51.0821 24.0202 51.3088 23.9941 51.5339 24.0141C51.9948 24.0621 52.4198 24.2855 52.7217 24.6386C53.0235 24.9916 53.1793 25.4473 53.1571 25.9122Z" fill="#263238"/>
<path d="M0.459522 102.774C1.85081 96.3381 4.75364 85.2777 7.64787 73.8118C10.7912 61.4141 13.7026 61.302 21.2688 59.9043C28.8608 63.7781 21.2688 83.1984 21.2688 83.1984L14.7933 105.725C18.8813 113.015 22.265 120.624 27.0143 126.37C27.8302 127.354 29.2988 127.319 30.5699 127.457C34.0052 127.82 35.2676 128.544 38.248 129.657C40.5754 130.52 42.087 130.287 42.13 130.908C42.1901 131.702 41.6147 133.315 39.4419 133.66C38.1 133.788 36.7465 133.724 35.4222 133.471C37.498 135.228 39.8113 136.68 42.2931 137.784C48.1502 140.511 50.0654 145.48 41.9581 146.998C37.0626 147.913 31.609 146.774 24.0686 139.57C20.8488 136.503 17.8868 133.173 15.2141 129.614C8.47234 120.314 -0.416477 108.166 0.459522 102.774Z" fill="#FFA8A7"/>
<path d="M18.7597 12.3584C18.7597 12.3584 18.5965 8.26901 20.5976 8.12234C22.5986 7.97568 24.5997 9.71842 24.1875 10.7796C23.7752 11.8408 21.1816 13.4282 21.1816 13.4282C21.1816 13.4282 25.1837 12.5051 25.0205 14.6878C24.8574 16.8706 24.0415 17.5608 22.8477 17.371C21.6539 17.1812 20.0565 15.6455 20.0565 15.6455C20.0565 15.6455 22.0146 18.2337 21.2675 19.338C20.5203 20.4423 18.2444 21.0635 17.4543 20.0455C16.6642 19.0274 17.8408 15.9647 17.8408 15.9647C17.8408 15.9647 16.1661 18.967 14.7919 18.0353C14.2363 17.708 13.7811 17.2326 13.4779 16.6614C13.1748 16.0904 13.0356 15.446 13.0743 14.8C13.1859 13.7906 17.4285 13.7216 17.4285 13.7216C17.4285 13.7216 12.9626 13.3247 13.5466 11.4612C14.1306 9.59764 15.9342 7.93254 16.9819 8.22587C18.0297 8.51921 18.7597 12.3584 18.7597 12.3584Z" fill="#FAFAFA"/>
<path d="M19.0873 15.6886C18.2714 15.6886 17.6101 15.0242 17.6101 14.2047C17.6101 13.3852 18.2714 12.7208 19.0873 12.7208C19.9023 12.7208 20.5645 13.3852 20.5645 14.2047C20.5645 15.0242 19.9023 15.6886 19.0873 15.6886Z" fill="#969AFF"/>
</svg>
