<svg width="136" height="124" viewBox="0 0 136 124" fill="none" xmlns="http://www.w3.org/2000/svg">
<path d="M57.6628 92.4331C59.729 93.0139 62.4337 90.1326 64.1993 88.1111C75.2585 75.4542 78.6921 71.7054 83.5381 63.5063L82.4036 46.565C74.5673 46.3237 70.3824 54.0023 66.1149 61.2283C63.0746 66.5919 59.7515 71.7891 56.1602 76.7968C56.1602 76.7968 39.6987 64.6302 35.018 61.9147C30.3372 59.1993 25.3785 59.4633 20.7428 59.9083C16.1072 60.3534 13.7931 60.723 12.6361 61.9147C12.0651 62.5106 10.9982 64.9319 11.3363 65.3845C12.343 66.7573 16.0997 66.6215 16.0997 66.6215C16.6631 68.1127 17.6557 69.4018 18.9502 70.3258C20.2447 71.2498 21.7842 71.7665 23.3725 71.811C29.0525 72.075 30.2621 71.3886 31.6746 72.1353C33.0871 72.8821 49.526 90.1401 57.6628 92.4331Z" fill="#FFA8A7"/>
<path d="M69.8795 82.3031L81.9007 66.3952C81.9007 66.3952 88.2944 53.7232 83.764 46.3237C83.764 46.3237 75.9352 45.7504 71.7428 51.4754C68.2792 56.235 59.7218 70.7474 56.2282 76.5781L43.1101 67.2928C43.1101 67.2928 43.6135 72.5728 36.5961 76.6686C39.6247 80.2703 42.9936 83.5695 46.6563 86.5195C52.9675 91.709 56.6114 93.7984 58.6099 93.3081C60.9991 92.6594 67.0095 86.2405 69.8795 82.3031Z" fill="#D6D6D6"/>
<path d="M9.46565 65.92C10.1043 65.6711 11.1937 68.4469 10.5551 68.6958L33.8461 60.3308C35.4614 59.6896 33.786 55.4354 32.1706 56.0766L9.46565 65.92Z" fill="#455A64"/>
<path d="M18.3301 65.92L10.5539 68.7108C11.1926 68.4619 10.1032 65.6937 9.46453 65.9351L17.0454 62.6539C18.2851 62.1486 19.5398 65.4297 18.3301 65.92Z" fill="#295F2B"/>
<path opacity="0.1" d="M34.4005 58.2414C34.6409 59.154 34.5432 60.0592 33.867 60.3307L10.576 68.6958C10.869 68.5826 10.8014 67.9415 10.576 67.3003L34.4005 58.2414Z" fill="black"/>
<path d="M5.75277 64.9545C7.10064 64.8597 8.44551 65.1723 9.61457 65.8521C9.99774 66.2022 10.296 66.6357 10.4861 67.1195C10.6762 67.6036 10.7536 68.1248 10.7115 68.643C10.3261 69.9418 9.56197 71.0951 8.51763 71.9543C7.7017 72.7546 6.75954 73.4146 5.73023 73.9079L4.0097 69.6914L2.34928 65.4523C3.44771 65.0948 4.59799 64.9264 5.75277 64.9545Z" fill="#455A64"/>
<path d="M6.7832 72.0599C6.89139 70.9383 6.73436 69.8076 6.32489 68.7584C5.91467 67.7099 5.26327 66.7733 4.42404 66.0256C2.81621 64.7509 1.26097 65.3618 0.960445 67.3984C0.850752 68.52 1.00703 69.6515 1.41725 70.7007C1.82747 71.7491 2.47887 72.686 3.3196 73.4327C4.91992 74.7074 6.47515 74.0965 6.7832 72.0599Z" fill="#37474F"/>
<path d="M35.7754 62.3522C33.852 61.0021 31.598 58.5054 27.2028 58.2414C22.8076 57.9774 20.3057 56.9666 19.3515 57.7586C18.3973 58.5506 20.1629 61.2962 22.5371 61.8393C25.8128 62.5936 25.7152 63.9739 26.9023 64.5623C27.2404 64.7358 35.7754 62.3522 35.7754 62.3522Z" fill="#FFA8A7"/>
<path opacity="0.4" d="M114.771 96.6421C114.771 105.505 113.464 176.868 113.464 176.868C113.674 179.417 115.958 184.124 115.47 193.922C114.794 207.235 113.9 246.428 113.9 246.428C112.375 247.215 110.693 247.642 108.979 247.677C107.266 247.712 105.567 247.354 104.012 246.632C104.012 246.632 96.8069 193.402 95.2217 180.209C93.8317 168.691 89.722 135.646 89.722 135.646L85.462 175.571C86.4906 180.418 86.8596 185.385 86.5589 190.332C86.1457 196.434 83.2906 232.421 83.2906 232.421C83.2906 232.421 79.1058 235.385 73.0351 233.243C73.0351 233.243 67.9862 181.197 67.881 175.571C67.7608 169.189 70.8337 96.544 70.8337 96.544L114.771 96.6421Z" fill="black"/>
<path d="M112.202 49.1975C112.202 49.1975 117.604 50.2082 117.115 63.3856L115.297 86.5195C115.297 97.4039 115.447 107.195 115.5 115.228C114.59 116.195 113.453 116.918 112.194 117.332L110.691 107.979L108.73 119.059C95.958 123.065 76.9721 119.897 69.3236 114.119C69.7293 106.146 70.3604 76.9401 71.247 62.7746C71.8856 52.5918 74.057 47.4475 84.0195 46.3237L96.2961 46.8667L104.726 47.621L112.202 49.1975Z" fill="#FAFAFA"/>
<path d="M84.537 106.297C78.5264 104.924 72.1552 100.496 69.9914 96.4082C69.9914 96.4082 70.1417 91.5959 70.322 86.1198C75.7714 89.069 81.0401 92.3441 86.0998 95.9255C95.867 102.88 110.818 98.2412 110.818 98.2412L113.463 80.2514C113.463 80.2514 108.527 65.6032 109.473 57.7964L117.114 59.6066C117.182 60.7532 117.205 62.0128 117.114 63.4233L115.296 86.5573C115.296 97.4416 115.446 107.232 115.499 115.265C114.589 116.232 113.452 116.956 112.193 117.37L110.691 108.017L108.73 119.097C101.216 121.443 91.622 121.36 83.4025 119.663C87.8278 119.904 95.4913 120.002 100.21 118.207C102.11 117.592 103.742 116.341 104.836 114.663C105.929 112.987 106.418 110.984 106.22 108.99C106.22 108.99 94.5521 108.597 84.537 106.297Z" fill="#BEBEBE"/>
<path d="M100.06 21.0023C100.06 28.4018 94.2819 32.3166 87.2044 32.3166C80.127 32.3166 74.5747 28.779 73.027 21.5378C70.1945 8.30765 80.127 6.21074 87.2044 6.21074C94.2819 6.21074 100.06 13.6027 100.06 21.0023Z" fill="#263238"/>
<path d="M101.563 20.8967L103.253 22.7522L104.132 12.5845C104.132 12.5845 105.545 12.2299 107.04 14.5833C108.324 16.5973 108.61 21.1154 106.596 26.4181C106.596 26.4181 104.635 36.0729 103.847 37.6569C103.336 38.6287 102.468 39.3621 101.427 39.701L101.563 20.8967Z" fill="#263238"/>
<path d="M105.491 14.5456L109.999 14.6286C110.036 14.3312 110.011 14.0293 109.924 13.7424C109.838 13.4555 109.693 13.1899 109.498 12.9627C109.304 12.7353 109.064 12.5514 108.795 12.4227C108.525 12.2938 108.232 12.2231 107.933 12.2149C107.311 12.2316 106.717 12.4791 106.267 12.9095C105.816 13.34 105.539 13.9228 105.491 14.5456Z" fill="#263238"/>
<path d="M106.047 13.4594L109.413 10.216C109.217 9.98231 108.975 9.79246 108.702 9.65873C108.429 9.52499 108.13 9.45039 107.827 9.43976C107.523 9.42905 107.22 9.4826 106.938 9.5968C106.656 9.711 106.401 9.88343 106.19 10.1028C105.751 10.5424 105.493 11.1315 105.467 11.7532C105.44 12.3748 105.647 12.9838 106.047 13.4594Z" fill="#263238"/>
<path d="M101.787 26.8631C102.539 27.3308 103.59 25.8373 104.499 24.8341C105.409 23.8309 108.256 22.888 109.759 26.1767C111.261 29.4654 108.677 32.6334 106.573 33.7724C103.853 35.2809 101.554 32.3543 101.554 32.3543L101.231 48.1943C99.4807 50.9097 95.7015 50.4044 93.1545 51.4754C91.3138 52.2297 90.8329 54.7566 89.8487 55.5938C88.3461 51.8224 87.2942 50.1479 88.038 47.787V43.133C88.038 43.133 84.364 43.7138 82.5684 43.4272C79.5631 42.9445 77.572 40.5157 76.8133 37.1063C75.521 31.336 74.9875 27.1422 75.2205 18.8073C75.5736 7.28184 90.4122 4.82286 97.4446 9.46926C104.477 14.1157 101.787 26.8631 101.787 26.8631Z" fill="#FFA8A7"/>
<path d="M89.8711 55.6014C90.7727 54.221 90.4271 51.2416 91.8245 50.6005C93.4699 49.8462 100.127 47.9076 101.359 43.2009V41.8055C101.359 41.8055 102.11 41.7376 102.614 42.8238L104.777 47.6436C104.628 49.0395 104.187 50.3881 103.484 51.6018C102.781 52.8156 101.832 53.8673 100.698 54.6887C98.5456 56.2825 95.9929 57.2413 93.3272 57.4569C93.3272 57.4569 92.8088 52.5842 92.1626 52.5088C91.5165 52.4334 91.4038 54.8999 89.8711 55.6014Z" fill="#BEBEBE"/>
<path d="M89.8711 55.6014C89.5138 54.6336 89.311 53.6154 89.27 52.5842C89.27 51.4603 89.27 50.7589 88.7742 50.0875C88.3298 49.4152 88.0825 48.6312 88.0604 47.8247C88.0604 47.1986 88.0604 43.7364 88.0604 43.7364C87.7683 43.7216 87.4787 43.7976 87.2312 43.9542C86.9838 44.1109 86.7906 44.3403 86.678 44.6114C86.2422 45.4638 85.1227 48.0057 84.8898 48.594C84.6569 49.1824 84.0183 52.109 84.7095 54.1079C85.0014 55.1466 85.5889 56.0772 86.4 56.7856C86.4 56.7856 86.4 52.3504 87.7449 52.1166C88.1581 52.0185 88.5187 54.5454 89.8711 55.6014Z" fill="#BEBEBE"/>
<path d="M97.1364 19.6219C97.2901 20.355 97.5725 21.0549 97.9704 21.6887C98.594 22.6617 99.5632 23.4688 99.8111 24.6002C99.8876 25.2966 99.9002 25.9985 99.8487 26.6971C99.824 27.0472 99.8941 27.3975 100.051 27.7108C100.209 28.0242 100.448 28.2891 100.743 28.4773C102.245 29.1787 102.418 26.5991 104.499 24.8341C105.13 24.3061 105.206 23.0389 105.333 22.277C105.566 20.8967 105.694 19.4862 105.799 18.0832C105.889 16.899 106.01 15.6921 106.01 14.5003C106.066 13.1573 105.96 11.8124 105.694 10.4951C104.822 7.06309 101.757 5.13966 98.4587 4.31749C95.5887 3.60092 92.5984 3.63863 89.6532 3.37463C86.7081 3.11063 83.6427 2.49966 81.3211 0.696916C80.8102 0.304687 80.1415 -0.170512 79.593 0.168916C79.4295 0.299634 79.2978 0.466105 79.208 0.655581C79.1181 0.845133 79.0725 1.05271 79.0746 1.26263C78.909 2.68514 79.0894 4.1268 79.6005 5.464C79.1486 5.6485 78.6645 5.74022 78.1767 5.73373C77.689 5.72725 77.2074 5.6227 76.7605 5.42629C75.8514 5.0944 75.0024 4.58149 74.0708 4.3024C73.9446 4.25141 73.8069 4.23572 73.6726 4.25714C73.5782 4.29162 73.4917 4.34479 73.4181 4.41343C73.3446 4.48215 73.2855 4.56489 73.2444 4.65692C72.6313 5.69127 72.2661 6.85453 72.1774 8.0549C72.0887 9.25519 72.2791 10.4599 72.7335 11.5737C73.5524 13.5499 76.1745 15.0359 78.0904 15.7449C80.7443 16.586 83.5384 16.8886 86.3099 16.635C89.7509 16.4539 93.0192 14.8398 96.4753 14.7266C96.6109 14.7072 96.7487 14.7425 96.8584 14.8247C96.8992 14.879 96.9283 14.9412 96.9439 15.0075C96.9593 15.0737 96.961 15.1425 96.9486 15.2094C96.8222 16.6822 96.8853 18.1653 97.1364 19.6219Z" fill="#263238"/>
<path d="M88.0761 43.1406C88.0761 43.1406 94.7328 41.7376 97.092 40.4478C98.4731 39.6859 99.5936 38.5242 100.308 37.1138C99.9486 38.5274 99.3182 39.8572 98.4519 41.0286C96.7463 43.2914 88.0761 44.9735 88.0761 44.9735V43.1406Z" fill="#F28F8F"/>
<path d="M88.504 25.4526C88.501 25.6354 88.5341 25.8171 88.6013 25.9871C88.6685 26.1571 88.7685 26.3122 88.8956 26.4432C89.0227 26.5743 89.1743 26.6789 89.3418 26.7509C89.5092 26.823 89.6892 26.8611 89.8714 26.8631C90.0551 26.8497 90.2344 26.8 90.399 26.7169C90.5634 26.6337 90.7099 26.5187 90.8301 26.3785C90.9501 26.2384 91.0415 26.0757 91.0987 25.8999C91.156 25.7242 91.1781 25.5389 91.1637 25.3545C91.1769 25.1671 91.1507 24.9792 91.087 24.8026C91.0233 24.6261 90.9234 24.4649 90.7937 24.3296C90.6641 24.1942 90.5076 24.0876 90.3344 24.0168C90.1612 23.9459 89.9751 23.9123 89.7881 23.9181C89.6012 23.9239 89.4176 23.9691 89.249 24.0507C89.0805 24.1322 88.9309 24.2483 88.81 24.3914C88.6889 24.5346 88.5992 24.7017 88.5465 24.8819C88.4938 25.0621 88.4793 25.2513 88.504 25.4375V25.4526Z" fill="#263238"/>
<path d="M90.4799 20.0443L93.38 21.6133C93.5697 21.1976 93.5978 20.7257 93.4588 20.2903C93.3198 19.8549 93.0237 19.4874 92.6286 19.2599C92.4378 19.1609 92.2286 19.1026 92.0142 19.0888C91.7999 19.0749 91.585 19.1059 91.3831 19.1796C91.1812 19.2533 90.9967 19.3681 90.8412 19.517C90.6858 19.6658 90.5627 19.8454 90.4799 20.0443Z" fill="#263238"/>
<path d="M88.6776 34.7605L85.6347 35.9598C85.6946 36.1695 85.797 36.3646 85.9355 36.5328C86.074 36.7009 86.2457 36.8386 86.4397 36.937C86.6337 37.0355 86.8458 37.0926 87.0628 37.1049C87.2799 37.1171 87.4971 37.0842 87.7008 37.0082C88.116 36.8263 88.4474 36.4936 88.6285 36.0768C88.8097 35.6599 88.8272 35.1897 88.6776 34.7605Z" fill="#F28F8F"/>
<path d="M76.3862 21.8471L79.3164 20.2555C79.2374 20.0526 79.1157 19.8693 78.9594 19.7182C78.8031 19.567 78.6161 19.4517 78.4112 19.38C78.2063 19.3083 77.9884 19.2821 77.7724 19.303C77.5564 19.3239 77.3476 19.3915 77.1601 19.5013C76.7654 19.7274 76.4681 20.0921 76.3252 20.5252C76.1823 20.9583 76.2041 21.4291 76.3862 21.8471Z" fill="#263238"/>
<path d="M77.3696 25.5959C77.3667 25.7665 77.3974 25.9361 77.4603 26.0947C77.523 26.2533 77.6165 26.3978 77.7352 26.5199C77.8541 26.642 77.9958 26.7392 78.1523 26.8058C78.3088 26.8725 78.4769 26.9074 78.6469 26.9083C78.9912 26.8831 79.3117 26.7223 79.5383 26.4609C79.7649 26.1995 79.8793 25.8587 79.8565 25.5129C79.8629 25.3412 79.8339 25.17 79.7715 25.01C79.7091 24.85 79.6145 24.7046 79.4938 24.5829C79.373 24.4612 79.2285 24.3657 79.0694 24.3024C78.9102 24.2392 78.7398 24.2095 78.5688 24.2152C78.3978 24.2209 78.2297 24.2619 78.0751 24.3356C77.9205 24.4093 77.7826 24.5142 77.6702 24.6437C77.5577 24.7733 77.473 24.9246 77.4213 25.0884C77.3696 25.2522 77.352 25.425 77.3696 25.5959Z" fill="#263238"/>
<path d="M83.7937 24.3362L83.8838 32.7993L79.0678 31.8338L83.7937 24.3362Z" fill="#F28F8F"/>
<path d="M59.4815 67.6398L82.8623 72.867L87.3252 91.7543L86.078 92.7877L62.3816 87.0023L58.2343 68.6731L59.4815 67.6398Z" fill="#455A64"/>
<path d="M81.6151 73.9003L82.8623 72.867L87.3252 91.7543L86.078 92.7877L81.6151 73.9003Z" fill="#37474F"/>
<path d="M86.0781 92.7877L81.6153 73.9004L58.2337 68.6732L62.381 87.0023L86.0781 92.7877Z" fill="#263238"/>
<path d="M62.3812 87.0023L72.8926 94.4471L90.9619 98.2412L86.0783 92.7877L62.3812 87.0023Z" fill="#37474F"/>
<path d="M126.063 105.279C118.647 106.093 111.037 105.573 103.606 105.015C93.726 104.26 80.9761 102.45 73.9512 96.0537C72.5801 94.7518 71.5902 93.0977 71.0887 91.2715C70.5352 89.2584 70.4099 87.1509 70.7205 85.0864C70.7739 84.2982 71.101 83.5537 71.6447 82.9819C72.0834 82.684 72.5938 82.5098 73.1226 82.4781C73.6513 82.4464 74.1789 82.558 74.6499 82.8009C77.9933 84.1284 79.6462 87.8169 82.9145 89.3707C83.5456 89.6725 84.7853 90.125 85.4239 89.6197C86.0625 89.1143 86.2353 87.7339 86.2278 86.8891C86.1441 85.9848 86.205 85.0736 86.4081 84.1888C86.5108 83.6744 86.732 83.1916 87.0543 82.7783C87.4182 82.371 87.9125 82.1039 88.4517 82.024C88.5675 81.9938 88.689 81.9938 88.8049 82.024C89.2481 82.2126 89.2256 82.9216 89.3007 83.3063C89.5268 84.3615 89.841 85.3964 90.2399 86.3989C90.9461 88.2846 92.1407 90.472 93.8688 91.6261C95.2339 92.4279 96.796 92.8276 98.3767 92.7801H98.7824C101.713 92.7801 104.846 92.584 107.543 92.4407C111.299 92.237 115.169 91.8448 118.94 91.6411L111.788 66.5536L112.727 49.4766C121.149 52.0939 122.72 50.9399 127.979 70.7323C133.238 90.5248 134.741 93.5721 135.079 96.8985C135.417 100.225 134.598 104.336 126.063 105.279Z" fill="#FFA8A7"/>
<path d="M112.201 49.1975C115.12 49.1138 117.99 49.9619 120.398 51.6195C122.807 53.2771 124.63 55.6589 125.604 58.4224C128.362 66.0935 132.366 82.3031 133.576 87.7038C134.876 93.5495 136.363 101.862 135.079 103.174C132.231 106.056 129.669 105.822 124.26 106.116C119.353 106.387 101.547 104.871 101.547 104.871C101.547 104.871 104.62 99.7497 100.698 92.8027L118.399 91.4299C118.399 91.4299 111.592 69.797 111.465 69.5179C111.337 69.2388 106.386 58.1131 112.201 49.1975Z" fill="#D6D6D6"/>
<path d="M118.43 91.445C120.881 91.0551 123.379 91.0551 125.83 91.445C125.83 91.445 123.959 89.597 117.836 89.4386L118.43 91.445Z" fill="#BEBEBE"/>
</svg>
