<svg width="205" height="199" viewBox="0 0 205 199" fill="none" xmlns="http://www.w3.org/2000/svg">
<path d="M152.627 10.0519L150.377 9.59225L149.873 6.95886L149.373 9.59225L147.123 10.0562L149.362 10.6619L149.873 13.145L150.388 10.6619L152.627 10.0519Z" fill="#F9D669"/>
<path d="M155.292 110.714L153.042 110.25L152.538 107.621L152.039 110.25L149.788 110.714L152.027 111.319L152.538 113.807L153.053 111.319L155.292 110.714Z" fill="#F9D669"/>
<path d="M43.4346 94.7243L41.1842 94.2604L40.6846 91.6313L40.1811 94.2604L37.9308 94.7243L40.1695 95.33L40.6846 97.8174L41.1959 95.33L43.4346 94.7243Z" fill="#F9D669"/>
<path d="M174.235 123.185L172.98 122.927L172.698 121.453L172.419 122.927L171.16 123.185L172.411 123.524L172.698 124.912L172.984 123.524L174.235 123.185Z" fill="#F9D669"/>
<path d="M163.22 50.0211L161.965 49.7633L161.682 48.2941L161.403 49.7633L160.144 50.0211L161.395 50.3604L161.682 51.748L161.969 50.3604L163.22 50.0211Z" fill="#F9D669"/>
<path d="M119.988 14.1159L118.729 13.8581L118.451 12.3889L118.168 13.8581L116.913 14.1159L118.164 14.4552L118.451 15.8428L118.737 14.4552L119.988 14.1159Z" fill="#F9D669"/>
<path d="M52.8145 146.924L51.5557 146.666L51.2768 145.197L50.994 146.666L49.7353 146.928L50.9902 147.268L51.2768 148.655L51.5595 147.268L52.8145 146.924Z" fill="#F9D669"/>
<path d="M72.1182 53.3332L70.8594 53.0755L70.5766 51.6063L70.2978 53.0755L69.039 53.3332L70.29 53.6726L70.5766 55.0645L70.8632 53.6726L72.1182 53.3332Z" fill="#F9D669"/>
<path d="M32.8398 70.4138L31.5811 70.156L31.3022 68.6868L31.0194 70.156L29.7645 70.4181L31.0156 70.7574L31.3022 72.145L31.5888 70.7574L32.8398 70.4138Z" fill="#F9D669"/>
<path d="M50.7627 36.0723L49.5039 35.8145L49.225 34.3453L48.9423 35.8145L47.6874 36.0723L48.9384 36.4116L49.225 37.7992L49.5117 36.4116L50.7627 36.0723Z" fill="#F9D669"/>
<path d="M123.85 164.941L122.591 164.683L122.312 163.214L122.029 164.683L120.774 164.941L122.025 165.28L122.312 166.668L122.599 165.28L123.85 164.941Z" fill="#F9D669"/>
<path d="M34.0461 99.1663C33.9495 99.1663 33.8569 99.1238 33.7886 99.048C33.7204 98.9723 33.682 98.8696 33.682 98.7625C33.682 98.6554 33.7204 98.5527 33.7886 98.477C33.8569 98.4012 33.9495 98.3587 34.0461 98.3587C34.1426 98.3587 34.2352 98.4012 34.3035 98.477C34.3718 98.5527 34.4102 98.6554 34.4102 98.7625C34.4102 98.8696 34.3718 98.9723 34.3035 99.048C34.2352 99.1238 34.1426 99.1663 34.0461 99.1663Z" fill="#F9D669"/>
<path d="M132.739 115.869C132.663 115.84 132.597 115.785 132.55 115.712C132.504 115.639 132.478 115.552 132.478 115.463C132.478 115.374 132.504 115.286 132.55 115.214C132.597 115.141 132.663 115.086 132.739 115.057C132.83 115.067 132.914 115.114 132.975 115.189C133.036 115.264 133.069 115.362 133.069 115.463C133.069 115.564 133.036 115.661 132.975 115.736C132.914 115.811 132.83 115.858 132.739 115.869Z" fill="#F9D669"/>
<path d="M172.346 54.2268C172.269 54.1976 172.203 54.1428 172.157 54.07C172.11 53.9972 172.085 53.9101 172.085 53.8208C172.085 53.7315 172.11 53.6444 172.157 53.5716C172.203 53.4989 172.269 53.4441 172.346 53.4148C172.436 53.4252 172.52 53.4724 172.581 53.5474C172.642 53.6224 172.676 53.7198 172.676 53.8208C172.676 53.9218 172.642 54.0192 172.581 54.0942C172.52 54.1692 172.436 54.2164 172.346 54.2268Z" fill="#F9D669"/>
<path d="M48.6633 55.9065C48.5667 55.9065 48.4741 55.8639 48.4058 55.7882C48.3375 55.7125 48.2992 55.6098 48.2992 55.5027C48.2992 55.3956 48.3375 55.2929 48.4058 55.2171C48.4741 55.1414 48.5667 55.0989 48.6633 55.0989C48.7598 55.0989 48.8524 55.1414 48.9207 55.2171C48.989 55.2929 49.0273 55.3956 49.0273 55.5027C49.0273 55.6098 48.989 55.7125 48.9207 55.7882C48.8524 55.8639 48.7598 55.9065 48.6633 55.9065Z" fill="#F9D669"/>
<path d="M63.9544 56.8172C63.8855 56.8172 63.8195 56.7869 63.7709 56.7329C63.7222 56.6789 63.6949 56.6057 63.6949 56.5294C63.6949 56.4531 63.7222 56.3798 63.7709 56.3259C63.8195 56.2719 63.8855 56.2416 63.9544 56.2416C64.0232 56.2416 64.0892 56.2719 64.1379 56.3259C64.1865 56.3798 64.2139 56.4531 64.2139 56.5294C64.2139 56.6057 64.1865 56.6789 64.1379 56.7329C64.0892 56.7869 64.0232 56.8172 63.9544 56.8172Z" fill="#F9D669"/>
<path d="M96.0973 1.11212C96.0345 1.10356 95.9766 1.06978 95.9346 1.01716C95.8926 0.964537 95.8695 0.896704 95.8695 0.826446C95.8695 0.756188 95.8926 0.688357 95.9346 0.635735C95.9766 0.583114 96.0345 0.549335 96.0973 0.540768C96.1602 0.549335 96.2181 0.583114 96.2601 0.635735C96.302 0.688357 96.3252 0.756188 96.3252 0.826446C96.3252 0.896704 96.302 0.964537 96.2601 1.01716C96.2181 1.06978 96.1602 1.10356 96.0973 1.11212Z" fill="#F9D669"/>
<path d="M135.151 34.0575C135.088 34.0489 135.03 34.0151 134.988 33.9625C134.946 33.9099 134.923 33.8421 134.923 33.7718C134.923 33.7015 134.946 33.6337 134.988 33.5811C135.03 33.5285 135.088 33.4947 135.151 33.4861C135.214 33.4947 135.272 33.5285 135.314 33.5811C135.356 33.6337 135.379 33.7015 135.379 33.7718C135.379 33.8421 135.356 33.9099 135.314 33.9625C135.272 34.0151 135.214 34.0489 135.151 34.0575Z" fill="#F9D669"/>
<path d="M73.9623 4.75935C73.7859 4.74478 73.621 4.65676 73.5006 4.51295C73.3803 4.36913 73.3134 4.18016 73.3134 3.98394C73.3134 3.78772 73.3803 3.59875 73.5006 3.45494C73.621 3.31113 73.7859 3.22311 73.9623 3.20853C74.1388 3.22311 74.3037 3.31113 74.4241 3.45494C74.5444 3.59875 74.6113 3.78772 74.6113 3.98394C74.6113 4.18016 74.5444 4.36913 74.4241 4.51295C74.3037 4.65676 74.1388 4.74478 73.9623 4.75935Z" fill="#F9D669"/>
<path d="M147.293 76.7244C147.117 76.7099 146.952 76.6218 146.832 76.478C146.711 76.3342 146.644 76.1453 146.644 75.949C146.644 75.7528 146.711 75.5638 146.832 75.42C146.952 75.2762 147.117 75.1882 147.293 75.1736C147.47 75.1882 147.635 75.2762 147.755 75.42C147.875 75.5638 147.942 75.7528 147.942 75.949C147.942 76.1453 147.875 76.3342 147.755 76.478C147.635 76.6218 147.47 76.7099 147.293 76.7244Z" fill="#F9D669"/>
<g clip-path="url(#clip0_477_516)">
<path d="M9 231.986L23.1971 186.168L49.0496 190.733C49.0496 190.733 36.1313 241.743 30.2958 246.582C24.4602 251.435 9 231.969 9 231.969V231.986Z" fill="#FDBFAE"/>
<path d="M168.927 309.445C167.743 293.65 163.059 248.022 162.93 198.455C162.93 197.061 163.075 195.7 163.202 194.354C164.418 180.593 167.44 170.227 169.646 161.095C172.092 150.971 173.498 142.352 170.286 132.275C167.647 124.025 163.363 119.683 158.023 116.976C157.543 116.736 157.063 116.511 156.568 116.303C149.709 113.291 141.332 112.554 132.649 109.783C128.652 108.501 124.608 106.803 120.595 104.24C100.243 91.247 89.195 104.24 89.195 104.24C89.195 104.24 85.9654 104.944 81.4248 106.13C79.6023 106.611 77.5558 107.155 75.4134 107.764C74.9818 107.892 74.5341 108.02 74.1025 108.148C66.8439 110.279 58.8819 113.067 54.981 115.886C49.5771 119.795 48.1701 138.107 47.7865 157.54C47.7865 158.02 47.7865 158.5 47.7544 158.982C47.7225 160.648 47.7064 162.329 47.6904 163.995C47.6585 166.51 47.6426 169.026 47.6426 171.525V173.159C47.6264 179.423 47.6426 185.43 47.5467 190.702C47.5467 191.295 47.5305 191.871 47.5146 192.447C47.4667 195.492 49.0494 198.633 48.9056 201.019C48.8417 202.043 48.4579 224.2 48.378 225.081C47.4667 234.454 43.0061 287.642 40.1123 300.602C77.316 309.108 113.977 309.3 168.927 309.462V309.445Z" fill="#969AFF"/>
<g opacity="0.6">
<path d="M168.927 309.445C167.743 293.65 163.059 248.022 162.93 198.455C162.93 197.061 163.075 195.7 163.202 194.354C164.418 180.593 167.44 170.227 169.646 161.095C172.092 150.971 173.498 142.352 170.286 132.275C167.647 124.025 163.363 119.683 158.023 116.976C157.543 116.736 157.063 116.511 156.568 116.303C149.709 113.291 141.332 112.554 132.649 109.783C128.652 108.501 124.608 106.803 120.595 104.24C100.243 91.247 89.195 104.24 89.195 104.24C89.195 104.24 85.9654 104.944 81.4248 106.13C79.6023 106.611 77.5558 107.155 75.4134 107.764C74.9818 107.892 74.5341 108.02 74.1025 108.148C66.8439 110.279 58.8819 113.067 54.981 115.886C49.5771 119.795 48.1701 138.107 47.7865 157.54C47.7865 158.02 47.7865 158.5 47.7544 158.982C47.7225 160.648 47.7064 162.329 47.6904 163.995C47.6585 166.51 47.6426 169.026 47.6426 171.525V173.159C47.6264 179.423 47.6426 185.43 47.5467 190.702C47.5467 191.295 47.5305 191.871 47.5146 192.447C47.4667 195.492 49.0494 198.633 48.9056 201.019C48.8417 202.043 48.4579 224.2 48.378 225.081C47.4667 234.454 43.0061 287.642 40.1123 300.602C77.316 309.108 113.977 309.3 168.927 309.462V309.445Z" fill="#7F5DE2"/>
</g>
<path d="M51.6067 197.094L20.1426 187.817C20.1426 187.817 34.5478 124.009 54.9801 115.886C75.4286 107.764 51.6067 197.094 51.6067 197.094Z" fill="#969AFF"/>
<path opacity="0.6" d="M51.6067 197.094L20.1426 187.817C20.1426 187.817 34.5478 124.009 54.9801 115.886C75.4286 107.764 51.6067 197.094 51.6067 197.094Z" fill="#7F5DE2"/>
<path d="M115.72 109.174C115.72 109.174 113.065 97.8472 117.926 77.3411C117.926 77.3251 116.838 76.8926 116.838 76.8764C117.509 74.0089 118.245 71.3494 118.932 69.0426C118.932 68.9784 118.932 68.9463 118.932 68.9463L92.1532 87.3859C93.1125 93.8262 91.4017 106.434 90.2825 111.769C90.2825 111.769 87.2609 121.493 99.9713 121.301C109.26 121.157 115.687 109.158 115.687 109.158L115.72 109.174Z" fill="#FDBFAE"/>
<path d="M106.575 92.048C103.249 95.8608 97.4938 97.9915 92.2019 98.1037C92.2818 97.6392 92.2657 96.9182 92.3137 96.4536C92.4096 95.7167 92.3936 94.5792 92.4417 93.8102C92.4895 92.865 92.5057 91.8236 92.4417 90.8305C92.3936 90.4459 92.2338 90.494 92.1859 90.1096L92.0898 89.3085L108.11 83.8616C109.405 84.8067 109.229 88.9561 106.559 92.048H106.575Z" fill="black"/>
<path d="M128.253 52.6697C132.091 35.4316 117.158 19.5714 99.3162 23.7207C81.2179 27.9341 74.7269 53.3744 75.974 69.6033C77.3489 87.6422 97.5255 99.0328 112.858 87.7063C123.058 80.1767 124.418 69.8916 128.253 52.6697Z" fill="#FDBFAE"/>
<path d="M112.811 58.7895C115.608 62.0416 118.022 58.7415 124.657 55.2008C125.569 54.7202 126.576 54.3358 127.967 54.2877C126.401 60.055 124.898 64.8292 123.682 68.2736C123.315 69.2988 122.931 70.2441 122.5 71.1091C127.648 64.9093 130.158 55.2329 132.027 51.9007C132.412 51.2278 132.7 50.571 132.939 49.9462C132.843 49.7059 132.732 49.4815 132.62 49.2573C132.14 48.28 134.938 49.7059 134.25 48.8728C133.164 47.5591 131.837 46.4376 130.349 45.4605C125.569 42.2885 120.198 40.8787 115.641 40.1257C115.177 45.6047 110.509 56.114 112.795 58.7734L112.811 58.7895Z" fill="#263238"/>
<path d="M133.049 65.1977C131.178 69.7475 127.389 72.9996 123.632 74.4735C117.973 76.6843 116.486 70.5806 117.492 64.8934C118.404 59.7668 120.467 53.6149 126.414 53.8393C132.266 54.0475 135.191 59.991 133.049 65.2138V65.1977Z" fill="#FDBFAE"/>
<path d="M103.361 56.4825C103.201 58.2768 102.13 59.6385 100.947 59.5264C99.78 59.4142 98.9487 57.8603 99.1086 56.066C99.2684 54.2717 100.34 52.91 101.523 53.0221C102.69 53.1343 103.521 54.6883 103.361 56.4825Z" fill="#263238"/>
<path d="M85.9835 55.3132C85.8237 57.1073 84.7524 58.4691 83.5692 58.3571C82.4022 58.2449 81.5708 56.6909 81.7306 54.8966C81.8905 53.1022 82.9618 51.7405 84.1449 51.8527C85.312 51.9649 86.1434 53.5189 85.9835 55.3132Z" fill="#263238"/>
<path d="M91.1443 53.1504C91.1443 53.1504 84.6852 61.5771 82.543 65.0536C84.8451 67.5367 89.2258 66.88 89.2258 66.88L91.1443 53.1664V53.1504Z" fill="#C0877D"/>
<path d="M107.964 46.7743C107.678 46.8544 107.357 46.8064 107.134 46.5821C104.432 44.0668 101.618 44.6275 101.314 44.7076C100.866 44.8198 100.403 44.5315 100.291 44.0828C100.179 43.6342 100.451 43.1697 100.898 43.0735C101.058 43.0414 104.847 42.1764 108.269 45.3644C108.604 45.6848 108.637 46.2136 108.317 46.55C108.221 46.6622 108.093 46.7423 107.95 46.7743H107.964Z" fill="#263238"/>
<path opacity="0.2" d="M120.579 64.9256C120.579 64.9256 120.531 64.9256 120.499 64.9256C120.276 64.8776 120.147 64.6692 120.18 64.445C120.515 62.8268 121.267 61.3049 122.353 60.0714C123.089 59.2383 124.304 58.1809 125.888 57.9406C127.438 57.7003 129.006 58.3893 129.693 59.6227C129.805 59.815 129.724 60.0553 129.533 60.1675C129.341 60.2797 129.1 60.1996 128.989 60.0073C128.478 59.0781 127.215 58.5334 126.015 58.7257C124.657 58.9339 123.6 59.863 122.962 60.6001C121.954 61.7375 121.267 63.1313 120.979 64.6052C120.947 64.7975 120.771 64.9256 120.579 64.9256Z" fill="black"/>
<path d="M78.1322 45.3647C77.9724 45.3165 77.8444 45.2205 77.7326 45.0924C77.4447 44.7239 77.4927 44.1951 77.8444 43.9068C81.4257 40.943 85.1189 42.1125 85.2947 42.1445C85.7424 42.2888 85.9823 42.7694 85.8383 43.202C85.6944 43.6505 85.2309 43.8908 84.7991 43.7466C84.6552 43.6985 81.7935 42.8174 78.9157 45.2045C78.6918 45.3966 78.404 45.4448 78.1322 45.3647Z" fill="#263238"/>
<path d="M118.293 72.8713C117.174 71.6698 116.6 70.0357 116.342 68.4017C115.784 64.7651 116.71 60.9202 118.885 57.9564L112.809 58.7895C112.809 58.7895 111.963 66.2549 107.038 66.9438C102.114 67.6487 100.595 65.8865 96.5659 66.7196C92.537 67.5527 92.1054 69.8275 92.1054 69.8275C92.1054 69.8275 88.8598 68.3697 85.998 68.9624C83.1202 69.5552 77.6364 72.2466 76.6291 73.6885C75.6218 75.1303 74.9024 79.1994 77.8442 79.7762C76.6291 79.9685 75.1262 82.9162 75.2221 84.1338C75.3182 85.3513 76.1655 86.4247 77.2047 87.0815C75.9577 88.1389 75.6059 90.1094 76.4053 91.5512C77.2047 92.977 79.0753 93.6979 80.6261 93.1692C80.2904 94.4028 80.786 95.7646 81.6813 96.6778C82.5765 97.591 83.7918 98.1196 85.0228 98.4239C87.293 98.9687 89.7392 98.8244 91.9296 98.0074C92.537 99.1289 94.0399 99.3531 95.319 99.4332C97.6532 99.5934 100.051 99.7216 102.274 99.0007C104.496 98.2798 106.527 96.4855 106.829 94.1625C108.845 93.8421 110.922 93.4416 112.603 92.2881C114.281 91.1346 115.463 89.02 114.968 87.0334C114.872 86.665 114.729 86.2645 114.888 85.928C114.999 85.7038 115.208 85.5595 115.416 85.4314C119.174 82.9002 121.875 78.831 122.77 74.3933C121.171 74.8259 119.429 74.1211 118.309 72.9034L118.293 72.8713Z" fill="#263238"/>
<path d="M98.7908 69.347C98.7908 69.347 95.9928 72.3108 90.1572 73.8488C90.1572 73.8488 92.2677 77.5816 95.929 76.2679C100.358 74.6658 98.7908 69.347 98.7908 69.347Z" fill="#FAFAFA"/>
<path d="M115.175 27.5498C115.271 27.614 115.365 27.6781 115.447 27.7742C115.733 28.1105 115.733 28.5912 115.733 29.0237C115.686 33.1251 115.637 37.2262 115.59 41.3274C115.59 42.2567 115.59 43.2179 115.925 44.067C116.516 45.5088 118.004 46.3419 119.395 47.0308C122.656 48.6167 126.062 49.8824 129.548 50.8276C131.163 51.2601 132.825 51.6287 134.487 51.4043C135.287 51.2921 136.039 51.0518 136.758 50.7314C139.124 49.6421 138.852 46.2457 136.421 45.3006H136.374C134.536 44.5476 132.729 42.8975 132.009 41.0552C131.194 38.9725 132.745 37.5626 132.649 33.7498C132.553 30.4817 130.858 27.0692 127.053 25.3231C124.079 23.9614 120.466 24.0094 117.205 23.737" fill="#263238"/>
<path d="M117.175 22.3753C113.258 17.521 106.718 14.9097 100.547 15.7268C96.854 16.2234 93.2408 17.8575 89.5317 17.3928C87.9008 17.2005 86.3501 16.6079 84.7993 16.0952C83.792 15.7587 82.7368 15.4704 81.6817 15.5024C80.6264 15.5505 79.5233 15.9831 78.9157 16.8482C78.3081 17.7293 78.3721 19.075 79.2036 19.7319C78.2922 18.9628 77.3329 18.1618 76.1818 17.8575C73.7037 17.2167 71.0336 19.3153 70.6501 21.8626C70.2663 24.3938 71.8011 26.9891 73.9914 28.3028C72.7764 28.5111 71.5294 27.678 70.3303 27.9663C69.195 28.2227 68.4756 29.4562 68.4756 30.6258C68.4756 31.7952 69.0672 32.8846 69.7867 33.7978C72.7763 37.5947 77.8446 38.9883 82.5929 39.8535C85.5188 40.3982 88.5084 40.8307 91.4662 40.5744C95.3832 40.254 99.1244 38.7641 102.658 37.034C108.94 33.974 115.145 29.8407 118.246 23.5768L117.175 22.3432V22.3753Z" fill="#263238"/>
<g opacity="0.3">
<path d="M127.63 49.2573C126.432 48.3441 125.616 46.9344 125.441 45.4284C124.913 46.3575 125.009 47.5752 124.353 48.4083C123.603 49.3855 122.18 49.4656 120.947 49.3855C119.845 49.3054 118.629 49.1131 117.878 48.2961C117.255 47.6232 117.079 46.678 116.903 45.7649C116.615 44.1629 116.392 43.586 116.104 41.9681C116.455 43.8104 116.2 47.7033 116.76 49.4976C117.318 51.292 118.277 51.6764 119.957 52.4935C121.043 53.0221 122.818 52.4774 124.034 52.4935C125.6 52.5095 127.166 52.4134 128.702 52.189C129.998 51.9968 131.484 51.5482 131.883 50.2987C130.397 50.539 128.814 50.1544 127.614 49.2412L127.63 49.2573Z" fill="black"/>
</g>
<path d="M110.524 241.534L166.562 217.632L162.102 188.17L190.799 176.139C190.799 176.139 199.993 219.651 193.757 233.22C187.505 246.79 116.983 258.213 116.983 258.213L110.524 241.518V241.534Z" fill="#FDBFAE"/>
<path d="M157.095 196.293L196.952 177.949C196.952 177.949 170.141 116.351 155.065 116.191C139.989 116.031 150.588 172.967 157.095 196.309V196.293Z" fill="#969AFF"/>
<path opacity="0.6" d="M157.095 196.293L196.952 177.949C196.952 177.949 170.141 116.351 155.065 116.191C139.989 116.031 150.588 172.967 157.095 196.309V196.293Z" fill="#7F5DE2"/>
<path opacity="0.3" d="M48.9374 200.106L50.584 146.357L40.1279 193.698L47.946 196.021L48.9374 200.106Z" fill="black"/>
<path opacity="0.3" d="M149.214 157.86C149.214 157.86 148.736 205.296 155.002 208.212L162.996 205.969L163.205 194.37L157.096 196.309L149.214 157.877V157.86Z" fill="black"/>
</g>
<defs>
<clipPath id="clip0_477_516">
<rect width="205" height="196" fill="white" transform="translate(0 2.5)"/>
</clipPath>
</defs>
</svg>
