<svg width="180" height="174" viewBox="0 0 180 174" fill="none" xmlns="http://www.w3.org/2000/svg">
<g clip-path="url(#clip0_1797_2026)">
<path d="M45.4839 184.854C65.2615 172.583 97.33 172.583 117.108 184.854C126.991 190.996 131.891 199.044 131.891 207.082V216.958C131.891 225.006 126.959 233.055 117.108 239.196C97.33 251.468 65.2615 251.468 45.4839 239.196C35.5899 233.055 30.7009 225.006 30.7009 216.958V207.082C30.6587 199.044 35.5899 190.996 45.4839 184.854Z" fill="#969AFF"/>
<path d="M60.1367 -71.4943L55.0155 -74.6842L-83.3326 11.193L-78.2113 14.3715L60.1367 -71.4943Z" fill="#969AFF"/>
<path opacity="0.2" d="M60.1367 -71.4943L55.0155 -74.6842L-83.3326 11.193L-78.2113 14.3715L60.1367 -71.4943Z" fill="black"/>
<path d="M52.1361 57.657C48.7878 54.0572 48.7878 48.2209 52.1361 44.6212C55.4845 41.0214 60.913 41.0214 64.2614 44.6212C67.6108 48.2209 67.6108 54.0572 64.2614 57.657C60.913 61.2567 55.4845 61.2567 52.1361 57.657Z" fill="#969AFF"/>
<path d="M44.5338 179.36C45.6847 174.294 47.4418 169.41 49.7606 164.83C65.9058 173.083 82.1139 172.844 98.3858 167.236C97.6995 170.699 103.074 173.582 117.657 181.994C128.026 187.67 139.113 194.719 144.963 200.861C147.972 204.028 148.131 207.502 146.631 217.684C144.625 231.465 136.378 281.902 136.378 281.902C125.323 286.125 119.631 279.109 119.631 279.109C119.631 279.109 117.899 260.719 116.463 245.894C115.699 236.625 117.066 227.296 120.444 218.729C120.444 218.729 86.8762 210.521 74.3423 207.74C53.4458 203.086 41.7884 200.214 44.5338 179.36Z" fill="#37474F"/>
<path d="M44.5012 179.621C44.5065 179.522 44.5065 179.425 44.5012 179.326C45.6522 174.26 47.4093 169.376 49.7281 164.796C65.8733 173.049 82.0817 172.81 98.3536 167.202C98.0579 170.608 100.001 171.209 99.1667 175.648C97.8036 183.246 93.887 190.039 88.1639 194.731C97.889 204.947 111.088 219.512 117.075 227.47C118.733 229.683 120.338 234.281 119.367 240.615C117.255 254.385 109.103 304.833 109.103 304.833C98.0157 308.023 93.2007 303.402 93.2007 303.402C93.2007 303.402 90.6242 283.65 89.2198 268.825C88.4554 259.556 89.8225 250.227 93.2007 241.659C93.2007 241.659 73.93 230.773 62.3148 222.793C44.2267 210.328 40.5098 196.592 44.5012 179.621Z" fill="#455A64"/>
<path d="M102.039 105.3C104.151 111.544 107.826 138.141 108.871 145.759C109.051 147.096 109.566 148.355 110.36 149.402C111.732 151.219 114.499 154.863 119.694 161.765C122.925 166.056 126.336 171.357 128.817 174.797C136.262 185.138 136.927 192.108 135.28 198.102C132.555 208.046 127.033 205.027 124.573 197.342C123.572 194.114 122.15 191.057 120.349 188.26C120.478 189.949 120.389 191.649 120.085 193.312C119.42 195.979 117.487 196.502 116.579 196.331C115.872 196.184 116.326 194.333 115.597 191.302C114.541 186.977 113.813 185.377 113.982 179.769C114.019 178.707 113.713 177.664 113.116 176.817C108.734 170.801 103.824 165.465 99.6315 160.72C96.5241 157.173 94.5107 152.682 93.8661 147.859L86.8548 95.6398C93.2326 95.9463 99.3359 97.0929 102.039 105.3Z" fill="#FFA8A7"/>
<path d="M49.159 100.76L65.3781 96.3777L78.4818 95.2425L85.8733 95.6285C91.4486 104.71 109.579 118.196 98.6502 138.414C97.5204 147.053 98.1117 157.179 98.4284 167.225C84.1417 173.434 69.5913 178.679 49.8032 164.818C51.8305 160.607 54.9667 158.745 54.6076 153.864L48.2721 135.303C48.2721 135.303 60.5314 123.509 49.159 100.76Z" fill="#FFA8A7"/>
<path d="M51.818 160.459C52.7789 158.813 54.7535 156.293 54.5634 153.841L50.4347 141.706L53.4441 128.084C53.8739 125.901 54.7271 123.839 55.9467 122.033C57.9403 114.475 58.0638 106.489 56.3057 98.8638L60.7934 97.6264C65.9126 109.042 74.6837 118.093 85.5027 123.123L85.7773 122.601C86.6854 120.569 88.9978 111.725 82.3877 95.356L86.9282 95.5377C86.9282 95.5377 100.328 110.692 102.345 117.356C103.654 121.704 105.249 129.627 99.177 139.05C98.9869 144.158 99.177 147.734 99.0186 157.621C98.9376 160.467 99.086 163.316 99.4621 166.135C100.011 170.438 101.352 188.044 72.303 183.821C62.8324 182.321 53.7324 178.808 45.5352 173.491C47.2881 168.966 49.3894 164.607 51.818 160.459Z" fill="#969AFF"/>
<path opacity="0.1" d="M83.4014 139.243C83.4014 139.243 78.7869 144.975 69.3575 142.875C59.928 140.775 58.323 132.988 58.323 132.988C58.323 132.988 57.3938 142.875 68.6711 145.338C79.7901 147.768 83.4014 139.243 83.4014 139.243Z" fill="black"/>
<path d="M69.9392 28.516C85.0915 27.5851 96.9812 35.4747 97.8154 52.6388C98.4806 66.2611 85.4505 84.5944 75.3664 84.7874L70.5517 85.0939C63.9099 85.5031 57.3895 83.0603 52.4234 78.3026C47.4574 73.5448 44.4522 66.8617 44.0689 59.7224C43.8556 55.8459 44.3572 51.9624 45.543 48.2944C46.7288 44.6265 48.5767 41.2461 50.98 38.3472C53.3822 35.4483 56.2945 33.0876 59.5478 31.4006C62.8011 29.7135 66.3322 28.7333 69.9392 28.516Z" fill="#263238"/>
<path d="M41.2816 43.9546C45.7377 48.6883 50.2993 45.3849 55.0087 40.2993C59.7182 35.2136 62.6959 30.2755 58.2504 25.5418C53.805 20.808 46.3923 21.0918 41.7146 26.1775C37.0368 31.2631 36.8256 39.2208 41.2816 43.9546Z" fill="#263238"/>
<path d="M59.9184 31.161C60.8159 31.3582 61.7494 31.1641 62.5139 30.6211C63.2784 30.0782 63.8116 29.2312 63.9943 28.2663C64.178 27.3013 63.9975 26.2976 63.4927 25.4758C62.9869 24.6541 62.1992 24.0816 61.3017 23.8844L59.9184 31.161Z" fill="#263238"/>
<path d="M52.9373 66.7946C53.5434 66.0777 54.2994 65.5261 55.1431 65.1854C55.9879 64.8448 56.8949 64.7251 57.7903 64.836C58.6858 64.9469 59.5442 65.2853 60.2939 65.8233C61.0437 66.3612 61.6635 67.0833 62.1028 67.9298C62.1028 67.9298 64.0985 63.9226 70.4974 60.6873C79.3668 56.226 83.3054 50.5841 87.2124 42.8535C89.9684 45.0557 95.4381 50.9133 95.5753 67.3395C95.6915 81.3024 92.1436 85.2188 90.1162 86.4107C88.0888 87.6027 83.9812 87.353 79.9687 87.0124L80.3488 95.5263C80.3488 95.5263 87.677 106.708 84.826 114.586C71.2788 111.862 63.391 97.6378 63.391 97.6378L61.976 78.3395C61.976 78.3395 59.8642 80.9845 55.6405 77.6357C52.1242 74.8431 50.6142 69.7915 52.9373 66.7946Z" fill="#FFA8A7"/>
<path opacity="0.4" d="M68.6923 71.5738C68.6902 72.4054 68.9172 73.2191 69.3459 73.9116C69.7746 74.6041 70.385 75.1441 71.0988 75.4634C71.8136 75.7827 72.5992 75.8669 73.3585 75.7052C74.1177 75.5434 74.8145 75.1432 75.3616 74.5551C75.9086 73.967 76.2809 73.2175 76.4313 72.4018C76.5817 71.5859 76.5035 70.7404 76.2064 69.9726C75.9095 69.2046 75.4071 68.5487 74.763 68.0881C74.1187 67.6274 73.3616 67.3827 72.5887 67.3849C71.556 67.3879 70.5666 67.8303 69.8359 68.6151C69.1062 69.4 68.6944 70.4638 68.6923 71.5738Z" fill="#F28F8F"/>
<path opacity="0.4" d="M95.4831 71.6873C95.1405 71.7975 94.7849 71.8549 94.4272 71.8576C93.9303 71.8863 93.4329 71.8058 92.9658 71.6211C92.4986 71.4364 92.0715 71.1514 91.7102 70.7832C91.3489 70.4152 91.0612 69.9719 90.8646 69.4803C90.668 68.9887 90.5665 68.4593 90.5665 67.9242C90.5665 67.389 90.668 66.8596 90.8646 66.368C91.0612 65.8764 91.3489 65.4331 91.7102 65.0651C92.0715 64.6969 92.4986 64.4119 92.9658 64.2272C93.4329 64.0425 93.9303 63.962 94.4272 63.9907C94.7858 63.9929 95.1419 64.0541 95.4831 64.1723C95.4831 65.1827 95.5466 66.2157 95.5571 67.3055C95.5888 68.9061 95.557 70.3818 95.4831 71.6873Z" fill="#F28F8F"/>
<path d="M79.9719 86.9783C75.7481 86.774 69.7506 86.8875 66.9207 82.7895C66.9207 82.7895 66.9207 84.9236 69.6555 87.0464C72.3904 89.1692 80.1514 89.7709 80.1514 89.7709L79.9719 86.9783Z" fill="#F28F8F"/>
<path d="M62.1038 67.8958L63.3498 73.0495C64.392 72.7301 65.28 71.9923 65.8301 70.9886C66.3803 69.985 66.5503 68.7923 66.3064 67.6574L64.5324 59.4272L60.6466 60.8122L62.1038 67.8958Z" fill="#263238"/>
<path d="M78.9652 75.774L83.6641 77.0114C83.6028 77.3498 83.4789 77.6715 83.2995 77.9572C83.1199 78.2429 82.8888 78.4869 82.6197 78.6744C82.3507 78.8619 82.0492 78.9892 81.7334 79.0488C81.4175 79.1083 81.0937 79.0986 80.7814 79.0206C80.1474 78.8361 79.6044 78.395 79.2659 77.79C78.9275 77.1849 78.8197 76.4626 78.9652 75.774Z" fill="#B16668"/>
<path d="M83.4751 61.3684L84.4572 72.5387L89.8213 70.3137L83.4751 61.3684Z" fill="#D57474"/>
<path d="M79.3359 62.9463C79.0339 62.2091 78.5177 61.597 77.8646 61.202C77.2116 60.8069 76.457 60.6503 75.7141 60.7554C75.0017 60.7309 74.3034 60.9734 73.7391 61.4414C73.1742 61.9094 72.7792 62.5739 72.6198 63.3209C73.0284 63.9069 73.5627 64.378 74.1763 64.6943C74.7904 65.0106 75.4665 65.1626 76.147 65.1372C76.798 65.0546 77.423 64.8146 77.9753 64.4351C78.5276 64.0557 78.9928 63.5467 79.3359 62.9463Z" fill="#F28F8F"/>
<path d="M79.3359 62.9463C79.1574 63.7239 78.7359 64.412 78.1419 64.8955C77.548 65.3789 76.8178 65.6287 76.0731 65.6027C75.3416 65.7168 74.596 65.5523 73.9651 65.1377C73.3347 64.723 72.8584 64.0844 72.6198 63.3323C73.5891 64.1608 74.8073 64.58 76.044 64.511C77.2808 64.4421 78.4515 63.8896 79.3359 62.9577V62.9463Z" fill="#263238"/>
<path d="M72.6208 63.3209C72.3548 63.3731 72.0823 63.3647 71.8204 63.2962C71.5586 63.2277 71.3136 63.1008 71.1003 62.9236C71.1003 62.9236 71.2576 64.5583 73.3906 64.354L72.6208 63.3209Z" fill="#263238"/>
<path d="M93.7598 60.5624C93.3771 59.8728 92.8011 59.3312 92.1144 59.0152C91.4278 58.699 90.6657 58.6248 89.9374 58.8029C89.2236 58.845 88.5474 59.1598 88.0304 59.6905C87.5135 60.2213 87.1899 60.9331 87.118 61.6976C87.5812 62.2342 88.1583 62.6426 88.8 62.8877C89.4416 63.1327 90.1289 63.2074 90.8033 63.1053C91.4434 62.9507 92.0422 62.6413 92.5545 62.2008C93.0669 61.7602 93.479 61.1999 93.7598 60.5624Z" fill="#F28F8F"/>
<path d="M93.7598 60.5624C93.6798 61.3324 93.3464 62.0462 92.8197 62.575C92.293 63.1038 91.6077 63.4127 90.8876 63.4458C90.168 63.6562 89.4033 63.5977 88.7185 63.2802C88.0339 62.9626 87.4696 62.4047 87.118 61.6976C88.16 62.4163 89.4124 62.6952 90.6343 62.4809C91.859 62.2731 92.9707 61.5907 93.7598 60.5624Z" fill="#263238"/>
<path d="M93.7591 60.5965C94.0306 60.5981 94.2992 60.537 94.5469 60.4176C94.7946 60.2982 95.0157 60.123 95.1952 59.904C95.1952 59.904 95.3113 61.55 93.1889 61.7657L93.7591 60.5965Z" fill="#263238"/>
<path d="M92.6527 55.1476L88.429 54.7616C88.4394 54.4632 88.5062 54.1701 88.6252 53.9002C88.7442 53.6303 88.913 53.3893 89.1215 53.1918C89.3299 52.9944 89.5735 52.8444 89.8375 52.7513C90.1015 52.6582 90.3802 52.6238 90.657 52.6502C91.2236 52.7133 91.7462 53.0073 92.1173 53.4718C92.4885 53.9363 92.68 54.5359 92.6527 55.1476Z" fill="#263238"/>
<path d="M27.8601 156.282C29.5707 147.813 33.1397 133.26 36.6982 118.173C40.5629 101.861 44.1425 101.713 53.4453 99.8741C62.7797 104.971 53.4453 130.524 53.4453 130.524L45.4836 160.164C50.5098 169.756 54.6702 179.769 60.5095 187.329C61.5126 188.623 63.3182 188.578 64.881 188.76C69.1047 189.236 70.6569 190.19 74.3213 191.654C77.1829 192.789 79.0415 192.483 79.0943 193.3C79.1682 194.345 78.4607 196.468 75.7892 196.922C74.1394 197.09 72.4753 197.006 70.847 196.672C73.3992 198.984 76.2435 200.895 79.2948 202.348C86.4962 205.935 88.8509 212.474 78.883 214.472C72.8638 215.675 66.1587 214.176 56.8876 204.698C52.9289 200.662 49.287 196.28 46.001 191.598C37.7119 179.36 26.783 163.377 27.8601 156.282Z" fill="#FFA8A7"/>
<path d="M50.3607 37.3137C50.3607 37.3137 50.1601 31.9329 52.6204 31.7399C55.0808 31.5469 57.5411 33.84 57.0342 35.2363C56.5274 36.6326 53.3385 38.7213 53.3385 38.7213C53.3385 38.7213 58.2591 37.5067 58.0585 40.3787C57.8579 43.2508 56.8547 44.1589 55.387 43.9092C53.9192 43.6594 51.9552 41.6388 51.9552 41.6388C51.9552 41.6388 54.3627 45.0444 53.4441 46.4974C52.5254 47.9504 49.7272 48.7678 48.7557 47.4283C47.7843 46.0887 49.2309 42.0588 49.2309 42.0588C49.2309 42.0588 47.1718 46.0093 45.4823 44.7833C44.7992 44.3527 44.2395 43.7271 43.8668 42.9756C43.494 42.2242 43.323 41.3763 43.3705 40.5263C43.5078 39.1981 48.7241 39.1073 48.7241 39.1073C48.7241 39.1073 43.2332 38.5851 43.9512 36.1331C44.6693 33.6811 46.8867 31.4902 48.175 31.8761C49.4632 32.2621 50.3607 37.3137 50.3607 37.3137Z" fill="#FAFAFA"/>
<path d="M50.7629 41.6956C49.7598 41.6956 48.9467 40.8214 48.9467 39.743C48.9467 38.6647 49.7598 37.7905 50.7629 37.7905C51.765 37.7905 52.5791 38.6647 52.5791 39.743C52.5791 40.8214 51.765 41.6956 50.7629 41.6956Z" fill="#969AFF"/>
</g>
<defs>
<clipPath id="clip0_1797_2026">
<rect width="179.508" height="173.684" fill="white" transform="matrix(-1 0 0 1 179.754 0)"/>
</clipPath>
</defs>
</svg>
