<svg width="193" height="194" viewBox="0 0 193 194" fill="none" xmlns="http://www.w3.org/2000/svg">
<g clip-path="url(#clip0_1797_1919)">
<path d="M-2295.41 -1035.1H718.818V-1036.82H-2295.41V-1035.1ZM719.676 -1034.24V2855.78H721.391V-1034.24H719.676ZM718.818 2856.64H-2295.41V2858.35H718.818V2856.64ZM-2296.27 2855.78V-1034.24H-2297.99V2855.78H-2296.27ZM-2295.41 2856.64C-2295.88 2856.64 -2296.27 2856.25 -2296.27 2855.78H-2297.99C-2297.99 2857.2 -2296.84 2858.35 -2295.41 2858.35V2856.64ZM719.676 2855.78C719.676 2856.25 719.292 2856.64 718.818 2856.64V2858.35C720.24 2858.35 721.391 2857.2 721.391 2855.78H719.676ZM718.818 -1035.1C719.292 -1035.1 719.676 -1034.72 719.676 -1034.24H721.391C721.391 -1035.67 720.24 -1036.82 718.818 -1036.82V-1035.1ZM-2295.41 -1036.82C-2296.84 -1036.82 -2297.99 -1035.67 -2297.99 -1034.24H-2296.27C-2296.27 -1034.72 -2295.88 -1035.1 -2295.41 -1035.1V-1036.82Z" fill="white" fill-opacity="0.1"/>
<path d="M45.817 19.1348C44.5699 19.2986 43.395 19.876 42.4436 20.7928C41.4921 21.7095 40.8075 22.9237 40.4778 24.2793C40.3944 24.9598 40.1902 25.6148 39.8772 26.2057C39.3967 26.9075 38.5424 27.1241 37.875 27.4825C36.9088 28.0015 36.107 28.8377 35.5765 29.8795C35.0458 30.9214 34.8117 32.1194 34.9051 33.3138C33.3901 33.7768 31.7949 34.2994 30.7405 35.5986C29.686 36.8978 29.4991 39.2423 30.7872 40.2503C28.4446 42.1169 28.3112 46.5521 30.5269 48.5979C29.1429 49.4204 28.0108 50.6879 27.2769 52.2371C26.5429 53.7862 26.2406 55.5459 26.409 57.289C24.9675 57.7743 23.4191 58.3418 22.5514 59.7231C21.6839 61.1044 22.0576 63.5086 23.5393 63.8297C23.089 64.7118 22.939 65.7464 23.1168 66.7425C23.2946 67.7388 23.7884 68.6294 24.507 69.2504C24.0979 69.5168 23.7485 69.884 23.4851 70.324C23.2218 70.7641 23.0515 71.2653 22.9872 71.79C22.9229 72.3146 22.9663 72.8487 23.1139 73.3518C23.2616 73.8549 23.5098 74.3137 23.8396 74.6935C24.2137 75.0172 24.6489 75.2411 25.1119 75.3482C25.575 75.4553 26.0538 75.4429 26.5121 75.3119C26.9702 75.1808 27.3957 74.9347 27.7559 74.5921C28.1163 74.2495 28.402 73.8194 28.5915 73.3346C28.8002 74.3129 29.2248 75.217 29.8263 75.9644C30.428 76.7118 31.1874 77.2786 32.0352 77.613C31.5096 78.8491 31.3286 80.2336 31.5154 81.5865C31.7023 82.9393 32.2484 84.198 33.0831 85.199C32.7105 85.3501 32.3683 85.5816 32.0759 85.8806C31.7834 86.1795 31.5464 86.5398 31.3784 86.9412C31.2105 87.3427 31.1148 87.7776 31.097 88.2202C31.0791 88.6628 31.1394 89.1054 31.2744 89.5223C31.4094 89.9392 31.6163 90.3217 31.8836 90.6494C32.1508 90.9762 32.4731 91.2413 32.8319 91.4291C33.1908 91.617 33.5791 91.7242 33.9749 91.7439C34.3708 91.7637 34.7661 91.6968 35.1386 91.5458C35.3036 93.2064 35.8636 94.7865 36.7604 96.1229C37.7282 97.3847 39.43 98.1086 40.7648 97.4216C39.8238 100.035 39.8638 103.26 41.4789 105.419C41.9651 106.027 42.5064 106.577 43.094 107.061L46.658 110.204C47.7859 111.205 49.5678 112.161 50.4955 110.951C52.1974 114.02 56.5689 114.602 58.8781 112.078C60.2129 115.379 64.2172 115.685 67.4341 115.484C68.4607 115.518 69.477 115.245 70.3774 114.692C71.7121 113.699 72.0592 111.705 72.8934 110.212C73.3472 109.376 73.9679 108.659 74.3884 107.801C74.909 106.656 75.0605 105.347 74.8172 104.093C74.574 102.838 73.951 101.716 73.0536 100.916C74.9157 97.9294 74.4751 93.9124 73.9612 90.314C73.5141 87.2149 73.0336 84.0118 71.4585 81.4209C71.1918 81.074 71.0264 80.6441 70.9847 80.189C70.9847 79.5842 71.4852 79.1436 71.8924 78.7404C72.8993 77.7019 73.6193 76.3623 73.9671 74.8804C74.3148 73.3983 74.2757 71.8359 73.8545 70.3779C73.5942 69.5193 73.1871 68.6531 73.3273 67.7646C73.5039 67.0451 73.8337 66.3842 74.2883 65.8382C76.2371 62.9561 77.1648 58.3717 74.6954 56.0421C76.3126 54.4353 77.396 52.2634 77.7692 49.88C78.1424 47.4966 77.7836 45.042 76.751 42.9159C78.3333 41.7014 79.4375 39.8527 79.8351 37.7526C80.2327 35.6525 79.8931 33.4616 78.8867 31.6339C80.1547 29.8344 81.4762 27.9006 81.6964 25.6606C81.9167 23.4206 80.5285 20.7551 78.4796 20.7476C79.3806 19.6873 79.2337 17.9029 78.4796 16.6858C77.6657 15.534 76.63 14.6023 75.4496 13.9606C73.7477 12.8555 71.9657 11.7206 70.0036 11.5787C68.0415 11.4368 65.8524 12.6389 65.3785 14.7743C65.165 13.6096 63.9637 12.945 62.9024 13.0571C61.8516 13.2647 60.8607 13.7512 60.0127 14.4757C58.5043 11.9669 54.4598 12.3851 53.392 15.1626C51.3498 13.072 47.4388 14.4159 46.8381 17.4698" fill="#263238"/>
<path d="M139.486 41.1761C138.698 39.0183 136.537 37.8311 134.468 37.6669C135.702 35.9645 135.068 33.1869 133.479 31.8952C131.891 30.6035 129.682 30.6483 127.853 31.4472C128.134 30.1406 128.073 28.7712 127.676 27.5027C127.279 26.2342 126.565 25.1204 125.618 24.2942C123.672 22.6758 121.238 21.9761 118.836 22.3455C119.23 21.2377 119.343 20.0303 119.164 18.8553C118.986 17.6803 118.522 16.5828 117.823 15.6828C117.125 14.7827 116.219 14.1148 115.204 13.7518C114.19 13.3887 113.105 13.3447 112.069 13.6245C111.616 11.8101 109.94 10.6378 108.272 10.3766C106.587 10.2362 104.894 10.4618 103.287 11.0411C102.865 9.50772 102.062 8.13934 100.975 7.09433C99.8863 6.04934 98.5559 5.37039 97.1371 5.13604C95.7184 4.90171 94.2696 5.12155 92.9572 5.77015C91.6456 6.41875 90.5245 7.46959 89.7251 8.8011C85.6536 6.63579 77.518 9.01759 77.498 15.521L95.3907 106.3C97.2066 107.95 101.084 110.458 108.339 110.488C110.668 110.488 116.2 105.799 115.833 103.224C117.625 102.993 119.27 102.007 120.435 100.468C121.601 98.9287 122.199 96.9498 122.107 94.9357C124.349 95.8312 126.278 92.9937 127.326 90.5971C127.867 89.3576 127.066 91.0302 127.666 89.8508C129.428 86.2962 128.247 82.5484 127.412 81.6375C128.748 81.9435 131.331 82.3841 132.752 79.614C133.346 78.4716 132.812 75.485 132.812 75.485C133.099 74.0963 133.6 73.4018 133.853 72.0056C134.106 70.6093 133.853 68.9219 132.732 68.2051C134.554 67.9363 136.843 67.1224 136.923 65.0766C136.963 64.1657 136.496 63.307 136.496 62.3961C136.569 61.7244 136.699 61.062 136.883 60.4174C137.45 57.2591 134.881 54.5786 132.599 52.6149C133.871 52.1756 135.046 51.443 136.049 50.4646C136.99 49.4192 137.504 47.7467 136.923 46.4176C138.999 46.3132 140.28 43.3339 139.486 41.1761Z" fill="#263238"/>
<path d="M99.4765 109.593C99.13 104.365 98.6487 97.7947 98.6487 97.8178C98.6487 97.8401 109.475 95.8012 111.71 80.0023C112.824 72.1475 112.464 59.2676 111.871 48.7397C111.336 39.2573 103.481 26.7956 93.0097 27.4003L88.3383 27.0792L70.9187 36.1138C69.6824 36.2612 68.5405 36.9221 67.7187 37.9659C66.897 39.0097 66.4551 40.3604 66.4805 41.7511L72.2068 109.637L81.6572 131.058L99.6772 117.619L99.4765 109.593Z" fill="#AE7461"/>
<path d="M90.5938 77.643C90.665 76.8365 90.9943 76.086 91.521 75.5299C92.0039 75.0142 92.6241 74.6896 93.2872 74.6061C93.9502 74.5225 94.6193 74.6843 95.1923 75.067C95.7919 75.5249 96.2705 76.1544 96.5793 76.8897C96.8881 77.625 97.0151 78.4394 96.9473 79.2483C96.6668 79.7478 96.2928 80.1737 95.8519 80.497C95.411 80.8205 94.9127 81.0338 94.3911 81.1224C94.2256 81.1508 94.0583 81.1683 93.8902 81.1746C93.0616 81.2183 92.2476 80.9149 91.6077 80.3234C91.2688 79.9914 91.0012 79.5777 90.8262 79.1135C90.6504 78.6492 90.5706 78.1465 90.5938 77.643Z" fill="#6F4439"/>
<path d="M106.116 62.3215C106.122 62.8493 105.943 63.3586 105.618 63.7408C105.292 64.1231 104.846 64.3479 104.375 64.3673C104.144 64.3886 103.913 64.3581 103.693 64.2776C103.473 64.1969 103.27 64.0679 103.096 63.898C102.922 63.7282 102.78 63.521 102.678 63.2886C102.577 63.0563 102.519 62.8036 102.506 62.5454C102.502 62.0182 102.682 61.5099 103.007 61.1281C103.332 60.7463 103.777 60.5209 104.248 60.4997C104.478 60.4783 104.71 60.5088 104.929 60.5895C105.149 60.67 105.352 60.7991 105.526 60.9689C105.7 61.1388 105.843 61.346 105.944 61.5783C106.045 61.8106 106.104 62.0634 106.116 62.3215Z" fill="#263238"/>
<path d="M108.52 54.1978C108.293 54.4666 106.925 53.3317 104.969 53.3317C103.014 53.3317 101.599 54.4293 101.385 54.1679C101.279 54.0485 101.512 53.5707 102.133 53.063C102.975 52.4092 103.977 52.0624 105.002 52.0698C106.017 52.0649 107.006 52.4234 107.825 53.0928C108.427 53.6005 108.627 54.0784 108.52 54.1978Z" fill="#263238"/>
<path d="M97.2947 72.0206C97.2947 71.8936 98.4956 71.6622 100.464 71.3784C100.958 71.3187 101.433 71.2142 101.512 70.8334C101.558 70.2578 101.441 69.6807 101.179 69.1833L99.7102 64.9423C97.661 58.9093 96.1796 53.944 96.3735 53.8544C96.5665 53.7648 98.4287 58.5807 100.471 64.6212C100.965 66.1145 101.434 67.5357 101.88 68.8846C102.195 69.5536 102.288 70.3266 102.139 71.0648C102.069 71.2613 101.958 71.4368 101.817 71.578C101.676 71.7191 101.508 71.822 101.325 71.8787C101.049 71.9654 100.764 72.0106 100.478 72.0131C98.5291 72.1326 97.3008 72.1475 97.2947 72.0206Z" fill="#263238"/>
<path d="M98.6483 97.8179C91.9988 97.9362 85.4501 95.9848 79.7344 92.1805C79.7344 92.1805 84.7799 103.134 98.9091 101.648L98.6483 97.8179Z" fill="#6F4439"/>
<path d="M91.5596 73.5288C91.8736 73.5288 91.8804 75.8733 93.6955 77.5533C95.5105 79.2332 97.7528 78.972 97.7734 79.3005C97.7734 79.4498 97.2724 79.7634 96.3186 79.7933C95.0791 79.814 93.873 79.3432 92.914 78.4642C91.9911 77.6234 91.3975 76.4125 91.2594 75.0893C91.1796 74.1037 91.4327 73.5138 91.5596 73.5288Z" fill="#263238"/>
<path d="M108.546 49.352C108.218 49.8896 106.723 49.5312 104.982 49.6955C103.24 49.8598 101.798 50.3675 101.411 49.8896C101.245 49.6582 101.411 49.143 102.038 48.6054C102.868 47.9492 103.844 47.5616 104.858 47.4852C105.871 47.4088 106.884 47.6465 107.785 48.1723C108.446 48.6129 108.686 49.0982 108.546 49.352Z" fill="#263238"/>
<path d="M84.8594 62.4036C84.8716 62.9305 85.0677 63.4311 85.4058 63.7981C85.7438 64.1652 86.1969 64.3695 86.6678 64.3674C86.8986 64.3794 87.1293 64.3395 87.3463 64.25C87.5633 64.1605 87.7615 64.0234 87.9305 63.8466C88.0995 63.6697 88.2341 63.4569 88.3285 63.2206C88.422 62.9843 88.4726 62.7293 88.4769 62.4708C88.4649 61.942 88.2676 61.4396 87.9279 61.0711C87.5891 60.7027 87.1345 60.4976 86.661 60.4996C86.4302 60.4876 86.1995 60.5278 85.9825 60.6177C85.7655 60.7078 85.567 60.8457 85.3988 61.0235C85.2307 61.2011 85.0962 61.415 85.0036 61.6521C84.9108 61.8892 84.8618 62.1449 84.8594 62.4036Z" fill="#263238"/>
<path d="M82.6048 54.9818C82.8384 55.2432 84.1732 54.0485 86.1222 53.9664C88.071 53.8843 89.5327 54.9221 89.7326 54.6458C89.8329 54.5264 89.5859 54.056 88.952 53.5781C88.0848 52.9608 87.0683 52.6583 86.0415 52.712C85.0294 52.7468 84.0538 53.1447 83.2588 53.8469C82.6782 54.3845 82.4914 54.8699 82.6048 54.9818Z" fill="#263238"/>
<path d="M83.4257 47.9484C83.8261 48.4263 85.3078 47.8513 87.1163 47.7468C88.9253 47.6423 90.4531 47.9409 90.7936 47.4108C90.9403 47.1495 90.6872 46.6641 89.9993 46.2236C89.0669 45.6817 88.017 45.4462 86.9696 45.5441C85.9248 45.5975 84.9152 45.9834 84.0598 46.6567C83.4257 47.1942 83.2522 47.7169 83.4257 47.9484Z" fill="#263238"/>
<path d="M70.205 68.0558C70.205 66.8761 68.9836 64.106 67.9491 63.9268C65.1728 63.4415 60.174 63.6954 60.1272 71.5725C60.0672 82.3468 69.7512 80.1666 69.7645 79.8829C69.7778 79.5991 70.2117 72.1176 70.205 68.0558Z" fill="#AE7461"/>
<path d="M67.1336 75.9256C67.0869 75.9256 66.9601 76.06 66.6797 76.2018C66.2771 76.3821 65.8278 76.3821 65.4251 76.2018C64.4107 75.7763 63.563 73.9619 63.5296 72.0206C63.5092 71.0982 63.6734 70.1823 64.0102 69.3401C64.1024 69.0031 64.2666 68.6964 64.4888 68.4465C64.7109 68.1968 64.9842 68.0114 65.2849 67.9065C65.4773 67.8512 65.6809 67.8733 65.8601 67.9688C66.0395 68.0643 66.1831 68.2272 66.266 68.4291C66.3995 68.7278 66.3328 68.9443 66.3861 68.9592C66.4395 68.9742 66.593 68.78 66.5196 68.3396C66.4656 68.0713 66.3313 67.8316 66.1392 67.66C65.8763 67.4362 65.5464 67.3346 65.2182 67.3764C64.8223 67.461 64.4524 67.6578 64.1439 67.948C63.8354 68.2382 63.5987 68.6121 63.4562 69.0339C63.0434 69.9606 62.8374 70.9854 62.8556 72.0206C62.909 74.1933 63.8901 76.2317 65.2782 76.6871C65.5362 76.7727 65.8082 76.7924 66.0739 76.7446C66.3395 76.6967 66.5923 76.5827 66.8133 76.4109C67.1136 76.1869 67.167 75.948 67.1336 75.9256Z" fill="#6F4439"/>
<path d="M85.2529 30.8052C78.7133 30.7773 72.2309 32.1694 66.1653 34.9044C64.3633 35.7182 62.5013 36.7411 61.4935 38.6376C60.6059 40.2653 60.5124 42.2813 60.5524 44.1927C60.6793 50.166 62.9017 57.4683 64.9973 62.9786L71.7247 67.3689C76.8571 65.9428 74.3943 56.0347 74.094 51.062C75.8668 50.1195 77.3688 48.6412 78.4302 46.794C79.4917 44.9469 80.0702 42.8044 80.1006 40.6088C81.5676 39.5187 82.7939 38.0697 83.6865 36.3712C84.5791 34.6728 85.1148 32.7694 85.2529 30.8052Z" fill="#263238"/>
<path d="M83.358 27.9379C82.284 27.8233 81.2025 28.0431 80.2331 28.5728C79.2637 29.1027 78.444 29.9219 77.8647 30.9401C77.2853 31.9583 76.9688 33.1359 76.95 34.3428C76.9313 35.5496 77.2111 36.7387 77.7585 37.7788C76.5869 37.9399 75.5045 38.5613 74.7045 39.5323C73.9046 40.5034 73.439 41.7608 73.3909 43.0803C73.3427 44.3998 73.7153 45.6955 74.4419 46.7362C75.1685 47.7768 76.2021 48.4949 77.358 48.7622C76.6732 49.1096 76.0897 49.6657 75.6742 50.3669C75.2588 51.0681 75.0281 51.8859 75.0088 52.7269C75.0019 53.5685 75.1639 54.4011 75.4826 55.1635C75.8015 55.9259 76.269 56.5986 76.8508 57.1321C77.6502 57.9256 78.6928 58.343 79.7606 58.297C80.2895 58.2601 80.7966 58.048 81.2173 57.6876C81.6381 57.3273 81.9534 56.835 82.1233 56.2735C82.2604 55.7023 82.1899 55.0935 81.9274 54.5802C81.6648 54.0668 81.2314 53.6905 80.7217 53.5333C82.1567 53.1375 82.9842 51.2933 82.9108 49.6581C82.7279 48.0045 82.1873 46.4258 81.3357 45.0587C81.7059 44.7899 82.0163 44.4299 82.2432 44.0064C82.4701 43.5828 82.6074 43.1069 82.6447 42.6148C82.6821 42.1229 82.6185 41.6278 82.4587 41.1675C82.2989 40.7072 82.0472 40.2939 81.7228 39.9591C82.8482 39.7883 83.9051 39.2557 84.7652 38.426C85.6253 37.5963 86.2519 36.5051 86.5685 35.2849C86.7151 34.6877 86.3343 33.7319 85.9011 34.1052C86.2897 33.9537 86.6474 33.7163 86.9536 33.4074C87.259 33.0985 87.506 32.7241 87.6802 32.3066C87.8543 31.889 87.9521 31.4365 87.9675 30.9761C87.9829 30.5155 87.9152 30.0563 87.7694 29.6253" fill="#263238"/>
<path d="M116.795 52.3611C117.543 47.8812 115.56 44.4017 112.631 41.2434C113.738 39.0022 114.089 36.3905 113.62 33.884C113.151 31.3775 111.892 29.1428 110.075 27.5871C110.275 26.6305 110.227 25.6299 109.936 24.7029C109.645 23.7758 109.124 22.9609 108.434 22.3539C107.743 21.7469 106.912 21.3731 106.038 21.2763C105.164 21.1796 104.284 21.3641 103.501 21.8079C102.219 19.9786 100.831 18.0747 98.8885 17.2384C96.9465 16.4021 94.2908 17.2384 93.6835 19.4783C91.8015 16.0811 86.9294 15.4688 84.4197 18.321C81.8368 16.9173 78.333 19.6724 78.64 22.8682L81.977 27.9455C81.1498 28.5316 80.5081 29.3937 80.1426 30.4099C79.777 31.4262 79.7063 32.5453 79.9401 33.6091C80.1739 34.6728 80.7006 35.6275 81.4458 36.3382C82.1909 37.049 83.1168 37.4797 84.0927 37.5698C83.7126 38.7993 83.6468 40.123 83.9027 41.392C84.1585 42.661 84.7259 43.8248 85.541 44.7527C86.3083 45.6038 87.9372 45.9548 88.2109 44.7527C88.9777 45.8503 90.7396 44.9169 90.9866 43.5506C91.2337 42.1841 90.5466 40.8402 89.8853 39.6605C90.4891 39.8953 91.1496 39.8645 91.7338 39.5743C92.3179 39.2842 92.7811 38.7564 93.0299 38.098C93.2786 37.4397 93.2941 36.7 93.0736 36.0293C92.8523 35.3585 92.4123 34.8068 91.841 34.4862L94.8981 34.74C94.7549 35.5875 94.7789 36.4598 94.9693 37.2957C95.1589 38.1317 95.5106 38.9108 95.9986 39.5784C97.04 40.8476 98.9425 41.2807 100.17 40.2429C99.3757 43.5506 102.173 47.2539 105.196 46.9627C105.196 46.9627 106.744 47.6198 107.512 45.574C108.279 43.5282 107.512 41.0044 107.512 41.0044C107.512 41.0044 108.146 46.9777 110.395 47.5974C111.236 47.8364 111.729 49.031 112.084 50.4273C112.207 50.9662 112.447 51.4633 112.78 51.8753C113.115 52.2874 113.534 52.6019 114.002 52.7918C114.469 52.9816 114.971 53.0409 115.463 52.9645C115.957 52.8882 116.425 52.6784 116.829 52.3536L116.795 52.3611Z" fill="#263238"/>
<path d="M73.6478 64.3524C74.0771 64.0709 74.4447 63.6856 74.7237 63.2247C75.0027 62.7637 75.186 62.2387 75.2602 61.6883C75.3345 61.1379 75.2977 60.5758 75.1527 60.0432C75.0076 59.5107 74.758 59.0212 74.422 58.6106C74.7364 58.1579 74.957 57.6328 75.0678 57.0731C75.1785 56.5133 75.1766 55.933 75.0623 55.3743C74.9479 54.8154 74.724 54.292 74.4067 53.8419C74.0893 53.3919 73.6865 53.0263 73.2273 52.7718C73.8374 51.8178 74.2001 50.6938 74.2754 49.5239C74.3508 48.354 74.1359 47.1834 73.6545 46.1414C73.1432 45.1181 72.3542 44.3031 71.4015 43.8145C70.449 43.3259 69.3821 43.189 68.3553 43.4236C67.3432 43.7156 66.4579 44.403 65.8593 45.3615C65.2608 46.3201 64.9885 47.4867 65.0917 48.6502L65.9727 59.1482C65.6729 59.455 65.489 59.8781 65.4586 60.3314C65.4281 60.7845 65.5534 61.2338 65.8088 61.5872C66.0643 61.9406 66.4306 62.1717 66.8332 62.2332C67.2357 62.2947 67.644 62.1821 67.9749 61.9183C67.5021 62.5688 67.1813 63.3407 67.0414 64.1645C66.9017 64.9883 66.9473 65.8381 67.1741 66.6372C67.2977 67.1937 67.6116 67.6736 68.0483 67.9737C68.1843 68.0497 68.3333 68.0924 68.4852 68.0988C68.6372 68.1052 68.7886 68.0753 68.9293 68.0111C68.7123 68.2866 68.5534 68.613 68.4641 68.9663C68.3747 69.3196 68.3574 69.6908 68.4131 70.0527C68.469 70.4145 68.5966 70.7577 68.7866 71.057C68.9766 71.3564 69.2242 71.6043 69.5112 71.7825C69.7981 71.9608 70.1171 72.0648 70.4447 72.0869C70.7723 72.109 71.1002 72.0486 71.4042 71.9103C71.7082 71.772 71.9806 71.5592 72.2014 71.2875C72.4222 71.0159 72.5858 70.6923 72.68 70.3406C72.9896 70.5857 73.369 70.6944 73.7458 70.6462C74.1226 70.598 74.4702 70.3962 74.7223 70.0793C75.2138 69.4217 75.4706 68.584 75.4431 67.7273C75.4564 66.3236 74.8892 64.6511 73.6478 64.3524Z" fill="#263238"/>
<path d="M113.377 57.304C113.622 57.3447 113.87 57.3646 114.118 57.3637C114.83 57.3476 115.523 57.1097 116.12 56.6768C116.555 56.3718 116.932 55.9733 117.228 55.5045C117.58 54.9407 117.785 54.2792 117.822 53.5931C117.861 52.8154 117.708 52.0408 117.382 51.3531C117.022 50.5608 116.44 49.9213 115.726 49.5312L115.606 49.4715L115.714 49.3819C116.351 48.7725 116.806 47.9589 117.017 47.0511C117.228 46.1431 117.185 45.1845 116.895 44.3046C116.606 43.3106 115.98 42.4825 115.153 41.9975C114.728 41.7494 114.248 41.6407 113.771 41.6839C113.535 41.7176 113.307 41.8066 113.103 41.9452C112.904 42.0964 112.74 42.2986 112.623 42.5351C112.487 42.7608 112.424 43.0313 112.443 43.3027C112.463 43.5739 112.564 43.8298 112.73 44.0284C112.922 44.2062 113.155 44.3223 113.401 44.3643C113.648 44.4064 113.9 44.3729 114.132 44.2673C114.377 44.1731 114.598 44.015 114.779 43.8059C114.958 43.5969 115.091 43.343 115.166 43.0652C115.337 42.4858 115.385 41.8696 115.306 41.2658C115.175 39.996 114.711 38.7982 113.971 37.8237C113.617 37.3179 113.16 36.9157 112.637 36.6514C112.374 36.526 112.091 36.4613 111.806 36.4613C111.52 36.4613 111.238 36.526 110.974 36.6514L110.667 36.7933L110.828 36.4648C111.261 35.5736 111.515 34.5875 111.572 33.5753C111.63 32.5631 111.49 31.549 111.161 30.6035C110.897 29.9182 110.495 29.3102 109.987 28.8265C109.478 28.3621 108.879 28.0351 108.238 27.8707C107.622 27.6806 106.972 27.6743 106.352 27.8524C105.732 28.0305 105.165 28.3869 104.707 28.8862L104.521 28.722C104.734 28.3236 104.846 27.8681 104.846 27.4041C104.846 26.94 104.734 26.4845 104.521 26.0863C104.143 25.2687 103.494 24.6494 102.712 24.3615C101.941 24.1134 101.125 24.0877 100.343 24.2868C99.5779 24.4745 98.8385 24.7705 98.1403 25.1679L97.967 25.265V25.0484C98.0622 23.8553 97.7311 22.6685 97.0457 21.7482C96.4238 20.8644 95.5146 20.2924 94.5161 20.1578C93.576 20.0531 92.6325 20.317 91.8467 20.9044C91.1245 21.4228 90.5704 22.1871 90.265 23.0847L90.2187 23.2265L90.1252 23.1145C89.0633 21.8327 87.6162 21.035 86.061 20.8746C84.8994 20.7291 83.724 20.9034 82.6369 21.3823C81.9566 21.6915 81.3272 22.1255 80.7748 22.6666C80.5879 22.8532 80.4611 23.0175 80.3677 23.1145L80.2275 23.2713C80.3873 23.0461 80.5589 22.8317 80.7414 22.6292C81.2862 22.0635 81.9168 21.6108 82.6035 21.2927C83.7006 20.7856 84.8935 20.5932 86.0739 20.7327C86.8142 20.8075 87.5381 21.0195 88.2166 21.3599C88.9869 21.7384 89.68 22.2898 90.2521 22.9802H90.1115C90.4245 22.0383 91.0001 21.2343 91.7532 20.6879C92.406 20.1867 93.1746 19.907 93.9655 19.8824C94.7563 19.8577 95.5378 20.089 96.2137 20.5487C96.8905 21.0084 97.4343 21.6768 97.7791 22.4737C98.1248 23.2705 98.2569 24.1619 98.1608 25.0409L98.1068 24.914C98.8179 24.5013 99.5745 24.1951 100.356 24.0031C101.176 23.7929 102.03 23.8186 102.839 24.0777C103.679 24.3809 104.377 25.0441 104.781 25.922C104.994 26.3643 105.117 26.8538 105.141 27.3555C105.165 27.8844 105.036 28.4075 104.774 28.8488L104.594 28.692C105.081 28.1576 105.683 27.7756 106.342 27.5842C107.002 27.3929 107.695 27.399 108.352 27.602C109.03 27.7711 109.664 28.1164 110.201 28.61C110.737 29.1184 111.16 29.7602 111.435 30.484C111.781 31.4655 111.93 32.5199 111.871 33.5728C111.812 34.6256 111.547 35.6512 111.094 36.5767L110.948 36.3901C111.239 36.2517 111.552 36.1804 111.869 36.1804C112.186 36.1804 112.499 36.2517 112.79 36.3901C113.35 36.67 113.839 37.0979 114.218 37.637C114.969 38.6587 115.433 39.9054 115.553 41.221C115.635 41.8623 115.585 42.5161 115.406 43.1324C115.306 43.4382 115.154 43.7195 114.959 43.9612C114.757 44.1996 114.505 44.3769 114.224 44.4764C113.955 44.5944 113.663 44.6289 113.377 44.5763C113.092 44.5238 112.825 44.386 112.603 44.1778C112.399 43.9451 112.278 43.6371 112.263 43.3116C112.253 42.9956 112.323 42.6828 112.463 42.4082C112.601 42.1407 112.793 41.9131 113.024 41.7436C113.253 41.5852 113.51 41.4857 113.778 41.4524C114.295 41.4028 114.813 41.5194 115.273 41.7884C116.146 42.3011 116.803 43.1785 117.101 44.23C117.403 45.1486 117.445 46.1488 117.22 47.0947C116.995 48.0405 116.516 48.8861 115.847 49.5163V49.367C116.587 49.7789 117.188 50.4466 117.562 51.271C117.898 51.9975 118.048 52.8142 117.996 53.6304C117.942 54.3419 117.71 55.0223 117.328 55.5941C116.96 56.1601 116.479 56.6218 115.922 56.9421C115.366 57.2623 114.75 57.4323 114.125 57.4383C113.871 57.4335 113.62 57.3882 113.377 57.304Z" fill="#D6D6D6"/>
<path d="M53.2174 78.1805C52.9646 78.1569 52.7156 78.0966 52.4766 78.0013C51.777 77.7318 51.1547 77.2574 50.6746 76.6274C50.3183 76.173 50.0441 75.6455 49.867 75.0744C49.6545 74.3886 49.6039 73.653 49.7203 72.939C49.8587 72.1107 50.1903 71.3379 50.6813 70.699C51.2287 69.9684 51.9658 69.4464 52.7903 69.2057L52.837 69.355C52.6162 69.4689 52.3772 69.5321 52.1343 69.5411C51.8913 69.5501 51.6492 69.5046 51.4221 69.4072C50.9472 69.207 50.5314 68.8632 50.2208 68.4142C49.9316 67.9063 49.7381 67.3379 49.652 66.7434C49.566 66.1491 49.5892 65.5412 49.7203 64.9572C49.8235 64.3375 49.964 63.7263 50.1407 63.1279C50.3139 62.4961 50.5752 61.8989 50.9149 61.3583C51.2742 60.7873 51.7823 60.3545 52.3698 60.1189C52.6742 59.9897 53.0004 59.9381 53.3248 59.9678C53.6492 59.9975 53.9637 60.1078 54.2452 60.2906L54.352 60.3652L54.2586 60.4698C53.8118 60.8953 53.268 61.1731 52.6879 61.272C52.1079 61.3709 51.5148 61.287 50.975 61.0298C50.4046 60.7813 49.9124 60.3502 49.56 59.7903C49.2077 59.2192 48.9937 58.5553 48.9394 57.864C48.8735 57.1539 48.9603 56.4364 49.1925 55.7714C49.4247 55.1065 49.7955 54.5132 50.2742 54.0411C51.2669 53.0577 52.5597 52.539 53.8848 52.5926H54.0583L53.9916 52.7643C53.8927 53.0313 53.703 53.2435 53.4644 53.3541C53.2296 53.4504 52.9759 53.4737 52.7302 53.4214C52.4867 53.3745 52.2543 53.2721 52.0477 53.1205C51.8411 52.969 51.6644 52.7714 51.5289 52.5403C51.2964 52.0446 51.2347 51.4708 51.3554 50.9275C51.468 50.4023 51.6502 49.899 51.8959 49.4342C52.1362 48.9713 52.4032 48.5307 52.6702 48.0827C52.9366 47.6302 53.2334 47.2009 53.5578 46.7985C53.8825 46.3688 54.2831 46.019 54.7345 45.771C55.1859 45.5229 55.6782 45.3822 56.1807 45.3575C56.5851 45.3554 56.983 45.4712 57.3353 45.6935L57.6757 45.9174H57.2818C56.6281 45.94 55.9797 45.778 55.3966 45.4467C54.8134 45.1152 54.3142 44.6249 53.9449 44.021C53.5745 43.4288 53.3575 42.7338 53.3175 42.0124C53.2853 41.3012 53.4212 40.593 53.7113 39.9591C53.9821 39.3301 54.3876 38.7856 54.8918 38.374C55.3959 37.9624 55.9831 37.6965 56.6011 37.5997C57.2186 37.5452 57.8351 37.7182 58.3564 38.0925C58.631 38.2752 58.8605 38.5319 59.0238 38.8391C59.1849 39.1428 59.2573 39.4952 59.2307 39.8471V39.9293H59.1573C58.9613 39.9968 58.7552 40.0197 58.5511 39.9966C58.3471 39.9735 58.1492 39.9049 57.9693 39.7949C57.6202 39.583 57.3277 39.2712 57.1217 38.8914C56.9091 38.5309 56.7732 38.1207 56.7246 37.6922C56.676 37.2637 56.716 36.8285 56.8414 36.4199C57.121 35.6455 57.5822 34.9697 58.1762 34.4637C58.7299 33.9757 59.327 33.5529 59.9581 33.2019L59.9048 33.3214C59.701 31.8944 59.959 30.433 60.6322 29.1999C61.2364 28.0471 62.1802 27.1655 63.3018 26.7059C64.3505 26.3106 65.4819 26.2819 66.5454 26.6239C67.517 26.9318 68.3914 27.54 69.0681 28.3784L68.928 28.4308C68.9612 27.4051 69.2376 26.4079 69.7289 25.5412C70.1555 24.7716 70.7328 24.1204 71.4174 23.6372C72.014 23.2348 72.6809 22.9802 73.3729 22.8906C73.9514 22.8098 74.5378 22.8376 75.1081 22.9727C75.8922 23.1467 76.6285 23.5253 77.2572 24.0777C77.4753 24.2615 77.6745 24.472 77.8511 24.7049L77.6976 24.5556C77.5511 24.397 77.395 24.2498 77.2304 24.115C76.5967 23.5922 75.8673 23.2327 75.0948 23.0623C74.5315 22.9432 73.9551 22.9231 73.3862 23.0026C72.7123 23.0988 72.0641 23.3533 71.4842 23.7492C70.8178 24.2277 70.2565 24.8683 69.8424 25.6233C69.3729 26.4709 69.1105 27.4416 69.0815 28.4382V28.6547L68.9481 28.4905C68.293 27.6823 67.4457 27.0995 66.5054 26.8105C65.4737 26.4824 64.3772 26.5137 63.3619 26.9001C62.247 27.3528 61.3141 28.2376 60.7323 29.394C60.0964 30.5851 59.8598 31.9904 60.0649 33.3587V33.4408L59.9982 33.4782C59.3815 33.8271 58.7979 34.2449 58.2563 34.7251C57.6998 35.2046 57.2706 35.8448 57.0149 36.5767C56.9033 36.9477 56.8688 37.3422 56.9139 37.7304C56.959 38.1185 57.0826 38.49 57.2752 38.8167C57.4626 39.1562 57.7245 39.4364 58.036 39.6306C58.1913 39.7237 58.3614 39.7816 58.5366 39.8008C58.7119 39.82 58.8888 39.8002 59.0572 39.7426L58.9838 39.8546C58.9932 39.5521 58.9278 39.2526 58.7947 38.9891C58.6617 38.7256 58.4661 38.5083 58.2296 38.3613C57.7511 38.0209 57.1865 37.8637 56.6212 37.9133C56.0473 38.017 55.5046 38.2751 55.0396 38.6653C54.5746 39.0554 54.2012 39.566 53.9515 40.1532C53.6595 40.7446 53.5122 41.4117 53.5244 42.0871C53.5624 42.7604 53.7656 43.4089 54.1118 43.9612C54.4586 44.5277 54.9267 44.9879 55.4736 45.2996C56.0204 45.6114 56.6283 45.7647 57.2419 45.7457L57.1884 45.9921C56.8735 45.7916 56.5164 45.6886 56.154 45.6935C55.6882 45.699 55.2305 45.8296 54.8192 46.0742C54.4072 46.3283 54.0352 46.6562 53.718 47.0449C53.0938 47.836 52.5375 48.691 52.0562 49.5985C51.8188 50.0353 51.6453 50.5117 51.5423 51.0096C51.4311 51.4882 51.481 51.9957 51.6825 52.4358C51.8013 52.633 51.955 52.8009 52.1341 52.9293C52.3132 53.0577 52.5137 53.1439 52.7235 53.1824C52.9173 53.2456 53.1248 53.2301 53.3092 53.1385C53.4937 53.0469 53.6432 52.8852 53.7313 52.6821L53.8381 52.8613C52.5731 52.8076 51.3379 53.2995 50.3876 54.2352C49.9385 54.6842 49.5908 55.2456 49.3726 55.8736C49.1546 56.5017 49.0725 57.1786 49.133 57.849C49.1862 58.5002 49.3885 59.1251 49.7203 59.6634C50.0538 60.1859 50.5183 60.586 51.0551 60.8133C51.5582 61.0569 52.1123 61.1385 52.6547 61.0489C53.1972 60.9592 53.7065 60.7017 54.1251 60.3055V60.4847C53.8688 60.3211 53.5833 60.2228 53.2891 60.1969C52.9948 60.1711 52.6992 60.2184 52.4232 60.3354C51.8815 60.5563 51.4148 60.9609 51.0884 61.4927C50.7583 62.0147 50.5038 62.5918 50.3343 63.2025C50.1589 63.7909 50.0207 64.3921 49.9205 65.0019C49.792 65.559 49.766 66.1394 49.8441 66.7079C49.922 67.2765 50.1024 67.8215 50.3743 68.3097C50.6295 68.7418 51.0069 69.0657 51.4461 69.2295C51.8854 69.3933 52.361 69.3875 52.797 69.2131L52.8437 69.3699C52.0483 69.5997 51.3353 70.0976 50.8014 70.7961C50.3206 71.409 49.9937 72.1535 49.8538 72.9539C49.7351 73.6465 49.7788 74.3615 49.9805 75.0295C50.1855 75.6927 50.5184 76.2973 50.9556 76.8005C51.3927 77.3038 51.9233 77.6933 52.5099 77.9415C52.9571 78.1431 53.2174 78.158 53.2174 78.1805Z" fill="#D6D6D6"/>
<path d="M37.4477 72.7L37.2274 72.7747C37.1382 72.8031 37.0464 72.8206 36.9538 72.8269C36.8253 72.8464 36.6951 72.8464 36.5666 72.8269C35.6978 72.7639 34.8866 72.3182 34.3109 71.5875C33.8751 71.0788 33.5527 70.4623 33.3699 69.7881C33.1846 68.9797 33.1641 68.135 33.3097 67.3166C33.4804 66.3774 33.7846 65.475 34.2108 64.6435C34.4375 64.1868 34.6917 63.7478 34.9716 63.3294C35.1128 63.0892 35.2974 62.8848 35.5135 62.7292C35.7296 62.5736 35.9724 62.4704 36.2263 62.426V62.6127C35.713 62.6795 35.1964 62.5216 34.7847 62.1721C34.3714 61.8015 34.0574 61.3106 33.8771 60.7535C33.5441 59.5475 33.6422 58.244 34.1507 57.1173C34.5875 55.8754 35.2539 54.7508 36.1062 53.8171C36.5618 53.3246 37.1022 52.941 37.6946 52.6896C38.3254 52.4441 39.0167 52.4816 39.6233 52.7941L39.5232 53.0031C39.1927 52.7753 38.9097 52.4707 38.6932 52.1101C38.4768 51.7495 38.3319 51.3411 38.2686 50.9126C38.1293 50.0488 38.1475 49.1624 38.3219 48.3067C38.4845 47.4382 38.7588 46.6008 39.1362 45.8204C39.5184 44.9843 40.1317 44.3087 40.8848 43.894C41.2792 43.6961 41.7093 43.6033 42.1413 43.6227C42.5731 43.6421 42.9952 43.7733 43.3741 44.006C43.7654 44.261 44.0598 44.6673 44.2017 45.1484C44.2667 45.392 44.2667 45.6515 44.2017 45.895C44.163 46.0242 44.1018 46.1435 44.0216 46.246C43.9414 46.3486 43.8439 46.4323 43.7346 46.4924C43.5218 46.6046 43.2863 46.6521 43.0519 46.6298C42.8174 46.6075 42.5925 46.5163 42.3998 46.3654C42.0377 46.0466 41.7797 45.603 41.6656 45.1035C41.443 44.1236 41.443 43.0969 41.6656 42.1169C41.9494 40.731 42.6008 39.4733 43.5345 38.5087C44.4681 37.544 45.6406 36.9175 46.8981 36.7111V36.965C46.3589 36.8101 45.8962 36.4238 45.6099 35.8898C45.3384 35.3705 45.1913 34.7815 45.1828 34.18C45.1601 33.5971 45.2537 33.016 45.4569 32.4787C45.6601 31.9414 45.9677 31.4615 46.3574 31.0739C47.1291 30.365 48.0467 29.8825 49.0271 29.6701C49.9597 29.4582 50.9059 29.3283 51.8568 29.2819L51.7701 29.4611C51.4625 28.8142 51.2943 28.0959 51.2793 27.3633C51.2642 26.6308 51.4026 25.9045 51.6833 25.2425C52.1761 23.9769 53.0801 22.9681 54.2128 22.4201C55.2689 21.9376 56.4229 21.7878 57.5497 21.9871C58.5727 22.1613 59.556 22.5543 60.4462 23.1444H60.3461C61.6667 21.7498 63.3231 20.818 65.1113 20.4639C66.438 20.1887 67.801 20.2217 69.1158 20.561C69.9453 20.773 70.7432 21.1175 71.4851 21.5839C71.7386 21.7407 71.9121 21.89 72.0389 21.9796L72.2258 22.1214L72.0256 22.002C71.8988 21.9199 71.7186 21.778 71.465 21.6287C70.7184 21.1861 69.9212 20.8596 69.0957 20.6581C67.7778 20.3374 66.4155 20.3196 65.0914 20.6057C63.3345 20.9687 61.7109 21.8977 60.4196 23.2788L60.3728 23.3236H60.3195C59.4437 22.7536 58.4787 22.376 57.4763 22.2111C56.3866 22.0217 55.2713 22.1714 54.2527 22.6442C53.1661 23.1707 52.3015 24.1434 51.8368 25.3619C51.5729 25.9909 51.4433 26.6798 51.4583 27.3745C51.4734 28.069 51.6326 28.7502 51.9235 29.3641L52.0103 29.5283H51.8368C50.8993 29.5771 49.9666 29.7069 49.047 29.9166C48.101 30.1195 47.2154 30.5841 46.4709 31.268C46.1063 31.6318 45.8189 32.0819 45.6296 32.5856C45.4402 33.0894 45.3537 33.6341 45.3764 34.18C45.3813 34.7348 45.5172 35.2782 45.7701 35.7555C45.8939 35.9925 46.0586 36.1996 46.2545 36.3649C46.4504 36.5303 46.6737 36.6505 46.9114 36.7186L47.5788 36.8978L46.9114 36.9799C45.6995 37.1824 44.5707 37.7898 43.6726 38.7224C42.7746 39.6551 42.1496 40.8695 41.8792 42.2066C41.672 43.1306 41.672 44.0974 41.8792 45.0214C41.987 45.4659 42.2213 45.8591 42.5466 46.1414C42.7048 46.2643 42.8888 46.3392 43.0806 46.3589C43.2725 46.3784 43.4656 46.3422 43.6411 46.2534C43.8041 46.1521 43.9285 45.9878 43.9911 45.7913C44.0538 45.5949 44.0504 45.3796 43.9815 45.1857C43.8564 44.7681 43.6003 44.4153 43.2607 44.1927C42.9122 43.9823 42.5252 43.8642 42.1295 43.8473C41.7338 43.8305 41.3399 43.9154 40.9782 44.0956C40.2743 44.4891 39.6996 45.1215 39.3364 45.9025C38.973 46.6718 38.7058 47.4934 38.5422 48.344C38.3747 49.1679 38.3567 50.021 38.4887 50.8528C38.5445 51.2496 38.6758 51.6283 38.8739 51.9633C39.0719 52.2982 39.3321 52.5816 39.6367 52.7941L39.5366 53.0031C38.9816 52.7108 38.3458 52.6759 37.768 52.9061C37.197 53.1613 36.6791 53.5451 36.2463 54.0336C35.411 54.9437 34.7562 56.0401 34.3242 57.2516C33.833 58.3275 33.7325 59.5742 34.0439 60.7311C34.1921 61.2462 34.487 61.693 34.8835 62.003C35.28 62.3131 35.7563 62.4696 36.2397 62.4484V62.635C36.0082 62.6735 35.7867 62.7666 35.59 62.9082C35.3932 63.0499 35.2257 63.2367 35.0984 63.4564C34.8172 63.8659 34.563 64.2975 34.3375 64.7481C33.918 65.5617 33.6141 66.4433 33.4366 67.3614C33.288 68.161 33.3017 68.9877 33.4766 69.7806C33.6408 70.4401 33.9428 71.0467 34.3576 71.5501C34.9152 72.2728 35.7032 72.7229 36.5533 72.8045C36.8543 72.8141 37.155 72.779 37.4477 72.7Z" fill="#D6D6D6"/>
<path d="M70.2637 64.4867C70.0906 64.6254 69.8959 64.7267 69.6897 64.7854C69.0979 64.9486 68.4736 64.8719 67.9278 64.5689C67.489 64.3518 67.1045 64.0179 66.8078 63.5961C66.5112 63.1744 66.3114 62.6778 66.2259 62.1497C66.1286 61.4586 66.1582 60.7525 66.3132 60.0747C66.4681 59.3968 66.745 58.7614 67.1268 58.2074L67.1736 58.3716C66.2727 58.057 65.4879 57.4227 64.9378 56.5647C64.4191 55.8183 64.108 54.9177 64.043 53.9751C63.978 53.0324 64.1622 52.0892 64.5725 51.2626C64.9827 50.4361 65.6012 49.7626 66.3507 49.326C67.1003 48.8894 67.9482 48.7089 68.7887 48.807V49.0757C68.5613 49.105 68.331 49.0664 68.1213 48.9638C67.7101 48.7506 67.391 48.3641 67.2336 47.8885C67.0939 47.4356 67.0416 46.9546 67.0802 46.4774C67.1304 45.5715 67.3059 44.6798 67.6008 43.8342C67.7626 43.4199 67.9886 43.0407 68.2681 42.7143C68.5383 42.3876 68.8816 42.1479 69.2625 42.0198C69.6317 41.8872 70.0261 41.8691 70.4038 41.9676C70.7824 42.0542 71.1169 42.3 71.3382 42.6545L71.5451 42.9905L71.2113 42.8337C70.3636 42.4309 69.6496 41.7416 69.1691 40.8625C68.9468 40.4561 68.7719 40.0195 68.6485 39.5633C68.5381 39.133 68.4754 38.6891 68.4616 38.2417C68.444 37.4202 68.6288 36.6092 68.9956 35.8972C69.3729 35.1754 69.9021 34.5675 70.5372 34.1264C71.1722 33.6853 71.8939 33.4243 72.6396 33.3661C72.946 33.3393 73.2543 33.3645 73.5539 33.4407C73.2494 33.4212 72.9441 33.4212 72.6396 33.4407C71.9154 33.5181 71.2184 33.7892 70.6075 34.231C69.9965 34.6728 69.4895 35.2724 69.1291 35.9794C68.7883 36.6632 68.6177 37.4367 68.6352 38.2193C68.6691 39.1097 68.9108 39.9746 69.336 40.7281C69.7983 41.5628 70.4819 42.2153 71.2914 42.5948L71.1647 42.774C70.9464 42.4823 70.6521 42.2744 70.323 42.1793C69.9939 42.0843 69.6464 42.1069 69.3293 42.2439C68.9843 42.3822 68.6711 42.6047 68.4126 42.8953C68.154 43.1859 67.9565 43.5372 67.8343 43.9238C67.5536 44.7445 67.3849 45.6079 67.3337 46.4849C67.296 46.9241 67.3439 47.3674 67.4739 47.784C67.6146 48.1868 67.8865 48.5149 68.2348 48.7024C68.3999 48.7858 68.5822 48.8168 68.762 48.792V49.0608C67.6751 48.9922 66.6058 49.3919 65.7742 50.1779C64.9425 50.9639 64.4115 52.0765 64.2904 53.2869C64.2371 54.3912 64.5245 55.4825 65.1046 56.3781C65.6245 57.202 66.3692 57.8152 67.2269 58.1252L67.3538 58.17L67.2737 58.2894C66.9044 58.8206 66.6348 59.4296 66.4812 60.0801C66.3275 60.7307 66.2929 61.4092 66.3794 62.075C66.459 62.5788 66.6446 63.0541 66.9208 63.4617C67.1969 63.8693 67.5558 64.1977 67.9678 64.4196C68.4942 64.7213 69.0968 64.8134 69.6763 64.6808C69.8754 64.6293 70.0715 64.5644 70.2637 64.4867Z" fill="#D6D6D6"/>
<path d="M92.9688 33.7843C92.8727 33.4199 92.714 33.08 92.5021 32.7838C91.8494 32.0423 90.9796 31.589 90.0523 31.5071C89.4184 31.4208 88.7777 31.4208 88.1438 31.5071C87.4181 31.592 86.7267 31.8937 86.1417 32.3806C85.8269 32.6407 85.5686 32.9775 85.387 33.3656C85.2055 33.7537 85.1052 34.1828 85.0937 34.6206C85.1006 35.0792 85.2601 35.5184 85.5409 35.8526C85.6882 36.0106 85.869 36.1243 86.0662 36.1831C86.2635 36.2418 86.4711 36.2437 86.6684 36.1885C87.075 36.0896 87.4318 35.823 87.6703 35.4419C87.9087 35.0565 88.064 34.6143 88.1241 34.1502C88.2587 33.267 88.1438 32.359 87.7964 31.5518C87.4927 30.8131 87.0158 30.1808 86.4154 29.7225C85.8904 29.3239 85.2797 29.0894 84.6465 29.0431C83.7207 28.9645 82.7973 29.2267 82.017 29.7897C81.7394 30.0179 81.4763 30.2674 81.2295 30.5364C81.4275 30.2191 81.6764 29.9456 81.9636 29.73C82.7425 29.119 83.6837 28.8215 84.6332 28.8863C85.2966 28.9253 85.9393 29.1597 86.4951 29.5657C87.1342 30.0391 87.6446 30.7005 87.9705 31.4771C88.3428 32.3287 88.4689 33.2893 88.3308 34.2248C88.2622 34.7259 88.0932 35.2032 87.8367 35.6211C87.5699 36.0704 87.159 36.3883 86.689 36.5096C86.4531 36.5727 86.2078 36.5681 85.9745 36.4963C85.7408 36.4245 85.5275 36.2878 85.354 36.0989C85.0325 35.7165 84.8515 35.2127 84.8467 34.6878C84.8547 34.2076 84.9619 33.736 85.1599 33.3098C85.3579 32.8837 85.6413 32.5145 85.9882 32.2313C86.6032 31.7245 87.3297 31.4148 88.0906 31.3353C88.7408 31.2532 89.3978 31.2657 90.0455 31.3726C91.0036 31.476 91.8931 31.9736 92.5416 32.7688C92.7029 32.989 92.823 33.2429 92.8959 33.5155C92.9293 33.6017 92.9542 33.6919 92.9688 33.7843Z" fill="#D6D6D6"/>
<path d="M121.734 33.9262C121.734 33.9262 121.734 33.65 121.734 33.1347C121.697 32.3794 121.517 31.6415 121.207 30.9694C120.731 29.8961 119.932 29.0448 118.951 28.5652C118.306 28.2538 117.608 28.1045 116.905 28.1277C116.203 28.1509 115.514 28.3461 114.886 28.6996L114.753 28.7817V28.6473C114.962 26.9246 114.926 25.1756 114.646 23.4656C114.458 22.5342 114.087 21.6617 113.558 20.9119C113.011 20.1164 112.231 19.5615 111.355 19.344C110.908 19.2377 110.441 19.29 110.021 19.4933C109.815 19.5962 109.633 19.7518 109.491 19.9476C109.348 20.1435 109.249 20.374 109.2 20.6207C109.151 20.8695 109.167 21.1289 109.247 21.3674C109.334 21.5982 109.489 21.7882 109.687 21.905C109.898 22.0166 110.13 22.0681 110.363 22.0551C110.596 22.0421 110.822 21.9649 111.022 21.8304C111.228 21.6922 111.397 21.4961 111.515 21.2616C111.632 21.0271 111.692 20.7624 111.689 20.4939C111.696 19.9363 111.531 19.3932 111.222 18.9557C110.509 18.1047 109.527 17.5984 108.486 17.5446C106.506 17.2791 104.503 17.7263 102.766 18.8213L102.519 18.9781L102.599 18.6719C102.694 18.2954 102.738 17.9056 102.733 17.5146C102.717 17.1268 102.656 16.743 102.553 16.3722C102.337 15.6479 101.982 14.9852 101.512 14.431C100.577 13.3886 99.3267 12.7759 98.0075 12.7137C96.792 12.6377 95.5765 12.8462 94.4374 13.3259C93.921 13.5617 93.463 13.933 93.1027 14.4085C92.938 14.624 92.8214 14.8799 92.7622 15.1552C92.7193 15.4275 92.7639 15.7081 92.8891 15.9467L93.2288 16.6187L92.7484 16.0662C91.6573 14.8493 90.224 14.0922 88.6912 13.9233C87.5349 13.7796 86.364 13.9407 85.2737 14.3936C84.5825 14.6803 83.9377 15.0914 83.365 15.6107C83.1714 15.7974 83.038 15.9542 82.9445 16.0512C82.8511 16.1483 82.7977 16.2005 82.791 16.1931C82.8324 16.1352 82.877 16.0803 82.9245 16.0288C83.0179 15.9243 83.1447 15.7601 83.3316 15.5734C83.8953 15.0267 84.5387 14.5923 85.2337 14.2891C86.3366 13.8088 87.5263 13.6297 88.704 13.7665C90.2772 13.9245 91.7517 14.6901 92.8754 15.9318L92.7356 16.0512C92.5855 15.7709 92.5314 15.4395 92.582 15.1179C92.6412 14.7994 92.7699 14.502 92.9552 14.2518C93.3326 13.742 93.8164 13.3444 94.3636 13.0944C95.5328 12.5934 96.7843 12.3745 98.0341 12.4524C99.4057 12.5106 100.707 13.1451 101.679 14.2293C102.175 14.8035 102.552 15.4949 102.779 16.2528C102.889 16.645 102.952 17.0518 102.966 17.4624C102.973 17.8809 102.926 18.2984 102.826 18.7019L102.659 18.5525C104.44 17.4272 106.494 16.9644 108.526 17.231C109.069 17.2989 109.6 17.447 110.107 17.6714C110.628 17.895 111.088 18.2654 111.443 18.7467C111.781 19.2357 111.962 19.8381 111.957 20.4565C111.958 20.7666 111.89 21.072 111.757 21.3439C111.624 21.6158 111.43 21.845 111.196 22.0096C110.961 22.1643 110.696 22.2521 110.423 22.2651C110.151 22.2781 109.88 22.216 109.634 22.0842C109.386 21.9431 109.192 21.7073 109.087 21.4197C108.989 21.1365 108.97 20.8265 109.033 20.5312C109.09 20.2461 109.205 19.9795 109.369 19.7527C109.533 19.526 109.743 19.345 109.981 19.2245C110.442 19.0029 110.952 18.9481 111.443 19.0677C112.368 19.2974 113.192 19.8875 113.765 20.7328C114.313 21.5077 114.696 22.4113 114.886 23.3759C115.161 25.1021 115.19 26.8661 114.973 28.6025L114.847 28.5054C115.496 28.1435 116.209 27.9465 116.934 27.9284C117.66 27.9104 118.381 28.0717 119.044 28.401C120.046 28.9072 120.857 29.793 121.333 30.9022C121.643 31.5993 121.812 32.3641 121.827 33.1422C121.823 33.4067 121.792 33.6698 121.734 33.9262Z" fill="#D6D6D6"/>
<path d="M126.412 63.7999C126.576 63.9317 126.724 64.0874 126.852 64.2628C127.223 64.7706 127.475 65.3736 127.586 66.0175C127.683 66.533 127.681 67.0656 127.582 67.5803C127.481 68.0951 127.285 68.5802 127.005 69.0041C126.63 69.5609 126.13 69.9975 125.556 70.2701C124.982 70.5427 124.354 70.6416 123.735 70.5572H123.501L123.702 70.4227C123.903 70.2944 124.126 70.2154 124.356 70.191C124.585 70.1665 124.818 70.1972 125.037 70.2809C125.498 70.4438 125.899 70.7716 126.178 71.2142C126.454 71.6858 126.594 72.2411 126.578 72.8045C126.57 73.3849 126.455 73.9571 126.238 74.4846C125.757 75.6355 124.984 76.6029 124.017 77.2667C123.048 77.9304 121.927 78.2612 120.792 78.2178V77.9267C121.22 77.9196 121.637 78.0778 121.974 78.3746C122.305 78.6791 122.565 79.0684 122.734 79.5095C123.036 80.4276 123.012 81.4404 122.667 82.3393C122.34 83.2458 121.933 84.1137 121.453 84.9303C120.973 85.7773 120.401 86.5544 119.751 87.2449C119.239 87.781 118.641 88.2047 117.989 88.4921C117.337 88.7726 116.624 88.8215 115.947 88.6336L116.067 88.432C116.9 89.729 117.384 91.2653 117.462 92.8599C117.481 93.631 117.344 94.3962 117.061 95.0996C116.763 95.7729 116.3 96.3373 115.726 96.7276C115.188 97.1188 114.566 97.3452 113.924 97.3847C113.298 97.4276 112.68 97.2148 112.183 96.7868C111.93 96.5964 111.728 96.3322 111.599 96.0234C111.47 95.7146 111.418 95.3723 111.449 95.0326C111.48 94.8697 111.546 94.7178 111.64 94.5883C111.734 94.4579 111.853 94.355 111.989 94.2855C112.122 94.2015 112.274 94.1637 112.426 94.1774C112.578 94.1903 112.723 94.2546 112.843 94.3602H112.877V94.3533C112.885 95.362 112.627 96.3519 112.136 97.1977C111.697 97.9517 111.099 98.5718 110.394 99.005C109.778 99.373 109.09 99.5626 108.391 99.5574C107.803 99.5566 107.221 99.427 106.677 99.1766C105.915 98.8412 105.247 98.2845 104.741 97.564C104.566 97.3169 104.42 97.0459 104.308 96.7576C104.308 96.7576 104.441 97.0484 104.788 97.5039C105.3 98.1927 105.962 98.722 106.71 99.0419C107.245 99.2804 107.816 99.3996 108.391 99.3927C109.069 99.3927 109.735 99.1997 110.327 98.8326C111.007 98.4114 111.581 97.8058 111.996 97.0707C112.464 96.2567 112.709 95.3063 112.697 94.3378V94.4125C112.342 94.0771 111.675 94.4125 111.615 94.9949C111.594 95.2951 111.644 95.5953 111.762 95.8655C111.879 96.1366 112.059 96.3665 112.282 96.5329C112.74 96.93 113.314 97.1213 113.891 97.0707C114.495 97.0304 115.078 96.8177 115.587 96.4514C116.113 96.0911 116.541 95.5739 116.821 94.958C117.089 94.295 117.219 93.5718 117.202 92.8445C117.127 91.3133 116.664 89.8371 115.867 88.589L115.693 88.2974L115.993 88.3874C116.627 88.5633 117.294 88.5161 117.903 88.2528C118.525 87.9774 119.097 87.5717 119.584 87.0579C120.219 86.3923 120.778 85.6396 121.246 84.8183C121.721 84.02 122.121 83.1693 122.44 82.2796C122.77 81.4424 122.796 80.4949 122.514 79.6365C122.388 79.2327 122.156 78.8808 121.849 78.6264C121.542 78.372 121.174 78.2271 120.792 78.2103V77.9267C121.887 77.9699 122.969 77.6526 123.904 77.0142C124.839 76.3757 125.585 75.4443 126.051 74.3352C126.274 73.8606 126.387 73.3318 126.381 72.7961C126.375 72.2604 126.25 71.7348 126.018 71.2665C125.792 70.8607 125.442 70.5611 125.032 70.4237C124.623 70.2862 124.183 70.3204 123.795 70.5198V70.3555C124.392 70.4368 124.996 70.3416 125.549 70.0795C126.101 69.8175 126.583 69.3978 126.945 68.8622C127.217 68.4584 127.41 67.9951 127.511 67.5024C127.613 67.0096 127.62 66.4986 127.533 66.0025C127.443 65.372 127.213 64.7766 126.865 64.2703C126.572 63.9567 126.405 63.8149 126.412 63.7999Z" fill="#D6D6D6"/>
<path d="M125.411 52.3014C125.411 52.3014 125.458 52.2267 125.571 52.1073L126.072 51.5696C126.699 50.9237 127.226 50.167 127.634 49.3297C127.897 48.7537 128.038 48.1176 128.047 47.4706C128.037 46.7353 127.802 46.0263 127.38 45.462C126.917 44.8237 126.343 44.2977 125.692 43.9165C125.01 43.4868 124.225 43.3116 123.449 43.4162C123.321 43.4422 123.194 43.4771 123.068 43.5207L123.015 43.2594C123.377 43.1657 123.714 42.9766 123.997 42.7077C124.281 42.4389 124.502 42.0981 124.643 41.7138C124.91 40.9811 125.006 40.1848 124.924 39.3992C124.855 38.0487 124.474 36.7414 123.816 35.6061C123.583 35.2425 123.285 34.9377 122.94 34.7113C122.595 34.4849 122.212 34.3421 121.814 34.292C121.518 34.279 121.221 34.3142 120.933 34.3966C120.998 34.348 121.071 34.3126 121.146 34.292C121.363 34.2195 121.588 34.1866 121.814 34.195C122.234 34.2249 122.643 34.3566 123.013 34.5809C123.382 34.8052 123.705 35.1169 123.956 35.4942C124.653 36.6479 125.063 37.9878 125.144 39.3768C125.242 40.2072 125.143 41.0517 124.857 41.8258C124.702 42.249 124.457 42.6241 124.145 42.9191C123.833 43.2142 123.461 43.4206 123.062 43.5207L123.002 43.2669C123.138 43.2217 123.276 43.1843 123.416 43.1548C124.243 43.0426 125.081 43.2311 125.805 43.6924C126.482 44.0897 127.08 44.6387 127.56 45.3052C127.996 45.9215 128.231 46.685 128.228 47.4706C128.213 48.1493 128.056 48.8145 127.767 49.4118C127.345 50.2632 126.789 51.022 126.126 51.6518C125.898 51.8758 125.718 52.0401 125.591 52.1521C125.537 52.2101 125.476 52.2602 125.411 52.3014Z" fill="#D6D6D6"/>
<path d="M25.9887 90.0524C25.9413 89.9743 25.9052 89.8885 25.8819 89.7985C25.8008 89.5394 25.7667 89.2658 25.7818 88.9921C25.8297 88.4904 25.9679 88.0048 26.1881 87.5648C26.4083 87.1248 26.7061 86.7388 27.0632 86.4308C27.9108 85.5425 29.2456 85.1318 30.5737 84.4747C31.2768 84.1504 31.9111 83.6646 32.4358 83.0486C32.963 82.399 33.3634 81.5553 33.9641 80.8609C34.5965 80.2312 35.2932 79.6873 36.0397 79.2407C36.6738 78.7686 37.2464 78.2007 37.7416 77.5533C38.5874 76.4525 39.2172 75.1654 39.5903 73.7752C39.8384 72.8367 39.9687 71.8642 39.9773 70.8856C39.9773 70.1837 39.924 69.803 39.9773 69.803C40.0056 69.8918 40.0214 69.985 40.0241 70.0793C40.0638 70.3434 40.0861 70.6104 40.0908 70.8781C40.1238 71.8735 40.0179 72.8685 39.7771 73.8274C39.4194 75.2545 38.7911 76.5787 37.9351 77.7101C37.4303 78.3807 36.8441 78.9688 36.1933 79.4573C35.4767 79.9024 34.8054 80.4332 34.191 81.0401C33.6171 81.7121 33.21 82.5334 32.656 83.2203C32.1155 83.8695 31.455 84.3791 30.7205 84.7137C29.3858 85.3782 28.051 85.759 27.2234 86.5955C26.5124 87.178 26.0334 88.0495 25.8886 89.0222C25.8666 89.3696 25.9005 89.7187 25.9887 90.0524Z" fill="#D6D6D6"/>
<path d="M24.4813 82.1527C24.4813 82.0481 24.8417 82.0779 25.409 81.951C26.2083 81.7589 26.9702 81.4074 27.6581 80.9132C28.1017 80.6112 28.471 80.1904 28.7327 79.6887C28.8619 79.4225 28.9415 79.1298 28.9667 78.8282C28.9921 78.5266 28.9623 78.2224 28.8795 77.934C28.7954 77.6396 28.6352 77.3797 28.419 77.1873C28.2017 76.9965 27.9399 76.8798 27.6648 76.8513C27.4238 76.8275 27.184 76.9106 26.9974 77.0828C26.798 77.2746 26.6656 77.5391 26.6236 77.8295C26.5989 77.9622 26.6036 78.0996 26.6374 78.2298C26.6711 78.3599 26.7328 78.4789 26.8172 78.5762C27.0123 78.7754 27.2612 78.8963 27.5247 78.9196C27.822 78.9229 28.1167 78.8583 28.3909 78.73C28.6652 78.6015 28.9131 78.4121 29.1198 78.1729C29.9653 77.2572 30.5047 76.045 30.6481 74.7383C30.7556 73.8344 30.7012 72.9156 30.4879 72.0354C30.3277 71.4008 30.1942 71.0424 30.2743 70.9901C30.3545 70.9378 30.608 71.2066 30.9418 71.8413C31.3589 72.765 31.5544 73.7942 31.509 74.8279C31.4601 76.4096 30.8895 77.915 29.9073 79.054C29.6061 79.4008 29.2568 79.6907 28.8728 79.9127C28.4366 80.1642 27.948 80.2803 27.4579 80.2486C26.9152 80.2121 26.4018 79.9607 26.0096 79.5394C25.778 79.3016 25.6017 79.0044 25.4957 78.6732C25.4078 78.357 25.385 78.0225 25.429 77.695C25.5068 77.0684 25.7899 76.4963 26.2232 76.0898C26.4396 75.8975 26.6877 75.755 26.9535 75.6704C27.2192 75.5858 27.4972 75.5609 27.7716 75.597C28.2596 75.6528 28.7225 75.8669 29.103 76.2132C29.4837 76.5594 29.7655 77.0226 29.914 77.5458C30.0283 77.9939 30.0577 78.4639 30.0002 78.9254C29.9427 79.387 29.7997 79.8301 29.5802 80.2263C29.2074 80.8646 28.689 81.3801 28.0786 81.7196C27.2573 82.2106 26.3402 82.4671 25.409 82.4663C24.7883 82.4065 24.4613 82.2273 24.4813 82.1527Z" fill="#263238"/>
<path d="M46.3837 112.953C46.3837 112.953 46.4571 112.9 46.4437 112.848C46.4376 112.796 46.4376 112.743 46.4437 112.691C46.5089 112.406 46.603 112.131 46.724 111.87C47.1014 111.008 47.5179 110.167 47.9721 109.353C49.0199 107.449 49.9743 105.963 50.2813 106.128C50.5883 106.292 50.0543 108.084 48.9865 110.033C48.5338 110.872 48.0085 111.66 47.4181 112.385C47.2318 112.613 47.0262 112.82 46.8041 113.005C46.7564 113.049 46.7005 113.08 46.6405 113.098C46.5804 113.114 46.5177 113.116 46.4571 113.102C46.3436 113.064 46.357 113.019 46.3837 112.953Z" fill="#263238"/>
<path d="M140.054 78.4866C140.054 78.5538 139.686 78.9047 138.812 79.0988C137.549 79.3382 136.25 79.0456 135.169 78.2775C134.801 78.0271 134.463 77.7233 134.167 77.3741C133.842 76.9872 133.566 76.5527 133.346 76.0824C132.871 74.9609 132.706 73.7069 132.87 72.4798C133.034 71.2527 133.52 70.1079 134.267 69.1907C134.695 68.6766 135.21 68.2629 135.782 67.9736C136.406 67.6466 137.103 67.5349 137.785 67.6526C138.497 67.7801 139.139 68.2075 139.579 68.8473C139.807 69.1727 139.963 69.554 140.034 69.9598C140.11 70.3508 140.11 70.7559 140.034 71.147C139.867 71.8691 139.488 72.5078 138.959 72.9614C138.476 73.3494 137.918 73.6052 137.33 73.708C136.292 73.8997 135.227 73.7438 134.267 73.26C133.443 72.8558 132.72 72.23 132.165 71.4382C131.718 70.7871 131.401 70.0358 131.237 69.2355C131.112 68.6466 131.074 68.0388 131.124 67.4361C131.217 66.4505 131.478 65.9428 131.544 65.995C131.61 66.0473 131.544 66.5401 131.584 67.4435C131.648 68.6962 132.08 69.8903 132.812 70.8408C133.314 71.4652 133.941 71.9486 134.641 72.252C135.428 72.5993 136.287 72.6874 137.117 72.5059C137.535 72.4192 137.929 72.2221 138.265 71.931C138.596 71.6546 138.831 71.2591 138.932 70.811C138.98 70.6062 138.984 70.3921 138.945 70.1852C138.908 69.9781 138.828 69.7835 138.712 69.6163C138.443 69.2483 138.064 69.0017 137.644 68.9219C137.181 68.8812 136.715 68.9626 136.285 69.1598C135.856 69.3569 135.473 69.6641 135.169 70.0568C134.528 70.8126 134.115 71.7733 133.987 72.8046C133.857 73.7443 133.963 74.706 134.294 75.5821C134.457 75.9668 134.661 76.3279 134.901 76.6573C135.137 76.9593 135.401 77.2321 135.688 77.4711C136.604 78.1999 137.702 78.5819 138.825 78.5613C139.573 78.5613 140.02 78.3895 140.054 78.4866Z" fill="#263238"/>
<path d="M141.957 55.6388C142.01 55.6912 141.816 56.1167 141.196 56.5796C140.283 57.2386 139.174 57.4667 138.112 57.2143C137.357 57.0425 136.661 56.6302 136.11 56.0271C135.476 55.3337 135.036 54.4492 134.842 53.481C134.607 52.3732 134.757 51.2064 135.263 50.2181C135.55 49.6573 135.983 49.207 136.504 48.9265C137.068 48.6399 137.705 48.5895 138.299 48.7846C138.613 48.8863 138.901 49.0701 139.138 49.3206C139.377 49.5712 139.558 49.8813 139.668 50.2256C139.859 50.8523 139.859 51.5326 139.668 52.1594C139.58 52.4585 139.451 52.7406 139.287 52.9957C139.132 53.2345 138.953 53.4524 138.753 53.6453C138.38 53.9932 137.955 54.266 137.498 54.4517C136.008 55.0508 134.384 55.0875 132.873 54.5562C131.879 54.2231 130.966 53.6409 130.204 52.8538C129.676 52.2864 129.489 51.8832 129.536 51.8309C129.583 51.7787 129.903 52.04 130.477 52.4432C131.275 53.0135 132.156 53.4229 133.08 53.6527C134.414 53.9939 135.809 53.8794 137.085 53.3242C137.416 53.1972 137.719 52.9922 137.973 52.723C138.228 52.4538 138.428 52.1267 138.559 51.7637C138.663 51.4147 138.663 51.0375 138.559 50.6885C138.51 50.5344 138.429 50.3956 138.323 50.2839C138.215 50.1721 138.087 50.0907 137.945 50.0464C137.627 49.9464 137.286 49.9755 136.984 50.1286C136.678 50.2925 136.421 50.5517 136.243 50.8752C135.874 51.5826 135.753 52.418 135.904 53.2197C136.03 53.9748 136.341 54.6755 136.804 55.2431C137.211 55.7391 137.73 56.1028 138.306 56.2959C139.189 56.5718 140.13 56.5061 140.976 56.1092C141.596 55.848 141.89 55.5642 141.957 55.6388Z" fill="#263238"/>
<path d="M52.2236 78.9197C51.7105 79.2797 51.2864 79.778 50.9902 80.3689C50.6941 80.9599 50.5353 81.6246 50.5283 82.3021C50.496 83.2352 50.7851 84.1465 51.3359 84.8481L51.5762 85.1393L51.2358 85.0348C50.3029 84.7636 49.3195 84.8026 48.406 85.1468C47.3789 85.5193 46.4961 86.2722 45.9033 87.2818C45.5178 87.9354 45.2592 88.6714 45.1441 89.4426C45.0292 90.2146 45.0604 91.0046 45.2359 91.762L45.3827 92.1128L45.1158 91.8889C44.2478 91.1607 43.1907 90.7704 42.1058 90.7764C41.2548 90.7618 40.4122 90.966 39.6431 91.3743C38.9618 91.7525 38.354 92.2775 37.8545 92.9191C37.8545 92.9191 37.8545 92.8599 37.9345 92.7699C38.0242 92.6326 38.12 92.5005 38.2215 92.3744C38.6047 91.913 39.0562 91.5287 39.5563 91.2396C40.3384 90.7961 41.2023 90.5637 42.0791 90.5602C43.2086 90.5439 44.312 90.9394 45.2225 91.6874L45.049 91.822C44.8591 91.0303 44.8203 90.2034 44.9354 89.3945C45.0504 88.5848 45.3165 87.8119 45.7165 87.1257C46.3374 86.0638 47.2658 85.2726 48.346 84.8854C49.3026 84.5334 50.3304 84.5023 51.3026 84.7959L51.2025 84.9825C50.6171 84.24 50.3195 83.2678 50.3749 82.2797C50.401 81.5297 50.6036 80.8009 50.9622 80.1666C51.1885 79.7582 51.4885 79.4073 51.8431 79.1362C51.9371 79.0688 52.0353 79.0089 52.1368 78.957C52.1902 78.9346 52.2236 78.9122 52.2236 78.9197Z" fill="#D6D6D6"/>
<path d="M55.8419 103.313C55.7574 103.347 55.6703 103.372 55.5817 103.387C55.4726 103.419 55.3606 103.436 55.2479 103.44C55.0972 103.459 54.945 103.459 54.7942 103.44C53.8005 103.384 52.8558 102.94 52.1245 102.186C51.623 101.677 51.2405 101.039 51.01 100.326C50.8751 99.9271 50.7985 99.5059 50.783 99.0796C50.7705 98.6267 50.8246 98.1755 50.9432 97.7432C51.07 97.2894 51.2592 96.8614 51.5038 96.4737C51.7516 96.0662 52.0531 95.7043 52.3981 95.398C52.7537 95.0806 53.1525 94.8285 53.5795 94.6518C54.0207 94.4519 54.4918 94.3481 54.9677 94.3455C55.4482 94.3267 55.9254 94.4416 56.3558 94.6818C56.577 94.8147 56.7564 95.0206 56.8697 95.2711C56.9781 95.5258 56.9949 95.8175 56.9165 96.0851C56.8771 96.2223 56.8056 96.3459 56.7093 96.4411C56.6131 96.5372 56.4956 96.6023 56.3692 96.6307C56.1452 96.6718 55.9155 96.6487 55.7018 96.5629C55.3044 96.3931 54.9396 96.14 54.6272 95.8166C54.1632 95.3689 53.7971 94.8079 53.5572 94.1774C53.3172 93.5469 53.2098 92.8624 53.2434 92.1779C53.2769 91.4934 53.4504 90.8269 53.7505 90.2291C54.0505 89.6312 54.4693 89.1191 54.9743 88.7305C55.2598 88.4903 55.5837 88.3128 55.9287 88.2081C55.6151 88.384 55.3139 88.5856 55.0277 88.8129C54.2647 89.4382 53.7196 90.3406 53.486 91.3665C53.3352 92.1333 53.3708 92.9311 53.5892 93.6765C53.8075 94.4227 54.2005 95.0892 54.7274 95.6073C55.0224 95.9075 55.3639 96.146 55.7351 96.309C55.9162 96.3853 56.1126 96.4033 56.3025 96.3613C56.3903 96.3442 56.4723 96.3004 56.5394 96.2344C56.6065 96.1683 56.6561 96.0834 56.6829 95.9882C56.7396 95.7806 56.7253 95.5576 56.6428 95.3611C56.5517 95.1621 56.4069 95 56.229 94.8979C55.8327 94.6826 55.3948 94.5797 54.9543 94.5994C54.4969 94.5943 54.0433 94.6904 53.6195 94.8834C53.2122 95.0626 52.8336 95.3148 52.4983 95.6296C52.1873 95.9033 51.915 96.2284 51.6907 96.5929C51.4525 96.9566 51.2719 97.3632 51.1568 97.7955C50.9197 98.5872 50.9339 99.4467 51.1968 100.229C51.4173 100.913 51.7811 101.528 52.258 102.021C52.9528 102.758 53.848 103.212 54.8008 103.313C55.1475 103.338 55.4952 103.338 55.8419 103.313Z" fill="#D6D6D6"/>
<path d="M32.9968 49.6656C32.9968 49.6656 32.7499 49.7403 32.3294 49.9196C31.7248 50.17 31.1711 50.5534 30.7009 51.0469C30.0144 51.7814 29.5599 52.7458 29.4062 53.7947C29.2314 55.0842 29.501 56.4 30.1604 57.4756C30.2557 57.6285 30.3582 57.7755 30.4674 57.9162L30.6142 58.1103H30.3872C29.2909 58.2359 28.2765 58.8167 27.5441 59.738C26.9489 60.4892 26.5841 61.4338 26.5031 62.4335C26.4448 63.1255 26.5107 63.8235 26.6966 64.4868C26.8234 64.9422 26.9301 65.1811 26.9168 65.1886C26.9035 65.1961 26.8768 65.1364 26.8167 65.0243C26.7371 64.8619 26.6702 64.6919 26.6165 64.5166C26.3505 63.6986 26.2833 62.8164 26.4217 61.9598C26.56 61.1033 26.899 60.3031 27.404 59.641C28.1647 58.6579 29.2314 58.0358 30.3872 57.9013L30.3139 58.1252C30.196 57.9765 30.0867 57.8193 29.9868 57.6549C29.2934 56.5252 29.0162 55.1398 29.2127 53.7872C29.3812 52.6894 29.8721 51.6858 30.6075 50.935C31.0912 50.431 31.6675 50.0513 32.2961 49.8225C32.4659 49.7596 32.6399 49.7121 32.8167 49.6806C32.876 49.6679 32.9365 49.6629 32.9968 49.6656Z" fill="#D6D6D6"/>
<path d="M41.5664 34.2846C41.5664 34.2846 41.306 34.1427 40.8122 34.0008C40.1119 33.8035 39.3776 33.8164 38.6832 34.0381C38.1712 34.1888 37.6941 34.4608 37.2843 34.8357C36.8743 35.2105 36.5412 35.6796 36.3072 36.2109C36.0301 36.8663 35.8993 37.5871 35.9261 38.3115C35.9528 39.0359 36.1363 39.7422 36.4608 40.3698C36.5449 40.5243 36.6363 40.6738 36.7344 40.8177L36.8411 40.9895L36.661 41.0269C35.4289 41.2893 34.3224 42.0394 33.5442 43.1398C32.9122 44.0319 32.5375 45.1177 32.4697 46.2534C32.4233 47.0103 32.5048 47.7703 32.71 48.4934C32.8567 49.0086 32.9836 49.2401 32.9635 49.2923C32.9199 49.2364 32.8839 49.1734 32.8568 49.1057C32.7646 48.9191 32.6865 48.7243 32.6232 48.5232C32.3226 47.605 32.2335 46.6168 32.3641 45.6499C32.4948 44.683 32.8409 43.7684 33.3707 42.9906C34.1687 41.8228 35.3235 41.0253 36.6142 40.7506L36.5408 40.9671C36.4474 40.8177 36.3339 40.6609 36.2472 40.4892C35.9096 39.8268 35.7205 39.0828 35.6961 38.3208C35.6716 37.5588 35.8127 36.8015 36.107 36.1138C36.3723 35.5189 36.7642 35.006 37.2483 34.6205C37.7596 34.2055 38.3494 33.9278 38.972 33.8087C39.5946 33.6896 40.2334 33.7323 40.8389 33.9335C41.0311 33.9958 41.2168 34.0809 41.3928 34.1875C41.5129 34.2322 41.5731 34.2771 41.5664 34.2846Z" fill="#D6D6D6"/>
<path d="M114.259 76.3288C114.339 76.3178 114.419 76.3178 114.499 76.3288H114.793L115.187 76.284C116.026 76.1722 116.832 75.8479 117.542 75.3357C118.606 74.5977 119.436 73.5065 119.918 72.2148C120.193 71.4574 120.314 70.6413 120.272 69.8254C120.246 69.4012 120.144 68.9872 119.972 68.6084C119.79 68.227 119.508 67.917 119.164 67.7198C118.892 67.5605 118.58 67.503 118.277 67.5556L118.03 67.6078L118.157 67.3614C118.91 66.0166 119.397 64.5069 119.585 62.9338C119.647 62.256 119.591 61.5712 119.417 60.9178C119.257 60.3564 119.006 59.8326 118.677 59.3722C118.211 58.6906 117.553 58.2061 116.808 57.9984C116.535 57.9428 116.258 57.9129 115.981 57.9087C116.26 57.8424 116.549 57.8424 116.829 57.9087C117.604 58.0917 118.3 58.5691 118.797 59.2603C119.152 59.731 119.424 60.2733 119.598 60.858C119.785 61.5339 119.853 62.2439 119.798 62.9487C119.622 64.5643 119.129 66.1166 118.356 67.4959L118.236 67.2942C118.591 67.2318 118.954 67.2999 119.271 67.4884C119.659 67.7056 119.976 68.0528 120.178 68.4814C120.367 68.8922 120.479 69.3421 120.506 69.803C120.545 70.6586 120.412 71.5132 120.118 72.3043C119.614 73.639 118.742 74.7586 117.629 75.5C116.892 76.0042 116.061 76.3085 115.2 76.3885H114.793H114.499C114.417 76.3801 114.336 76.3601 114.259 76.3288Z" fill="#D6D6D6"/>
<path d="M34.3516 101.894C34.2848 101.946 34.0446 101.692 33.6842 101.148C33.1498 100.396 32.7344 99.5472 32.4562 98.6388C32.2671 97.9688 32.1968 97.2638 32.2493 96.5629C32.3137 95.706 32.6305 94.8971 33.1503 94.2632C33.737 93.5744 34.526 93.1447 35.3727 93.0538C35.85 92.9997 36.3319 93.0727 36.7795 93.2665C37.227 93.4595 37.6276 93.7674 37.9488 94.1663C38.1222 94.3868 38.2599 94.6398 38.3559 94.9134C38.4652 95.1905 38.5199 95.4907 38.5162 95.7944C38.5183 96.3708 38.3467 96.9309 38.029 97.3847C37.8711 97.6197 37.6707 97.8153 37.4407 97.9586C37.2106 98.1009 36.9562 98.1884 36.6942 98.2133C36.2114 98.2373 35.7374 98.0649 35.3594 97.7278C34.7589 97.1711 34.3564 96.3922 34.2248 95.5328C34.0998 94.8457 34.0998 94.1372 34.2248 93.4492C34.3938 92.4722 34.8216 91.575 35.4528 90.8733C35.9 90.3955 36.2269 90.2617 36.267 90.3286C36.3071 90.3955 36.1069 90.6795 35.8065 91.2018C35.3907 91.9215 35.1303 92.7398 35.0457 93.5916C34.9953 94.1595 35.0337 94.7333 35.1592 95.2866C35.2711 95.8767 35.5638 96.4051 35.9867 96.78C36.1612 96.9318 36.38 97.0064 36.6008 96.9884C36.7041 96.9704 36.8031 96.9284 36.8915 96.8649C36.9799 96.8023 37.0558 96.7199 37.1147 96.623C37.2648 96.3965 37.3445 96.1212 37.3415 95.839C37.3246 95.5611 37.2234 95.2977 37.0545 95.0919C36.8548 94.8508 36.6087 94.6638 36.3346 94.5446C36.0605 94.4254 35.7658 94.3782 35.4728 94.4056C34.9072 94.4528 34.3732 94.7153 33.9602 95.1502C33.5471 95.5851 33.28 96.1658 33.2036 96.7945C33.1249 97.3581 33.1407 97.9328 33.2504 98.4895C33.4393 99.3456 33.7101 100.177 34.058 100.968C34.3115 101.499 34.425 101.819 34.3516 101.894Z" fill="#263238"/>
<path d="M120.479 103.067C120.479 102.992 120.7 102.902 121.087 102.708C121.629 102.425 122.118 102.03 122.529 101.543C123.133 100.824 123.486 99.886 123.523 98.9004C123.537 98.294 123.434 97.6909 123.22 97.1334C123.007 96.575 122.689 96.0757 122.289 95.6674L120.566 93.9948L122.795 94.6072C124.259 94.9684 125.79 94.7187 127.1 93.9047C127.869 93.4492 128.549 92.8273 129.103 92.0759C129.601 91.3717 129.961 90.5577 130.157 89.6862C130.466 88.1636 130.34 86.5707 129.797 85.1319C129.422 84.1421 128.878 83.244 128.194 82.4887L127.861 82.1378L127.601 81.8839C127.461 81.742 127.401 81.645 127.421 81.6001C127.44 81.5554 127.541 81.6001 127.721 81.6525C127.836 81.6954 127.947 81.7478 128.055 81.8093L128.482 82.0855C129.357 82.7628 130.069 83.6738 130.551 84.7361C131.299 86.3425 131.534 88.1868 131.218 89.9624C131.016 91.0234 130.606 92.021 130.016 92.8822C129.376 93.7855 128.576 94.5326 127.668 95.0773C126.1 96.0492 124.26 96.3159 122.522 95.8244L123.036 94.7565C123.544 95.2952 123.937 95.9565 124.185 96.6891C124.432 97.4225 124.527 98.209 124.464 98.9896C124.354 100.2 123.833 101.318 123.009 102.111C122.495 102.612 121.875 102.957 121.207 103.111C120.74 103.186 120.486 103.134 120.479 103.067Z" fill="#263238"/>
<path d="M56.5489 13.7142C56.5021 13.6694 56.6623 13.3408 57.0827 12.863C57.701 12.1927 58.4343 11.6695 59.2384 11.3249C60.475 10.7735 61.8228 10.6109 63.1361 10.8545C63.9725 10.9827 64.7593 11.3737 65.4052 11.982C65.7745 12.3573 66.0465 12.8371 66.1928 13.3708C66.3653 13.9636 66.3368 14.6068 66.1127 15.1777L65.0381 14.6924C65.4018 13.5234 66.0132 12.4704 66.8201 11.6236C67.5735 10.8107 68.478 10.1939 69.4689 9.81701C70.4599 9.44019 71.513 9.31255 72.553 9.44336C73.4582 9.5728 74.3278 9.91917 75.1025 10.4588C75.7675 10.9142 76.3605 11.4893 76.8578 12.1611C77.5764 13.1165 78.0616 14.2637 78.266 15.4912C78.3862 16.3574 78.266 16.8353 78.2259 16.8353C78.1859 16.8353 78.0591 16.3798 77.8188 15.6182C77.4721 14.5588 76.931 13.5923 76.2304 12.7809C75.6881 12.1167 75.0307 11.5827 74.2983 11.2115C73.5658 10.8403 72.7736 10.6394 71.9696 10.6213C71.1657 10.6032 70.3668 10.768 69.6215 11.1059C68.8762 11.4438 68.2001 11.9476 67.6344 12.5868C66.9647 13.2884 66.4505 14.155 66.1326 15.1179L65.0648 14.6251C65.158 14.3208 65.1682 13.9923 65.0946 13.6814C65.021 13.3704 64.8666 13.0908 64.6511 12.878C64.1607 12.4024 63.5626 12.0871 62.9225 11.967C61.7773 11.6906 60.5881 11.7419 59.4654 12.1164C58.706 12.366 57.9823 12.7355 57.3163 13.214C56.8625 13.5574 56.6089 13.7739 56.5489 13.7142Z" fill="#263238"/>
<path d="M102.111 12.6464C102.018 12.6464 102.198 11.8997 102.171 10.6156C102.133 9.85453 102.011 9.10192 101.804 8.37555C101.527 7.40727 101.098 6.50208 100.536 5.70252C100.215 5.24659 99.8475 4.83325 99.4417 4.47054C99.0086 4.07774 98.5274 3.75593 98.0135 3.51482C97.4654 3.2508 96.8847 3.07969 96.292 3.0071C95.665 2.90693 95.0293 2.90693 94.4032 3.0071C93.0539 3.22368 91.7921 3.87784 90.7722 4.88867C90.2524 5.41706 89.8166 6.04074 89.4838 6.73291C89.1561 7.38053 89.0455 8.13744 89.1707 8.86834C89.2239 9.18752 89.3551 9.48397 89.549 9.72509C89.7437 9.96621 89.9933 10.1426 90.2721 10.2347C90.5509 10.2768 90.8348 10.2354 91.0956 10.1148C91.3555 9.99409 91.5828 9.79843 91.7535 9.54779C91.9302 9.3083 92.052 9.0236 92.1069 8.71901C92.1549 8.4005 92.1386 8.07406 92.0606 7.76329C91.8933 7.11956 91.5416 6.55531 91.0595 6.15798C90.5629 5.80211 90.0062 5.56414 89.4238 5.45882C88.8422 5.35351 88.2469 5.38308 87.6756 5.54572C86.6085 5.7965 85.6038 6.30627 84.7322 7.03904C83.4459 8.13055 82.4605 9.6056 81.8891 11.295C81.7397 11.9548 81.5593 12.6053 81.3485 13.2438C81.2106 12.5473 81.2453 11.8218 81.4487 11.1457C81.8949 9.24937 82.8612 7.55726 84.2117 6.30731C85.1582 5.42721 86.2723 4.80142 87.4689 4.47801C88.1482 4.29774 88.849 4.24227 89.5438 4.31374C90.3218 4.3853 91.0681 4.6868 91.7063 5.18733C92.3968 5.73367 92.9038 6.52195 93.1482 7.4273C93.2752 7.91176 93.3052 8.42179 93.2349 8.92058C93.1525 9.44915 92.9501 9.94528 92.6473 10.3616C92.3479 10.7784 91.9636 11.1087 91.5262 11.3248C91.0553 11.5588 90.5311 11.6265 90.0251 11.519C89.5087 11.3927 89.0412 11.0869 88.6904 10.6454C88.3635 10.2148 88.1345 9.70253 88.0221 9.1521C87.83 8.11638 87.9767 7.0377 88.4365 6.11318C88.8319 5.2652 89.3637 4.50589 90.0045 3.87321C91.1985 2.70665 92.6764 1.96564 94.2496 1.74525C94.9736 1.62935 95.7078 1.62935 96.4318 1.74525C97.1257 1.85194 97.8008 2.07601 98.4339 2.40977C99.018 2.71103 99.5601 3.10592 100.042 3.58201C100.489 4.02644 100.888 4.52759 101.23 5.07533C101.807 5.99017 102.224 7.01871 102.459 8.10676C102.635 8.92221 102.7 9.76318 102.652 10.6006C102.505 11.9968 102.164 12.6763 102.111 12.6464Z" fill="#263238"/>
<path d="M99.1218 103.768C99.1819 103.119 125.498 108.995 125.498 108.995C125.498 108.995 135.062 153.541 136.15 160.955C137.237 168.369 132.465 210.712 132.465 210.712L135.722 229.431L57.6366 225.1L64.4307 206.307L48.0527 116.208L71.5252 104.896C71.5252 104.896 77.4651 113.109 84.9533 115.722C89.7583 117.403 94.4306 116.208 97.5675 111.81C98.7753 110.085 98.8619 106.695 99.1218 103.768Z" fill="#D6D6D6"/>
<path d="M73.9881 165.136L75.3629 146.664L128.495 136.047C128.495 136.047 134.721 149.188 136.137 160.955C137.551 172.723 132.993 211.81 132.993 211.81C132.993 211.81 143.785 261.335 146.341 276.022H45.043C45.043 276.022 47.9863 245.947 60.006 218.53L72.1994 187.686L73.9881 165.136Z" fill="#295F2B"/>
<path d="M130.964 168.728C130.417 164.479 128.882 160.455 127.36 156.482C127.095 155.496 126.534 154.641 125.772 154.063L94.0635 161.142C95.9188 166.51 98.9091 177.933 102.179 182.451C105.45 186.968 109.227 185.542 114.46 186.602C119.692 187.662 125.585 185.721 128.668 181.063C130.984 177.56 131.511 172.983 130.964 168.728Z" fill="#295F2B"/>
<path d="M130.964 168.728C131.038 169.129 131.091 169.536 131.124 169.945C131.231 171.118 131.244 172.3 131.164 173.476C131.045 175.343 130.629 177.172 129.936 178.874C129 181.143 127.498 183.062 125.611 184.4C123.321 186.009 120.692 186.914 117.99 187.021C117.625 187.043 117.26 187.043 116.895 187.021C116.522 187.021 116.151 186.998 115.78 186.954C115.04 186.886 114.285 186.722 113.538 186.602C112.029 186.356 110.461 186.304 108.866 186.154C107.179 186.091 105.532 185.56 104.074 184.609C103.352 184.062 102.703 183.403 102.145 182.653C101.598 181.882 101.106 181.063 100.677 180.204C98.9876 176.605 97.5586 172.859 96.4057 169.004C95.5582 166.36 94.7777 163.732 93.9302 161.231L93.8633 161.015L94.0563 160.97L125.772 153.944H125.818H125.852C126.344 154.266 126.744 154.737 127.006 155.303C127.257 155.815 127.48 156.344 127.673 156.885C128.067 157.916 128.427 158.894 128.755 159.813C129.321 161.366 129.815 162.951 130.236 164.562C130.611 165.919 130.87 167.315 131.01 168.728C130.983 168.64 130.965 168.55 130.957 168.458C130.924 168.279 130.884 168.011 130.817 167.66C130.629 166.63 130.395 165.611 130.116 164.606C129.762 163.292 129.248 161.702 128.581 159.888C128.247 158.977 127.88 158.006 127.48 156.982C127.285 156.45 127.062 155.932 126.812 155.43C126.568 154.908 126.198 154.474 125.745 154.176H125.818L94.1035 161.335L94.2304 161.075C95.0908 163.591 95.8653 166.211 96.7128 168.855C97.858 172.708 99.275 176.453 100.951 180.055C101.37 180.896 101.847 181.7 102.379 182.458C102.912 183.18 103.535 183.814 104.228 184.34C105.649 185.267 107.255 185.78 108.899 185.834C110.502 185.991 112.083 186.05 113.605 186.297C114.372 186.431 115.106 186.588 115.84 186.662C116.201 186.7 116.568 186.737 116.928 186.737C117.289 186.737 117.649 186.737 118.01 186.737C120.654 186.624 123.227 185.738 125.472 184.169C127.328 182.866 128.813 180.998 129.756 178.785C130.452 177.107 130.881 175.305 131.024 173.461C131.111 172.294 131.111 171.12 131.024 169.952C131.024 169.549 130.971 169.25 130.957 169.041C130.95 168.936 130.953 168.832 130.964 168.728Z" fill="#263238"/>
<path d="M121.694 138.025C121.655 137.413 107.899 105.217 107.899 105.217C107.899 105.217 110.943 104.044 113.092 106.173C115.241 108.301 126.647 136.718 126.647 136.718L121.694 138.025Z" fill="#295F2B"/>
<path d="M55.9346 112.467C55.9346 112.467 68.3949 116.678 71.6719 130.655C74.9488 144.633 76.2835 149.494 76.2835 149.494L80.5015 147.732C80.5015 147.732 76.0833 114.207 60.1325 110.578C60.1325 110.578 56.4751 110.51 55.9346 112.467Z" fill="#295F2B"/>
<path d="M133.974 149.494C134.355 149.389 149.324 142.184 149.324 142.184C149.324 142.184 137.612 120.934 135.569 117.163C131.077 108.868 122.475 108.331 122.475 108.331L127.994 131.312C128.141 132.06 133.974 149.494 133.974 149.494Z" fill="#D6D6D6"/>
<path d="M69.0297 143.184C68.7742 142.862 68.5505 142.508 68.3623 142.132C67.9618 141.445 67.4013 140.437 66.6671 139.219C64.7913 136.035 62.7616 132.966 60.5871 130.028C58.4628 127.055 56.0499 124.356 53.3925 121.98C52.2552 121.05 51.0721 120.192 49.8486 119.411C50.2148 119.533 50.57 119.693 50.9098 119.889C51.314 120.112 51.7061 120.361 52.0844 120.636C52.6006 120.966 53.0977 121.332 53.5727 121.733C56.3225 124.043 58.8043 126.726 60.9608 129.722C63.1486 132.673 65.1553 135.787 66.9674 139.04C67.6348 140.28 68.1888 141.281 68.5424 142.027C68.74 142.393 68.9032 142.781 69.0297 143.184Z" fill="#263238"/>
<path d="M48.806 116.462C48.806 116.462 40.5502 118 40.3634 141.721C40.1765 165.442 63.7624 204.314 68.0004 208.233C72.2384 212.153 77.0904 214.789 89.8641 212.668C105.882 210.01 132.991 199.975 132.991 199.975L122.694 186.348L86.2537 184.504L63.0283 131.088C63.0283 131.088 56.728 115.424 48.806 116.462Z" fill="#AE7461"/>
<path d="M44.4552 173.013C44.4552 173.013 32.9892 132.821 44.6554 118.993C46.1704 117.193 48.5997 115.595 50.8021 115.738C53.4717 115.902 56.2147 117.865 60.1457 123.689C69.3492 137.383 76.2967 160.216 76.2967 160.216L44.4552 173.013Z" fill="#D6D6D6"/>
<path d="M65.9722 131.312C66.0656 131.268 68.4416 137.711 71.3113 145.693C74.1812 153.675 76.3903 160.178 76.3035 160.215C76.2168 160.253 73.8342 153.817 70.9643 145.835C68.0945 137.853 65.8854 131.35 65.9722 131.312Z" fill="#263238"/>
<path d="M125.865 123.891C126.042 124.191 126.189 124.511 126.306 124.846C126.566 125.467 126.926 126.384 127.353 127.519C128.222 129.76 129.356 132.955 130.464 136.48C131.572 140.003 132.466 143.282 133.08 145.656C133.387 146.843 133.614 147.807 133.747 148.47C133.844 148.814 133.909 149.166 133.941 149.524C133.809 149.199 133.702 148.861 133.62 148.515C133.414 147.769 133.147 146.85 132.833 145.731C132.166 143.386 131.238 140.153 130.123 136.607C129.009 133.06 127.921 129.887 127.113 127.602L126.165 124.884C126.041 124.563 125.941 124.231 125.865 123.891Z" fill="#263238"/>
<path d="M155.578 199.983C155.578 199.983 164.053 195.652 164.053 187.192C164.053 178.733 159.469 166.547 157.786 162.239C155.978 157.595 148.123 142.475 148.123 142.475L133.894 148.657L139.347 175.425L100.844 182.988L105.109 199.632L155.578 199.983Z" fill="#AE7461"/>
<path d="M130.143 177.232L133.4 165.457L135.855 155.75L142.797 149.778C142.797 149.778 145.145 150.083 144.418 152.114C143.69 154.146 140.154 157.819 140.154 157.819L138.057 164.36L140.46 159.678C141.108 158.39 142.087 157.349 143.27 156.691L145.052 155.706C145.956 155.205 146.963 154.984 147.969 155.063L151.352 155.347C151.352 155.347 151.899 158.14 149.35 158.199L147.648 158.342L143.81 161.253L141.488 167.577L144.645 162.089C144.879 161.685 145.216 161.368 145.613 161.178L148.236 159.924C149.157 159.486 150.182 159.399 151.152 159.678L153.521 160.537C153.521 160.537 154.189 162.583 152.453 162.583C151.635 162.606 150.817 162.539 150.01 162.381L147.007 164.337L144.338 170.534L148.008 167.152C148.647 166.564 149.41 166.173 150.224 166.017L154.676 165.181C154.676 165.181 156.358 166.786 154.515 167.921C152.983 168.765 151.41 169.512 149.804 170.161L146.827 174.245L130.143 177.232Z" fill="#AE7461"/>
<path d="M102.012 184.355C102.012 184.355 93.8497 172.946 91.6735 171.535C89.4982 170.123 80.8153 172.812 80.8153 172.812C80.6017 174.238 80.3281 174.775 81.2759 176.262L69.6164 176.492C69.2111 176.492 68.8114 176.598 68.4487 176.8C68.086 177.002 67.7702 177.295 67.5263 177.657C67.2823 178.019 67.1169 178.44 67.0429 178.886C66.969 179.332 66.9886 179.791 67.1003 180.226V180.293C67.8211 182.533 70.771 184.206 70.771 184.206C70.771 184.206 68.9557 185.527 71.4717 188.917C73.9878 192.307 75.7431 192.24 75.7431 192.24C75.7431 192.24 74.0078 191.993 76.0835 195.293C78.1591 198.594 79.6207 199.572 79.6207 199.572C79.6207 199.572 81.4494 202.222 86.502 202.559C91.5534 202.895 102.172 201.416 105.709 199.572C105.709 199.572 110.455 197.578 110.421 197.137C110.388 196.697 108.986 183.288 108.986 183.288L102.012 184.355Z" fill="#AE7461"/>
<path d="M135.481 199.4C134.826 199.574 134.153 199.652 133.479 199.632C132.145 199.684 130.142 199.729 127.539 199.759C122.387 199.818 114.939 199.826 105.762 199.759H105.816C103.915 200.587 101.939 201.18 99.9221 201.528C97.8403 201.956 95.6667 202.285 93.4021 202.514C91.0707 202.793 88.7238 202.875 86.3812 202.76C85.1464 202.667 83.9281 202.393 82.7569 201.946C81.5344 201.507 80.4273 200.738 79.5334 199.706L79.5735 199.751C78.4287 198.784 77.4187 197.632 76.5768 196.331C76.1183 195.678 75.7033 194.986 75.3354 194.263C75.1383 193.883 75.0049 193.465 74.9417 193.031C74.9195 192.898 74.9261 192.761 74.9609 192.631C74.9958 192.501 75.0578 192.382 75.1419 192.285C75.2329 192.197 75.3393 192.131 75.4543 192.093C75.5693 192.054 75.6902 192.043 75.8094 192.06V192.441C74.9595 192.311 74.1582 191.92 73.4935 191.314C72.8196 190.742 72.2021 190.091 71.6515 189.373C71.0563 188.657 70.5774 187.831 70.2366 186.931C70.0695 186.457 70.0054 185.945 70.0496 185.437C70.072 185.17 70.1427 184.911 70.2574 184.674C70.3722 184.438 70.5286 184.23 70.7171 184.064V184.407C69.9117 184.049 69.1529 183.573 68.4613 182.988C68.1038 182.691 67.7849 182.339 67.5135 181.944C67.2179 181.538 67.0263 181.05 66.9596 180.533C66.8923 180.012 66.939 179.481 67.096 178.985C67.253 178.489 67.5154 178.044 67.8606 177.687C68.5762 177.027 69.4348 176.589 70.35 176.418C71.5462 176.165 72.7679 176.097 73.9807 176.216L81.2753 176.075L81.1418 176.381C80.7884 175.872 80.5585 175.271 80.4745 174.634C80.4711 174.012 80.5384 173.392 80.6747 172.789V172.67H80.7815C82.8963 172.023 85.0451 171.525 87.215 171.177C88.2846 171.004 89.3672 170.954 90.4454 171.028C90.7173 171.055 90.9875 171.105 91.2525 171.177C91.5193 171.271 91.7715 171.409 92.0005 171.588C92.4277 171.939 92.8291 172.329 93.2014 172.752C94.6965 174.387 96.0115 176.127 97.2999 177.837C98.5874 179.547 99.802 181.242 100.977 182.914L100.83 182.855L134.407 176.486L143.898 174.731L146.407 174.275L147.074 174.17H147.295L147.081 174.223L146.414 174.365L143.911 174.865L134.441 176.717L100.87 183.19H100.776L100.723 183.108C99.549 181.436 98.3206 179.746 97.0391 178.038C95.7576 176.343 94.4366 174.611 92.9612 172.991C92.6027 172.584 92.215 172.212 91.7998 171.878C91.5957 171.719 91.3709 171.595 91.1325 171.512C90.8863 171.45 90.6367 171.402 90.3853 171.371C89.3328 171.303 88.2769 171.358 87.2356 171.535C85.0805 171.884 82.9473 172.382 80.8482 173.029L80.9683 172.879C80.8444 173.449 80.7795 174.032 80.7748 174.619C80.8591 175.191 81.0754 175.729 81.4022 176.179L81.589 176.478H81.262L73.9673 176.627C72.7903 176.509 71.6044 176.574 70.4435 176.821C69.5905 176.976 68.7892 177.381 68.1209 177.994C67.8155 178.308 67.5829 178.7 67.4434 179.137C67.3038 179.574 67.2615 180.043 67.32 180.503C67.4997 181.421 67.993 182.225 68.6949 182.742C69.3607 183.303 70.0901 183.763 70.8639 184.109L71.1509 184.236L70.8906 184.452C70.7408 184.586 70.6165 184.752 70.5248 184.941C70.4331 185.129 70.3759 185.336 70.3566 185.55C70.3157 185.999 70.373 186.452 70.5236 186.872C70.8467 187.725 71.2981 188.511 71.8584 189.194C72.3926 189.893 72.9923 190.526 73.647 191.082C74.2521 191.636 74.9775 191.998 75.7492 192.135V192.509C75.6112 192.49 75.4721 192.533 75.3622 192.628C75.3163 192.686 75.2839 192.756 75.2676 192.831C75.2513 192.907 75.2517 192.986 75.2687 193.061C75.3261 193.445 75.4436 193.814 75.6158 194.152C76.695 196.191 78.0893 198.002 79.7336 199.497C80.5911 200.473 81.6465 201.203 82.8104 201.625C83.949 202.06 85.1338 202.326 86.334 202.417C88.6603 202.535 90.9918 202.46 93.3086 202.192C95.5646 201.962 97.7331 201.648 99.8089 201.23C101.803 200.888 103.759 200.307 105.642 199.497C114.819 199.58 122.267 199.61 127.419 199.602C129.996 199.602 131.998 199.602 133.352 199.55C134.065 199.572 134.777 199.521 135.481 199.4Z" fill="#6F4439"/>
<path d="M130.142 177.232L130.443 177.165L131.297 177.008L134.574 176.389L146.754 174.148L146.687 174.193L149.698 170.072C150.858 169.593 152.073 169.071 153.315 168.452C153.621 168.302 153.928 168.138 154.229 167.958C154.53 167.803 154.794 167.573 155.003 167.287C155.41 166.697 155.003 165.868 154.523 165.375L154.636 165.412L151.913 165.927L150.512 166.196C150.052 166.261 149.602 166.396 149.177 166.6C148.733 166.813 148.32 167.103 147.956 167.458L146.828 168.458L144.438 170.699L143.897 171.191L144.198 170.49L146.834 164.285V164.24H146.881L149.884 162.284H149.938H150.004C150.805 162.43 151.616 162.495 152.427 162.478C152.609 162.503 152.793 162.468 152.958 162.378C153.123 162.288 153.26 162.146 153.354 161.97C153.48 161.552 153.468 161.096 153.321 160.686L153.428 160.798L151.653 160.156C151.083 159.906 150.476 159.782 149.864 159.79C149.249 159.812 148.645 159.975 148.088 160.267L146.321 161.112C146.033 161.253 145.706 161.388 145.446 161.537C145.18 161.697 144.952 161.925 144.778 162.202C144.422 162.809 144.069 163.422 143.717 164.038L141.575 167.772L141.268 167.593C141.662 166.517 142.089 165.352 142.522 164.195C142.883 163.217 143.244 162.246 143.597 161.276V161.224H143.644C144.93 160.228 146.209 159.257 147.481 158.312H147.521H147.562L149.264 158.177C149.847 158.116 150.391 157.819 150.792 157.341C150.964 157.09 151.084 156.801 151.146 156.492C151.206 156.184 151.206 155.865 151.146 155.557L151.299 155.698L149.063 155.519C148.342 155.417 147.613 155.392 146.888 155.444C146.187 155.539 145.507 155.78 144.886 156.154C144.218 156.52 143.551 156.863 142.97 157.229C142.366 157.613 141.822 158.104 141.362 158.685C140.912 159.272 140.526 159.916 140.213 160.604C139.519 161.948 138.839 163.274 138.171 164.584L137.884 164.435L139.98 157.901C141.22 156.626 142.367 155.243 143.41 153.765C143.871 153.018 144.398 152.271 144.351 151.457C144.328 151.262 144.263 151.075 144.162 150.913C144.06 150.75 143.927 150.617 143.77 150.524C143.449 150.32 143.096 150.185 142.73 150.129H142.829L135.869 156.101L135.916 156.034C135.055 159.394 134.28 162.426 133.607 165.076C132.932 167.727 132.271 169.937 131.731 171.796C131.19 173.656 130.803 175.051 130.523 176.022C130.389 176.5 130.283 176.866 130.209 177.127C130.136 177.389 130.089 177.516 130.089 177.516C130.089 177.516 130.089 177.396 130.182 177.157C130.276 176.919 130.343 176.538 130.47 176.067C130.73 175.089 131.137 173.663 131.604 171.834C132.071 170.004 132.719 167.697 133.426 165.046C134.133 162.396 134.848 159.35 135.688 155.982V155.937H135.722L142.656 149.964H142.702H142.823C143.227 150.026 143.618 150.176 143.971 150.405C144.164 150.52 144.331 150.685 144.456 150.886C144.581 151.088 144.662 151.319 144.692 151.562C144.709 152.047 144.6 152.526 144.378 152.943C144.182 153.347 143.959 153.734 143.71 154.1C142.666 155.601 141.512 157.002 140.26 158.289L140.3 158.222L138.211 164.763L137.925 164.614L139.966 160.626C140.29 159.918 140.686 159.253 141.148 158.648C141.631 158.036 142.202 157.519 142.836 157.117C143.504 156.721 144.125 156.371 144.771 156.027C145.434 155.631 146.156 155.378 146.9 155.28C147.647 155.224 148.395 155.246 149.137 155.347L151.372 155.527H151.499V155.661C151.573 156.027 151.574 156.407 151.501 156.774C151.428 157.14 151.284 157.484 151.079 157.782C150.622 158.331 150.004 158.675 149.337 158.752L147.635 158.894H147.721C146.454 159.85 145.175 160.821 143.885 161.806L143.945 161.716C143.59 162.687 143.23 163.657 142.87 164.636C142.443 165.801 142.015 166.958 141.615 168.033L141.308 167.854L143.457 164.121L144.518 162.269C144.725 161.961 144.989 161.706 145.292 161.522C145.613 161.335 145.893 161.224 146.2 161.075L147.968 160.231C148.566 159.923 149.213 159.753 149.871 159.731C150.519 159.72 151.163 159.852 151.766 160.118L153.541 160.761H153.621V160.843C153.788 161.352 153.788 161.91 153.621 162.418C153.515 162.681 153.321 162.887 153.081 162.994C152.87 163.092 152.642 163.144 152.413 163.143C151.578 163.161 150.742 163.09 149.917 162.933H150.037L147.027 164.882L147.094 164.8L144.425 170.997L144.185 170.788L146.581 168.548L147.749 167.473C148.136 167.104 148.57 166.802 149.036 166.577C149.497 166.36 149.982 166.217 150.478 166.152L151.88 165.89L154.602 165.382H154.669L154.716 165.427C155.012 165.712 155.241 166.073 155.384 166.48C155.457 166.688 155.483 166.912 155.459 167.133C155.436 167.355 155.364 167.566 155.25 167.749C155.018 168.072 154.72 168.327 154.382 168.496C154.069 168.675 153.755 168.839 153.448 168.996C152.193 169.609 150.972 170.131 149.804 170.602H149.857L146.828 174.694V174.73L134.527 176.486L131.277 177.046L130.443 177.187L130.142 177.232Z" fill="#6F4439"/>
</g>
<defs>
<clipPath id="clip0_1797_1919">
<rect width="193" height="193" fill="white" transform="translate(0 0.235405)"/>
</clipPath>
</defs>
</svg>
