<svg width="175" height="174" viewBox="0 0 175 174" fill="none" xmlns="http://www.w3.org/2000/svg">
<g clip-path="url(#clip0_1797_2068)">
<path d="M-10.5989 139.702C-8.7514 145.16 -5.53672 168.414 -4.6222 175.074C-4.46516 176.243 -4.01529 177.343 -3.3197 178.26C-2.11881 179.848 0.301429 183.033 4.84632 189.068C7.67301 192.819 10.6568 197.454 12.8276 200.461C19.3401 209.503 19.922 215.597 18.481 220.837C16.0977 229.531 11.2664 226.891 9.11409 220.172C8.23836 217.35 6.99406 214.678 5.41906 212.232C5.53175 213.709 5.45323 215.195 5.18812 216.649C4.60615 218.981 2.91567 219.438 2.12123 219.289C1.50232 219.16 1.89954 217.542 1.26215 214.892C0.338389 211.111 -0.299002 209.711 -0.151201 204.808C-0.118869 203.88 -0.386766 202.968 -0.908689 202.228C-4.74228 196.968 -9.03776 192.303 -12.7051 188.155C-15.4237 185.053 -17.1853 181.127 -17.7488 176.91L-23.8825 131.256C-18.303 131.524 -12.9637 132.526 -10.5989 139.702Z" fill="#FFA8A7"/>
<path d="M71.7331 111.287C71.7331 111.287 75.5667 114.681 76.3518 117.897C76.4202 116.291 76.1181 114.692 75.4734 113.241C74.8295 111.79 73.8614 110.533 72.6568 109.58L71.7331 111.287Z" fill="#BEBEBE"/>
<path d="M32.8994 93.6307L33.1765 94.1468L33.9987 93.8292C33.9987 93.8292 33.8878 97.3525 38.2295 98.861C37.206 98.9646 36.1778 98.729 35.2827 98.1862C35.4749 98.5836 35.5524 99.0336 35.5063 99.4784C35.461 99.924 35.2929 100.345 35.0241 100.687C35.1977 101.078 35.2679 101.513 35.2254 101.945C35.1829 102.375 35.0296 102.785 34.7839 103.129C34.5104 103.536 34.1317 103.846 33.6948 104.023C33.2569 104.2 32.7812 104.233 32.3267 104.121C32.3267 104.121 35.2827 103.228 34.1742 100.737C34.4061 100.451 34.5733 100.112 34.6619 99.7444C34.7497 99.3771 34.758 98.9935 34.6841 98.6228C34.6111 98.2521 34.4578 97.9048 34.2379 97.6084C34.0181 97.3122 33.7363 97.075 33.4167 96.9158C33.5119 96.522 33.5119 96.1086 33.4167 95.7149L22.9783 99.526C22.7556 99.1039 22.5672 98.6623 22.4148 98.206C22.4148 98.206 21.9621 98.206 21.3063 98.206L21.0938 96.9356L32.8994 93.6307Z" fill="#F28F8F"/>
<path d="M143.686 137.687C143.686 149.349 142.079 243.247 142.079 243.247C142.337 246.602 145.145 252.795 144.545 265.687C143.714 283.205 142.614 334.774 142.614 334.774C140.74 335.809 138.671 336.371 136.565 336.417C134.458 336.463 132.37 335.993 130.458 335.042C130.458 335.042 121.599 265.002 119.65 247.644C117.941 232.489 112.888 189.008 112.888 189.008L107.65 241.54C108.915 247.919 109.368 254.453 108.999 260.963C108.491 268.992 104.98 316.343 104.98 316.343C104.98 316.343 99.8351 320.244 92.3711 317.425C92.3711 317.425 86.1635 248.944 86.0342 241.54C85.8863 233.144 89.6645 137.558 89.6645 137.558L143.686 137.687Z" fill="#295F2B"/>
<path d="M73.4703 132.149C76.0107 132.913 79.3362 129.122 81.507 126.462C95.1044 109.808 99.3259 104.875 105.284 94.0872L103.889 71.7961C94.2545 71.4785 89.1092 81.5819 83.8622 91.0899C80.1242 98.1473 76.0384 104.986 71.6228 111.575C71.6228 111.575 51.3833 95.566 45.6283 91.9931C39.8733 88.4201 33.7765 88.7675 28.0769 89.3531C22.3773 89.9386 19.5321 90.425 18.1096 91.9931C17.4075 92.7771 16.0958 95.963 16.5115 96.5585C17.7493 98.3648 22.3681 98.1862 22.3681 98.1862C23.0609 100.148 24.2812 101.844 25.8728 103.06C27.4645 104.276 29.3572 104.956 31.3101 105.014C38.2937 105.362 39.7809 104.459 41.5176 105.441C43.2542 106.424 63.4661 129.132 73.4703 132.149Z" fill="#FFCBC0"/>
<path d="M88.4914 118.82L103.271 97.8884C103.271 97.8884 111.133 81.2147 105.562 71.4785C105.562 71.4785 95.9369 70.7242 90.7823 78.2571C86.5238 84.5197 76.0024 103.615 71.707 111.287L55.5782 99.0695C55.5782 99.0695 56.1971 106.017 47.5692 111.406C51.2929 116.145 55.435 120.486 59.9383 124.368C67.6979 131.196 72.1781 133.945 74.6353 133.3C77.5728 132.447 84.9626 124.001 88.4914 118.82Z" fill="#D6D6D6"/>
<path d="M14.2116 97.2632C14.9968 96.9357 16.3362 100.588 15.551 100.916L44.1875 89.9089C46.1736 89.0653 44.1136 83.4677 42.1275 84.3113L14.2116 97.2632Z" fill="#455A64"/>
<path d="M25.111 97.2631L15.5501 100.935C16.3353 100.608 14.9958 96.9654 14.2106 97.283L23.5313 92.9657C25.0555 92.3007 26.5982 96.618 25.111 97.2631Z" fill="#295F2B"/>
<path opacity="0.1" d="M44.8692 87.1597C45.1648 88.3606 45.0447 89.5516 44.2134 89.9089L15.5769 100.915C15.9371 100.767 15.854 99.923 15.5769 99.0794L44.8692 87.1597Z" fill="black"/>
<path d="M9.6473 95.9928C11.3045 95.868 12.958 96.2794 14.3954 97.1738C14.8665 97.6344 15.2333 98.2049 15.467 98.8415C15.7007 99.4784 15.7958 100.164 15.7441 100.846C15.2702 102.555 14.3307 104.073 13.0467 105.203C12.0435 106.256 10.8851 107.124 9.61959 107.774L7.50417 102.226L5.46268 96.6478C6.81321 96.1774 8.22748 95.9559 9.6473 95.9928Z" fill="#455A64"/>
<path d="M10.9133 105.342C11.0463 103.866 10.8532 102.378 10.3498 100.998C9.84541 99.6183 9.04451 98.386 8.01267 97.4021C6.03583 95.7248 4.12365 96.5287 3.75415 99.2084C3.61928 100.684 3.81142 102.173 4.3158 103.554C4.82017 104.933 5.62106 106.166 6.65475 107.148C8.62235 108.826 10.5345 108.022 10.9133 105.342Z" fill="#37474F"/>
<path d="M46.5596 92.5687C44.1948 90.7922 41.4235 87.5071 36.0195 87.1597C30.6155 86.8123 27.5394 85.4824 26.3662 86.5245C25.1931 87.5666 27.3639 91.1793 30.283 91.8938C34.3105 92.8863 34.1904 94.7026 35.65 95.4767C36.0657 95.705 46.5596 92.5687 46.5596 92.5687Z" fill="#FFA8A7"/>
<path opacity="0.4" d="M143.686 137.687C143.686 149.349 142.079 243.247 142.079 243.247C142.337 246.602 145.145 252.795 144.545 265.687C143.714 283.205 142.614 334.774 142.614 334.774C140.74 335.809 138.671 336.371 136.565 336.417C134.458 336.463 132.37 335.993 130.458 335.042C130.458 335.042 121.599 265.002 119.65 247.644C117.941 232.489 112.888 189.008 112.888 189.008L107.65 241.54C108.915 247.919 109.368 254.453 108.999 260.963C108.491 268.992 104.98 316.343 104.98 316.343C104.98 316.343 99.8351 320.244 92.3711 317.425C92.3711 317.425 86.1635 248.944 86.0342 241.54C85.8863 233.144 89.6645 137.558 89.6645 137.558L143.686 137.687Z" fill="black"/>
<path d="M140.527 75.2598C140.527 75.2598 147.168 76.5898 146.568 93.9284L144.333 124.368C144.333 138.689 144.517 151.572 144.582 162.142C143.463 163.414 142.066 164.366 140.517 164.911L138.67 152.604L136.259 167.183C120.555 172.454 97.2117 168.285 87.8078 160.683C88.3067 150.192 89.0826 111.763 90.1727 93.1245C90.9579 79.726 93.6275 72.9573 105.877 71.4785L120.971 72.1931L131.335 73.1856L140.527 75.2598Z" fill="#FAFAFA"/>
<path d="M106.512 150.391C99.1224 148.584 91.2889 142.759 88.6285 137.379C88.6285 137.379 88.8132 131.047 89.0349 123.842C95.735 127.722 102.213 132.032 108.434 136.744C120.443 145.895 138.825 139.791 138.825 139.791L142.077 116.12C142.077 116.12 136.008 96.8463 137.172 86.5742L146.567 88.9561C146.65 90.4647 146.677 92.1221 146.567 93.9781L144.331 124.417C144.331 138.739 144.516 151.621 144.58 162.191C143.461 163.464 142.064 164.415 140.516 164.96L138.668 152.654L136.257 167.233C127.02 170.32 115.223 170.211 105.118 167.977C110.558 168.295 119.981 168.424 125.782 166.062C128.118 165.252 130.125 163.607 131.47 161.399C132.815 159.193 133.415 156.558 133.172 153.934C133.172 153.934 118.826 153.418 106.512 150.391Z" fill="#BEBEBE"/>
<path d="M125.598 38.1609C125.598 47.8971 118.494 53.0481 109.792 53.0481C101.09 53.0481 94.2638 48.3934 92.3609 38.8656C88.8783 21.4574 101.09 18.6983 109.792 18.6983C118.494 18.6983 125.598 28.4247 125.598 38.1609Z" fill="#263238"/>
<path d="M127.445 38.022L129.524 40.4635L130.605 27.0848C130.605 27.0848 132.341 26.6184 134.18 29.7149C135.759 32.3648 136.11 38.3098 133.635 45.2869C133.635 45.2869 131.224 57.9907 130.254 60.0749C129.626 61.3535 128.559 62.3185 127.279 62.7645L127.445 38.022Z" fill="#263238"/>
<path d="M132.276 29.6653L137.819 29.7744C137.864 29.3831 137.833 28.9859 137.727 28.6085C137.62 28.2309 137.442 27.8815 137.203 27.5824C136.964 27.2833 136.669 27.0413 136.337 26.8719C136.006 26.7024 135.645 26.6093 135.278 26.5985C134.514 26.6205 133.784 26.9462 133.229 27.5125C132.675 28.0789 132.335 28.8458 132.276 29.6653Z" fill="#263238"/>
<path d="M132.959 28.2361L137.098 23.9684C136.857 23.6609 136.559 23.4111 136.223 23.2352C135.887 23.0592 135.521 22.961 135.147 22.947C134.773 22.933 134.401 23.0034 134.055 23.1537C133.708 23.3039 133.395 23.5308 133.135 23.8195C132.595 24.398 132.278 25.173 132.246 25.991C132.213 26.809 132.468 27.6103 132.959 28.2361Z" fill="#263238"/>
<path d="M127.722 45.8725C128.646 46.4878 129.939 44.5227 131.057 43.2027C132.175 41.8827 135.676 40.6421 137.523 44.9693C139.371 49.2965 136.193 53.465 133.606 54.9636C130.262 56.9486 127.436 53.0977 127.436 53.0977L127.038 73.9399C124.886 77.5128 120.24 76.8478 117.108 78.2571C114.845 79.2496 114.254 82.5744 113.043 83.6761C111.196 78.7137 109.903 76.5104 110.817 73.4039V67.2803C110.817 67.2803 106.3 68.0445 104.092 67.6674C100.397 67.0322 97.9492 63.8364 97.0163 59.3504C95.4274 51.7579 94.7716 46.2397 95.0579 35.2728C95.4921 20.1077 113.736 16.8722 122.383 22.9859C131.029 29.0996 127.722 45.8725 127.722 45.8725Z" fill="#FFCBC0"/>
<path d="M113.071 83.686C114.18 81.8698 113.755 77.9495 115.473 77.1059C117.496 76.1134 125.68 73.5627 127.195 67.3696V65.5335C127.195 65.5335 128.119 65.4442 128.738 66.8734L131.398 73.2153C131.214 75.0519 130.672 76.8265 129.808 78.4235C128.944 80.0205 127.777 81.4043 126.382 82.4851C123.736 84.5822 120.598 85.8438 117.32 86.1275C117.32 86.1275 116.683 79.7161 115.889 79.6168C115.094 79.5176 114.956 82.763 113.071 83.686Z" fill="#BEBEBE"/>
<path d="M113.071 83.686C112.632 82.4126 112.383 81.0729 112.332 79.7161C112.332 78.2373 112.332 77.3143 111.723 76.431C111.176 75.5464 110.872 74.5147 110.845 73.4535C110.845 72.6298 110.845 68.0743 110.845 68.0743C110.486 68.0547 110.13 68.1548 109.826 68.3608C109.521 68.5669 109.284 68.8688 109.145 69.2255C108.61 70.3471 107.233 73.6917 106.947 74.4658C106.66 75.24 105.875 79.0908 106.725 81.7209C107.084 83.0876 107.806 84.3122 108.804 85.2442C108.804 85.2442 108.804 79.4084 110.457 79.1007C110.965 78.9717 111.409 82.2965 113.071 83.686Z" fill="#BEBEBE"/>
<path d="M122.004 36.3447C122.193 37.3093 122.54 38.2301 123.029 39.0641C123.796 40.3444 124.988 41.4063 125.292 42.895C125.386 43.8113 125.402 44.7348 125.339 45.6541C125.308 46.1147 125.394 46.5757 125.588 46.9879C125.781 47.4003 126.075 47.7488 126.438 47.9964C128.285 48.9194 128.498 45.5251 131.057 43.2027C131.833 42.508 131.925 40.8406 132.082 39.8382C132.368 38.022 132.525 36.166 132.655 34.32C132.766 32.7618 132.913 31.1738 132.913 29.6057C132.983 27.8386 132.853 26.0689 132.525 24.3356C131.454 19.8198 127.685 17.289 123.63 16.2072C120.101 15.2644 116.424 15.314 112.803 14.9666C109.182 14.6192 105.413 13.8153 102.559 11.4433C101.931 10.9272 101.108 10.302 100.434 10.7486C100.233 10.9206 100.071 11.1396 99.9606 11.3889C99.8501 11.6383 99.7941 11.9115 99.7966 12.1877C99.593 14.0594 99.8148 15.9563 100.443 17.7158C99.8876 17.9586 99.2925 18.0792 98.6927 18.0707C98.093 18.0622 97.5009 17.9246 96.9515 17.6662C95.8337 17.2295 94.7899 16.5546 93.6444 16.1874C93.4892 16.1203 93.32 16.0996 93.1548 16.1278C93.0388 16.1732 92.9324 16.2431 92.842 16.3335C92.7515 16.4239 92.6789 16.5328 92.6283 16.6538C91.8746 18.0148 91.4255 19.5454 91.3165 21.1249C91.2075 22.7042 91.4415 24.2893 92.0001 25.7549C93.007 28.3552 96.2309 30.3104 98.5865 31.2433C101.85 32.35 105.285 32.7481 108.692 32.4144C112.923 32.1762 116.942 30.0523 121.191 29.9035C121.358 29.8779 121.527 29.9243 121.662 30.0325C121.712 30.1039 121.748 30.1858 121.767 30.273C121.786 30.3601 121.788 30.4506 121.773 30.5386C121.617 32.4766 121.695 34.428 122.004 36.3447Z" fill="#263238"/>
<path d="M110.864 67.2902C110.864 67.2902 119.048 65.4442 121.949 63.7471C123.647 62.7447 125.024 61.216 125.902 59.3603C125.461 61.2203 124.686 62.9701 123.621 64.5113C121.524 67.4887 110.864 69.702 110.864 69.702V67.2902Z" fill="#F28F8F"/>
<path d="M111.39 44.0165C111.386 44.2571 111.427 44.4962 111.509 44.7199C111.592 44.9436 111.715 45.1476 111.871 45.3201C112.027 45.4926 112.214 45.6301 112.42 45.7249C112.626 45.8198 112.847 45.8699 113.071 45.8725C113.297 45.8549 113.517 45.7895 113.72 45.6801C113.922 45.5707 114.102 45.4194 114.25 45.2349C114.397 45.0505 114.51 44.8364 114.58 44.6052C114.65 44.3739 114.677 44.1301 114.66 43.8875C114.676 43.641 114.644 43.3937 114.566 43.1613C114.487 42.9291 114.364 42.717 114.205 42.5389C114.046 42.3608 113.853 42.2205 113.64 42.1273C113.427 42.0341 113.198 41.9899 112.969 41.9975C112.739 42.0052 112.513 42.0646 112.306 42.1719C112.099 42.2792 111.915 42.4319 111.766 42.6203C111.617 42.8087 111.507 43.0285 111.442 43.2656C111.377 43.5027 111.359 43.7517 111.39 43.9967V44.0165Z" fill="#263238"/>
<path d="M113.819 36.9005L117.385 38.9648C117.618 38.4179 117.653 37.797 117.482 37.2241C117.311 36.6512 116.947 36.1676 116.461 35.8683C116.226 35.738 115.969 35.6613 115.706 35.6432C115.442 35.6249 115.178 35.6656 114.93 35.7626C114.681 35.8595 114.455 36.0107 114.263 36.2066C114.072 36.4024 113.921 36.6386 113.819 36.9005Z" fill="#263238"/>
<path d="M111.604 56.2638L107.862 57.8418C107.936 58.1178 108.062 58.3745 108.232 58.5958C108.403 58.817 108.614 58.9982 108.852 59.1277C109.091 59.2572 109.352 59.3324 109.618 59.3485C109.885 59.3646 110.152 59.3213 110.403 59.2214C110.913 58.982 111.321 58.5442 111.543 57.9958C111.766 57.4472 111.788 56.8286 111.604 56.2638Z" fill="#F28F8F"/>
<path d="M96.4911 39.2725L100.094 37.1783C99.9967 36.9114 99.8469 36.6701 99.6548 36.4713C99.4626 36.2724 99.2327 36.1207 98.9808 36.0263C98.7289 35.932 98.4609 35.8974 98.1954 35.9249C97.9298 35.9525 97.673 36.0415 97.4426 36.1859C96.9573 36.4834 96.5917 36.9633 96.416 37.5332C96.2403 38.103 96.2671 38.7225 96.4911 39.2725Z" fill="#263238"/>
<path d="M97.7006 44.2051C97.697 44.4296 97.7348 44.6527 97.812 44.8614C97.8891 45.0702 98.004 45.2603 98.1501 45.4209C98.2962 45.5816 98.4704 45.7094 98.6629 45.7971C98.8553 45.8849 99.062 45.9307 99.271 45.932C99.6943 45.8989 100.088 45.6873 100.367 45.3433C100.646 44.9993 100.786 44.5509 100.758 44.0959C100.766 43.8699 100.73 43.6448 100.654 43.4342C100.577 43.2237 100.461 43.0324 100.312 42.8722C100.164 42.7121 99.986 42.5865 99.7904 42.5032C99.5947 42.42 99.3852 42.3809 99.1749 42.3885C98.9646 42.3959 98.758 42.4499 98.5679 42.5469C98.3779 42.6438 98.2084 42.7819 98.0701 42.9523C97.9318 43.1227 97.8276 43.3219 97.764 43.5374C97.7005 43.7529 97.6789 43.9802 97.7006 44.2051Z" fill="#263238"/>
<path d="M105.599 42.5477L105.71 53.6833L99.7887 52.4129L105.599 42.5477Z" fill="#F28F8F"/>
<path d="M75.7063 99.526L104.453 106.404L109.94 131.256L108.407 132.615L79.2721 125.003L74.1729 100.886L75.7063 99.526Z" fill="#455A64"/>
<path d="M102.92 107.764L104.453 106.404L109.94 131.256L108.407 132.615L102.92 107.764Z" fill="#37474F"/>
<path d="M108.407 132.615L102.92 107.764L74.1723 100.886L79.2715 125.003L108.407 132.615Z" fill="#263238"/>
<path d="M79.2719 125.003L92.1957 134.799L114.412 139.791L108.408 132.615L79.2719 125.003Z" fill="#37474F"/>
<path d="M157.57 149.051C148.452 150.123 139.094 149.438 129.959 148.703C117.811 147.711 102.135 145.329 93.4978 136.913C91.812 135.2 90.5949 133.023 89.9783 130.62C89.2979 127.972 89.1437 125.199 89.5257 122.482C89.5913 121.445 89.9934 120.465 90.6619 119.713C91.2013 119.321 91.8289 119.092 92.479 119.05C93.129 119.008 93.7777 119.155 94.3569 119.475C98.4676 121.222 100.5 126.075 104.518 128.119C105.294 128.516 106.818 129.112 107.604 128.447C108.389 127.782 108.601 125.966 108.592 124.854C108.489 123.664 108.564 122.465 108.814 121.301C108.94 120.624 109.212 119.989 109.608 119.445C110.056 118.909 110.663 118.558 111.326 118.453C111.469 118.413 111.618 118.413 111.76 118.453C112.306 118.701 112.278 119.634 112.37 120.14C112.648 121.528 113.034 122.89 113.525 124.209C114.393 126.69 115.862 129.568 117.987 131.087C119.665 132.142 121.586 132.668 123.529 132.605H124.028C127.631 132.605 131.483 132.347 134.799 132.159C139.418 131.891 144.175 131.375 148.812 131.107L140.018 98.0968L141.173 75.6271C151.528 79.071 153.459 77.5525 159.925 103.595C166.391 129.638 168.239 133.648 168.655 138.024C169.07 142.401 168.063 147.81 157.57 149.051Z" fill="#FFCBC0"/>
<path d="M140.526 75.2598C144.115 75.1498 147.643 76.2656 150.605 78.4467C153.566 80.6278 155.807 83.7617 157.006 87.3979C160.396 97.4914 165.319 118.82 166.807 125.926C168.405 133.618 170.234 144.555 168.654 146.282C165.153 150.073 162.003 149.765 155.352 150.152C149.32 150.51 127.427 148.515 127.427 148.515C127.427 148.515 131.205 141.776 126.383 132.635L148.147 130.829C148.147 130.829 139.777 102.364 139.62 101.997C139.463 101.63 133.376 86.991 140.526 75.2598Z" fill="#D6D6D6"/>
<path d="M148.184 130.849C151.198 130.336 154.269 130.336 157.283 130.849C157.283 130.849 154.983 128.417 147.454 128.209L148.184 130.849Z" fill="#BEBEBE"/>
</g>
<defs>
<clipPath id="clip0_1797_2068">
<rect width="174.59" height="173.684" fill="white" transform="matrix(-1 0 0 1 174.705 0)"/>
</clipPath>
</defs>
</svg>
