<svg width="552" height="617" viewBox="0 0 552 617" fill="none" xmlns="http://www.w3.org/2000/svg">
<g filter="url(#filter0_d_2563_9658)">
<path d="M430.188 389.098C520.604 433.229 520.604 504.827 430.188 548.917C339.773 593.007 193.174 593.048 102.797 548.917C12.4201 504.786 12.3818 433.229 102.797 389.098C193.213 344.967 339.792 344.967 430.188 389.098Z" fill="#295F2B"/>
</g>
<path d="M331.952 496.797H215.779L215.274 465.295C211.584 450.954 209.875 419.563 211.351 408.795C214.97 383.754 221.778 359.28 231.609 335.972H234.499L324.646 335.072C324.646 335.072 328.619 415.177 331.952 496.797Z" fill="#263238"/>
<path d="M320.747 496.797H318.484C318.361 490.44 318.238 484.058 318.09 477.701C317.942 471.344 317.783 464.654 317.598 458.149C317.598 457.94 317.598 457.73 317.598 457.521C316.762 426.561 315.63 395.613 314.388 364.665C314.388 364.246 315.04 364.258 315.064 364.665C317.795 408.672 319.615 452.679 320.747 496.797Z" fill="#37474F"/>
<path d="M425.297 496.797H302.838C294.942 476.075 288.865 460.317 287.18 455.956C287.082 455.722 287.008 455.525 286.947 455.365L286.701 454.736C284.13 453.32 281.141 451.804 278.201 450.351C271.584 447.086 265.335 444.264 265.335 444.264C236.271 398.964 234.45 335.947 234.45 335.947L324.597 335.048L373.797 334.567C383.293 370.307 418.569 478.773 425.297 496.797Z" fill="#263238"/>
<path d="M383.391 496.797H380.205C373.12 480.781 366.158 464.629 359.861 448.256C347.561 416.323 337.647 382.307 338.533 347.762C338.546 347.701 338.579 347.647 338.627 347.608C338.675 347.57 338.735 347.548 338.797 347.548C338.859 347.548 338.919 347.57 338.967 347.608C339.015 347.647 339.048 347.701 339.062 347.762C339.308 352.012 339.677 356.263 340.058 360.513C343.133 395.366 354.818 429.16 368.151 461.266C373.071 473.167 378.2 484.994 383.391 496.797Z" fill="#37474F"/>
<path d="M318.705 457.533C312.269 457.559 305.842 457.04 299.493 455.981C293.084 454.847 287.082 452.778 280.846 451.053C274.93 449.365 268.644 449.156 262.58 448.244C256.388 447.413 250.35 445.678 244.659 443.094C244.389 442.959 244.18 443.365 244.438 443.488C249.964 446.391 255.724 448.823 261.658 450.757C267.808 452.642 274.204 452.839 280.44 454.305C286.861 455.808 293.035 457.829 299.628 458.531C306.009 459.246 312.458 459.072 318.791 458.014C319.025 457.915 318.939 457.533 318.705 457.533Z" fill="#37474F"/>
<path d="M304.61 496.797H301.03C298.98 491.113 296.975 485.426 295.016 479.734C292.322 471.812 289.357 463.964 287.107 455.944C287.045 455.759 286.996 455.562 286.947 455.365C286.836 454.958 286.713 454.564 286.615 454.133C286.516 453.702 286.947 453.8 287.057 454.022C287.402 454.724 287.734 455.439 288.066 456.153C292.088 464.777 295.311 473.524 298.853 482.222C300.821 487.085 302.74 491.943 304.61 496.797Z" fill="#37474F"/>
<path d="M284.253 155.545C249.53 176.945 190.072 238.311 193.233 255.83C199.1 288.133 278.324 318.982 294.093 326.276C300.784 329.393 318.349 269.604 311.251 266.13C305.101 263.099 260.969 250.902 260.526 245.001C260.342 242.537 280.895 212.119 297.5 176.107C310.194 148.523 294.523 149.213 284.253 155.545Z" fill="#F7A9A0"/>
<path d="M297.795 261.411C297.795 261.411 304.437 264.38 322.038 266.585C335.79 268.298 366.897 281.936 377.388 319.488C381.423 333.877 373.096 342.994 366.318 328.789C361.497 318.785 359.025 311.43 356.54 308.609C356.54 308.609 352.788 325.192 343.699 328.974C335.761 332.282 327.597 335.02 319.271 337.167C318.53 335.727 317.881 334.241 317.328 332.719C313.612 333.895 309.639 333.994 305.869 333.004C302.1 332.015 298.686 329.977 296.024 327.126L282.063 321.188L297.795 261.411Z" fill="#F7A9A0"/>
<path d="M333.355 271.772C338.275 277.082 348.656 288.503 353.871 300.798C359.664 314.449 367.143 342.304 357.032 346.481C349.652 349.548 345.839 339.163 345.839 339.163C345.839 339.163 346.503 351.335 339.21 352.628C332.555 353.86 330.108 345.606 330.108 345.606C330.108 345.606 329.247 353.059 322.617 352.998C314.646 352.887 317.771 337.29 309.788 330.194C308.017 328.555 333.355 271.772 333.355 271.772Z" fill="#F7A9A0"/>
<path d="M338.459 304.519C342.321 310.272 347.721 325.598 346.036 338.916C346.036 339.224 345.753 339.36 345.729 339.076C344.671 327.321 342.193 315.737 338.349 304.58C338.275 304.494 338.422 304.457 338.459 304.519Z" fill="#263238"/>
<path d="M324.867 310.777C327.684 316.087 332.555 332.128 330.39 345.569C330.39 345.865 330.083 345.988 330.07 345.704C329.617 333.914 327.83 322.214 324.744 310.827C324.738 310.81 324.738 310.792 324.745 310.776C324.752 310.76 324.765 310.747 324.781 310.74C324.798 310.734 324.816 310.734 324.832 310.741C324.848 310.748 324.861 310.761 324.867 310.777Z" fill="#263238"/>
<path d="M297.795 261.411L279.554 326.399C279.554 326.399 190.822 284.844 191.978 252.861C192.741 231.917 250.637 176.292 277.094 158.564C303.552 140.835 310.6 147.821 298.792 177.771C286.984 207.72 262.371 244.717 262.482 245.457C262.593 246.196 297.795 261.411 297.795 261.411Z" fill="#62EE6F"/>
<path d="M293.133 259.378L268.374 328.937C268.374 328.937 190.884 284.844 191.978 252.861C192.741 231.917 250.637 176.292 277.094 158.564C303.552 140.835 310.599 147.821 298.791 177.771C286.983 207.72 262.371 244.717 262.482 245.457C262.593 246.196 293.133 259.378 293.133 259.378Z" fill="#455A64"/>
<path d="M298.779 177.758C287.008 207.659 262.482 244.557 262.482 245.444C262.482 246.331 293.146 259.378 293.146 259.378L268.373 328.937C268.373 328.937 231.744 308.116 209.223 284.733L296.676 149.077C306.147 147.734 306.799 157.48 298.779 177.758Z" fill="#263238"/>
<path d="M328.779 181.343C319.431 182.575 303.33 165.611 298.312 153.66C297.967 152.835 299.997 144.778 302.002 134.872C303.232 128.86 304.388 122.133 305.028 115.912L342.985 129.464C342.985 129.464 337.807 142.104 336.762 152.946C336.682 153.802 336.682 154.664 336.762 155.521C336.762 155.644 336.762 155.792 336.762 155.952C337.045 160.831 337.819 180.173 328.779 181.343Z" fill="#F7A9A0"/>
<path d="M336.762 155.471C336.762 155.582 336.762 155.742 336.762 155.915C335.413 155.956 334.064 155.886 332.727 155.705C309.911 152.416 306.565 126.137 306.135 116.281L342.973 129.39C342.973 129.39 337.807 142.03 336.737 152.798C336.672 153.688 336.68 154.582 336.762 155.471Z" fill="#263238"/>
<path d="M352.53 58.7594C352.53 58.7594 362.998 63.4779 364.695 74.4304C366.392 85.3829 363.674 96.7419 362.727 97.2717C361.78 97.8014 352.53 58.7594 352.53 58.7594Z" fill="#263238"/>
<path d="M298.336 70.3894C293.908 84.2248 300.661 124.474 310.403 133.566C324.523 146.749 347.93 148.35 359.172 131.263C370.082 114.717 360.402 62.4184 349.455 54.127C333.354 41.9179 304.892 49.9505 298.336 70.3894Z" fill="#F7A9A0"/>
<path d="M311.842 98.0602C312.998 102.052 316.503 120.051 325.938 123.119C332.973 125.398 342.395 120.655 342.395 120.655L346.528 120.717C346.528 120.717 352.813 124.043 356.983 121.246C361.398 118.29 364.092 110.91 363.932 105.933C363.932 105.933 368.36 124.671 363.28 133.665C357.13 144.457 335.999 151.825 320.095 144.679C304.191 137.533 301.448 114.631 301.448 114.631L309.984 101.953L311.842 98.0602Z" fill="#263238"/>
<path d="M337.475 95.6085C337.475 95.4976 337.278 95.7563 337.303 95.8672C337.721 98.5899 337.733 101.768 335.384 102.976C335.31 102.976 335.384 103.148 335.384 103.124C338.385 102.335 338.274 98.1094 337.475 95.6085Z" fill="#263238"/>
<path d="M334.695 93.0459C330.28 93.2554 331.005 102.101 335.101 101.916C339.197 101.732 338.41 92.935 334.695 93.0459Z" fill="#263238"/>
<path d="M351.804 93.7358C351.804 93.625 352.026 93.8467 352.038 93.9576C352.173 96.705 352.801 99.8219 355.347 100.524C355.421 100.524 355.433 100.684 355.347 100.684C352.272 100.512 351.485 96.36 351.804 93.7358Z" fill="#263238"/>
<path d="M353.994 90.6682C358.373 89.9659 359.443 98.7747 355.396 99.4277C351.35 100.081 350.341 91.2472 353.994 90.6682Z" fill="#263238"/>
<path d="M330.255 92.1096C331.469 92.0835 332.68 91.9889 333.883 91.8262C335.19 91.9155 336.489 91.5642 337.573 90.8283C337.865 90.5358 338.052 90.154 338.103 89.7435C338.154 89.3329 338.067 88.917 337.856 88.5614C337.342 87.9126 336.663 87.4146 335.89 87.1197C335.118 86.8249 334.28 86.7441 333.465 86.8859C331.767 86.9097 330.139 87.5689 328.902 88.7339C328.636 89.011 328.457 89.3589 328.384 89.7358C328.311 90.1128 328.348 90.5028 328.491 90.8591C328.633 91.2155 328.876 91.5229 329.189 91.7447C329.502 91.9665 329.872 92.0932 330.255 92.1096Z" fill="#263238"/>
<path d="M356.048 86.1714C354.845 86.028 353.65 85.8224 352.469 85.5554C351.175 85.5077 349.932 85.0408 348.926 84.2248C348.664 83.9041 348.515 83.5058 348.501 83.0916C348.488 82.6773 348.611 82.2702 348.852 81.9333C349.959 80.5535 351.718 80.4426 353.391 80.7013C355.078 80.885 356.635 81.6935 357.758 82.9682C357.99 83.2725 358.129 83.6371 358.16 84.0188C358.191 84.4004 358.111 84.7829 357.931 85.1205C357.751 85.4581 357.478 85.7368 357.144 85.9231C356.81 86.1094 356.429 86.1956 356.048 86.1714Z" fill="#263238"/>
<path d="M341.842 119.177C342.567 119.743 343.305 120.556 344.302 120.532C345.313 120.399 346.285 120.055 347.155 119.522C347.173 119.513 347.193 119.51 347.212 119.513C347.232 119.515 347.25 119.524 347.265 119.537C347.279 119.55 347.289 119.568 347.294 119.587C347.299 119.606 347.297 119.626 347.291 119.645C346.96 120.224 346.479 120.703 345.899 121.03C345.318 121.358 344.66 121.522 343.994 121.505C343.412 121.433 342.866 121.186 342.427 120.797C341.987 120.408 341.676 119.894 341.534 119.324C341.534 119.177 341.731 119.09 341.842 119.177Z" fill="#263238"/>
<path d="M339.222 112.093C340.07 113.065 341.11 113.852 342.276 114.403C343.443 114.954 344.71 115.258 345.999 115.296C347.125 115.341 348.252 115.225 349.345 114.951C349.559 114.915 349.769 114.858 349.972 114.778L350.55 114.606C350.693 114.559 350.815 114.466 350.898 114.34C350.98 114.215 351.018 114.066 351.005 113.916C350.997 113.823 350.976 113.732 350.944 113.645V113.411C350.698 111.304 350.021 108.15 350.021 108.15C350.833 108.421 354.941 109.604 354.769 108.508C352.887 99.5386 350.784 89.5594 347.02 81.0216C347.01 80.9901 346.994 80.9607 346.973 80.9353C346.952 80.9099 346.927 80.8888 346.898 80.8734C346.839 80.8422 346.77 80.8357 346.706 80.8553C346.643 80.8749 346.589 80.919 346.558 80.9779C346.527 81.0368 346.521 81.1057 346.54 81.1694C348.004 89.8674 350.993 98.245 352.604 106.955C351.126 106.517 349.594 106.289 348.053 106.278C347.758 106.413 349.468 112.351 349.505 113.312C349.507 113.345 349.507 113.378 349.505 113.411C346.061 114.384 343.256 113.719 339.505 111.859C339.209 111.686 339.025 111.896 339.222 112.093Z" fill="#263238"/>
<path d="M349.517 107.386C348.648 106.851 347.658 106.543 346.639 106.491C345.62 106.44 344.605 106.646 343.686 107.091C341.608 108.224 339.603 112.314 337.007 112.265C336.571 112.218 336.154 112.064 335.791 111.817C335.429 111.57 335.132 111.237 334.929 110.848C335.127 111.8 335.573 112.683 336.221 113.408C336.869 114.133 337.696 114.673 338.619 114.976C344.683 116.528 349.578 110.134 349.578 110.134C349.578 110.134 351.263 114.865 356.011 114.865C356.988 114.873 357.943 114.572 358.739 114.003C359.534 113.434 360.13 112.627 360.439 111.698C360.439 111.698 359.209 113.251 358.065 112.585C357.302 112.154 355.187 107.534 352.788 107.411C351.7 107.328 350.606 107.32 349.517 107.386Z" fill="#263238"/>
<path d="M305.963 108.187C310.612 108.581 312.826 94.3642 313.158 89.005C313.453 84.2864 311.928 69.8597 311.928 68.8494C311.928 67.8392 333.625 77.264 343.908 71.683C354.191 66.1021 359.455 54.6322 358.668 49.9875C357.881 45.3429 341.596 36.571 329.665 38.5053C317.734 40.4395 304.942 58.9195 304.942 58.9195C304.942 58.9195 308.988 51.2565 308.693 50.7637C308.398 50.2709 301.412 54.9525 301.178 60.7059C301.178 60.7059 301.178 53.548 300.612 53.5357C300.046 53.5234 295.335 60.669 297.623 64.8208C297.623 64.8208 292.039 72.2128 292.802 78.9026C293.564 85.5923 300.501 107.719 305.963 108.187Z" fill="#263238"/>
<path d="M351.202 67.7037C348.188 69.9582 345.212 72.373 341.62 73.6542C337.636 74.8819 333.41 75.102 329.32 74.2949C325.225 73.6345 321.265 72.3069 317.598 70.3648C314.363 68.6893 311.338 66.4717 307.967 65.0918C307.131 64.7346 306.504 65.9789 307.094 66.5579C313.488 72.4186 321.587 76.0753 330.206 76.993C338.742 77.8061 345.888 74.4058 351.227 67.7776L351.202 67.7037Z" fill="#263238"/>
<path d="M311.965 103.235C311.965 103.235 302.838 90.2986 296.971 93.5757C291.104 96.8528 298.029 115.628 304.954 118.216C305.82 118.599 306.754 118.804 307.7 118.817C308.647 118.831 309.586 118.653 310.463 118.294C311.339 117.935 312.134 117.403 312.8 116.729C313.466 116.055 313.989 115.253 314.339 114.372L311.965 103.235Z" fill="#F7A9A0"/>
<path d="M299.087 98.9102C299.068 98.9172 299.052 98.9298 299.04 98.9464C299.029 98.9629 299.022 98.9825 299.022 99.0026C299.022 99.0228 299.029 99.0424 299.04 99.0589C299.052 99.0754 299.068 99.088 299.087 99.095C303.945 101.029 306.467 105.514 308.324 110.183C306.873 108.397 304.917 107.423 302.518 109.16C302.395 109.247 302.518 109.444 302.654 109.419C303.502 109.141 304.416 109.133 305.269 109.398C306.122 109.663 306.871 110.187 307.414 110.898C308.315 112.093 309.087 113.381 309.714 114.741C309.948 115.173 310.722 114.939 310.563 114.433V114.323C310.563 108.113 305.716 99.4893 299.087 98.9102Z" fill="#263238"/>
<path d="M386.355 364.258L216.295 365.909C216.664 363.692 247.611 186.653 295.532 149.003C303.994 142.363 329.874 150.235 338.016 159.007C363.957 187.011 383.785 340.801 386.355 364.258Z" fill="#455A64"/>
<path d="M277.574 221.445C278.756 213.118 280.632 204.905 283.183 196.891C283.183 196.743 283.06 196.669 282.999 196.805C280.226 203.53 278.029 210.479 276.43 217.576C274.794 224.882 273.786 232.36 272.814 239.752C271.842 247.144 270.981 254.635 269.788 262.052C268.558 269.702 266.922 277.267 265.127 284.794C263.276 293.145 260.914 301.374 258.054 309.434C257.98 309.656 258.239 309.779 258.325 309.57C260.908 302.424 263.663 295.439 265.815 288.096C267.917 280.838 269.65 273.478 271.006 266.043C273.749 251.235 275.163 236.254 277.574 221.445Z" fill="#263238"/>
<path d="M338.016 159.007C338.016 159.007 364.375 218.636 371.878 332.288C371.878 332.288 269.136 339.951 266.652 339.951C263.847 339.951 221.72 334.074 221.646 334.567C221.449 335.861 217.476 348.637 218.46 349.659C218.891 350.115 230.994 350.497 264.942 351.236C308.324 352.197 375.814 353.491 375.814 353.491L414.744 496.538H432.566C432.566 496.538 367.659 210.714 345.31 170.342C339.295 159.463 338.016 159.007 338.016 159.007Z" fill="#62EE6F"/>
<path d="M340.328 164.49C331.718 163.196 314.966 163.824 305.495 162.568C299.726 161.816 288.386 152.465 288.275 151.936C288.164 151.406 292.986 148.671 294.216 148.141C296.368 147.229 307.979 153.968 311.104 154.473C312.813 154.744 337.487 158.169 337.955 159.007C341.103 164.391 340.328 164.49 340.328 164.49Z" fill="#62EE6F"/>
<path d="M264.77 343.031C264.77 343.031 237.55 355.055 236.48 364.653C235.41 374.25 250.514 388.381 255.865 386.533C261.215 384.685 271.596 346.813 271.596 346.813L264.77 343.031Z" fill="#62EE6F"/>
<path opacity="0.1" d="M266.652 344.054C266.652 344.054 244.868 359.54 245.656 367.265C246.443 374.989 258.325 360.094 266.652 344.054Z" fill="black"/>
<path d="M263.245 349.339C263.245 349.339 260.785 379.055 268.694 384.574C276.602 390.093 296.209 383.564 297.143 377.958C298.078 372.353 269.801 345.162 269.801 345.162L263.245 349.339Z" fill="#62EE6F"/>
<path opacity="0.1" d="M264.991 348.193C264.991 348.193 268.177 374.755 275.336 377.761C282.494 380.767 275.065 363.224 264.991 348.193Z" fill="black"/>
<path d="M492.873 207.068C492.873 207.068 484.263 208.152 479.565 215.248C475.801 221.063 477.978 230.586 476.035 230.919C474.091 231.252 468.814 219.092 473.944 210.739C478.47 203.347 488.089 200.981 488.089 200.981L508.999 163.467L501.409 158.773L535.296 95.128L547.141 100.931C547.141 100.931 550.929 101.337 551.089 103.961C551.249 106.586 538.998 129.488 527.879 148.067C516.76 166.646 494.128 205.811 492.873 207.068Z" fill="#D6D6D6"/>
<path d="M514.165 162.124C524.361 142.412 535.075 122.811 546.366 103.629C536.157 123.341 525.394 142.954 514.165 162.124Z" fill="#D6D6D6"/>
<path d="M466.195 89.6826C461.803 102.569 460.93 127.801 464.116 150.051C468.089 177.746 475.616 198.776 485.567 205.256C493.119 210.184 499.589 203.064 497.4 192.715C495.358 183.031 489.429 168.235 486.133 148.732C482.935 129.76 487.584 96.9144 484.116 87.2309C480.647 77.5474 469.466 80.0483 466.195 89.6826Z" fill="#62EE6F"/>
<path d="M479.06 89.239C479.165 89.8457 479.088 90.4697 478.839 91.0325C478.589 91.5952 478.18 92.0715 477.661 92.4012C477.142 92.7309 476.537 92.8993 475.922 92.8852C475.308 92.8711 474.711 92.675 474.208 92.3218C473.705 91.9685 473.317 91.4739 473.094 90.9003C472.871 90.3267 472.822 89.6997 472.955 89.0985C473.087 88.4974 473.394 87.9489 473.837 87.5222C474.28 87.0955 474.839 86.8098 475.444 86.7011C476.259 86.5612 477.096 86.7494 477.774 87.2247C478.451 87.7 478.913 88.4239 479.06 89.239Z" fill="#D6D6D6"/>
<path d="M479.06 89.239C479.085 89.4395 479.085 89.6422 479.06 89.8427L473.046 90.9022C472.968 90.7158 472.91 90.5217 472.874 90.3232C472.849 90.1227 472.849 89.92 472.874 89.7195L478.888 88.66C478.973 88.8438 479.031 89.0388 479.06 89.239Z" fill="#D6D6D6"/>
<path d="M491.041 195.511C491.598 195.772 492.065 196.191 492.384 196.717C492.704 197.243 492.86 197.852 492.834 198.467C492.809 199.082 492.602 199.675 492.24 200.173C491.877 200.67 491.376 201.049 490.8 201.261C490.223 201.474 489.596 201.511 488.999 201.367C488.401 201.223 487.86 200.906 487.442 200.454C487.025 200.003 486.75 199.437 486.653 198.829C486.555 198.222 486.64 197.599 486.896 197.039C487.243 196.286 487.875 195.702 488.652 195.416C489.43 195.129 490.289 195.164 491.041 195.511Z" fill="#D6D6D6"/>
<path d="M491.04 195.524C491.221 195.607 491.393 195.706 491.557 195.819L488.986 201.351C488.792 201.302 488.603 201.236 488.42 201.154C488.235 201.076 488.061 200.973 487.904 200.846L490.462 195.29C490.665 195.339 490.86 195.418 491.04 195.524Z" fill="#D6D6D6"/>
<path opacity="0.3" d="M466.194 112.179C466.293 140.589 470.204 169.282 480.721 195.795C468.076 170.822 463.734 139.911 466.194 112.179Z" fill="black"/>
<path opacity="0.3" d="M468.359 95.2882C468.008 99.6414 467.371 103.967 466.453 108.236C466.177 103.834 466.827 99.4232 468.359 95.2882Z" fill="black"/>
<path d="M323.207 182.255C325.667 244.446 347.254 327.976 368.016 333.409C391.14 339.458 388.508 254.561 385.704 252.22C383.588 250.471 364.671 214.509 345.741 174.506C326.811 134.503 322.592 166.855 323.207 182.255Z" fill="#F7A9A0"/>
<path d="M386.023 251.962C382.886 246.467 356.085 192.542 344.572 170.329C333.059 148.116 322.432 148.757 321.977 180.9C321.522 213.043 329.062 278.807 348.889 313.685C367.979 347.294 382.739 336.723 387.45 306.773C391.312 282.256 386.023 251.962 386.023 251.962Z" fill="#455A64"/>
<path d="M367.795 334.161C385.433 336.44 404.609 320.362 461.213 278.265C469.036 272.437 443.464 203.68 434.78 209.47C423.846 216.763 382.973 247.452 380.267 250.126C357.426 272.179 355.802 332.608 367.795 334.161Z" fill="#F7A9A0"/>
<path d="M404.83 243.695C404.83 243.695 410.426 237.091 418.802 217.712C425.346 202.571 451.262 171.561 497.522 172.128C515.259 172.325 522.873 184.879 504.41 187.947C491.397 190.115 482.27 190.497 478.162 192.394C478.162 192.394 495.788 202.25 497.08 213.856C498.21 224.031 498.621 234.274 498.31 244.508C496.425 244.878 494.519 245.125 492.602 245.247C492.695 249.893 491.473 254.471 489.079 258.451C486.685 262.432 483.216 265.653 479.072 267.744L457.584 280.901L404.83 243.695Z" fill="#F7A9A0"/>
<path d="M428.507 206.513C436.207 202.583 452.665 194.587 468.409 192.727C485.887 190.67 520.13 191.409 521.52 204.357C522.529 213.844 509.441 214.706 509.441 214.706C509.441 214.706 523.525 218.008 522.578 226.78C521.704 234.775 511.508 234.837 511.508 234.837C511.508 234.837 519.712 238.311 517.399 245.851C514.607 254.918 497.879 246.159 487.129 252.898C484.743 254.413 428.507 206.513 428.507 206.513Z" fill="#F7A9A0"/>
<path d="M467.498 211.601C475.346 209.137 494.558 208.053 509.22 214.41C509.552 214.558 509.626 214.878 509.294 214.817C495.529 212.104 481.486 211.078 467.474 211.761C467.425 211.774 467.425 211.626 467.498 211.601Z" fill="#263238"/>
<path d="M470.094 229.219C477.092 227.765 496.994 227.556 511.582 234.516C511.901 234.677 511.951 235.009 511.582 234.923C497.997 231.514 484.071 229.654 470.069 229.379C470.054 229.371 470.041 229.357 470.033 229.342C470.025 229.326 470.023 229.308 470.025 229.29C470.028 229.273 470.036 229.257 470.048 229.244C470.061 229.231 470.076 229.222 470.094 229.219Z" fill="#263238"/>
<path d="M410.069 222.431L437.621 305.11C437.621 305.11 385.014 338.682 367.29 334.764C355.642 332.189 355.359 270.466 382.431 247.945L410.069 222.431Z" fill="#455A64"/>
<path d="M362.567 286.137C363.342 279.226 366.971 261.115 382.432 247.884C382.567 247.76 382.776 247.958 382.653 248.081C372.1 259.058 364.203 279.62 362.85 286.211C362.875 286.359 362.555 286.359 362.567 286.137Z" fill="#263238"/>
<path d="M418.015 310.802C414.596 301.993 411.668 293.024 408.753 284.055C405.838 275.086 402.911 266.093 400.229 257.05C398.704 251.937 397.154 246.836 395.826 241.687C395.815 241.656 395.816 241.621 395.83 241.591C395.844 241.561 395.869 241.538 395.9 241.527C395.931 241.515 395.965 241.516 395.995 241.53C396.025 241.544 396.048 241.569 396.06 241.601C399.467 250.397 402.443 259.366 405.408 268.31C408.372 277.255 411.263 286.273 414.018 295.279C415.592 300.379 417.08 305.492 418.421 310.654C418.52 310.9 418.114 311.061 418.015 310.802Z" fill="#263238"/>
<path d="M410.229 221.679C406.835 223.601 391.988 235.428 376.38 253.957C376.269 254.081 374.781 258.516 374.879 258.393C387.388 243.239 407.4 225.892 410.279 223.145C410.357 223.441 410.46 223.729 410.586 224.008C410.602 224.054 410.631 224.094 410.671 224.123C410.711 224.151 410.759 224.167 410.807 224.167C410.856 224.167 410.904 224.151 410.944 224.123C410.983 224.094 411.013 224.054 411.029 224.008C411.115 223.428 411.029 222.886 411.09 222.283C411.116 222.172 411.109 222.057 411.068 221.951C411.028 221.845 410.957 221.754 410.864 221.689C410.771 221.624 410.661 221.588 410.548 221.586C410.435 221.585 410.324 221.617 410.229 221.679Z" fill="#263238"/>
<path d="M435.703 299.332L437.757 305.061V305.172L437.671 305.233C422.308 315.422 406.331 324.822 389.025 331.376C382.456 333.668 375.396 335.898 368.287 334.851C356.848 332.276 349.837 319.093 345.003 309.471C337.205 292.642 332.149 274.754 328.189 256.705C324.186 238.692 321.668 220.381 320.661 201.955C322.568 220.253 325.691 238.404 330.009 256.286C334.363 274.101 339.333 291.915 347.229 308.412C351.842 317.467 358.152 330.083 368.705 332.67C375.335 333.705 382.05 331.524 388.385 329.504C405.605 323.418 421.841 314.375 437.585 304.987V305.159L435.801 299.332H435.703Z" fill="#263238"/>
<path d="M318.926 204.098C319.11 207.327 320.05 210.467 321.669 213.264C319.673 210.645 318.697 207.386 318.926 204.098Z" fill="#263238"/>
<path d="M261.189 293.11C261.172 293.181 261.152 293.251 261.127 293.32C261.054 293.542 260.943 293.948 260.808 294.552C260.808 294.737 260.709 294.934 260.66 295.155C260.655 295.192 260.655 295.23 260.66 295.266C260.66 295.427 260.562 295.587 260.525 295.771C260.488 295.956 260.439 296.129 260.377 296.326C260.316 296.523 260.168 297.102 260.057 297.558C259.947 298.014 259.873 298.248 259.774 298.617C259.676 298.987 259.516 299.615 259.393 300.17C259.282 300.502 259.196 300.872 259.098 301.242C258.999 301.611 258.975 301.722 258.901 301.981C258.79 302.449 258.655 302.954 258.52 303.471C258.446 303.767 258.36 304.087 258.286 304.408C258.212 304.728 258.114 305.024 258.04 305.344C257.966 305.664 257.868 306.009 257.782 306.342C257.696 306.675 257.61 307.032 257.511 307.365L256.626 310.765L256.367 311.787C256.257 312.182 256.146 312.588 256.047 313.019C255.949 313.451 255.912 313.549 255.851 313.808C255.823 313.875 255.802 313.946 255.789 314.017C255.432 315.348 255.076 316.74 254.694 318.169C254.252 319.906 253.784 321.73 253.28 323.639C252.849 325.339 252.382 327.114 251.902 328.937C251.607 330.07 251.312 331.204 251.017 332.362C250.869 332.941 250.709 333.532 250.562 334.124L250.476 334.395C249.934 336.563 249.344 338.805 248.741 341.097C248.421 342.329 248.114 343.561 247.782 344.793C247.634 345.322 247.511 345.852 247.376 346.37C247.376 346.653 247.241 346.936 247.167 347.207C247.093 347.479 247.032 347.663 246.982 347.897C246.33 350.361 245.654 352.961 244.99 355.56C244.51 357.445 244.006 359.367 243.501 361.302C242.025 367.018 240.488 372.969 238.901 379.079C230.562 411.358 220.968 448.453 212.272 482.382C211.964 483.528 211.694 484.674 211.386 485.82C211.345 485.94 211.312 486.064 211.288 486.189C211.288 486.399 211.165 486.608 211.116 486.818C210.968 487.409 210.833 487.976 210.685 488.555C210.537 489.134 210.439 489.553 210.316 490.046C210.193 490.538 210.033 491.154 209.886 491.709C209.652 492.583 209.43 493.471 209.209 494.333C208.988 495.195 208.828 495.836 208.631 496.587H100.797C111.805 458.211 124.979 414.413 136.319 377.33C150.833 329.738 162.346 293.16 162.346 293.16L261.189 293.11Z" fill="#37474F"/>
<path d="M191.965 496.538C208.521 428.569 226.823 360.242 246.552 293.123C230.033 361.104 211.694 429.419 191.965 496.538Z" fill="#263238"/>
<path opacity="0.1" d="M261.189 293.123C261.173 293.193 261.152 293.263 261.128 293.332C261.066 293.554 260.968 293.96 260.808 294.564C260.808 294.749 260.71 294.946 260.66 295.168L260.488 295.784C260.488 295.956 260.439 296.141 260.341 296.338C260.082 297.385 259.738 298.654 259.357 300.182C259.246 300.515 259.16 300.884 259.061 301.254C258.963 301.623 258.938 301.734 258.865 301.993C258.754 302.474 258.619 302.966 258.483 303.484C258.41 303.779 258.323 304.1 258.25 304.42C258.176 304.74 258.077 305.048 258.004 305.356C257.93 305.664 257.831 306.022 257.745 306.354C257.659 306.687 257.561 307.044 257.475 307.377L256.589 310.777C256.405 311.504 256.208 312.243 256.011 313.007C255.913 313.34 255.839 313.66 255.753 314.005C255.396 315.336 255.039 316.728 254.658 318.157C254.215 319.894 253.736 321.717 253.244 323.627C252.801 325.327 252.346 327.101 251.866 328.925C251.571 330.058 251.276 331.191 250.98 332.349C250.82 332.929 250.661 333.52 250.525 334.111L250.439 334.382C249.886 336.551 249.308 338.793 248.705 341.084C248.385 342.316 248.078 343.548 247.745 344.78C247.598 345.31 247.475 345.84 247.34 346.357C247.204 346.875 247.081 347.368 246.946 347.885C246.294 350.349 245.618 352.949 244.953 355.548C244.461 357.433 243.957 359.355 243.465 361.289C233.859 398.249 221.817 444.819 211.251 486.177C211.251 486.386 211.141 486.596 211.079 486.805C210.932 487.397 210.796 487.963 210.649 488.542C210.144 490.489 209.652 492.399 209.173 494.321C208.976 495.072 208.791 495.824 208.595 496.575H204.474C203.084 487.163 201.473 477.528 199.702 467.771C194.892 441.283 188.939 413.945 183.244 387.888C183.084 387.223 182.949 386.545 182.801 385.88C182.703 385.473 182.629 385.067 182.543 384.648C177.845 363.236 173.367 342.76 169.886 324.452C169.886 324.452 169.886 324.329 169.886 324.28C168.952 319.418 168.099 314.711 167.328 310.161C167.205 309.471 167.094 308.757 166.971 308.079C166.11 302.868 165.36 297.89 164.757 293.197L261.189 293.123Z" fill="black"/>
<path d="M315.666 496.538H205.802L202.321 458.001L196.454 393.334L196.343 392.163C192.112 390.217 185.975 387.321 182.813 385.843L180.747 384.87C180.747 384.87 180.661 384.5 180.55 383.847C179.419 377.872 173.613 346.887 169.898 324.428C169.898 324.428 169.898 324.305 169.898 324.255C168.988 318.798 168.152 313.66 167.438 309.2C167.352 308.572 167.242 307.968 167.156 307.365C165.926 300.145 165.114 295.045 164.855 293.554C164.855 293.381 164.855 293.27 164.855 293.209H292.775C292.775 293.209 305.223 347.417 306.305 365.835C306.638 371.749 304.706 389.477 304.706 389.477L315.666 496.538Z" fill="#37474F"/>
<path d="M172.039 380.853C186.294 385.461 200.095 392.126 213.305 399.136C213.418 399.184 213.507 399.274 213.553 399.387C213.599 399.5 213.598 399.627 213.551 399.74C213.504 399.853 213.414 399.942 213.301 399.988C213.188 400.034 213.061 400.034 212.948 399.986C199.049 394.331 184.892 388.898 171.325 382.517C171.133 382.405 170.988 382.226 170.918 382.014C170.848 381.803 170.858 381.573 170.946 381.368C171.034 381.164 171.193 380.998 171.395 380.903C171.596 380.808 171.825 380.791 172.039 380.853Z" fill="#263238"/>
<path d="M279.983 354.291C278.753 353.774 256.613 353.823 246.859 343.93C237.88 334.875 235.113 309.434 234.916 309.348C234.845 309.329 234.77 309.333 234.701 309.359C234.633 309.386 234.574 309.434 234.535 309.496C234.191 310.026 233.305 329.935 243.711 344.645C251.091 355.006 277.13 355.597 279.971 355.142C280.463 355.068 280.34 354.439 279.983 354.291Z" fill="#263238"/>
<path d="M149.886 343.031C150.932 342.181 155.926 341.417 160.784 331.943C162.625 328.186 164 324.219 164.88 320.128C165.434 317.664 167.254 305.8 167.402 305.738C167.549 305.677 167.512 305.738 167.549 305.898C167.721 306.724 166.59 317.602 166.098 320.387C165.163 325.635 163.933 330.44 161.916 334.013C157.242 342.279 150.932 344.398 149.85 343.869C149.653 343.721 149.739 343.154 149.886 343.031Z" fill="#263238"/>
<path d="M178.718 306.896C178.779 306.539 179.419 306.527 179.382 306.896C178.287 318.518 177.778 330.188 177.857 341.861C177.857 347.269 179.357 377.33 188.853 376.036C190.44 375.827 191.313 374.373 191.842 372.045C192.395 369.248 191.67 365.687 191.461 362.829C191.018 356.534 190.772 350.226 190.833 343.906C190.847 332.13 192.084 320.387 194.523 308.868C194.535 308.789 194.577 308.718 194.64 308.671C194.704 308.624 194.783 308.604 194.862 308.615C194.94 308.626 195.01 308.669 195.058 308.732C195.105 308.796 195.125 308.875 195.114 308.954C193.588 325.155 192.494 341.368 193.404 357.642C193.834 365.466 196.627 377.441 188.484 377.872C180.341 378.303 176.688 358.357 176.184 352.949C174.745 337.844 176.135 321.816 178.718 306.896Z" fill="#263238"/>
<path d="M188.533 376.825C189.171 378.905 189.677 381.024 190.046 383.169C190.494 384.843 190.627 386.585 190.439 388.307C190.365 388.627 189.935 388.615 189.775 388.381C188.956 386.772 188.384 385.048 188.078 383.268C187.561 381.297 186.983 379.338 186.516 377.354C186.467 377.094 186.519 376.826 186.661 376.603C186.802 376.379 187.023 376.218 187.278 376.151C187.534 376.084 187.805 376.116 188.038 376.241C188.27 376.366 188.447 376.574 188.533 376.825Z" fill="#263238"/>
<path d="M283.169 297.829C287.327 320.079 291.706 342.686 294.51 365.17C294.51 374.065 294.51 382.997 294.682 391.929C297.868 425.119 301.14 463.176 303.218 496.797C300.193 472.724 297.068 442.589 294.781 418.257C294.116 411.727 292.886 398.545 292.321 392.04C292.321 384.094 292.21 376.172 292.321 368.188C292.567 364.788 291.693 359.971 291.337 356.558C290.365 348.735 284.326 306.502 283.108 297.829H283.169Z" fill="#263238"/>
<path d="M216.577 176.132C188.828 205.429 140.674 255.559 118.558 253.095C102.568 251.259 55.1394 203.174 43.0239 185.335C31.3389 168.087 86.0001 141.316 93.5031 150.987C107.033 168.346 123.81 186.616 125.483 188.316C126.713 189.622 156.491 176.317 198.988 157.221C225.777 145.184 228.385 163.676 216.577 176.132Z" fill="#AD6359"/>
<path d="M143.441 180.592L162.285 237.621C162.285 237.621 193.256 207.375 212.813 183.105C232.37 158.835 235.519 139.184 205.802 151.443C176.086 163.701 143.441 180.592 143.441 180.592Z" fill="#969AFF"/>
<path d="M228.348 146.071L226.835 145.418L228.791 145.751L228.348 146.071Z" fill="#D6D6D6"/>
<path opacity="0.1" d="M212.813 183.105C193.268 207.388 162.309 237.621 162.309 237.621L149.812 199.811L224.707 148.56C231.829 152.17 226.122 166.559 212.813 183.105Z" fill="black"/>
<path d="M155.545 178.559C157.23 182.538 158.472 186.739 159.8 190.879C161.129 195.018 162.383 198.887 163.613 202.977C166.135 211.182 168.706 219.363 170.587 227.74C170.592 227.783 170.582 227.826 170.559 227.861C170.536 227.897 170.501 227.924 170.461 227.937C170.42 227.95 170.376 227.949 170.337 227.933C170.297 227.917 170.264 227.889 170.243 227.851C167.119 219.856 164.683 211.638 162.187 203.421C160.948 199.363 159.718 195.302 158.497 191.236C157.267 187.084 156.037 182.908 155.139 178.658C155.126 178.604 155.135 178.547 155.163 178.499C155.192 178.452 155.239 178.418 155.292 178.405C155.346 178.392 155.403 178.401 155.45 178.43C155.498 178.459 155.532 178.505 155.545 178.559Z" fill="#263238"/>
<path d="M32.7044 168.407C37.0709 179.594 54.9305 198.973 60.9944 201.979C67.0583 204.985 100.994 175.688 100.613 168.715C100.231 161.742 82.6793 125.201 72.0767 119.09C61.4741 112.98 28.1903 156.826 32.7044 168.407Z" fill="#AD6359"/>
<path d="M98.743 161.927C98.743 161.927 98.6815 146.305 103.208 133.32C107.009 122.392 113.897 106.61 108.128 104.331C96.2461 99.674 79.0999 139.061 79.0999 139.061C79.0999 139.061 74.3152 157.652 85.6804 163.319C92.7775 166.855 98.743 161.927 98.743 161.927Z" fill="#AD6359"/>
<path d="M86.492 131.78C82.4945 136.708 78.6569 133.184 78.6569 133.184L49.715 112.869C49.715 112.869 32.003 91.7646 36.923 86.467C45.533 77.3378 82.5314 121.135 86.4182 124.45C88.583 126.199 88.2263 129.624 86.492 131.78Z" fill="#AD6359"/>
<path d="M71.3631 162.124C74.4873 160.301 77.4393 157.886 78.1404 153.155C78.6447 152.416 79.4565 152.699 79.6287 152.305C79.8115 150.705 79.635 149.085 79.1121 147.562C78.7677 147.131 77.6976 147.5 77.5131 147.057C74.967 140.897 69.6288 138.014 68.694 137.041C67.5747 135.809 66.9105 128.774 67.3287 123.698C67.7469 118.622 71.3631 112.142 73.8231 109.937C73.8231 109.937 67.8453 68.6646 54.0201 41.7946L52.6548 41.9671L64.4628 116.762C62.8239 122.593 62.4052 128.699 63.2328 134.7C63.3189 135.427 63.2328 135.809 62.3472 136.708C61.4616 137.607 53.1222 142.24 54.7335 152.17C56.3448 162.099 66.0249 165.241 71.3631 162.124ZM60.0594 143.927C60.8699 143.074 61.858 142.409 62.9537 141.98C64.0494 141.551 65.2259 141.369 66.3996 141.447C67.5734 141.525 68.7157 141.86 69.7457 142.429C70.7756 142.998 71.6679 143.787 72.3594 144.741C75.7173 148.806 75.8157 153.66 72.6915 156.913C68.4111 161.336 63.0114 159.377 60.3915 156.617C57.624 153.636 56.4924 147.476 60.0963 143.927H60.0594Z" fill="#37474F"/>
<path d="M69.6779 115.986L63.0113 107.928L58.8662 81.6622L71.2646 95.978C72.9743 104.368 73.7246 109.937 73.7246 109.937C72.036 111.703 70.6667 113.75 69.6779 115.986Z" fill="#263238"/>
<path d="M54.0571 43.4209C55.2871 45.9711 56.3695 48.583 57.4396 51.1948C58.5097 53.8066 59.4814 56.4801 60.4285 59.1412C62.3227 64.4799 64.016 69.8801 65.5084 75.342C66.9721 80.8121 68.3374 86.3191 69.4075 91.8754C69.6658 93.2676 69.9733 94.6474 70.1947 96.0396L70.8958 100.228C71.1295 101.621 71.3017 103.025 71.4862 104.43L72.0397 108.643C71.1172 103.062 70.1824 97.481 68.9647 91.9617C67.747 86.4423 66.5047 80.9476 64.9549 75.5021C63.4051 70.0567 61.8061 64.6482 60.0349 59.289C58.2637 53.9298 56.2588 48.5829 54.0571 43.4209Z" fill="#455A64"/>
<path d="M82.962 117.637C86.9226 120.827 91.5719 126.187 91.695 127.813C91.818 129.439 89.235 138.223 94.7085 143.927C96.4409 145.783 98.6592 147.113 101.11 147.767C103.561 148.42 106.146 148.371 108.571 147.623C112.703 146.465 113.269 148.387 115.348 150.087C118.244 152.185 121.765 153.236 125.335 153.069C129.025 152.761 129.345 149.114 125.04 149.287C123.327 149.472 121.596 149.196 120.026 148.485C118.455 147.775 117.104 146.656 116.11 145.246C113.773 142.412 118.657 135.648 112.347 127.998C106.037 120.347 97.1931 122.836 95.8893 122.885C94.5855 122.934 94.3025 122.7 93.8351 122.133C90.0471 117.416 85.328 113.532 79.9731 110.725L33.8849 50.6897L32.8271 51.5767C42.7901 80.1098 68.5832 112.844 68.5832 112.844C71.8797 112.573 79.0014 114.446 82.962 117.637ZM97.1931 129.02C98.0047 128.168 98.9931 127.505 100.089 127.078C101.184 126.65 102.36 126.469 103.533 126.547C104.706 126.624 105.848 126.959 106.878 127.527C107.907 128.095 108.8 128.882 109.493 129.833C112.851 133.899 112.962 138.765 109.825 142.006C105.545 146.441 100.157 144.47 97.599 141.71C94.7331 138.741 93.5892 132.568 97.1931 129.02Z" fill="#455A64"/>
<path d="M68.5957 103.062C68.7782 102.679 68.8433 102.251 68.7829 101.832C68.7224 101.412 68.539 101.02 68.256 100.704C67.9729 100.389 67.6029 100.165 67.1927 100.061C66.7825 99.9559 66.3505 99.9755 65.9514 100.117C65.5523 100.258 65.204 100.515 64.9505 100.854C64.697 101.194 64.5498 101.601 64.5274 102.024C64.505 102.448 64.6085 102.868 64.8247 103.233C65.0409 103.597 65.3602 103.889 65.7421 104.072C66.2543 104.317 66.8427 104.349 67.3778 104.159C67.913 103.97 68.3511 103.575 68.5957 103.062Z" fill="#D6D6D6"/>
<path d="M68.03 102.791C68.159 102.52 68.2049 102.218 68.1621 101.921C68.1193 101.625 67.9896 101.347 67.7895 101.125C67.5893 100.902 67.3277 100.743 67.0378 100.669C66.7478 100.596 66.4424 100.609 66.1603 100.709C65.8782 100.809 65.6321 100.991 65.4529 101.231C65.2738 101.471 65.1698 101.759 65.154 102.058C65.1382 102.357 65.2113 102.655 65.3642 102.912C65.5171 103.17 65.7428 103.376 66.0128 103.506C66.1921 103.591 66.3865 103.641 66.5849 103.651C66.7833 103.662 66.9819 103.633 67.1692 103.567C67.3565 103.5 67.5289 103.398 67.6766 103.265C67.8244 103.131 67.9444 102.971 68.03 102.791Z" fill="#EBEBEB"/>
<path d="M33.8359 51.8847C35.0659 54.5089 36.2959 57.1207 37.5259 59.6956C38.7559 62.2705 40.0843 64.8577 41.4127 67.4202C44.0695 72.533 46.8247 77.5842 49.7398 82.5615C51.1543 85.0255 52.6672 87.4895 54.1432 89.9535C55.6192 92.4175 57.1813 94.8815 58.768 97.2346L61.1419 100.857L63.6019 104.405L64.8319 106.191L66.0619 107.941L68.5219 111.452C64.9672 106.918 61.5109 102.298 58.3252 97.481L57.0952 95.6946L55.9267 93.8836L53.602 90.1876C52.1137 87.7236 50.5762 85.2596 49.1494 82.7956C46.2712 77.7937 43.5037 72.7302 40.933 67.5681C38.3623 62.406 36.0007 57.207 33.8359 51.8847Z" fill="#263238"/>
<path d="M109.161 146.662C106.877 147.569 104.391 147.841 101.966 147.451C99.5103 147.027 97.2462 145.852 95.4843 144.087C93.7224 142.322 92.5492 140.054 92.1257 137.595C91.7048 135.149 91.7048 132.649 92.1257 130.203C92.1995 129.612 92.3471 128.971 92.3594 128.441C92.3338 127.873 92.1825 127.318 91.9166 126.815C91.3767 125.749 90.7164 124.749 89.9486 123.834C88.3953 121.992 86.7054 120.27 84.8933 118.684C83.103 117.05 81.0801 115.693 78.8909 114.655C76.7433 113.518 74.4111 112.771 72.0029 112.45C73.2223 112.519 74.4286 112.738 75.5945 113.103C76.7616 113.433 77.9042 113.845 79.0139 114.335C81.2483 115.335 83.3211 116.664 85.1639 118.277C87.0181 119.874 88.7415 121.616 90.3176 123.489C91.1203 124.434 91.8135 125.467 92.384 126.569C92.6847 127.149 92.8567 127.788 92.8883 128.441C92.8883 129.131 92.7161 129.673 92.6423 130.289C92.2364 132.666 92.2364 135.095 92.6423 137.472C93.0421 139.845 94.1525 142.041 95.8263 143.768C97.5001 145.495 99.6583 146.672 102.015 147.143C104.398 147.606 106.861 147.441 109.161 146.662Z" fill="#263238"/>
<path d="M78.6571 133.184C78.6571 133.184 86.689 142.535 83.0728 148.56C79.5796 154.362 71.6338 148.202 71.0557 147.771C71.4739 148.264 78.6325 157.048 74.389 162.74C69.961 168.641 63.0361 161.077 62.5933 160.584C62.8393 161.188 66.0127 169.11 61.8061 172.695C54.5614 178.855 45.8899 158.798 38.6329 156.272C38.6329 156.272 32.9503 168.099 32.7043 168.407C32.7043 168.407 24.0943 149.496 28.0303 139.874C28.583 138.467 29.5987 137.291 30.9093 136.541C32.22 135.79 33.7471 135.51 35.2381 135.747C35.2381 135.747 31.7818 129.969 34.9921 125.386C36.6403 123.033 41.8555 123.587 41.8555 123.587C41.8555 123.587 39.2848 118.844 42.3844 114.963C43.2354 113.874 44.3986 113.072 45.7178 112.665C47.037 112.258 48.449 112.264 49.7644 112.684C61.0927 115.111 78.6571 133.184 78.6571 133.184Z" fill="#AD6359"/>
<path d="M50.4534 112.918C50.355 112.856 50.4534 112.709 50.5149 112.746C61.4373 116.442 72.2982 123.92 78.9894 133.406C79.2108 133.714 79.26 135.488 78.9894 135.156C72.3474 126.827 61.3143 118.647 50.4534 112.918Z" fill="#263238"/>
<path d="M41.7573 123.439C41.6343 123.439 41.7573 123.181 41.868 123.23C53.0979 127.135 65.1027 135.846 71.5356 147.697C71.757 148.104 71.5356 148.695 71.2527 148.239C66.4434 140.687 51.5112 128.552 41.7573 123.439Z" fill="#263238"/>
<path d="M62.7533 161.57C56.1482 150.482 46.6403 142.572 35.6933 135.882C35.5457 135.796 35.6933 135.599 35.8286 135.648C42.0524 137.459 48.5837 142.449 53.3192 146.736C57.8159 150.648 61.2089 155.674 63.1592 161.311C63.2207 161.557 62.9009 161.804 62.7533 161.57Z" fill="#263238"/>
<path d="M78.8664 133.184C79.1247 133.554 77.7225 133.48 77.9685 133.862C80.6745 138.038 85.1394 145.738 82.2612 148.708C79.9365 151.085 75.1395 149.607 73.5159 148.313L69.4446 145.073L72.1383 149.607C73.3572 151.581 74.2463 153.74 74.7705 156.001C75.068 157.031 75.1451 158.112 74.9967 159.173C74.8483 160.235 74.4778 161.253 73.9095 162.161C73.3763 163.005 72.5687 163.639 71.623 163.955C70.6773 164.272 69.6515 164.252 68.7189 163.898C66.6399 163.073 64.8064 161.729 63.393 159.993L59.334 155.336L61.6464 161.04C62.2894 162.62 62.7276 164.276 62.9502 165.968C63.2239 167.568 63.0229 169.212 62.3721 170.699C62.0465 171.352 61.5465 171.901 60.9275 172.286C60.3086 172.671 59.5952 172.877 58.8666 172.879C57.2317 172.644 55.6989 171.943 54.4509 170.859C51.6955 168.555 49.1251 166.038 46.7634 163.331C45.5334 162.001 44.3034 160.695 43.0734 159.463C41.8425 158.112 40.3368 157.041 38.6577 156.321C40.2216 157.207 41.5965 158.391 42.7044 159.808C43.9344 161.151 45.0168 162.568 46.1484 163.972C48.3483 166.893 50.8194 169.599 53.5284 172.054C54.9724 173.41 56.781 174.314 58.7313 174.654C59.8104 174.704 60.8809 174.44 61.8131 173.893C62.7453 173.346 63.4992 172.541 63.9834 171.574C64.8546 169.755 65.163 167.717 64.869 165.722C64.6506 163.826 64.1875 161.966 63.4914 160.19L61.7448 161.237C63.3772 163.319 65.528 164.933 67.9809 165.919C69.361 166.412 70.869 166.412 72.249 165.919C73.5944 165.404 74.7495 164.488 75.5577 163.294C76.2847 162.143 76.7584 160.85 76.9471 159.501C77.1359 158.152 77.0354 156.778 76.6524 155.471C76.0378 152.995 75.0241 150.635 73.6512 148.486L72.2736 149.718C74.3892 151.295 79.5675 153.525 83.6388 150.297C88.3497 145.32 80.4408 134.971 78.8664 133.184Z" fill="#263238"/>
<path d="M146.947 337.487L302.529 336.933C302.886 336.563 272.308 189.573 250.181 160.153C239.111 145.369 209.222 146.465 198.029 165.512C182.568 191.803 146.947 337.487 146.947 337.487Z" fill="#969AFF"/>
<path d="M269.75 174.493C308.445 227.691 350.807 302.178 337.166 320.35C321.976 340.579 272.185 290.708 270.746 287.086C269.159 283.094 251.496 233.371 244.252 187.109C236.331 136.425 260.18 161.348 269.75 174.493Z" fill="#AD6359"/>
<path d="M253.772 240.368L312.369 233.802C312.369 233.802 289.627 197.827 270.291 174.062C250.956 150.297 232.739 143.262 238.459 174.37C244.178 205.478 253.772 240.368 253.772 240.368Z" fill="#969AFF"/>
<path d="M253.625 229.441C257.77 228.492 262.038 228.024 266.244 227.445C270.451 226.866 274.498 226.361 278.618 225.855C286.982 224.833 295.334 223.749 303.747 223.391C303.786 223.402 303.821 223.425 303.846 223.457C303.871 223.49 303.884 223.529 303.884 223.57C303.884 223.611 303.871 223.65 303.846 223.683C303.821 223.715 303.786 223.738 303.747 223.749C295.482 225.387 287.118 226.324 278.754 227.334C274.654 227.827 270.517 228.291 266.343 228.726C262.124 229.182 257.868 229.736 253.625 229.798C253.577 229.798 253.532 229.779 253.499 229.746C253.465 229.712 253.446 229.667 253.446 229.619C253.446 229.572 253.465 229.526 253.499 229.493C253.532 229.459 253.577 229.441 253.625 229.441Z" fill="#263238"/>
<path d="M242.838 195.018C242.838 194.92 242.616 194.957 242.629 195.018C243.354 199.589 244.351 204.123 245.421 208.632C244.474 206.649 243.527 204.653 242.506 202.682C242.506 202.571 242.174 202.682 242.223 202.768C242.75 204.257 243.366 205.714 244.068 207.129C244.646 208.287 245.298 209.433 245.876 210.579C246.454 212.956 252.85 239.038 253.379 240.393C253.453 240.578 253.822 240.516 253.772 240.331C253.244 238.311 247.991 210.147 242.838 195.018Z" fill="#263238"/>
<path d="M278.434 496.797H99.1367C105.139 472.6 179.923 208.805 180.932 209.002C182.162 209.26 226.823 210.024 231.202 211.047C232.875 211.441 254.67 279.25 255.088 284.745C255.347 288.182 295.285 300.527 296.072 300.934C296.859 301.34 297.966 307.722 297.966 307.722C297.966 307.722 263.28 308.818 261.448 308.954C259.972 309.077 274.891 443.156 278.434 496.797Z" fill="#263238"/>
<path d="M179.296 215.815C179.296 215.815 195.593 161.705 197.561 157.812C199.217 154.933 201.361 152.365 203.896 150.223L185.114 216.049L179.296 215.815Z" fill="#969AFF"/>
<path opacity="0.3" d="M179.296 215.815C179.296 215.815 195.593 161.705 197.561 157.812C199.217 154.933 201.361 152.365 203.896 150.223L185.114 216.049L179.296 215.815Z" fill="black"/>
<path d="M184.634 213.166C184.631 213.396 184.579 213.622 184.479 213.83C184.38 214.037 184.237 214.22 184.059 214.366C183.882 214.512 183.675 214.617 183.453 214.675C183.23 214.732 182.998 214.74 182.773 214.698C182.547 214.656 182.333 214.565 182.146 214.432C181.959 214.299 181.804 214.126 181.69 213.926C181.577 213.726 181.509 213.503 181.49 213.274C181.472 213.045 181.504 212.815 181.584 212.599C181.586 212.369 181.639 212.143 181.738 211.935C181.838 211.728 181.981 211.545 182.158 211.399C182.336 211.253 182.543 211.148 182.765 211.09C182.987 211.033 183.219 211.025 183.445 211.067C183.671 211.109 183.885 211.2 184.072 211.333C184.258 211.466 184.414 211.639 184.527 211.839C184.641 212.039 184.709 212.262 184.727 212.491C184.746 212.72 184.714 212.95 184.634 213.166Z" fill="#263238"/>
<path d="M220.845 217.527L229.455 218.217C229.455 218.217 238.533 179.914 240.242 171.487C241.952 163.06 248.754 152.527 248.754 152.527C247.206 150.718 245.03 149.564 242.665 149.299C242.665 149.299 232.592 165.192 230.255 175.602C228.262 184.731 220.845 217.527 220.845 217.527Z" fill="#969AFF"/>
<path opacity="0.3" d="M220.845 217.527L229.455 218.217C229.455 218.217 238.533 179.914 240.242 171.487C241.952 163.06 248.754 152.527 248.754 152.527C247.206 150.718 245.03 149.564 242.665 149.299C242.665 149.299 232.592 165.192 230.255 175.602C228.262 184.731 220.845 217.527 220.845 217.527Z" fill="black"/>
<path d="M228.163 213.954C228.163 214.369 228.04 214.774 227.81 215.119C227.58 215.464 227.253 215.732 226.87 215.89C226.487 216.049 226.066 216.089 225.66 216.008C225.254 215.926 224.881 215.725 224.59 215.431C224.298 215.137 224.099 214.762 224.02 214.355C223.941 213.948 223.984 213.527 224.144 213.144C224.304 212.762 224.574 212.436 224.92 212.207C225.265 211.978 225.671 211.857 226.085 211.86C226.637 211.863 227.166 212.085 227.555 212.478C227.945 212.87 228.163 213.401 228.163 213.954Z" fill="#263238"/>
<path d="M199.94 334.196L226.093 333.524L225.736 319.582L199.583 320.255L199.94 334.196Z" fill="#455A64"/>
<path d="M199.234 334.197L199.406 340.863L209.492 350.657L217.45 350.46L227.032 340.16L226.86 333.483L199.234 334.197Z" fill="#DBDBDB"/>
<path d="M213.367 415.928L216.921 415.842L217.45 350.46L209.492 350.657L213.367 415.928Z" fill="#DBDBDB"/>
<path d="M173.22 318.157L193.367 315.594L192.912 312.884L173.097 317.393L173.22 318.157Z" fill="#969AFF"/>
<path d="M173.687 320.855L193.834 318.305L193.367 315.594L173.552 320.091L173.687 320.855Z" fill="#969AFF"/>
<path d="M174.154 323.565L194.289 321.003L193.834 318.305L174.019 322.802L174.154 323.565Z" fill="#969AFF"/>
<path d="M174.609 326.276L194.757 323.713L194.289 321.003L174.486 325.512L174.609 326.276Z" fill="#969AFF"/>
<path d="M175.077 328.974L195.224 326.424L194.757 323.713L174.941 328.21L175.077 328.974Z" fill="#969AFF"/>
<path d="M175.544 331.684L195.679 329.122L195.224 326.424L175.409 330.92L175.544 331.684Z" fill="#969AFF"/>
<path d="M175.999 334.395L196.147 331.832L195.679 329.122L175.876 333.631L175.999 334.395Z" fill="#969AFF"/>
<path d="M176.467 337.105L196.614 334.542L196.147 331.832L176.332 336.329L176.467 337.105Z" fill="#969AFF"/>
<path d="M176.934 339.803L197.069 337.253L196.614 334.542L176.799 339.039L176.934 339.803Z" fill="#969AFF"/>
<path d="M177.389 342.514L197.537 339.951L197.069 337.253L177.266 341.75L177.389 342.514Z" fill="#969AFF"/>
<path d="M177.856 345.224L198.004 342.661L197.536 339.951L177.721 344.46L177.856 345.224Z" fill="#969AFF"/>
<path d="M178.324 347.922L198.459 345.372L198.004 342.661L178.188 347.158L178.324 347.922Z" fill="#969AFF"/>
<path d="M178.779 350.632L198.927 348.082L198.459 345.372L178.656 349.869L178.779 350.632Z" fill="#969AFF"/>
<path d="M179.247 353.343L199.394 350.78L198.927 348.082L179.111 352.579L179.247 353.343Z" fill="#969AFF"/>
<path d="M179.714 356.041L199.849 353.491L199.394 350.78L179.579 355.277L179.714 356.041Z" fill="#969AFF"/>
<path d="M180.169 358.751L200.316 356.201L199.849 353.491L180.034 357.987L180.169 358.751Z" fill="#969AFF"/>
<path d="M180.636 361.462L200.784 358.899L200.316 356.201L180.501 360.698L180.636 361.462Z" fill="#969AFF"/>
<path d="M181.092 364.172L201.239 361.61L200.784 358.899L180.969 363.408L181.092 364.172Z" fill="#969AFF"/>
<path d="M206.786 408.598L210.206 408.019L196.393 312.293L190.489 313.303L206.786 408.598Z" fill="#969AFF"/>
<path d="M225.37 329.433L251.258 333.216L253.268 319.416L227.38 315.633L225.37 329.433Z" fill="#455A64"/>
<path d="M224.658 329.306L223.699 335.91L231.989 347.281L239.861 348.427L251.042 339.914L252.001 333.31L224.658 329.306Z" fill="#969AFF"/>
<path d="M224.744 412.257L228.262 412.774L239.861 348.427L231.989 347.281L224.744 412.257Z" fill="#969AFF"/>
<path d="M249.713 365.01C249.713 365.01 224.019 370.776 190.021 365.096C190.021 365.096 187.488 412.356 188.927 415.029C190.366 417.702 210.132 425.181 217.327 425.883C224.523 426.585 247.647 420.388 250.992 416.347C254.338 412.306 249.713 365.01 249.713 365.01Z" fill="#263238"/>
<path d="M249.713 365.01C234.94 367.83 219.851 368.609 204.867 367.326C199.861 366.981 194.892 366.316 189.935 365.577L190.513 365.121C189.91 381.235 188.68 397.399 189.283 413.501C189.307 413.884 189.369 414.264 189.468 414.635C189.906 415.23 190.479 415.711 191.14 416.039C197.256 419.279 203.696 421.864 210.353 423.752C213.699 424.688 217.044 425.661 220.439 425.292C227.341 424.521 234.14 423.014 240.722 420.795C244.026 419.854 247.175 418.435 250.07 416.581C250.38 416.347 250.639 416.051 250.829 415.712C251.02 415.372 251.138 414.997 251.177 414.61C252.542 405.148 251.484 395.465 251.177 385.929C250.8 378.956 250.312 371.975 249.713 364.985V365.01ZM249.713 365.01C250.451 371.975 251.087 378.956 251.62 385.954C252.173 395.539 253.317 405.272 252.038 414.857C251.913 415.825 251.42 416.708 250.66 417.321C247.757 419.513 244.387 420.598 241.054 421.817C237.721 423.037 234.35 423.887 230.931 424.688C225.826 425.735 220.439 427.152 215.187 426.191C210.036 425.056 204.985 423.506 200.083 421.559C196.316 420.24 192.71 418.5 189.332 416.372C188.883 416.066 188.529 415.639 188.311 415.14C188.174 414.666 188.091 414.179 188.065 413.686C187.881 411.481 187.893 409.263 187.893 407.07C188.065 393.075 188.767 379.104 189.529 365.182V364.64L190.058 364.726C209.738 367.942 229.996 368.558 249.676 365.121L249.713 365.01Z" fill="#37474F"/>
<path d="M206.589 174.111C214.941 178.953 231.841 167.779 238.668 156.863C239.135 156.112 239.799 125.374 240.156 119.177C240.242 117.945 200.796 126.347 200.796 126.347C200.796 126.347 203.859 139.554 203.157 150.358C203.09 151.19 202.95 152.015 202.739 152.822C202.739 152.946 202.678 153.081 202.653 153.241C201.595 158.095 202.309 171.635 206.589 174.111Z" fill="#AD6359"/>
<path d="M202.653 153.303C203.967 153.56 205.3 153.709 206.638 153.746C227.019 154.498 235.789 129.969 238.618 119.115C231.447 119.768 200.734 126.334 200.734 126.334C200.734 126.334 203.809 139.554 203.096 150.371C203.044 151.204 202.908 152.029 202.69 152.835C202.727 152.995 202.665 153.143 202.653 153.303Z" fill="#263238"/>
<path d="M249.418 75.1079C252.419 89.2266 241.755 128.343 231.226 136.363C215.962 147.981 192.678 147.217 183.256 129.23C174.105 111.785 188.914 61.0631 200.476 53.9422C217.586 43.4702 244.966 54.2502 249.418 75.1079Z" fill="#AD6359"/>
<path d="M213.182 96.631C213.182 96.5447 213.367 96.8158 213.33 96.9266C212.592 99.5508 212.174 102.692 214.351 104.158C214.425 104.158 214.351 104.343 214.289 104.306C211.473 103.148 212.063 98.9964 213.182 96.631Z" fill="#263238"/>
<path d="M216.245 94.4503C220.574 95.1895 218.779 103.814 214.757 103.136C210.734 102.458 212.604 93.822 216.245 94.4503Z" fill="#263238"/>
<path d="M197.364 93.6618C197.364 93.5509 197.118 93.7481 197.106 93.8589C196.626 96.5447 195.642 99.5508 193.035 99.9327C192.961 99.9327 192.936 100.081 193.035 100.093C196.06 100.327 197.34 96.286 197.364 93.6618Z" fill="#263238"/>
<path d="M195.593 90.3724C191.374 89.1404 189.234 97.7644 193.133 98.8362C197.032 99.9081 199.099 91.395 195.593 90.3724Z" fill="#263238"/>
<path d="M221.423 91.0623C220.263 90.7393 219.121 90.3527 218.004 89.9042C216.739 89.6666 215.589 89.0169 214.732 88.0562C214.523 87.7008 214.437 87.2866 214.485 86.8771C214.534 86.4676 214.716 86.0855 215.002 85.7894C215.66 85.2949 216.438 84.9852 217.255 84.892C218.073 84.7989 218.9 84.9258 219.652 85.2596C221.28 85.7018 222.687 86.7334 223.6 88.1548C223.79 88.4904 223.877 88.8742 223.853 89.259C223.828 89.6438 223.692 90.0131 223.461 90.3216C223.23 90.6301 222.914 90.8645 222.552 90.9961C222.19 91.1276 221.798 91.1506 221.423 91.0623Z" fill="#263238"/>
<path d="M193.318 85.7894C194.525 85.8036 195.732 85.7502 196.934 85.6292C198.225 85.7603 199.524 85.4569 200.624 84.7668C200.922 84.4853 201.12 84.1133 201.187 83.7082C201.253 83.303 201.185 82.8871 200.993 82.5246C200.499 81.8653 199.839 81.3499 199.08 81.0316C198.321 80.7132 197.491 80.6034 196.675 80.7135C194.991 80.6768 193.353 81.2747 192.088 82.389C191.814 82.6552 191.623 82.9948 191.538 83.367C191.452 83.7392 191.476 84.1282 191.606 84.4872C191.736 84.8463 191.966 85.1602 192.27 85.3912C192.574 85.6221 192.937 85.7604 193.318 85.7894Z" fill="#263238"/>
<path d="M209.591 122.146C208.816 122.626 208.004 123.378 207.008 123.242C206.027 123.021 205.102 122.602 204.289 122.01C204.203 122.01 204.105 122.01 204.142 122.121C204.416 122.725 204.847 123.244 205.39 123.623C205.934 124.002 206.569 124.228 207.229 124.277C207.802 124.251 208.354 124.054 208.814 123.711C209.274 123.369 209.622 122.897 209.812 122.355C209.886 122.17 209.701 122.072 209.591 122.146Z" fill="#263238"/>
<path d="M207.954 113.164C207.06 114.082 205.984 114.804 204.797 115.283C203.609 115.762 202.334 115.989 201.054 115.949C199.931 115.937 198.816 115.759 197.745 115.419C197.54 115.368 197.339 115.302 197.143 115.222L196.577 115C196.44 114.945 196.326 114.846 196.25 114.719C196.175 114.593 196.143 114.445 196.159 114.298C196.178 114.206 196.202 114.115 196.233 114.027V113.793C196.602 111.723 197.463 108.631 197.463 108.631C196.626 108.852 192.444 109.776 192.727 108.717C195.113 99.9204 197.758 90.1383 201.989 81.8962C202.019 81.8427 202.067 81.8015 202.124 81.78C202.181 81.7585 202.244 81.758 202.302 81.7787C202.359 81.7994 202.408 81.8399 202.438 81.8931C202.469 81.9462 202.48 82.0084 202.469 82.0687C200.501 90.6065 197.057 98.75 194.953 107.3C196.448 106.95 197.984 106.813 199.517 106.894C199.787 107.029 197.77 112.832 197.672 113.768C197.664 113.805 197.664 113.842 197.672 113.879C201.03 115.037 203.822 114.532 207.684 112.918C207.991 112.77 208.164 112.992 207.954 113.164Z" fill="#263238"/>
<path d="M199.382 115.394C200.37 117.032 201.764 118.386 203.429 119.324C204.349 119.81 205.4 119.992 206.43 119.842C208.681 119.509 208.964 117.501 208.742 115.739C208.619 114.8 208.388 113.878 208.053 112.992C205.494 114.701 202.454 115.543 199.382 115.394Z" fill="#263238"/>
<path d="M203.428 119.324C204.349 119.81 205.4 119.992 206.429 119.842C208.68 119.509 208.963 117.501 208.742 115.739C206.38 115.727 203.883 117.058 203.428 119.324Z" fill="#FF98B9"/>
<path d="M217.044 116.343C216.219 114.711 215.069 113.265 213.664 112.095C212.259 110.926 210.63 110.057 208.877 109.542C205.027 108.1 200.835 107.838 196.835 108.791C191.546 110.121 189.984 113.398 189.197 119.423C188.41 125.447 188.902 134.848 190.747 137.188C192.592 139.529 200.587 144.371 206.86 144.396C213.133 144.42 218.889 141.845 220.747 140.355C223.662 138.002 218.742 119.817 217.044 116.343ZM211.989 126.384C209.651 127.558 207.048 128.102 204.437 127.961C200.981 127.961 196.38 126.642 195.335 125.423C194.289 124.203 194.006 118.376 194.388 115.283C194.769 112.191 195.618 110.479 198.521 109.838C200.741 109.38 203.046 109.55 205.175 110.331C206.135 110.598 207.034 111.052 207.819 111.667C208.604 112.283 209.26 113.047 209.75 113.916C210.71 115.702 213.588 125.176 211.989 126.359V126.384Z" fill="#263238"/>
<path opacity="0.2" d="M246.466 106.253C243.785 104.22 240.07 93.6988 238.336 89.3622C236.552 84.8284 240.218 65.9542 241.46 60.2746C241.977 60.7798 242.456 61.3218 242.912 61.8639C243.367 62.406 243.822 62.985 244.252 63.5641C245.152 64.7253 245.95 65.9618 246.638 67.2601C247.859 69.5729 248.781 72.032 249.381 74.5782C250.943 81.4774 249.554 93.9575 246.466 106.253Z" fill="#263238"/>
<path d="M201.743 67.679C202.915 69.9461 204.645 71.876 206.769 73.2861C208.894 74.6961 211.342 75.5394 213.883 75.7362C218.926 76.0812 224.535 73.839 227.413 69.5762C227.499 69.453 227.696 69.5762 227.61 69.7118C224.572 74.3194 219.517 77.5226 213.834 76.9929C211.154 76.6974 208.598 75.702 206.422 74.1064C204.246 72.5108 202.527 70.3709 201.436 67.9007C201.337 67.6297 201.645 67.4695 201.743 67.679Z" fill="#263238"/>
<path d="M225.212 35.2158C233.6 37.3718 240.255 43.8397 242.001 50.3324C242.966 54.0234 242.65 57.9334 241.103 61.4204C241.042 61.5682 240.747 61.4204 240.796 61.3218C241.734 58.142 241.801 54.768 240.99 51.5534C240.178 48.3388 238.518 45.4021 236.183 43.0513C233.656 40.3894 230.547 38.3509 227.1 37.0961C223.653 35.8413 219.963 35.4043 216.319 35.8194C212.78 36.155 209.475 37.7401 206.995 40.2916C206.762 40.5626 206.171 40.2177 206.38 39.9343C209.837 35.1911 217.61 33.2569 225.212 35.2158Z" fill="#263238"/>
<path d="M171.94 42.078C174.292 38.2252 177.931 35.3314 182.211 33.9098C188.127 31.914 193.871 33.7497 199.541 35.6963C199.566 35.7132 199.584 35.7376 199.593 35.7657C199.602 35.7939 199.601 35.8242 199.592 35.8522C199.582 35.8801 199.563 35.9041 199.539 35.9204C199.514 35.9367 199.485 35.9446 199.455 35.9426C194.634 34.2918 189.615 32.9119 184.548 34.1809C180.342 35.2087 176.619 37.6586 174.007 41.1171C171.447 44.7028 170.263 49.0916 170.669 53.4805C171.076 57.8694 173.046 61.965 176.221 65.0178C178.097 66.7257 180.302 68.0318 182.701 68.8559C185.099 69.6799 187.641 70.0047 190.169 69.8103C190.366 69.8103 190.439 70.0937 190.169 70.1183C186.72 70.5166 183.229 69.9455 180.087 68.4688C176.944 66.9922 174.274 64.6684 172.375 61.7577C170.477 58.8469 169.425 55.4643 169.337 51.9885C169.249 48.5127 170.129 45.0811 171.879 42.078H171.94Z" fill="#263238"/>
<path d="M250.267 84.5573C250.267 84.5573 261.742 71.2641 257.044 60.9646C254.375 55.1372 241.62 52.895 241.62 52.895C241.62 52.895 239.221 44.7145 229.32 39.922C219.418 35.1295 205.433 38.3943 205.433 38.3943C205.433 38.3943 196.725 30.3494 186.122 33.5772C171.362 38.074 168.398 58.4143 180.107 67.8391C188.336 74.4673 202.764 69.145 202.764 69.145C203.932 69.5886 214.597 79.8881 226.466 70.9684C226.466 70.9684 232.518 79.4692 240.414 76.2906C240.353 76.2906 242.247 83.9413 250.267 84.5573Z" fill="#263238"/>
<path d="M235.347 104.947C235.347 104.947 245.42 92.935 250.943 96.631C256.466 100.327 248.126 118.376 241.103 120.335C240.215 120.648 239.273 120.778 238.333 120.717C237.393 120.656 236.476 120.405 235.635 119.979C234.795 119.553 234.05 118.961 233.444 118.239C232.839 117.516 232.385 116.679 232.112 115.776L235.347 104.947Z" fill="#AD6359"/>
<path d="M248.483 101.707C248.594 101.707 248.606 101.855 248.483 101.892C243.563 103.419 240.611 107.645 238.446 112.105C240.021 110.454 242.05 109.641 244.276 111.55C244.3 111.574 244.315 111.604 244.319 111.637C244.323 111.67 244.316 111.703 244.299 111.732C244.282 111.76 244.256 111.782 244.225 111.794C244.194 111.806 244.16 111.807 244.129 111.797C243.309 111.455 242.403 111.377 241.537 111.573C240.671 111.77 239.888 112.231 239.295 112.893C238.301 113.995 237.434 115.206 236.712 116.503C236.441 116.91 235.691 116.614 235.9 116.134C235.898 116.101 235.898 116.068 235.9 116.035C236.343 109.9 241.829 101.744 248.483 101.707Z" fill="#263238"/>
<path d="M202.272 150.63L211.854 172.276L239.16 145.911L247.204 154.535C247.204 154.535 221.067 197.199 220.833 195.191L211.116 176.588L198.545 190.263L198.435 157.159L202.272 150.63Z" fill="#969AFF"/>
<path d="M197.561 173.939C197.733 168.469 197.745 162.962 198.151 157.504C198.151 157.319 198.471 157.221 198.52 157.504C199.75 162.74 199.062 183.635 199.271 188.624C199.8 188.033 210.943 176.6 211.066 176.773C213.133 179.705 220.254 193.257 220.759 194.489C224.719 187.331 242.677 161.483 247.425 154.67C247.45 154.626 247.491 154.594 247.539 154.58C247.587 154.566 247.639 154.572 247.683 154.597C247.728 154.621 247.76 154.662 247.774 154.711C247.788 154.759 247.782 154.811 247.757 154.855C244.301 162.395 221.435 197.261 221.103 197.174C217.385 190.781 213.994 184.202 210.943 177.462C209.074 179.926 197.868 192.776 197.795 191.975C197.407 185.971 197.329 179.951 197.561 173.939Z" fill="#263238"/>
<path d="M207.04 258.14L169.478 153.523L159.119 157.255L196.681 261.871L207.04 258.14Z" fill="#D6D6D6"/>
<path d="M144.253 165.401C144.187 165.213 144.195 165.006 144.275 164.823C144.354 164.641 144.501 164.495 144.684 164.416L159.444 158.256L160.514 161.225L145.163 165.882C144.979 165.927 144.785 165.903 144.617 165.815C144.449 165.726 144.32 165.579 144.253 165.401Z" fill="#D6D6D6"/>
<path d="M146.049 170.391C145.98 170.203 145.986 169.995 146.066 169.811C146.146 169.627 146.294 169.482 146.479 169.405L161.239 163.245L162.309 166.227L146.971 170.896C146.782 170.946 146.581 170.922 146.409 170.828C146.238 170.734 146.109 170.577 146.049 170.391Z" fill="#D6D6D6"/>
<path d="M147.832 175.38C147.766 175.192 147.774 174.986 147.854 174.803C147.934 174.62 148.08 174.474 148.263 174.395L163.023 168.235L164.093 171.204L148.853 175.861C148.654 175.932 148.435 175.922 148.244 175.832C148.052 175.742 147.904 175.579 147.832 175.38Z" fill="#D6D6D6"/>
<path d="M149.628 180.407C149.559 180.219 149.565 180.011 149.645 179.827C149.725 179.644 149.873 179.498 150.058 179.421L164.818 173.261L165.889 176.23L150.55 180.9C150.363 180.948 150.164 180.924 149.994 180.833C149.823 180.741 149.693 180.59 149.628 180.407Z" fill="#D6D6D6"/>
<path d="M151.412 185.335C151.343 185.145 151.351 184.936 151.433 184.752C151.516 184.568 151.667 184.424 151.854 184.349L166.614 178.189L167.684 181.171L152.346 185.84C152.156 185.891 151.953 185.867 151.779 185.773C151.605 185.679 151.474 185.523 151.412 185.335Z" fill="#D6D6D6"/>
<path d="M153.207 190.337C153.141 190.149 153.149 189.942 153.229 189.759C153.309 189.576 153.455 189.43 153.638 189.351L168.398 183.191L169.468 186.16L154.13 190.842C153.941 190.886 153.742 190.86 153.572 190.766C153.402 190.673 153.272 190.52 153.207 190.337Z" fill="#D6D6D6"/>
<path d="M155.003 195.314C154.934 195.126 154.94 194.918 155.021 194.735C155.101 194.551 155.249 194.405 155.434 194.329L170.194 188.169L171.252 191.138L155.914 195.807C155.728 195.854 155.531 195.83 155.362 195.739C155.194 195.647 155.065 195.496 155.003 195.314Z" fill="#D6D6D6"/>
<path d="M156.787 200.304C156.721 200.115 156.728 199.909 156.808 199.726C156.888 199.543 157.034 199.397 157.217 199.318L171.977 193.158L173.047 196.14L157.709 200.809C157.52 200.856 157.32 200.831 157.149 200.737C156.978 200.643 156.849 200.489 156.787 200.304Z" fill="#D6D6D6"/>
<path d="M158.583 205.293C158.513 205.105 158.519 204.897 158.6 204.714C158.68 204.53 158.828 204.385 159.013 204.308L173.773 198.148L174.843 201.117L159.505 205.798C159.316 205.846 159.116 205.82 158.945 205.727C158.774 205.633 158.645 205.478 158.583 205.293Z" fill="#D6D6D6"/>
<path d="M160.366 210.271C160.3 210.084 160.308 209.879 160.388 209.698C160.468 209.518 160.614 209.374 160.796 209.297L175.556 203.137L176.626 206.106L161.288 210.788C161.098 210.829 160.899 210.799 160.729 210.704C160.56 210.609 160.43 210.455 160.366 210.271Z" fill="#D6D6D6"/>
<path d="M162.162 215.26C162.092 215.072 162.098 214.864 162.179 214.681C162.259 214.497 162.407 214.351 162.592 214.275L177.352 208.115L178.422 211.096L163.084 215.765C162.895 215.813 162.695 215.787 162.524 215.693C162.353 215.6 162.224 215.445 162.162 215.26Z" fill="#D6D6D6"/>
<path d="M163.945 220.25C163.877 220.06 163.885 219.851 163.967 219.667C164.05 219.483 164.201 219.339 164.388 219.264L179.148 213.104L180.218 216.086L164.88 220.755C164.689 220.803 164.488 220.778 164.315 220.684C164.142 220.591 164.01 220.436 163.945 220.25Z" fill="#D6D6D6"/>
<path d="M165.741 225.227C165.676 225.041 165.684 224.836 165.764 224.655C165.844 224.474 165.99 224.331 166.172 224.254L180.932 218.094L182.063 221.063L166.725 225.745C166.526 225.806 166.311 225.786 166.127 225.689C165.942 225.592 165.804 225.426 165.741 225.227Z" fill="#D6D6D6"/>
<path d="M167.537 230.217C167.468 230.029 167.474 229.821 167.554 229.637C167.634 229.453 167.783 229.308 167.968 229.231L182.728 223.071L183.785 226.053L168.533 230.697C168.437 230.734 168.334 230.751 168.23 230.746C168.127 230.742 168.025 230.716 167.932 230.671C167.839 230.626 167.756 230.563 167.688 230.485C167.62 230.407 167.569 230.315 167.537 230.217Z" fill="#D6D6D6"/>
<path d="M169.321 235.206C169.254 235.018 169.262 234.811 169.342 234.629C169.422 234.446 169.568 234.3 169.751 234.221L184.511 228.061L185.581 231.042L170.243 235.711C170.054 235.759 169.854 235.733 169.683 235.64C169.512 235.546 169.383 235.391 169.321 235.206Z" fill="#D6D6D6"/>
<path d="M171.116 240.196C171.047 240.008 171.053 239.8 171.133 239.616C171.214 239.433 171.362 239.287 171.547 239.21L186.307 233.05L187.377 236.019L172.039 240.701C171.85 240.746 171.651 240.719 171.481 240.625C171.311 240.532 171.181 240.379 171.116 240.196Z" fill="#D6D6D6"/>
<path d="M172.9 245.173C172.833 244.985 172.841 244.778 172.921 244.595C173.001 244.413 173.147 244.267 173.33 244.188L188.09 238.028L189.16 240.997L173.859 245.703C173.662 245.76 173.45 245.736 173.27 245.637C173.09 245.538 172.957 245.371 172.9 245.173Z" fill="#D6D6D6"/>
<path d="M174.683 250.163C174.614 249.975 174.62 249.767 174.7 249.583C174.78 249.399 174.929 249.254 175.114 249.177L189.874 243.017L190.944 245.999L175.655 250.631C175.464 250.695 175.256 250.681 175.074 250.594C174.893 250.507 174.753 250.352 174.683 250.163Z" fill="#D6D6D6"/>
<path d="M176.479 255.152C176.41 254.963 176.418 254.754 176.501 254.57C176.584 254.386 176.734 254.241 176.922 254.167L191.682 248.007L192.752 250.976L177.414 255.657C177.223 255.705 177.021 255.68 176.848 255.587C176.675 255.493 176.544 255.338 176.479 255.152Z" fill="#D6D6D6"/>
<path d="M178.275 260.13C178.208 259.941 178.216 259.735 178.296 259.552C178.376 259.369 178.522 259.223 178.705 259.144L193.465 252.984L194.535 255.953L179.234 260.61C179.043 260.669 178.837 260.653 178.658 260.563C178.479 260.474 178.342 260.318 178.275 260.13Z" fill="#D6D6D6"/>
<path d="M180.071 265.119C180.002 264.931 180.008 264.723 180.088 264.54C180.168 264.356 180.316 264.21 180.501 264.134L195.261 257.974L196.319 260.955L180.981 265.624C180.794 265.671 180.595 265.645 180.427 265.551C180.258 265.458 180.13 265.303 180.071 265.119Z" fill="#D6D6D6"/>
<path opacity="0.1" d="M160.55 161.212L156.085 162.568L155.114 160.054L159.48 158.231L160.55 161.212Z" fill="black"/>
<path opacity="0.1" d="M162.334 166.19L158.017 167.52L157.033 164.995L161.264 163.221L162.334 166.19Z" fill="black"/>
<path opacity="0.1" d="M164.13 171.192L159.936 172.461L158.952 169.935L163.06 168.21L164.13 171.192Z" fill="black"/>
<path opacity="0.1" d="M165.925 176.169L161.866 177.413L160.87 174.863L164.855 173.187L165.925 176.169Z" fill="black"/>
<path opacity="0.1" d="M167.709 181.146L163.798 182.341L162.789 179.791L166.639 178.177L167.709 181.146Z" fill="black"/>
<path opacity="0.1" d="M169.505 186.148L165.717 187.294L164.72 184.719L168.435 183.167L169.505 186.148Z" fill="black"/>
<path opacity="0.1" d="M171.288 191.125L167.647 192.234L166.626 189.647L170.218 188.156L171.288 191.125Z" fill="black"/>
<path opacity="0.1" d="M173.084 196.115L169.566 197.187L168.558 194.575L172.014 193.134L173.084 196.115Z" fill="black"/>
<path opacity="0.1" d="M174.88 201.092L171.498 202.127L170.464 199.515L173.81 198.123L174.88 201.092Z" fill="black"/>
<path opacity="0.1" d="M176.664 206.082L173.416 207.08L172.396 204.456L175.594 203.113L176.664 206.082Z" fill="black"/>
<path opacity="0.1" d="M178.447 211.071L175.335 212.02L174.314 209.384L177.377 208.09L178.447 211.071Z" fill="black"/>
<path opacity="0.1" d="M180.243 216.061L177.266 216.96L176.233 214.312L179.185 213.08L180.243 216.061Z" fill="black"/>
<path opacity="0.1" d="M182.039 221.038L179.185 221.901L178.152 219.24L180.969 218.069L182.039 221.038Z" fill="black"/>
<path opacity="0.1" d="M183.822 226.028L181.116 226.853L180.071 224.168L182.752 223.046L183.822 226.028Z" fill="black"/>
<path opacity="0.1" d="M185.618 231.018L183.047 231.806L181.989 229.108L184.548 228.036L185.618 231.018Z" fill="black"/>
<path opacity="0.1" d="M187.401 236.007L184.966 236.746L183.908 234.048L186.344 233.026L187.401 236.007Z" fill="black"/>
<path opacity="0.1" d="M189.197 240.984L186.885 241.687L185.827 238.964L188.127 238.003L189.197 240.984Z" fill="black"/>
<path opacity="0.1" d="M190.993 245.974L188.816 246.627L187.758 243.904L189.923 242.993L190.993 245.974Z" fill="black"/>
<path opacity="0.1" d="M192.776 250.951L190.735 251.58L189.677 248.832L191.706 247.982L192.776 250.951Z" fill="black"/>
<path opacity="0.1" d="M194.56 255.941L192.666 256.52L191.596 253.76L193.502 252.959L194.56 255.941Z" fill="black"/>
<path opacity="0.1" d="M194.585 261.473L193.515 258.688L195.298 257.949L196.368 260.93L194.585 261.473Z" fill="black"/>
<path d="M331.607 322.765C315.211 328.925 275.273 323.75 211.509 296.277C202.69 292.47 239.799 236.783 249.406 240.368C261.534 244.865 304.313 260.795 307.499 262.692C334.374 278.696 342.714 318.551 331.607 322.765Z" fill="#AD6359"/>
<path d="M271.214 261.978C271.214 261.978 268.323 258.984 255.63 240.726C246.847 228.085 217.401 202.94 175.397 213.018C159.308 216.886 154.979 229.884 172.408 228.837C184.708 228.11 193.133 226.545 197.205 227.432C197.205 227.432 183.195 240.036 184.437 250.84C185.526 260.329 187.285 269.728 189.702 278.967C191.494 278.91 193.282 278.737 195.052 278.45C195.906 282.709 197.948 286.64 200.941 289.784C203.935 292.928 207.757 295.158 211.965 296.215L271.214 261.978Z" fill="#AD6359"/>
<path d="M245.322 230.007C237.511 228.048 220.882 224.18 206.171 225.757C189.849 227.506 158.853 235.293 160.268 247.354C161.313 256.2 173.453 254.327 173.453 254.327C173.453 254.327 161.325 260.253 164.007 268.027C166.467 275.123 175.704 273.078 175.704 273.078C175.704 273.078 168.964 277.932 172.629 284.314C177.045 291.977 190.452 280.544 201.62 284.449C204.08 285.262 245.322 230.007 245.322 230.007Z" fill="#AD6359"/>
<path d="M210.907 242.734C203.256 242.106 185.507 245.124 173.539 253.945C173.256 254.154 173.269 254.462 173.539 254.339C185.484 249.017 198.033 245.174 210.907 242.894C210.923 242.888 210.936 242.877 210.946 242.862C210.956 242.848 210.961 242.831 210.961 242.814C210.961 242.797 210.956 242.78 210.946 242.766C210.936 242.751 210.923 242.74 210.907 242.734Z" fill="#263238"/>
<path d="M212.186 259.255C205.532 259.39 187.389 263.333 175.557 272.696C175.286 272.906 175.311 273.213 175.557 273.066C187.207 267.142 199.492 262.563 212.174 259.415C212.19 259.41 212.205 259.4 212.216 259.387C212.227 259.373 212.233 259.357 212.234 259.339C212.236 259.322 212.232 259.305 212.223 259.29C212.215 259.275 212.202 259.262 212.186 259.255Z" fill="#263238"/>
<path d="M257.745 243.769C270.515 247.183 283.088 251.296 295.408 256.089C301.558 258.553 308.089 260.93 313.095 265.427C318.211 269.728 322.519 274.91 325.813 280.729C320.841 274.22 314.782 268.622 307.905 264.183C303.577 261.934 299.102 259.983 294.51 258.343C283.674 254.105 268.286 248.315 257.745 243.744V243.769Z" fill="#263238"/>
<path d="M455.092 22.0655C444.496 13.8807 429.26 15.8201 421.061 26.3975C414.731 34.5632 414.47 45.4781 419.544 53.802L417.425 60.7607L425.095 60.1075C425.201 60.1919 425.293 60.2863 425.401 60.369C435.997 68.554 451.233 66.6143 459.432 56.0369C467.631 45.4598 465.688 30.2501 455.092 22.0655Z" fill="#295F2B"/>
<path d="M467.578 41.2427L467.564 41.2422C467.406 41.2339 467.286 41.101 467.294 40.9443C467.7 33.2062 463.884 25.2947 457.569 20.7897C457.442 20.6984 457.413 20.5212 457.504 20.3938C457.595 20.2654 457.772 20.2377 457.9 20.328C464.367 24.9431 468.278 33.0472 467.862 40.9742C467.853 41.1253 467.728 41.2427 467.578 41.2427Z" fill="#295F2B"/>
<path d="M466.603 48.3579C466.566 48.3579 466.53 48.3513 466.494 48.3363C466.35 48.2771 466.28 48.111 466.34 47.9665C466.782 46.8956 467.002 45.7189 466.977 44.5645C466.973 44.4083 467.098 44.2782 467.254 44.2749H467.261C467.415 44.2749 467.541 44.3978 467.545 44.5523C467.572 45.7843 467.337 47.0395 466.866 48.1824C466.82 48.292 466.715 48.3579 466.603 48.3579Z" fill="#295F2B"/>
<path d="M438.093 51.3771C437.537 50.8431 437.259 50.1926 437.259 49.4257C437.259 48.6592 437.532 48.0189 438.078 47.5045C438.623 46.9901 439.32 46.7331 440.169 46.7331C441.018 46.7331 441.715 46.9901 442.26 47.5045C442.805 48.0189 443.078 48.6592 443.078 49.4257C443.078 50.1926 442.8 50.8431 442.245 51.3771C441.689 51.9119 440.997 52.1788 440.169 52.1788C439.34 52.1788 438.648 51.9119 438.093 51.3771ZM437.35 30.7589H442.987L442.048 44.5851H438.29L437.35 30.7589Z" fill="white"/>
<path d="M107.8 5.06547C118.396 -3.11929 133.632 -1.17992 141.831 9.39747C148.161 17.5632 148.422 28.4781 143.348 36.802L145.467 43.7607L137.797 43.1075C137.691 43.1919 137.599 43.2863 137.492 43.369C126.896 51.554 111.659 49.6143 103.46 39.0369C95.2609 28.4598 97.2038 13.2501 107.8 5.06547Z" fill="#7F5DE2"/>
<path d="M95.3142 24.2427L95.3286 24.2422C95.4861 24.2339 95.6059 24.101 95.5982 23.9443C95.1921 16.2062 99.0084 8.29475 105.323 3.78975C105.451 3.69838 105.479 3.52119 105.388 3.39385C105.297 3.26539 105.12 3.23769 104.992 3.32795C98.5247 7.94313 94.6141 16.0472 95.0302 23.9742C95.039 24.1253 95.1644 24.2427 95.3142 24.2427Z" fill="#7F5DE2"/>
<path d="M96.2893 31.3579C96.3259 31.3579 96.3626 31.3513 96.3981 31.3363C96.5423 31.2771 96.6122 31.111 96.5523 30.9665C96.1096 29.8956 95.89 28.7189 95.9155 27.5645C95.9188 27.4083 95.7945 27.2782 95.6381 27.2749H95.6315C95.4773 27.2749 95.3508 27.3978 95.3475 27.5523C95.3197 28.7843 95.5549 30.0395 96.0264 31.1824C96.0719 31.292 96.1773 31.3579 96.2893 31.3579Z" fill="#7F5DE2"/>
<path d="M124.799 34.3771C125.355 33.8431 125.633 33.1926 125.633 32.4257C125.633 31.6592 125.36 31.0189 124.814 30.5045C124.269 29.9901 123.572 29.7331 122.723 29.7331C121.874 29.7331 121.177 29.9901 120.632 30.5045C120.087 31.0189 119.814 31.6592 119.814 32.4257C119.814 33.1926 120.092 33.8431 120.647 34.3771C121.203 34.9119 121.895 35.1788 122.723 35.1788C123.552 35.1788 124.244 34.9119 124.799 34.3771ZM125.542 13.7589H119.905L120.844 27.5851H124.602L125.542 13.7589Z" fill="white"/>
<defs>
<filter id="filter0_d_2563_9658" x="0" y="321" width="533" height="296" filterUnits="userSpaceOnUse" color-interpolation-filters="sRGB">
<feFlood flood-opacity="0" result="BackgroundImageFix"/>
<feColorMatrix in="SourceAlpha" type="matrix" values="0 0 0 0 0 0 0 0 0 0 0 0 0 0 0 0 0 0 127 0" result="hardAlpha"/>
<feOffset/>
<feGaussianBlur stdDeviation="17.5"/>
<feComposite in2="hardAlpha" operator="out"/>
<feColorMatrix type="matrix" values="0 0 0 0 0.160784 0 0 0 0 0.372549 0 0 0 0 0.168627 0 0 0 1 0"/>
<feBlend mode="normal" in2="BackgroundImageFix" result="effect1_dropShadow_2563_9658"/>
<feBlend mode="normal" in="SourceGraphic" in2="effect1_dropShadow_2563_9658" result="shape"/>
</filter>
</defs>
</svg>
