<svg width="159" height="77" viewBox="0 0 159 77" fill="none" xmlns="http://www.w3.org/2000/svg">
<path d="M5.6 14.6H14.056C16.968 14.6 19.1707 15.2907 20.664 16.672C22.1947 18.0533 22.96 19.976 22.96 22.44V25.8C22.96 28.9733 21.6347 31.008 18.984 31.904C22.008 32.7253 23.52 34.7973 23.52 38.12V43.16C23.52 45.6613 22.7733 47.6027 21.28 48.984C19.7867 50.328 17.5653 51 14.616 51H5.6V14.6ZM19.6 43.16V38.12C19.6 36.9253 19.152 35.8427 18.256 34.872C17.36 33.864 16.1467 33.36 14.616 33.36H9.52V47.64H14.616C16.184 47.64 17.3973 47.2107 18.256 46.352C19.152 45.456 19.6 44.392 19.6 43.16ZM19.04 25.8V22.44C19.04 21.2453 18.592 20.2 17.696 19.304C16.8373 18.408 15.624 17.96 14.056 17.96H9.52V30.56H14.056C15.624 30.56 16.8373 30.0747 17.696 29.104C18.592 28.1333 19.04 27.032 19.04 25.8ZM33.8734 51V14.6H37.7934V47.64H48.0414V51H33.8734ZM54.2041 44V14.6H58.1241V44C58.1241 45.4187 58.4227 46.52 59.0201 47.304C59.6547 48.088 60.7934 48.48 62.4361 48.48C64.0787 48.48 65.5907 47.8453 66.9721 46.576C68.3534 45.3067 69.0441 44.0747 69.0441 42.88V14.6H72.9641V51H71.2841L69.8281 47.416C69.0067 48.76 67.9427 49.8427 66.6361 50.664C65.3667 51.448 63.9667 51.84 62.4361 51.84C56.9481 51.84 54.2041 49.2267 54.2041 44ZM88.1059 51H84.1859V14.6H85.8659L87.2659 18.184C88.0499 16.84 89.0766 15.776 90.3459 14.992C91.6153 14.1707 92.9966 13.76 94.4899 13.76C98.2606 13.76 100.669 15.1227 101.714 17.848C103.506 15.1227 105.858 13.76 108.77 13.76C114.034 13.76 116.666 16.3733 116.666 21.6V51H112.746V21.6C112.746 18.6133 111.402 17.12 108.714 17.12C107.146 17.12 105.69 17.7547 104.346 19.024C103.039 20.2933 102.386 21.5253 102.386 22.72V51H98.4659V21.6C98.4659 18.6133 97.1219 17.12 94.4339 17.12C92.8659 17.12 91.4099 17.736 90.0659 18.968C88.7593 20.1627 88.1059 21.3573 88.1059 22.552V51ZM141 44V40.92H144.92V44C144.92 46.5013 144.154 48.4427 142.624 49.824C141.093 51.168 138.797 51.84 135.736 51.84C132.674 51.84 130.36 51.168 128.792 49.824C127.224 48.4427 126.44 46.5013 126.44 44V21.6C126.44 19.0987 127.205 17.176 128.736 15.832C130.266 14.4507 132.562 13.76 135.624 13.76C138.685 13.76 141 14.4507 142.568 15.832C144.136 17.176 144.92 19.0987 144.92 21.6V33.92H130.36V44C130.36 46.9867 132.133 48.48 135.68 48.48C139.226 48.48 141 46.9867 141 44ZM130.36 21.6V30.56H141V21.6C141 18.6133 139.226 17.12 135.68 17.12C132.133 17.12 130.36 18.6133 130.36 21.6Z" fill="#070707"/>
<path d="M22.4264 68.44V69.184H20.9464V74H20.0344V69.184H18.5464V68.44H22.4264ZM25.262 74.072C24.846 74.072 24.47 73.9787 24.134 73.792C23.798 73.6 23.534 73.3333 23.342 72.992C23.15 72.6453 23.054 72.2453 23.054 71.792C23.054 71.344 23.1527 70.9467 23.35 70.6C23.5473 70.2533 23.8167 69.9867 24.158 69.8C24.4993 69.6133 24.8807 69.52 25.302 69.52C25.7233 69.52 26.1047 69.6133 26.446 69.8C26.7873 69.9867 27.0567 70.2533 27.254 70.6C27.4513 70.9467 27.55 71.344 27.55 71.792C27.55 72.24 27.4487 72.6373 27.246 72.984C27.0433 73.3307 26.766 73.6 26.414 73.792C26.0673 73.9787 25.6833 74.072 25.262 74.072ZM25.262 73.28C25.4967 73.28 25.7153 73.224 25.918 73.112C26.126 73 26.294 72.832 26.422 72.608C26.55 72.384 26.614 72.112 26.614 71.792C26.614 71.472 26.5527 71.2027 26.43 70.984C26.3073 70.76 26.1447 70.592 25.942 70.48C25.7393 70.368 25.5207 70.312 25.286 70.312C25.0513 70.312 24.8327 70.368 24.63 70.48C24.4327 70.592 24.2753 70.76 24.158 70.984C24.0407 71.2027 23.982 71.472 23.982 71.792C23.982 72.2667 24.102 72.6347 24.342 72.896C24.5873 73.152 24.894 73.28 25.262 73.28ZM28.1476 71.776C28.1476 71.3333 28.2382 70.9413 28.4196 70.6C28.6062 70.2587 28.8569 69.9947 29.1716 69.808C29.4916 69.616 29.8462 69.52 30.2356 69.52C30.5236 69.52 30.8062 69.584 31.0836 69.712C31.3662 69.8347 31.5902 70 31.7556 70.208V68.08H32.6756V74H31.7556V73.336C31.6062 73.5493 31.3982 73.7253 31.1316 73.864C30.8702 74.0027 30.5689 74.072 30.2276 74.072C29.8436 74.072 29.4916 73.976 29.1716 73.784C28.8569 73.5867 28.6062 73.3147 28.4196 72.968C28.2382 72.616 28.1476 72.2187 28.1476 71.776ZM31.7556 71.792C31.7556 71.488 31.6916 71.224 31.5636 71C31.4409 70.776 31.2782 70.6053 31.0756 70.488C30.8729 70.3707 30.6542 70.312 30.4196 70.312C30.1849 70.312 29.9662 70.3707 29.7636 70.488C29.5609 70.6 29.3956 70.768 29.2676 70.992C29.1449 71.2107 29.0836 71.472 29.0836 71.776C29.0836 72.08 29.1449 72.3467 29.2676 72.576C29.3956 72.8053 29.5609 72.9813 29.7636 73.104C29.9716 73.2213 30.1902 73.28 30.4196 73.28C30.6542 73.28 30.8729 73.2213 31.0756 73.104C31.2782 72.9867 31.4409 72.816 31.5636 72.592C31.6916 72.3627 31.7556 72.096 31.7556 71.792ZM35.7854 74.072C35.3694 74.072 34.9934 73.9787 34.6574 73.792C34.3214 73.6 34.0574 73.3333 33.8654 72.992C33.6734 72.6453 33.5774 72.2453 33.5774 71.792C33.5774 71.344 33.6761 70.9467 33.8734 70.6C34.0708 70.2533 34.3401 69.9867 34.6814 69.8C35.0228 69.6133 35.4041 69.52 35.8254 69.52C36.2468 69.52 36.6281 69.6133 36.9694 69.8C37.3108 69.9867 37.5801 70.2533 37.7774 70.6C37.9748 70.9467 38.0734 71.344 38.0734 71.792C38.0734 72.24 37.9721 72.6373 37.7694 72.984C37.5668 73.3307 37.2894 73.6 36.9374 73.792C36.5908 73.9787 36.2068 74.072 35.7854 74.072ZM35.7854 73.28C36.0201 73.28 36.2388 73.224 36.4414 73.112C36.6494 73 36.8174 72.832 36.9454 72.608C37.0734 72.384 37.1374 72.112 37.1374 71.792C37.1374 71.472 37.0761 71.2027 36.9534 70.984C36.8308 70.76 36.6681 70.592 36.4654 70.48C36.2628 70.368 36.0441 70.312 35.8094 70.312C35.5748 70.312 35.3561 70.368 35.1534 70.48C34.9561 70.592 34.7988 70.76 34.6814 70.984C34.5641 71.2027 34.5054 71.472 34.5054 71.792C34.5054 72.2667 34.6254 72.6347 34.8654 72.896C35.1108 73.152 35.4174 73.28 35.7854 73.28ZM40.575 74.072C40.2283 74.072 39.9163 74.0107 39.639 73.888C39.367 73.76 39.151 73.5893 38.991 73.376C38.831 73.1573 38.7457 72.9147 38.735 72.648H39.679C39.695 72.8347 39.783 72.992 39.943 73.12C40.1083 73.2427 40.3137 73.304 40.559 73.304C40.815 73.304 41.0123 73.256 41.151 73.16C41.295 73.0587 41.367 72.9307 41.367 72.776C41.367 72.6107 41.287 72.488 41.127 72.408C40.9723 72.328 40.7243 72.24 40.383 72.144C40.0523 72.0533 39.783 71.9653 39.575 71.88C39.367 71.7947 39.1857 71.664 39.031 71.488C38.8817 71.312 38.807 71.08 38.807 70.792C38.807 70.5573 38.8763 70.344 39.015 70.152C39.1537 69.9547 39.351 69.8 39.607 69.688C39.8683 69.576 40.167 69.52 40.503 69.52C41.0043 69.52 41.407 69.648 41.711 69.904C42.0203 70.1547 42.1857 70.4987 42.207 70.936H41.295C41.279 70.7387 41.199 70.5813 41.055 70.464C40.911 70.3467 40.7163 70.288 40.471 70.288C40.231 70.288 40.047 70.3333 39.919 70.424C39.791 70.5147 39.727 70.6347 39.727 70.784C39.727 70.9013 39.7697 71 39.855 71.08C39.9403 71.16 40.0443 71.224 40.167 71.272C40.2897 71.3147 40.471 71.3707 40.711 71.44C41.031 71.5253 41.2923 71.6133 41.495 71.704C41.703 71.7893 41.8817 71.9173 42.031 72.088C42.1803 72.2587 42.2577 72.4853 42.263 72.768C42.263 73.0187 42.1937 73.2427 42.055 73.44C41.9163 73.6373 41.719 73.792 41.463 73.904C41.2123 74.016 40.9163 74.072 40.575 74.072ZM47.2386 74.072C46.8226 74.072 46.4466 73.9787 46.1106 73.792C45.7746 73.6 45.5106 73.3333 45.3186 72.992C45.1266 72.6453 45.0306 72.2453 45.0306 71.792C45.0306 71.344 45.1292 70.9467 45.3266 70.6C45.5239 70.2533 45.7932 69.9867 46.1346 69.8C46.4759 69.6133 46.8572 69.52 47.2786 69.52C47.6999 69.52 48.0812 69.6133 48.4226 69.8C48.7639 69.9867 49.0332 70.2533 49.2306 70.6C49.4279 70.9467 49.5266 71.344 49.5266 71.792C49.5266 72.24 49.4252 72.6373 49.2226 72.984C49.0199 73.3307 48.7426 73.6 48.3906 73.792C48.0439 73.9787 47.6599 74.072 47.2386 74.072ZM47.2386 73.28C47.4732 73.28 47.6919 73.224 47.8946 73.112C48.1026 73 48.2706 72.832 48.3986 72.608C48.5266 72.384 48.5906 72.112 48.5906 71.792C48.5906 71.472 48.5292 71.2027 48.4066 70.984C48.2839 70.76 48.1212 70.592 47.9186 70.48C47.7159 70.368 47.4972 70.312 47.2626 70.312C47.0279 70.312 46.8092 70.368 46.6066 70.48C46.4092 70.592 46.2519 70.76 46.1346 70.984C46.0172 71.2027 45.9586 71.472 45.9586 71.792C45.9586 72.2667 46.0786 72.6347 46.3186 72.896C46.5639 73.152 46.8706 73.28 47.2386 73.28ZM52.0281 74.072C51.6815 74.072 51.3695 74.0107 51.0921 73.888C50.8201 73.76 50.6041 73.5893 50.4441 73.376C50.2841 73.1573 50.1988 72.9147 50.1881 72.648H51.1321C51.1481 72.8347 51.2361 72.992 51.3961 73.12C51.5615 73.2427 51.7668 73.304 52.0121 73.304C52.2681 73.304 52.4655 73.256 52.6041 73.16C52.7481 73.0587 52.8201 72.9307 52.8201 72.776C52.8201 72.6107 52.7401 72.488 52.5801 72.408C52.4255 72.328 52.1775 72.24 51.8361 72.144C51.5055 72.0533 51.2361 71.9653 51.0281 71.88C50.8201 71.7947 50.6388 71.664 50.4841 71.488C50.3348 71.312 50.2601 71.08 50.2601 70.792C50.2601 70.5573 50.3295 70.344 50.4681 70.152C50.6068 69.9547 50.8041 69.8 51.0601 69.688C51.3215 69.576 51.6201 69.52 51.9561 69.52C52.4575 69.52 52.8601 69.648 53.1641 69.904C53.4735 70.1547 53.6388 70.4987 53.6601 70.936H52.7481C52.7321 70.7387 52.6521 70.5813 52.5081 70.464C52.3641 70.3467 52.1695 70.288 51.9241 70.288C51.6841 70.288 51.5001 70.3333 51.3721 70.424C51.2441 70.5147 51.1801 70.6347 51.1801 70.784C51.1801 70.9013 51.2228 71 51.3081 71.08C51.3935 71.16 51.4975 71.224 51.6201 71.272C51.7428 71.3147 51.9241 71.3707 52.1641 71.44C52.4841 71.5253 52.7455 71.6133 52.9481 71.704C53.1561 71.7893 53.3348 71.9173 53.4841 72.088C53.6335 72.2587 53.7108 72.4853 53.7161 72.768C53.7161 73.0187 53.6468 73.2427 53.5081 73.44C53.3695 73.6373 53.1721 73.792 52.9161 73.904C52.6655 74.016 52.3695 74.072 52.0281 74.072ZM56.4757 71.776C56.4757 71.3333 56.5664 70.9413 56.7477 70.6C56.9344 70.2587 57.185 69.9947 57.4997 69.808C57.8197 69.616 58.1744 69.52 58.5637 69.52C58.8517 69.52 59.1344 69.584 59.4117 69.712C59.6944 69.8347 59.9184 70 60.0837 70.208V68.08H61.0037V74H60.0837V73.336C59.9344 73.5493 59.7264 73.7253 59.4597 73.864C59.1984 74.0027 58.897 74.072 58.5557 74.072C58.1717 74.072 57.8197 73.976 57.4997 73.784C57.185 73.5867 56.9344 73.3147 56.7477 72.968C56.5664 72.616 56.4757 72.2187 56.4757 71.776ZM60.0837 71.792C60.0837 71.488 60.0197 71.224 59.8917 71C59.769 70.776 59.6064 70.6053 59.4037 70.488C59.201 70.3707 58.9824 70.312 58.7477 70.312C58.513 70.312 58.2944 70.3707 58.0917 70.488C57.889 70.6 57.7237 70.768 57.5957 70.992C57.473 71.2107 57.4117 71.472 57.4117 71.776C57.4117 72.08 57.473 72.3467 57.5957 72.576C57.7237 72.8053 57.889 72.9813 58.0917 73.104C58.2997 73.2213 58.5184 73.28 58.7477 73.28C58.9824 73.28 59.201 73.2213 59.4037 73.104C59.6064 72.9867 59.769 72.816 59.8917 72.592C60.0197 72.3627 60.0837 72.096 60.0837 71.792ZM62.6656 69.008C62.5002 69.008 62.3616 68.952 62.2496 68.84C62.1376 68.728 62.0816 68.5893 62.0816 68.424C62.0816 68.2587 62.1376 68.12 62.2496 68.008C62.3616 67.896 62.5002 67.84 62.6656 67.84C62.8256 67.84 62.9616 67.896 63.0736 68.008C63.1856 68.12 63.2416 68.2587 63.2416 68.424C63.2416 68.5893 63.1856 68.728 63.0736 68.84C62.9616 68.952 62.8256 69.008 62.6656 69.008ZM63.1136 69.592V74H62.2016V69.592H63.1136ZM65.2229 70.232C65.3563 70.008 65.5323 69.8347 65.7509 69.712C65.9749 69.584 66.2389 69.52 66.5429 69.52V70.464H66.3109C65.9536 70.464 65.6816 70.5547 65.4949 70.736C65.3136 70.9173 65.2229 71.232 65.2229 71.68V74H64.3109V69.592H65.2229V70.232ZM71.4213 71.688C71.4213 71.8533 71.4106 72.0027 71.3893 72.136H68.0213C68.0479 72.488 68.1786 72.7707 68.4133 72.984C68.6479 73.1973 68.9359 73.304 69.2773 73.304C69.7679 73.304 70.1146 73.0987 70.3173 72.688H71.3012C71.1679 73.0933 70.9253 73.4267 70.5733 73.688C70.2266 73.944 69.7946 74.072 69.2773 74.072C68.8559 74.072 68.4773 73.9787 68.1413 73.792C67.8106 73.6 67.5493 73.3333 67.3573 72.992C67.1706 72.6453 67.0773 72.2453 67.0773 71.792C67.0773 71.3387 67.1679 70.9413 67.3493 70.6C67.5359 70.2533 67.7946 69.9867 68.1253 69.8C68.4613 69.6133 68.8453 69.52 69.2773 69.52C69.6933 69.52 70.0639 69.6107 70.3893 69.792C70.7146 69.9733 70.9679 70.2293 71.1493 70.56C71.3306 70.8853 71.4213 71.2613 71.4213 71.688ZM70.4693 71.4C70.4639 71.064 70.3439 70.7947 70.1093 70.592C69.8746 70.3893 69.5839 70.288 69.2373 70.288C68.9226 70.288 68.6533 70.3893 68.4293 70.592C68.2053 70.7893 68.0719 71.0587 68.0293 71.4H70.4693ZM72.7828 69.008C72.6174 69.008 72.4788 68.952 72.3668 68.84C72.2548 68.728 72.1988 68.5893 72.1988 68.424C72.1988 68.2587 72.2548 68.12 72.3668 68.008C72.4788 67.896 72.6174 67.84 72.7828 67.84C72.9428 67.84 73.0788 67.896 73.1908 68.008C73.3028 68.12 73.3588 68.2587 73.3588 68.424C73.3588 68.5893 73.3028 68.728 73.1908 68.84C73.0788 68.952 72.9428 69.008 72.7828 69.008ZM73.2308 69.592V74H72.3188V69.592H73.2308ZM75.4921 70.336V72.776C75.4921 72.9413 75.5295 73.0613 75.6041 73.136C75.6841 73.2053 75.8175 73.24 76.0041 73.24H76.5641V74H75.8441C75.4335 74 75.1188 73.904 74.9001 73.712C74.6815 73.52 74.5721 73.208 74.5721 72.776V70.336H74.0521V69.592H74.5721V68.496H75.4921V69.592H76.5641V70.336H75.4921ZM79.3167 74.072C78.9007 74.072 78.5247 73.9787 78.1887 73.792C77.8527 73.6 77.5887 73.3333 77.3967 72.992C77.2047 72.6453 77.1087 72.2453 77.1087 71.792C77.1087 71.344 77.2074 70.9467 77.4047 70.6C77.602 70.2533 77.8714 69.9867 78.2127 69.8C78.554 69.6133 78.9354 69.52 79.3567 69.52C79.778 69.52 80.1594 69.6133 80.5007 69.8C80.842 69.9867 81.1114 70.2533 81.3087 70.6C81.506 70.9467 81.6047 71.344 81.6047 71.792C81.6047 72.24 81.5034 72.6373 81.3007 72.984C81.098 73.3307 80.8207 73.6 80.4687 73.792C80.122 73.9787 79.738 74.072 79.3167 74.072ZM79.3167 73.28C79.5514 73.28 79.77 73.224 79.9727 73.112C80.1807 73 80.3487 72.832 80.4767 72.608C80.6047 72.384 80.6687 72.112 80.6687 71.792C80.6687 71.472 80.6074 71.2027 80.4847 70.984C80.362 70.76 80.1994 70.592 79.9967 70.48C79.794 70.368 79.5754 70.312 79.3407 70.312C79.106 70.312 78.8874 70.368 78.6847 70.48C78.4874 70.592 78.33 70.76 78.2127 70.984C78.0954 71.2027 78.0367 71.472 78.0367 71.792C78.0367 72.2667 78.1567 72.6347 78.3967 72.896C78.642 73.152 78.9487 73.28 79.3167 73.28ZM84.1063 74.072C83.7596 74.072 83.4476 74.0107 83.1703 73.888C82.8983 73.76 82.6823 73.5893 82.5223 73.376C82.3623 73.1573 82.2769 72.9147 82.2663 72.648H83.2103C83.2263 72.8347 83.3143 72.992 83.4743 73.12C83.6396 73.2427 83.8449 73.304 84.0903 73.304C84.3463 73.304 84.5436 73.256 84.6823 73.16C84.8263 73.0587 84.8983 72.9307 84.8983 72.776C84.8983 72.6107 84.8183 72.488 84.6583 72.408C84.5036 72.328 84.2556 72.24 83.9143 72.144C83.5836 72.0533 83.3143 71.9653 83.1063 71.88C82.8983 71.7947 82.7169 71.664 82.5623 71.488C82.4129 71.312 82.3383 71.08 82.3383 70.792C82.3383 70.5573 82.4076 70.344 82.5463 70.152C82.6849 69.9547 82.8823 69.8 83.1383 69.688C83.3996 69.576 83.6983 69.52 84.0343 69.52C84.5356 69.52 84.9383 69.648 85.2423 69.904C85.5516 70.1547 85.7169 70.4987 85.7383 70.936H84.8263C84.8103 70.7387 84.7303 70.5813 84.5863 70.464C84.4423 70.3467 84.2476 70.288 84.0023 70.288C83.7623 70.288 83.5783 70.3333 83.4503 70.424C83.3223 70.5147 83.2583 70.6347 83.2583 70.784C83.2583 70.9013 83.3009 71 83.3863 71.08C83.4716 71.16 83.5756 71.224 83.6983 71.272C83.8209 71.3147 84.0023 71.3707 84.2423 71.44C84.5623 71.5253 84.8236 71.6133 85.0263 71.704C85.2343 71.7893 85.4129 71.9173 85.5623 72.088C85.7116 72.2587 85.7889 72.4853 85.7943 72.768C85.7943 73.0187 85.7249 73.2427 85.5863 73.44C85.4476 73.6373 85.2503 73.792 84.9943 73.904C84.7436 74.016 84.4476 74.072 84.1063 74.072ZM89.7698 70.232C89.9031 70.008 90.0791 69.8347 90.2978 69.712C90.5218 69.584 90.7858 69.52 91.0898 69.52V70.464H90.8578C90.5005 70.464 90.2285 70.5547 90.0418 70.736C89.8605 70.9173 89.7698 71.232 89.7698 71.68V74H88.8578V69.592H89.7698V70.232ZM95.9681 71.688C95.9681 71.8533 95.9575 72.0027 95.9361 72.136H92.5681C92.5948 72.488 92.7255 72.7707 92.9601 72.984C93.1948 73.1973 93.4828 73.304 93.8241 73.304C94.3148 73.304 94.6615 73.0987 94.8641 72.688H95.8481C95.7148 73.0933 95.4721 73.4267 95.1201 73.688C94.7735 73.944 94.3415 74.072 93.8241 74.072C93.4028 74.072 93.0241 73.9787 92.6881 73.792C92.3575 73.6 92.0961 73.3333 91.9041 72.992C91.7175 72.6453 91.6241 72.2453 91.6241 71.792C91.6241 71.3387 91.7148 70.9413 91.8961 70.6C92.0828 70.2533 92.3415 69.9867 92.6721 69.8C93.0081 69.6133 93.3921 69.52 93.8241 69.52C94.2401 69.52 94.6108 69.6107 94.9361 69.792C95.2615 69.9733 95.5148 70.2293 95.6961 70.56C95.8775 70.8853 95.9681 71.2613 95.9681 71.688ZM95.0161 71.4C95.0108 71.064 94.8908 70.7947 94.6561 70.592C94.4215 70.3893 94.1308 70.288 93.7841 70.288C93.4695 70.288 93.2001 70.3893 92.9761 70.592C92.7521 70.7893 92.6188 71.0587 92.5761 71.4H95.0161ZM98.4656 74.072C98.119 74.072 97.807 74.0107 97.5296 73.888C97.2576 73.76 97.0416 73.5893 96.8816 73.376C96.7216 73.1573 96.6363 72.9147 96.6256 72.648H97.5696C97.5856 72.8347 97.6736 72.992 97.8336 73.12C97.999 73.2427 98.2043 73.304 98.4496 73.304C98.7056 73.304 98.903 73.256 99.0416 73.16C99.1856 73.0587 99.2576 72.9307 99.2576 72.776C99.2576 72.6107 99.1776 72.488 99.0176 72.408C98.863 72.328 98.615 72.24 98.2736 72.144C97.943 72.0533 97.6736 71.9653 97.4656 71.88C97.2576 71.7947 97.0763 71.664 96.9216 71.488C96.7723 71.312 96.6976 71.08 96.6976 70.792C96.6976 70.5573 96.767 70.344 96.9056 70.152C97.0443 69.9547 97.2416 69.8 97.4976 69.688C97.759 69.576 98.0576 69.52 98.3936 69.52C98.895 69.52 99.2976 69.648 99.6016 69.904C99.911 70.1547 100.076 70.4987 100.098 70.936H99.1856C99.1696 70.7387 99.0896 70.5813 98.9456 70.464C98.8016 70.3467 98.607 70.288 98.3616 70.288C98.1216 70.288 97.9376 70.3333 97.8096 70.424C97.6816 70.5147 97.6176 70.6347 97.6176 70.784C97.6176 70.9013 97.6603 71 97.7456 71.08C97.831 71.16 97.935 71.224 98.0576 71.272C98.1803 71.3147 98.3616 71.3707 98.6016 71.44C98.9216 71.5253 99.183 71.6133 99.3856 71.704C99.5936 71.7893 99.7723 71.9173 99.9216 72.088C100.071 72.2587 100.148 72.4853 100.154 72.768C100.154 73.0187 100.084 73.2427 99.9456 73.44C99.807 73.6373 99.6096 73.792 99.3536 73.904C99.103 74.016 98.807 74.072 98.4656 74.072ZM105.179 71.688C105.179 71.8533 105.168 72.0027 105.147 72.136H101.779C101.806 72.488 101.936 72.7707 102.171 72.984C102.406 73.1973 102.694 73.304 103.035 73.304C103.526 73.304 103.872 73.0987 104.075 72.688H105.059C104.926 73.0933 104.683 73.4267 104.331 73.688C103.984 73.944 103.552 74.072 103.035 74.072C102.614 74.072 102.235 73.9787 101.899 73.792C101.568 73.6 101.307 73.3333 101.115 72.992C100.928 72.6453 100.835 72.2453 100.835 71.792C100.835 71.3387 100.926 70.9413 101.107 70.6C101.294 70.2533 101.552 69.9867 101.883 69.8C102.219 69.6133 102.603 69.52 103.035 69.52C103.451 69.52 103.822 69.6107 104.147 69.792C104.472 69.9733 104.726 70.2293 104.907 70.56C105.088 70.8853 105.179 71.2613 105.179 71.688ZM104.227 71.4C104.222 71.064 104.102 70.7947 103.867 70.592C103.632 70.3893 103.342 70.288 102.995 70.288C102.68 70.288 102.411 70.3893 102.187 70.592C101.963 70.7893 101.83 71.0587 101.787 71.4H104.227ZM106.989 70.232C107.122 70.008 107.298 69.8347 107.517 69.712C107.741 69.584 108.005 69.52 108.309 69.52V70.464H108.077C107.719 70.464 107.447 70.5547 107.261 70.736C107.079 70.9173 106.989 71.232 106.989 71.68V74H106.077V69.592H106.989V70.232ZM110.851 73.184L112.099 69.592H113.067L111.387 74H110.299L108.627 69.592H109.603L110.851 73.184ZM113.452 71.776C113.452 71.3333 113.543 70.9413 113.724 70.6C113.911 70.2587 114.162 69.9947 114.476 69.808C114.796 69.616 115.148 69.52 115.532 69.52C115.879 69.52 116.18 69.5893 116.436 69.728C116.698 69.8613 116.906 70.0293 117.06 70.232V69.592H117.98V74H117.06V73.344C116.906 73.552 116.695 73.7253 116.428 73.864C116.162 74.0027 115.858 74.072 115.516 74.072C115.138 74.072 114.791 73.976 114.476 73.784C114.162 73.5867 113.911 73.3147 113.724 72.968C113.543 72.616 113.452 72.2187 113.452 71.776ZM117.06 71.792C117.06 71.488 116.996 71.224 116.868 71C116.746 70.776 116.583 70.6053 116.38 70.488C116.178 70.3707 115.959 70.312 115.724 70.312C115.49 70.312 115.271 70.3707 115.068 70.488C114.866 70.6 114.7 70.768 114.572 70.992C114.45 71.2107 114.388 71.472 114.388 71.776C114.388 72.08 114.45 72.3467 114.572 72.576C114.7 72.8053 114.866 72.9813 115.068 73.104C115.276 73.2213 115.495 73.28 115.724 73.28C115.959 73.28 116.178 73.2213 116.38 73.104C116.583 72.9867 116.746 72.816 116.868 72.592C116.996 72.3627 117.06 72.096 117.06 71.792ZM118.874 71.776C118.874 71.3333 118.965 70.9413 119.146 70.6C119.333 70.2587 119.583 69.9947 119.898 69.808C120.218 69.616 120.573 69.52 120.962 69.52C121.25 69.52 121.533 69.584 121.81 69.712C122.093 69.8347 122.317 70 122.482 70.208V68.08H123.402V74H122.482V73.336C122.333 73.5493 122.125 73.7253 121.858 73.864C121.597 74.0027 121.295 74.072 120.954 74.072C120.57 74.072 120.218 73.976 119.898 73.784C119.583 73.5867 119.333 73.3147 119.146 72.968C118.965 72.616 118.874 72.2187 118.874 71.776ZM122.482 71.792C122.482 71.488 122.418 71.224 122.29 71C122.167 70.776 122.005 70.6053 121.802 70.488C121.599 70.3707 121.381 70.312 121.146 70.312C120.911 70.312 120.693 70.3707 120.49 70.488C120.287 70.6 120.122 70.768 119.994 70.992C119.871 71.2107 119.81 71.472 119.81 71.776C119.81 72.08 119.871 72.3467 119.994 72.576C120.122 72.8053 120.287 72.9813 120.49 73.104C120.698 73.2213 120.917 73.28 121.146 73.28C121.381 73.28 121.599 73.2213 121.802 73.104C122.005 72.9867 122.167 72.816 122.29 72.592C122.418 72.3627 122.482 72.096 122.482 71.792ZM126.512 74.072C126.096 74.072 125.72 73.9787 125.384 73.792C125.048 73.6 124.784 73.3333 124.592 72.992C124.4 72.6453 124.304 72.2453 124.304 71.792C124.304 71.344 124.403 70.9467 124.6 70.6C124.797 70.2533 125.067 69.9867 125.408 69.8C125.749 69.6133 126.131 69.52 126.552 69.52C126.973 69.52 127.355 69.6133 127.696 69.8C128.037 69.9867 128.307 70.2533 128.504 70.6C128.701 70.9467 128.8 71.344 128.8 71.792C128.8 72.24 128.699 72.6373 128.496 72.984C128.293 73.3307 128.016 73.6 127.664 73.792C127.317 73.9787 126.933 74.072 126.512 74.072ZM126.512 73.28C126.747 73.28 126.965 73.224 127.168 73.112C127.376 73 127.544 72.832 127.672 72.608C127.8 72.384 127.864 72.112 127.864 71.792C127.864 71.472 127.803 71.2027 127.68 70.984C127.557 70.76 127.395 70.592 127.192 70.48C126.989 70.368 126.771 70.312 126.536 70.312C126.301 70.312 126.083 70.368 125.88 70.48C125.683 70.592 125.525 70.76 125.408 70.984C125.291 71.2027 125.232 71.472 125.232 71.792C125.232 72.2667 125.352 72.6347 125.592 72.896C125.837 73.152 126.144 73.28 126.512 73.28ZM131.302 74.072C130.955 74.072 130.643 74.0107 130.366 73.888C130.094 73.76 129.878 73.5893 129.718 73.376C129.558 73.1573 129.472 72.9147 129.462 72.648H130.406C130.422 72.8347 130.51 72.992 130.67 73.12C130.835 73.2427 131.04 73.304 131.286 73.304C131.542 73.304 131.739 73.256 131.878 73.16C132.022 73.0587 132.094 72.9307 132.094 72.776C132.094 72.6107 132.014 72.488 131.854 72.408C131.699 72.328 131.451 72.24 131.11 72.144C130.779 72.0533 130.51 71.9653 130.302 71.88C130.094 71.7947 129.912 71.664 129.758 71.488C129.608 71.312 129.534 71.08 129.534 70.792C129.534 70.5573 129.603 70.344 129.742 70.152C129.88 69.9547 130.078 69.8 130.334 69.688C130.595 69.576 130.894 69.52 131.23 69.52C131.731 69.52 132.134 69.648 132.438 69.904C132.747 70.1547 132.912 70.4987 132.934 70.936H132.022C132.006 70.7387 131.926 70.5813 131.782 70.464C131.638 70.3467 131.443 70.288 131.198 70.288C130.958 70.288 130.774 70.3333 130.646 70.424C130.518 70.5147 130.454 70.6347 130.454 70.784C130.454 70.9013 130.496 71 130.582 71.08C130.667 71.16 130.771 71.224 130.894 71.272C131.016 71.3147 131.198 71.3707 131.438 71.44C131.758 71.5253 132.019 71.6133 132.222 71.704C132.43 71.7893 132.608 71.9173 132.758 72.088C132.907 72.2587 132.984 72.4853 132.99 72.768C132.99 73.0187 132.92 73.2427 132.782 73.44C132.643 73.6373 132.446 73.792 132.19 73.904C131.939 74.016 131.643 74.072 131.302 74.072ZM138.613 68.368C139.157 68.368 139.64 68.4907 140.061 68.736C140.482 68.976 140.81 69.312 141.045 69.744C141.28 70.176 141.397 70.6667 141.397 71.216C141.397 71.7653 141.28 72.2587 141.045 72.696C140.81 73.128 140.482 73.4667 140.061 73.712C139.64 73.952 139.157 74.072 138.613 74.072C138.069 74.072 137.584 73.952 137.157 73.712C136.736 73.4667 136.408 73.128 136.173 72.696C135.938 72.2587 135.821 71.7653 135.821 71.216C135.821 70.6667 135.938 70.176 136.173 69.744C136.408 69.312 136.736 68.976 137.157 68.736C137.584 68.4907 138.069 68.368 138.613 68.368ZM138.613 68.736C138.128 68.736 137.704 68.8373 137.341 69.04C136.984 69.2427 136.706 69.5333 136.509 69.912C136.317 70.2853 136.221 70.72 136.221 71.216C136.221 71.712 136.317 72.1467 136.509 72.52C136.706 72.8933 136.984 73.184 137.341 73.392C137.704 73.6 138.128 73.704 138.613 73.704C139.093 73.704 139.512 73.6 139.869 73.392C140.232 73.184 140.509 72.8933 140.701 72.52C140.898 72.1467 140.997 71.712 140.997 71.216C140.997 70.72 140.898 70.2853 140.701 69.912C140.509 69.5333 140.234 69.2427 139.877 69.04C139.52 68.8373 139.098 68.736 138.613 68.736ZM138.589 69.376C138.264 69.376 137.968 69.4533 137.701 69.608C137.434 69.7573 137.224 69.9707 137.069 70.248C136.92 70.5253 136.845 70.8453 136.845 71.208C136.845 71.5707 136.922 71.8933 137.077 72.176C137.232 72.4533 137.44 72.6693 137.701 72.824C137.968 72.9733 138.264 73.048 138.589 73.048C138.994 73.048 139.344 72.9413 139.637 72.728C139.93 72.5093 140.128 72.224 140.229 71.872H139.397C139.328 72.0427 139.229 72.1733 139.101 72.264C138.973 72.3547 138.802 72.4 138.589 72.4C138.306 72.4 138.08 72.2987 137.909 72.096C137.738 71.888 137.653 71.592 137.653 71.208C137.653 70.824 137.738 70.5307 137.909 70.328C138.08 70.1253 138.306 70.024 138.589 70.024C138.792 70.024 138.962 70.0693 139.101 70.16C139.245 70.2507 139.344 70.3813 139.397 70.552H140.229C140.128 70.1787 139.933 69.8907 139.645 69.688C139.357 69.48 139.005 69.376 138.589 69.376Z" fill="#303030"/>
</svg>
