<svg width="100" height="28" viewBox="0 0 100 28" fill="none" xmlns="http://www.w3.org/2000/svg">
<path d="M5.96046e-08 0.999999H6.04C8.12 0.999999 9.69333 1.49333 10.76 2.48C11.8533 3.46667 12.4 4.84 12.4 6.6V9C12.4 11.2667 11.4533 12.72 9.56 13.36C11.72 13.9467 12.8 15.4267 12.8 17.8V21.4C12.8 23.1867 12.2667 24.5733 11.2 25.56C10.1333 26.52 8.54667 27 6.44 27H5.96046e-08V0.999999ZM10 21.4V17.8C10 16.9467 9.68 16.1733 9.04 15.48C8.4 14.76 7.53333 14.4 6.44 14.4H2.8V24.6H6.44C7.56 24.6 8.42667 24.2933 9.04 23.68C9.68 23.04 10 22.28 10 21.4ZM9.6 9V6.6C9.6 5.74666 9.28 5 8.64 4.36C8.02667 3.72 7.16 3.4 6.04 3.4H2.8V12.4H6.04C7.16 12.4 8.02667 12.0533 8.64 11.36C9.28 10.6667 9.6 9.88 9.6 9ZM20.1953 27V0.999999H22.9953V24.6H30.3153V27H20.1953ZM34.7172 22V0.999999H37.5172V22C37.5172 23.0133 37.7305 23.8 38.1572 24.36C38.6105 24.92 39.4239 25.2 40.5972 25.2C41.7705 25.2 42.8505 24.7467 43.8372 23.84C44.8239 22.9333 45.3172 22.0533 45.3172 21.2V0.999999H48.1172V27H46.9172L45.8772 24.44C45.2905 25.4 44.5305 26.1733 43.5972 26.76C42.6905 27.32 41.6905 27.6 40.5972 27.6C36.6772 27.6 34.7172 25.7333 34.7172 22ZM58.9328 27H56.1328V0.999999H57.3328L58.3328 3.56C58.8928 2.6 59.6261 1.84 60.5328 1.28C61.4395 0.693333 62.4261 0.399999 63.4928 0.399999C66.1861 0.399999 67.9061 1.37333 68.6528 3.32C69.9328 1.37333 71.6128 0.399999 73.6928 0.399999C77.4528 0.399999 79.3328 2.26667 79.3328 6V27H76.5328V6C76.5328 3.86667 75.5728 2.8 73.6528 2.8C72.5328 2.8 71.4928 3.25333 70.5328 4.16C69.5995 5.06667 69.1328 5.94667 69.1328 6.8V27H66.3328V6C66.3328 3.86667 65.3728 2.8 63.4528 2.8C62.3328 2.8 61.2928 3.24 60.3328 4.12C59.3995 4.97333 58.9328 5.82667 58.9328 6.68V27ZM96.7141 22V19.8H99.5141V22C99.5141 23.7867 98.9674 25.1733 97.8741 26.16C96.7807 27.12 95.1407 27.6 92.9541 27.6C90.7674 27.6 89.1141 27.12 87.9941 26.16C86.8741 25.1733 86.3141 23.7867 86.3141 22V6C86.3141 4.21333 86.8607 2.84 87.9541 1.88C89.0474 0.893332 90.6874 0.399999 92.8741 0.399999C95.0607 0.399999 96.7141 0.893332 97.8341 1.88C98.9541 2.84 99.5141 4.21333 99.5141 6V14.8H89.1141V22C89.1141 24.1333 90.3807 25.2 92.9141 25.2C95.4474 25.2 96.7141 24.1333 96.7141 22ZM89.1141 6V12.4H96.7141V6C96.7141 3.86667 95.4474 2.8 92.9141 2.8C90.3807 2.8 89.1141 3.86667 89.1141 6Z" fill="#070707"/>
</svg>
