<svg width="129" height="146" viewBox="0 0 129 146" fill="none" xmlns="http://www.w3.org/2000/svg">
<g filter="url(#filter0_d_203_1040)">
<path d="M1.43457 116.744C1.2014 116.588 1.02002 116.366 0.913543 116.106C0.807062 115.846 0.780295 115.561 0.836653 115.286L15.1625 51.8819C15.3349 51.2688 15.7239 50.7391 16.2573 50.3912L101.501 1.18396C101.762 1.04612 102.052 0.971727 102.346 0.966813C102.641 0.961899 102.933 1.02661 103.198 1.15568C103.428 1.31298 103.606 1.53449 103.71 1.79248C103.814 2.05047 103.84 2.33347 103.784 2.60604L89.454 66.0098C89.2813 66.6238 88.8906 67.1539 88.3552 67.5006L3.13137 116.708C2.87134 116.847 2.58216 116.923 2.28732 116.929C1.99249 116.935 1.70033 116.872 1.43457 116.744Z" fill="#F0F0F0"/>
<path d="M16.8028 52.819L2.47694 116.247C2.35574 116.788 2.64662 117.007 3.13142 116.728L88.3754 67.5206C88.9108 67.1739 89.3015 66.6439 89.4743 66.0298L103.784 2.60587C103.905 2.06047 103.614 1.84635 103.129 2.12511L17.8855 51.3323C17.3577 51.6817 16.9733 52.2095 16.8028 52.819Z" fill="#E6E6E6"/>
<path d="M104.822 2.09296C104.557 1.96451 104.265 1.90049 103.97 1.9061C103.675 1.91172 103.386 1.98681 103.125 2.12528L17.8814 51.3325C17.6341 51.4925 17.4353 51.7172 17.3064 51.982C17.1776 52.2469 17.1235 52.542 17.1502 52.8354L28.3693 131.369C28.424 131.667 28.5376 131.95 28.7034 132.204C28.8692 132.457 29.0839 132.674 29.3348 132.844C29.5993 132.973 29.8908 133.037 30.1851 133.032C30.4795 133.026 30.7683 132.951 31.0276 132.811L116.255 83.6161C116.503 83.4557 116.703 83.2305 116.832 82.9648C116.96 82.6991 117.014 82.4032 116.987 82.1092L105.804 3.56756C105.747 3.26852 105.631 2.98388 105.463 2.73056C105.294 2.47724 105.076 2.26041 104.822 2.09296Z" fill="#F0F0F0"/>
<path d="M18.8066 53.7846L30.0095 132.318C30.0117 132.435 30.0463 132.549 30.1095 132.648C30.1726 132.747 30.2618 132.826 30.3673 132.877C30.4727 132.928 30.5902 132.949 30.7067 132.937C30.8233 132.926 30.9343 132.882 31.0276 132.811L116.255 83.616C116.503 83.4556 116.703 83.2303 116.831 82.9647C116.96 82.699 117.014 82.4031 116.987 82.1091L105.804 3.56742C105.802 3.44997 105.768 3.33523 105.706 3.23601C105.643 3.13678 105.553 3.05696 105.448 3.00544C105.342 2.95391 105.225 2.93272 105.108 2.9442C104.991 2.95569 104.879 2.99941 104.786 3.0705L19.5418 52.2777C19.2932 52.4376 19.0931 52.6626 18.9635 52.9283C18.8338 53.194 18.7796 53.4902 18.8066 53.7846Z" fill="#FAFAFA"/>
<path d="M2.55371 115.892L24.3697 103.291L25.004 107.856L15.001 113.633C15.001 113.633 12.3345 114.579 11.2761 114.845C10.2176 115.112 2.55371 115.892 2.55371 115.892Z" fill="#E0E0E0"/>
<path d="M25.016 107.86L28.2884 130.807L15.0129 113.637L25.016 107.86Z" fill="#E6E6E6"/>
<path d="M27.8965 131.571L15.9987 116.118C15.8011 115.887 15.5515 115.707 15.2704 115.593C14.9893 115.478 14.685 115.433 14.3827 115.459L3.2565 117.075C2.62993 117.142 1.99731 117.027 1.43446 116.744C0.981981 116.485 1.05874 116.187 1.60414 116.081L14.3907 113.621C14.6905 113.576 14.9969 113.609 15.2801 113.718C15.5632 113.826 15.8136 114.006 16.0067 114.239L29.5529 132.5C29.8841 132.948 29.7872 133.098 29.3347 132.835C28.7893 132.495 28.3034 132.068 27.8965 131.571Z" fill="#E0E0E0"/>
<path d="M103.804 2.29502C103.803 2.06738 103.745 1.84362 103.637 1.6435C103.528 1.44339 103.372 1.27309 103.182 1.14766C102.916 1.02045 102.624 0.957134 102.33 0.962745C102.035 0.968357 101.746 1.04275 101.485 1.17998L16.2412 50.3872C15.9813 50.5501 15.755 50.7613 15.5746 51.0093C15.3744 51.2674 15.2274 51.5626 15.1423 51.8779L13.1223 60.8346L14.7626 61.7759L101.764 11.5587L103.784 2.6061C103.803 2.50357 103.811 2.39928 103.808 2.29502H103.804Z" fill="#423881"/>
<path opacity="0.2" d="M103.784 2.60587C103.905 2.06047 103.614 1.84635 103.129 2.12511L17.8854 51.3323C17.353 51.6796 16.9641 52.2076 16.7905 52.819L14.7705 61.7757L101.764 11.5585L103.784 2.60587Z" fill="black"/>
<path opacity="0.1" d="M17.2311 51.9545C17.0305 52.2103 16.8847 52.5046 16.8028 52.8191L14.7828 61.7758L13.1426 60.8304L15.1626 51.8737C15.2477 51.5584 15.3946 51.2632 15.5949 51.0051L17.2311 51.9545Z" fill="black"/>
<path opacity="0.4" d="M103.804 2.29087C103.764 1.98787 103.501 1.88687 103.125 2.12523L17.8813 51.3284C17.6195 51.4905 17.3929 51.7035 17.2147 51.9546L15.5745 51.0052C15.7549 50.7571 15.9811 50.5459 16.2411 50.383L101.485 1.17583C101.746 1.0386 102.035 0.964206 102.33 0.958595C102.624 0.952983 102.916 1.01631 103.182 1.14351C103.372 1.26894 103.528 1.43924 103.636 1.63935C103.745 1.83947 103.803 2.06323 103.804 2.29087Z" fill="white"/>
<path d="M105.889 4.319L105.804 3.56756C105.798 3.5308 105.79 3.49439 105.78 3.45848C105.782 3.44778 105.782 3.43686 105.78 3.42616C105.642 2.88251 105.31 2.40815 104.847 2.09296C104.581 1.96451 104.289 1.90049 103.994 1.9061C103.699 1.91172 103.41 1.98681 103.15 2.12528L17.9057 51.3325C17.6477 51.4923 17.4436 51.7259 17.3199 52.0031C17.1937 52.2612 17.1433 52.5498 17.1745 52.8354L18.7905 64.0868L20.4307 65.0362L107.392 14.823L105.889 4.319Z" fill="#423881"/>
<path opacity="0.1" d="M20.4144 65.0321L18.7742 64.0827L17.1582 52.8313C17.127 52.5457 17.1774 52.2571 17.3036 51.999L18.9479 52.9444C18.8188 53.2016 18.7668 53.4906 18.7984 53.7766L20.4144 65.0321Z" fill="black"/>
<path opacity="0.4" d="M105.755 3.42616C105.732 3.32438 105.684 3.23006 105.615 3.15187C105.546 3.07368 105.458 3.01414 105.36 2.97873C105.262 2.94332 105.156 2.93318 105.053 2.94924C104.95 2.9653 104.852 3.00705 104.77 3.07064L19.5256 52.2778C19.2666 52.4365 19.0622 52.6705 18.9398 52.9485L17.3279 52.0031C17.4526 51.7255 17.6563 51.4908 17.9137 51.3284L103.158 2.12528C103.418 1.98681 103.707 1.91172 104.002 1.9061C104.297 1.90049 104.589 1.96451 104.854 2.09296C105.307 2.41274 105.628 2.88683 105.755 3.42616Z" fill="white"/>
<path d="M43.0426 119.305L42.0245 112.15C42.0231 112.057 41.9961 111.966 41.9465 111.887C41.8968 111.809 41.8265 111.745 41.7432 111.703C41.6598 111.661 41.5667 111.643 41.4738 111.651C41.3809 111.659 41.2919 111.692 41.2165 111.746L33.787 116.037C33.5868 116.165 33.426 116.346 33.3226 116.56C33.2192 116.774 33.1771 117.013 33.2012 117.249L34.2152 124.42C34.2152 124.514 34.2413 124.606 34.2906 124.685C34.3399 124.765 34.4105 124.83 34.4944 124.872C34.5782 124.914 34.6721 124.931 34.7656 124.923C34.859 124.915 34.9482 124.88 35.0232 124.824L42.4528 120.533C42.6567 120.405 42.8202 120.222 42.9245 120.004C43.0289 119.787 43.0698 119.545 43.0426 119.305Z" fill="#423881"/>
<path d="M54.5322 112.68L53.5101 105.529C53.5101 105.435 53.484 105.343 53.4347 105.263C53.3854 105.184 53.3149 105.119 53.231 105.077C53.1471 105.035 53.0532 105.018 52.9598 105.026C52.8664 105.034 52.7772 105.069 52.7021 105.125L45.2726 109.411C45.0727 109.54 44.9122 109.721 44.8088 109.935C44.7055 110.149 44.6632 110.387 44.6868 110.623L45.7089 117.778C45.7089 117.872 45.735 117.964 45.7843 118.044C45.8336 118.123 45.9042 118.188 45.988 118.23C46.0719 118.272 46.1658 118.29 46.2592 118.281C46.3526 118.273 46.4419 118.238 46.5169 118.182L53.9464 113.892C54.147 113.764 54.308 113.583 54.4114 113.369C54.5149 113.155 54.5567 112.916 54.5322 112.68Z" fill="#EBEBEB"/>
<path d="M66.0221 106.054L65 98.9034C65 98.8096 64.9739 98.7177 64.9246 98.6379C64.8753 98.5582 64.8047 98.4937 64.7209 98.4517C64.637 98.4098 64.5431 98.3921 64.4497 98.4005C64.3563 98.4089 64.267 98.4432 64.192 98.4994L56.7584 102.794C56.5585 102.922 56.3981 103.104 56.2947 103.317C56.1913 103.531 56.1491 103.77 56.1726 104.006L57.1947 111.161C57.1947 111.255 57.2208 111.347 57.2701 111.426C57.3195 111.506 57.39 111.571 57.4739 111.612C57.5578 111.654 57.6517 111.672 57.7451 111.664C57.8385 111.655 57.9277 111.621 58.0027 111.565L65.4323 107.274C65.6349 107.146 65.7975 106.964 65.9018 106.749C66.0061 106.533 66.0478 106.292 66.0221 106.054Z" fill="#EBEBEB"/>
<path d="M77.524 99.4325L76.5019 92.2777C76.5019 92.1839 76.4758 92.092 76.4265 92.0122C76.3772 91.9324 76.3066 91.868 76.2227 91.826C76.1389 91.7841 76.045 91.7663 75.9516 91.7747C75.8581 91.7832 75.7689 91.8174 75.6939 91.8737L68.232 96.1723C68.0315 96.3 67.8705 96.481 67.767 96.6951C67.6636 96.9092 67.6217 97.1478 67.6462 97.3843L68.6683 104.535C68.6683 104.629 68.6945 104.721 68.7438 104.801C68.7931 104.88 68.8636 104.945 68.9475 104.987C69.0314 105.029 69.1253 105.046 69.2187 105.038C69.3121 105.03 69.4013 104.995 69.4763 104.939L76.9059 100.653C77.113 100.528 77.2809 100.347 77.3902 100.131C77.4995 99.9156 77.5459 99.6734 77.524 99.4325Z" fill="#EBEBEB"/>
<path d="M89.0015 92.8071L87.9793 85.6361C87.9793 85.5423 87.9532 85.4504 87.9039 85.3706C87.8546 85.2908 87.7841 85.2264 87.7002 85.1844C87.6163 85.1425 87.5224 85.1247 87.429 85.1331C87.3356 85.1416 87.2464 85.1758 87.1713 85.2321L79.7418 89.5226C79.5412 89.6503 79.3803 89.8313 79.2768 90.0454C79.1733 90.2595 79.1315 90.4981 79.156 90.7346L80.1781 97.8854C80.1781 97.9792 80.2042 98.0711 80.2535 98.1509C80.3028 98.2307 80.3734 98.2951 80.4573 98.3371C80.5411 98.379 80.635 98.3968 80.7284 98.3883C80.8218 98.3799 80.9111 98.3457 80.9861 98.2894L88.4318 94.011C88.6274 93.8812 88.7838 93.7005 88.8842 93.4883C88.9846 93.2762 89.0251 93.0406 89.0015 92.8071Z" fill="#EBEBEB"/>
<path d="M100.491 86.1816L99.4693 79.0267C99.4693 78.9329 99.4432 78.841 99.3939 78.7612C99.3446 78.6815 99.2741 78.617 99.1902 78.575C99.1063 78.5331 99.0124 78.5153 98.919 78.5238C98.8256 78.5322 98.7364 78.5665 98.6613 78.6227L91.2318 82.9132C91.0312 83.0409 90.8702 83.222 90.7668 83.436C90.6633 83.6501 90.6215 83.8887 90.646 84.1252L91.664 91.2922C91.664 91.386 91.6902 91.4779 91.7395 91.5577C91.7888 91.6374 91.8593 91.7019 91.9432 91.7439C92.0271 91.7858 92.121 91.8035 92.2144 91.7951C92.3078 91.7867 92.397 91.7524 92.472 91.6962L99.9016 87.4057C100.105 87.2772 100.267 87.0944 100.372 86.878C100.476 86.6616 100.517 86.4204 100.491 86.1816Z" fill="#EBEBEB"/>
<path d="M111.981 79.5761L110.959 72.4213C110.959 72.3275 110.933 72.2355 110.884 72.1558C110.834 72.076 110.764 72.0115 110.68 71.9696C110.596 71.9276 110.502 71.9099 110.409 71.9183C110.315 71.9267 110.226 71.961 110.151 72.0173L102.722 76.3077C102.521 76.4358 102.361 76.6169 102.257 76.8309C102.154 77.0448 102.112 77.2833 102.136 77.5197L103.154 84.6746C103.155 84.7678 103.182 84.8587 103.232 84.9376C103.281 85.0165 103.352 85.0803 103.435 85.1219C103.518 85.1636 103.612 85.1816 103.705 85.1739C103.797 85.1663 103.886 85.1333 103.962 85.0786L111.391 80.7881C111.592 80.6605 111.754 80.4797 111.858 80.2657C111.962 80.0517 112.005 79.8129 111.981 79.5761Z" fill="#EBEBEB"/>
<path d="M41.0469 105.307L40.0248 98.16C40.0233 98.0668 39.9963 97.9759 39.9467 97.897C39.8971 97.8181 39.8268 97.7543 39.7434 97.7127C39.6601 97.671 39.5669 97.653 39.474 97.6607C39.3812 97.6683 39.2922 97.7013 39.2168 97.756L31.7872 102.046C31.587 102.175 31.4263 102.356 31.3229 102.57C31.2194 102.784 31.1774 103.022 31.2014 103.258L32.2195 110.413C32.2209 110.507 32.2479 110.597 32.2975 110.676C32.3472 110.755 32.4175 110.819 32.5008 110.861C32.5842 110.902 32.6773 110.92 32.7702 110.913C32.8631 110.905 32.9521 110.872 33.0275 110.817L40.457 106.527C40.658 106.397 40.8193 106.215 40.9234 106C41.0274 105.784 41.0702 105.545 41.0469 105.307Z" fill="#423881"/>
<path d="M52.5366 98.6813L51.5145 91.5265C51.513 91.4333 51.486 91.3423 51.4364 91.2634C51.3868 91.1846 51.3165 91.1208 51.2332 91.0791C51.1498 91.0375 51.0566 91.0195 50.9638 91.0271C50.8709 91.0347 50.7819 91.0677 50.7065 91.1225L43.2769 95.413C43.0768 95.541 42.916 95.7221 42.8126 95.9361C42.7092 96.1501 42.6671 96.3885 42.6911 96.625L43.7092 103.78C43.7107 103.873 43.7377 103.964 43.7873 104.043C43.8369 104.122 43.9072 104.185 43.9906 104.227C44.0739 104.269 44.1671 104.287 44.26 104.279C44.3528 104.272 44.4418 104.239 44.5172 104.184L51.9468 99.8933C52.1464 99.7644 52.3069 99.5833 52.4109 99.3697C52.5149 99.156 52.5584 98.9179 52.5366 98.6813Z" fill="#EBEBEB"/>
<path d="M64.0264 92.0556L63.0042 84.9007C63.0028 84.8076 62.9758 84.7166 62.9262 84.6377C62.8766 84.5588 62.8063 84.4951 62.7229 84.4534C62.6396 84.4117 62.5464 84.3937 62.4535 84.4014C62.3607 84.409 62.2717 84.442 62.1962 84.4967L54.7667 88.7872C54.5665 88.9153 54.4058 89.0964 54.3023 89.3104C54.1989 89.5243 54.1569 89.7628 54.1809 89.9992L55.199 97.1541C55.2004 97.2472 55.2274 97.3382 55.277 97.4171C55.3266 97.496 55.397 97.5597 55.4803 97.6014C55.5636 97.6431 55.6568 97.6611 55.7497 97.6534C55.8426 97.6458 55.9316 97.6128 56.007 97.5581L63.4365 93.2676C63.6362 93.1387 63.7967 92.9576 63.9007 92.7439C64.0047 92.5303 64.0481 92.2922 64.0264 92.0556Z" fill="#EBEBEB"/>
<path d="M75.5039 85.4301L74.4818 78.2753C74.4803 78.1821 74.4533 78.0911 74.4037 78.0122C74.3541 77.9333 74.2838 77.8696 74.2005 77.8279C74.1171 77.7862 74.0239 77.7682 73.9311 77.7759C73.8382 77.7835 73.7492 77.8165 73.6738 77.8713L66.2523 82.1698C66.0524 82.2982 65.892 82.4794 65.7886 82.6933C65.6852 82.9071 65.643 83.1454 65.6665 83.3818L66.6846 90.5367C66.686 90.6298 66.713 90.7208 66.7627 90.7997C66.8123 90.8786 66.8826 90.9423 66.9659 90.984C67.0493 91.0257 67.1424 91.0437 67.2353 91.036C67.3282 91.0284 67.4172 90.9954 67.4926 90.9407L74.9221 86.6502C75.1219 86.52 75.2819 86.3372 75.3845 86.1219C75.4872 85.9067 75.5285 85.6673 75.5039 85.4301Z" fill="#EBEBEB"/>
<path d="M87.0058 78.8045L85.9837 71.6537C85.9837 71.5599 85.9575 71.468 85.9082 71.3882C85.8589 71.3084 85.7884 71.2439 85.7045 71.202C85.6206 71.1601 85.5267 71.1423 85.4333 71.1507C85.3399 71.1591 85.2507 71.1934 85.1757 71.2497L77.7421 75.5361C77.5422 75.6645 77.3817 75.8457 77.2783 76.0596C77.175 76.2734 77.1327 76.5117 77.1562 76.7481L78.1743 83.903C78.1758 83.9961 78.2028 84.0871 78.2524 84.166C78.302 84.2449 78.3723 84.3086 78.4557 84.3503C78.539 84.392 78.6322 84.41 78.7251 84.4023C78.8179 84.3947 78.9069 84.3617 78.9823 84.307L86.4119 80.0084C86.6113 79.881 86.7721 79.7015 86.8767 79.4893C86.9814 79.2771 87.026 79.0402 87.0058 78.8045Z" fill="#EBEBEB"/>
<path d="M98.4955 72.1789L97.4734 65.0321C97.4734 64.9383 97.4472 64.8464 97.3979 64.7666C97.3486 64.6868 97.2781 64.6224 97.1942 64.5804C97.1103 64.5385 97.0164 64.5207 96.923 64.5291C96.8296 64.5376 96.7404 64.5718 96.6653 64.6281L89.2398 68.9226C89.0393 69.0504 88.8783 69.2314 88.7748 69.4454C88.6714 69.6595 88.6295 69.8981 88.654 70.1346L89.6721 77.2854C89.6736 77.3786 89.7006 77.4696 89.7502 77.5485C89.7998 77.6273 89.8701 77.6911 89.9534 77.7328C90.0368 77.7744 90.13 77.7924 90.2228 77.7848C90.3157 77.7771 90.4047 77.7442 90.4801 77.6894L97.9097 73.3989C98.1102 73.2692 98.271 73.0867 98.3743 72.8714C98.4777 72.6561 98.5196 72.4164 98.4955 72.1789Z" fill="#EBEBEB"/>
<path d="M109.985 65.5573L108.963 58.4025C108.963 58.3087 108.937 58.2167 108.888 58.137C108.839 58.0572 108.768 57.9927 108.684 57.9508C108.6 57.9088 108.506 57.8911 108.413 57.8995C108.319 57.9079 108.23 57.9422 108.155 57.9985L100.722 62.2889C100.522 62.4175 100.362 62.5988 100.26 62.8128C100.157 63.0267 100.115 63.2649 100.14 63.5009L101.158 70.6517C101.159 70.7449 101.186 70.8359 101.236 70.9148C101.286 70.9937 101.356 71.0574 101.439 71.0991C101.523 71.1408 101.616 71.1588 101.709 71.1511C101.802 71.1435 101.891 71.1105 101.966 71.0557L109.396 66.7693C109.595 66.6401 109.755 66.4589 109.859 66.2454C109.963 66.0318 110.007 65.7939 109.985 65.5573Z" fill="#EBEBEB"/>
<path d="M39.0471 91.2922L38.029 84.1373C38.0275 84.0441 38.0005 83.9532 37.9509 83.8743C37.9013 83.7954 37.831 83.7316 37.7477 83.69C37.6643 83.6483 37.5711 83.6303 37.4783 83.6379C37.3854 83.6456 37.2964 83.6786 37.221 83.7333L29.7834 88.0602C29.5841 88.1892 29.4242 88.3705 29.3209 88.5842C29.2176 88.7979 29.1749 89.0359 29.1976 89.2722L30.2197 96.423C30.2197 96.5167 30.2458 96.6087 30.2951 96.6885C30.3444 96.7682 30.4149 96.8327 30.4988 96.8746C30.5827 96.9166 30.6766 96.9343 30.77 96.9259C30.8634 96.9175 30.9526 96.8832 31.0277 96.827L38.4613 92.5042C38.6611 92.3757 38.8216 92.1946 38.925 91.9807C39.0284 91.7668 39.0706 91.5285 39.0471 91.2922Z" fill="#423881"/>
<path d="M50.5368 84.6825L49.5187 77.5277C49.5173 77.4345 49.4903 77.3435 49.4407 77.2647C49.391 77.1858 49.3207 77.122 49.2374 77.0803C49.154 77.0387 49.0609 77.0207 48.968 77.0283C48.8751 77.036 48.7861 77.069 48.7107 77.1237L41.2812 81.4142C41.0819 81.5432 40.922 81.7245 40.8187 81.9382C40.7154 82.1519 40.6727 82.3899 40.6954 82.6262L41.7175 89.781C41.7189 89.8742 41.7459 89.9652 41.7955 90.044C41.8452 90.1229 41.9155 90.1867 41.9988 90.2284C42.0822 90.27 42.1753 90.288 42.2682 90.2804C42.3611 90.2727 42.4501 90.2398 42.5255 90.185L49.955 85.8945C50.1545 85.766 50.3144 85.5846 50.4171 85.3707C50.5198 85.1568 50.5612 84.9186 50.5368 84.6825Z" fill="#EBEBEB"/>
<path d="M62.0266 78.0571L61.0085 70.9022C61.007 70.809 60.98 70.7181 60.9304 70.6392C60.8808 70.5603 60.8105 70.4965 60.7272 70.4549C60.6438 70.4132 60.5506 70.3952 60.4578 70.4028C60.3649 70.4105 60.2759 70.4435 60.2005 70.4982L52.7709 74.7887C52.572 74.9181 52.4123 75.0994 52.3091 75.313C52.2058 75.5267 52.163 75.7645 52.1851 76.0007L53.2073 83.1555C53.2087 83.2487 53.2357 83.3397 53.2853 83.4186C53.3349 83.4974 53.4052 83.5612 53.4886 83.6029C53.5719 83.6445 53.6651 83.6625 53.758 83.6549C53.8509 83.6473 53.9398 83.6143 54.0153 83.5595L61.4448 79.2691C61.6443 79.1405 61.8042 78.9592 61.9069 78.7452C62.0096 78.5313 62.051 78.2931 62.0266 78.0571Z" fill="#EBEBEB"/>
<path d="M73.5163 71.4313L72.4982 64.2765C72.4968 64.1833 72.4698 64.0923 72.4202 64.0134C72.3706 63.9346 72.3003 63.8708 72.2169 63.8291C72.1336 63.7875 72.0404 63.7695 71.9475 63.7771C71.8546 63.7847 71.7657 63.8177 71.6902 63.8725L64.2607 68.163C64.0618 68.2923 63.9021 68.4737 63.7988 68.6873C63.6956 68.9009 63.6527 69.1387 63.6749 69.375L64.697 76.5298C64.6985 76.623 64.7255 76.714 64.7751 76.7928C64.8247 76.8717 64.895 76.9355 64.9783 76.9771C65.0617 77.0188 65.1549 77.0368 65.2477 77.0292C65.3406 77.0215 65.4296 76.9885 65.505 76.9338L72.9346 72.6433C73.134 72.5147 73.2939 72.3334 73.3966 72.1195C73.4993 71.9056 73.5407 71.6674 73.5163 71.4313Z" fill="#EBEBEB"/>
<path d="M85.0061 64.8058L83.988 57.651C83.9865 57.5578 83.9595 57.4668 83.9099 57.3879C83.8603 57.3091 83.79 57.2453 83.7067 57.2036C83.6233 57.162 83.5301 57.144 83.4373 57.1516C83.3444 57.1593 83.2554 57.1922 83.18 57.247L75.7504 61.5375C75.5515 61.6669 75.3918 61.8482 75.2886 62.0618C75.1853 62.2754 75.1425 62.5132 75.1646 62.7495L76.1867 69.9043C76.1882 69.9975 76.2152 70.0885 76.2648 70.1673C76.3144 70.2462 76.3847 70.31 76.4681 70.3516C76.5514 70.3933 76.6446 70.4113 76.7375 70.4037C76.8303 70.396 76.9193 70.363 76.9947 70.3083L84.4243 66.0178C84.6237 65.8892 84.7837 65.7079 84.8864 65.494C84.9891 65.2801 85.0305 65.0419 85.0061 64.8058Z" fill="#EBEBEB"/>
<path d="M96.5119 58.164L95.4938 51.0091C95.4924 50.916 95.4654 50.825 95.4158 50.7461C95.3662 50.6672 95.2958 50.6035 95.2125 50.5618C95.1292 50.5201 95.036 50.5021 94.9431 50.5098C94.8502 50.5174 94.7613 50.5504 94.6858 50.6051L87.2199 54.932C87.021 55.0614 86.8613 55.2427 86.7581 55.4563C86.6548 55.6699 86.6119 55.9077 86.6341 56.144L87.6562 63.2988C87.6577 63.392 87.6847 63.483 87.7343 63.5619C87.7839 63.6407 87.8542 63.7045 87.9376 63.7462C88.0209 63.7878 88.1141 63.8058 88.207 63.7982C88.2998 63.7905 88.3888 63.7576 88.4642 63.7028L95.91 59.376C96.1135 59.2503 96.2777 59.0702 96.3841 58.856C96.4905 58.6418 96.5348 58.4021 96.5119 58.164Z" fill="#EBEBEB"/>
<path d="M107.986 51.5547L106.967 44.4039C106.966 44.3107 106.939 44.2198 106.889 44.1409C106.84 44.062 106.769 43.9982 106.686 43.9566C106.603 43.9149 106.51 43.8969 106.417 43.9045C106.324 43.9122 106.235 43.9452 106.159 43.9999L98.7299 48.2864C98.5307 48.4154 98.3707 48.5967 98.2674 48.8104C98.1641 49.0241 98.1215 49.2621 98.1441 49.4984L99.1662 56.6532C99.1677 56.7464 99.1947 56.8374 99.2443 56.9162C99.2939 56.9951 99.3642 57.0589 99.4475 57.1005C99.5309 57.1422 99.6241 57.1602 99.7169 57.1526C99.8098 57.1449 99.8988 57.1119 99.9742 57.0572L107.42 52.7586C107.615 52.629 107.772 52.4482 107.871 52.2359C107.971 52.0236 108.011 51.7879 107.986 51.5547Z" fill="#EBEBEB"/>
<path d="M37.0513 77.3057L36.0292 70.1549C36.0292 70.0611 36.0031 69.9692 35.9538 69.8894C35.9044 69.8096 35.8339 69.7452 35.75 69.7032C35.6661 69.6613 35.5722 69.6435 35.4788 69.6519C35.3854 69.6604 35.2962 69.6946 35.2212 69.7509L27.7916 74.0373C27.5917 74.1657 27.4313 74.3469 27.3279 74.5608C27.2245 74.7747 27.1823 75.013 27.2058 75.2493L28.236 82.4042C28.236 82.498 28.2621 82.5899 28.3114 82.6697C28.3607 82.7495 28.4313 82.8139 28.5152 82.8559C28.599 82.8978 28.693 82.9156 28.7864 82.9071C28.8798 82.8987 28.969 82.8645 29.044 82.8082L36.4736 78.5177C36.6726 78.3889 36.832 78.2075 36.934 77.9935C37.036 77.7795 37.0766 77.5414 37.0513 77.3057Z" fill="#423881"/>
<path d="M48.541 70.688L47.5189 63.5372C47.5189 63.4434 47.4928 63.3515 47.4435 63.2717C47.3942 63.192 47.3236 63.1275 47.2397 63.0855C47.1558 63.0436 47.0619 63.0258 46.9685 63.0343C46.8751 63.0427 46.7859 63.077 46.7109 63.1332L39.2813 67.4237C39.0808 67.5514 38.9198 67.7325 38.8163 67.9465C38.7129 68.1606 38.671 68.3992 38.6955 68.6357L39.7176 75.7865C39.7176 75.8803 39.7438 75.9722 39.7931 76.052C39.8424 76.1318 39.9129 76.1962 39.9968 76.2382C40.0807 76.2801 40.1746 76.2979 40.268 76.2895C40.3614 76.281 40.4506 76.2468 40.5256 76.1905L47.9552 71.9C48.1557 71.7723 48.3167 71.5913 48.4202 71.3772C48.5237 71.1631 48.5655 70.9245 48.541 70.688Z" fill="#EBEBEB"/>
<path d="M60.0308 64.0585L59.0086 56.9037C59.0086 56.8099 58.9825 56.718 58.9332 56.6382C58.8839 56.5584 58.8134 56.4939 58.7295 56.452C58.6456 56.4101 58.5517 56.3923 58.4583 56.4007C58.3649 56.4091 58.2757 56.4434 58.2006 56.4997L50.7711 60.7902C50.5706 60.9179 50.4095 61.0989 50.3061 61.313C50.2026 61.527 50.1608 61.7657 50.1853 62.0022L51.2074 69.153C51.2074 69.2467 51.2335 69.3387 51.2828 69.4185C51.3321 69.4982 51.4027 69.5627 51.4865 69.6046C51.5704 69.6466 51.6643 69.6643 51.7577 69.6559C51.8512 69.6475 51.9404 69.6132 52.0154 69.557L59.445 65.2705C59.6448 65.1421 59.8053 64.961 59.9087 64.7471C60.0121 64.5332 60.0543 64.2949 60.0308 64.0585Z" fill="#EBEBEB"/>
<path d="M71.5205 57.4328L70.4984 50.2779C70.4984 50.1842 70.4723 50.0922 70.423 50.0125C70.3736 49.9327 70.3031 49.8682 70.2192 49.8263C70.1353 49.7843 70.0414 49.7666 69.948 49.775C69.8546 49.7834 69.7654 49.8177 69.6904 49.8739L62.2608 54.1644C62.0603 54.2922 61.8993 54.4732 61.7958 54.6873C61.6924 54.9013 61.6505 55.1399 61.675 55.3764L62.6931 62.5313C62.6946 62.6244 62.7216 62.7154 62.7712 62.7943C62.8208 62.8732 62.8911 62.9369 62.9744 62.9786C63.0578 63.0203 63.151 63.0383 63.2438 63.0306C63.3367 63.023 63.4257 62.99 63.5011 62.9353L70.9307 58.6448C71.1313 58.5169 71.2926 58.336 71.3967 58.1221C71.5008 57.9081 71.5436 57.6696 71.5205 57.4328Z" fill="#EBEBEB"/>
<path d="M83.0102 50.8073L81.9881 43.6525C81.9881 43.5587 81.962 43.4667 81.9127 43.387C81.8634 43.3072 81.7929 43.2427 81.709 43.2008C81.6251 43.1588 81.5312 43.1411 81.4378 43.1495C81.3444 43.1579 81.2552 43.1922 81.1801 43.2485L73.7506 47.5389C73.5501 47.6667 73.389 47.8477 73.2856 48.0618C73.1821 48.2758 73.1403 48.5145 73.1648 48.7509L74.1829 55.9058C74.1843 55.999 74.2113 56.0899 74.2609 56.1688C74.3105 56.2477 74.3808 56.3115 74.4642 56.3531C74.5475 56.3948 74.6407 56.4128 74.7336 56.4051C74.8265 56.3975 74.9154 56.3645 74.9909 56.3098L82.4204 52.0193C82.6213 51.8917 82.7829 51.7109 82.887 51.4969C82.9912 51.2829 83.0338 51.0441 83.0102 50.8073Z" fill="#EBEBEB"/>
<path d="M94.4919 44.1816L93.4698 37.0267C93.4698 36.9329 93.4437 36.841 93.3944 36.7612C93.3451 36.6815 93.2746 36.617 93.1907 36.575C93.1068 36.5331 93.0129 36.5153 92.9195 36.5238C92.8261 36.5322 92.7369 36.5665 92.6618 36.6227L85.2323 40.9132C85.0321 41.0413 84.8713 41.2224 84.7679 41.4363C84.6645 41.6503 84.6225 41.8888 84.6465 42.1252L85.6686 49.276C85.67 49.3692 85.697 49.4602 85.7467 49.539C85.7963 49.6179 85.8666 49.6817 85.9499 49.7234C86.0333 49.765 86.1264 49.783 86.2193 49.7754C86.3122 49.7677 86.4012 49.7348 86.4766 49.68L93.9061 45.3895C94.1057 45.2618 94.266 45.0813 94.3694 44.8682C94.4728 44.655 94.5152 44.4174 94.4919 44.1816Z" fill="#EBEBEB"/>
<path d="M105.99 37.56L104.968 30.4051C104.968 30.3114 104.942 30.2194 104.892 30.1397C104.843 30.0599 104.772 29.9954 104.688 29.9535C104.605 29.9115 104.511 29.8938 104.417 29.9022C104.324 29.9106 104.235 29.9449 104.16 30.0011L96.7301 34.2916C96.5299 34.4197 96.3691 34.6008 96.2657 34.8148C96.1623 35.0287 96.1203 35.2672 96.1443 35.5036L97.1623 42.6585C97.1638 42.7516 97.1908 42.8426 97.2404 42.9215C97.29 43.0004 97.3603 43.0641 97.4437 43.1058C97.527 43.1475 97.6202 43.1655 97.7131 43.1578C97.806 43.1502 97.8949 43.1172 97.9703 43.0625L105.4 38.772C105.601 38.6444 105.762 38.4636 105.867 38.2496C105.971 38.0355 106.013 37.7968 105.99 37.56Z" fill="#EBEBEB"/>
<path d="M35.2856 64.6604L35.0271 62.8343C35.0271 62.7406 35.001 62.6486 34.9517 62.5689C34.9024 62.4891 34.8318 62.4246 34.7479 62.3827C34.664 62.3407 34.5701 62.323 34.4767 62.3314C34.3833 62.3398 34.2941 62.3741 34.2191 62.4303L26.7855 66.7289C26.5853 66.857 26.4246 67.0381 26.3211 67.252C26.2177 67.466 26.1757 67.7045 26.1997 67.9409L26.4542 69.767C26.4557 69.8602 26.4827 69.9511 26.5323 70.03C26.5819 70.1089 26.6522 70.1727 26.7355 70.2143C26.8189 70.256 26.9121 70.274 27.0049 70.2664C27.0978 70.2587 27.1868 70.2257 27.2622 70.171L34.6998 65.8643C34.8978 65.7359 35.0569 65.556 35.1601 65.3438C35.2634 65.1317 35.3067 64.8954 35.2856 64.6604Z" fill="#E6E6E6"/>
<path d="M46.7754 58.0347L46.5168 56.2086C46.5168 56.1148 46.4907 56.0229 46.4414 55.9431C46.3921 55.8633 46.3216 55.7989 46.2377 55.7569C46.1538 55.715 46.0599 55.6972 45.9665 55.7057C45.8731 55.7141 45.7839 55.7483 45.7088 55.8046L38.2752 60.1032C38.0751 60.2312 37.9143 60.4123 37.8109 60.6263C37.7075 60.8403 37.6654 61.0787 37.6894 61.3152L37.944 63.1413C37.9454 63.2344 37.9724 63.3254 38.022 63.4043C38.0716 63.4832 38.1419 63.5469 38.2253 63.5886C38.3086 63.6303 38.4018 63.6483 38.4947 63.6406C38.5876 63.633 38.6765 63.6 38.752 63.5453L46.1856 59.2548C46.3868 59.1256 46.5484 58.9432 46.6525 58.7279C46.7566 58.5126 46.7991 58.2727 46.7754 58.0347Z" fill="#E6E6E6"/>
<path d="M58.2651 51.4092L58.0066 49.5831C58.0051 49.4899 57.9781 49.399 57.9285 49.3201C57.8789 49.2412 57.8086 49.1774 57.7253 49.1358C57.6419 49.0941 57.5487 49.0761 57.4559 49.0837C57.363 49.0914 57.274 49.1244 57.1986 49.1791L49.765 53.4777C49.5648 53.6057 49.4041 53.7868 49.3006 54.0008C49.1972 54.2148 49.1552 54.4532 49.1792 54.6897L49.4337 56.5158C49.4337 56.6095 49.4598 56.7015 49.5091 56.7812C49.5584 56.861 49.629 56.9255 49.7129 56.9674C49.7967 57.0094 49.8907 57.0271 49.9841 57.0187C50.0775 57.0103 50.1667 56.976 50.2417 56.9198L57.6753 52.6293C57.8766 52.5001 58.0382 52.3177 58.1423 52.1024C58.2464 51.8871 58.2889 51.6472 58.2651 51.4092Z" fill="#E6E6E6"/>
<path d="M69.7551 44.7877L69.4966 42.9576C69.4951 42.8645 69.4681 42.7735 69.4185 42.6946C69.3689 42.6157 69.2986 42.552 69.2152 42.5103C69.1319 42.4686 69.0387 42.4506 68.9458 42.4583C68.853 42.4659 68.764 42.4989 68.6886 42.5536L61.255 46.8522C61.0548 46.9803 60.894 47.1613 60.7906 47.3753C60.6872 47.5893 60.6452 47.8278 60.6692 48.0642L60.9237 49.8903C60.9237 49.9841 60.9498 50.076 60.9991 50.1558C61.0484 50.2355 61.119 50.3 61.2028 50.342C61.2867 50.3839 61.3806 50.4017 61.474 50.3932C61.5675 50.3848 61.6567 50.3505 61.7317 50.2943L69.1653 46.0078C69.3659 45.878 69.527 45.6955 69.631 45.4804C69.735 45.2652 69.778 45.0256 69.7551 44.7877Z" fill="#E6E6E6"/>
<path d="M81.2446 38.162L80.9861 36.3319C80.9846 36.2387 80.9576 36.1477 80.908 36.0689C80.8584 35.99 80.7881 35.9262 80.7048 35.8845C80.6214 35.8429 80.5282 35.8249 80.4354 35.8325C80.3425 35.8402 80.2535 35.8732 80.1781 35.9279L72.7445 40.2265C72.5446 40.3549 72.3841 40.536 72.2808 40.7499C72.1774 40.9638 72.1351 41.2021 72.1587 41.4385L72.4132 43.2645C72.4132 43.3583 72.4393 43.4502 72.4886 43.53C72.5379 43.6098 72.6085 43.6743 72.6924 43.7162C72.7763 43.7582 72.8702 43.7759 72.9636 43.7675C73.057 43.7591 73.1462 43.7248 73.2212 43.6685L80.6548 39.3821C80.8554 39.2522 81.0165 39.0698 81.1205 38.8546C81.2245 38.6395 81.2675 38.3999 81.2446 38.162Z" fill="#E6E6E6"/>
<path d="M92.7346 31.5364L92.4761 29.7103C92.4761 29.6165 92.45 29.5246 92.4007 29.4448C92.3513 29.365 92.2808 29.3006 92.1969 29.2586C92.113 29.2167 92.0191 29.1989 91.9257 29.2074C91.8323 29.2158 91.7431 29.2501 91.6681 29.3063L84.2345 33.6008C84.0346 33.7292 83.8741 33.9104 83.7708 34.1243C83.6674 34.3382 83.6251 34.5765 83.6487 34.8128L83.9032 36.643C83.9047 36.7361 83.9317 36.8271 83.9813 36.906C84.0309 36.9849 84.1012 37.0486 84.1845 37.0903C84.2679 37.132 84.3611 37.15 84.4539 37.1423C84.5468 37.1347 84.6358 37.1017 84.7112 37.047L92.1448 32.7565C92.3457 32.6269 92.5071 32.4446 92.6111 32.2293C92.7152 32.0141 92.7579 31.7743 92.7346 31.5364Z" fill="#E6E6E6"/>
<path d="M104.22 24.9109L103.966 23.0848C103.966 22.991 103.94 22.8991 103.89 22.8193C103.841 22.7396 103.77 22.6751 103.687 22.6331C103.603 22.5912 103.509 22.5735 103.415 22.5819C103.322 22.5903 103.233 22.6246 103.158 22.6808L95.7281 26.9713C95.5276 27.0991 95.3666 27.2801 95.2631 27.4941C95.1597 27.7082 95.1178 27.9468 95.1423 28.1833L95.3968 30.0094C95.3983 30.1026 95.4253 30.1936 95.4749 30.2724C95.5245 30.3513 95.5948 30.4151 95.6782 30.4567C95.7615 30.4984 95.8547 30.5164 95.9476 30.5088C96.0404 30.5011 96.1294 30.4681 96.2048 30.4134L103.638 26.1229C103.838 25.994 103.997 25.8126 104.1 25.5988C104.203 25.3849 104.244 25.1469 104.22 24.9109Z" fill="#E6E6E6"/>
<path opacity="0.2" d="M26.6199 53.8736C26.5833 53.3398 26.6935 52.8061 26.9385 52.3305C27.1835 51.8548 27.5539 51.4552 28.0096 51.1749C28.9146 50.6537 29.759 51.0133 29.9004 51.9829C29.9379 52.5173 29.8277 53.0517 29.5818 53.5276C29.336 54.0036 28.964 54.4028 28.5066 54.6816C27.6056 55.2028 26.7613 54.8432 26.6199 53.8736Z" fill="black"/>
<path opacity="0.2" d="M38.1219 47.2561C38.0845 46.7221 38.1943 46.1882 38.4393 45.7123C38.6844 45.2365 39.0553 44.837 39.5117 44.5573C40.4166 44.0321 41.261 44.3917 41.4024 45.3653C41.4396 45.8991 41.3292 46.4329 41.0834 46.9082C40.8376 47.3834 40.4657 47.7819 40.0086 48.06C39.1036 48.565 38.2593 48.2055 38.1219 47.2561Z" fill="black"/>
<path opacity="0.2" d="M49.5995 40.6103C49.562 40.0764 49.6718 39.5424 49.9168 39.0666C50.1619 38.5907 50.5328 38.1912 50.9892 37.9116C51.8942 37.3864 52.7426 37.746 52.8799 38.7196C52.9171 39.2529 52.8071 39.7862 52.5621 40.2614C52.317 40.7365 51.9462 41.1353 51.4902 41.4143C50.5852 41.9354 49.7368 41.5759 49.5995 40.6103Z" fill="black"/>
<path opacity="0.2" d="M72.5709 27.347C72.5334 26.813 72.6432 26.2791 72.8883 25.8032C73.1333 25.3274 73.5042 24.9279 73.9606 24.6483C74.8656 24.1271 75.71 24.4867 75.8473 25.4563C75.8866 25.9904 75.7776 26.5251 75.5324 27.0013C75.2872 27.4775 74.9152 27.8767 74.4576 28.155C73.5526 28.6721 72.7082 28.3166 72.5709 27.347Z" fill="black"/>
<path opacity="0.2" d="M84.0688 20.7133C84.0304 20.1793 84.1398 19.645 84.3849 19.169C84.6301 18.6929 85.0015 18.2936 85.4585 18.0146C86.3635 17.4894 87.2079 17.849 87.3493 18.8226C87.3867 19.357 87.2766 19.8914 87.0307 20.3674C86.7849 20.8434 86.4129 21.2426 85.9554 21.5213C85.0505 22.0385 84.2061 21.6789 84.0688 20.7133Z" fill="black"/>
<path opacity="0.2" d="M95.5465 14.0837C95.509 13.5498 95.6188 13.0158 95.8639 12.5399C96.1089 12.0641 96.4798 11.6646 96.9362 11.385C97.8412 10.8598 98.6896 11.2193 98.827 12.193C98.8641 12.7263 98.7542 13.2596 98.5091 13.7348C98.264 14.2099 97.8933 14.6087 97.4372 14.8877C96.512 15.4088 95.704 15.0493 95.5465 14.0837Z" fill="black"/>
<path d="M25.4321 42.9575C24.2201 42.2505 23.0323 42.1495 22.1274 42.6707C21.2224 43.1918 20.7214 44.2584 20.7214 45.6764C20.7293 46.3397 20.8272 46.9988 21.0123 47.6358L21.7314 47.2318C21.6023 46.726 21.5345 46.2065 21.5294 45.6845C21.5294 44.5695 21.885 43.7493 22.5314 43.3777C22.7966 43.2296 23.0962 43.1543 23.4 43.1595C23.973 43.1868 24.5294 43.3607 25.016 43.6645C27.1652 44.9088 28.9146 47.9388 28.9146 50.4194C28.9158 50.5962 28.9063 50.7729 28.8863 50.9486C28.8764 51.3004 28.7834 51.6449 28.6149 51.9538C28.4463 52.2628 28.2071 52.5274 27.9167 52.7262C27.5463 52.9263 27.119 52.9946 26.7047 52.9201C26.6231 53.1813 26.5889 53.4549 26.6037 53.7281C26.7547 53.7521 26.9073 53.7643 27.0602 53.7645C27.5051 53.77 27.9433 53.6556 28.3288 53.4332C28.6894 53.207 28.9952 52.9033 29.2237 52.5441C29.4522 52.1848 29.5978 51.7792 29.6498 51.3567C29.7043 51.0499 29.7313 50.739 29.7306 50.4275C29.7347 47.6601 27.8036 44.3271 25.4321 42.9575Z" fill="#F5F5F5"/>
<path d="M36.9301 36.324C35.7181 35.617 34.5304 35.5159 33.6254 36.0371C32.7204 36.5583 32.2195 37.6248 32.2195 39.0429C32.2274 39.7062 32.3252 40.3653 32.5104 41.0023L33.2295 40.5983C33.1004 40.0925 33.0326 39.573 33.0275 39.051C33.0275 37.9359 33.383 37.1158 34.0294 36.7441C34.2946 36.596 34.5943 36.5207 34.898 36.526C35.471 36.5533 36.0274 36.7272 36.514 37.031C38.6633 38.2753 40.4126 41.3053 40.4126 43.7858C40.4138 43.9627 40.4044 44.1394 40.3843 44.3151C40.3744 44.6669 40.2814 45.0113 40.1129 45.3203C39.9444 45.6292 39.7051 45.8939 39.4147 46.0927C39.0443 46.2927 38.617 46.3611 38.2027 46.2866C38.1212 46.5478 38.0869 46.8214 38.1017 47.0946C38.2527 47.1186 38.4054 47.1307 38.5582 47.131C39.0032 47.1365 39.4414 47.0221 39.8268 46.7997C40.1875 46.5735 40.4932 46.2697 40.7217 45.9105C40.9503 45.5513 41.0958 45.1457 41.1479 44.7231C41.2023 44.4164 41.2294 44.1054 41.2287 43.7939C41.2327 41.0386 39.3016 37.6935 36.9301 36.324Z" fill="#F5F5F5"/>
<path d="M48.4077 29.6943C47.1957 28.9873 46.0079 28.8863 45.1029 29.4075C44.198 29.9286 43.697 30.9952 43.697 32.4132C43.7049 33.0765 43.8028 33.7357 43.9879 34.3726L44.707 33.9686C44.5779 33.4628 44.5101 32.9433 44.505 32.4213C44.505 31.3063 44.8605 30.4862 45.5069 30.1145C45.7721 29.9664 46.0718 29.8911 46.3755 29.8963C46.9485 29.9236 47.5049 30.0975 47.9915 30.4013C50.1408 31.6456 51.8901 34.6756 51.8901 37.1562C51.8913 37.333 51.8819 37.5097 51.8619 37.6854C51.852 38.0372 51.759 38.3817 51.5904 38.6906C51.4219 38.9996 51.1827 39.2643 50.8923 39.463C50.5219 39.6631 50.0946 39.7314 49.6803 39.657C49.5987 39.9181 49.5645 40.1918 49.5793 40.465C49.7303 40.4889 49.8829 40.5011 50.0358 40.5013C50.4807 40.5069 50.9189 40.3924 51.3043 40.17C51.665 39.9438 51.9708 39.6401 52.1993 39.2809C52.4278 38.9217 52.5734 38.516 52.6254 38.0935C52.6799 37.7868 52.7069 37.4758 52.7062 37.1643C52.7103 34.409 50.7791 31.0639 48.4077 29.6943Z" fill="#F5F5F5"/>
<path d="M71.3832 16.4511C70.1712 15.7441 68.9835 15.6431 68.0785 16.1643C67.1736 16.6855 66.6726 17.752 66.6726 19.1701C66.6805 19.8334 66.7783 20.4925 66.9635 21.1295L67.6826 20.7255C67.5535 20.2197 67.4857 19.7002 67.4806 19.1781C67.4806 18.0631 67.8361 17.243 68.4825 16.8713C68.7477 16.7232 69.0474 16.6479 69.3511 16.6531C69.9241 16.6805 70.4805 16.8544 70.9671 17.1581C73.1164 18.4025 74.8657 21.4325 74.8657 23.913C74.8669 24.0898 74.8575 24.2666 74.8375 24.4423C74.8276 24.7941 74.7345 25.1385 74.566 25.4475C74.3975 25.7564 74.1583 26.0211 73.8679 26.2199C73.4975 26.4199 73.0702 26.4883 72.6559 26.4138C72.5743 26.6749 72.5401 26.9486 72.5549 27.2218C72.7058 27.2458 72.8585 27.2579 73.0114 27.2581C73.4563 27.2637 73.8945 27.1493 74.2799 26.9269C74.6406 26.7007 74.9463 26.3969 75.1749 26.0377C75.4034 25.6785 75.549 25.2729 75.601 24.8503C75.6554 24.5436 75.6825 24.2326 75.6818 23.9211C75.6858 21.1658 73.7547 17.8207 71.3832 16.4511Z" fill="#F5F5F5"/>
<path d="M82.8811 9.81345C81.6691 9.10645 80.4813 9.00545 79.5763 9.52661C78.6714 10.0478 78.1704 11.1143 78.1704 12.5324C78.1783 13.1957 78.2762 13.8548 78.4613 14.4918L79.1804 14.0878C79.0513 13.582 78.9835 13.0625 78.9784 12.5405C78.9784 11.4254 79.3339 10.6053 79.9803 10.2336C80.2455 10.0855 80.5452 10.0102 80.8489 10.0155C81.4219 10.0428 81.9783 10.2167 82.4649 10.5205C84.6142 11.7648 86.3635 14.7948 86.3635 17.2753C86.3647 17.4522 86.3553 17.6289 86.3352 17.8046C86.3254 18.1564 86.2323 18.5008 86.0638 18.8098C85.8953 19.1187 85.6561 19.3834 85.3656 19.5822C84.9953 19.7822 84.568 19.8506 84.1536 19.7761C84.0721 20.0373 84.0379 20.3109 84.0526 20.5841C84.2036 20.6081 84.3563 20.6202 84.5092 20.6205C84.9541 20.626 85.3923 20.5116 85.7777 20.2892C86.1384 20.063 86.4441 19.7592 86.6727 19.4C86.9012 19.0408 87.0468 18.6352 87.0988 18.2126C87.1533 17.9059 87.1803 17.5949 87.1796 17.2834C87.1836 14.5322 85.2525 11.183 82.8811 9.81345Z" fill="#F5F5F5"/>
<path d="M94.3587 3.18381C93.1467 2.47681 91.959 2.37581 91.054 2.89697C90.149 3.41813 89.644 4.48469 89.644 5.90273C89.6519 6.56602 89.7498 7.22516 89.9349 7.86213L90.654 7.45813C90.5249 6.95232 90.4571 6.43282 90.452 5.91081C90.452 4.79577 90.8076 3.97565 91.454 3.60397C91.7192 3.45588 92.0189 3.38061 92.3226 3.38581C92.8956 3.41315 93.452 3.58702 93.9386 3.89081C96.0878 5.13513 97.8372 8.16513 97.8372 10.6457C97.8384 10.8225 97.8289 10.9992 97.8089 11.1749C97.799 11.5267 97.706 11.8712 97.5375 12.1801C97.3689 12.4891 97.1297 12.7538 96.8393 12.9525C96.4689 13.1526 96.0416 13.2209 95.6273 13.1465C95.5457 13.4076 95.5115 13.6813 95.5263 13.9545C95.6773 13.9784 95.8299 13.9906 95.9828 13.9908C96.4277 13.9964 96.8659 13.8819 97.2514 13.6595C97.612 13.4333 97.9178 13.1296 98.1463 12.7704C98.3748 12.4112 98.5204 12.0055 98.5724 11.583C98.6269 11.2762 98.6539 10.9653 98.6532 10.6538C98.6613 7.89849 96.7302 4.55337 94.3587 3.18381Z" fill="#F5F5F5"/>
</g>
<defs>
<filter id="filter0_d_203_1040" x="0.807861" y="0.958252" width="128.186" height="144.074" filterUnits="userSpaceOnUse" color-interpolation-filters="sRGB">
<feFlood flood-opacity="0" result="BackgroundImageFix"/>
<feColorMatrix in="SourceAlpha" type="matrix" values="0 0 0 0 0 0 0 0 0 0 0 0 0 0 0 0 0 0 127 0" result="hardAlpha"/>
<feOffset dx="8" dy="8"/>
<feGaussianBlur stdDeviation="2"/>
<feComposite in2="hardAlpha" operator="out"/>
<feColorMatrix type="matrix" values="0 0 0 0 0 0 0 0 0 0 0 0 0 0 0 0 0 0 0.25 0"/>
<feBlend mode="normal" in2="BackgroundImageFix" result="effect1_dropShadow_203_1040"/>
<feBlend mode="normal" in="SourceGraphic" in2="effect1_dropShadow_203_1040" result="shape"/>
</filter>
</defs>
</svg>
