<svg width="202" height="202" viewBox="0 0 202 202" fill="none" xmlns="http://www.w3.org/2000/svg">
<g filter="url(#filter0_d_203_1039)">
<g filter="url(#filter1_d_203_1039)">
<path d="M37.4346 135.744C37.2014 135.588 37.02 135.366 36.9135 135.106C36.8071 134.846 36.7803 134.561 36.8367 134.286L51.1625 70.8819C51.3349 70.2688 51.7239 69.7391 52.2573 69.3912L137.501 20.184C137.762 20.0461 138.052 19.9717 138.346 19.9668C138.641 19.9619 138.933 20.0266 139.198 20.1557C139.428 20.313 139.606 20.5345 139.71 20.7925C139.814 21.0505 139.84 21.3335 139.784 21.606L125.454 85.0098C125.281 85.6238 124.891 86.1539 124.355 86.5006L39.1314 135.708C38.8713 135.847 38.5822 135.923 38.2873 135.929C37.9925 135.935 37.7003 135.872 37.4346 135.744Z" fill="#F0F0F0"/>
<path d="M52.8028 71.819L38.4769 135.247C38.3557 135.788 38.6466 136.007 39.1314 135.728L124.375 86.5206C124.911 86.1739 125.302 85.6439 125.474 85.0298L139.784 21.6059C139.905 21.0605 139.614 20.8463 139.129 21.1251L53.8855 70.3323C53.3577 70.6817 52.9733 71.2095 52.8028 71.819Z" fill="#E6E6E6"/>
<path d="M140.822 21.093C140.557 20.9645 140.265 20.9005 139.97 20.9061C139.675 20.9117 139.386 20.9868 139.125 21.1253L53.8814 70.3325C53.6341 70.4925 53.4353 70.7172 53.3064 70.982C53.1776 71.2469 53.1235 71.542 53.1502 71.8354L64.3693 150.369C64.424 150.667 64.5376 150.95 64.7034 151.204C64.8692 151.457 65.0839 151.674 65.3348 151.844C65.5993 151.973 65.8908 152.037 66.1851 152.032C66.4795 152.026 66.7683 151.951 67.0276 151.811L152.255 102.616C152.503 102.456 152.703 102.23 152.832 101.965C152.96 101.699 153.014 101.403 152.987 101.109L141.804 22.5676C141.747 22.2685 141.631 21.9839 141.463 21.7306C141.294 21.4772 141.076 21.2604 140.822 21.093Z" fill="#F0F0F0"/>
<path d="M54.8066 72.7846L66.0095 151.318C66.0117 151.435 66.0463 151.549 66.1095 151.648C66.1726 151.747 66.2618 151.826 66.3673 151.877C66.4727 151.928 66.5902 151.949 66.7067 151.937C66.8233 151.926 66.9343 151.882 67.0276 151.811L152.255 102.616C152.503 102.456 152.703 102.23 152.831 101.965C152.96 101.699 153.014 101.403 152.987 101.109L141.804 22.5674C141.802 22.45 141.768 22.3352 141.706 22.236C141.643 22.1368 141.553 22.057 141.448 22.0054C141.342 21.9539 141.225 21.9327 141.108 21.9442C140.991 21.9557 140.879 21.9994 140.786 22.0705L55.5418 71.2777C55.2932 71.4376 55.0931 71.6626 54.9635 71.9283C54.8338 72.194 54.7796 72.4902 54.8066 72.7846Z" fill="#FAFAFA"/>
<path d="M38.5537 134.892L60.3697 122.291L61.004 126.856L51.001 132.633C51.001 132.633 48.3345 133.579 47.2761 133.845C46.2176 134.112 38.5537 134.892 38.5537 134.892Z" fill="#E0E0E0"/>
<path d="M61.016 126.86L64.2884 149.807L51.0129 132.637L61.016 126.86Z" fill="#E6E6E6"/>
<path d="M63.8965 150.571L51.9987 135.118C51.8011 134.887 51.5515 134.707 51.2704 134.593C50.9893 134.478 50.685 134.433 50.3827 134.459L39.2565 136.075C38.6299 136.142 37.9973 136.027 37.4345 135.744C36.982 135.485 37.0587 135.187 37.6041 135.081L50.3907 132.621C50.6905 132.576 50.9969 132.609 51.2801 132.718C51.5632 132.826 51.8136 133.006 52.0067 133.239L65.5529 151.5C65.8841 151.948 65.7872 152.098 65.3347 151.835C64.7893 151.495 64.3034 151.068 63.8965 150.571Z" fill="#E0E0E0"/>
<path d="M139.804 21.295C139.803 21.0674 139.745 20.8436 139.637 20.6435C139.528 20.4434 139.372 20.2731 139.182 20.1477C138.916 20.0205 138.624 19.9571 138.33 19.9627C138.035 19.9684 137.746 20.0427 137.485 20.18L52.2412 69.3872C51.9813 69.5501 51.755 69.7613 51.5746 70.0093C51.3744 70.2674 51.2274 70.5626 51.1423 70.8779L49.1223 79.8346L50.7626 80.7759L137.764 30.5587L139.784 21.6061C139.803 21.5036 139.811 21.3993 139.808 21.295H139.804Z" fill="#423881"/>
<path opacity="0.2" d="M139.784 21.6059C139.905 21.0605 139.614 20.8463 139.129 21.1251L53.8854 70.3323C53.353 70.6796 52.9641 71.2076 52.7905 71.819L50.7705 80.7757L137.764 30.5585L139.784 21.6059Z" fill="black"/>
<path opacity="0.1" d="M53.2311 70.9545C53.0305 71.2103 52.8847 71.5046 52.8028 71.8191L50.7828 80.7758L49.1426 79.8304L51.1626 70.8737C51.2477 70.5584 51.3946 70.2632 51.5949 70.0051L53.2311 70.9545Z" fill="black"/>
<path opacity="0.4" d="M139.804 21.2909C139.764 20.9879 139.501 20.8869 139.125 21.1252L53.8813 70.3284C53.6195 70.4905 53.3929 70.7035 53.2147 70.9546L51.5745 70.0052C51.7549 69.7571 51.9811 69.5459 52.2411 69.383L137.485 20.1758C137.746 20.0386 138.035 19.9642 138.33 19.9586C138.624 19.953 138.916 20.0163 139.182 20.1435C139.372 20.2689 139.528 20.4392 139.636 20.6394C139.745 20.8395 139.803 21.0632 139.804 21.2909Z" fill="white"/>
<path d="M141.889 23.319L141.804 22.5676C141.798 22.5308 141.79 22.4944 141.78 22.4585C141.782 22.4478 141.782 22.4369 141.78 22.4262C141.642 21.8825 141.31 21.4082 140.847 21.093C140.581 20.9645 140.289 20.9005 139.994 20.9061C139.699 20.9117 139.41 20.9868 139.15 21.1253L53.9057 70.3325C53.6477 70.4923 53.4436 70.7259 53.3199 71.0031C53.1937 71.2612 53.1433 71.5498 53.1745 71.8354L54.7905 83.0868L56.4307 84.0362L143.392 33.823L141.889 23.319Z" fill="#423881"/>
<path opacity="0.1" d="M56.4144 84.0321L54.7742 83.0827L53.1582 71.8313C53.127 71.5457 53.1774 71.2571 53.3036 70.999L54.9479 71.9444C54.8188 72.2016 54.7668 72.4906 54.7984 72.7766L56.4144 84.0321Z" fill="black"/>
<path opacity="0.4" d="M141.755 22.4262C141.732 22.3244 141.684 22.2301 141.615 22.1519C141.546 22.0737 141.458 22.0141 141.36 21.9787C141.262 21.9433 141.156 21.9332 141.053 21.9492C140.95 21.9653 140.852 22.0071 140.77 22.0706L55.5256 71.2778C55.2666 71.4365 55.0622 71.6705 54.9398 71.9485L53.3279 71.0031C53.4526 70.7255 53.6563 70.4908 53.9137 70.3284L139.158 21.1253C139.418 20.9868 139.707 20.9117 140.002 20.9061C140.297 20.9005 140.589 20.9645 140.854 21.093C141.307 21.4127 141.628 21.8868 141.755 22.4262Z" fill="white"/>
<path d="M79.0426 138.305L78.0245 131.15C78.0231 131.057 77.9961 130.966 77.9465 130.887C77.8968 130.809 77.8265 130.745 77.7432 130.703C77.6598 130.661 77.5667 130.643 77.4738 130.651C77.3809 130.659 77.2919 130.692 77.2165 130.746L69.787 135.037C69.5868 135.165 69.426 135.346 69.3226 135.56C69.2192 135.774 69.1771 136.013 69.2012 136.249L70.2152 143.42C70.2152 143.514 70.2413 143.606 70.2906 143.685C70.3399 143.765 70.4105 143.83 70.4944 143.872C70.5782 143.914 70.6721 143.931 70.7656 143.923C70.859 143.915 70.9482 143.88 71.0232 143.824L78.4528 139.533C78.6567 139.405 78.8202 139.222 78.9245 139.004C79.0289 138.787 79.0698 138.545 79.0426 138.305Z" fill="#423881"/>
<path d="M90.5322 131.68L89.5101 124.529C89.5101 124.435 89.484 124.343 89.4347 124.263C89.3854 124.184 89.3149 124.119 89.231 124.077C89.1471 124.035 89.0532 124.018 88.9598 124.026C88.8664 124.034 88.7772 124.069 88.7021 124.125L81.2726 128.411C81.0727 128.54 80.9122 128.721 80.8088 128.935C80.7055 129.149 80.6632 129.387 80.6868 129.623L81.7089 136.778C81.7089 136.872 81.735 136.964 81.7843 137.044C81.8336 137.123 81.9042 137.188 81.988 137.23C82.0719 137.272 82.1658 137.29 82.2592 137.281C82.3526 137.273 82.4419 137.238 82.5169 137.182L89.9464 132.892C90.147 132.764 90.308 132.583 90.4114 132.369C90.5149 132.155 90.5567 131.916 90.5322 131.68Z" fill="#EBEBEB"/>
<path d="M102.022 125.054L101 117.903C101 117.81 100.974 117.718 100.925 117.638C100.875 117.558 100.805 117.494 100.721 117.452C100.637 117.41 100.543 117.392 100.45 117.4C100.356 117.409 100.267 117.443 100.192 117.499L92.7584 121.794C92.5585 121.922 92.3981 122.104 92.2947 122.317C92.1913 122.531 92.1491 122.77 92.1726 123.006L93.1947 130.161C93.1947 130.255 93.2208 130.347 93.2701 130.426C93.3195 130.506 93.39 130.571 93.4739 130.612C93.5578 130.654 93.6517 130.672 93.7451 130.664C93.8385 130.655 93.9277 130.621 94.0027 130.565L101.432 126.274C101.635 126.146 101.798 125.964 101.902 125.749C102.006 125.533 102.048 125.292 102.022 125.054Z" fill="#EBEBEB"/>
<path d="M113.524 118.433L112.502 111.278C112.502 111.184 112.476 111.092 112.426 111.012C112.377 110.932 112.307 110.868 112.223 110.826C112.139 110.784 112.045 110.766 111.952 110.775C111.858 110.783 111.769 110.817 111.694 110.874L104.232 115.172C104.031 115.3 103.87 115.481 103.767 115.695C103.664 115.909 103.622 116.148 103.646 116.384L104.668 123.535C104.668 123.629 104.694 123.721 104.744 123.801C104.793 123.88 104.864 123.945 104.947 123.987C105.031 124.029 105.125 124.046 105.219 124.038C105.312 124.03 105.401 123.995 105.476 123.939L112.906 119.653C113.113 119.528 113.281 119.347 113.39 119.131C113.499 118.916 113.546 118.673 113.524 118.433Z" fill="#EBEBEB"/>
<path d="M125.001 111.807L123.979 104.636C123.979 104.542 123.953 104.45 123.904 104.371C123.855 104.291 123.784 104.226 123.7 104.184C123.616 104.142 123.522 104.125 123.429 104.133C123.336 104.142 123.246 104.176 123.171 104.232L115.742 108.523C115.541 108.65 115.38 108.831 115.277 109.045C115.173 109.259 115.131 109.498 115.156 109.735L116.178 116.885C116.178 116.979 116.204 117.071 116.254 117.151C116.303 117.231 116.373 117.295 116.457 117.337C116.541 117.379 116.635 117.397 116.728 117.388C116.822 117.38 116.911 117.346 116.986 117.289L124.432 113.011C124.627 112.881 124.784 112.701 124.884 112.488C124.985 112.276 125.025 112.041 125.001 111.807Z" fill="#EBEBEB"/>
<path d="M136.491 105.182L135.469 98.0267C135.469 97.9329 135.443 97.841 135.394 97.7612C135.345 97.6815 135.274 97.617 135.19 97.575C135.106 97.5331 135.012 97.5153 134.919 97.5238C134.826 97.5322 134.736 97.5665 134.661 97.6227L127.232 101.913C127.031 102.041 126.87 102.222 126.767 102.436C126.663 102.65 126.621 102.889 126.646 103.125L127.664 110.292C127.664 110.386 127.69 110.478 127.739 110.558C127.789 110.637 127.859 110.702 127.943 110.744C128.027 110.786 128.121 110.804 128.214 110.795C128.308 110.787 128.397 110.752 128.472 110.696L135.902 106.406C136.105 106.277 136.267 106.094 136.372 105.878C136.476 105.662 136.517 105.42 136.491 105.182Z" fill="#EBEBEB"/>
<path d="M147.981 98.5761L146.959 91.4213C146.959 91.3275 146.933 91.2355 146.884 91.1558C146.834 91.076 146.764 91.0115 146.68 90.9696C146.596 90.9276 146.502 90.9099 146.409 90.9183C146.315 90.9267 146.226 90.961 146.151 91.0173L138.722 95.3077C138.521 95.4358 138.361 95.6169 138.257 95.8309C138.154 96.0448 138.112 96.2833 138.136 96.5197L139.154 103.675C139.155 103.768 139.182 103.859 139.232 103.938C139.281 104.017 139.352 104.08 139.435 104.122C139.518 104.164 139.612 104.182 139.705 104.174C139.797 104.166 139.886 104.133 139.962 104.079L147.391 99.7881C147.592 99.6605 147.754 99.4797 147.858 99.2657C147.962 99.0517 148.005 98.8129 147.981 98.5761Z" fill="#EBEBEB"/>
<path d="M77.0469 124.307L76.0248 117.16C76.0233 117.067 75.9963 116.976 75.9467 116.897C75.8971 116.818 75.8268 116.754 75.7434 116.713C75.6601 116.671 75.5669 116.653 75.474 116.661C75.3812 116.668 75.2922 116.701 75.2168 116.756L67.7872 121.046C67.587 121.175 67.4263 121.356 67.3229 121.57C67.2194 121.784 67.1774 122.022 67.2014 122.258L68.2195 129.413C68.2209 129.507 68.2479 129.597 68.2975 129.676C68.3472 129.755 68.4175 129.819 68.5008 129.861C68.5842 129.902 68.6773 129.92 68.7702 129.913C68.8631 129.905 68.9521 129.872 69.0275 129.817L76.457 125.527C76.658 125.397 76.8193 125.215 76.9234 125C77.0274 124.784 77.0702 124.545 77.0469 124.307Z" fill="#423881"/>
<path d="M88.5366 117.681L87.5145 110.526C87.513 110.433 87.486 110.342 87.4364 110.263C87.3868 110.185 87.3165 110.121 87.2332 110.079C87.1498 110.037 87.0566 110.019 86.9638 110.027C86.8709 110.035 86.7819 110.068 86.7065 110.122L79.2769 114.413C79.0768 114.541 78.916 114.722 78.8126 114.936C78.7092 115.15 78.6671 115.389 78.6911 115.625L79.7092 122.78C79.7107 122.873 79.7377 122.964 79.7873 123.043C79.8369 123.122 79.9072 123.185 79.9906 123.227C80.0739 123.269 80.1671 123.287 80.26 123.279C80.3528 123.272 80.4418 123.239 80.5172 123.184L87.9468 118.893C88.1464 118.764 88.3069 118.583 88.4109 118.37C88.5149 118.156 88.5584 117.918 88.5366 117.681Z" fill="#EBEBEB"/>
<path d="M100.026 111.056L99.0042 103.901C99.0028 103.808 98.9758 103.717 98.9262 103.638C98.8766 103.559 98.8063 103.495 98.7229 103.453C98.6396 103.412 98.5464 103.394 98.4535 103.401C98.3607 103.409 98.2717 103.442 98.1962 103.497L90.7667 107.787C90.5665 107.915 90.4058 108.096 90.3023 108.31C90.1989 108.524 90.1569 108.763 90.1809 108.999L91.199 116.154C91.2004 116.247 91.2274 116.338 91.277 116.417C91.3266 116.496 91.397 116.56 91.4803 116.601C91.5636 116.643 91.6568 116.661 91.7497 116.653C91.8426 116.646 91.9316 116.613 92.007 116.558L99.4365 112.268C99.6362 112.139 99.7967 111.958 99.9007 111.744C100.005 111.53 100.048 111.292 100.026 111.056Z" fill="#EBEBEB"/>
<path d="M111.504 104.43L110.482 97.2753C110.48 97.1821 110.453 97.0911 110.404 97.0122C110.354 96.9333 110.284 96.8696 110.2 96.8279C110.117 96.7862 110.024 96.7682 109.931 96.7759C109.838 96.7835 109.749 96.8165 109.674 96.8713L102.252 101.17C102.052 101.298 101.892 101.479 101.789 101.693C101.685 101.907 101.643 102.145 101.667 102.382L102.685 109.537C102.686 109.63 102.713 109.721 102.763 109.8C102.812 109.879 102.883 109.942 102.966 109.984C103.049 110.026 103.142 110.044 103.235 110.036C103.328 110.028 103.417 109.995 103.493 109.941L110.922 105.65C111.122 105.52 111.282 105.337 111.385 105.122C111.487 104.907 111.528 104.667 111.504 104.43Z" fill="#EBEBEB"/>
<path d="M123.006 97.8045L121.984 90.6537C121.984 90.5599 121.958 90.468 121.908 90.3882C121.859 90.3084 121.788 90.2439 121.704 90.202C121.621 90.1601 121.527 90.1423 121.433 90.1507C121.34 90.1591 121.251 90.1934 121.176 90.2497L113.742 94.5361C113.542 94.6645 113.382 94.8457 113.278 95.0596C113.175 95.2734 113.133 95.5117 113.156 95.7481L114.174 102.903C114.176 102.996 114.203 103.087 114.252 103.166C114.302 103.245 114.372 103.309 114.456 103.35C114.539 103.392 114.632 103.41 114.725 103.402C114.818 103.395 114.907 103.362 114.982 103.307L122.412 99.0084C122.611 98.881 122.772 98.7015 122.877 98.4893C122.981 98.2771 123.026 98.0402 123.006 97.8045Z" fill="#EBEBEB"/>
<path d="M134.495 91.1789L133.473 84.0321C133.473 83.9383 133.447 83.8464 133.398 83.7666C133.349 83.6868 133.278 83.6224 133.194 83.5804C133.11 83.5385 133.016 83.5207 132.923 83.5291C132.83 83.5376 132.74 83.5718 132.665 83.6281L125.24 87.9226C125.039 88.0504 124.878 88.2314 124.775 88.4454C124.671 88.6595 124.63 88.8981 124.654 89.1346L125.672 96.2854C125.674 96.3786 125.701 96.4696 125.75 96.5485C125.8 96.6273 125.87 96.6911 125.953 96.7328C126.037 96.7744 126.13 96.7924 126.223 96.7848C126.316 96.7771 126.405 96.7442 126.48 96.6894L133.91 92.3989C134.11 92.2692 134.271 92.0867 134.374 91.8714C134.478 91.6561 134.52 91.4164 134.495 91.1789Z" fill="#EBEBEB"/>
<path d="M145.985 84.5573L144.963 77.4025C144.963 77.3087 144.937 77.2167 144.888 77.137C144.839 77.0572 144.768 76.9927 144.684 76.9508C144.6 76.9088 144.506 76.8911 144.413 76.8995C144.319 76.9079 144.23 76.9422 144.155 76.9985L136.722 81.2889C136.522 81.4175 136.362 81.5988 136.26 81.8128C136.157 82.0267 136.115 82.2649 136.14 82.5009L137.158 89.6517C137.159 89.7449 137.186 89.8359 137.236 89.9148C137.286 89.9937 137.356 90.0574 137.439 90.0991C137.523 90.1408 137.616 90.1588 137.709 90.1511C137.802 90.1435 137.891 90.1105 137.966 90.0557L145.396 85.7693C145.595 85.6401 145.755 85.4589 145.859 85.2454C145.963 85.0318 146.007 84.7939 145.985 84.5573Z" fill="#EBEBEB"/>
<path d="M75.0471 110.292L74.029 103.137C74.0275 103.044 74.0005 102.953 73.9509 102.874C73.9013 102.795 73.831 102.732 73.7477 102.69C73.6643 102.648 73.5711 102.63 73.4783 102.638C73.3854 102.646 73.2964 102.679 73.221 102.733L65.7834 107.06C65.5841 107.189 65.4242 107.37 65.3209 107.584C65.2176 107.798 65.1749 108.036 65.1976 108.272L66.2197 115.423C66.2197 115.517 66.2458 115.609 66.2951 115.688C66.3444 115.768 66.4149 115.833 66.4988 115.875C66.5827 115.917 66.6766 115.934 66.77 115.926C66.8634 115.917 66.9526 115.883 67.0277 115.827L74.4613 111.504C74.6611 111.376 74.8216 111.195 74.925 110.981C75.0284 110.767 75.0706 110.529 75.0471 110.292Z" fill="#423881"/>
<path d="M86.5368 103.683L85.5187 96.5277C85.5173 96.4345 85.4903 96.3435 85.4407 96.2647C85.391 96.1858 85.3207 96.122 85.2374 96.0803C85.154 96.0387 85.0609 96.0207 84.968 96.0283C84.8751 96.036 84.7861 96.069 84.7107 96.1237L77.2812 100.414C77.0819 100.543 76.922 100.725 76.8187 100.938C76.7154 101.152 76.6727 101.39 76.6954 101.626L77.7175 108.781C77.7189 108.874 77.7459 108.965 77.7955 109.044C77.8452 109.123 77.9155 109.187 77.9988 109.228C78.0822 109.27 78.1753 109.288 78.2682 109.28C78.3611 109.273 78.4501 109.24 78.5255 109.185L85.955 104.895C86.1545 104.766 86.3144 104.585 86.4171 104.371C86.5198 104.157 86.5612 103.919 86.5368 103.683Z" fill="#EBEBEB"/>
<path d="M98.0266 97.0571L97.0085 89.9022C97.007 89.809 96.98 89.7181 96.9304 89.6392C96.8808 89.5603 96.8105 89.4965 96.7272 89.4549C96.6438 89.4132 96.5506 89.3952 96.4578 89.4028C96.3649 89.4105 96.2759 89.4435 96.2005 89.4982L88.7709 93.7887C88.572 93.9181 88.4123 94.0994 88.3091 94.313C88.2058 94.5267 88.163 94.7645 88.1851 95.0007L89.2073 102.156C89.2087 102.249 89.2357 102.34 89.2853 102.419C89.3349 102.497 89.4052 102.561 89.4886 102.603C89.5719 102.645 89.6651 102.663 89.758 102.655C89.8509 102.647 89.9398 102.614 90.0153 102.56L97.4448 98.2691C97.6443 98.1405 97.8042 97.9592 97.9069 97.7452C98.0096 97.5313 98.051 97.2931 98.0266 97.0571Z" fill="#EBEBEB"/>
<path d="M109.516 90.4313L108.498 83.2765C108.497 83.1833 108.47 83.0923 108.42 83.0134C108.371 82.9346 108.3 82.8708 108.217 82.8291C108.134 82.7875 108.04 82.7695 107.948 82.7771C107.855 82.7847 107.766 82.8177 107.69 82.8725L100.261 87.163C100.062 87.2923 99.9021 87.4737 99.7988 87.6873C99.6956 87.9009 99.6527 88.1387 99.6749 88.375L100.697 95.5298C100.698 95.623 100.725 95.714 100.775 95.7928C100.825 95.8717 100.895 95.9355 100.978 95.9771C101.062 96.0188 101.155 96.0368 101.248 96.0292C101.341 96.0215 101.43 95.9885 101.505 95.9338L108.935 91.6433C109.134 91.5147 109.294 91.3334 109.397 91.1195C109.499 90.9056 109.541 90.6674 109.516 90.4313Z" fill="#EBEBEB"/>
<path d="M121.006 83.8058L119.988 76.651C119.987 76.5578 119.96 76.4668 119.91 76.3879C119.86 76.3091 119.79 76.2453 119.707 76.2036C119.623 76.162 119.53 76.144 119.437 76.1516C119.344 76.1593 119.255 76.1922 119.18 76.247L111.75 80.5375C111.552 80.6669 111.392 80.8482 111.289 81.0618C111.185 81.2754 111.142 81.5132 111.165 81.7495L112.187 88.9043C112.188 88.9975 112.215 89.0885 112.265 89.1673C112.314 89.2462 112.385 89.31 112.468 89.3516C112.551 89.3933 112.645 89.4113 112.737 89.4037C112.83 89.396 112.919 89.363 112.995 89.3083L120.424 85.0178C120.624 84.8892 120.784 84.7079 120.886 84.494C120.989 84.2801 121.03 84.0419 121.006 83.8058Z" fill="#EBEBEB"/>
<path d="M132.512 77.164L131.494 70.0091C131.492 69.916 131.465 69.825 131.416 69.7461C131.366 69.6672 131.296 69.6035 131.213 69.5618C131.129 69.5201 131.036 69.5021 130.943 69.5098C130.85 69.5174 130.761 69.5504 130.686 69.6051L123.22 73.932C123.021 74.0614 122.861 74.2427 122.758 74.4563C122.655 74.6699 122.612 74.9077 122.634 75.144L123.656 82.2988C123.658 82.392 123.685 82.483 123.734 82.5619C123.784 82.6407 123.854 82.7045 123.938 82.7462C124.021 82.7878 124.114 82.8058 124.207 82.7982C124.3 82.7905 124.389 82.7576 124.464 82.7028L131.91 78.376C132.113 78.2503 132.278 78.0702 132.384 77.856C132.49 77.6418 132.535 77.4021 132.512 77.164Z" fill="#EBEBEB"/>
<path d="M143.986 70.5547L142.967 63.4039C142.966 63.3107 142.939 63.2198 142.889 63.1409C142.84 63.062 142.769 62.9982 142.686 62.9566C142.603 62.9149 142.51 62.8969 142.417 62.9045C142.324 62.9122 142.235 62.9452 142.159 62.9999L134.73 67.2864C134.531 67.4154 134.371 67.5967 134.267 67.8104C134.164 68.0241 134.121 68.2621 134.144 68.4984L135.166 75.6532C135.168 75.7464 135.195 75.8374 135.244 75.9162C135.294 75.9951 135.364 76.0589 135.448 76.1005C135.531 76.1422 135.624 76.1602 135.717 76.1526C135.81 76.1449 135.899 76.1119 135.974 76.0572L143.42 71.7586C143.615 71.629 143.772 71.4482 143.871 71.2359C143.971 71.0236 144.011 70.7879 143.986 70.5547Z" fill="#EBEBEB"/>
<path d="M73.0513 96.3057L72.0292 89.1549C72.0292 89.0611 72.0031 88.9692 71.9538 88.8894C71.9044 88.8096 71.8339 88.7452 71.75 88.7032C71.6661 88.6613 71.5722 88.6435 71.4788 88.6519C71.3854 88.6604 71.2962 88.6946 71.2212 88.7509L63.7916 93.0373C63.5917 93.1657 63.4313 93.3469 63.3279 93.5608C63.2245 93.7747 63.1823 94.013 63.2058 94.2493L64.236 101.404C64.236 101.498 64.2621 101.59 64.3114 101.67C64.3607 101.749 64.4313 101.814 64.5152 101.856C64.599 101.898 64.693 101.916 64.7864 101.907C64.8798 101.899 64.969 101.864 65.044 101.808L72.4736 97.5177C72.6726 97.3889 72.832 97.2075 72.934 96.9935C73.036 96.7795 73.0766 96.5414 73.0513 96.3057Z" fill="#423881"/>
<path d="M84.541 89.688L83.5189 82.5372C83.5189 82.4434 83.4928 82.3515 83.4435 82.2717C83.3942 82.192 83.3236 82.1275 83.2397 82.0855C83.1558 82.0436 83.0619 82.0258 82.9685 82.0343C82.8751 82.0427 82.7859 82.077 82.7109 82.1332L75.2813 86.4237C75.0808 86.5514 74.9198 86.7325 74.8163 86.9465C74.7129 87.1606 74.671 87.3992 74.6955 87.6357L75.7176 94.7865C75.7176 94.8803 75.7438 94.9722 75.7931 95.052C75.8424 95.1318 75.9129 95.1962 75.9968 95.2382C76.0807 95.2801 76.1746 95.2979 76.268 95.2895C76.3614 95.281 76.4506 95.2468 76.5256 95.1905L83.9552 90.9C84.1557 90.7723 84.3167 90.5913 84.4202 90.3772C84.5237 90.1631 84.5655 89.9245 84.541 89.688Z" fill="#EBEBEB"/>
<path d="M96.0308 83.0585L95.0086 75.9037C95.0086 75.8099 94.9825 75.718 94.9332 75.6382C94.8839 75.5584 94.8134 75.4939 94.7295 75.452C94.6456 75.4101 94.5517 75.3923 94.4583 75.4007C94.3649 75.4091 94.2757 75.4434 94.2006 75.4997L86.7711 79.7902C86.5706 79.9179 86.4095 80.0989 86.3061 80.313C86.2026 80.527 86.1608 80.7657 86.1853 81.0022L87.2074 88.153C87.2074 88.2467 87.2335 88.3387 87.2828 88.4185C87.3321 88.4982 87.4027 88.5627 87.4865 88.6046C87.5704 88.6466 87.6643 88.6643 87.7577 88.6559C87.8512 88.6475 87.9404 88.6132 88.0154 88.557L95.445 84.2705C95.6448 84.1421 95.8053 83.961 95.9087 83.7471C96.0121 83.5332 96.0543 83.2949 96.0308 83.0585Z" fill="#EBEBEB"/>
<path d="M107.521 76.4328L106.498 69.2779C106.498 69.1842 106.472 69.0922 106.423 69.0125C106.374 68.9327 106.303 68.8682 106.219 68.8263C106.135 68.7843 106.041 68.7666 105.948 68.775C105.855 68.7834 105.765 68.8177 105.69 68.8739L98.2608 73.1644C98.0603 73.2922 97.8993 73.4732 97.7958 73.6873C97.6924 73.9013 97.6505 74.1399 97.675 74.3764L98.6931 81.5313C98.6946 81.6244 98.7216 81.7154 98.7712 81.7943C98.8208 81.8732 98.8911 81.9369 98.9744 81.9786C99.0578 82.0203 99.151 82.0383 99.2438 82.0306C99.3367 82.023 99.4257 81.99 99.5011 81.9353L106.931 77.6448C107.131 77.5169 107.293 77.336 107.397 77.1221C107.501 76.9081 107.544 76.6696 107.521 76.4328Z" fill="#EBEBEB"/>
<path d="M119.01 69.8073L117.988 62.6525C117.988 62.5587 117.962 62.4667 117.913 62.387C117.863 62.3072 117.793 62.2427 117.709 62.2008C117.625 62.1588 117.531 62.1411 117.438 62.1495C117.344 62.1579 117.255 62.1922 117.18 62.2485L109.751 66.5389C109.55 66.6667 109.389 66.8477 109.286 67.0618C109.182 67.2758 109.14 67.5145 109.165 67.7509L110.183 74.9058C110.184 74.999 110.211 75.0899 110.261 75.1688C110.311 75.2477 110.381 75.3115 110.464 75.3531C110.548 75.3948 110.641 75.4128 110.734 75.4051C110.826 75.3975 110.915 75.3645 110.991 75.3098L118.42 71.0193C118.621 70.8917 118.783 70.7109 118.887 70.4969C118.991 70.2829 119.034 70.0441 119.01 69.8073Z" fill="#EBEBEB"/>
<path d="M130.492 63.1816L129.47 56.0267C129.47 55.9329 129.444 55.841 129.394 55.7612C129.345 55.6815 129.275 55.617 129.191 55.575C129.107 55.5331 129.013 55.5153 128.919 55.5238C128.826 55.5322 128.737 55.5665 128.662 55.6227L121.232 59.9132C121.032 60.0413 120.871 60.2224 120.768 60.4363C120.665 60.6503 120.622 60.8888 120.646 61.1252L121.669 68.276C121.67 68.3692 121.697 68.4602 121.747 68.539C121.796 68.6179 121.867 68.6817 121.95 68.7234C122.033 68.765 122.126 68.783 122.219 68.7754C122.312 68.7677 122.401 68.7348 122.477 68.68L129.906 64.3895C130.106 64.2618 130.266 64.0813 130.369 63.8682C130.473 63.655 130.515 63.4174 130.492 63.1816Z" fill="#EBEBEB"/>
<path d="M141.99 56.56L140.968 49.4051C140.968 49.3114 140.942 49.2194 140.892 49.1397C140.843 49.0599 140.772 48.9954 140.688 48.9535C140.605 48.9115 140.511 48.8938 140.417 48.9022C140.324 48.9106 140.235 48.9449 140.16 49.0011L132.73 53.2916C132.53 53.4197 132.369 53.6008 132.266 53.8148C132.162 54.0287 132.12 54.2672 132.144 54.5036L133.162 61.6585C133.164 61.7516 133.191 61.8426 133.24 61.9215C133.29 62.0004 133.36 62.0641 133.444 62.1058C133.527 62.1475 133.62 62.1655 133.713 62.1578C133.806 62.1502 133.895 62.1172 133.97 62.0625L141.4 57.772C141.601 57.6444 141.762 57.4636 141.867 57.2496C141.971 57.0355 142.013 56.7968 141.99 56.56Z" fill="#EBEBEB"/>
<path d="M71.2856 83.6604L71.0271 81.8343C71.0271 81.7406 71.001 81.6486 70.9517 81.5689C70.9024 81.4891 70.8318 81.4246 70.7479 81.3827C70.664 81.3407 70.5701 81.323 70.4767 81.3314C70.3833 81.3398 70.2941 81.3741 70.2191 81.4303L62.7855 85.7289C62.5853 85.857 62.4246 86.0381 62.3211 86.252C62.2177 86.466 62.1757 86.7045 62.1997 86.9409L62.4542 88.767C62.4557 88.8602 62.4827 88.9511 62.5323 89.03C62.5819 89.1089 62.6522 89.1727 62.7355 89.2143C62.8189 89.256 62.9121 89.274 63.0049 89.2664C63.0978 89.2587 63.1868 89.2257 63.2622 89.171L70.6998 84.8643C70.8978 84.7359 71.0569 84.556 71.1601 84.3438C71.2634 84.1317 71.3067 83.8954 71.2856 83.6604Z" fill="#E6E6E6"/>
<path d="M82.7754 77.0347L82.5168 75.2086C82.5168 75.1148 82.4907 75.0229 82.4414 74.9431C82.3921 74.8633 82.3216 74.7989 82.2377 74.7569C82.1538 74.715 82.0599 74.6972 81.9665 74.7057C81.8731 74.7141 81.7839 74.7483 81.7088 74.8046L74.2752 79.1032C74.0751 79.2312 73.9143 79.4123 73.8109 79.6263C73.7075 79.8403 73.6654 80.0787 73.6894 80.3152L73.944 82.1413C73.9454 82.2344 73.9724 82.3254 74.022 82.4043C74.0716 82.4832 74.1419 82.5469 74.2253 82.5886C74.3086 82.6303 74.4018 82.6483 74.4947 82.6406C74.5876 82.633 74.6765 82.6 74.752 82.5453L82.1856 78.2548C82.3868 78.1256 82.5484 77.9432 82.6525 77.7279C82.7566 77.5126 82.7991 77.2727 82.7754 77.0347Z" fill="#E6E6E6"/>
<path d="M94.2651 70.4092L94.0066 68.5831C94.0051 68.4899 93.9781 68.399 93.9285 68.3201C93.8789 68.2412 93.8086 68.1774 93.7253 68.1358C93.6419 68.0941 93.5487 68.0761 93.4559 68.0837C93.363 68.0914 93.274 68.1244 93.1986 68.1791L85.765 72.4777C85.5648 72.6057 85.4041 72.7868 85.3006 73.0008C85.1972 73.2148 85.1552 73.4532 85.1792 73.6897L85.4337 75.5158C85.4337 75.6095 85.4598 75.7015 85.5091 75.7812C85.5584 75.861 85.629 75.9255 85.7129 75.9674C85.7967 76.0094 85.8907 76.0271 85.9841 76.0187C86.0775 76.0103 86.1667 75.976 86.2417 75.9198L93.6753 71.6293C93.8766 71.5001 94.0382 71.3177 94.1423 71.1024C94.2464 70.8871 94.2889 70.6472 94.2651 70.4092Z" fill="#E6E6E6"/>
<path d="M105.755 63.7877L105.497 61.9576C105.495 61.8645 105.468 61.7735 105.419 61.6946C105.369 61.6157 105.299 61.552 105.215 61.5103C105.132 61.4686 105.039 61.4506 104.946 61.4583C104.853 61.4659 104.764 61.4989 104.689 61.5536L97.255 65.8522C97.0548 65.9803 96.894 66.1613 96.7906 66.3753C96.6872 66.5893 96.6452 66.8278 96.6692 67.0642L96.9237 68.8903C96.9237 68.9841 96.9498 69.076 96.9991 69.1558C97.0484 69.2355 97.119 69.3 97.2028 69.342C97.2867 69.3839 97.3806 69.4017 97.474 69.3932C97.5675 69.3848 97.6567 69.3505 97.7317 69.2943L105.165 65.0078C105.366 64.878 105.527 64.6955 105.631 64.4804C105.735 64.2652 105.778 64.0256 105.755 63.7877Z" fill="#E6E6E6"/>
<path d="M117.245 57.162L116.986 55.3319C116.985 55.2387 116.958 55.1477 116.908 55.0689C116.858 54.99 116.788 54.9262 116.705 54.8845C116.621 54.8429 116.528 54.8249 116.435 54.8325C116.342 54.8402 116.254 54.8732 116.178 54.9279L108.744 59.2265C108.545 59.3549 108.384 59.536 108.281 59.7499C108.177 59.9638 108.135 60.2021 108.159 60.4385L108.413 62.2645C108.413 62.3583 108.439 62.4502 108.489 62.53C108.538 62.6098 108.608 62.6743 108.692 62.7162C108.776 62.7582 108.87 62.7759 108.964 62.7675C109.057 62.7591 109.146 62.7248 109.221 62.6685L116.655 58.3821C116.855 58.2522 117.017 58.0698 117.121 57.8546C117.225 57.6395 117.267 57.3999 117.245 57.162Z" fill="#E6E6E6"/>
<path d="M128.735 50.5364L128.476 48.7103C128.476 48.6165 128.45 48.5246 128.401 48.4448C128.351 48.365 128.281 48.3006 128.197 48.2586C128.113 48.2167 128.019 48.1989 127.926 48.2074C127.832 48.2158 127.743 48.2501 127.668 48.3063L120.234 52.6008C120.035 52.7292 119.874 52.9104 119.771 53.1243C119.667 53.3382 119.625 53.5765 119.649 53.8128L119.903 55.643C119.905 55.7361 119.932 55.8271 119.981 55.906C120.031 55.9849 120.101 56.0486 120.185 56.0903C120.268 56.132 120.361 56.15 120.454 56.1423C120.547 56.1347 120.636 56.1017 120.711 56.047L128.145 51.7565C128.346 51.6269 128.507 51.4446 128.611 51.2293C128.715 51.0141 128.758 50.7743 128.735 50.5364Z" fill="#E6E6E6"/>
<path d="M140.22 43.9109L139.966 42.0848C139.966 41.991 139.94 41.8991 139.89 41.8193C139.841 41.7396 139.77 41.6751 139.687 41.6331C139.603 41.5912 139.509 41.5735 139.415 41.5819C139.322 41.5903 139.233 41.6246 139.158 41.6808L131.728 45.9713C131.528 46.0991 131.367 46.2801 131.263 46.4941C131.16 46.7082 131.118 46.9468 131.142 47.1833L131.397 49.0094C131.398 49.1026 131.425 49.1936 131.475 49.2724C131.525 49.3513 131.595 49.4151 131.678 49.4567C131.762 49.4984 131.855 49.5164 131.948 49.5088C132.04 49.5011 132.129 49.4681 132.205 49.4134L139.638 45.1229C139.838 44.994 139.997 44.8126 140.1 44.5988C140.203 44.3849 140.244 44.1469 140.22 43.9109Z" fill="#E6E6E6"/>
<path opacity="0.2" d="M62.6199 72.8736C62.5833 72.3398 62.6935 71.8061 62.9385 71.3305C63.1835 70.8548 63.5539 70.4552 64.0096 70.1749C64.9146 69.6537 65.759 70.0133 65.9004 70.9829C65.9379 71.5173 65.8277 72.0517 65.5818 72.5276C65.336 73.0036 64.964 73.4028 64.5066 73.6816C63.6056 74.2028 62.7613 73.8432 62.6199 72.8736Z" fill="black"/>
<path opacity="0.2" d="M74.1219 66.2561C74.0845 65.7221 74.1943 65.1882 74.4393 64.7123C74.6844 64.2365 75.0553 63.837 75.5117 63.5573C76.4166 63.0321 77.261 63.3917 77.4024 64.3653C77.4396 64.8991 77.3292 65.4329 77.0834 65.9082C76.8376 66.3834 76.4657 66.7819 76.0086 67.06C75.1036 67.565 74.2593 67.2055 74.1219 66.2561Z" fill="black"/>
<path opacity="0.2" d="M85.5995 59.6103C85.562 59.0764 85.6718 58.5424 85.9168 58.0666C86.1619 57.5907 86.5328 57.1912 86.9892 56.9116C87.8942 56.3864 88.7426 56.746 88.8799 57.7196C88.9171 58.2529 88.8071 58.7862 88.5621 59.2614C88.317 59.7365 87.9462 60.1353 87.4902 60.4143C86.5852 60.9354 85.7368 60.5759 85.5995 59.6103Z" fill="black"/>
<path opacity="0.2" d="M108.571 46.347C108.533 45.813 108.643 45.2791 108.888 44.8032C109.133 44.3274 109.504 43.9279 109.961 43.6483C110.866 43.1271 111.71 43.4867 111.847 44.4563C111.887 44.9904 111.778 45.5251 111.532 46.0013C111.287 46.4775 110.915 46.8767 110.458 47.155C109.553 47.6721 108.708 47.3166 108.571 46.347Z" fill="black"/>
<path opacity="0.2" d="M120.069 39.7133C120.03 39.1793 120.14 38.645 120.385 38.169C120.63 37.6929 121.002 37.2936 121.459 37.0146C122.363 36.4894 123.208 36.849 123.349 37.8226C123.387 38.357 123.277 38.8914 123.031 39.3674C122.785 39.8434 122.413 40.2426 121.955 40.5213C121.05 41.0385 120.206 40.6789 120.069 39.7133Z" fill="black"/>
<path opacity="0.2" d="M131.546 33.0837C131.509 32.5498 131.619 32.0158 131.864 31.5399C132.109 31.0641 132.48 30.6646 132.936 30.385C133.841 29.8598 134.69 30.2193 134.827 31.193C134.864 31.7263 134.754 32.2596 134.509 32.7348C134.264 33.2099 133.893 33.6087 133.437 33.8877C132.512 34.4088 131.704 34.0493 131.546 33.0837Z" fill="black"/>
<path d="M61.4321 61.9575C60.2201 61.2505 59.0323 61.1495 58.1274 61.6707C57.2224 62.1918 56.7214 63.2584 56.7214 64.6764C56.7293 65.3397 56.8272 65.9988 57.0123 66.6358L57.7314 66.2318C57.6023 65.726 57.5345 65.2065 57.5294 64.6845C57.5294 63.5695 57.885 62.7493 58.5314 62.3777C58.7966 62.2296 59.0962 62.1543 59.4 62.1595C59.973 62.1868 60.5294 62.3607 61.016 62.6645C63.1652 63.9088 64.9146 66.9388 64.9146 69.4194C64.9158 69.5962 64.9063 69.7729 64.8863 69.9486C64.8764 70.3004 64.7834 70.6449 64.6149 70.9538C64.4463 71.2628 64.2071 71.5274 63.9167 71.7262C63.5463 71.9263 63.119 71.9946 62.7047 71.9201C62.6231 72.1813 62.5889 72.4549 62.6037 72.7281C62.7547 72.7521 62.9073 72.7643 63.0602 72.7645C63.5051 72.77 63.9433 72.6556 64.3288 72.4332C64.6894 72.207 64.9952 71.9033 65.2237 71.5441C65.4522 71.1848 65.5978 70.7792 65.6498 70.3567C65.7043 70.0499 65.7313 69.739 65.7306 69.4275C65.7347 66.6601 63.8036 63.3271 61.4321 61.9575Z" fill="#F5F5F5"/>
<path d="M72.9301 55.324C71.7181 54.617 70.5304 54.5159 69.6254 55.0371C68.7204 55.5583 68.2195 56.6248 68.2195 58.0429C68.2274 58.7062 68.3252 59.3653 68.5104 60.0023L69.2295 59.5983C69.1004 59.0925 69.0326 58.573 69.0275 58.051C69.0275 56.9359 69.383 56.1158 70.0294 55.7441C70.2946 55.596 70.5943 55.5207 70.898 55.526C71.471 55.5533 72.0274 55.7272 72.514 56.031C74.6633 57.2753 76.4126 60.3053 76.4126 62.7858C76.4138 62.9627 76.4044 63.1394 76.3843 63.3151C76.3744 63.6669 76.2814 64.0113 76.1129 64.3203C75.9444 64.6292 75.7051 64.8939 75.4147 65.0927C75.0443 65.2927 74.617 65.3611 74.2027 65.2866C74.1212 65.5478 74.0869 65.8214 74.1017 66.0946C74.2527 66.1186 74.4054 66.1307 74.5582 66.131C75.0032 66.1365 75.4414 66.0221 75.8268 65.7997C76.1875 65.5735 76.4932 65.2697 76.7217 64.9105C76.9503 64.5513 77.0958 64.1457 77.1479 63.7231C77.2023 63.4164 77.2294 63.1054 77.2287 62.7939C77.2327 60.0386 75.3016 56.6935 72.9301 55.324Z" fill="#F5F5F5"/>
<path d="M84.4077 48.6943C83.1957 47.9873 82.0079 47.8863 81.1029 48.4075C80.198 48.9286 79.697 49.9952 79.697 51.4132C79.7049 52.0765 79.8028 52.7357 79.9879 53.3726L80.707 52.9686C80.5779 52.4628 80.5101 51.9433 80.505 51.4213C80.505 50.3063 80.8605 49.4862 81.5069 49.1145C81.7721 48.9664 82.0718 48.8911 82.3755 48.8963C82.9485 48.9236 83.5049 49.0975 83.9915 49.4013C86.1408 50.6456 87.8901 53.6756 87.8901 56.1562C87.8913 56.333 87.8819 56.5097 87.8619 56.6854C87.852 57.0372 87.759 57.3817 87.5904 57.6906C87.4219 57.9996 87.1827 58.2643 86.8923 58.463C86.5219 58.6631 86.0946 58.7314 85.6803 58.657C85.5987 58.9181 85.5645 59.1918 85.5793 59.465C85.7303 59.4889 85.8829 59.5011 86.0358 59.5013C86.4807 59.5069 86.9189 59.3924 87.3043 59.17C87.665 58.9438 87.9708 58.6401 88.1993 58.2809C88.4278 57.9217 88.5734 57.516 88.6254 57.0935C88.6799 56.7868 88.7069 56.4758 88.7062 56.1643C88.7103 53.409 86.7791 50.0639 84.4077 48.6943Z" fill="#F5F5F5"/>
<path d="M107.383 35.4511C106.171 34.7441 104.983 34.6431 104.079 35.1643C103.174 35.6855 102.673 36.752 102.673 38.1701C102.68 38.8334 102.778 39.4925 102.963 40.1295L103.683 39.7255C103.554 39.2197 103.486 38.7002 103.481 38.1781C103.481 37.0631 103.836 36.243 104.483 35.8713C104.748 35.7232 105.047 35.6479 105.351 35.6531C105.924 35.6805 106.481 35.8544 106.967 36.1581C109.116 37.4025 110.866 40.4325 110.866 42.913C110.867 43.0898 110.857 43.2666 110.837 43.4423C110.828 43.7941 110.735 44.1385 110.566 44.4475C110.398 44.7564 110.158 45.0211 109.868 45.2199C109.497 45.4199 109.07 45.4883 108.656 45.4138C108.574 45.6749 108.54 45.9486 108.555 46.2218C108.706 46.2458 108.858 46.2579 109.011 46.2581C109.456 46.2637 109.895 46.1493 110.28 45.9269C110.641 45.7007 110.946 45.3969 111.175 45.0377C111.403 44.6785 111.549 44.2729 111.601 43.8503C111.655 43.5436 111.682 43.2326 111.682 42.9211C111.686 40.1658 109.755 36.8207 107.383 35.4511Z" fill="#F5F5F5"/>
<path d="M118.881 28.8135C117.669 28.1065 116.481 28.0055 115.576 28.5266C114.671 29.0478 114.17 30.1143 114.17 31.5324C114.178 32.1957 114.276 32.8548 114.461 33.4918L115.18 33.0878C115.051 32.582 114.983 32.0625 114.978 31.5405C114.978 30.4254 115.334 29.6053 115.98 29.2336C116.246 29.0855 116.545 29.0102 116.849 29.0155C117.422 29.0428 117.978 29.2167 118.465 29.5205C120.614 30.7648 122.364 33.7948 122.364 36.2753C122.365 36.4522 122.355 36.6289 122.335 36.8046C122.325 37.1564 122.232 37.5008 122.064 37.8098C121.895 38.1187 121.656 38.3834 121.366 38.5822C120.995 38.7822 120.568 38.8506 120.154 38.7761C120.072 39.0373 120.038 39.3109 120.053 39.5841C120.204 39.6081 120.356 39.6202 120.509 39.6205C120.954 39.626 121.392 39.5116 121.778 39.2892C122.138 39.063 122.444 38.7592 122.673 38.4C122.901 38.0408 123.047 37.6352 123.099 37.2126C123.153 36.9059 123.18 36.5949 123.18 36.2834C123.184 33.5322 121.253 30.183 118.881 28.8135Z" fill="#F5F5F5"/>
<path d="M130.359 22.1838C129.147 21.4768 127.959 21.3758 127.054 21.897C126.149 22.4181 125.644 23.4847 125.644 24.9027C125.652 25.566 125.75 26.2252 125.935 26.8621L126.654 26.4581C126.525 25.9523 126.457 25.4328 126.452 24.9108C126.452 23.7958 126.808 22.9757 127.454 22.604C127.719 22.4559 128.019 22.3806 128.323 22.3858C128.896 22.4131 129.452 22.587 129.939 22.8908C132.088 24.1351 133.837 27.1651 133.837 29.6457C133.838 29.8225 133.829 29.9992 133.809 30.1749C133.799 30.5267 133.706 30.8712 133.537 31.1801C133.369 31.4891 133.13 31.7538 132.839 31.9525C132.469 32.1526 132.042 32.2209 131.627 32.1465C131.546 32.4076 131.512 32.6813 131.526 32.9545C131.677 32.9784 131.83 32.9906 131.983 32.9908C132.428 32.9964 132.866 32.8819 133.251 32.6595C133.612 32.4333 133.918 32.1296 134.146 31.7704C134.375 31.4112 134.52 31.0055 134.572 30.583C134.627 30.2762 134.654 29.9653 134.653 29.6538C134.661 26.8985 132.73 23.5534 130.359 22.1838Z" fill="#F5F5F5"/>
</g>
</g>
<defs>
<filter id="filter0_d_203_1039" x="0" y="0" width="218" height="218" filterUnits="userSpaceOnUse" color-interpolation-filters="sRGB">
<feFlood flood-opacity="0" result="BackgroundImageFix"/>
<feColorMatrix in="SourceAlpha" type="matrix" values="0 0 0 0 0 0 0 0 0 0 0 0 0 0 0 0 0 0 127 0" result="hardAlpha"/>
<feOffset dx="8" dy="8"/>
<feGaussianBlur stdDeviation="4"/>
<feComposite in2="hardAlpha" operator="out"/>
<feColorMatrix type="matrix" values="0 0 0 0 0 0 0 0 0 0 0 0 0 0 0 0 0 0 0.25 0"/>
<feBlend mode="normal" in2="BackgroundImageFix" result="effect1_dropShadow_203_1039"/>
<feBlend mode="normal" in="SourceGraphic" in2="effect1_dropShadow_203_1039" result="shape"/>
</filter>
<filter id="filter1_d_203_1039" x="36.8079" y="19.9583" width="128.186" height="144.074" filterUnits="userSpaceOnUse" color-interpolation-filters="sRGB">
<feFlood flood-opacity="0" result="BackgroundImageFix"/>
<feColorMatrix in="SourceAlpha" type="matrix" values="0 0 0 0 0 0 0 0 0 0 0 0 0 0 0 0 0 0 127 0" result="hardAlpha"/>
<feOffset dx="8" dy="8"/>
<feGaussianBlur stdDeviation="2"/>
<feComposite in2="hardAlpha" operator="out"/>
<feColorMatrix type="matrix" values="0 0 0 0 0 0 0 0 0 0 0 0 0 0 0 0 0 0 0.25 0"/>
<feBlend mode="normal" in2="BackgroundImageFix" result="effect1_dropShadow_203_1039"/>
<feBlend mode="normal" in="SourceGraphic" in2="effect1_dropShadow_203_1039" result="shape"/>
</filter>
</defs>
</svg>
