<svg width="135" height="125" viewBox="0 0 135 125" fill="none" xmlns="http://www.w3.org/2000/svg">
<g filter="url(#filter0_d_186_5948)">
<path d="M126.278 49.2675C128.285 51.1586 128.678 53.7102 127.174 54.9666L59.3064 111.356C57.7918 112.612 54.9327 112.101 52.9251 110.219L17.9549 77.3757C15.9487 75.4846 15.5435 72.9409 17.0581 71.6854L84.9269 15.2871C86.4415 14.0316 89.2906 14.5413 91.2967 16.4324L126.278 49.2675Z" fill="#455A64"/>
<path d="M50.3957 64.6697C51.7806 65.9719 52.6812 67.6213 52.9836 69.4091C53.2861 71.1969 52.9767 73.0429 52.0947 74.7137C51.2127 76.3844 49.7976 77.8049 48.0285 78.7954C46.2594 79.786 44.2156 80.3021 42.1557 80.2786C40.0957 80.255 38.1121 79.6928 36.4557 78.6631C34.7993 77.6334 33.5445 76.1824 32.8499 74.4936C32.1554 72.8048 32.0523 70.9541 32.5537 69.1755C33.0552 67.3968 34.1386 65.7702 35.6669 64.5013C36.6811 63.6577 37.8668 62.9928 39.1563 62.5446C40.4458 62.0965 41.8137 61.8738 43.1818 61.8895C44.5498 61.9051 45.8912 62.1587 47.129 62.6358C48.3669 63.1129 49.477 63.804 50.3957 64.6697Z" fill="#969AFF"/>
<path d="M70.9347 48.0784C72.3172 49.382 73.2151 51.032 73.5149 52.8197C73.8148 54.6075 73.5031 56.4528 72.6194 58.1223C71.7356 59.7919 70.3194 61.2108 68.5498 62.1997C66.7802 63.1886 64.7366 63.7031 62.6773 63.6782C60.6179 63.6533 58.6354 63.0901 56.9801 62.0598C55.3249 61.0294 54.0713 59.5782 53.3778 57.8896C52.6843 56.201 52.582 54.3507 53.0838 52.5727C53.5857 50.7946 54.6692 49.1686 56.1973 47.9001C57.213 47.0571 58.4 46.3929 59.6906 45.9455C60.9812 45.4981 62.35 45.2764 63.7187 45.293C65.0875 45.3095 66.4293 45.564 67.6675 46.042C68.9056 46.5199 70.0159 47.2119 70.9347 48.0784Z" fill="#7F5DE2"/>
<path d="M91.4645 31.4862C92.8494 32.7885 93.75 34.4378 94.0525 36.2256C94.3549 38.0134 94.0455 39.8594 93.1635 41.5302C92.2815 43.201 90.8664 44.6214 89.0973 45.612C87.3282 46.6025 85.2844 47.1187 83.2245 47.0951C81.1645 47.0715 79.1809 46.5094 77.5245 45.4796C75.8681 44.4499 74.6133 42.9989 73.9188 41.3101C73.2242 39.6214 73.1211 37.7706 73.6226 35.992C74.124 34.2134 75.2074 32.5867 76.7358 31.3178C77.7499 30.4742 78.9356 29.8093 80.2251 29.3612C81.5146 28.913 82.8825 28.6904 84.2506 28.706C85.6187 28.7216 86.96 28.9753 88.1978 29.4523C89.4357 29.9294 90.5458 30.6205 91.4645 31.4862Z" fill="#423881"/>
<path d="M69.0758 81.6514C70.4579 82.9562 71.355 84.6072 71.6535 86.3958C71.9521 88.1844 71.6387 90.0302 70.7529 91.6996C69.8672 93.3691 68.4489 94.7873 66.6775 95.7749C64.9061 96.7625 62.8612 97.275 60.8013 97.2477C58.7414 97.2204 56.7591 96.6545 55.1052 95.6216C53.4512 94.5887 52.1999 93.1351 51.5095 91.4447C50.8191 89.7543 50.7205 87.9031 51.2264 86.1252C51.7322 84.3473 52.8197 82.7225 54.3513 81.4564C55.3667 80.6139 56.5535 79.9504 57.8438 79.5041C59.1341 79.0578 60.5025 78.8374 61.8704 78.8555C63.2384 78.8736 64.579 79.1299 65.8155 79.6097C67.0519 80.0895 68.1599 80.7833 69.0758 81.6514Z" fill="#263238"/>
<path d="M89.6157 65.0602C91.0015 66.3616 91.9033 68.0103 92.207 69.7979C92.5107 71.5855 92.2027 73.4316 91.3219 75.1027C90.4411 76.7739 89.0272 78.1952 87.2588 79.1867C85.4904 80.1782 83.447 80.6956 81.387 80.6733C79.3271 80.651 77.3431 80.09 75.6858 79.0614C74.0286 78.0327 72.7726 76.5826 72.0767 74.8943C71.3808 73.2061 71.2762 71.3555 71.7762 69.5766C72.2761 67.7978 73.3581 66.1705 74.8854 64.9006C75.8996 64.0574 77.0851 63.3926 78.3742 62.9443C79.6634 62.496 81.0309 62.2728 82.3987 62.2877C83.7665 62.3025 85.1079 62.5549 86.3462 63.0307C87.5845 63.5064 88.6955 64.196 89.6157 65.0602Z" fill="#E0E0E0"/>
<path d="M110.145 48.468C111.531 49.7694 112.432 51.4181 112.736 53.2057C113.04 54.9932 112.732 56.8393 111.851 58.5105C110.97 60.1817 109.556 61.6029 107.788 62.5945C106.02 63.586 103.976 64.1033 101.916 64.081C99.8563 64.0587 97.8723 63.4978 96.2151 62.4691C94.5579 61.4405 93.3019 59.9904 92.606 58.3021C91.9101 56.6138 91.8055 54.7633 92.3054 52.9844C92.8054 51.2056 93.8874 49.5783 95.4147 48.3084C96.4282 47.4641 97.6135 46.7984 98.9028 46.3494C100.192 45.9004 101.56 45.6769 102.928 45.6918C104.296 45.7066 105.638 45.9594 106.876 46.4358C108.115 46.9122 109.225 47.6027 110.145 48.468Z" fill="#FAFAFA"/>
<path opacity="0.3" d="M47.1149 77.4289C48.4829 76.292 49.4943 74.8615 50.0437 73.2868C50.593 71.7121 50.6601 70.0509 50.238 68.4767C49.8158 66.9024 48.9198 65.4727 47.6436 64.3369C46.3674 63.2011 44.7577 62.4008 42.9825 62.0195C44.4472 61.9949 45.8897 62.247 47.2138 62.7593C48.5379 63.2715 49.7131 64.032 50.6612 64.99C51.6092 65.9481 52.3083 67.0817 52.7117 68.3152C53.1152 69.5488 53.2137 70.8539 53.0009 72.1436C52.788 73.4333 52.2685 74.678 51.4772 75.7946C50.6858 76.9111 49.6407 77.874 48.4115 78.6189C47.1824 79.3638 45.7974 79.8736 44.349 80.1144C42.9007 80.3552 41.4221 80.3214 40.012 80.0152C42.6333 79.9784 45.1754 79.0527 47.1149 77.4289Z" fill="black"/>
<path opacity="0.2" d="M43.317 63.8493C44.6772 65.1295 43.6826 67.901 41.102 70.0377C38.5215 72.1745 35.3362 72.8855 33.9746 71.6142C32.6129 70.3429 33.6089 67.5625 36.1895 65.4258C38.77 63.289 41.9553 62.578 43.317 63.8493Z" fill="white"/>
<path opacity="0.3" d="M67.6527 60.8463C69.0179 59.7075 70.0265 58.2763 70.5735 56.7016C71.1205 55.127 71.186 53.4664 70.763 51.8929C70.3401 50.3194 69.4442 48.8905 68.1686 47.7549C66.8931 46.6193 65.2846 45.8185 63.5105 45.436C64.9752 45.4113 66.4177 45.6635 67.7418 46.1757C69.0659 46.6879 70.2411 47.4484 71.1892 48.4065C72.1372 49.3645 72.8363 50.4981 73.2397 51.7317C73.6431 52.9652 73.7417 54.2704 73.5288 55.5601C73.3159 56.8498 72.7965 58.0944 72.0051 59.211C71.2137 60.3276 70.1686 61.2904 68.9395 62.0353C67.7103 62.7802 66.3254 63.29 64.877 63.5308C63.4286 63.7716 61.9501 63.7378 60.54 63.4317C63.163 63.3892 65.7057 62.465 67.6527 60.8463Z" fill="black"/>
<path opacity="0.2" d="M63.8547 47.267C65.2063 48.5374 64.2218 51.3097 61.6399 53.4553C59.0579 55.6009 55.8641 56.3021 54.514 55.0229C53.1638 53.7437 54.1483 50.9713 56.7288 48.8346C59.3093 46.6979 62.4945 45.9869 63.8547 47.267Z" fill="white"/>
<path opacity="0.3" d="M88.1975 44.2201C89.5658 43.0826 90.5773 41.6515 91.1262 40.0761C91.6752 38.5007 91.7415 36.8389 91.3182 35.2643C90.895 33.6897 89.9977 32.2601 88.7201 31.1247C87.4425 29.9893 85.8315 29.1899 84.0553 28.8099C85.52 28.7846 86.9627 29.0361 88.2871 29.5477C89.6115 30.0594 90.7872 30.8193 91.7358 31.7769C92.6844 32.7346 93.3841 33.8678 93.7882 35.1012C94.1924 36.3346 94.2917 37.6396 94.0795 38.9294C93.8673 40.2192 93.3485 41.4641 92.5578 42.581C91.767 43.6979 90.7224 44.6611 89.4936 45.4066C88.2649 46.152 86.8802 46.6624 85.4319 46.9038C83.9836 47.1452 82.505 47.112 81.0948 46.8065C83.716 46.7696 86.2581 45.844 88.1975 44.2201Z" fill="black"/>
<path opacity="0.2" d="M84.3841 30.6747C85.7457 31.946 84.7512 34.7174 82.1692 36.863C79.5873 39.0086 76.4035 39.7108 75.0418 38.4395C73.6802 37.1682 74.6762 34.3879 77.2581 32.2423C79.8401 30.0967 83.0238 29.3945 84.3841 30.6747Z" fill="white"/>
<path opacity="0.3" d="M65.8029 94.4199C67.1675 93.2802 68.1755 91.8484 68.7222 90.2734C69.2689 88.6984 69.3343 87.0377 68.9117 85.4638C68.4891 83.89 67.5938 82.4605 66.3189 81.324C65.0441 80.1875 63.4362 79.3854 61.6624 79.0012C63.1235 78.9816 64.5614 79.2375 65.8805 79.7519C67.1997 80.2664 68.3699 81.0277 69.3136 81.9852C70.2573 82.9427 70.9528 84.0746 71.3539 85.3056C71.7551 86.5367 71.8527 87.8389 71.6403 89.1256C71.4279 90.4123 70.9104 91.6542 70.1221 92.7689C69.3338 93.8835 68.2927 94.8453 67.068 95.5905C65.8433 96.3358 64.4629 96.8473 63.0186 97.0912C61.5743 97.3351 60.099 97.3058 58.6907 97.0052C61.3135 96.9628 63.856 96.0385 65.8029 94.4199Z" fill="black"/>
<path opacity="0.2" d="M61.9959 80.8399C63.3576 82.1112 62.363 84.8826 59.7911 87.0292C57.2191 89.1757 54.0153 89.876 52.6551 88.5958C51.2948 87.3157 52.2894 84.5442 54.8699 82.4075C57.4505 80.2707 60.6457 79.5606 61.9959 80.8399Z" fill="white"/>
<path opacity="0.3" d="M86.3332 77.828C87.6984 76.6892 88.707 75.258 89.254 73.6834C89.801 72.1087 89.8664 70.4482 89.4435 68.8747C89.0205 67.3012 88.1246 65.8722 86.8491 64.7366C85.5736 63.601 83.965 62.8003 82.191 62.4177C83.6557 62.3931 85.0982 62.6452 86.4222 63.1574C87.7463 63.6697 88.9216 64.4302 89.8696 65.3882C90.8177 66.3463 91.5167 67.4799 91.9202 68.7134C92.3236 69.947 92.4222 71.2521 92.2093 72.5418C91.9964 73.8315 91.477 75.0762 90.6856 76.1928C89.8942 77.3093 88.8491 78.2722 87.62 79.0171C86.3908 79.7619 85.0059 80.2718 83.5575 80.5126C82.1091 80.7534 80.6306 80.7196 79.2205 80.4134C81.845 80.3791 84.391 79.4536 86.3332 77.828Z" fill="black"/>
<path opacity="0.2" d="M82.5252 64.2477C83.8854 65.5279 82.8922 68.2904 80.3203 70.4369C77.7484 72.5834 74.5547 73.2846 73.1945 72.0045C71.8343 70.7243 72.8274 67.9618 75.4093 65.8162C77.9912 63.6706 81.175 62.9685 82.5252 64.2477Z" fill="white"/>
<path opacity="0.3" d="M106.856 61.2796C108.227 60.1425 109.241 58.7107 109.791 57.1342C110.342 55.5577 110.409 53.8944 109.986 52.3183C109.563 50.7422 108.665 49.3113 107.386 48.1752C106.106 47.0392 104.493 46.2397 102.715 45.8606C104.18 45.8352 105.623 46.0868 106.947 46.5984C108.272 47.11 109.447 47.87 110.396 48.8276C111.344 49.7852 112.044 50.9185 112.448 52.1519C112.852 53.3852 112.952 54.6903 112.74 55.9801C112.527 57.2699 112.009 58.5147 111.218 59.6316C110.427 60.7485 109.382 61.7118 108.154 62.4572C106.925 63.2026 105.54 63.7131 104.092 63.9545C102.644 64.1959 101.165 64.1627 99.7548 63.8571C102.374 63.8215 104.915 62.8993 106.856 61.2796Z" fill="black"/>
<path d="M103.064 47.6565C104.425 48.9367 103.43 51.7081 100.848 53.8536C98.2662 55.9992 95.0839 56.6925 93.7222 55.4212C92.3606 54.1499 93.3566 51.3696 95.9371 49.2329C98.5176 47.0962 101.717 46.3595 103.064 47.6565Z" fill="white"/>
<path d="M85 12.0245L79.1948 6.71899L5.80541 66.0086L11.6106 71.314L85 12.0245Z" fill="#455A64"/>
<path d="M31.2775 58.7056L29.4992 57.0808L22.3777 62.8324L24.156 64.4572L31.2775 58.7056Z" fill="#263238"/>
<path d="M76.2745 22.3573L74.4962 20.7325L67.3747 26.4841L69.153 28.1089L76.2745 22.3573Z" fill="#263238"/>
</g>
<defs>
<filter id="filter0_d_186_5948" x="1.80542" y="6.71899" width="130.281" height="117.325" filterUnits="userSpaceOnUse" color-interpolation-filters="sRGB">
<feFlood flood-opacity="0" result="BackgroundImageFix"/>
<feColorMatrix in="SourceAlpha" type="matrix" values="0 0 0 0 0 0 0 0 0 0 0 0 0 0 0 0 0 0 127 0" result="hardAlpha"/>
<feOffset dy="8"/>
<feGaussianBlur stdDeviation="2"/>
<feComposite in2="hardAlpha" operator="out"/>
<feColorMatrix type="matrix" values="0 0 0 0 0 0 0 0 0 0 0 0 0 0 0 0 0 0 0.25 0"/>
<feBlend mode="normal" in2="BackgroundImageFix" result="effect1_dropShadow_186_5948"/>
<feBlend mode="normal" in="SourceGraphic" in2="effect1_dropShadow_186_5948" result="shape"/>
</filter>
</defs>
</svg>
