<svg width="147" height="125" viewBox="0 0 147 125" fill="none" xmlns="http://www.w3.org/2000/svg">
<g filter="url(#filter0_d_186_5906)">
<path d="M3.99994 22.5162L12.0957 55.1079L28.3844 48.7102L30.4357 44.778L37.961 43.5505L33.1545 24.2014L25.9691 25.4497L22.2671 22.8282L3.99994 22.5162Z" fill="#263238"/>
<path d="M100.409 58.364C100.409 58.364 110.896 86.5241 112.037 90.3731C113.178 94.2221 112.426 96.9061 116.832 96.9997C121.237 97.0933 128.556 96.9997 129.734 94.6487C130.911 92.2977 128.253 87.2627 127.683 82.8624C127.112 78.462 122.378 56.5019 121.614 53.3499C120.849 50.1978 116.431 50.8324 115.678 47.1082C114.926 43.3841 119.32 37.1008 119.32 37.1008C119.32 37.1008 95.4572 40.9603 95.6635 41.4076C95.8698 41.8549 102.024 45.8391 101.174 50.1978C100.324 54.5566 97.6783 52.3304 100.409 58.364Z" fill="#263238"/>
<path d="M116.37 94.5133L119.271 112.198C119.271 112.198 123.592 112.489 123.556 112.052C123.519 111.615 126.335 94.4509 126.335 94.4509L116.37 94.5133Z" fill="#263238"/>
<path d="M40.2794 23.8582C40.2794 23.8582 31.9044 25.5435 31.3339 25.4811L35.7399 43.2801L44.6853 41.6469H45.2072L40.7527 23.6606L40.2794 23.8582Z" fill="#263238"/>
<path d="M136.009 2.4806C136.009 2.4806 135.062 2.27253 133.484 1.98126L132.865 1.87725C130.438 1.54437 120.971 1.2947 106.466 14.5478C92.8719 26.9478 93.1996 37.9227 93.8551 41.7509C100.573 42.1512 107.309 41.2517 113.567 39.119C132.368 32.8773 141.799 25.8035 141.799 25.8035C144.093 14.3605 136.009 2.4806 136.009 2.4806Z" fill="#263238"/>
<path d="M106.466 14.5477C121.031 1.2946 130.474 1.54428 132.866 1.87716C127.294 0.888906 115.339 -0.837951 105.629 0.472791C92.4958 2.24125 78.756 8.202 78.756 8.202L40.7531 23.6605L45.2076 41.5947H58.4376C75.0904 39.7014 84.7762 41.3763 93.8552 41.7404C93.1998 37.9226 92.872 26.9477 106.466 14.5477Z" fill="#263238"/>
<path d="M30.472 44.5698C29.3662 41.4104 28.4626 38.2016 27.7653 34.9577C26.8645 31.7503 26.1676 28.5033 25.6776 25.2311C26.7852 28.3901 27.6888 31.599 28.3843 34.8433C29.2933 38.0492 29.9903 41.2965 30.472 44.5698Z" fill="#455A64"/>
<path d="M33.1913 24.1909C34.2777 27.2674 35.1651 30.3929 35.8494 33.5533C36.736 36.6875 37.4167 39.8619 37.8885 43.0614C36.8007 39.9852 35.9133 36.8596 35.2304 33.699C34.3507 30.5635 33.67 27.3895 33.1913 24.1909Z" fill="#455A64"/>
<path d="M128.763 32.8773C128.401 33.1892 127.993 33.4586 127.549 33.6783C126.459 34.3649 125.328 35.0037 124.162 35.5923C116.422 39.5337 107.667 41.7777 98.6734 42.1253C97.323 42.1837 95.9699 42.1837 94.6195 42.1253C94.1214 42.13 93.6244 42.0846 93.1387 41.99C93.1387 41.8964 95.2506 41.99 98.6492 41.7404C107.51 41.178 116.122 38.9663 123.883 35.2595C126.978 33.7927 128.702 32.742 128.763 32.8773Z" fill="#455A64"/>
<path d="M139.432 27.0309C139.262 27.0309 137.733 21.4967 136.021 14.5477C134.31 7.59865 133.06 2.06439 133.23 1.99158C133.4 1.91876 134.929 7.53622 136.64 14.4748C138.352 21.4135 139.541 26.9997 139.432 27.0309Z" fill="#455A64"/>
</g>
<defs>
<filter id="filter0_d_186_5906" x="-6.10352e-05" y="0" width="146.209" height="124.293" filterUnits="userSpaceOnUse" color-interpolation-filters="sRGB">
<feFlood flood-opacity="0" result="BackgroundImageFix"/>
<feColorMatrix in="SourceAlpha" type="matrix" values="0 0 0 0 0 0 0 0 0 0 0 0 0 0 0 0 0 0 127 0" result="hardAlpha"/>
<feOffset dy="8"/>
<feGaussianBlur stdDeviation="2"/>
<feComposite in2="hardAlpha" operator="out"/>
<feColorMatrix type="matrix" values="0 0 0 0 0 0 0 0 0 0 0 0 0 0 0 0 0 0 0.25 0"/>
<feBlend mode="normal" in2="BackgroundImageFix" result="effect1_dropShadow_186_5906"/>
<feBlend mode="normal" in="SourceGraphic" in2="effect1_dropShadow_186_5906" result="shape"/>
</filter>
</defs>
</svg>
