<svg width="119" height="85" viewBox="0 0 119 85" fill="none" xmlns="http://www.w3.org/2000/svg">
<g filter="url(#filter0_d_186_5937)">
<path d="M32.8818 36.2704C33.2832 36.0259 41.9467 30.2307 41.9467 30.2307L57.6782 48.7301L43.8484 57.6674L34.1073 49.6175L30.0503 40.3271L32.8818 36.2704Z" fill="#969AFF"/>
<path d="M108.232 0.439675C115.934 1.45384 114.962 4.55065 112.046 8.03684C96.4945 7.94629 92.617 3.44594 97.6249 0.448726V0.376284C101.137 -0.145983 104.729 -0.124509 108.232 0.439675Z" fill="#969AFF"/>
<path d="M57.2131 49.0199L56.0721 49.7262C54.0224 51.012 48.8244 47.9152 44.4504 42.8081C40.0764 37.7011 38.2592 32.5035 40.3194 31.2177L41.4499 30.5114L74.2019 10.1195C72.2368 11.3419 74.2019 16.458 78.5125 21.5922C82.8231 26.7264 87.9472 29.8504 89.9123 28.628L57.2131 49.0199Z" fill="#263238"/>
<path d="M48.8561 54.5163L21.0592 71.9743C20.3885 72.2281 19.6754 72.39 18.9461 72.4543C15.9773 72.3275 11.7618 69.7377 8.38096 65.7445C5.0001 61.7512 3.36251 57.3324 4.22885 54.8785C4.51707 54.3516 4.89839 53.866 5.35933 53.4387L33.3042 36.0168C33.1985 36.4787 33.114 36.9224 33.0295 37.4113C32.7971 39.7566 34.5403 43.6321 37.7416 47.3718C40.9428 51.1116 44.7252 53.7556 47.3982 54.2899C47.8947 54.3985 48.3807 54.471 48.8561 54.5163Z" fill="#263238"/>
<path opacity="0.3" d="M108.232 0.439675C115.934 1.45384 114.962 4.55065 112.046 8.03684C96.4945 7.94629 92.617 3.44594 97.6249 0.448726V0.376284C101.137 -0.145983 104.729 -0.124509 108.232 0.439675Z" fill="white"/>
<path d="M97.6674 0.43969C92.6595 3.4369 96.5369 7.93725 112.089 8.0278C109.3 11.3601 97.4878 21.0308 90.5465 25.7304C89.902 26.165 89.3103 26.5544 88.7715 26.8894C87.3663 27.7949 83.3304 25.0784 79.7488 20.8316C76.1673 16.5848 74.3817 12.4738 75.7869 11.5955C76.3152 11.2695 76.9068 10.9073 77.5724 10.5179C82.4113 7.65655 90.5465 3.22864 94.3393 1.40858C95.3763 0.924672 96.4904 0.573816 97.6463 0.367249L97.6674 0.43969Z" fill="#969AFF"/>
<path d="M89.9123 28.6279C87.9472 29.8504 82.8442 26.6992 78.5125 21.5922C74.1808 16.4851 72.2368 11.3419 74.2019 10.1195C74.9309 9.65765 76.1142 9.82064 77.5405 10.4545V10.5088C76.8749 10.8982 76.2833 11.2604 75.755 11.5864C74.3498 12.4919 76.1353 16.5938 79.7169 20.8225C83.2985 25.0512 87.3344 27.7496 88.7396 26.8803C89.2784 26.5453 89.8701 26.1559 90.5145 25.7213C90.8526 27.1157 90.6624 28.1571 89.9123 28.6279Z" fill="#455A64"/>
<path opacity="0.3" d="M68.339 19.7301L67.9479 19.2797C67.4777 18.738 66.5842 18.6256 65.9523 19.0286L45.1766 32.2767C44.5446 32.6797 44.4134 33.4455 44.8836 33.9871L45.2747 34.4376C45.7449 34.9792 46.6384 35.0916 47.2704 34.6886L68.046 21.4405C68.678 21.0375 68.8092 20.2718 68.339 19.7301Z" fill="white"/>
<path opacity="0.3" d="M31.0761 41.9372L30.6851 41.4868C30.2149 40.9451 29.3213 40.8327 28.6894 41.2357L27.6637 41.8898C27.0317 42.2928 26.9006 43.0586 27.3708 43.6002L27.7618 44.0506C28.232 44.5923 29.1255 44.7047 29.7575 44.3017L30.7832 43.6477C31.4151 43.2447 31.5463 42.4789 31.0761 41.9372Z" fill="white"/>
<path d="M104.64 8.055C103.981 8.07212 103.322 8.00497 102.686 7.85579C101.096 7.61729 99.5945 7.06208 98.3013 6.23493C97.5777 5.75517 96.9981 5.1343 96.6109 4.42393C96.3047 3.85719 96.1564 3.2372 96.1777 2.61292C96.1586 2.32051 96.2086 2.0278 96.3248 1.75238C96.441 1.47696 96.621 1.22451 96.8539 1.01019C96.6804 1.53229 96.581 2.07042 96.558 2.61292C96.5878 3.18988 96.7607 3.75477 97.0651 4.26999C97.4523 4.89841 97.9886 5.45051 98.6394 5.89085C99.8817 6.66784 101.288 7.23062 102.781 7.54792C103.424 7.64653 104.049 7.81701 104.64 8.055Z" fill="white"/>
</g>
<defs>
<filter id="filter0_d_186_5937" x="-6.10352e-05" y="-6.10352e-05" width="118.195" height="84.4543" filterUnits="userSpaceOnUse" color-interpolation-filters="sRGB">
<feFlood flood-opacity="0" result="BackgroundImageFix"/>
<feColorMatrix in="SourceAlpha" type="matrix" values="0 0 0 0 0 0 0 0 0 0 0 0 0 0 0 0 0 0 127 0" result="hardAlpha"/>
<feOffset dy="8"/>
<feGaussianBlur stdDeviation="2"/>
<feComposite in2="hardAlpha" operator="out"/>
<feColorMatrix type="matrix" values="0 0 0 0 0 0 0 0 0 0 0 0 0 0 0 0 0 0 0.25 0"/>
<feBlend mode="normal" in2="BackgroundImageFix" result="effect1_dropShadow_186_5937"/>
<feBlend mode="normal" in="SourceGraphic" in2="effect1_dropShadow_186_5937" result="shape"/>
</filter>
</defs>
</svg>
