<svg width="90" height="149" viewBox="0 0 90 149" fill="none" xmlns="http://www.w3.org/2000/svg">
<g filter="url(#filter0_d_186_5905)">
<path d="M56.3395 2.13092C57.3248 1.49473 58.4499 1.07392 59.6118 0.907129C62.2283 0.614353 64.8258 0.853591 67.2057 1.60656C70.663 2.72185 81.8048 5.93676 84.8715 6.80974C85.0636 6.87709 85.2114 7.01097 85.2837 7.18329C85.3561 7.35559 85.3474 7.55294 85.2596 7.73395L85.1655 7.93107C85.09 8.1046 84.9472 8.25336 84.7648 8.34851C84.5824 8.44367 84.3734 8.47846 84.1783 8.44611L63.8365 5.7608C63.6418 5.73703 63.4369 5.77783 63.2595 5.87567C63.0822 5.9735 62.9443 6.12179 62.8714 6.29321L62.5543 7.14107C62.5171 7.23407 62.5003 7.33088 62.5048 7.42596C62.5093 7.52102 62.5351 7.61248 62.5807 7.69505C62.6263 7.77762 62.6908 7.8497 62.7705 7.90712C62.8501 7.96454 62.9434 8.00619 63.045 8.02966L82.1604 12.7197C82.3454 12.7694 82.4978 12.8781 82.5903 13.0264C82.6828 13.1747 82.7093 13.3529 82.6651 13.529L82.5507 13.9683C82.5241 14.0663 82.4761 14.1604 82.4094 14.2452C82.3428 14.33 82.2589 14.4036 82.1627 14.4617C82.0666 14.5199 81.9602 14.5613 81.8498 14.5835C81.7394 14.6058 81.6273 14.6084 81.5202 14.5912L61.5351 11.4893C61.3529 11.4585 61.1578 11.487 60.984 11.5698C60.8102 11.6526 60.6686 11.7846 60.5841 11.9425L60.3594 12.3467C60.3056 12.4428 60.2741 12.546 60.2669 12.6495C60.2598 12.753 60.2772 12.8545 60.318 12.9474C60.3588 13.0403 60.422 13.1225 60.5037 13.1887C60.5854 13.2549 60.6836 13.3036 60.792 13.3316L79.378 17.8898C79.4851 17.9157 79.5828 17.9617 79.6648 18.0249C79.7469 18.088 79.8116 18.167 79.855 18.2568C79.8983 18.3465 79.9194 18.4452 79.9168 18.5466C79.9141 18.648 79.8879 18.7499 79.8398 18.846L79.7674 18.9956C79.6905 19.1695 79.546 19.3181 79.362 19.4122C79.1781 19.5064 78.968 19.5394 78.7728 19.5048L58.8609 16.37C58.6655 16.3354 58.4553 16.3675 58.2705 16.4604C58.0857 16.5533 57.9391 16.7003 57.8589 16.8735L57.5837 17.4058C57.5337 17.5011 57.5055 17.6026 57.5008 17.704C57.496 17.8054 57.5149 17.9045 57.5562 17.995C57.5975 18.0856 57.6603 18.1657 57.7407 18.2303C57.8211 18.2949 57.9173 18.3427 58.0235 18.3706L77.0458 23.4004C77.25 23.4524 77.4147 23.5764 77.5039 23.7456C77.593 23.9147 77.5995 24.1152 77.5219 24.3034L77.3701 24.6488C77.2928 24.8212 77.1497 24.9687 76.9679 25.0635C76.7861 25.1584 76.578 25.194 76.3829 25.1638L56.5416 21.6328C56.335 21.5945 56.1114 21.6322 55.9197 21.7379C55.7279 21.8435 55.5835 22.0084 55.518 22.1967L55.2227 23.01C55.1638 23.1883 55.1781 23.3732 55.2629 23.5301C55.3477 23.687 55.4973 23.8051 55.6837 23.8625L74.8361 28.5815C74.9401 28.6064 75.0352 28.6504 75.1156 28.7109C75.1961 28.7714 75.2601 28.8471 75.304 28.9334C75.3478 29.0197 75.3705 29.1148 75.3707 29.213C75.3708 29.3112 75.3484 29.4104 75.3049 29.5046C75.2275 29.677 75.0845 29.8245 74.9027 29.9193C74.7208 30.0142 74.5128 30.0498 74.3176 30.0196L53.9436 26.9218C53.7351 26.889 53.5122 26.9315 53.3224 27.0403C53.1326 27.1492 52.9909 27.3158 52.9275 27.5045L52.6901 28.1956C52.6384 28.373 52.6578 28.5547 52.7449 28.7083C52.8321 28.8618 52.9812 28.9771 53.1657 29.0336L72.7875 33.7213C72.8968 33.7474 72.9963 33.7944 73.0797 33.8591C73.163 33.9238 73.2282 34.0049 73.2711 34.097C73.314 34.1891 73.3336 34.2902 73.3286 34.3937C73.3235 34.4972 73.294 34.6008 73.242 34.6977C73.1584 34.8567 73.0177 34.9902 72.8441 35.0753C72.6706 35.1604 72.475 35.1917 72.2911 35.1639L52.0874 32.2773C51.877 32.2476 51.6537 32.293 51.4642 32.4041C51.2748 32.5151 51.1339 32.6832 51.0713 32.8729L50.8489 33.6015C50.7953 33.7789 50.8156 33.9611 50.9061 34.1132C50.9966 34.2653 51.1508 34.3764 51.339 34.4252L70.7888 38.6423C70.9906 38.687 71.1574 38.8014 71.2543 38.9616C71.3511 39.1218 71.3705 39.3154 71.3085 39.5021L71.2151 39.7901C71.1532 39.9785 71.0133 40.1453 70.825 40.2551C70.6367 40.365 70.4148 40.4093 70.2064 40.3786L50.3555 37.5756C50.1471 37.5473 49.9265 37.5925 49.7388 37.7019C49.5512 37.8114 49.4109 37.9768 49.3467 38.164L49.2461 38.4722C49.1924 38.6496 49.2118 38.832 49.3007 38.9851C49.3896 39.1381 49.542 39.2512 49.729 39.303L69.0719 43.9911C69.1823 44.0187 69.2824 44.0676 69.3655 44.1346C69.4485 44.2017 69.5127 44.2852 69.5537 44.3797C69.5946 44.4742 69.6114 44.5774 69.603 44.6825C69.5945 44.7876 69.561 44.8921 69.5046 44.989L69.2146 45.5097C69.1257 45.6658 68.9821 45.7953 68.8077 45.8767C68.6333 45.9581 68.4387 45.9865 68.2563 45.9571L48.3292 42.7588C48.1207 42.7237 47.8968 42.7644 47.7054 42.8723C47.5141 42.9801 47.3706 43.1465 47.3057 43.3357L47.1043 43.9259C47.0424 44.1127 47.061 44.3064 47.1562 44.4675C47.2514 44.6286 47.4162 44.745 47.6168 44.793L67.0318 49.2925C67.1369 49.3154 67.2334 49.3576 67.3156 49.4166C67.3977 49.4757 67.4638 49.5502 67.5097 49.6358C67.5556 49.7214 67.5804 49.8161 67.5826 49.9143C67.5849 50.0125 67.5644 50.1121 67.5226 50.207L67.4142 50.4574C67.3402 50.6306 67.1992 50.7796 67.0183 50.8757C66.8374 50.9719 66.6294 51.0084 66.4344 50.9782L46.6045 48.0369C46.3941 48.0048 46.1696 48.0492 45.9794 48.1607C45.7893 48.2722 45.6488 48.4417 45.5885 48.6326L45.3875 49.2747C45.336 49.452 45.3565 49.6335 45.4451 49.7861C45.5338 49.9386 45.6847 50.052 45.8703 50.1056L65.1524 54.4878C65.2633 54.513 65.3646 54.5594 65.4494 54.6242C65.5342 54.689 65.6007 54.7705 65.6444 54.8634C65.6881 54.9563 65.708 55.0585 65.7028 55.163C65.6976 55.2676 65.6675 55.3722 65.6143 55.47L65.4332 55.8051C65.3451 55.9637 65.2009 56.0956 65.0248 56.1785C64.8488 56.2614 64.6519 56.2901 64.4675 56.2597L45.0331 53.1902C44.928 53.1736 44.818 53.1759 44.7096 53.1972C44.6012 53.2185 44.4965 53.2583 44.4014 53.3143C44.3063 53.3703 44.2228 53.4414 44.1556 53.5236C44.0884 53.6057 44.0389 53.6973 44.0098 53.7931L43.9021 54.1343C43.8531 54.3112 43.8756 54.4916 43.9655 54.6427C44.0554 54.7938 44.2068 54.9057 44.3922 54.958L63.5815 59.706C63.7854 59.7605 63.9496 59.8856 64.0397 60.055C64.1298 60.2244 64.1388 60.425 64.0649 60.6147L63.8916 61.0336C63.8128 61.2063 63.6681 61.3536 63.4847 61.4475C63.3014 61.5413 63.0923 61.5752 62.897 61.5428L43.6947 58.0749C43.4823 58.0393 43.2542 58.0814 43.0599 58.1921C42.8655 58.3028 42.7206 58.4731 42.6566 58.6661L42.5418 59.0405C42.4832 59.2185 42.4994 59.403 42.5873 59.558C42.6753 59.7129 42.8286 59.8273 43.0174 59.8786L61.2382 64.6919C61.425 64.7425 61.5778 64.854 61.668 65.0055C61.7582 65.1571 61.7797 65.3384 61.7284 65.5156L61.4848 66.3695C61.4553 66.4683 61.404 66.5629 61.334 66.6472C61.264 66.7315 61.1767 66.804 61.0776 66.8601C60.9784 66.9162 60.8694 66.9548 60.7571 66.9736C60.6449 66.9924 60.5318 66.9909 60.4248 66.9693L42.1242 63.358C42.0191 63.3367 41.908 63.335 41.7978 63.3532C41.6875 63.3713 41.5803 63.4089 41.4826 63.4636C41.3849 63.5183 41.2987 63.589 41.2293 63.6715C41.1599 63.7539 41.1087 63.8465 41.0787 63.9434L40.9351 64.3984C40.8765 64.5764 40.8927 64.7609 40.9806 64.9159C41.0686 65.0708 41.2219 65.1851 41.4107 65.2365L60.2793 70.3133C60.4302 70.3514 60.5602 70.4302 60.6526 70.5395C60.7449 70.6488 60.7953 70.7837 60.7973 70.9266C60.8351 71.1098 60.8256 71.3022 60.7693 71.49C60.713 71.6778 60.6114 71.8562 60.472 72.0123C60.3325 72.1684 60.1586 72.2983 59.963 72.3925C59.7673 72.4868 59.5548 72.543 59.3408 72.557C57.3903 72.8188 50.6639 70.2199 43.1783 75.5931C35.6928 80.9663 33.8426 92.443 32.9079 96.2899C31.9733 100.137 29.7918 113.586 29.1348 118.296C28.7973 121.066 28.6865 123.834 28.8035 126.578C28.8523 127.695 28.6484 128.831 28.2037 129.92C27.759 131.01 27.0825 132.032 26.2135 132.925C25.3445 133.819 24.3005 134.566 23.1425 135.125C21.9844 135.683 20.7355 136.04 19.4685 136.177C18.8709 136.235 18.2746 136.23 17.6923 136.162C13.1087 135.633 6.72416 133.639 5.09051 127.762C3.45686 121.885 6.66554 115.759 9.1824 109.361C11.6993 102.963 20.7824 83.5663 20.7824 83.5663C20.7824 83.5663 28.5384 65.4111 29.2543 61.7666C29.9702 58.1222 37.0301 39.0848 38.9288 33.5046C40.6548 28.4081 46.7771 14.8928 47.8319 12.4823C49.0761 9.8722 51.6563 5.20155 56.3395 2.13092Z" fill="#070707"/>
</g>
<defs>
<filter id="filter0_d_186_5905" x="0.645782" y="0.785889" width="88.6866" height="147.431" filterUnits="userSpaceOnUse" color-interpolation-filters="sRGB">
<feFlood flood-opacity="0" result="BackgroundImageFix"/>
<feColorMatrix in="SourceAlpha" type="matrix" values="0 0 0 0 0 0 0 0 0 0 0 0 0 0 0 0 0 0 127 0" result="hardAlpha"/>
<feOffset dy="8"/>
<feGaussianBlur stdDeviation="2"/>
<feComposite in2="hardAlpha" operator="out"/>
<feColorMatrix type="matrix" values="0 0 0 0 0 0 0 0 0 0 0 0 0 0 0 0 0 0 0.25 0"/>
<feBlend mode="normal" in2="BackgroundImageFix" result="effect1_dropShadow_186_5905"/>
<feBlend mode="normal" in="SourceGraphic" in2="effect1_dropShadow_186_5905" result="shape"/>
</filter>
</defs>
</svg>
