<svg width="147" height="136" viewBox="0 0 147 136" fill="none" xmlns="http://www.w3.org/2000/svg">
<g filter="url(#filter0_d_186_5917)">
<path d="M51.8939 5.40337C52.299 6.84837 47.3648 9.46314 40.8793 11.2284C34.3938 12.9936 28.8167 13.268 28.4239 11.8163C28.0311 10.3646 32.9502 7.76516 39.4385 5.99126C45.9268 4.21737 51.4983 3.96031 51.8939 5.40337Z" fill="#FAFAFA"/>
<path d="M35.0966 16.7684C35.0966 16.7684 29.9129 14.4786 28.5043 11.3978L52.2356 5.62473L56.721 14.1594L38.442 22.5792L35.0966 16.7684Z" fill="#F5F5F5"/>
<path d="M28.7277 11.3709C28.7345 11.2191 28.7833 11.0687 28.8696 10.933C29.1317 10.5592 29.4653 10.2269 29.854 9.95234C31.3111 8.93637 32.9086 8.09926 34.5992 7.46568C37.1417 6.46074 39.7677 5.6613 42.444 5.07754C44.0965 4.70582 45.7694 4.43988 47.4494 4.28182C48.3436 4.2004 49.2389 4.19225 50.1241 4.25747C50.5993 4.28949 51.0623 4.38348 51.4984 4.53649L51.8307 4.69549C51.9351 4.77054 52.0336 4.85167 52.1257 4.93842C52.2023 5.0457 52.2668 5.15991 52.3183 5.27951C52.3183 5.27951 52.3183 5.27951 52.3751 5.29105C52.4176 5.33084 52.4496 5.3787 52.469 5.43152C52.4884 5.48434 52.4949 5.54094 52.4879 5.59764L52.47 5.46589L56.9335 13.9495L57.039 14.154L56.8116 14.2634L38.5338 22.6323L38.3432 22.7217L38.2523 22.566L34.9565 16.7446L35.0323 16.76C33.3424 16.0106 31.7906 15.0521 30.4199 13.9109C29.7973 13.3663 29.2762 12.7361 28.8741 12.0413C28.7525 11.8244 28.7446 11.7862 28.7541 11.7881L28.9109 12.0213C29.3928 12.6566 29.9468 13.2442 30.5648 13.7755C31.954 14.9264 33.5214 15.8971 35.2257 16.662L38.5978 22.4348L38.3135 22.3771L56.5634 13.9384L56.4604 14.2561L52.0092 5.76583L52.1078 5.64858C51.9785 5.70469 51.9785 5.70469 51.8434 5.46679C51.7966 5.39321 51.7848 5.33592 51.7352 5.27093L51.5344 5.1112L51.2818 4.9867C50.8897 4.85223 50.4751 4.76804 50.0497 4.73654C49.1944 4.66386 48.3278 4.66567 47.462 4.74194C45.8317 4.87939 44.2071 5.12148 42.6008 5.46629C39.9426 6.02252 37.3295 6.78432 34.7923 7.74281C33.0968 8.33489 31.483 9.12139 29.994 10.0814C29.6011 10.3333 29.2555 10.6408 28.9722 10.9904C28.8831 11.1136 28.8014 11.2406 28.7277 11.3709Z" fill="#263238"/>
<path d="M77.324 119.274L39.6449 47.4732C39.6449 47.4732 49.0206 43.2986 48.3042 38.1744L60.3975 32.6073L103.979 115.628L89.7389 122.186C84.8871 124.408 79.3314 123.107 77.324 119.274Z" fill="#7F5DE2"/>
<path d="M120.47 99.9741L82.619 27.7876C82.619 27.7876 73.5448 32.5499 69.6567 28.8897L57.5642 34.4565L101.118 117.485L115.356 110.928C120.186 108.711 122.477 103.807 120.47 99.9741Z" fill="#7F5DE2"/>
<path d="M59.7956 16.1394L38.9081 25.19C37.8335 25.6556 37.3569 26.7402 37.8434 27.6126L43.6028 37.9397C44.0893 38.8121 45.3548 39.1419 46.4294 38.6763L67.3169 29.6258C68.3914 29.1602 68.8681 28.0755 68.3816 27.2031L62.6222 16.876C62.1356 16.0036 60.8701 15.6738 59.7956 16.1394Z" fill="#E0E0E0"/>
<path d="M56.0924 14.1225L38.3055 21.7652C37.571 22.0808 37.2452 22.816 37.5778 23.4074L38.0898 24.3179C38.4224 24.9092 39.2875 25.1328 40.022 24.8172L57.8089 17.1745C58.5434 16.8589 58.8692 16.1236 58.5366 15.5323L58.0245 14.6218C57.692 14.0304 56.8269 13.8068 56.0924 14.1225Z" fill="#E0E0E0"/>
<path d="M60.2454 15.2054C60.3 15.317 55.4138 17.6678 49.3761 20.4607C43.3383 23.2536 38.3508 25.4195 38.2868 25.3061C38.2227 25.1926 43.1155 22.8522 49.1655 20.0527C55.2155 17.2531 60.1813 15.092 60.2454 15.2054Z" fill="#263238"/>
<path d="M56.1585 13.6096C53.2148 15.2199 50.1882 16.6968 47.0912 18.0343C44.0695 19.5132 40.9725 20.8539 37.8132 22.0509C37.7586 21.9393 41.8186 19.9596 46.8806 17.6262C49.9053 16.1531 53.0019 14.8125 56.1585 13.6096Z" fill="#263238"/>
<path d="M68.3809 29.2593C68.4355 29.3709 63.4733 31.7701 57.2876 34.6152C51.1019 37.4602 46.0355 39.6831 45.9809 39.5715C45.9263 39.46 50.8886 37.0607 57.0742 34.2157C63.2599 31.3706 68.3113 29.163 68.3809 29.2593Z" fill="#263238"/>
<path d="M116.55 111.062C116.605 111.173 111.362 113.661 104.806 116.715C98.2505 119.768 92.9126 122.082 92.8485 121.968C92.7844 121.855 98.0372 119.368 104.593 116.315C111.148 113.262 116.486 110.948 116.55 111.062Z" fill="#263238"/>
<path opacity="0.3" d="M78.9812 101.427C77.9736 101.89 76.827 101.988 75.7927 101.702C74.7584 101.415 73.9209 100.766 73.4638 99.8982L49.2941 53.8682C49.0677 53.438 48.9419 52.9665 48.9239 52.4809C48.906 51.9953 48.9961 51.5051 49.1892 51.0383C49.3824 50.5715 49.6747 50.1372 50.0494 49.7605C50.4242 49.3837 50.874 49.0718 51.3732 48.8426C52.3808 48.3802 53.5274 48.2814 54.5617 48.5681C55.5961 48.8547 56.4336 49.5032 56.8906 50.3715L81.0631 96.3929C81.2909 96.8237 81.4177 97.296 81.4362 97.7825C81.4548 98.2691 81.3647 98.7605 81.1712 99.2283C80.9777 99.6961 80.6847 100.131 80.3088 100.509C79.933 100.886 79.4818 101.198 78.9812 101.427Z" fill="white"/>
<path opacity="0.3" d="M87.9976 107.731C88.275 108.268 88.362 108.878 88.2476 109.482C88.1333 110.086 87.8227 110.658 87.3549 111.126C86.8871 111.595 86.283 111.938 85.6186 112.114C84.9541 112.289 84.2589 112.288 83.6204 112.112C82.9819 111.936 82.4285 111.592 82.0299 111.123C81.6312 110.654 81.4051 110.082 81.38 109.477C81.3548 108.873 81.5317 108.264 81.8884 107.727C82.2452 107.189 82.7658 106.748 83.3849 106.458C83.801 106.262 84.2513 106.14 84.7095 106.099C85.1676 106.057 85.6246 106.097 86.0538 106.215C86.483 106.334 86.8759 106.529 87.2096 106.789C87.5432 107.049 87.8111 107.369 87.9976 107.731Z" fill="white"/>
<path d="M31.1846 12.1362C31.1281 12.1247 31.1678 11.8782 31.5367 11.7621C31.6488 11.7296 31.7668 11.7243 31.878 11.7469C31.9892 11.7694 32.0894 11.819 32.1678 11.8902C32.2632 11.984 32.3214 12.1039 32.3344 12.2332C32.3473 12.3625 32.3143 12.4949 32.2399 12.6118C32.1656 12.7287 32.0536 12.8245 31.9196 12.8857C31.7855 12.9469 31.6361 12.9705 31.492 12.9533C31.3791 12.9398 31.2744 12.899 31.189 12.8352C31.1036 12.7714 31.0407 12.6871 31.0071 12.5912C30.9127 12.2629 31.1647 12.1049 31.1564 12.1305C31.1481 12.1561 31.1886 12.3098 31.3089 12.4342C31.3338 12.4646 31.3663 12.4893 31.4042 12.5064C31.4421 12.5236 31.4843 12.5327 31.5278 12.5332C31.5768 12.5283 31.6248 12.5141 31.6685 12.4915C31.7121 12.469 31.7505 12.4388 31.7809 12.4027C31.8008 12.3623 31.8103 12.3189 31.8086 12.276C31.8068 12.233 31.7939 12.1917 31.7708 12.1552C31.7466 12.1239 31.7148 12.098 31.6775 12.0795C31.6402 12.0609 31.5983 12.05 31.5546 12.0476C31.3873 12.0682 31.245 12.1666 31.1846 12.1362Z" fill="#263238"/>
<path d="M52.1612 6.20254C51.0923 6.60052 49.9924 6.91577 48.8742 7.14464C46.836 7.65566 44.0022 8.32878 40.8527 9.00236C37.7031 9.67593 34.8485 10.2243 32.7759 10.5893C31.6614 10.8313 30.5328 10.9947 29.4009 11.0779C30.4867 10.735 31.5948 10.4653 32.7156 10.2711L40.7647 8.54882L48.8139 6.8265C49.9172 6.55033 51.0357 6.34184 52.1612 6.20254Z" fill="#263238"/>
</g>
<defs>
<filter id="filter0_d_186_5917" x="24.4019" y="4.21399" width="100.795" height="131.056" filterUnits="userSpaceOnUse" color-interpolation-filters="sRGB">
<feFlood flood-opacity="0" result="BackgroundImageFix"/>
<feColorMatrix in="SourceAlpha" type="matrix" values="0 0 0 0 0 0 0 0 0 0 0 0 0 0 0 0 0 0 127 0" result="hardAlpha"/>
<feOffset dy="8"/>
<feGaussianBlur stdDeviation="2"/>
<feComposite in2="hardAlpha" operator="out"/>
<feColorMatrix type="matrix" values="0 0 0 0 0 0 0 0 0 0 0 0 0 0 0 0 0 0 0.25 0"/>
<feBlend mode="normal" in2="BackgroundImageFix" result="effect1_dropShadow_186_5917"/>
<feBlend mode="normal" in="SourceGraphic" in2="effect1_dropShadow_186_5917" result="shape"/>
</filter>
</defs>
</svg>
