<svg width="179" height="59" viewBox="0 0 179 59" fill="none" xmlns="http://www.w3.org/2000/svg">
<path d="M54.6534 36.283C53.7567 38.6047 52.6892 40.8517 51.4403 42.9866C45.2971 34.6658 39.5808 26.0727 35.0441 13.3379C39.741 8.72114 46.0283 3.54396 52.2569 0.912674C53.0895 0.560412 53.9168 0.25619 54.7441 0C59.2328 10.9361 59.1794 24.5623 54.6534 36.283Z" fill="#151515"/>
<path d="M54.6535 36.283C54.2799 36.0588 54.0184 35.6745 53.7782 35.3009C52.7268 33.6837 51.6753 32.0612 50.6239 30.444C55.3527 21.4453 55.9292 10.381 52.2571 0.912674C53.0897 0.560412 53.917 0.25619 54.7443 0C59.2329 10.9361 59.1796 24.5623 54.6535 36.283Z" fill="#89759C"/>
<path d="M44.6619 22.0269C47.9337 20.1749 49.0118 18.9633 50.5703 15.6969C52.0968 12.4892 51.7605 8.0165 54.3918 3.37305C57.3594 11.79 57.1459 21.1356 53.4578 29.6539C50.9119 27.4923 48.366 25.3307 44.6619 22.0269Z" fill="#F69C93"/>
<path d="M25.3418 15.4888C25.1229 16.108 24.8988 16.7217 24.6693 17.3195C20.25 29.0669 14.7899 37.2277 8.94558 45.1375C1.50538 32.3974 0.293813 15.713 5.4283 2.68998C5.49768 2.50851 5.56707 2.33238 5.64179 2.15625C12.6497 4.30718 20.0151 10.2583 25.3418 15.4888Z" fill="#151515"/>
<path d="M18.6913 22.5823C13.4394 18.6754 11.3365 7.39232 5.99382 4.729C3.02629 13.1459 3.23978 23.2921 6.92785 31.8105C9.47374 29.6489 14.9872 25.8861 18.6913 22.5823Z" fill="#F69C93"/>
<path d="M25.3417 15.4888C25.1229 16.108 24.8987 16.7217 24.6692 17.3195C23.479 17.9867 22.0539 18.3763 20.7196 18.6965C18.1363 11.5499 12.4361 5.60415 5.42822 2.68998C5.49761 2.50851 5.56699 2.33238 5.64172 2.15625C12.6496 4.30718 20.0151 10.2583 25.3417 15.4888Z" fill="#89759C"/>
<path d="M61 49.0817C58.9612 50.3573 56.9543 51.4835 54.9795 52.4762C23.1105 68.5202 0 49.5781 0 49.5781C0.955377 37.5371 5.45472 21.4772 18.0294 15.0617C21.52 13.2791 25.6351 12.2437 30.4653 12.2437C57.5841 12.2437 61 49.0817 61 49.0817Z" fill="#151515"/>
<path d="M33.8441 46.9841C33.8441 46.0447 35.6054 45.2815 37.783 45.2815C39.9553 45.2815 41.7219 46.0447 41.7219 46.9841C41.7219 47.9235 38.5836 49.7008 38.5836 49.7008C38.5836 49.7008 33.8441 47.9288 33.8441 46.9841Z" fill="#F69C93"/>
<path d="M8.61423 38.562C8.61423 38.562 14.306 35.5037 20.5933 37.0942C26.8807 38.6847 31.3832 44.3156 31.3832 44.3156C31.3832 44.3156 24.2579 51.0513 17.9705 49.4607C11.6832 47.8702 8.61423 38.562 8.61423 38.562Z" fill="#F9D669"/>
<path d="M18.1918 38.6952C18.1918 33.8323 19.793 29.8887 19.793 29.8887C19.793 29.8887 21.3942 33.8323 21.3942 38.6952C21.3942 43.5582 19.793 47.5018 19.793 47.5018C19.793 47.5018 18.1918 43.5582 18.1918 38.6952Z" fill="#151515"/>
<path d="M40.7609 44.7638C40.7609 44.7638 42.1135 40.8836 46.2125 37.8947C50.3116 34.9058 55.6093 33.9451 55.6093 33.9451C55.6093 33.9451 56.8956 42.7836 52.7965 45.7725C48.6922 48.7614 40.7609 44.7638 40.7609 44.7638Z" fill="#F9D669"/>
<path d="M45.3622 39.8108C45.3622 36.7899 46.5631 34.3401 46.5631 34.3401C46.5631 34.3401 47.764 36.7899 47.764 39.8108C47.764 42.8317 46.5631 45.2816 46.5631 45.2816C46.5631 45.2816 45.3622 42.8317 45.3622 39.8108Z" fill="#151515"/>
<path d="M59.2386 48.0623C58.6569 36.2508 52.9246 23.9003 43.1627 17.8798C35.9413 13.4232 27.962 12.329 18.0293 15.0617C21.5199 13.2791 25.635 12.2437 30.4652 12.2437C57.5841 12.2437 60.9999 49.0817 60.9999 49.0817C58.9611 50.3573 56.9543 51.4835 54.9795 52.4762C56.5433 51.1312 58.0004 49.6795 59.2386 48.0623Z" fill="#89759C"/>
<path d="M100.68 45.832L82.792 28.488L83.88 28.936L83.976 45H80.2V20.904H80.36L97.992 38.248L97.128 37.992L97.064 21.704H100.776V45.832H100.68ZM107.2 21.704H122.656V25.288H110.944V31.496H121.376V35.112H110.944V41.416H123.104V45H107.2V21.704ZM126.823 33.384C126.823 31.7627 127.132 30.2373 127.751 28.808C128.369 27.3787 129.223 26.1093 130.311 25C131.399 23.8907 132.657 23.0267 134.087 22.408C135.537 21.768 137.084 21.448 138.727 21.448C140.348 21.448 141.873 21.768 143.303 22.408C144.753 23.0267 146.023 23.8907 147.111 25C148.22 26.1093 149.084 27.3787 149.703 28.808C150.343 30.2373 150.663 31.7627 150.663 33.384C150.663 35.0267 150.343 36.5627 149.703 37.992C149.084 39.4213 148.22 40.6907 147.111 41.8C146.023 42.888 144.753 43.7413 143.303 44.36C141.873 44.9573 140.348 45.256 138.727 45.256C137.063 45.256 135.516 44.9573 134.087 44.36C132.657 43.7413 131.399 42.8987 130.311 41.832C129.223 40.744 128.369 39.4853 127.751 38.056C127.132 36.6053 126.823 35.048 126.823 33.384ZM130.663 33.384C130.663 34.536 130.865 35.6133 131.271 36.616C131.697 37.6187 132.284 38.504 133.031 39.272C133.777 40.0187 134.641 40.6053 135.623 41.032C136.604 41.4587 137.671 41.672 138.823 41.672C139.932 41.672 140.967 41.4587 141.927 41.032C142.908 40.6053 143.761 40.0187 144.487 39.272C145.212 38.504 145.777 37.6187 146.183 36.616C146.609 35.6133 146.823 34.536 146.823 33.384C146.823 32.2107 146.609 31.1227 146.183 30.12C145.756 29.1173 145.18 28.232 144.455 27.464C143.729 26.696 142.876 26.0987 141.895 25.672C140.913 25.2453 139.857 25.032 138.727 25.032C137.596 25.032 136.54 25.2453 135.559 25.672C134.577 26.0987 133.713 26.696 132.967 27.464C132.241 28.232 131.676 29.128 131.271 30.152C130.865 31.1547 130.663 32.232 130.663 33.384ZM167.862 26.44C167.03 26.0133 166.144 25.6507 165.206 25.352C164.267 25.032 163.371 24.872 162.518 24.872C161.366 24.872 160.448 25.128 159.766 25.64C159.104 26.152 158.774 26.856 158.774 27.752C158.774 28.392 159.008 28.9573 159.478 29.448C159.947 29.9173 160.544 30.3333 161.27 30.696C161.995 31.0373 162.763 31.368 163.574 31.688C164.278 31.944 164.971 32.2533 165.654 32.616C166.358 32.9573 166.987 33.384 167.542 33.896C168.096 34.408 168.534 35.048 168.854 35.816C169.195 36.5627 169.366 37.4907 169.366 38.6C169.366 39.816 169.056 40.936 168.438 41.96C167.819 42.9627 166.934 43.7627 165.782 44.36C164.63 44.9573 163.222 45.256 161.558 45.256C160.598 45.256 159.648 45.1493 158.71 44.936C157.792 44.7227 156.918 44.4347 156.086 44.072C155.254 43.688 154.486 43.2613 153.782 42.792L155.446 39.88C155.958 40.264 156.544 40.616 157.206 40.936C157.867 41.256 158.55 41.512 159.254 41.704C159.958 41.8747 160.619 41.96 161.238 41.96C161.899 41.96 162.55 41.8533 163.19 41.64C163.851 41.4267 164.395 41.0747 164.822 40.584C165.27 40.0933 165.494 39.4427 165.494 38.632C165.494 37.9707 165.302 37.4053 164.918 36.936C164.534 36.4667 164.032 36.0613 163.414 35.72C162.816 35.3573 162.155 35.0373 161.43 34.76C160.704 34.4827 159.958 34.1733 159.19 33.832C158.443 33.4907 157.75 33.0747 157.11 32.584C156.47 32.072 155.947 31.4533 155.542 30.728C155.136 30.0027 154.934 29.1067 154.934 28.04C154.934 26.76 155.232 25.6507 155.83 24.712C156.427 23.7733 157.248 23.0267 158.294 22.472C159.36 21.9173 160.587 21.6187 161.974 21.576C163.616 21.576 165.014 21.7787 166.166 22.184C167.339 22.568 168.374 23.0373 169.27 23.592L167.862 26.44Z" fill="#151515"/>
</svg>
