<svg width="568" height="452" viewBox="0 0 568 452" fill="none" xmlns="http://www.w3.org/2000/svg">
<g filter="url(#filter0_d_2608_6256)">
<path d="M184.298 208.11C108.138 252.257 108.138 323.881 184.298 367.987C260.458 412.093 383.942 412.134 460.07 367.987C536.198 323.84 536.23 252.257 460.07 208.11C383.91 163.963 260.441 163.963 184.298 208.11Z" fill="#62EE6F"/>
</g>
<g clip-path="url(#clip0_2608_6256)">
<path d="M395.97 385.751C420.912 346.445 463.445 278.369 455.995 251.968C450.552 232.89 382.05 187.41 360.511 176.094C339.693 165.187 332.584 223.146 344.466 230.417C365.805 243.545 391.056 268.833 393.222 270.542C394.874 271.788 383.013 312.709 372.098 367.989C383.331 377.953 369.769 387.83 395.97 385.751Z" fill="#AD6359"/>
<path d="M409.342 198.66L386.083 269.07C386.083 269.07 347.854 231.728 323.714 201.764C299.574 171.799 295.687 147.538 332.368 162.672C369.048 177.808 409.342 198.66 409.342 198.66Z" fill="#295F2B"/>
<path d="M304.538 156.041L306.405 155.235L303.991 155.646L304.538 156.041Z" fill="#C7C7C7"/>
<path opacity="0.1" d="M323.715 201.764C347.838 231.744 386.052 269.07 386.052 269.07L401.478 222.389L309.032 159.114C300.243 163.57 307.287 181.336 323.715 201.764Z" fill="black"/>
<path d="M394.403 196.151C392.323 201.064 390.79 206.251 389.149 211.362C387.51 216.472 385.961 221.249 384.443 226.298C381.331 236.428 378.158 246.529 375.835 256.871C375.829 256.924 375.841 256.976 375.871 257.02C375.899 257.065 375.941 257.098 375.992 257.114C376.042 257.13 376.095 257.129 376.145 257.109C376.194 257.09 376.235 257.054 376.261 257.008C380.117 247.136 383.122 236.991 386.204 226.846C387.732 221.836 389.251 216.823 390.759 211.803C392.277 206.677 393.796 201.521 394.904 196.272C394.92 196.206 394.909 196.137 394.873 196.077C394.837 196.019 394.781 195.977 394.714 195.961C394.647 195.945 394.578 195.956 394.519 195.992C394.461 196.027 394.419 196.085 394.403 196.151Z" fill="#263238"/>
<path d="M405.014 392.366L212.974 391.681C212.533 391.226 250.277 209.749 277.589 173.427C291.253 155.175 328.147 156.528 341.963 180.043C361.047 212.503 405.014 392.366 405.014 392.366Z" fill="#295F2B"/>
<path d="M253.434 191.131C205.671 256.811 153.382 348.773 170.219 371.209C188.97 396.184 250.428 334.612 252.204 330.141C254.163 325.212 275.965 263.822 284.906 206.707C294.685 144.131 265.246 174.902 253.434 191.131Z" fill="#AD6359"/>
<path d="M273.158 272.462L200.829 264.355C200.829 264.355 228.901 219.94 252.768 190.599C276.635 161.259 299.119 152.573 292.059 190.98C285 229.386 273.158 272.462 273.158 272.462Z" fill="#295F2B"/>
<path d="M273.338 258.97C268.222 257.799 262.953 257.22 257.761 256.506C252.569 255.791 247.574 255.167 242.487 254.544C232.163 253.282 221.855 251.942 211.471 251.502C211.421 251.515 211.378 251.544 211.348 251.583C211.318 251.623 211.3 251.672 211.3 251.723C211.3 251.773 211.318 251.821 211.348 251.861C211.378 251.902 211.421 251.93 211.471 251.942C221.672 253.966 231.996 255.122 242.32 256.37C247.381 256.977 252.488 257.55 257.64 258.088C262.847 258.651 268.101 259.335 273.338 259.412C273.396 259.412 273.453 259.388 273.493 259.346C273.535 259.306 273.558 259.249 273.558 259.191C273.558 259.133 273.535 259.076 273.493 259.035C273.453 258.993 273.396 258.97 273.338 258.97Z" fill="#263238"/>
<path d="M286.653 216.472C286.653 216.351 286.926 216.397 286.911 216.472C286.015 222.115 284.785 227.713 283.464 233.28C284.633 230.831 285.802 228.367 287.063 225.933C287.063 225.797 287.472 225.933 287.412 226.04C286.761 227.879 286 229.676 285.135 231.424C284.421 232.854 283.616 234.269 282.903 235.684C282.189 238.619 274.295 270.82 273.642 272.493C273.55 272.721 273.095 272.645 273.155 272.416C273.808 269.922 280.291 235.15 286.653 216.472Z" fill="#263238"/>
<path d="M365.085 242.147C365.085 242.147 344.968 175.343 342.539 170.537C340.495 166.982 337.849 163.812 334.72 161.167L357.904 242.436L365.085 242.147Z" fill="#295F2B"/>
<path d="M313.799 244.262L303.171 245.114C303.171 245.114 291.967 197.824 289.856 187.42C287.746 177.016 279.35 164.012 279.35 164.012C281.262 161.779 283.948 160.354 286.866 160.027C286.866 160.027 299.299 179.648 302.184 192.501C304.644 203.771 313.799 244.262 313.799 244.262Z" fill="#295F2B"/>
<path d="M331.395 190.66C321.087 196.638 300.227 182.842 291.8 169.365C291.224 168.438 290.403 130.487 289.964 122.837C289.857 121.316 338.547 131.69 338.547 131.69C338.547 131.69 334.766 147.995 335.631 161.334C335.715 162.361 335.888 163.38 336.147 164.376C336.147 164.528 336.224 164.696 336.253 164.893C337.559 170.886 336.679 187.603 331.395 190.66Z" fill="#AD6359"/>
<path d="M336.254 164.97C334.634 165.287 332.988 165.47 331.336 165.517C306.179 166.445 295.354 136.161 291.862 122.761C300.713 123.567 338.623 131.674 338.623 131.674C338.623 131.674 334.827 147.995 335.709 161.35C335.772 162.379 335.94 163.397 336.21 164.392C336.164 164.59 336.24 164.772 336.254 164.97Z" fill="#263238"/>
<path d="M278.53 68.4289C274.826 85.86 287.989 134.153 300.985 144.056C319.826 158.398 348.566 157.456 360.196 135.248C371.492 113.71 353.212 51.089 338.941 42.2973C317.822 29.3684 284.027 42.6775 278.53 68.4289Z" fill="#AD6359"/>
<path d="M323.258 95.0015C323.258 94.8951 323.029 95.2297 323.075 95.3666C323.986 98.6063 324.502 102.485 321.815 104.295C321.725 104.295 321.815 104.523 321.891 104.478C325.368 103.048 324.639 97.9219 323.258 95.0015Z" fill="#263238"/>
<path d="M319.478 92.3094C314.133 93.2221 316.35 103.869 321.315 103.033C326.279 102.196 323.972 91.5336 319.478 92.3094Z" fill="#263238"/>
<path d="M342.781 91.3359C342.781 91.199 343.085 91.4424 343.101 91.5793C343.692 94.8952 344.907 98.6065 348.126 99.0781C348.217 99.0781 348.247 99.2606 348.126 99.2757C344.391 99.5648 342.812 94.5757 342.781 91.3359Z" fill="#263238"/>
<path d="M344.967 87.2745C350.175 85.7535 352.816 96.4008 348.004 97.7241C343.191 99.0475 340.641 88.5371 344.967 87.2745Z" fill="#263238"/>
<path d="M311.43 82.7714C312.839 82.2925 314.27 81.8915 315.722 81.5702C317.176 80.9318 318.8 80.7929 320.343 81.1752C320.804 81.3922 321.18 81.7541 321.416 82.2056C321.651 82.657 321.732 83.173 321.647 83.6744C321.32 84.6367 320.743 85.4941 319.976 86.1583C319.207 86.8224 318.276 87.2694 317.277 87.4528C315.309 88.1364 313.157 88.0648 311.236 87.2516C310.809 87.0416 310.453 86.7116 310.211 86.3019C309.968 85.8924 309.849 85.4211 309.87 84.9457C309.891 84.4704 310.049 84.0115 310.327 83.6253C310.603 83.2391 310.987 82.9424 311.43 82.7714Z" fill="#263238"/>
<path d="M347.777 75.301C346.287 75.2833 344.796 75.3494 343.314 75.4988C341.719 75.3369 340.117 75.7115 338.759 76.5635C338.391 76.9111 338.147 77.3703 338.064 77.8705C337.981 78.3707 338.067 78.8841 338.304 79.3318C338.913 80.1458 339.728 80.7819 340.665 81.175C341.602 81.568 342.626 81.7036 343.632 81.5678C345.712 81.6131 347.733 80.8749 349.295 79.4991C349.633 79.1705 349.869 78.7512 349.974 78.2917C350.079 77.8322 350.051 77.3519 349.89 76.9086C349.73 76.4654 349.445 76.0778 349.071 75.7926C348.695 75.5074 348.246 75.3368 347.777 75.301Z" fill="#263238"/>
<path d="M332.121 111.277C333.225 112.41 333.124 110.068 334.59 110.659C336.056 111.251 337.947 110.092 339.527 110.042C340.913 110.028 338.822 110.461 340.144 110.042C340.397 109.979 345.457 111.993 345.699 111.894V113.129C345.867 113.06 346.839 113.285 346.933 113.129C347.026 112.972 345.719 113.31 345.699 113.129C345.675 113.015 345.368 108.544 344.465 112.511L343.23 111.277C342.775 108.721 342.66 109.816 342.66 109.816C343.692 110.09 348.854 111.231 348.505 109.923C345.559 99.0627 342.295 86.9855 337.072 76.8097C337.035 76.7436 336.977 76.6928 336.906 76.6662C336.835 76.6396 336.757 76.6391 336.686 76.6646C336.615 76.6902 336.555 76.7402 336.518 76.8057C336.48 76.8714 336.467 76.9482 336.481 77.0227C338.91 87.5636 343.161 97.6177 345.757 108.174C343.913 107.741 342.016 107.572 340.125 107.672C339.79 107.839 339.57 109.069 339.693 110.225C339.703 110.27 340.771 109.771 340.762 109.816C336.441 110.659 340.144 110.659 335.207 109.923C334.827 109.74 331.863 111.064 332.121 111.277Z" fill="#263238"/>
<path d="M331.466 121.767C332.735 119.777 334.497 118.149 336.581 117.043C337.732 116.472 339.035 116.281 340.301 116.498C343.067 116.979 343.355 119.466 343.027 121.634C342.845 122.789 342.532 123.92 342.091 125.003C338.985 122.814 335.261 121.68 331.466 121.767Z" fill="#263238"/>
<path d="M318.491 119.338C319.511 117.323 320.93 115.538 322.664 114.094C324.399 112.65 326.409 111.577 328.573 110.942C333.325 109.161 338.5 108.838 343.436 110.014C349.964 111.657 351.892 115.703 352.865 123.141C353.836 130.579 353.229 142.184 350.952 145.074C348.674 147.964 338.806 153.942 331.063 153.972C323.32 154.003 316.214 150.824 313.922 148.983C310.324 146.078 316.397 123.628 318.491 119.338ZM324.732 131.735C327.617 133.185 330.83 133.855 334.054 133.682C338.319 133.682 343.997 132.054 345.289 130.549C346.578 129.043 346.928 121.848 346.457 118.03C345.987 114.212 344.939 112.098 341.356 111.307C338.614 110.741 335.771 110.952 333.143 111.916C331.957 112.246 330.848 112.807 329.879 113.566C328.91 114.325 328.099 115.269 327.494 116.342C326.311 118.547 322.758 130.244 324.732 131.705V131.735Z" fill="#263238"/>
<path opacity="0.2" d="M282.175 106.881C285.485 104.371 290.069 91.3815 292.211 86.0275C294.412 80.43 289.888 57.1275 288.355 50.1155C287.717 50.7391 287.124 51.4084 286.563 52.0776C286.001 52.7469 285.439 53.4618 284.907 54.1767C283.798 55.6102 282.811 57.137 281.962 58.7399C280.455 61.5953 279.318 64.6313 278.576 67.7748C276.648 76.2926 278.364 91.7009 282.175 106.881Z" fill="#263238"/>
<path d="M337.377 59.2571C335.931 62.056 333.796 64.4387 331.173 66.1797C328.551 67.9205 325.528 68.9617 322.392 69.2047C316.167 69.6305 309.244 66.8623 305.691 61.5995C305.585 61.4474 305.342 61.5995 305.448 61.7668C309.198 67.4555 315.439 71.4102 322.452 70.7561C325.762 70.3913 328.917 69.1624 331.601 67.1924C334.287 65.2225 336.41 62.5805 337.757 59.5308C337.878 59.1962 337.498 58.9984 337.377 59.2571Z" fill="#263238"/>
<path d="M308.41 19.1774C298.056 21.8392 289.842 29.8247 287.687 37.8405C286.495 42.3975 286.885 47.225 288.795 51.53C288.87 51.7126 289.234 51.53 289.174 51.4083C288.016 47.4825 287.933 43.3168 288.936 39.348C289.937 35.3792 291.986 31.7535 294.868 28.8512C297.987 25.5648 301.825 23.0481 306.079 21.4989C310.334 19.9496 314.889 19.4101 319.387 19.9227C323.755 20.3369 327.834 22.2939 330.896 25.444C331.183 25.7787 331.913 25.3528 331.655 25.003C327.388 19.147 317.793 16.7589 308.41 19.1774Z" fill="#263238"/>
<path d="M374.163 27.6497C371.26 22.8929 366.77 19.3201 361.487 17.5651C354.184 15.101 347.094 17.3674 340.094 19.7706C340.065 19.7915 340.043 19.8216 340.032 19.8564C340.02 19.8912 340.02 19.9286 340.033 19.9631C340.045 19.9976 340.067 20.0271 340.098 20.0474C340.129 20.0675 340.165 20.0771 340.201 20.0748C346.153 18.0366 352.346 16.333 358.602 17.8998C363.794 19.1687 368.389 22.1934 371.613 26.4632C374.772 30.8902 376.235 36.3086 375.733 41.7274C375.231 47.146 372.798 52.2025 368.88 55.9715C366.564 58.0801 363.842 59.6925 360.882 60.7099C357.921 61.7274 354.784 62.1284 351.664 61.8884C351.421 61.8884 351.329 62.2383 351.664 62.2686C355.92 62.7604 360.229 62.0552 364.108 60.2322C367.988 58.4091 371.284 55.54 373.626 51.9464C375.97 48.3528 377.269 44.1765 377.378 39.8852C377.485 35.594 376.399 31.3573 374.24 27.6497H374.163Z" fill="#263238"/>
<path d="M277.483 80.0952C277.483 80.0952 263.318 63.6831 269.117 50.9672C272.411 43.7727 288.156 41.0044 288.156 41.0044C288.156 41.0044 291.116 30.9046 303.339 24.9878C315.56 19.0709 332.822 23.1017 332.822 23.1017C332.822 23.1017 343.572 13.1692 356.658 17.1544C374.877 22.7063 378.536 47.8187 364.083 59.4547C353.925 67.6379 336.116 61.067 336.116 61.067C334.675 61.6145 321.512 74.3305 306.86 63.3182C306.86 63.3182 299.391 73.8134 289.644 69.8891C289.719 69.8891 287.381 79.3347 277.483 80.0952Z" fill="#263238"/>
<path d="M295.898 105.269C295.898 105.269 283.464 90.4384 276.647 95.0015C269.83 99.5647 280.124 121.848 288.793 124.266C289.889 124.654 291.053 124.814 292.212 124.739C293.372 124.664 294.505 124.354 295.542 123.828C296.579 123.301 297.498 122.57 298.246 121.679C298.993 120.787 299.554 119.753 299.891 118.638L295.898 105.269Z" fill="#AD6359"/>
<path d="M279.683 101.268C279.548 101.268 279.532 101.451 279.683 101.496C285.756 103.382 289.4 108.6 292.072 114.106C290.13 112.068 287.624 111.064 284.876 113.421C284.847 113.45 284.828 113.488 284.823 113.528C284.818 113.569 284.827 113.61 284.848 113.645C284.869 113.68 284.901 113.707 284.939 113.722C284.977 113.737 285.019 113.738 285.058 113.726C286.07 113.303 287.188 113.207 288.257 113.449C289.326 113.692 290.294 114.262 291.024 115.079C292.251 116.44 293.322 117.935 294.213 119.536C294.547 120.038 295.473 119.673 295.215 119.08C295.217 119.039 295.217 118.998 295.215 118.958C294.668 111.383 287.898 101.314 279.683 101.268Z" fill="#263238"/>
<path d="M336.725 161.669L324.897 188.393L291.193 155.844L281.264 166.491C281.264 166.491 313.526 219.165 313.814 216.686L325.808 193.717L341.324 210.601L341.461 169.731L336.725 161.669Z" fill="#295F2B"/>
<path d="M342.539 190.448C342.327 183.694 342.311 176.894 341.81 170.157C341.81 169.928 341.416 169.806 341.355 170.157C339.836 176.621 340.687 202.417 340.429 208.578C339.776 207.848 326.02 193.733 325.869 193.945C323.318 197.565 314.528 214.297 313.905 215.818C309.016 206.98 286.85 175.069 280.991 166.658C280.96 166.603 280.909 166.563 280.85 166.547C280.79 166.529 280.725 166.537 280.671 166.566C280.617 166.597 280.577 166.648 280.56 166.707C280.543 166.768 280.55 166.832 280.58 166.886C284.847 176.195 313.07 219.24 313.481 219.134C318.07 211.24 322.256 203.117 326.02 194.797C328.329 197.839 342.159 213.704 342.251 212.715C342.73 205.302 342.826 197.87 342.539 190.448Z" fill="#263238"/>
<path d="M318.211 100.295C318.298 100.269 318.38 100.275 318.449 100.312C318.517 100.349 318.568 100.415 318.595 100.502C318.781 101.188 318.896 101.922 318.935 102.689C319.027 104.395 318.709 105.98 318.014 107.27C317.492 108.241 316.719 109.028 315.868 109.456C315.017 109.884 314.156 109.918 313.476 109.552C312.795 109.185 312.351 108.448 312.239 107.501C312.127 106.555 312.359 105.478 312.881 104.506C314.54 101.425 318.062 100.34 318.211 100.295Z" fill="#4190D9"/>
</g>
<g filter="url(#filter1_d_2608_6256)">
<path d="M91.5332 316.839L139.086 351.388L120.922 407.29H62.1439L43.9804 351.388L91.5332 316.839Z" fill="#295F2B"/>
</g>
<g filter="url(#filter2_d_2608_6256)">
<path d="M17.8554 291.161H53.2107V326.517H17.8554V291.161Z" fill="#303030"/>
</g>
<g filter="url(#filter3_d_2608_6256)">
<circle cx="50" cy="50" r="50" transform="matrix(-1 0 0 1 535.533 20.4836)" fill="#62EE6F"/>
</g>
<g filter="url(#filter4_d_2608_6256)">
<circle cx="25" cy="25" r="25" transform="matrix(-1 0 0 1 460.533 80.4836)" fill="#BEBEBE"/>
</g>
<defs>
<filter id="filter0_d_2608_6256" x="77.1777" y="125" width="490" height="326.082" filterUnits="userSpaceOnUse" color-interpolation-filters="sRGB">
<feFlood flood-opacity="0" result="BackgroundImageFix"/>
<feColorMatrix in="SourceAlpha" type="matrix" values="0 0 0 0 0 0 0 0 0 0 0 0 0 0 0 0 0 0 127 0" result="hardAlpha"/>
<feOffset/>
<feGaussianBlur stdDeviation="25"/>
<feComposite in2="hardAlpha" operator="out"/>
<feColorMatrix type="matrix" values="0 0 0 0 0.588235 0 0 0 0 1 0 0 0 0 0.627451 0 0 0 1 0"/>
<feBlend mode="normal" in2="BackgroundImageFix" result="effect1_dropShadow_2608_6256"/>
<feBlend mode="normal" in="SourceGraphic" in2="effect1_dropShadow_2608_6256" result="shape"/>
</filter>
<filter id="filter1_d_2608_6256" x="39.9805" y="316.839" width="103.105" height="98.4509" filterUnits="userSpaceOnUse" color-interpolation-filters="sRGB">
<feFlood flood-opacity="0" result="BackgroundImageFix"/>
<feColorMatrix in="SourceAlpha" type="matrix" values="0 0 0 0 0 0 0 0 0 0 0 0 0 0 0 0 0 0 127 0" result="hardAlpha"/>
<feOffset dy="4"/>
<feGaussianBlur stdDeviation="2"/>
<feComposite in2="hardAlpha" operator="out"/>
<feColorMatrix type="matrix" values="0 0 0 0 0 0 0 0 0 0 0 0 0 0 0 0 0 0 0.25 0"/>
<feBlend mode="normal" in2="BackgroundImageFix" result="effect1_dropShadow_2608_6256"/>
<feBlend mode="normal" in="SourceGraphic" in2="effect1_dropShadow_2608_6256" result="shape"/>
</filter>
<filter id="filter2_d_2608_6256" x="13.8555" y="291.161" width="43.3555" height="43.3553" filterUnits="userSpaceOnUse" color-interpolation-filters="sRGB">
<feFlood flood-opacity="0" result="BackgroundImageFix"/>
<feColorMatrix in="SourceAlpha" type="matrix" values="0 0 0 0 0 0 0 0 0 0 0 0 0 0 0 0 0 0 127 0" result="hardAlpha"/>
<feOffset dy="4"/>
<feGaussianBlur stdDeviation="2"/>
<feComposite in2="hardAlpha" operator="out"/>
<feColorMatrix type="matrix" values="0 0 0 0 0 0 0 0 0 0 0 0 0 0 0 0 0 0 0.25 0"/>
<feBlend mode="normal" in2="BackgroundImageFix" result="effect1_dropShadow_2608_6256"/>
<feBlend mode="normal" in="SourceGraphic" in2="effect1_dropShadow_2608_6256" result="shape"/>
</filter>
<filter id="filter3_d_2608_6256" x="431.533" y="20.4836" width="108" height="108" filterUnits="userSpaceOnUse" color-interpolation-filters="sRGB">
<feFlood flood-opacity="0" result="BackgroundImageFix"/>
<feColorMatrix in="SourceAlpha" type="matrix" values="0 0 0 0 0 0 0 0 0 0 0 0 0 0 0 0 0 0 127 0" result="hardAlpha"/>
<feOffset dy="4"/>
<feGaussianBlur stdDeviation="2"/>
<feComposite in2="hardAlpha" operator="out"/>
<feColorMatrix type="matrix" values="0 0 0 0 0 0 0 0 0 0 0 0 0 0 0 0 0 0 0.25 0"/>
<feBlend mode="normal" in2="BackgroundImageFix" result="effect1_dropShadow_2608_6256"/>
<feBlend mode="normal" in="SourceGraphic" in2="effect1_dropShadow_2608_6256" result="shape"/>
</filter>
<filter id="filter4_d_2608_6256" x="406.533" y="80.4836" width="58" height="58" filterUnits="userSpaceOnUse" color-interpolation-filters="sRGB">
<feFlood flood-opacity="0" result="BackgroundImageFix"/>
<feColorMatrix in="SourceAlpha" type="matrix" values="0 0 0 0 0 0 0 0 0 0 0 0 0 0 0 0 0 0 127 0" result="hardAlpha"/>
<feOffset dy="4"/>
<feGaussianBlur stdDeviation="2"/>
<feComposite in2="hardAlpha" operator="out"/>
<feColorMatrix type="matrix" values="0 0 0 0 0 0 0 0 0 0 0 0 0 0 0 0 0 0 0.25 0"/>
<feBlend mode="normal" in2="BackgroundImageFix" result="effect1_dropShadow_2608_6256"/>
<feBlend mode="normal" in="SourceGraphic" in2="effect1_dropShadow_2608_6256" result="shape"/>
</filter>
<clipPath id="clip0_2608_6256">
<rect width="453" height="321" fill="white" transform="matrix(-1 0 0 1 543.178 0.161194)"/>
</clipPath>
</defs>
</svg>
