<svg width="558" height="462" viewBox="0 0 558 462" fill="none" xmlns="http://www.w3.org/2000/svg">
<g filter="url(#filter0_d_1853_3059)">
<path d="M382.88 219.098C459.04 263.229 459.04 334.827 382.88 378.917C306.72 423.007 183.236 423.048 107.108 378.917C30.9802 334.786 30.9479 263.229 107.108 219.098C183.268 174.967 306.736 174.967 382.88 219.098Z" fill="#969AFF"/>
</g>
<g clip-path="url(#clip0_1853_3059)">
<path d="M169.208 385.59C144.266 346.284 101.733 278.208 109.182 251.807C114.626 232.729 183.128 187.249 204.667 175.933C225.485 165.026 232.593 222.985 220.712 230.256C199.373 243.383 174.122 268.672 171.956 270.381C170.304 271.627 182.165 312.548 193.08 367.828C181.846 377.792 195.409 387.669 169.208 385.59Z" fill="#AD6359"/>
<path d="M155.836 198.499L179.094 268.909C179.094 268.909 217.324 231.567 241.464 201.603C265.604 171.637 269.491 147.377 232.81 162.511C196.129 177.646 155.836 198.499 155.836 198.499Z" fill="#423881"/>
<path d="M260.64 155.88L258.772 155.074L261.187 155.485L260.64 155.88Z" fill="#C7C7C7"/>
<path opacity="0.1" d="M241.463 201.603C217.339 231.583 179.126 268.909 179.126 268.909L163.7 222.228L256.146 158.953C264.935 163.409 257.891 181.175 241.463 201.603Z" fill="black"/>
<path d="M170.775 195.99C172.855 200.903 174.388 206.089 176.028 211.201C177.667 216.311 179.217 221.088 180.735 226.137C183.847 236.267 187.02 246.368 189.343 256.71C189.349 256.763 189.337 256.815 189.307 256.859C189.279 256.904 189.237 256.937 189.186 256.953C189.136 256.969 189.083 256.968 189.033 256.948C188.984 256.928 188.943 256.893 188.917 256.847C185.061 246.975 182.055 236.83 178.973 226.685C177.445 221.675 175.927 216.661 174.419 211.641C172.9 206.515 171.382 201.36 170.274 196.111C170.258 196.045 170.269 195.975 170.305 195.916C170.34 195.858 170.397 195.816 170.464 195.8C170.531 195.784 170.6 195.795 170.659 195.831C170.717 195.866 170.759 195.924 170.775 195.99Z" fill="#263238"/>
<path d="M160.164 392.205L352.204 391.52C352.645 391.064 314.901 209.588 287.589 173.266C273.925 155.013 237.031 156.367 223.215 179.882C204.131 212.341 160.164 392.205 160.164 392.205Z" fill="#423881"/>
<path d="M311.743 190.97C359.507 256.649 411.796 348.612 394.958 371.048C376.208 396.023 314.75 334.451 312.974 329.979C311.015 325.051 289.213 263.661 280.272 206.546C270.493 143.97 299.932 174.741 311.743 190.97Z" fill="#AD6359"/>
<path d="M292.02 272.301L364.348 264.194C364.348 264.194 336.277 219.779 312.41 190.438C288.543 161.098 266.059 152.412 273.119 190.818C280.178 229.225 292.02 272.301 292.02 272.301Z" fill="#423881"/>
<path d="M291.84 258.809C296.956 257.638 302.224 257.059 307.417 256.344C312.609 255.63 317.604 255.006 322.691 254.383C333.015 253.121 343.323 251.781 353.707 251.341C353.756 251.354 353.8 251.383 353.829 251.422C353.86 251.462 353.877 251.511 353.877 251.562C353.877 251.612 353.86 251.66 353.829 251.7C353.8 251.741 353.756 251.769 353.707 251.781C343.505 253.805 333.181 254.96 322.857 256.209C317.797 256.816 312.69 257.389 307.538 257.927C302.33 258.49 297.077 259.174 291.84 259.251C291.782 259.251 291.725 259.227 291.684 259.185C291.642 259.145 291.62 259.088 291.62 259.03C291.62 258.972 291.642 258.915 291.684 258.874C291.725 258.832 291.782 258.809 291.84 258.809Z" fill="#263238"/>
<path d="M278.525 216.311C278.525 216.19 278.252 216.235 278.267 216.311C279.163 221.954 280.393 227.552 281.713 233.119C280.544 230.669 279.375 228.206 278.115 225.772C278.115 225.636 277.705 225.772 277.766 225.879C278.416 227.717 279.178 229.515 280.043 231.263C280.757 232.693 281.561 234.108 282.275 235.523C282.988 238.457 290.883 270.659 291.536 272.331C291.627 272.56 292.083 272.483 292.022 272.255C291.369 269.761 284.887 234.989 278.525 216.311Z" fill="#263238"/>
<path d="M200.093 241.986C200.093 241.986 220.21 175.182 222.639 170.376C224.683 166.821 227.328 163.651 230.457 161.006L207.274 242.275L200.093 241.986Z" fill="#423881"/>
<path d="M251.379 244.101L262.007 244.953C262.007 244.953 273.211 197.663 275.321 187.259C277.432 176.855 285.828 163.851 285.828 163.851C283.916 161.617 281.23 160.193 278.312 159.865C278.312 159.865 265.879 179.487 262.994 192.34C260.534 203.61 251.379 244.101 251.379 244.101Z" fill="#423881"/>
<path d="M233.783 190.499C244.09 196.477 264.951 182.681 273.377 169.204C273.954 168.277 274.775 130.326 275.214 122.675C275.32 121.154 226.631 131.529 226.631 131.529C226.631 131.529 230.412 147.834 229.546 161.173C229.462 162.2 229.29 163.219 229.03 164.215C229.03 164.367 228.954 164.535 228.924 164.732C227.618 170.725 228.498 187.442 233.783 190.499Z" fill="#AD6359"/>
<path d="M228.923 164.809C230.544 165.126 232.189 165.309 233.842 165.356C258.999 166.284 269.824 136 273.316 122.6C264.465 123.406 226.555 131.512 226.555 131.512C226.555 131.512 230.35 147.834 229.469 161.189C229.406 162.217 229.238 163.236 228.968 164.231C229.013 164.429 228.938 164.611 228.923 164.809Z" fill="#263238"/>
<path d="M286.647 68.2677C290.352 85.6989 277.189 133.992 264.192 143.894C245.352 158.237 216.611 157.295 204.981 135.087C193.686 113.549 211.965 50.9278 226.237 42.1361C247.356 29.2072 281.151 42.5163 286.647 68.2677Z" fill="#AD6359"/>
<path d="M241.92 94.8403C241.92 94.7339 242.148 95.0685 242.103 95.2054C241.192 98.4451 240.676 102.324 243.363 104.134C243.453 104.134 243.363 104.362 243.286 104.316C239.809 102.887 240.539 97.7607 241.92 94.8403Z" fill="#263238"/>
<path d="M245.7 92.1482C251.044 93.0609 248.827 103.708 243.863 102.872C238.899 102.035 241.205 91.3724 245.7 92.1482Z" fill="#263238"/>
<path d="M222.396 91.1747C222.396 91.0378 222.093 91.2812 222.077 91.4181C221.485 94.734 220.271 98.4453 217.052 98.9169C216.96 98.9169 216.931 99.0994 217.052 99.1146C220.787 99.4036 222.365 94.4145 222.396 91.1747Z" fill="#263238"/>
<path d="M220.21 87.1133C215.003 85.5923 212.361 96.2396 217.174 97.5629C221.987 98.8863 224.537 88.3759 220.21 87.1133Z" fill="#263238"/>
<path d="M253.748 82.6102C252.339 82.1313 250.907 81.7303 249.456 81.4091C248.002 80.7706 246.377 80.6317 244.834 81.014C244.374 81.231 243.997 81.5929 243.762 82.0444C243.527 82.4958 243.446 83.0118 243.531 83.5132C243.858 84.4755 244.434 85.3329 245.202 85.9971C245.971 86.6612 246.902 87.1082 247.9 87.2916C249.869 87.9752 252.021 87.9036 253.941 87.0904C254.368 86.8804 254.725 86.5504 254.967 86.1407C255.21 85.7312 255.329 85.2599 255.308 84.7845C255.287 84.3092 255.129 83.8503 254.851 83.4641C254.575 83.0779 254.191 82.7812 253.748 82.6102Z" fill="#263238"/>
<path d="M217.401 75.1398C218.891 75.1221 220.382 75.1882 221.864 75.3376C223.459 75.1757 225.061 75.5503 226.419 76.4023C226.787 76.7499 227.031 77.2091 227.114 77.7093C227.196 78.2095 227.111 78.7229 226.874 79.1706C226.264 79.9846 225.45 80.6208 224.513 81.0139C223.576 81.4068 222.552 81.5424 221.546 81.4066C219.466 81.4519 217.445 80.7137 215.882 79.3379C215.544 79.0093 215.309 78.5901 215.204 78.1305C215.099 77.671 215.127 77.1907 215.288 76.7474C215.448 76.3042 215.733 75.9166 216.107 75.6314C216.482 75.3462 216.932 75.1756 217.401 75.1398Z" fill="#263238"/>
<path d="M233.056 111.115C231.953 112.249 232.054 109.906 230.588 110.498C229.121 111.09 227.23 109.931 225.65 109.881C224.264 109.867 226.355 110.3 225.033 109.881C224.78 109.818 219.721 111.832 219.479 111.733V112.967C219.311 112.899 218.338 113.124 218.244 112.967C218.152 112.811 219.459 113.148 219.479 112.967C219.502 112.854 219.81 108.383 220.713 112.35L221.947 111.115C222.403 108.56 222.518 109.655 222.518 109.655C221.486 109.929 216.324 111.07 216.673 109.762C219.618 98.9015 222.883 86.8243 228.106 76.6485C228.143 76.5825 228.201 76.5316 228.272 76.505C228.343 76.4784 228.42 76.4779 228.492 76.5034C228.562 76.529 228.623 76.579 228.66 76.6446C228.698 76.7102 228.71 76.787 228.697 76.8615C226.268 87.4024 222.017 97.4565 219.421 108.013C221.265 107.58 223.162 107.411 225.053 107.511C225.388 107.678 225.607 108.908 225.485 110.063C225.475 110.109 224.406 109.61 224.416 109.655C228.736 110.498 225.033 110.498 229.971 109.762C230.351 109.579 233.314 110.902 233.056 111.115Z" fill="#263238"/>
<path d="M233.712 121.606C232.443 119.616 230.68 117.988 228.597 116.882C227.445 116.311 226.143 116.12 224.877 116.337C222.11 116.818 221.823 119.305 222.151 121.473C222.333 122.628 222.646 123.759 223.087 124.842C226.192 122.652 229.916 121.518 233.712 121.606Z" fill="#263238"/>
<path d="M246.687 119.177C245.667 117.162 244.248 115.377 242.513 113.933C240.779 112.489 238.768 111.416 236.605 110.781C231.852 109 226.678 108.677 221.742 109.853C215.214 111.496 213.286 115.542 212.313 122.98C211.341 130.417 211.949 142.023 214.226 144.913C216.503 147.803 226.372 153.781 234.115 153.811C241.858 153.842 248.964 150.663 251.256 148.822C254.854 145.917 248.781 123.466 246.687 119.177ZM240.446 131.574C237.561 133.024 234.348 133.694 231.124 133.521C226.858 133.521 221.18 131.893 219.889 130.388C218.599 128.882 218.25 121.687 218.72 117.869C219.191 114.051 220.239 111.937 223.822 111.146C226.563 110.58 229.407 110.791 232.035 111.754C233.221 112.084 234.33 112.645 235.299 113.405C236.268 114.164 237.079 115.108 237.683 116.181C238.867 118.386 242.419 130.083 240.446 131.543V131.574Z" fill="#263238"/>
<path opacity="0.2" d="M283.003 106.72C279.693 104.21 275.108 91.2203 272.967 85.8663C270.766 80.2688 275.29 56.9663 276.823 49.9543C277.461 50.5779 278.054 51.2472 278.615 51.9164C279.177 52.5857 279.738 53.3006 280.27 54.0155C281.38 55.4491 282.366 56.9758 283.216 58.5787C284.723 61.4341 285.859 64.4701 286.601 67.6136C288.529 76.1315 286.814 91.5397 283.003 106.72Z" fill="#263238"/>
<path d="M227.801 59.0959C229.246 61.8949 231.382 64.2775 234.005 66.0185C236.627 67.7593 239.649 68.8006 242.786 69.0435C249.011 69.4693 255.934 66.7011 259.486 61.4383C259.593 61.2862 259.836 61.4383 259.73 61.6056C255.98 67.2943 249.739 71.249 242.725 70.5949C239.416 70.2301 236.261 69.0012 233.577 67.0312C230.891 65.0613 228.768 62.4193 227.421 59.3696C227.3 59.035 227.68 58.8372 227.801 59.0959Z" fill="#263238"/>
<path d="M256.768 19.0162C267.122 21.678 275.336 29.6635 277.491 37.6794C278.682 42.2363 278.292 47.0638 276.383 51.3688C276.307 51.5514 275.943 51.3688 276.004 51.2472C277.162 47.3213 277.244 43.1556 276.242 39.1868C275.241 35.218 273.192 31.5923 270.31 28.69C267.191 25.4036 263.353 22.8869 259.098 21.3377C254.844 19.7884 250.289 19.2489 245.791 19.7615C241.423 20.1757 237.343 22.1327 234.282 25.2828C233.995 25.6175 233.265 25.1916 233.523 24.8418C237.79 18.9858 247.385 16.5977 256.768 19.0162Z" fill="#263238"/>
<path d="M191.014 27.4885C193.918 22.7317 198.408 19.1589 203.691 17.4039C210.993 14.9398 218.083 17.2062 225.083 19.6094C225.113 19.6303 225.135 19.6604 225.146 19.6952C225.157 19.73 225.157 19.7674 225.145 19.8019C225.133 19.8364 225.11 19.866 225.08 19.8862C225.049 19.9063 225.013 19.916 224.977 19.9136C219.025 17.8754 212.831 16.1719 206.576 17.7386C201.384 19.0075 196.789 22.0322 193.565 26.302C190.406 30.729 188.943 36.1474 189.444 41.5662C189.947 46.9848 192.38 52.0413 196.297 55.8103C198.614 57.9189 201.336 59.5313 204.296 60.5487C207.257 61.5662 210.393 61.9672 213.514 61.7272C213.757 61.7272 213.848 62.0771 213.514 62.1075C209.258 62.5992 204.949 61.894 201.069 60.071C197.19 58.2479 193.894 55.3788 191.551 51.7852C189.207 48.1916 187.909 44.0153 187.8 39.724C187.693 35.4328 188.779 31.1961 190.938 27.4885H191.014Z" fill="#263238"/>
<path d="M287.695 79.9341C287.695 79.9341 301.86 63.5219 296.061 50.806C292.766 43.6115 277.021 40.8432 277.021 40.8432C277.021 40.8432 274.061 30.7434 261.839 24.8266C249.618 18.9097 232.356 22.9405 232.356 22.9405C232.356 22.9405 221.606 13.008 208.519 16.9932C190.301 22.5451 186.642 47.6575 201.095 59.2935C211.252 67.4767 229.061 60.9058 229.061 60.9058C230.503 61.4533 243.666 74.1693 258.317 63.157C258.317 63.157 265.786 73.6522 275.534 69.7279C275.459 69.7279 277.796 79.1735 287.695 79.9341Z" fill="#263238"/>
<path d="M269.28 105.107C269.28 105.107 281.714 90.2772 288.531 94.8403C295.348 99.4035 285.054 121.687 276.385 124.105C275.289 124.492 274.125 124.653 272.966 124.578C271.806 124.502 270.672 124.192 269.636 123.666C268.599 123.14 267.679 122.409 266.931 121.518C266.184 120.626 265.624 119.592 265.287 118.477L269.28 105.107Z" fill="#AD6359"/>
<path d="M285.494 101.107C285.63 101.107 285.646 101.29 285.494 101.335C279.421 103.221 275.778 108.438 273.105 113.945C275.048 111.907 277.554 110.903 280.302 113.26C280.331 113.289 280.35 113.327 280.355 113.367C280.36 113.408 280.351 113.449 280.33 113.484C280.309 113.519 280.277 113.546 280.239 113.561C280.2 113.575 280.158 113.577 280.12 113.564C279.108 113.142 277.99 113.046 276.921 113.288C275.852 113.531 274.884 114.1 274.153 114.918C272.926 116.279 271.856 117.774 270.965 119.375C270.631 119.877 269.705 119.512 269.963 118.919C269.96 118.878 269.96 118.837 269.963 118.797C270.51 111.222 277.28 101.153 285.494 101.107Z" fill="#263238"/>
<path d="M228.453 161.507L240.28 188.232L273.985 155.683L283.914 166.33C283.914 166.33 251.652 219.003 251.363 216.524L239.369 193.556L223.854 210.44L223.717 169.569L228.453 161.507Z" fill="#423881"/>
<path d="M222.638 190.286C222.851 183.533 222.867 176.733 223.368 169.995C223.368 169.767 223.762 169.645 223.823 169.995C225.341 176.46 224.491 202.256 224.749 208.417C225.402 207.687 239.157 193.572 239.309 193.784C241.859 197.404 250.65 214.135 251.272 215.656C256.162 206.819 278.328 174.908 284.187 166.497C284.218 166.442 284.268 166.401 284.328 166.385C284.388 166.368 284.452 166.376 284.507 166.405C284.561 166.436 284.601 166.487 284.618 166.546C284.635 166.606 284.628 166.671 284.598 166.725C280.331 176.034 252.108 219.079 251.697 218.973C247.108 211.078 242.922 202.956 239.157 194.636C236.849 197.678 223.018 213.543 222.927 212.554C222.448 205.141 222.352 197.709 222.638 190.286Z" fill="#263238"/>
<path d="M246.967 100.134C246.88 100.108 246.797 100.114 246.728 100.151C246.66 100.188 246.61 100.254 246.583 100.341C246.396 101.027 246.281 101.76 246.243 102.528C246.151 104.234 246.469 105.819 247.164 107.108C247.686 108.08 248.459 108.867 249.309 109.294C250.161 109.722 251.021 109.757 251.701 109.39C252.383 109.024 252.827 108.287 252.938 107.34C253.051 106.394 252.819 105.316 252.296 104.345C250.637 101.264 247.116 100.179 246.967 100.134Z" fill="#4190D9"/>
</g>
<g filter="url(#filter1_d_1853_3059)">
<path d="M466 349.355L418.447 383.904L436.611 439.806H495.389L513.553 383.904L466 349.355Z" fill="#31335F"/>
</g>
<g filter="url(#filter2_d_1853_3059)">
<path d="M539.678 323.678H504.322V359.033H539.678V323.678Z" fill="#303030"/>
</g>
<g filter="url(#filter3_d_1853_3059)">
<circle cx="72" cy="103" r="50" fill="#8F93EC"/>
</g>
<g filter="url(#filter4_d_1853_3059)">
<circle cx="122" cy="138" r="25" fill="#BEBEBE"/>
</g>
<defs>
<filter id="filter0_d_1853_3059" x="0" y="136" width="490" height="326" filterUnits="userSpaceOnUse" color-interpolation-filters="sRGB">
<feFlood flood-opacity="0" result="BackgroundImageFix"/>
<feColorMatrix in="SourceAlpha" type="matrix" values="0 0 0 0 0 0 0 0 0 0 0 0 0 0 0 0 0 0 127 0" result="hardAlpha"/>
<feOffset/>
<feGaussianBlur stdDeviation="25"/>
<feComposite in2="hardAlpha" operator="out"/>
<feColorMatrix type="matrix" values="0 0 0 0 0.752941 0 0 0 0 0.705882 0 0 0 0 1 0 0 0 1 0"/>
<feBlend mode="normal" in2="BackgroundImageFix" result="effect1_dropShadow_1853_3059"/>
<feBlend mode="normal" in="SourceGraphic" in2="effect1_dropShadow_1853_3059" result="shape"/>
</filter>
<filter id="filter1_d_1853_3059" x="414.447" y="349.355" width="103.105" height="98.4509" filterUnits="userSpaceOnUse" color-interpolation-filters="sRGB">
<feFlood flood-opacity="0" result="BackgroundImageFix"/>
<feColorMatrix in="SourceAlpha" type="matrix" values="0 0 0 0 0 0 0 0 0 0 0 0 0 0 0 0 0 0 127 0" result="hardAlpha"/>
<feOffset dy="4"/>
<feGaussianBlur stdDeviation="2"/>
<feComposite in2="hardAlpha" operator="out"/>
<feColorMatrix type="matrix" values="0 0 0 0 0 0 0 0 0 0 0 0 0 0 0 0 0 0 0.25 0"/>
<feBlend mode="normal" in2="BackgroundImageFix" result="effect1_dropShadow_1853_3059"/>
<feBlend mode="normal" in="SourceGraphic" in2="effect1_dropShadow_1853_3059" result="shape"/>
</filter>
<filter id="filter2_d_1853_3059" x="500.322" y="323.678" width="43.3555" height="43.3553" filterUnits="userSpaceOnUse" color-interpolation-filters="sRGB">
<feFlood flood-opacity="0" result="BackgroundImageFix"/>
<feColorMatrix in="SourceAlpha" type="matrix" values="0 0 0 0 0 0 0 0 0 0 0 0 0 0 0 0 0 0 127 0" result="hardAlpha"/>
<feOffset dy="4"/>
<feGaussianBlur stdDeviation="2"/>
<feComposite in2="hardAlpha" operator="out"/>
<feColorMatrix type="matrix" values="0 0 0 0 0 0 0 0 0 0 0 0 0 0 0 0 0 0 0.25 0"/>
<feBlend mode="normal" in2="BackgroundImageFix" result="effect1_dropShadow_1853_3059"/>
<feBlend mode="normal" in="SourceGraphic" in2="effect1_dropShadow_1853_3059" result="shape"/>
</filter>
<filter id="filter3_d_1853_3059" x="18" y="53" width="108" height="108" filterUnits="userSpaceOnUse" color-interpolation-filters="sRGB">
<feFlood flood-opacity="0" result="BackgroundImageFix"/>
<feColorMatrix in="SourceAlpha" type="matrix" values="0 0 0 0 0 0 0 0 0 0 0 0 0 0 0 0 0 0 127 0" result="hardAlpha"/>
<feOffset dy="4"/>
<feGaussianBlur stdDeviation="2"/>
<feComposite in2="hardAlpha" operator="out"/>
<feColorMatrix type="matrix" values="0 0 0 0 0 0 0 0 0 0 0 0 0 0 0 0 0 0 0.25 0"/>
<feBlend mode="normal" in2="BackgroundImageFix" result="effect1_dropShadow_1853_3059"/>
<feBlend mode="normal" in="SourceGraphic" in2="effect1_dropShadow_1853_3059" result="shape"/>
</filter>
<filter id="filter4_d_1853_3059" x="93" y="113" width="58" height="58" filterUnits="userSpaceOnUse" color-interpolation-filters="sRGB">
<feFlood flood-opacity="0" result="BackgroundImageFix"/>
<feColorMatrix in="SourceAlpha" type="matrix" values="0 0 0 0 0 0 0 0 0 0 0 0 0 0 0 0 0 0 127 0" result="hardAlpha"/>
<feOffset dy="4"/>
<feGaussianBlur stdDeviation="2"/>
<feComposite in2="hardAlpha" operator="out"/>
<feColorMatrix type="matrix" values="0 0 0 0 0 0 0 0 0 0 0 0 0 0 0 0 0 0 0.25 0"/>
<feBlend mode="normal" in2="BackgroundImageFix" result="effect1_dropShadow_1853_3059"/>
<feBlend mode="normal" in="SourceGraphic" in2="effect1_dropShadow_1853_3059" result="shape"/>
</filter>
<clipPath id="clip0_1853_3059">
<rect width="453" height="321" fill="white" transform="translate(22)"/>
</clipPath>
</defs>
</svg>
