<svg width="123" height="109" viewBox="0 0 123 109" fill="none" xmlns="http://www.w3.org/2000/svg">
<g filter="url(#filter0_d_1762_1418)">
<path d="M109.063 64.4313C102.377 58.1742 92.7114 53.3935 80.0652 50.0892C67.4327 53.3935 57.7738 58.1742 51.0884 64.4313V74.4848C57.7601 80.7419 67.419 85.5225 80.0652 88.8268C92.7251 85.5225 102.391 80.7419 109.063 74.4848V64.4313Z" fill="#070707"/>
<path d="M80.0652 78.7733C67.419 75.469 57.7601 70.6884 51.0884 64.4313C57.7601 58.1742 67.419 53.3935 80.0652 50.0892C92.7251 53.3935 102.391 58.1742 109.063 64.4313C102.377 70.7001 92.7114 75.4807 80.0652 78.7733Z" fill="#303030"/>
<path d="M80.0652 78.7908V88.8267C67.4327 85.5224 57.7738 80.7417 51.0884 74.4847V64.4312C57.7738 70.7117 67.4327 75.4982 80.0652 78.7908Z" fill="#070707"/>
<path opacity="0.25" d="M109.063 71.1098V67.8055C102.049 61.9527 92.4106 57.4005 80.0652 54.1665C67.7608 57.3829 58.1019 61.9527 51.0884 67.8055V71.1098C58.0882 76.9685 67.7472 81.5149 80.0652 84.7489C92.4106 81.5325 102.049 76.9627 109.063 71.1098Z" fill="#808080"/>
<path d="M110.97 61.3027C103.86 54.6472 93.559 49.5501 80.0652 46.0115C66.5987 49.5267 56.304 54.6238 49.1812 61.3027V67.4191C56.2904 74.098 66.585 79.1951 80.0652 82.7103C93.559 79.1951 103.86 74.098 110.97 67.4191V61.3027Z" fill="#070707"/>
<path d="M80.0652 76.5938C66.5987 73.0786 56.304 67.9816 49.1812 61.3027C56.2904 54.6472 66.585 49.5501 80.0652 46.0115C93.559 49.5267 103.86 54.6238 110.97 61.3027C103.86 67.9816 93.559 73.0786 80.0652 76.5938Z" fill="#303030"/>
<path d="M80.0652 70.5826C72.636 68.735 65.7409 65.5737 59.8245 61.3024C65.7409 57.0312 72.636 53.8698 80.0652 52.0222C87.4993 53.8724 94.4005 57.0334 100.326 61.3024C94.4005 65.5715 87.4993 68.7324 80.0652 70.5826Z" fill="#070707"/>
<path d="M61.3625 62.4097C66.9578 66.0959 73.2979 68.8665 80.0652 70.5826C86.8325 68.8665 93.1726 66.0959 98.7679 62.4097C93.1726 58.7235 86.8325 55.9529 80.0652 54.2368C73.2979 55.9529 66.9578 58.7235 61.3625 62.4097Z" fill="#969AFF"/>
<path opacity="0.25" d="M61.3625 62.4097C66.9578 66.0959 73.2979 68.8665 80.0652 70.5826C86.8325 68.8665 93.1726 66.0959 98.7679 62.4097C93.1726 58.7235 86.8325 55.9529 80.0652 54.2368C73.2979 55.9529 66.9578 58.7235 61.3625 62.4097Z" fill="#808080"/>
<path d="M80.0654 76.5936V82.7101C66.5989 79.1949 56.3043 74.0978 49.1814 67.4189V61.3025C56.2906 67.9814 66.5853 73.0784 80.0654 76.5936Z" fill="#070707"/>
</g>
<g filter="url(#filter1_d_1762_1418)">
<path d="M34.3482 29.5284L34.1349 88.6829C33.9967 89.94 33.4729 91.1434 32.6165 92.1709C31.7602 93.1983 30.602 94.0133 29.2594 94.5331C25.6083 96.1166 21.5737 96.9417 17.4818 96.9417C13.3898 96.9417 9.3553 96.1166 5.70421 94.5331C4.35784 94.0178 3.19623 93.204 2.33919 92.1756C1.48215 91.1473 0.96068 89.9416 0.828613 88.6829L1.0724 29.5284H34.3482Z" fill="#423881"/>
<path opacity="0.3" d="M34.3482 29.5284L34.1349 88.6829C33.9967 89.94 33.4729 91.1434 32.6165 92.1709C31.7602 93.1983 30.602 94.0133 29.2594 94.5331C25.6083 96.1166 21.5737 96.9417 17.4818 96.9417C13.3898 96.9417 9.3553 96.1166 5.70421 94.5331C4.35784 94.0178 3.19623 93.204 2.33919 92.1756C1.48215 91.1473 0.96068 89.9416 0.828613 88.6829L1.0724 29.5284H34.3482Z" fill="black"/>
<path opacity="0.1" d="M21.489 96.6486C24.2116 96.3693 26.848 95.6516 29.2595 94.5331C30.6021 94.0133 31.7603 93.1983 32.6166 92.1709C33.473 91.1434 33.9968 89.94 34.135 88.6829L34.3483 29.5284H21.7328L21.489 96.6486Z" fill="black"/>
<path d="M29.4724 35.3528C25.8267 36.936 21.7971 37.761 17.71 37.761C13.623 37.761 9.59343 36.936 5.9477 35.3528C-0.573388 32.1404 -0.573388 26.917 5.9477 23.7047C9.59343 22.1214 13.623 21.2964 17.71 21.2964C21.7971 21.2964 25.8267 22.1214 29.4724 23.7047C35.9935 26.917 35.9935 32.1404 29.4724 35.3528Z" fill="#423881"/>
<path opacity="0.1" d="M29.4724 35.3528C25.8267 36.936 21.7971 37.761 17.71 37.761C13.623 37.761 9.59343 36.936 5.9477 35.3528C-0.573388 32.1404 -0.573388 26.917 5.9477 23.7047C9.59343 22.1214 13.623 21.2964 17.71 21.2964C21.7971 21.2964 25.8267 22.1214 29.4724 23.7047C35.9935 26.917 35.9935 32.1404 29.4724 35.3528Z" fill="black"/>
<path d="M27.7663 20.0226V28.4844C27.6797 29.2539 27.3503 29.9886 26.8135 30.6097C26.2766 31.2309 25.5526 31.715 24.719 32.0102C22.5173 32.9629 20.0854 33.4591 17.619 33.4591C15.1526 33.4591 12.7206 32.9629 10.5189 32.0102C9.71761 31.6921 9.02821 31.1988 8.52002 30.5799C8.01184 29.9609 7.70281 29.2382 7.62402 28.4844V20.0226H27.7663Z" fill="#37474F"/>
<path d="M20.1179 33.2899C21.7615 33.1177 23.3531 32.6837 24.8107 32.0102C25.6442 31.715 26.3683 31.2309 26.9051 30.6097C27.442 29.9886 27.7713 29.2539 27.8579 28.4844V20.0226H20.1179V33.2899Z" fill="#263238"/>
<path d="M24.8099 23.5483C22.6082 24.501 20.1763 24.9973 17.7099 24.9973C15.2435 24.9973 12.8115 24.501 10.6098 23.5483C6.67889 21.6157 6.67889 18.3249 10.6098 16.5229C12.8072 15.558 15.2409 15.0548 17.7099 15.0548C20.1789 15.0548 22.6125 15.558 24.8099 16.5229C28.7409 18.4555 28.7409 21.6157 24.8099 23.5483Z" fill="#455A64"/>
<path d="M25.3896 15.4259V19.1084C25.3185 19.6762 25.0721 20.2175 24.6757 20.6766C24.2794 21.1356 23.7474 21.4958 23.1346 21.7201C21.4547 22.4538 19.596 22.8364 17.7105 22.8364C15.825 22.8364 13.9663 22.4538 12.2864 21.7201C11.6736 21.4958 11.1417 21.1356 10.7453 20.6766C10.349 20.2175 10.1026 19.6762 10.0315 19.1084V15.4259H25.3896Z" fill="#EBEBEB"/>
<path d="M19.5686 22.817C20.8224 22.6936 22.0347 22.3561 23.1339 21.8245C23.7467 21.6003 24.2786 21.2401 24.675 20.781C25.0713 20.3219 25.3178 19.7806 25.3888 19.2128V15.4259H19.5686V22.817Z" fill="#E0E0E0"/>
<path d="M17.7105 19.2651C21.9515 19.2651 25.3896 17.558 25.3896 15.4521C25.3896 13.3462 21.9515 11.639 17.7105 11.639C13.4695 11.639 10.0315 13.3462 10.0315 15.4521C10.0315 17.558 13.4695 19.2651 17.7105 19.2651Z" fill="#FAFAFA"/>
<path d="M22.8604 6.49414V15.1127C22.8202 15.503 22.6573 15.8768 22.389 16.1941C22.1207 16.5114 21.7571 16.7605 21.3368 16.9147C20.2067 17.4162 18.9527 17.6779 17.6801 17.6779C16.4075 17.6779 15.1535 17.4162 14.0234 16.9147C13.6031 16.7605 13.2394 16.5114 12.9711 16.1941C12.7029 15.8768 12.5399 15.503 12.4998 15.1127V6.49414H22.8604Z" fill="#EBEBEB"/>
<path d="M20.1179 17.3587C20.5555 17.2587 20.9756 17.1094 21.3673 16.9147C21.7876 16.7605 22.1512 16.5114 22.4195 16.1941C22.6878 15.8768 22.8507 15.503 22.8909 15.1127V6.49414H20.1179V17.3587Z" fill="#E0E0E0"/>
<path d="M17.7106 9.05343C20.5716 9.05343 22.8909 7.90754 22.8909 6.494C22.8909 5.08046 20.5716 3.93457 17.7106 3.93457C14.8496 3.93457 12.5303 5.08046 12.5303 6.494C12.5303 7.90754 14.8496 9.05343 17.7106 9.05343Z" fill="#FAFAFA"/>
<path d="M15.181 11.5347C15.1543 11.2008 15.0387 10.8766 14.8433 10.5869C14.6479 10.2972 14.3777 10.0496 14.0535 9.86319C13.4136 9.57591 12.926 9.86319 12.926 10.4378C12.9457 10.7731 13.0583 11.0995 13.2543 11.3902C13.4504 11.6808 13.7243 11.9273 14.0535 12.1092C14.663 12.3965 15.181 12.1615 15.181 11.5347Z" fill="#455A64"/>
<path opacity="0.3" d="M27.7658 5.52756C27.674 4.76276 27.3422 4.03351 26.8056 3.41733C26.2691 2.80115 25.5479 2.32101 24.7186 2.02789C22.5212 1.06301 20.0875 0.559814 17.6185 0.559814C15.1495 0.559814 12.7158 1.06301 10.5184 2.02789C9.68911 2.32101 8.96791 2.80115 8.43138 3.41733C7.89486 4.03351 7.56304 4.76276 7.47119 5.52756V20.0223C7.55776 20.7918 7.88715 21.5265 8.42399 22.1476C8.96083 22.7688 9.68487 23.2529 10.5184 23.5481C12.7202 24.5008 15.1521 24.9971 17.6185 24.9971C20.0849 24.9971 22.5169 24.5008 24.7186 23.5481C25.5484 23.2482 26.2689 22.7627 26.805 22.1425C27.341 21.5223 27.6729 20.7901 27.7658 20.0223V5.52756Z" fill="#423881"/>
<path opacity="0.3" d="M24.8099 9.0533C22.6082 10.006 20.1763 10.5023 17.7099 10.5023C15.2435 10.5023 12.8115 10.006 10.6098 9.0533C6.67889 7.12066 6.67889 3.96053 10.6098 2.02789C12.8072 1.06301 15.2409 0.559814 17.7099 0.559814C20.1789 0.559814 22.6125 1.06301 24.8099 2.02789C28.7409 3.96053 28.7409 7.12066 24.8099 9.0533Z" fill="white"/>
</g>
<defs>
<filter id="filter0_d_1762_1418" x="49.1812" y="46.0115" width="73.7886" height="54.8153" filterUnits="userSpaceOnUse" color-interpolation-filters="sRGB">
<feFlood flood-opacity="0" result="BackgroundImageFix"/>
<feColorMatrix in="SourceAlpha" type="matrix" values="0 0 0 0 0 0 0 0 0 0 0 0 0 0 0 0 0 0 127 0" result="hardAlpha"/>
<feOffset dx="8" dy="8"/>
<feGaussianBlur stdDeviation="2"/>
<feComposite in2="hardAlpha" operator="out"/>
<feColorMatrix type="matrix" values="0 0 0 0 0 0 0 0 0 0 0 0 0 0 0 0 0 0 0.25 0"/>
<feBlend mode="normal" in2="BackgroundImageFix" result="effect1_dropShadow_1762_1418"/>
<feBlend mode="normal" in="SourceGraphic" in2="effect1_dropShadow_1762_1418" result="shape"/>
</filter>
<filter id="filter1_d_1762_1418" x="0.828613" y="0.559814" width="45.5347" height="108.382" filterUnits="userSpaceOnUse" color-interpolation-filters="sRGB">
<feFlood flood-opacity="0" result="BackgroundImageFix"/>
<feColorMatrix in="SourceAlpha" type="matrix" values="0 0 0 0 0 0 0 0 0 0 0 0 0 0 0 0 0 0 127 0" result="hardAlpha"/>
<feOffset dx="8" dy="8"/>
<feGaussianBlur stdDeviation="2"/>
<feComposite in2="hardAlpha" operator="out"/>
<feColorMatrix type="matrix" values="0 0 0 0 0 0 0 0 0 0 0 0 0 0 0 0 0 0 0.25 0"/>
<feBlend mode="normal" in2="BackgroundImageFix" result="effect1_dropShadow_1762_1418"/>
<feBlend mode="normal" in="SourceGraphic" in2="effect1_dropShadow_1762_1418" result="shape"/>
</filter>
</defs>
</svg>
