<svg width="154" height="136" viewBox="0 0 154 136" fill="none" xmlns="http://www.w3.org/2000/svg">
<g filter="url(#filter0_d_706_147)">
<path d="M138.783 82.2619C130.21 74.2388 117.816 68.1088 101.601 63.8718C85.4028 68.1088 73.0176 74.2388 64.4453 82.2619V95.153C73.0001 103.176 85.3853 109.306 101.601 113.543C117.834 109.306 130.228 103.176 138.783 95.153V82.2619Z" fill="#070707"/>
<path d="M101.601 100.652C85.3853 96.415 73.0001 90.285 64.4453 82.2619C73.0001 74.2388 85.3853 68.1088 101.601 63.8718C117.834 68.1088 130.228 74.2388 138.783 82.2619C130.21 90.3001 117.816 96.43 101.601 100.652Z" fill="#303030"/>
<path d="M101.601 100.674V113.543C85.4028 109.306 73.0176 103.176 64.4453 95.1528V82.2617C73.0176 90.3149 85.4028 96.4524 101.601 100.674Z" fill="#070707"/>
<path opacity="0.25" d="M138.783 90.8257V86.5887C129.79 79.084 117.431 73.2469 101.601 69.1001C85.8235 73.2243 73.4384 79.084 64.4453 86.5887V90.8257C73.4208 98.338 85.806 104.168 101.601 108.314C117.431 104.19 129.79 98.3304 138.783 90.8257Z" fill="#808080"/>
<path d="M141.228 78.2504C132.112 69.7164 118.903 63.1807 101.601 58.6433C84.3336 63.1507 71.1333 69.6864 62 78.2504V86.0932C71.1158 94.6572 84.3161 101.193 101.601 105.7C118.903 101.193 132.112 94.6572 141.228 86.0932V78.2504Z" fill="#070707"/>
<path d="M101.601 97.8574C84.3336 93.3501 71.1333 86.8144 62 78.2504C71.1158 69.7164 84.3161 63.1807 101.601 58.6433C118.903 63.1507 132.112 69.6864 141.228 78.2504C132.112 86.8144 118.903 93.3501 101.601 97.8574Z" fill="#303030"/>
<path d="M101.601 90.1496C92.0747 87.7805 83.2336 83.7269 75.6472 78.2501C83.2336 72.7733 92.0747 68.7197 101.601 66.3506C111.133 68.723 119.982 72.7761 127.581 78.2501C119.982 83.7241 111.133 87.7772 101.601 90.1496Z" fill="#070707"/>
<path d="M77.6194 79.6701C84.7939 84.3967 92.9235 87.9493 101.601 90.1498C110.278 87.9493 118.408 84.3967 125.582 79.6701C118.408 74.9435 110.278 71.3909 101.601 69.1904C92.9235 71.3909 84.7939 74.9435 77.6194 79.6701Z" fill="#969AFF"/>
<path opacity="0.25" d="M77.6194 79.6701C84.7939 84.3967 92.9235 87.9493 101.601 90.1498C110.278 87.9493 118.408 84.3967 125.582 79.6701C118.408 74.9435 110.278 71.3909 101.601 69.1904C92.9235 71.3909 84.7939 74.9435 77.6194 79.6701Z" fill="#808080"/>
<path d="M101.601 97.8573V105.7C84.3336 101.193 71.1333 94.657 62 86.093V78.2502C71.1158 86.8143 84.3161 93.3499 101.601 97.8573Z" fill="#070707"/>
</g>
<g filter="url(#filter1_d_706_147)">
<path d="M42.9805 37.5081L42.707 113.359C42.5297 114.971 41.858 116.514 40.76 117.831C39.662 119.149 38.1768 120.194 36.4553 120.86C31.7737 122.891 26.6004 123.949 21.3535 123.949C16.1066 123.949 10.9333 122.891 6.25173 120.86C4.52535 120.199 3.03588 119.156 1.93693 117.837C0.837992 116.519 0.169342 114.973 0 113.359L0.312592 37.5081H42.9805Z" fill="#423881"/>
<path opacity="0.3" d="M42.9805 37.5081L42.707 113.359C42.5297 114.971 41.858 116.514 40.76 117.831C39.662 119.149 38.1768 120.194 36.4553 120.86C31.7737 122.891 26.6004 123.949 21.3535 123.949C16.1066 123.949 10.9333 122.891 6.25173 120.86C4.52535 120.199 3.03588 119.156 1.93693 117.837C0.837992 116.519 0.169342 114.973 0 113.359L0.312592 37.5081H42.9805Z" fill="black"/>
<path opacity="0.1" d="M26.4917 123.573C29.9827 123.215 33.3632 122.294 36.4553 120.86C38.1769 120.194 39.6621 119.149 40.7601 117.831C41.8581 116.514 42.5298 114.971 42.707 113.359L42.9805 37.5081H26.8043L26.4917 123.573Z" fill="black"/>
<path d="M36.7285 44.9761C32.0537 47.0063 26.8868 48.0641 21.6462 48.0641C16.4056 48.0641 11.2387 47.0063 6.56397 44.9761C-1.79769 40.8571 -1.79769 34.1594 6.56397 30.0404C11.2387 28.0103 16.4056 26.9524 21.6462 26.9524C26.8868 26.9524 32.0537 28.0103 36.7285 30.0404C45.0901 34.1594 45.0901 40.8571 36.7285 44.9761Z" fill="#423881"/>
<path opacity="0.1" d="M36.7285 44.9761C32.0537 47.0063 26.8868 48.0641 21.6462 48.0641C16.4056 48.0641 11.2387 47.0063 6.56397 44.9761C-1.79769 40.8571 -1.79769 34.1594 6.56397 30.0404C11.2387 28.0103 16.4056 26.9524 21.6462 26.9524C26.8868 26.9524 32.0537 28.0103 36.7285 30.0404C45.0901 34.1594 45.0901 40.8571 36.7285 44.9761Z" fill="black"/>
<path d="M34.5407 25.3191V36.1693C34.4297 37.1559 34.0074 38.098 33.319 38.8944C32.6306 39.6909 31.7022 40.3117 30.6334 40.6902C27.8103 41.9118 24.6919 42.5481 21.5294 42.5481C18.3668 42.5481 15.2485 41.9118 12.4253 40.6902C11.3979 40.2824 10.5139 39.6498 9.86227 38.8562C9.21066 38.0625 8.81441 37.1358 8.71338 36.1693V25.3191H34.5407Z" fill="#37474F"/>
<path d="M24.7336 42.3311C26.8412 42.1103 28.882 41.5538 30.7509 40.6902C31.8197 40.3117 32.7481 39.6909 33.4365 38.8944C34.1249 38.098 34.5472 37.1559 34.6582 36.1693V25.3191H24.7336V42.3311Z" fill="#263238"/>
<path d="M30.7501 29.84C27.927 31.0615 24.8086 31.6979 21.6461 31.6979C18.4835 31.6979 15.3652 31.0615 12.542 29.84C7.50161 27.3618 7.50161 23.1423 12.542 20.8317C15.3597 19.5944 18.4802 18.9492 21.6461 18.9492C24.812 18.9492 27.9325 19.5944 30.7501 20.8317C35.7906 23.3098 35.7906 27.3618 30.7501 29.84Z" fill="#455A64"/>
<path d="M31.4932 19.425V24.1469C31.402 24.875 31.0861 25.5691 30.5778 26.1577C30.0696 26.7463 29.3875 27.2082 28.6017 27.4957C26.4477 28.4366 24.0644 28.9271 21.6467 28.9271C19.2291 28.9271 16.8457 28.4366 14.6917 27.4957C13.9059 27.2082 13.2238 26.7463 12.7156 26.1577C12.2074 25.5691 11.8914 24.875 11.8003 24.1469V19.425H31.4932Z" fill="#EBEBEB"/>
<path d="M24.0293 28.9022C25.637 28.744 27.1915 28.3113 28.6008 27.6296C29.3866 27.3421 30.0687 26.8802 30.577 26.2916C31.0852 25.703 31.4011 25.0089 31.4923 24.2808V19.425H24.0293V28.9022Z" fill="#E0E0E0"/>
<path d="M21.6467 24.3479C27.0848 24.3479 31.4932 22.1588 31.4932 19.4586C31.4932 16.7583 27.0848 14.5693 21.6467 14.5693C16.2087 14.5693 11.8003 16.7583 11.8003 19.4586C11.8003 22.1588 16.2087 24.3479 21.6467 24.3479Z" fill="#FAFAFA"/>
<path d="M28.2502 7.97217V19.0233C28.1987 19.5238 27.9898 20.003 27.6458 20.4099C27.3018 20.8168 26.8355 21.1361 26.2966 21.334C24.8475 21.977 23.2396 22.3126 21.6078 22.3126C19.976 22.3126 18.3681 21.977 16.919 21.334C16.3801 21.1361 15.9138 20.8168 15.5698 20.4099C15.2258 20.003 15.0169 19.5238 14.9653 19.0233V7.97217H28.2502Z" fill="#EBEBEB"/>
<path d="M24.7336 21.9033C25.2947 21.775 25.8334 21.5836 26.3357 21.334C26.8746 21.1361 27.3409 20.8168 27.6849 20.4099C28.0289 20.003 28.2378 19.5238 28.2893 19.0233V7.97217H24.7336V21.9033Z" fill="#E0E0E0"/>
<path d="M21.6468 11.2538C25.3153 11.2538 28.2893 9.78452 28.2893 7.97201C28.2893 6.1595 25.3153 4.69019 21.6468 4.69019C17.9783 4.69019 15.0044 6.1595 15.0044 7.97201C15.0044 9.78452 17.9783 11.2538 21.6468 11.2538Z" fill="#FAFAFA"/>
<path d="M18.4034 14.4355C18.3691 14.0074 18.221 13.5917 17.9704 13.2202C17.7198 12.8487 17.3734 12.5313 16.9577 12.2922C16.1371 11.9238 15.512 12.2922 15.512 13.029C15.5372 13.4589 15.6815 13.8775 15.9329 14.2502C16.1843 14.6229 16.5356 14.9389 16.9577 15.1722C17.7391 15.5406 18.4034 15.2392 18.4034 14.4355Z" fill="#455A64"/>
<path opacity="0.3" d="M34.5403 6.73292C34.4225 5.75225 33.9971 4.81718 33.3091 4.02708C32.6212 3.23699 31.6964 2.62132 30.633 2.24547C27.8154 1.00826 24.6948 0.363037 21.5289 0.363037C18.3631 0.363037 15.2425 1.00826 12.4249 2.24547C11.3615 2.62132 10.4367 3.23699 9.74878 4.02708C9.06082 4.81718 8.63535 5.75225 8.51758 6.73292V25.3188C8.62859 26.3054 9.05093 27.2475 9.7393 28.044C10.4277 28.8404 11.3561 29.4612 12.4249 29.8397C15.248 31.0613 18.3664 31.6977 21.5289 31.6977C24.6915 31.6977 27.8098 31.0613 30.633 29.8397C31.697 29.4551 32.6209 28.8327 33.3083 28.0374C33.9956 27.2421 34.4211 26.3032 34.5403 25.3188V6.73292Z" fill="#423881"/>
<path opacity="0.3" d="M30.7501 11.2538C27.927 12.4753 24.8086 13.1117 21.6461 13.1117C18.4835 13.1117 15.3652 12.4753 12.542 11.2538C7.50161 8.77567 7.50161 4.72359 12.542 2.24547C15.3597 1.00826 18.4802 0.363037 21.6461 0.363037C24.812 0.363037 27.9325 1.00826 30.7501 2.24547C35.7906 4.72359 35.7906 8.77567 30.7501 11.2538Z" fill="white"/>
</g>
<defs>
<filter id="filter0_d_706_147" x="62" y="58.6433" width="91.2283" height="66.8997" filterUnits="userSpaceOnUse" color-interpolation-filters="sRGB">
<feFlood flood-opacity="0" result="BackgroundImageFix"/>
<feColorMatrix in="SourceAlpha" type="matrix" values="0 0 0 0 0 0 0 0 0 0 0 0 0 0 0 0 0 0 127 0" result="hardAlpha"/>
<feOffset dx="8" dy="8"/>
<feGaussianBlur stdDeviation="2"/>
<feComposite in2="hardAlpha" operator="out"/>
<feColorMatrix type="matrix" values="0 0 0 0 0 0 0 0 0 0 0 0 0 0 0 0 0 0 0.25 0"/>
<feBlend mode="normal" in2="BackgroundImageFix" result="effect1_dropShadow_706_147"/>
<feBlend mode="normal" in="SourceGraphic" in2="effect1_dropShadow_706_147" result="shape"/>
</filter>
<filter id="filter1_d_706_147" x="0" y="0.363037" width="54.9998" height="135.585" filterUnits="userSpaceOnUse" color-interpolation-filters="sRGB">
<feFlood flood-opacity="0" result="BackgroundImageFix"/>
<feColorMatrix in="SourceAlpha" type="matrix" values="0 0 0 0 0 0 0 0 0 0 0 0 0 0 0 0 0 0 127 0" result="hardAlpha"/>
<feOffset dx="8" dy="8"/>
<feGaussianBlur stdDeviation="2"/>
<feComposite in2="hardAlpha" operator="out"/>
<feColorMatrix type="matrix" values="0 0 0 0 0 0 0 0 0 0 0 0 0 0 0 0 0 0 0.25 0"/>
<feBlend mode="normal" in2="BackgroundImageFix" result="effect1_dropShadow_706_147"/>
<feBlend mode="normal" in="SourceGraphic" in2="effect1_dropShadow_706_147" result="shape"/>
</filter>
</defs>
</svg>
