<svg width="237" height="118" viewBox="0 0 237 118" fill="none" xmlns="http://www.w3.org/2000/svg">
<g filter="url(#filter0_d_706_146)">
<path d="M62.5255 57.4344C62.5255 57.4344 54.1567 62.3356 51.2754 63.6639C48.394 64.9923 43.7486 65.8829 36.511 69.2157C29.2734 72.5484 18.8297 83.8407 21.1618 90.4364C23.4938 97.032 30.2457 95.3665 34.3597 92.5153C38.4737 89.6642 40.234 87.0668 46.3341 80.2441C54.4799 71.0889 59.9357 65.1791 59.9357 65.1791L63.5375 58.0532L62.5255 57.4344ZM48.8605 72.1977C45.1829 75.154 41.7531 78.3787 38.5957 81.8488C34.6794 86.2098 34.3053 88.3644 31.4493 90.2507C29.1437 91.7832 25.9175 91.2076 25.8338 87.8361C25.7502 84.4646 28.071 79.769 34.0379 74.9359C37.9787 71.1643 43.3754 69.0673 49.2335 69.0314C50.4737 69.2063 51.4477 70.0813 48.8605 72.1977Z" fill="#31335F"/>
<path d="M85.2742 86.5751C86.0112 80.8123 80.4426 77.5715 78.9931 73.3401C77.5437 69.1087 73.9144 60.5364 73.9144 60.5364L68.0311 67.6479C68.0311 67.6479 68.6283 75.2126 68.9021 78.3963C69.176 81.5801 65.9205 86.1562 64.2667 89.5666C62.6129 92.977 62.9184 99.5909 71.9174 99.0447C75.4711 98.9271 78.7327 97.6266 81.1618 95.3588C83.5909 93.091 85.0419 89.992 85.2742 86.5751ZM72.9866 94.907C69.5105 95.0662 67.3661 92.8179 68.2627 89.9143C68.8716 88.3432 69.9163 87.0026 71.2934 86.0255C72.6706 85.0483 74.3324 84.4684 76.1141 84.3433C79.5902 84.1841 81.7005 86.4444 80.838 89.336C80.2383 90.9155 79.2071 92.2703 77.8437 93.2703C76.4803 94.2702 74.8304 94.8816 73.0525 95.0459L72.9866 94.907Z" fill="#31335F"/>
<path d="M61.7751 58.5823L119.067 21.8088L119.908 23.5804C119.908 23.5804 119.659 26.42 106.838 36.2336C94.0163 46.0472 60.7096 66.8481 60.7096 66.8481L58.2138 65.289L61.7751 58.5823Z" fill="#070707"/>
<path opacity="0.2" d="M60.7974 66.6963L59.8742 64.751L57.783 63.4558L58.6897 65.3664L60.7974 66.6963Z" fill="#D6D6D6"/>
<path d="M60.8679 56.6716L119.072 21.4831C119.072 21.4831 118.84 24.3574 106.002 34.1363C93.1637 43.9151 59.857 64.716 59.857 64.716L57.3612 63.1571L60.8679 56.6716Z" fill="#303030"/>
<path d="M60.3895 55.7457C60.3895 55.7457 52.0207 60.6469 49.1394 61.9752C46.258 63.3036 41.6126 64.1942 34.375 67.5269C27.1374 70.8597 16.6937 82.152 19.0258 88.7477C21.3578 95.3433 28.1097 93.6777 32.2237 90.8266C36.3378 87.9755 38.098 85.3781 44.1982 78.5554C52.3439 69.4002 57.7997 63.4904 57.7997 63.4904L61.4015 56.3645L60.3895 55.7457ZM46.7246 70.509C43.0469 73.4653 39.6171 76.69 36.4597 80.1601C32.5435 84.5211 32.1693 86.6757 29.3133 88.562C27.0077 90.0945 23.7815 89.5189 23.6978 86.1474C23.6142 82.7758 25.9351 78.0802 31.902 73.2472C35.8427 69.4756 41.2394 67.3786 47.0975 67.3427C48.3377 67.5176 49.3117 68.3926 46.7246 70.509Z" fill="#423881"/>
<path d="M94.0619 13.684C93.4753 18.0863 92.2283 22.3106 90.3586 26.2296C87.5215 31.267 73.5911 60.859 73.5911 60.859L67.9133 67.8989L64.942 67.3559L64.459 57.9294C64.459 57.9294 82.3131 28.9533 86.2395 22.8479C90.166 16.7424 94.3562 12.2859 94.0619 13.684Z" fill="#070707"/>
<path d="M64.103 65.4224L67.0744 65.9655L67.1999 67.7434L65.0098 67.333L64.103 65.4224Z" fill="#070707"/>
<path d="M93.1554 11.774C92.5688 16.1763 91.3218 20.4006 89.4521 24.3196C86.6151 29.357 72.6847 58.9491 72.6847 58.9491L67.0069 65.989L64.019 65.4111L63.5361 55.9848C63.5361 55.9848 81.4067 27.0434 85.3166 20.9032C89.2266 14.7631 93.3673 10.2022 93.1554 11.774Z" fill="#303030"/>
<path d="M84.2491 84.9164C84.986 79.1536 79.4174 75.9128 77.968 71.6814C76.5186 67.45 72.8892 58.8777 72.8892 58.8777L67.006 65.9892C67.006 65.9892 67.6031 73.5539 67.877 76.7376C68.1508 79.9214 64.8953 84.4975 63.2415 87.9079C61.5878 91.3183 61.8932 97.9322 70.8923 97.3861C74.4459 97.2684 77.7075 95.9679 80.1366 93.7001C82.5658 91.4323 84.0167 88.3333 84.2491 84.9164ZM71.9615 93.2483C68.4854 93.4075 66.3409 91.1592 67.2376 88.2557C67.8464 86.6845 68.8911 85.3439 70.2683 84.3668C71.6454 83.3896 73.3072 82.8097 75.089 82.6846C78.5651 82.5254 80.6753 84.7857 79.8129 87.6773C79.2131 89.2568 78.182 90.6116 76.8186 91.6116C75.4551 92.6115 73.8052 93.2229 72.0274 93.3872L71.9615 93.2483Z" fill="#423881"/>
<path d="M70.9406 56.1154C70.6745 56.6314 70.2713 57.0599 69.7674 57.3628C69.2635 57.6656 68.6744 57.8333 68.0529 57.8508C66.7239 57.9092 65.8488 57.2426 66.1012 56.345C66.3673 55.829 66.7705 55.4004 67.2744 55.0976C67.7783 54.7947 68.3674 54.6271 68.9889 54.6096C70.4016 54.6434 71.2272 55.2058 70.9406 56.1154Z" fill="#D6D6D6"/>
</g>
<g filter="url(#filter1_d_706_146)">
<path d="M138.807 53.6872C138.807 49.1345 142.953 44.5818 151.171 41.086C167.643 34.1214 194.37 34.1214 210.843 41.086C219.098 44.5818 223.207 49.2158 223.207 53.6872V80.7867C223.207 85.3665 219.098 89.9193 210.843 93.4151C194.37 100.38 167.643 100.38 151.171 93.4151C142.953 89.9193 138.807 85.2852 138.807 80.7867V53.6872Z" fill="#7F5DE2"/>
<path opacity="0.2" d="M138.807 53.6872C138.807 49.1345 142.953 44.5818 151.171 41.086C167.643 34.1214 194.37 34.1214 210.843 41.086C219.098 44.5818 223.207 49.2158 223.207 53.6872V80.7867C223.207 85.3665 219.098 89.9193 210.843 93.4151C194.37 100.38 167.643 100.38 151.171 93.4151C142.953 89.9193 138.807 85.2852 138.807 80.7867V53.6872Z" fill="black"/>
<path opacity="0.15" d="M155.057 39.6497V94.77C153.688 94.3093 152.392 93.8486 151.171 93.3338C148.727 92.303 146.475 91.0461 144.47 89.594V44.8798C146.477 43.4366 148.729 42.1888 151.171 41.1672C152.392 40.571 153.688 40.1103 155.057 39.6497Z" fill="white"/>
<path opacity="0.15" d="M166.089 97.3987C164.016 97.0464 161.98 96.6399 160.018 96.1792V38.2404C161.98 37.7797 164.016 37.3462 166.089 37.021V97.3987Z" fill="white"/>
<path opacity="0.2" d="M139.548 50.2994C142.157 47.7157 145.505 45.5795 149.357 44.0394C165.645 37.1832 191.298 36.7226 208.881 42.6303V40.2184C209.548 40.4623 210.214 40.7062 210.843 40.9772C219.098 44.473 223.207 49.107 223.207 53.5784V63.0091V80.5966C223.207 85.1764 219.098 89.7291 210.843 93.225C194.37 100.19 167.644 100.19 151.171 93.225C148.42 92.0707 145.924 90.6179 143.768 88.9162C151.615 94.3361 171.161 97.2357 185.671 95.149C200.182 93.0624 208.992 86.2604 208.992 81.4367V72.2229C191.409 78.1577 165.756 77.6428 149.468 70.8137C145.174 69.1827 141.508 66.7879 138.807 63.8491V53.741C138.794 52.5718 139.045 51.4091 139.548 50.2994Z" fill="#7F5DE2"/>
<path opacity="0.15" d="M216.099 82.8192V43.7959C218.199 44.9648 219.923 46.4561 221.151 48.1649C222.378 49.8737 223.08 51.7586 223.207 53.6872V80.7867C223.207 85.3665 219.098 89.9192 210.843 93.4151C205.838 95.4173 200.426 96.8172 194.814 97.5613C210.695 94.4178 216.099 86.4776 216.099 82.8192Z" fill="black"/>
<path opacity="0.3" d="M208.437 91.9245C199.786 94.6731 190.456 96.0913 181.025 96.0913C171.595 96.0913 162.265 94.6731 153.614 91.9245C138.474 86.342 138.474 77.318 153.614 71.7626C162.26 69.0014 171.592 67.5762 181.025 67.5762C190.458 67.5762 199.79 69.0014 208.437 71.7626C223.577 77.3993 223.577 86.342 208.437 91.9245Z" fill="#7F5DE2"/>
<path d="M137.77 49.1345C137.77 44.4463 141.99 39.758 150.43 36.208C167.31 29.0537 194.851 29.0537 211.582 36.208C220.059 39.758 224.279 44.3379 224.279 49.1345V56.9392C224.279 61.6003 220.059 66.2885 211.582 69.8656C194.703 76.9928 167.162 76.9928 150.43 69.8656C141.99 66.2885 137.77 61.6003 137.77 56.9392V49.1345Z" fill="#E0E0E0"/>
<path opacity="0.1" d="M170.679 74.6891C192.075 74.6891 203.365 69.6756 206.808 65.5294C209.399 62.3859 209.843 62.8195 209.843 56.9931C209.843 56.9931 212.249 43.8498 211.805 43.7956C211.361 43.7414 216.914 42.9285 221.097 42.2781C223.112 44.2733 224.226 46.6799 224.28 49.1613V56.966C224.28 61.6271 220.06 66.3153 211.583 69.8925C198.991 74.6324 184.664 76.3125 170.679 74.6891Z" fill="black"/>
<g opacity="0.1">
<path d="M211.768 69.757C212.545 69.4318 213.137 69.0524 213.841 68.7001V57.1016H211.768V69.757Z" fill="black"/>
<path d="M203.735 72.4402L205.919 71.9795V60.1099H203.846L203.735 72.4402Z" fill="black"/>
<path d="M185.338 75.0419H187.411V62.8743H185.338V75.0419Z" fill="black"/>
<path d="M220.245 64.4726V53.0095H218.172V66.0985C218.919 65.5964 219.612 65.0529 220.245 64.4726Z" fill="black"/>
<path d="M223.243 60.7873C223.889 59.5578 224.24 58.256 224.28 56.9392V49.1345C224.24 48.2165 224.041 47.3059 223.688 46.4246H223.243V60.7873Z" fill="black"/>
<path d="M194.813 74.1743C195.517 74.1743 196.22 74.0388 196.886 73.9304V61.8711H194.813V74.1743Z" fill="black"/>
<path d="M141.509 64.2558C142.14 64.8541 142.833 65.4158 143.582 65.9359V53.7141H141.509V64.2558Z" fill="black"/>
<path d="M166.014 74.0388C166.68 74.0388 167.383 74.2014 168.087 74.2827V61.9795H166.014V74.0388Z" fill="black"/>
<path d="M175.602 74.9875H177.675V62.7385H175.602V74.9875Z" fill="black"/>
<path d="M137.77 56.9392C137.806 58.2476 138.157 59.541 138.806 60.7602V47.8337H138.066C137.931 48.2625 137.832 48.697 137.77 49.1345V56.9392Z" fill="black"/>
<path d="M156.945 72.1144C157.611 72.3041 158.351 72.4397 159.018 72.6023V60.2991H156.945V72.1144Z" fill="black"/>
<path d="M148.727 68.9712C149.319 69.2693 149.763 69.5673 150.43 69.8654H150.8V57.6707H148.727V68.9712Z" fill="black"/>
</g>
<path d="M211.583 62.0603C194.814 69.2688 167.31 69.2688 150.393 62.0603C133.476 54.8518 133.513 43.3345 150.393 36.2073C167.273 29.0802 194.814 29.0531 211.546 36.2073C228.278 43.3616 228.5 54.906 211.583 62.0603Z" fill="#EBEBEB"/>
<path d="M201.218 79.1879C185.19 82.8735 164.719 81.8979 151.171 76.1528C142.953 72.657 138.807 68.0229 138.807 63.5244V75.0688C138.807 79.6486 142.916 84.2013 151.171 87.6701C164.719 93.4152 185.153 94.3907 201.181 90.7052L201.218 79.1879Z" fill="#7F5DE2"/>
<path opacity="0.6" d="M201.218 79.1879C185.19 82.8735 164.719 81.8979 151.171 76.1528C142.953 72.657 138.807 68.0229 138.807 63.5244V75.0688C138.807 79.6486 142.916 84.2013 151.171 87.6701C164.719 93.4152 185.153 94.3907 201.181 90.7052L201.218 79.1879Z" fill="white"/>
<path d="M148.098 60.9768C133.624 53.7954 134.364 42.9827 150.43 36.2078C159.525 32.6141 169.708 30.7504 180.044 30.7879C185.572 31.4167 190.909 32.7464 195.813 34.7174C210.62 40.8419 210.62 53.0366 195.813 59.1069C182.931 64.6894 162.683 65.2585 148.098 60.9768Z" fill="#F5F5F5"/>
<path d="M220.948 56.153C220.948 56.153 206.881 66.505 179.711 65.963C152.54 65.421 141.657 54.5541 140.25 51.1937C139.522 49.2081 139.479 47.1211 140.125 45.1203C140.771 43.1194 142.086 41.2675 143.952 39.7307C142.109 40.9106 140.614 42.3528 139.557 43.9695C138.501 45.5862 137.905 47.3435 137.807 49.1342V56.9389C137.807 58.1042 136.956 62.1962 145.729 67.4806C142.897 65.1236 141.103 62.1955 140.583 59.0797V55.7194C140.583 55.7194 150.208 67.5077 179.748 67.5077C209.288 67.5077 219.467 57.9145 220.948 56.153Z" fill="white"/>
</g>
<defs>
<filter id="filter0_d_706_146" x="18.6931" y="11.4614" width="113.215" height="99.6152" filterUnits="userSpaceOnUse" color-interpolation-filters="sRGB">
<feFlood flood-opacity="0" result="BackgroundImageFix"/>
<feColorMatrix in="SourceAlpha" type="matrix" values="0 0 0 0 0 0 0 0 0 0 0 0 0 0 0 0 0 0 127 0" result="hardAlpha"/>
<feOffset dx="8" dy="8"/>
<feGaussianBlur stdDeviation="2"/>
<feComposite in2="hardAlpha" operator="out"/>
<feColorMatrix type="matrix" values="0 0 0 0 0 0 0 0 0 0 0 0 0 0 0 0 0 0 0.25 0"/>
<feBlend mode="normal" in2="BackgroundImageFix" result="effect1_dropShadow_706_146"/>
<feBlend mode="normal" in="SourceGraphic" in2="effect1_dropShadow_706_146" result="shape"/>
</filter>
<filter id="filter1_d_706_146" x="137.719" y="30.7874" width="98.5605" height="79.8511" filterUnits="userSpaceOnUse" color-interpolation-filters="sRGB">
<feFlood flood-opacity="0" result="BackgroundImageFix"/>
<feColorMatrix in="SourceAlpha" type="matrix" values="0 0 0 0 0 0 0 0 0 0 0 0 0 0 0 0 0 0 127 0" result="hardAlpha"/>
<feOffset dx="8" dy="8"/>
<feGaussianBlur stdDeviation="2"/>
<feComposite in2="hardAlpha" operator="out"/>
<feColorMatrix type="matrix" values="0 0 0 0 0 0 0 0 0 0 0 0 0 0 0 0 0 0 0.25 0"/>
<feBlend mode="normal" in2="BackgroundImageFix" result="effect1_dropShadow_706_146"/>
<feBlend mode="normal" in="SourceGraphic" in2="effect1_dropShadow_706_146" result="shape"/>
</filter>
</defs>
</svg>
