<svg width="179" height="93" viewBox="0 0 179 93" fill="none" xmlns="http://www.w3.org/2000/svg">
<g filter="url(#filter0_d_1762_1419)">
<path d="M49.2297 44.8652C49.2297 44.8652 42.703 48.6876 40.4559 49.7235C38.2088 50.7594 34.586 51.454 28.9415 54.0532C23.2971 56.6523 15.1522 65.459 16.9709 70.6028C18.7896 75.7466 24.0553 74.4477 27.2637 72.2241C30.4722 70.0006 31.845 67.975 36.6024 62.6541C42.9551 55.5141 47.21 50.9051 47.21 50.9051L50.0189 45.3478L49.2297 44.8652ZM38.5727 56.3788C35.7046 58.6844 33.0297 61.1993 30.5673 63.9055C27.5131 67.3066 27.2213 68.9869 24.994 70.458C23.1959 71.6532 20.6798 71.2043 20.6146 68.5749C20.5494 65.9455 22.3593 62.2835 27.0128 58.5143C30.0861 55.5729 34.2949 53.9375 38.8635 53.9095C39.8308 54.0459 40.5903 54.7283 38.5727 56.3788Z" fill="#31335F"/>
<path d="M66.9709 67.5913C67.5456 63.0971 63.2028 60.5696 62.0724 57.2696C60.942 53.9697 58.1116 47.2843 58.1116 47.2843L53.5233 52.8304C53.5233 52.8304 53.989 58.7299 54.2026 61.2129C54.4162 63.6958 51.8773 67.2647 50.5875 69.9244C49.2978 72.5841 49.536 77.7421 56.5542 77.3162C59.3256 77.2244 61.8692 76.2102 63.7637 74.4416C65.6581 72.673 66.7897 70.2561 66.9709 67.5913ZM57.388 74.0893C54.6771 74.2134 53.0047 72.46 53.704 70.1956C54.1788 68.9702 54.9935 67.9248 56.0675 67.1627C57.1416 66.4007 58.4375 65.9484 59.8271 65.8508C62.5381 65.7267 64.1838 67.4894 63.5112 69.7445C63.0434 70.9764 62.2393 72.0329 61.176 72.8128C60.1127 73.5926 58.8259 74.0695 57.4394 74.1976L57.388 74.0893Z" fill="#31335F"/>
<path d="M48.6445 45.7603L93.3256 17.0814L93.9813 18.463C93.9813 18.463 93.7874 20.6776 83.7881 28.331C73.7888 35.9844 47.8136 52.2066 47.8136 52.2066L45.8672 50.9908L48.6445 45.7603Z" fill="#BEBEBE"/>
<path opacity="0.2" d="M47.8819 52.0882L47.1619 50.5711L45.531 49.561L46.2382 51.0511L47.8819 52.0882Z" fill="#D6D6D6"/>
<path d="M47.9368 44.2701L93.329 16.8272C93.329 16.8272 93.1479 19.0688 83.1358 26.6952C73.1237 34.3215 47.1484 50.5437 47.1484 50.5437L45.202 49.3279L47.9368 44.2701Z" fill="#FAFAFA"/>
<path d="M47.564 43.5482C47.564 43.5482 41.0373 47.3706 38.7902 48.4065C36.5431 49.4424 32.9202 50.137 27.2757 52.7362C21.6313 55.3353 13.4864 64.142 15.3052 69.2858C17.1239 74.4296 22.3895 73.1307 25.598 70.9071C28.8064 68.6836 30.1793 66.6579 34.9366 61.337C41.2893 54.1971 45.5442 49.5881 45.5442 49.5881L48.3532 44.0308L47.564 43.5482ZM36.9069 55.0618C34.0388 57.3673 31.364 59.8822 28.9015 62.5885C25.8473 65.9896 25.5555 67.6699 23.3282 69.141C21.5301 70.3361 19.014 69.8872 18.9488 67.2579C18.8836 64.6285 20.6936 60.9665 25.347 57.1973C28.4204 54.2559 32.6292 52.6205 37.1977 52.5925C38.165 52.7289 38.9246 53.4113 36.9069 55.0618Z" fill="#423881"/>
<path d="M73.8243 10.745C73.3668 14.1783 72.3943 17.4727 70.9361 20.5291C68.7236 24.4577 57.8595 47.5359 57.8595 47.5359L53.4315 53.0262L51.1143 52.6027L50.7376 45.2512C50.7376 45.2512 64.6616 22.6533 67.7238 17.8918C70.7859 13.1303 74.0538 9.65469 73.8243 10.745Z" fill="#BEBEBE"/>
<path d="M50.46 51.0948L52.7773 51.5184L52.8751 52.905L51.1671 52.5849L50.46 51.0948Z" fill="#070707"/>
<path d="M73.1173 9.25533C72.6598 12.6886 71.6873 15.9831 70.2292 19.0394C68.0166 22.968 57.1526 46.0463 57.1526 46.0463L52.7246 51.5366L50.3944 51.0859L50.0178 43.7345C50.0178 43.7345 63.9547 21.1636 67.004 16.375C70.0533 11.5865 73.2825 8.02955 73.1173 9.25533Z" fill="#FAFAFA"/>
<path d="M66.1716 66.2976C66.7463 61.8034 62.4035 59.2759 61.2731 55.9759C60.1427 52.676 57.3123 45.9906 57.3123 45.9906L52.724 51.5367C52.724 51.5367 53.1897 57.4362 53.4033 59.9192C53.6169 62.4021 51.078 65.971 49.7882 68.6307C48.4984 71.2904 48.7367 76.4484 55.7549 76.0225C58.5263 75.9307 61.0699 74.9165 62.9644 73.1479C64.8588 71.3793 65.9904 68.9624 66.1716 66.2976ZM56.5887 72.7956C53.8778 72.9197 52.2053 71.1663 52.9046 68.9019C53.3795 67.6765 54.1942 66.6311 55.2682 65.869C56.3422 65.1069 57.6382 64.6547 59.0278 64.5571C61.7387 64.433 63.3845 66.1957 62.7119 68.4508C62.2441 69.6827 61.44 70.7392 60.3767 71.5191C59.3134 72.2989 58.0266 72.7758 56.6401 72.9039L56.5887 72.7956Z" fill="#423881"/>
<path d="M55.7925 43.8364C55.5849 44.2388 55.2706 44.573 54.8776 44.8092C54.4845 45.0454 54.0251 45.1762 53.5405 45.1898C52.504 45.2354 51.8215 44.7155 52.0183 44.0154C52.2259 43.613 52.5403 43.2788 52.9333 43.0426C53.3263 42.8064 53.7857 42.6757 54.2704 42.6621C55.3722 42.6884 56.0161 43.127 55.7925 43.8364Z" fill="#D6D6D6"/>
</g>
<g filter="url(#filter1_d_1762_1419)">
<path d="M100.142 42.8883C100.142 39.3377 103.375 35.7872 109.784 33.0608C122.631 27.6293 143.474 27.6293 156.321 33.0608C162.759 35.7872 165.963 39.4011 165.963 42.8883V64.0227C165.963 67.5944 162.759 71.145 156.321 73.8713C143.474 79.3028 122.631 79.3028 109.784 73.8713C103.375 71.145 100.142 67.531 100.142 64.0227V42.8883Z" fill="#00CF5F"/>
<path opacity="0.2" d="M100.142 42.8883C100.142 39.3377 103.375 35.7872 109.784 33.0608C122.631 27.6293 143.474 27.6293 156.321 33.0608C162.759 35.7872 165.963 39.4011 165.963 42.8883V64.0227C165.963 67.5944 162.759 71.145 156.321 73.8713C143.474 79.3028 122.631 79.3028 109.784 73.8713C103.375 71.145 100.142 67.531 100.142 64.0227V42.8883Z" fill="black"/>
<path opacity="0.15" d="M112.815 31.9407V74.928C111.747 74.5687 110.736 74.2094 109.784 73.8079C107.878 73.004 106.122 72.0237 104.558 70.8913V36.0196C106.123 34.8941 107.879 33.9209 109.784 33.1242C110.736 32.6592 111.747 32.3 112.815 31.9407Z" fill="white"/>
<path opacity="0.15" d="M121.418 76.9782C119.801 76.7035 118.214 76.3865 116.684 76.0272V30.8419C118.214 30.4826 119.801 30.1445 121.418 29.8909V76.9782Z" fill="white"/>
<path opacity="0.2" d="M100.719 40.2464C102.755 38.2315 105.365 36.5655 108.37 35.3644C121.072 30.0174 141.078 29.6581 154.791 34.2654V32.3844C155.311 32.5746 155.831 32.7648 156.321 32.9762C162.759 35.7025 165.964 39.3165 165.964 42.8037V50.1584V63.8746C165.964 67.4463 162.759 70.9969 156.321 73.7232C143.475 79.1548 122.631 79.1548 109.784 73.7232C107.639 72.823 105.692 71.6901 104.01 70.3629C110.131 74.5898 125.374 76.8511 136.69 75.2238C148.007 73.5964 154.878 68.2917 154.878 64.5298V57.3441C141.165 61.9725 121.159 61.571 108.456 56.2451C105.107 54.9732 102.248 53.1055 100.142 50.8136V42.9305C100.132 42.0186 100.327 41.1118 100.719 40.2464Z" fill="#00CF5F"/>
<path opacity="0.15" d="M160.421 65.6079V35.1744C162.058 36.0861 163.402 37.2491 164.36 38.5817C165.317 39.9144 165.865 41.3844 165.963 42.8885V64.0228C165.963 67.5946 162.759 71.1451 156.321 73.8715C152.418 75.4329 148.197 76.5247 143.821 77.105C156.206 74.6534 160.421 68.4611 160.421 65.6079Z" fill="black"/>
<path opacity="0.3" d="M154.444 72.7089C147.698 74.8524 140.421 75.9585 133.067 75.9585C125.712 75.9585 118.436 74.8524 111.689 72.7089C99.8816 68.3552 99.8816 61.3175 111.689 56.985C118.432 54.8316 125.71 53.7201 133.067 53.7201C140.424 53.7201 147.701 54.8316 154.444 56.985C166.252 61.3809 166.252 68.3552 154.444 72.7089Z" fill="#00CF5F"/>
<path d="M99.3328 39.3379C99.3328 35.6816 102.624 32.0254 109.206 29.2567C122.37 23.6773 143.849 23.6773 156.898 29.2567C163.509 32.0254 166.8 35.5971 166.8 39.3379V45.4246C166.8 49.0597 163.509 52.7159 156.898 55.5057C143.734 61.064 122.255 61.064 109.206 55.5057C102.624 52.7159 99.3328 49.0597 99.3328 45.4246V39.3379Z" fill="#E0E0E0"/>
<path opacity="0.1" d="M124.998 59.2674C141.684 59.2674 150.489 55.3575 153.174 52.124C155.195 49.6724 155.541 50.0106 155.541 45.4667C155.541 45.4667 157.418 35.2165 157.071 35.1742C156.725 35.132 161.055 34.4979 164.318 33.9907C165.89 35.5467 166.758 37.4237 166.8 39.3588V45.4455C166.8 49.0806 163.509 52.7369 156.898 55.5267C147.078 59.2232 135.904 60.5335 124.998 59.2674Z" fill="black"/>
<g opacity="0.1">
<path d="M157.042 55.4207C157.648 55.1671 158.11 54.8713 158.659 54.5965V45.551H157.042V55.4207Z" fill="black"/>
<path d="M150.778 57.5135L152.481 57.1542V47.8973H150.864L150.778 57.5135Z" fill="black"/>
<path d="M136.43 59.5425H138.047V50.0532H136.43V59.5425Z" fill="black"/>
<path d="M163.653 51.2997V42.3599H162.037V52.5677C162.619 52.1762 163.16 51.7523 163.653 51.2997Z" fill="black"/>
<path d="M165.992 48.4256C166.495 47.4667 166.769 46.4515 166.8 45.4245V39.3378C166.769 38.6218 166.614 37.9117 166.338 37.2244H165.992V48.4256Z" fill="black"/>
<path d="M143.82 58.8658C144.369 58.8658 144.917 58.7601 145.437 58.6756V49.2708H143.82V58.8658Z" fill="black"/>
<path d="M102.249 51.1307C102.74 51.5973 103.281 52.0354 103.865 52.441V42.9094H102.249V51.1307Z" fill="black"/>
<path d="M121.36 58.7602C121.879 58.7602 122.428 58.887 122.976 58.9504V49.3553H121.36V58.7602Z" fill="black"/>
<path d="M128.837 59.5H130.454V49.9473H128.837V59.5Z" fill="black"/>
<path d="M99.3328 45.4247C99.361 46.445 99.6346 47.4537 100.141 48.4046V38.3235H99.5637C99.4587 38.6579 99.3816 38.9967 99.3328 39.338V45.4247Z" fill="black"/>
<path d="M114.287 57.2594C114.807 57.4073 115.384 57.513 115.904 57.6398V48.0448H114.287V57.2594Z" fill="black"/>
<path d="M107.878 54.8079C108.34 55.0404 108.686 55.2729 109.206 55.5053H109.495V45.9949H107.878V54.8079Z" fill="black"/>
</g>
<path d="M156.898 49.4185C143.821 55.0402 122.371 55.0402 109.178 49.4185C95.9843 43.7967 96.0132 34.8146 109.178 29.2563C122.342 23.6979 143.82 23.6768 156.869 29.2563C169.918 34.8357 170.091 43.839 156.898 49.4185Z" fill="#EBEBEB"/>
<path d="M148.815 62.7761C136.315 65.6504 120.35 64.8895 109.784 60.409C103.375 57.6827 100.142 54.0687 100.142 50.5604V59.5637C100.142 63.1354 103.346 66.686 109.784 69.3912C120.35 73.8716 136.286 74.6325 148.786 71.7582L148.815 62.7761Z" fill="#00CF5F"/>
<path opacity="0.6" d="M148.815 62.7761C136.315 65.6504 120.35 64.8895 109.784 60.409C103.375 57.6827 100.142 54.0687 100.142 50.5604V59.5637C100.142 63.1354 103.346 66.686 109.784 69.3912C120.35 73.8716 136.286 74.6325 148.786 71.7582L148.815 62.7761Z" fill="white"/>
<path d="M107.387 48.5734C96.0995 42.9728 96.6769 34.5402 109.206 29.2566C116.3 26.4539 124.241 25.0005 132.301 25.0297C136.613 25.5201 140.775 26.5571 144.6 28.0942C156.147 32.8706 156.147 42.3811 144.6 47.1152C134.553 51.4688 118.762 51.9127 107.387 48.5734Z" fill="#F5F5F5"/>
<path d="M164.202 44.8116C164.202 44.8116 153.231 52.8849 132.041 52.4622C110.851 52.0395 102.364 43.5646 101.267 40.9439C100.699 39.3954 100.666 37.7678 101.169 36.2074C101.673 34.6469 102.699 33.2026 104.154 32.0042C102.717 32.9243 101.551 34.049 100.727 35.3099C99.9028 36.5707 99.4383 37.9412 99.3615 39.3378V45.4245C99.3615 46.3333 98.6975 49.5245 105.54 53.6457C103.331 51.8076 101.932 49.524 101.527 47.0941V44.4734C101.527 44.4734 109.033 53.6669 132.07 53.6669C155.108 53.6669 163.047 46.1853 164.202 44.8116Z" fill="white"/>
</g>
<defs>
<filter id="filter0_d_1762_1419" x="15.0457" y="9.0116" width="90.9355" height="80.3295" filterUnits="userSpaceOnUse" color-interpolation-filters="sRGB">
<feFlood flood-opacity="0" result="BackgroundImageFix"/>
<feColorMatrix in="SourceAlpha" type="matrix" values="0 0 0 0 0 0 0 0 0 0 0 0 0 0 0 0 0 0 127 0" result="hardAlpha"/>
<feOffset dx="8" dy="8"/>
<feGaussianBlur stdDeviation="2"/>
<feComposite in2="hardAlpha" operator="out"/>
<feColorMatrix type="matrix" values="0 0 0 0 0 0 0 0 0 0 0 0 0 0 0 0 0 0 0.25 0"/>
<feBlend mode="normal" in2="BackgroundImageFix" result="effect1_dropShadow_1762_1419"/>
<feBlend mode="normal" in="SourceGraphic" in2="effect1_dropShadow_1762_1419" result="shape"/>
</filter>
<filter id="filter1_d_1762_1419" x="99.2935" y="25.0293" width="79.5068" height="64.9156" filterUnits="userSpaceOnUse" color-interpolation-filters="sRGB">
<feFlood flood-opacity="0" result="BackgroundImageFix"/>
<feColorMatrix in="SourceAlpha" type="matrix" values="0 0 0 0 0 0 0 0 0 0 0 0 0 0 0 0 0 0 127 0" result="hardAlpha"/>
<feOffset dx="8" dy="8"/>
<feGaussianBlur stdDeviation="2"/>
<feComposite in2="hardAlpha" operator="out"/>
<feColorMatrix type="matrix" values="0 0 0 0 0 0 0 0 0 0 0 0 0 0 0 0 0 0 0.25 0"/>
<feBlend mode="normal" in2="BackgroundImageFix" result="effect1_dropShadow_1762_1419"/>
<feBlend mode="normal" in="SourceGraphic" in2="effect1_dropShadow_1762_1419" result="shape"/>
</filter>
</defs>
</svg>
